  0
SECTION
  2
HEADER
  9
$ANGBASE
  50
0.0
  9
$ANGDIR
  70
1
  9
$MEASUREMENT
  70
0
  0
ENDSEC
  0
SECTION
  2
TABLES
  0
TABLE
  2
LTYPE
  70
4
  0
LTYPE
  5
40F
  2
CONTINUOUS
  70
0
  3
Solid line
  72
65
  73
0
  40
0.0
  0
LTYPE
  5
410
  2
DASHDOT
 70
0
  3
Dash Dot ____ _ ____ _
 72
65
 73
4
 40
2.0
 49
1.25
 49
-0.25
 49
0.25
 49
-0.25
  0
LTYPE
  5
411
  2
DASHED
 70
0
  3
Dashed __ __ __ __ __
 72
65
 73
2
 40
0.75
 49
0.5
 49
-0.25
  0
LTYPE
  5
43B
  2
DOTTED
 70
0
  3
Dotted .  .  .  .
 72
65
 73
2
 40
0.2
 49
0.0
 49
-0.2
  0
ENDTAB
  0
TABLE
  2
STYLE
  70
4
  0
STYLE
  2
KICAD
  70
0
  40
0
  41
1
  42
1
  50
0
  71
0
  3
isocp.shx
  0
STYLE
  2
KICADB
  70
0
  40
0
  41
1
  42
1
  50
0
  71
0
  3
isocp.shx
  0
STYLE
  2
KICADI
  70
0
  40
0
  41
1
  42
1
  50
15
  71
0
  3
isocp.shx
  0
STYLE
  2
KICADBI
  70
0
  40
0
  41
1
  42
1
  50
15
  71
0
  3
isocp.shx
  0
ENDTAB
  0
TABLE
  2
LAYER
  70
1
  0
LAYER
  2
BLACK
  70
0
  62
7
  6
CONTINUOUS
  0
ENDTAB
  0
ENDSEC
  0
SECTION
  2
ENTITIES
0
LINE
8
BLACK
6
CONTINUOUS
10
0.2141057480314961
20
0.3251920866141732
11
0.2280341338582677
21
0.3228255511811023
0
LINE
8
BLACK
6
CONTINUOUS
10
0.2280341338582677
20
0.3228255511811023
11
0.2416099606299213
21
0.3189144488188976
0
LINE
8
BLACK
6
CONTINUOUS
10
0.2416099606299213
20
0.3189144488188976
11
0.2546625196850394
21
0.313507874015748
0
LINE
8
BLACK
6
CONTINUOUS
10
0.2546625196850394
20
0.313507874015748
11
0.2670276771653543
21
0.3066738976377953
0
LINE
8
BLACK
6
CONTINUOUS
10
0.2670276771653543
20
0.3066738976377953
11
0.2785498818897638
21
0.2984984645669291
0
LINE
8
BLACK
6
CONTINUOUS
10
0.2785498818897638
20
0.2984984645669291
11
0.2890843307086614
21
0.2890843307086614
0
LINE
8
BLACK
6
CONTINUOUS
10
0.2890843307086614
20
0.2890843307086614
11
0.2984984645669291
21
0.2785498818897638
0
LINE
8
BLACK
6
CONTINUOUS
10
0.2984984645669291
20
0.2785498818897638
11
0.3066738976377953
21
0.2670276771653543
0
LINE
8
BLACK
6
CONTINUOUS
10
0.3066738976377953
20
0.2670276771653543
11
0.313507874015748
21
0.2546625196850394
0
LINE
8
BLACK
6
CONTINUOUS
10
0.313507874015748
20
0.2546625196850394
11
0.3189144488188976
21
0.2416099606299213
0
LINE
8
BLACK
6
CONTINUOUS
10
0.3189144488188976
20
0.2416099606299213
11
0.3228255511811023
21
0.2280341338582677
0
LINE
8
BLACK
6
CONTINUOUS
10
0.3228255511811023
20
0.2280341338582677
11
0.3251920866141732
21
0.2141057480314961
0
LINE
8
BLACK
6
CONTINUOUS
10
0.3251920866141732
20
0.2141057480314961
11
0.3259842519685039
21
0.2
0
LINE
8
BLACK
6
CONTINUOUS
10
0.3259842519685039
20
0.2
11
0.3251920866141732
21
0.1858942519685039
0
LINE
8
BLACK
6
CONTINUOUS
10
0.3251920866141732
20
0.1858942519685039
11
0.3228255511811023
21
0.1719658661417323
0
LINE
8
BLACK
6
CONTINUOUS
10
0.3228255511811023
20
0.1719658661417323
11
0.3189144488188976
21
0.1583900393700787
0
LINE
8
BLACK
6
CONTINUOUS
10
0.3189144488188976
20
0.1583900393700787
11
0.313507874015748
21
0.1453374803149606
0
LINE
8
BLACK
6
CONTINUOUS
10
0.313507874015748
20
0.1453374803149606
11
0.3066738976377953
21
0.1329723228346457
0
LINE
8
BLACK
6
CONTINUOUS
10
0.3066738976377953
20
0.1329723228346457
11
0.2984984645669291
21
0.1214501181102362
0
LINE
8
BLACK
6
CONTINUOUS
10
0.2984984645669291
20
0.1214501181102362
11
0.2890843307086614
21
0.1109156692913386
0
LINE
8
BLACK
6
CONTINUOUS
10
0.2890843307086614
20
0.1109156692913386
11
0.2785498818897638
21
0.1015015354330709
0
LINE
8
BLACK
6
CONTINUOUS
10
0.2785498818897638
20
0.1015015354330709
11
0.2670276771653543
21
0.0933261023622047
0
LINE
8
BLACK
6
CONTINUOUS
10
0.2670276771653543
20
0.0933261023622047
11
0.2546625196850394
21
0.086492125984252
0
LINE
8
BLACK
6
CONTINUOUS
10
0.2546625196850394
20
0.086492125984252
11
0.2416099606299213
21
0.0810855511811024
0
LINE
8
BLACK
6
CONTINUOUS
10
0.2416099606299213
20
0.0810855511811024
11
0.2280341338582677
21
0.0771744488188976
0
LINE
8
BLACK
6
CONTINUOUS
10
0.2280341338582677
20
0.0771744488188976
11
0.2141057480314961
21
0.0748079133858268
0
LINE
8
BLACK
6
CONTINUOUS
10
0.2141057480314961
20
0.0748079133858268
11
0.2
21
0.0740157480314961
0
LINE
8
BLACK
6
CONTINUOUS
10
0.2
20
0.0740157480314961
11
0.1858942519685039
21
0.0748079133858268
0
LINE
8
BLACK
6
CONTINUOUS
10
0.1858942519685039
20
0.0748079133858268
11
0.1719658661417323
21
0.0771744488188976
0
LINE
8
BLACK
6
CONTINUOUS
10
0.1719658661417323
20
0.0771744488188976
11
0.1583900393700787
21
0.0810855511811024
0
LINE
8
BLACK
6
CONTINUOUS
10
0.1583900393700787
20
0.0810855511811024
11
0.1453374803149606
21
0.086492125984252
0
LINE
8
BLACK
6
CONTINUOUS
10
0.1453374803149606
20
0.086492125984252
11
0.1329723228346457
21
0.0933261023622047
0
LINE
8
BLACK
6
CONTINUOUS
10
0.1329723228346457
20
0.0933261023622047
11
0.1214501181102362
21
0.1015015354330709
0
LINE
8
BLACK
6
CONTINUOUS
10
0.1214501181102362
20
0.1015015354330709
11
0.1109156692913386
21
0.1109156692913386
0
LINE
8
BLACK
6
CONTINUOUS
10
0.1109156692913386
20
0.1109156692913386
11
0.1015015354330709
21
0.1214501181102362
0
LINE
8
BLACK
6
CONTINUOUS
10
0.1015015354330709
20
0.1214501181102362
11
0.0933261023622047
21
0.1329723228346457
0
LINE
8
BLACK
6
CONTINUOUS
10
0.0933261023622047
20
0.1329723228346457
11
0.086492125984252
21
0.1453374803149606
0
LINE
8
BLACK
6
CONTINUOUS
10
0.086492125984252
20
0.1453374803149606
11
0.0810855511811024
21
0.1583900393700787
0
LINE
8
BLACK
6
CONTINUOUS
10
0.0810855511811024
20
0.1583900393700787
11
0.0771744488188976
21
0.1719658661417323
0
LINE
8
BLACK
6
CONTINUOUS
10
0.0771744488188976
20
0.1719658661417323
11
0.0748079133858268
21
0.1858942519685039
0
LINE
8
BLACK
6
CONTINUOUS
10
0.0748079133858268
20
0.1858942519685039
11
0.0740157480314961
21
0.2
0
LINE
8
BLACK
6
CONTINUOUS
10
0.0740157480314961
20
0.2
11
0.0748079133858268
21
0.2141057480314961
0
LINE
8
BLACK
6
CONTINUOUS
10
0.0748079133858268
20
0.2141057480314961
11
0.0771744488188976
21
0.2280341338582677
0
LINE
8
BLACK
6
CONTINUOUS
10
0.0771744488188976
20
0.2280341338582677
11
0.0810855511811024
21
0.2416099606299213
0
LINE
8
BLACK
6
CONTINUOUS
10
0.0810855511811024
20
0.2416099606299213
11
0.086492125984252
21
0.2546625196850394
0
LINE
8
BLACK
6
CONTINUOUS
10
0.086492125984252
20
0.2546625196850394
11
0.0933261023622047
21
0.2670276771653543
0
LINE
8
BLACK
6
CONTINUOUS
10
0.0933261023622047
20
0.2670276771653543
11
0.1015015354330709
21
0.2785498818897638
0
LINE
8
BLACK
6
CONTINUOUS
10
0.1015015354330709
20
0.2785498818897638
11
0.1109156692913386
21
0.2890843307086614
0
LINE
8
BLACK
6
CONTINUOUS
10
0.1109156692913386
20
0.2890843307086614
11
0.1214501181102362
21
0.2984984645669291
0
LINE
8
BLACK
6
CONTINUOUS
10
0.1214501181102362
20
0.2984984645669291
11
0.1329723228346457
21
0.3066738976377953
0
LINE
8
BLACK
6
CONTINUOUS
10
0.1329723228346457
20
0.3066738976377953
11
0.1453374803149606
21
0.313507874015748
0
LINE
8
BLACK
6
CONTINUOUS
10
0.1453374803149606
20
0.313507874015748
11
0.1583900393700787
21
0.3189144488188976
0
LINE
8
BLACK
6
CONTINUOUS
10
0.1583900393700787
20
0.3189144488188976
11
0.1719658661417323
21
0.3228255511811023
0
LINE
8
BLACK
6
CONTINUOUS
10
0.1719658661417323
20
0.3228255511811023
11
0.1858942519685039
21
0.3251920866141732
0
LINE
8
BLACK
6
CONTINUOUS
10
0.1858942519685039
20
0.3251920866141732
11
0.2
21
0.3259842519685039
0
LINE
8
BLACK
6
CONTINUOUS
10
0.2
20
0.3259842519685039
11
0.2141057480314961
21
0.3251920866141732
0
LINE
8
BLACK
6
CONTINUOUS
10
1.414105748031496
20
0.3251920866141732
11
1.4280341338582676
21
0.3228255511811023
0
LINE
8
BLACK
6
CONTINUOUS
10
1.4280341338582676
20
0.3228255511811023
11
1.4416099606299213
21
0.3189144488188976
0
LINE
8
BLACK
6
CONTINUOUS
10
1.4416099606299213
20
0.3189144488188976
11
1.4546625196850393
21
0.313507874015748
0
LINE
8
BLACK
6
CONTINUOUS
10
1.4546625196850393
20
0.313507874015748
11
1.4670276771653543
21
0.3066738976377953
0
LINE
8
BLACK
6
CONTINUOUS
10
1.4670276771653543
20
0.3066738976377953
11
1.4785498818897638
21
0.2984984645669291
0
LINE
8
BLACK
6
CONTINUOUS
10
1.4785498818897638
20
0.2984984645669291
11
1.4890843307086614
21
0.2890843307086614
0
LINE
8
BLACK
6
CONTINUOUS
10
1.4890843307086614
20
0.2890843307086614
11
1.498498464566929
21
0.2785498818897638
0
LINE
8
BLACK
6
CONTINUOUS
10
1.498498464566929
20
0.2785498818897638
11
1.5066738976377951
21
0.2670276771653543
0
LINE
8
BLACK
6
CONTINUOUS
10
1.5066738976377951
20
0.2670276771653543
11
1.5135078740157479
21
0.2546625196850394
0
LINE
8
BLACK
6
CONTINUOUS
10
1.5135078740157479
20
0.2546625196850394
11
1.5189144488188977
21
0.2416099606299213
0
LINE
8
BLACK
6
CONTINUOUS
10
1.5189144488188977
20
0.2416099606299213
11
1.5228255511811024
21
0.2280341338582677
0
LINE
8
BLACK
6
CONTINUOUS
10
1.5228255511811024
20
0.2280341338582677
11
1.5251920866141733
21
0.2141057480314961
0
LINE
8
BLACK
6
CONTINUOUS
10
1.5251920866141733
20
0.2141057480314961
11
1.5259842519685038
21
0.2
0
LINE
8
BLACK
6
CONTINUOUS
10
1.5259842519685038
20
0.2
11
1.5251920866141733
21
0.1858942519685039
0
LINE
8
BLACK
6
CONTINUOUS
10
1.5251920866141733
20
0.1858942519685039
11
1.5228255511811024
21
0.1719658661417323
0
LINE
8
BLACK
6
CONTINUOUS
10
1.5228255511811024
20
0.1719658661417323
11
1.5189144488188977
21
0.1583900393700787
0
LINE
8
BLACK
6
CONTINUOUS
10
1.5189144488188977
20
0.1583900393700787
11
1.5135078740157479
21
0.1453374803149606
0
LINE
8
BLACK
6
CONTINUOUS
10
1.5135078740157479
20
0.1453374803149606
11
1.5066738976377951
21
0.1329723228346457
0
LINE
8
BLACK
6
CONTINUOUS
10
1.5066738976377951
20
0.1329723228346457
11
1.498498464566929
21
0.1214501181102362
0
LINE
8
BLACK
6
CONTINUOUS
10
1.498498464566929
20
0.1214501181102362
11
1.4890843307086614
21
0.1109156692913386
0
LINE
8
BLACK
6
CONTINUOUS
10
1.4890843307086614
20
0.1109156692913386
11
1.4785498818897638
21
0.1015015354330709
0
LINE
8
BLACK
6
CONTINUOUS
10
1.4785498818897638
20
0.1015015354330709
11
1.4670276771653543
21
0.0933261023622047
0
LINE
8
BLACK
6
CONTINUOUS
10
1.4670276771653543
20
0.0933261023622047
11
1.4546625196850393
21
0.086492125984252
0
LINE
8
BLACK
6
CONTINUOUS
10
1.4546625196850393
20
0.086492125984252
11
1.4416099606299213
21
0.0810855511811024
0
LINE
8
BLACK
6
CONTINUOUS
10
1.4416099606299213
20
0.0810855511811024
11
1.4280341338582676
21
0.0771744488188976
0
LINE
8
BLACK
6
CONTINUOUS
10
1.4280341338582676
20
0.0771744488188976
11
1.414105748031496
21
0.0748079133858268
0
LINE
8
BLACK
6
CONTINUOUS
10
1.414105748031496
20
0.0748079133858268
11
1.3999999999999999
21
0.0740157480314961
0
LINE
8
BLACK
6
CONTINUOUS
10
1.3999999999999999
20
0.0740157480314961
11
1.3858942519685038
21
0.0748079133858268
0
LINE
8
BLACK
6
CONTINUOUS
10
1.3858942519685038
20
0.0748079133858268
11
1.3719658661417322
21
0.0771744488188976
0
LINE
8
BLACK
6
CONTINUOUS
10
1.3719658661417322
20
0.0771744488188976
11
1.3583900393700787
21
0.0810855511811024
0
LINE
8
BLACK
6
CONTINUOUS
10
1.3583900393700787
20
0.0810855511811024
11
1.3453374803149607
21
0.086492125984252
0
LINE
8
BLACK
6
CONTINUOUS
10
1.3453374803149607
20
0.086492125984252
11
1.3329723228346457
21
0.0933261023622047
0
LINE
8
BLACK
6
CONTINUOUS
10
1.3329723228346457
20
0.0933261023622047
11
1.3214501181102363
21
0.1015015354330709
0
LINE
8
BLACK
6
CONTINUOUS
10
1.3214501181102363
20
0.1015015354330709
11
1.3109156692913386
21
0.1109156692913386
0
LINE
8
BLACK
6
CONTINUOUS
10
1.3109156692913386
20
0.1109156692913386
11
1.3015015354330708
21
0.1214501181102362
0
LINE
8
BLACK
6
CONTINUOUS
10
1.3015015354330708
20
0.1214501181102362
11
1.2933261023622047
21
0.1329723228346457
0
LINE
8
BLACK
6
CONTINUOUS
10
1.2933261023622047
20
0.1329723228346457
11
1.2864921259842519
21
0.1453374803149606
0
LINE
8
BLACK
6
CONTINUOUS
10
1.2864921259842519
20
0.1453374803149606
11
1.2810855511811023
21
0.1583900393700787
0
LINE
8
BLACK
6
CONTINUOUS
10
1.2810855511811023
20
0.1583900393700787
11
1.2771744488188976
21
0.1719658661417323
0
LINE
8
BLACK
6
CONTINUOUS
10
1.2771744488188976
20
0.1719658661417323
11
1.2748079133858268
21
0.1858942519685039
0
LINE
8
BLACK
6
CONTINUOUS
10
1.2748079133858268
20
0.1858942519685039
11
1.274015748031496
21
0.2
0
LINE
8
BLACK
6
CONTINUOUS
10
1.274015748031496
20
0.2
11
1.2748079133858268
21
0.2141057480314961
0
LINE
8
BLACK
6
CONTINUOUS
10
1.2748079133858268
20
0.2141057480314961
11
1.2771744488188976
21
0.2280341338582677
0
LINE
8
BLACK
6
CONTINUOUS
10
1.2771744488188976
20
0.2280341338582677
11
1.2810855511811023
21
0.2416099606299213
0
LINE
8
BLACK
6
CONTINUOUS
10
1.2810855511811023
20
0.2416099606299213
11
1.2864921259842519
21
0.2546625196850394
0
LINE
8
BLACK
6
CONTINUOUS
10
1.2864921259842519
20
0.2546625196850394
11
1.2933261023622047
21
0.2670276771653543
0
LINE
8
BLACK
6
CONTINUOUS
10
1.2933261023622047
20
0.2670276771653543
11
1.3015015354330708
21
0.2785498818897638
0
LINE
8
BLACK
6
CONTINUOUS
10
1.3015015354330708
20
0.2785498818897638
11
1.3109156692913386
21
0.2890843307086614
0
LINE
8
BLACK
6
CONTINUOUS
10
1.3109156692913386
20
0.2890843307086614
11
1.3214501181102363
21
0.2984984645669291
0
LINE
8
BLACK
6
CONTINUOUS
10
1.3214501181102363
20
0.2984984645669291
11
1.3329723228346457
21
0.3066738976377953
0
LINE
8
BLACK
6
CONTINUOUS
10
1.3329723228346457
20
0.3066738976377953
11
1.3453374803149607
21
0.313507874015748
0
LINE
8
BLACK
6
CONTINUOUS
10
1.3453374803149607
20
0.313507874015748
11
1.3583900393700787
21
0.3189144488188976
0
LINE
8
BLACK
6
CONTINUOUS
10
1.3583900393700787
20
0.3189144488188976
11
1.3719658661417322
21
0.3228255511811023
0
LINE
8
BLACK
6
CONTINUOUS
10
1.3719658661417322
20
0.3228255511811023
11
1.3858942519685038
21
0.3251920866141732
0
LINE
8
BLACK
6
CONTINUOUS
10
1.3858942519685038
20
0.3251920866141732
11
1.3999999999999999
21
0.3259842519685039
0
LINE
8
BLACK
6
CONTINUOUS
10
1.3999999999999999
20
0.3259842519685039
11
1.414105748031496
21
0.3251920866141732
0
LINE
8
BLACK
6
CONTINUOUS
10
0.5780132677165354
20
0.2854242519685039
11
0.5805677559055118
21
0.2837173622047244
0
LINE
8
BLACK
6
CONTINUOUS
10
0.5805677559055118
20
0.2837173622047244
11
0.5822746456692913
21
0.281162874015748
0
LINE
8
BLACK
6
CONTINUOUS
10
0.5822746456692913
20
0.281162874015748
11
0.5828740157480314
21
0.2781496062992126
0
LINE
8
BLACK
6
CONTINUOUS
10
0.5828740157480314
20
0.2781496062992126
11
0.5828740157480314
21
0.1281496062992126
0
LINE
8
BLACK
6
CONTINUOUS
10
0.5828740157480314
20
0.1281496062992126
11
0.5822746456692913
21
0.1251363385826772
0
LINE
8
BLACK
6
CONTINUOUS
10
0.5822746456692913
20
0.1251363385826772
11
0.5805677559055118
21
0.1225818503937008
0
LINE
8
BLACK
6
CONTINUOUS
10
0.5805677559055118
20
0.1225818503937008
11
0.5780132677165354
21
0.1208749606299213
0
LINE
8
BLACK
6
CONTINUOUS
10
0.5780132677165354
20
0.1208749606299213
11
0.575
21
0.1202755905511811
0
LINE
8
BLACK
6
CONTINUOUS
10
0.575
20
0.1202755905511811
11
0.425
21
0.1202755905511811
0
LINE
8
BLACK
6
CONTINUOUS
10
0.425
20
0.1202755905511811
11
0.4219867322834646
21
0.1208749606299213
0
LINE
8
BLACK
6
CONTINUOUS
10
0.4219867322834646
20
0.1208749606299213
11
0.4194322440944882
21
0.1225818503937008
0
LINE
8
BLACK
6
CONTINUOUS
10
0.4194322440944882
20
0.1225818503937008
11
0.4177253543307087
21
0.1251363385826772
0
LINE
8
BLACK
6
CONTINUOUS
10
0.4177253543307087
20
0.1251363385826772
11
0.4171259842519685
21
0.1281496062992126
0
LINE
8
BLACK
6
CONTINUOUS
10
0.4171259842519685
20
0.1281496062992126
11
0.4171259842519685
21
0.2781496062992126
0
LINE
8
BLACK
6
CONTINUOUS
10
0.4171259842519685
20
0.2781496062992126
11
0.4177253543307087
21
0.281162874015748
0
LINE
8
BLACK
6
CONTINUOUS
10
0.4177253543307087
20
0.281162874015748
11
0.4194322440944882
21
0.2837173622047244
0
LINE
8
BLACK
6
CONTINUOUS
10
0.4194322440944882
20
0.2837173622047244
11
0.4219867322834646
21
0.2854242519685039
0
LINE
8
BLACK
6
CONTINUOUS
10
0.4219867322834646
20
0.2854242519685039
11
0.425
21
0.2860236220472441
0
LINE
8
BLACK
6
CONTINUOUS
10
0.425
20
0.2860236220472441
11
0.575
21
0.2860236220472441
0
LINE
8
BLACK
6
CONTINUOUS
10
0.575
20
0.2860236220472441
11
0.5780132677165354
21
0.2854242519685039
0
LINE
8
BLACK
6
CONTINUOUS
10
0.7780132677165355
20
0.2854242519685039
11
0.7805677559055118
21
0.2837173622047244
0
LINE
8
BLACK
6
CONTINUOUS
10
0.7805677559055118
20
0.2837173622047244
11
0.7822746456692913
21
0.281162874015748
0
LINE
8
BLACK
6
CONTINUOUS
10
0.7822746456692913
20
0.281162874015748
11
0.7828740157480315
21
0.2781496062992126
0
LINE
8
BLACK
6
CONTINUOUS
10
0.7828740157480315
20
0.2781496062992126
11
0.7828740157480315
21
0.1281496062992126
0
LINE
8
BLACK
6
CONTINUOUS
10
0.7828740157480315
20
0.1281496062992126
11
0.7822746456692913
21
0.1251363385826772
0
LINE
8
BLACK
6
CONTINUOUS
10
0.7822746456692913
20
0.1251363385826772
11
0.7805677559055118
21
0.1225818503937008
0
LINE
8
BLACK
6
CONTINUOUS
10
0.7805677559055118
20
0.1225818503937008
11
0.7780132677165355
21
0.1208749606299213
0
LINE
8
BLACK
6
CONTINUOUS
10
0.7780132677165355
20
0.1208749606299213
11
0.775
21
0.1202755905511811
0
LINE
8
BLACK
6
CONTINUOUS
10
0.775
20
0.1202755905511811
11
0.625
21
0.1202755905511811
0
LINE
8
BLACK
6
CONTINUOUS
10
0.625
20
0.1202755905511811
11
0.6219867322834646
21
0.1208749606299213
0
LINE
8
BLACK
6
CONTINUOUS
10
0.6219867322834646
20
0.1208749606299213
11
0.6194322440944882
21
0.1225818503937008
0
LINE
8
BLACK
6
CONTINUOUS
10
0.6194322440944882
20
0.1225818503937008
11
0.6177253543307086
21
0.1251363385826772
0
LINE
8
BLACK
6
CONTINUOUS
10
0.6177253543307086
20
0.1251363385826772
11
0.6171259842519685
21
0.1281496062992126
0
LINE
8
BLACK
6
CONTINUOUS
10
0.6171259842519685
20
0.1281496062992126
11
0.6171259842519685
21
0.2781496062992126
0
LINE
8
BLACK
6
CONTINUOUS
10
0.6171259842519685
20
0.2781496062992126
11
0.6177253543307086
21
0.281162874015748
0
LINE
8
BLACK
6
CONTINUOUS
10
0.6177253543307086
20
0.281162874015748
11
0.6194322440944882
21
0.2837173622047244
0
LINE
8
BLACK
6
CONTINUOUS
10
0.6194322440944882
20
0.2837173622047244
11
0.6219867322834646
21
0.2854242519685039
0
LINE
8
BLACK
6
CONTINUOUS
10
0.6219867322834646
20
0.2854242519685039
11
0.625
21
0.2860236220472441
0
LINE
8
BLACK
6
CONTINUOUS
10
0.625
20
0.2860236220472441
11
0.775
21
0.2860236220472441
0
LINE
8
BLACK
6
CONTINUOUS
10
0.775
20
0.2860236220472441
11
0.7780132677165355
21
0.2854242519685039
0
LINE
8
BLACK
6
CONTINUOUS
10
0.9780132677165354
20
0.2854242519685039
11
0.9805677559055118
21
0.2837173622047244
0
LINE
8
BLACK
6
CONTINUOUS
10
0.9805677559055118
20
0.2837173622047244
11
0.9822746456692913
21
0.281162874015748
0
LINE
8
BLACK
6
CONTINUOUS
10
0.9822746456692913
20
0.281162874015748
11
0.9828740157480315
21
0.2781496062992126
0
LINE
8
BLACK
6
CONTINUOUS
10
0.9828740157480315
20
0.2781496062992126
11
0.9828740157480315
21
0.1281496062992126
0
LINE
8
BLACK
6
CONTINUOUS
10
0.9828740157480315
20
0.1281496062992126
11
0.9822746456692913
21
0.1251363385826772
0
LINE
8
BLACK
6
CONTINUOUS
10
0.9822746456692913
20
0.1251363385826772
11
0.9805677559055118
21
0.1225818503937008
0
LINE
8
BLACK
6
CONTINUOUS
10
0.9805677559055118
20
0.1225818503937008
11
0.9780132677165354
21
0.1208749606299213
0
LINE
8
BLACK
6
CONTINUOUS
10
0.9780132677165354
20
0.1208749606299213
11
0.975
21
0.1202755905511811
0
LINE
8
BLACK
6
CONTINUOUS
10
0.975
20
0.1202755905511811
11
0.825
21
0.1202755905511811
0
LINE
8
BLACK
6
CONTINUOUS
10
0.825
20
0.1202755905511811
11
0.8219867322834645
21
0.1208749606299213
0
LINE
8
BLACK
6
CONTINUOUS
10
0.8219867322834645
20
0.1208749606299213
11
0.8194322440944881
21
0.1225818503937008
0
LINE
8
BLACK
6
CONTINUOUS
10
0.8194322440944881
20
0.1225818503937008
11
0.8177253543307087
21
0.1251363385826772
0
LINE
8
BLACK
6
CONTINUOUS
10
0.8177253543307087
20
0.1251363385826772
11
0.8171259842519685
21
0.1281496062992126
0
LINE
8
BLACK
6
CONTINUOUS
10
0.8171259842519685
20
0.1281496062992126
11
0.8171259842519685
21
0.2781496062992126
0
LINE
8
BLACK
6
CONTINUOUS
10
0.8171259842519685
20
0.2781496062992126
11
0.8177253543307087
21
0.281162874015748
0
LINE
8
BLACK
6
CONTINUOUS
10
0.8177253543307087
20
0.281162874015748
11
0.8194322440944881
21
0.2837173622047244
0
LINE
8
BLACK
6
CONTINUOUS
10
0.8194322440944881
20
0.2837173622047244
11
0.8219867322834645
21
0.2854242519685039
0
LINE
8
BLACK
6
CONTINUOUS
10
0.8219867322834645
20
0.2854242519685039
11
0.825
21
0.2860236220472441
0
LINE
8
BLACK
6
CONTINUOUS
10
0.825
20
0.2860236220472441
11
0.975
21
0.2860236220472441
0
LINE
8
BLACK
6
CONTINUOUS
10
0.975
20
0.2860236220472441
11
0.9780132677165354
21
0.2854242519685039
0
LINE
8
BLACK
6
CONTINUOUS
10
1.1780132677165354
20
0.2854242519685039
11
1.1805677559055119
21
0.2837173622047244
0
LINE
8
BLACK
6
CONTINUOUS
10
1.1805677559055119
20
0.2837173622047244
11
1.1822746456692914
21
0.281162874015748
0
LINE
8
BLACK
6
CONTINUOUS
10
1.1822746456692914
20
0.281162874015748
11
1.1828740157480315
21
0.2781496062992126
0
LINE
8
BLACK
6
CONTINUOUS
10
1.1828740157480315
20
0.2781496062992126
11
1.1828740157480315
21
0.1281496062992126
0
LINE
8
BLACK
6
CONTINUOUS
10
1.1828740157480315
20
0.1281496062992126
11
1.1822746456692914
21
0.1251363385826772
0
LINE
8
BLACK
6
CONTINUOUS
10
1.1822746456692914
20
0.1251363385826772
11
1.1805677559055119
21
0.1225818503937008
0
LINE
8
BLACK
6
CONTINUOUS
10
1.1805677559055119
20
0.1225818503937008
11
1.1780132677165354
21
0.1208749606299213
0
LINE
8
BLACK
6
CONTINUOUS
10
1.1780132677165354
20
0.1208749606299213
11
1.175
21
0.1202755905511811
0
LINE
8
BLACK
6
CONTINUOUS
10
1.175
20
0.1202755905511811
11
1.0249999999999999
21
0.1202755905511811
0
LINE
8
BLACK
6
CONTINUOUS
10
1.0249999999999999
20
0.1202755905511811
11
1.0219867322834646
21
0.1208749606299213
0
LINE
8
BLACK
6
CONTINUOUS
10
1.0219867322834646
20
0.1208749606299213
11
1.0194322440944881
21
0.1225818503937008
0
LINE
8
BLACK
6
CONTINUOUS
10
1.0194322440944881
20
0.1225818503937008
11
1.0177253543307085
21
0.1251363385826772
0
LINE
8
BLACK
6
CONTINUOUS
10
1.0177253543307085
20
0.1251363385826772
11
1.0171259842519684
21
0.1281496062992126
0
LINE
8
BLACK
6
CONTINUOUS
10
1.0171259842519684
20
0.1281496062992126
11
1.0171259842519684
21
0.2781496062992126
0
LINE
8
BLACK
6
CONTINUOUS
10
1.0171259842519684
20
0.2781496062992126
11
1.0177253543307085
21
0.281162874015748
0
LINE
8
BLACK
6
CONTINUOUS
10
1.0177253543307085
20
0.281162874015748
11
1.0194322440944881
21
0.2837173622047244
0
LINE
8
BLACK
6
CONTINUOUS
10
1.0194322440944881
20
0.2837173622047244
11
1.0219867322834646
21
0.2854242519685039
0
LINE
8
BLACK
6
CONTINUOUS
10
1.0219867322834646
20
0.2854242519685039
11
1.0249999999999999
21
0.2860236220472441
0
LINE
8
BLACK
6
CONTINUOUS
10
1.0249999999999999
20
0.2860236220472441
11
1.175
21
0.2860236220472441
0
LINE
8
BLACK
6
CONTINUOUS
10
1.175
20
0.2860236220472441
11
1.1780132677165354
21
0.2854242519685039
0
LINE
8
BLACK
6
CONTINUOUS
10
0.5780132677165354
20
0.4822746456692913
11
0.5805677559055118
21
0.4805677559055118
0
LINE
8
BLACK
6
CONTINUOUS
10
0.5805677559055118
20
0.4805677559055118
11
0.5822746456692913
21
0.4780132677165354
0
LINE
8
BLACK
6
CONTINUOUS
10
0.5822746456692913
20
0.4780132677165354
11
0.5828740157480314
21
0.475
0
LINE
8
BLACK
6
CONTINUOUS
10
0.5828740157480314
20
0.475
11
0.5828740157480314
21
0.325
0
LINE
8
BLACK
6
CONTINUOUS
10
0.5828740157480314
20
0.325
11
0.5822746456692913
21
0.3219867322834646
0
LINE
8
BLACK
6
CONTINUOUS
10
0.5822746456692913
20
0.3219867322834646
11
0.5805677559055118
21
0.3194322440944882
0
LINE
8
BLACK
6
CONTINUOUS
10
0.5805677559055118
20
0.3194322440944882
11
0.5780132677165354
21
0.3177253543307086
0
LINE
8
BLACK
6
CONTINUOUS
10
0.5780132677165354
20
0.3177253543307086
11
0.575
21
0.3171259842519685
0
LINE
8
BLACK
6
CONTINUOUS
10
0.575
20
0.3171259842519685
11
0.425
21
0.3171259842519685
0
LINE
8
BLACK
6
CONTINUOUS
10
0.425
20
0.3171259842519685
11
0.4219867322834646
21
0.3177253543307086
0
LINE
8
BLACK
6
CONTINUOUS
10
0.4219867322834646
20
0.3177253543307086
11
0.4194322440944882
21
0.3194322440944882
0
LINE
8
BLACK
6
CONTINUOUS
10
0.4194322440944882
20
0.3194322440944882
11
0.4177253543307087
21
0.3219867322834646
0
LINE
8
BLACK
6
CONTINUOUS
10
0.4177253543307087
20
0.3219867322834646
11
0.4171259842519685
21
0.325
0
LINE
8
BLACK
6
CONTINUOUS
10
0.4171259842519685
20
0.325
11
0.4171259842519685
21
0.475
0
LINE
8
BLACK
6
CONTINUOUS
10
0.4171259842519685
20
0.475
11
0.4177253543307087
21
0.4780132677165354
0
LINE
8
BLACK
6
CONTINUOUS
10
0.4177253543307087
20
0.4780132677165354
11
0.4194322440944882
21
0.4805677559055118
0
LINE
8
BLACK
6
CONTINUOUS
10
0.4194322440944882
20
0.4805677559055118
11
0.4219867322834646
21
0.4822746456692913
0
LINE
8
BLACK
6
CONTINUOUS
10
0.4219867322834646
20
0.4822746456692913
11
0.425
21
0.4828740157480315
0
LINE
8
BLACK
6
CONTINUOUS
10
0.425
20
0.4828740157480315
11
0.575
21
0.4828740157480315
0
LINE
8
BLACK
6
CONTINUOUS
10
0.575
20
0.4828740157480315
11
0.5780132677165354
21
0.4822746456692913
0
LINE
8
BLACK
6
CONTINUOUS
10
0.7780132677165355
20
0.4822746456692913
11
0.7805677559055118
21
0.4805677559055118
0
LINE
8
BLACK
6
CONTINUOUS
10
0.7805677559055118
20
0.4805677559055118
11
0.7822746456692913
21
0.4780132677165354
0
LINE
8
BLACK
6
CONTINUOUS
10
0.7822746456692913
20
0.4780132677165354
11
0.7828740157480315
21
0.475
0
LINE
8
BLACK
6
CONTINUOUS
10
0.7828740157480315
20
0.475
11
0.7828740157480315
21
0.325
0
LINE
8
BLACK
6
CONTINUOUS
10
0.7828740157480315
20
0.325
11
0.7822746456692913
21
0.3219867322834646
0
LINE
8
BLACK
6
CONTINUOUS
10
0.7822746456692913
20
0.3219867322834646
11
0.7805677559055118
21
0.3194322440944882
0
LINE
8
BLACK
6
CONTINUOUS
10
0.7805677559055118
20
0.3194322440944882
11
0.7780132677165355
21
0.3177253543307086
0
LINE
8
BLACK
6
CONTINUOUS
10
0.7780132677165355
20
0.3177253543307086
11
0.775
21
0.3171259842519685
0
LINE
8
BLACK
6
CONTINUOUS
10
0.775
20
0.3171259842519685
11
0.625
21
0.3171259842519685
0
LINE
8
BLACK
6
CONTINUOUS
10
0.625
20
0.3171259842519685
11
0.6219867322834646
21
0.3177253543307086
0
LINE
8
BLACK
6
CONTINUOUS
10
0.6219867322834646
20
0.3177253543307086
11
0.6194322440944882
21
0.3194322440944882
0
LINE
8
BLACK
6
CONTINUOUS
10
0.6194322440944882
20
0.3194322440944882
11
0.6177253543307086
21
0.3219867322834646
0
LINE
8
BLACK
6
CONTINUOUS
10
0.6177253543307086
20
0.3219867322834646
11
0.6171259842519685
21
0.325
0
LINE
8
BLACK
6
CONTINUOUS
10
0.6171259842519685
20
0.325
11
0.6171259842519685
21
0.475
0
LINE
8
BLACK
6
CONTINUOUS
10
0.6171259842519685
20
0.475
11
0.6177253543307086
21
0.4780132677165354
0
LINE
8
BLACK
6
CONTINUOUS
10
0.6177253543307086
20
0.4780132677165354
11
0.6194322440944882
21
0.4805677559055118
0
LINE
8
BLACK
6
CONTINUOUS
10
0.6194322440944882
20
0.4805677559055118
11
0.6219867322834646
21
0.4822746456692913
0
LINE
8
BLACK
6
CONTINUOUS
10
0.6219867322834646
20
0.4822746456692913
11
0.625
21
0.4828740157480315
0
LINE
8
BLACK
6
CONTINUOUS
10
0.625
20
0.4828740157480315
11
0.775
21
0.4828740157480315
0
LINE
8
BLACK
6
CONTINUOUS
10
0.775
20
0.4828740157480315
11
0.7780132677165355
21
0.4822746456692913
0
LINE
8
BLACK
6
CONTINUOUS
10
0.9780132677165354
20
0.4822746456692913
11
0.9805677559055118
21
0.4805677559055118
0
LINE
8
BLACK
6
CONTINUOUS
10
0.9805677559055118
20
0.4805677559055118
11
0.9822746456692913
21
0.4780132677165354
0
LINE
8
BLACK
6
CONTINUOUS
10
0.9822746456692913
20
0.4780132677165354
11
0.9828740157480315
21
0.475
0
LINE
8
BLACK
6
CONTINUOUS
10
0.9828740157480315
20
0.475
11
0.9828740157480315
21
0.325
0
LINE
8
BLACK
6
CONTINUOUS
10
0.9828740157480315
20
0.325
11
0.9822746456692913
21
0.3219867322834646
0
LINE
8
BLACK
6
CONTINUOUS
10
0.9822746456692913
20
0.3219867322834646
11
0.9805677559055118
21
0.3194322440944882
0
LINE
8
BLACK
6
CONTINUOUS
10
0.9805677559055118
20
0.3194322440944882
11
0.9780132677165354
21
0.3177253543307086
0
LINE
8
BLACK
6
CONTINUOUS
10
0.9780132677165354
20
0.3177253543307086
11
0.975
21
0.3171259842519685
0
LINE
8
BLACK
6
CONTINUOUS
10
0.975
20
0.3171259842519685
11
0.825
21
0.3171259842519685
0
LINE
8
BLACK
6
CONTINUOUS
10
0.825
20
0.3171259842519685
11
0.8219867322834645
21
0.3177253543307086
0
LINE
8
BLACK
6
CONTINUOUS
10
0.8219867322834645
20
0.3177253543307086
11
0.8194322440944881
21
0.3194322440944882
0
LINE
8
BLACK
6
CONTINUOUS
10
0.8194322440944881
20
0.3194322440944882
11
0.8177253543307087
21
0.3219867322834646
0
LINE
8
BLACK
6
CONTINUOUS
10
0.8177253543307087
20
0.3219867322834646
11
0.8171259842519685
21
0.325
0
LINE
8
BLACK
6
CONTINUOUS
10
0.8171259842519685
20
0.325
11
0.8171259842519685
21
0.475
0
LINE
8
BLACK
6
CONTINUOUS
10
0.8171259842519685
20
0.475
11
0.8177253543307087
21
0.4780132677165354
0
LINE
8
BLACK
6
CONTINUOUS
10
0.8177253543307087
20
0.4780132677165354
11
0.8194322440944881
21
0.4805677559055118
0
LINE
8
BLACK
6
CONTINUOUS
10
0.8194322440944881
20
0.4805677559055118
11
0.8219867322834645
21
0.4822746456692913
0
LINE
8
BLACK
6
CONTINUOUS
10
0.8219867322834645
20
0.4822746456692913
11
0.825
21
0.4828740157480315
0
LINE
8
BLACK
6
CONTINUOUS
10
0.825
20
0.4828740157480315
11
0.975
21
0.4828740157480315
0
LINE
8
BLACK
6
CONTINUOUS
10
0.975
20
0.4828740157480315
11
0.9780132677165354
21
0.4822746456692913
0
LINE
8
BLACK
6
CONTINUOUS
10
1.1780132677165354
20
0.4822746456692913
11
1.1805677559055119
21
0.4805677559055118
0
LINE
8
BLACK
6
CONTINUOUS
10
1.1805677559055119
20
0.4805677559055118
11
1.1822746456692914
21
0.4780132677165354
0
LINE
8
BLACK
6
CONTINUOUS
10
1.1822746456692914
20
0.4780132677165354
11
1.1828740157480315
21
0.475
0
LINE
8
BLACK
6
CONTINUOUS
10
1.1828740157480315
20
0.475
11
1.1828740157480315
21
0.325
0
LINE
8
BLACK
6
CONTINUOUS
10
1.1828740157480315
20
0.325
11
1.1822746456692914
21
0.3219867322834646
0
LINE
8
BLACK
6
CONTINUOUS
10
1.1822746456692914
20
0.3219867322834646
11
1.1805677559055119
21
0.3194322440944882
0
LINE
8
BLACK
6
CONTINUOUS
10
1.1805677559055119
20
0.3194322440944882
11
1.1780132677165354
21
0.3177253543307086
0
LINE
8
BLACK
6
CONTINUOUS
10
1.1780132677165354
20
0.3177253543307086
11
1.175
21
0.3171259842519685
0
LINE
8
BLACK
6
CONTINUOUS
10
1.175
20
0.3171259842519685
11
1.0249999999999999
21
0.3171259842519685
0
LINE
8
BLACK
6
CONTINUOUS
10
1.0249999999999999
20
0.3171259842519685
11
1.0219867322834646
21
0.3177253543307086
0
LINE
8
BLACK
6
CONTINUOUS
10
1.0219867322834646
20
0.3177253543307086
11
1.0194322440944881
21
0.3194322440944882
0
LINE
8
BLACK
6
CONTINUOUS
10
1.0194322440944881
20
0.3194322440944882
11
1.0177253543307085
21
0.3219867322834646
0
LINE
8
BLACK
6
CONTINUOUS
10
1.0177253543307085
20
0.3219867322834646
11
1.0171259842519684
21
0.325
0
LINE
8
BLACK
6
CONTINUOUS
10
1.0171259842519684
20
0.325
11
1.0171259842519684
21
0.475
0
LINE
8
BLACK
6
CONTINUOUS
10
1.0171259842519684
20
0.475
11
1.0177253543307085
21
0.4780132677165354
0
LINE
8
BLACK
6
CONTINUOUS
10
1.0177253543307085
20
0.4780132677165354
11
1.0194322440944881
21
0.4805677559055118
0
LINE
8
BLACK
6
CONTINUOUS
10
1.0194322440944881
20
0.4805677559055118
11
1.0219867322834646
21
0.4822746456692913
0
LINE
8
BLACK
6
CONTINUOUS
10
1.0219867322834646
20
0.4822746456692913
11
1.0249999999999999
21
0.4828740157480315
0
LINE
8
BLACK
6
CONTINUOUS
10
1.0249999999999999
20
0.4828740157480315
11
1.175
21
0.4828740157480315
0
LINE
8
BLACK
6
CONTINUOUS
10
1.175
20
0.4828740157480315
11
1.1780132677165354
21
0.4822746456692913
0
LINE
8
BLACK
6
CONTINUOUS
10
0.3752573622047244
20
1.0795187401574804
11
0.3778118503937008
21
1.0778118503937009
0
LINE
8
BLACK
6
CONTINUOUS
10
0.3778118503937008
20
1.0778118503937009
11
0.3795187401574803
21
1.0752573622047243
0
LINE
8
BLACK
6
CONTINUOUS
10
0.3795187401574803
20
1.0752573622047243
11
0.3801181102362204
21
1.072244094488189
0
LINE
8
BLACK
6
CONTINUOUS
10
0.3801181102362204
20
1.072244094488189
11
0.3801181102362204
21
0.977755905511811
0
LINE
8
BLACK
6
CONTINUOUS
10
0.3801181102362204
20
0.977755905511811
11
0.3795187401574803
21
0.9747426377952756
0
LINE
8
BLACK
6
CONTINUOUS
10
0.3795187401574803
20
0.9747426377952756
11
0.3778118503937008
21
0.9721881496062992
0
LINE
8
BLACK
6
CONTINUOUS
10
0.3778118503937008
20
0.9721881496062992
11
0.3752573622047244
21
0.9704812598425197
0
LINE
8
BLACK
6
CONTINUOUS
10
0.3752573622047244
20
0.9704812598425197
11
0.372244094488189
21
0.9698818897637795
0
LINE
8
BLACK
6
CONTINUOUS
10
0.372244094488189
20
0.9698818897637795
11
0.277755905511811
21
0.9698818897637795
0
LINE
8
BLACK
6
CONTINUOUS
10
0.277755905511811
20
0.9698818897637795
11
0.2747426377952756
21
0.9704812598425197
0
LINE
8
BLACK
6
CONTINUOUS
10
0.2747426377952756
20
0.9704812598425197
11
0.2721881496062992
21
0.9721881496062992
0
LINE
8
BLACK
6
CONTINUOUS
10
0.2721881496062992
20
0.9721881496062992
11
0.2704812598425197
21
0.9747426377952756
0
LINE
8
BLACK
6
CONTINUOUS
10
0.2704812598425197
20
0.9747426377952756
11
0.2698818897637795
21
0.977755905511811
0
LINE
8
BLACK
6
CONTINUOUS
10
0.2698818897637795
20
0.977755905511811
11
0.2698818897637795
21
1.072244094488189
0
LINE
8
BLACK
6
CONTINUOUS
10
0.2698818897637795
20
1.072244094488189
11
0.2704812598425197
21
1.0752573622047243
0
LINE
8
BLACK
6
CONTINUOUS
10
0.2704812598425197
20
1.0752573622047243
11
0.2721881496062992
21
1.0778118503937009
0
LINE
8
BLACK
6
CONTINUOUS
10
0.2721881496062992
20
1.0778118503937009
11
0.2747426377952756
21
1.0795187401574804
0
LINE
8
BLACK
6
CONTINUOUS
10
0.2747426377952756
20
1.0795187401574804
11
0.277755905511811
21
1.0801181102362205
0
LINE
8
BLACK
6
CONTINUOUS
10
0.277755905511811
20
1.0801181102362205
11
0.372244094488189
21
1.0801181102362205
0
LINE
8
BLACK
6
CONTINUOUS
10
0.372244094488189
20
1.0801181102362205
11
0.3752573622047244
21
1.0795187401574804
0
LINE
8
BLACK
6
CONTINUOUS
10
0.5353811023622047
20
1.0784314960629922
11
0.5439911023622047
21
1.0754757086614173
0
LINE
8
BLACK
6
CONTINUOUS
10
0.5439911023622047
20
1.0754757086614173
11
0.551997125984252
21
1.071143031496063
0
LINE
8
BLACK
6
CONTINUOUS
10
0.551997125984252
20
1.071143031496063
11
0.5591808661417322
21
1.0655516929133857
0
LINE
8
BLACK
6
CONTINUOUS
10
0.5591808661417322
20
1.0655516929133857
11
0.5653463385826771
21
1.058854251968504
0
LINE
8
BLACK
6
CONTINUOUS
10
0.5653463385826771
20
1.058854251968504
11
0.5703253149606299
21
1.0512333070866142
0
LINE
8
BLACK
6
CONTINUOUS
10
0.5703253149606299
20
1.0512333070866142
11
0.5739820472440945
21
1.0428968110236221
0
LINE
8
BLACK
6
CONTINUOUS
10
0.5739820472440945
20
1.0428968110236221
11
0.5762167716535433
21
1.034072125984252
0
LINE
8
BLACK
6
CONTINUOUS
10
0.5762167716535433
20
1.034072125984252
11
0.5769685039370078
21
1.0249999999999999
0
LINE
8
BLACK
6
CONTINUOUS
10
0.5769685039370078
20
1.0249999999999999
11
0.5762167716535433
21
1.015927874015748
0
LINE
8
BLACK
6
CONTINUOUS
10
0.5762167716535433
20
1.015927874015748
11
0.5739820472440945
21
1.007103188976378
0
LINE
8
BLACK
6
CONTINUOUS
10
0.5739820472440945
20
1.007103188976378
11
0.5703253149606299
21
0.9987666929133858
0
LINE
8
BLACK
6
CONTINUOUS
10
0.5703253149606299
20
0.9987666929133858
11
0.5653463385826771
21
0.991145748031496
0
LINE
8
BLACK
6
CONTINUOUS
10
0.5653463385826771
20
0.991145748031496
11
0.5591808661417322
21
0.9844483070866141
0
LINE
8
BLACK
6
CONTINUOUS
10
0.5591808661417322
20
0.9844483070866141
11
0.551997125984252
21
0.978856968503937
0
LINE
8
BLACK
6
CONTINUOUS
10
0.551997125984252
20
0.978856968503937
11
0.5439911023622047
21
0.9745242913385826
0
LINE
8
BLACK
6
CONTINUOUS
10
0.5439911023622047
20
0.9745242913385826
11
0.5353811023622047
21
0.9715685039370079
0
LINE
8
BLACK
6
CONTINUOUS
10
0.5353811023622047
20
0.9715685039370079
11
0.5264020078740157
21
0.9700701574803149
0
LINE
8
BLACK
6
CONTINUOUS
10
0.5264020078740157
20
0.9700701574803149
11
0.5172987795275591
21
0.9700701574803149
0
LINE
8
BLACK
6
CONTINUOUS
10
0.5172987795275591
20
0.9700701574803149
11
0.5083196850393701
21
0.9715685039370079
0
LINE
8
BLACK
6
CONTINUOUS
10
0.5083196850393701
20
0.9715685039370079
11
0.4997096850393701
21
0.9745242913385826
0
LINE
8
BLACK
6
CONTINUOUS
10
0.4997096850393701
20
0.9745242913385826
11
0.4917036614173228
21
0.978856968503937
0
LINE
8
BLACK
6
CONTINUOUS
10
0.4917036614173228
20
0.978856968503937
11
0.4845199212598425
21
0.9844483070866141
0
LINE
8
BLACK
6
CONTINUOUS
10
0.4845199212598425
20
0.9844483070866141
11
0.4783544488188976
21
0.991145748031496
0
LINE
8
BLACK
6
CONTINUOUS
10
0.4783544488188976
20
0.991145748031496
11
0.4733754724409449
21
0.9987666929133858
0
LINE
8
BLACK
6
CONTINUOUS
10
0.4733754724409449
20
0.9987666929133858
11
0.4697187401574803
21
1.007103188976378
0
LINE
8
BLACK
6
CONTINUOUS
10
0.4697187401574803
20
1.007103188976378
11
0.4674840157480315
21
1.015927874015748
0
LINE
8
BLACK
6
CONTINUOUS
10
0.4674840157480315
20
1.015927874015748
11
0.4667322834645669
21
1.0249999999999999
0
LINE
8
BLACK
6
CONTINUOUS
10
0.4667322834645669
20
1.0249999999999999
11
0.4674840157480315
21
1.034072125984252
0
LINE
8
BLACK
6
CONTINUOUS
10
0.4674840157480315
20
1.034072125984252
11
0.4697187401574803
21
1.0428968110236221
0
LINE
8
BLACK
6
CONTINUOUS
10
0.4697187401574803
20
1.0428968110236221
11
0.4733754724409449
21
1.0512333070866142
0
LINE
8
BLACK
6
CONTINUOUS
10
0.4733754724409449
20
1.0512333070866142
11
0.4783544488188976
21
1.058854251968504
0
LINE
8
BLACK
6
CONTINUOUS
10
0.4783544488188976
20
1.058854251968504
11
0.4845199212598425
21
1.0655516929133857
0
LINE
8
BLACK
6
CONTINUOUS
10
0.4845199212598425
20
1.0655516929133857
11
0.4917036614173228
21
1.071143031496063
0
LINE
8
BLACK
6
CONTINUOUS
10
0.4917036614173228
20
1.071143031496063
11
0.4997096850393701
21
1.0754757086614173
0
LINE
8
BLACK
6
CONTINUOUS
10
0.4997096850393701
20
1.0754757086614173
11
0.5083196850393701
21
1.0784314960629922
0
LINE
8
BLACK
6
CONTINUOUS
10
0.5083196850393701
20
1.0784314960629922
11
0.5172987795275591
21
1.079929842519685
0
LINE
8
BLACK
6
CONTINUOUS
10
0.5172987795275591
20
1.079929842519685
11
0.5264020078740157
21
1.079929842519685
0
LINE
8
BLACK
6
CONTINUOUS
10
0.5264020078740157
20
1.079929842519685
11
0.5353811023622047
21
1.0784314960629922
0
LINE
8
BLACK
6
CONTINUOUS
10
0.2141057480314961
20
1.5251920866141733
11
0.2280341338582677
21
1.5228255511811024
0
LINE
8
BLACK
6
CONTINUOUS
10
0.2280341338582677
20
1.5228255511811024
11
0.2416099606299213
21
1.5189144488188977
0
LINE
8
BLACK
6
CONTINUOUS
10
0.2416099606299213
20
1.5189144488188977
11
0.2546625196850394
21
1.5135078740157479
0
LINE
8
BLACK
6
CONTINUOUS
10
0.2546625196850394
20
1.5135078740157479
11
0.2670276771653543
21
1.5066738976377951
0
LINE
8
BLACK
6
CONTINUOUS
10
0.2670276771653543
20
1.5066738976377951
11
0.2785498818897638
21
1.498498464566929
0
LINE
8
BLACK
6
CONTINUOUS
10
0.2785498818897638
20
1.498498464566929
11
0.2890843307086614
21
1.4890843307086614
0
LINE
8
BLACK
6
CONTINUOUS
10
0.2890843307086614
20
1.4890843307086614
11
0.2984984645669291
21
1.4785498818897638
0
LINE
8
BLACK
6
CONTINUOUS
10
0.2984984645669291
20
1.4785498818897638
11
0.3066738976377953
21
1.4670276771653543
0
LINE
8
BLACK
6
CONTINUOUS
10
0.3066738976377953
20
1.4670276771653543
11
0.313507874015748
21
1.4546625196850393
0
LINE
8
BLACK
6
CONTINUOUS
10
0.313507874015748
20
1.4546625196850393
11
0.3189144488188976
21
1.4416099606299213
0
LINE
8
BLACK
6
CONTINUOUS
10
0.3189144488188976
20
1.4416099606299213
11
0.3228255511811023
21
1.4280341338582676
0
LINE
8
BLACK
6
CONTINUOUS
10
0.3228255511811023
20
1.4280341338582676
11
0.3251920866141732
21
1.414105748031496
0
LINE
8
BLACK
6
CONTINUOUS
10
0.3251920866141732
20
1.414105748031496
11
0.3259842519685039
21
1.3999999999999999
0
LINE
8
BLACK
6
CONTINUOUS
10
0.3259842519685039
20
1.3999999999999999
11
0.3251920866141732
21
1.3858942519685038
0
LINE
8
BLACK
6
CONTINUOUS
10
0.3251920866141732
20
1.3858942519685038
11
0.3228255511811023
21
1.3719658661417322
0
LINE
8
BLACK
6
CONTINUOUS
10
0.3228255511811023
20
1.3719658661417322
11
0.3189144488188976
21
1.3583900393700787
0
LINE
8
BLACK
6
CONTINUOUS
10
0.3189144488188976
20
1.3583900393700787
11
0.313507874015748
21
1.3453374803149607
0
LINE
8
BLACK
6
CONTINUOUS
10
0.313507874015748
20
1.3453374803149607
11
0.3066738976377953
21
1.3329723228346457
0
LINE
8
BLACK
6
CONTINUOUS
10
0.3066738976377953
20
1.3329723228346457
11
0.2984984645669291
21
1.3214501181102363
0
LINE
8
BLACK
6
CONTINUOUS
10
0.2984984645669291
20
1.3214501181102363
11
0.2890843307086614
21
1.3109156692913386
0
LINE
8
BLACK
6
CONTINUOUS
10
0.2890843307086614
20
1.3109156692913386
11
0.2785498818897638
21
1.3015015354330708
0
LINE
8
BLACK
6
CONTINUOUS
10
0.2785498818897638
20
1.3015015354330708
11
0.2670276771653543
21
1.2933261023622047
0
LINE
8
BLACK
6
CONTINUOUS
10
0.2670276771653543
20
1.2933261023622047
11
0.2546625196850394
21
1.2864921259842519
0
LINE
8
BLACK
6
CONTINUOUS
10
0.2546625196850394
20
1.2864921259842519
11
0.2416099606299213
21
1.2810855511811023
0
LINE
8
BLACK
6
CONTINUOUS
10
0.2416099606299213
20
1.2810855511811023
11
0.2280341338582677
21
1.2771744488188976
0
LINE
8
BLACK
6
CONTINUOUS
10
0.2280341338582677
20
1.2771744488188976
11
0.2141057480314961
21
1.2748079133858268
0
LINE
8
BLACK
6
CONTINUOUS
10
0.2141057480314961
20
1.2748079133858268
11
0.2
21
1.274015748031496
0
LINE
8
BLACK
6
CONTINUOUS
10
0.2
20
1.274015748031496
11
0.1858942519685039
21
1.2748079133858268
0
LINE
8
BLACK
6
CONTINUOUS
10
0.1858942519685039
20
1.2748079133858268
11
0.1719658661417323
21
1.2771744488188976
0
LINE
8
BLACK
6
CONTINUOUS
10
0.1719658661417323
20
1.2771744488188976
11
0.1583900393700787
21
1.2810855511811023
0
LINE
8
BLACK
6
CONTINUOUS
10
0.1583900393700787
20
1.2810855511811023
11
0.1453374803149606
21
1.2864921259842519
0
LINE
8
BLACK
6
CONTINUOUS
10
0.1453374803149606
20
1.2864921259842519
11
0.1329723228346457
21
1.2933261023622047
0
LINE
8
BLACK
6
CONTINUOUS
10
0.1329723228346457
20
1.2933261023622047
11
0.1214501181102362
21
1.3015015354330708
0
LINE
8
BLACK
6
CONTINUOUS
10
0.1214501181102362
20
1.3015015354330708
11
0.1109156692913386
21
1.3109156692913386
0
LINE
8
BLACK
6
CONTINUOUS
10
0.1109156692913386
20
1.3109156692913386
11
0.1015015354330709
21
1.3214501181102363
0
LINE
8
BLACK
6
CONTINUOUS
10
0.1015015354330709
20
1.3214501181102363
11
0.0933261023622047
21
1.3329723228346457
0
LINE
8
BLACK
6
CONTINUOUS
10
0.0933261023622047
20
1.3329723228346457
11
0.086492125984252
21
1.3453374803149607
0
LINE
8
BLACK
6
CONTINUOUS
10
0.086492125984252
20
1.3453374803149607
11
0.0810855511811024
21
1.3583900393700787
0
LINE
8
BLACK
6
CONTINUOUS
10
0.0810855511811024
20
1.3583900393700787
11
0.0771744488188976
21
1.3719658661417322
0
LINE
8
BLACK
6
CONTINUOUS
10
0.0771744488188976
20
1.3719658661417322
11
0.0748079133858268
21
1.3858942519685038
0
LINE
8
BLACK
6
CONTINUOUS
10
0.0748079133858268
20
1.3858942519685038
11
0.0740157480314961
21
1.3999999999999999
0
LINE
8
BLACK
6
CONTINUOUS
10
0.0740157480314961
20
1.3999999999999999
11
0.0748079133858268
21
1.414105748031496
0
LINE
8
BLACK
6
CONTINUOUS
10
0.0748079133858268
20
1.414105748031496
11
0.0771744488188976
21
1.4280341338582676
0
LINE
8
BLACK
6
CONTINUOUS
10
0.0771744488188976
20
1.4280341338582676
11
0.0810855511811024
21
1.4416099606299213
0
LINE
8
BLACK
6
CONTINUOUS
10
0.0810855511811024
20
1.4416099606299213
11
0.086492125984252
21
1.4546625196850393
0
LINE
8
BLACK
6
CONTINUOUS
10
0.086492125984252
20
1.4546625196850393
11
0.0933261023622047
21
1.4670276771653543
0
LINE
8
BLACK
6
CONTINUOUS
10
0.0933261023622047
20
1.4670276771653543
11
0.1015015354330709
21
1.4785498818897638
0
LINE
8
BLACK
6
CONTINUOUS
10
0.1015015354330709
20
1.4785498818897638
11
0.1109156692913386
21
1.4890843307086614
0
LINE
8
BLACK
6
CONTINUOUS
10
0.1109156692913386
20
1.4890843307086614
11
0.1214501181102362
21
1.498498464566929
0
LINE
8
BLACK
6
CONTINUOUS
10
0.1214501181102362
20
1.498498464566929
11
0.1329723228346457
21
1.5066738976377951
0
LINE
8
BLACK
6
CONTINUOUS
10
0.1329723228346457
20
1.5066738976377951
11
0.1453374803149606
21
1.5135078740157479
0
LINE
8
BLACK
6
CONTINUOUS
10
0.1453374803149606
20
1.5135078740157479
11
0.1583900393700787
21
1.5189144488188977
0
LINE
8
BLACK
6
CONTINUOUS
10
0.1583900393700787
20
1.5189144488188977
11
0.1719658661417323
21
1.5228255511811024
0
LINE
8
BLACK
6
CONTINUOUS
10
0.1719658661417323
20
1.5228255511811024
11
0.1858942519685039
21
1.5251920866141733
0
LINE
8
BLACK
6
CONTINUOUS
10
0.1858942519685039
20
1.5251920866141733
11
0.2
21
1.5259842519685038
0
LINE
8
BLACK
6
CONTINUOUS
10
0.2
20
1.5259842519685038
11
0.2141057480314961
21
1.5251920866141733
0
LINE
8
BLACK
6
CONTINUOUS
10
1.414105748031496
20
1.5251920866141733
11
1.4280341338582676
21
1.5228255511811024
0
LINE
8
BLACK
6
CONTINUOUS
10
1.4280341338582676
20
1.5228255511811024
11
1.4416099606299213
21
1.5189144488188977
0
LINE
8
BLACK
6
CONTINUOUS
10
1.4416099606299213
20
1.5189144488188977
11
1.4546625196850393
21
1.5135078740157479
0
LINE
8
BLACK
6
CONTINUOUS
10
1.4546625196850393
20
1.5135078740157479
11
1.4670276771653543
21
1.5066738976377951
0
LINE
8
BLACK
6
CONTINUOUS
10
1.4670276771653543
20
1.5066738976377951
11
1.4785498818897638
21
1.498498464566929
0
LINE
8
BLACK
6
CONTINUOUS
10
1.4785498818897638
20
1.498498464566929
11
1.4890843307086614
21
1.4890843307086614
0
LINE
8
BLACK
6
CONTINUOUS
10
1.4890843307086614
20
1.4890843307086614
11
1.498498464566929
21
1.4785498818897638
0
LINE
8
BLACK
6
CONTINUOUS
10
1.498498464566929
20
1.4785498818897638
11
1.5066738976377951
21
1.4670276771653543
0
LINE
8
BLACK
6
CONTINUOUS
10
1.5066738976377951
20
1.4670276771653543
11
1.5135078740157479
21
1.4546625196850393
0
LINE
8
BLACK
6
CONTINUOUS
10
1.5135078740157479
20
1.4546625196850393
11
1.5189144488188977
21
1.4416099606299213
0
LINE
8
BLACK
6
CONTINUOUS
10
1.5189144488188977
20
1.4416099606299213
11
1.5228255511811024
21
1.4280341338582676
0
LINE
8
BLACK
6
CONTINUOUS
10
1.5228255511811024
20
1.4280341338582676
11
1.5251920866141733
21
1.414105748031496
0
LINE
8
BLACK
6
CONTINUOUS
10
1.5251920866141733
20
1.414105748031496
11
1.5259842519685038
21
1.3999999999999999
0
LINE
8
BLACK
6
CONTINUOUS
10
1.5259842519685038
20
1.3999999999999999
11
1.5251920866141733
21
1.3858942519685038
0
LINE
8
BLACK
6
CONTINUOUS
10
1.5251920866141733
20
1.3858942519685038
11
1.5228255511811024
21
1.3719658661417322
0
LINE
8
BLACK
6
CONTINUOUS
10
1.5228255511811024
20
1.3719658661417322
11
1.5189144488188977
21
1.3583900393700787
0
LINE
8
BLACK
6
CONTINUOUS
10
1.5189144488188977
20
1.3583900393700787
11
1.5135078740157479
21
1.3453374803149607
0
LINE
8
BLACK
6
CONTINUOUS
10
1.5135078740157479
20
1.3453374803149607
11
1.5066738976377951
21
1.3329723228346457
0
LINE
8
BLACK
6
CONTINUOUS
10
1.5066738976377951
20
1.3329723228346457
11
1.498498464566929
21
1.3214501181102363
0
LINE
8
BLACK
6
CONTINUOUS
10
1.498498464566929
20
1.3214501181102363
11
1.4890843307086614
21
1.3109156692913386
0
LINE
8
BLACK
6
CONTINUOUS
10
1.4890843307086614
20
1.3109156692913386
11
1.4785498818897638
21
1.3015015354330708
0
LINE
8
BLACK
6
CONTINUOUS
10
1.4785498818897638
20
1.3015015354330708
11
1.4670276771653543
21
1.2933261023622047
0
LINE
8
BLACK
6
CONTINUOUS
10
1.4670276771653543
20
1.2933261023622047
11
1.4546625196850393
21
1.2864921259842519
0
LINE
8
BLACK
6
CONTINUOUS
10
1.4546625196850393
20
1.2864921259842519
11
1.4416099606299213
21
1.2810855511811023
0
LINE
8
BLACK
6
CONTINUOUS
10
1.4416099606299213
20
1.2810855511811023
11
1.4280341338582676
21
1.2771744488188976
0
LINE
8
BLACK
6
CONTINUOUS
10
1.4280341338582676
20
1.2771744488188976
11
1.414105748031496
21
1.2748079133858268
0
LINE
8
BLACK
6
CONTINUOUS
10
1.414105748031496
20
1.2748079133858268
11
1.3999999999999999
21
1.274015748031496
0
LINE
8
BLACK
6
CONTINUOUS
10
1.3999999999999999
20
1.274015748031496
11
1.3858942519685038
21
1.2748079133858268
0
LINE
8
BLACK
6
CONTINUOUS
10
1.3858942519685038
20
1.2748079133858268
11
1.3719658661417322
21
1.2771744488188976
0
LINE
8
BLACK
6
CONTINUOUS
10
1.3719658661417322
20
1.2771744488188976
11
1.3583900393700787
21
1.2810855511811023
0
LINE
8
BLACK
6
CONTINUOUS
10
1.3583900393700787
20
1.2810855511811023
11
1.3453374803149607
21
1.2864921259842519
0
LINE
8
BLACK
6
CONTINUOUS
10
1.3453374803149607
20
1.2864921259842519
11
1.3329723228346457
21
1.2933261023622047
0
LINE
8
BLACK
6
CONTINUOUS
10
1.3329723228346457
20
1.2933261023622047
11
1.3214501181102363
21
1.3015015354330708
0
LINE
8
BLACK
6
CONTINUOUS
10
1.3214501181102363
20
1.3015015354330708
11
1.3109156692913386
21
1.3109156692913386
0
LINE
8
BLACK
6
CONTINUOUS
10
1.3109156692913386
20
1.3109156692913386
11
1.3015015354330708
21
1.3214501181102363
0
LINE
8
BLACK
6
CONTINUOUS
10
1.3015015354330708
20
1.3214501181102363
11
1.2933261023622047
21
1.3329723228346457
0
LINE
8
BLACK
6
CONTINUOUS
10
1.2933261023622047
20
1.3329723228346457
11
1.2864921259842519
21
1.3453374803149607
0
LINE
8
BLACK
6
CONTINUOUS
10
1.2864921259842519
20
1.3453374803149607
11
1.2810855511811023
21
1.3583900393700787
0
LINE
8
BLACK
6
CONTINUOUS
10
1.2810855511811023
20
1.3583900393700787
11
1.2771744488188976
21
1.3719658661417322
0
LINE
8
BLACK
6
CONTINUOUS
10
1.2771744488188976
20
1.3719658661417322
11
1.2748079133858268
21
1.3858942519685038
0
LINE
8
BLACK
6
CONTINUOUS
10
1.2748079133858268
20
1.3858942519685038
11
1.274015748031496
21
1.3999999999999999
0
LINE
8
BLACK
6
CONTINUOUS
10
1.274015748031496
20
1.3999999999999999
11
1.2748079133858268
21
1.414105748031496
0
LINE
8
BLACK
6
CONTINUOUS
10
1.2748079133858268
20
1.414105748031496
11
1.2771744488188976
21
1.4280341338582676
0
LINE
8
BLACK
6
CONTINUOUS
10
1.2771744488188976
20
1.4280341338582676
11
1.2810855511811023
21
1.4416099606299213
0
LINE
8
BLACK
6
CONTINUOUS
10
1.2810855511811023
20
1.4416099606299213
11
1.2864921259842519
21
1.4546625196850393
0
LINE
8
BLACK
6
CONTINUOUS
10
1.2864921259842519
20
1.4546625196850393
11
1.2933261023622047
21
1.4670276771653543
0
LINE
8
BLACK
6
CONTINUOUS
10
1.2933261023622047
20
1.4670276771653543
11
1.3015015354330708
21
1.4785498818897638
0
LINE
8
BLACK
6
CONTINUOUS
10
1.3015015354330708
20
1.4785498818897638
11
1.3109156692913386
21
1.4890843307086614
0
LINE
8
BLACK
6
CONTINUOUS
10
1.3109156692913386
20
1.4890843307086614
11
1.3214501181102363
21
1.498498464566929
0
LINE
8
BLACK
6
CONTINUOUS
10
1.3214501181102363
20
1.498498464566929
11
1.3329723228346457
21
1.5066738976377951
0
LINE
8
BLACK
6
CONTINUOUS
10
1.3329723228346457
20
1.5066738976377951
11
1.3453374803149607
21
1.5135078740157479
0
LINE
8
BLACK
6
CONTINUOUS
10
1.3453374803149607
20
1.5135078740157479
11
1.3583900393700787
21
1.5189144488188977
0
LINE
8
BLACK
6
CONTINUOUS
10
1.3583900393700787
20
1.5189144488188977
11
1.3719658661417322
21
1.5228255511811024
0
LINE
8
BLACK
6
CONTINUOUS
10
1.3719658661417322
20
1.5228255511811024
11
1.3858942519685038
21
1.5251920866141733
0
LINE
8
BLACK
6
CONTINUOUS
10
1.3858942519685038
20
1.5251920866141733
11
1.3999999999999999
21
1.5259842519685038
0
LINE
8
BLACK
6
CONTINUOUS
10
1.3999999999999999
20
1.5259842519685038
11
1.414105748031496
21
1.5251920866141733
0
LINE
8
BLACK
6
CONTINUOUS
10
0.5330132677165355
20
1.4122746456692914
11
0.5355677559055118
21
1.4105677559055119
0
LINE
8
BLACK
6
CONTINUOUS
10
0.5355677559055118
20
1.4105677559055119
11
0.5372746456692913
21
1.4080132677165353
0
LINE
8
BLACK
6
CONTINUOUS
10
0.5372746456692913
20
1.4080132677165353
11
0.5378740157480315
21
1.405
0
LINE
8
BLACK
6
CONTINUOUS
10
0.5378740157480315
20
1.405
11
0.5378740157480315
21
1.345
0
LINE
8
BLACK
6
CONTINUOUS
10
0.5378740157480315
20
1.345
11
0.5372746456692913
21
1.3419867322834644
0
LINE
8
BLACK
6
CONTINUOUS
10
0.5372746456692913
20
1.3419867322834644
11
0.5355677559055118
21
1.3394322440944881
0
LINE
8
BLACK
6
CONTINUOUS
10
0.5355677559055118
20
1.3394322440944881
11
0.5330132677165355
21
1.3377253543307086
0
LINE
8
BLACK
6
CONTINUOUS
10
0.5330132677165355
20
1.3377253543307086
11
0.53
21
1.3371259842519685
0
LINE
8
BLACK
6
CONTINUOUS
10
0.53
20
1.3371259842519685
11
0.47
21
1.3371259842519685
0
LINE
8
BLACK
6
CONTINUOUS
10
0.47
20
1.3371259842519685
11
0.4669867322834645
21
1.3377253543307086
0
LINE
8
BLACK
6
CONTINUOUS
10
0.4669867322834645
20
1.3377253543307086
11
0.4644322440944882
21
1.3394322440944881
0
LINE
8
BLACK
6
CONTINUOUS
10
0.4644322440944882
20
1.3394322440944881
11
0.4627253543307087
21
1.3419867322834644
0
LINE
8
BLACK
6
CONTINUOUS
10
0.4627253543307087
20
1.3419867322834644
11
0.4621259842519685
21
1.345
0
LINE
8
BLACK
6
CONTINUOUS
10
0.4621259842519685
20
1.345
11
0.4621259842519685
21
1.405
0
LINE
8
BLACK
6
CONTINUOUS
10
0.4621259842519685
20
1.405
11
0.4627253543307087
21
1.4080132677165353
0
LINE
8
BLACK
6
CONTINUOUS
10
0.4627253543307087
20
1.4080132677165353
11
0.4644322440944882
21
1.4105677559055119
0
LINE
8
BLACK
6
CONTINUOUS
10
0.4644322440944882
20
1.4105677559055119
11
0.4669867322834645
21
1.4122746456692914
0
LINE
8
BLACK
6
CONTINUOUS
10
0.4669867322834645
20
1.4122746456692914
11
0.47
21
1.4128740157480315
0
LINE
8
BLACK
6
CONTINUOUS
10
0.47
20
1.4128740157480315
11
0.53
21
1.4128740157480315
0
LINE
8
BLACK
6
CONTINUOUS
10
0.53
20
1.4128740157480315
11
0.5330132677165355
21
1.4122746456692914
0
LINE
8
BLACK
6
CONTINUOUS
10
0.6330132677165354
20
1.4122746456692914
11
0.6355677559055118
21
1.4105677559055119
0
LINE
8
BLACK
6
CONTINUOUS
10
0.6355677559055118
20
1.4105677559055119
11
0.6372746456692914
21
1.4080132677165353
0
LINE
8
BLACK
6
CONTINUOUS
10
0.6372746456692914
20
1.4080132677165353
11
0.6378740157480315
21
1.405
0
LINE
8
BLACK
6
CONTINUOUS
10
0.6378740157480315
20
1.405
11
0.6378740157480315
21
1.345
0
LINE
8
BLACK
6
CONTINUOUS
10
0.6378740157480315
20
1.345
11
0.6372746456692914
21
1.3419867322834644
0
LINE
8
BLACK
6
CONTINUOUS
10
0.6372746456692914
20
1.3419867322834644
11
0.6355677559055118
21
1.3394322440944881
0
LINE
8
BLACK
6
CONTINUOUS
10
0.6355677559055118
20
1.3394322440944881
11
0.6330132677165354
21
1.3377253543307086
0
LINE
8
BLACK
6
CONTINUOUS
10
0.6330132677165354
20
1.3377253543307086
11
0.63
21
1.3371259842519685
0
LINE
8
BLACK
6
CONTINUOUS
10
0.63
20
1.3371259842519685
11
0.57
21
1.3371259842519685
0
LINE
8
BLACK
6
CONTINUOUS
10
0.57
20
1.3371259842519685
11
0.5669867322834645
21
1.3377253543307086
0
LINE
8
BLACK
6
CONTINUOUS
10
0.5669867322834645
20
1.3377253543307086
11
0.5644322440944882
21
1.3394322440944881
0
LINE
8
BLACK
6
CONTINUOUS
10
0.5644322440944882
20
1.3394322440944881
11
0.5627253543307087
21
1.3419867322834644
0
LINE
8
BLACK
6
CONTINUOUS
10
0.5627253543307087
20
1.3419867322834644
11
0.5621259842519685
21
1.345
0
LINE
8
BLACK
6
CONTINUOUS
10
0.5621259842519685
20
1.345
11
0.5621259842519685
21
1.405
0
LINE
8
BLACK
6
CONTINUOUS
10
0.5621259842519685
20
1.405
11
0.5627253543307087
21
1.4080132677165353
0
LINE
8
BLACK
6
CONTINUOUS
10
0.5627253543307087
20
1.4080132677165353
11
0.5644322440944882
21
1.4105677559055119
0
LINE
8
BLACK
6
CONTINUOUS
10
0.5644322440944882
20
1.4105677559055119
11
0.5669867322834645
21
1.4122746456692914
0
LINE
8
BLACK
6
CONTINUOUS
10
0.5669867322834645
20
1.4122746456692914
11
0.57
21
1.4128740157480315
0
LINE
8
BLACK
6
CONTINUOUS
10
0.57
20
1.4128740157480315
11
0.63
21
1.4128740157480315
0
LINE
8
BLACK
6
CONTINUOUS
10
0.63
20
1.4128740157480315
11
0.6330132677165354
21
1.4122746456692914
0
LINE
8
BLACK
6
CONTINUOUS
10
0.5330132677165355
20
1.5122746456692913
11
0.5355677559055118
21
1.5105677559055117
0
LINE
8
BLACK
6
CONTINUOUS
10
0.5355677559055118
20
1.5105677559055117
11
0.5372746456692913
21
1.5080132677165354
0
LINE
8
BLACK
6
CONTINUOUS
10
0.5372746456692913
20
1.5080132677165354
11
0.5378740157480315
21
1.5049999999999999
0
LINE
8
BLACK
6
CONTINUOUS
10
0.5378740157480315
20
1.5049999999999999
11
0.5378740157480315
21
1.4450000000000001
0
LINE
8
BLACK
6
CONTINUOUS
10
0.5378740157480315
20
1.4450000000000001
11
0.5372746456692913
21
1.4419867322834645
0
LINE
8
BLACK
6
CONTINUOUS
10
0.5372746456692913
20
1.4419867322834645
11
0.5355677559055118
21
1.4394322440944882
0
LINE
8
BLACK
6
CONTINUOUS
10
0.5355677559055118
20
1.4394322440944882
11
0.5330132677165355
21
1.4377253543307087
0
LINE
8
BLACK
6
CONTINUOUS
10
0.5330132677165355
20
1.4377253543307087
11
0.53
21
1.4371259842519686
0
LINE
8
BLACK
6
CONTINUOUS
10
0.53
20
1.4371259842519686
11
0.47
21
1.4371259842519686
0
LINE
8
BLACK
6
CONTINUOUS
10
0.47
20
1.4371259842519686
11
0.4669867322834645
21
1.4377253543307087
0
LINE
8
BLACK
6
CONTINUOUS
10
0.4669867322834645
20
1.4377253543307087
11
0.4644322440944882
21
1.4394322440944882
0
LINE
8
BLACK
6
CONTINUOUS
10
0.4644322440944882
20
1.4394322440944882
11
0.4627253543307087
21
1.4419867322834645
0
LINE
8
BLACK
6
CONTINUOUS
10
0.4627253543307087
20
1.4419867322834645
11
0.4621259842519685
21
1.4450000000000001
0
LINE
8
BLACK
6
CONTINUOUS
10
0.4621259842519685
20
1.4450000000000001
11
0.4621259842519685
21
1.5049999999999999
0
LINE
8
BLACK
6
CONTINUOUS
10
0.4621259842519685
20
1.5049999999999999
11
0.4627253543307087
21
1.5080132677165354
0
LINE
8
BLACK
6
CONTINUOUS
10
0.4627253543307087
20
1.5080132677165354
11
0.4644322440944882
21
1.5105677559055117
0
LINE
8
BLACK
6
CONTINUOUS
10
0.4644322440944882
20
1.5105677559055117
11
0.4669867322834645
21
1.5122746456692913
0
LINE
8
BLACK
6
CONTINUOUS
10
0.4669867322834645
20
1.5122746456692913
11
0.47
21
1.5128740157480314
0
LINE
8
BLACK
6
CONTINUOUS
10
0.47
20
1.5128740157480314
11
0.53
21
1.5128740157480314
0
LINE
8
BLACK
6
CONTINUOUS
10
0.53
20
1.5128740157480314
11
0.5330132677165355
21
1.5122746456692913
0
LINE
8
BLACK
6
CONTINUOUS
10
0.6330132677165354
20
1.5122746456692913
11
0.6355677559055118
21
1.5105677559055117
0
LINE
8
BLACK
6
CONTINUOUS
10
0.6355677559055118
20
1.5105677559055117
11
0.6372746456692914
21
1.5080132677165354
0
LINE
8
BLACK
6
CONTINUOUS
10
0.6372746456692914
20
1.5080132677165354
11
0.6378740157480315
21
1.5049999999999999
0
LINE
8
BLACK
6
CONTINUOUS
10
0.6378740157480315
20
1.5049999999999999
11
0.6378740157480315
21
1.4450000000000001
0
LINE
8
BLACK
6
CONTINUOUS
10
0.6378740157480315
20
1.4450000000000001
11
0.6372746456692914
21
1.4419867322834645
0
LINE
8
BLACK
6
CONTINUOUS
10
0.6372746456692914
20
1.4419867322834645
11
0.6355677559055118
21
1.4394322440944882
0
LINE
8
BLACK
6
CONTINUOUS
10
0.6355677559055118
20
1.4394322440944882
11
0.6330132677165354
21
1.4377253543307087
0
LINE
8
BLACK
6
CONTINUOUS
10
0.6330132677165354
20
1.4377253543307087
11
0.63
21
1.4371259842519686
0
LINE
8
BLACK
6
CONTINUOUS
10
0.63
20
1.4371259842519686
11
0.57
21
1.4371259842519686
0
LINE
8
BLACK
6
CONTINUOUS
10
0.57
20
1.4371259842519686
11
0.5669867322834645
21
1.4377253543307087
0
LINE
8
BLACK
6
CONTINUOUS
10
0.5669867322834645
20
1.4377253543307087
11
0.5644322440944882
21
1.4394322440944882
0
LINE
8
BLACK
6
CONTINUOUS
10
0.5644322440944882
20
1.4394322440944882
11
0.5627253543307087
21
1.4419867322834645
0
LINE
8
BLACK
6
CONTINUOUS
10
0.5627253543307087
20
1.4419867322834645
11
0.5621259842519685
21
1.4450000000000001
0
LINE
8
BLACK
6
CONTINUOUS
10
0.5621259842519685
20
1.4450000000000001
11
0.5621259842519685
21
1.5049999999999999
0
LINE
8
BLACK
6
CONTINUOUS
10
0.5621259842519685
20
1.5049999999999999
11
0.5627253543307087
21
1.5080132677165354
0
LINE
8
BLACK
6
CONTINUOUS
10
0.5627253543307087
20
1.5080132677165354
11
0.5644322440944882
21
1.5105677559055117
0
LINE
8
BLACK
6
CONTINUOUS
10
0.5644322440944882
20
1.5105677559055117
11
0.5669867322834645
21
1.5122746456692913
0
LINE
8
BLACK
6
CONTINUOUS
10
0.5669867322834645
20
1.5122746456692913
11
0.57
21
1.5128740157480314
0
LINE
8
BLACK
6
CONTINUOUS
10
0.57
20
1.5128740157480314
11
0.63
21
1.5128740157480314
0
LINE
8
BLACK
6
CONTINUOUS
10
0.63
20
1.5128740157480314
11
0.6330132677165354
21
1.5122746456692913
  0
ENDSEC
  0
EOF
