  0
SECTION
  2
HEADER
  9
$ANGBASE
  50
0.0
  9
$ANGDIR
  70
1
  9
$MEASUREMENT
  70
0
  0
ENDSEC
  0
SECTION
  2
TABLES
  0
TABLE
  2
LTYPE
  70
4
  0
LTYPE
  5
40F
  2
CONTINUOUS
  70
0
  3
Solid line
  72
65
  73
0
  40
0.0
  0
LTYPE
  5
410
  2
DASHDOT
 70
0
  3
Dash Dot ____ _ ____ _
 72
65
 73
4
 40
2.0
 49
1.25
 49
-0.25
 49
0.25
 49
-0.25
  0
LTYPE
  5
411
  2
DASHED
 70
0
  3
Dashed __ __ __ __ __
 72
65
 73
2
 40
0.75
 49
0.5
 49
-0.25
  0
LTYPE
  5
43B
  2
DOTTED
 70
0
  3
Dotted .  .  .  .
 72
65
 73
2
 40
0.2
 49
0.0
 49
-0.2
  0
ENDTAB
  0
TABLE
  2
STYLE
  70
4
  0
STYLE
  2
KICAD
  70
0
  40
0
  41
1
  42
1
  50
0
  71
0
  3
isocp.shx
  0
STYLE
  2
KICADB
  70
0
  40
0
  41
1
  42
1
  50
0
  71
0
  3
isocp.shx
  0
STYLE
  2
KICADI
  70
0
  40
0
  41
1
  42
1
  50
15
  71
0
  3
isocp.shx
  0
STYLE
  2
KICADBI
  70
0
  40
0
  41
1
  42
1
  50
15
  71
0
  3
isocp.shx
  0
ENDTAB
  0
TABLE
  2
LAYER
  70
1
  0
LAYER
  2
BLACK
  70
0
  62
7
  6
CONTINUOUS
  0
ENDTAB
  0
ENDSEC
  0
SECTION
  2
ENTITIES
0
LINE
8
BLACK
6
CONTINUOUS
10
0.4435805511811023
20
1.2810978740157479
11
0.4636116141732283
21
1.2787270078740156
0
LINE
8
BLACK
6
CONTINUOUS
10
0.4636116141732283
20
1.2787270078740156
11
0.4833949212598425
21
1.2747918897637796
0
LINE
8
BLACK
6
CONTINUOUS
10
0.4833949212598425
20
1.2747918897637796
11
0.5028085039370078
21
1.2693166929133859
0
LINE
8
BLACK
6
CONTINUOUS
10
0.5028085039370078
20
1.2693166929133859
11
0.5217326377952756
21
1.2623351968503937
0
LINE
8
BLACK
6
CONTINUOUS
10
0.5217326377952756
20
1.2623351968503937
11
0.5400507086614174
21
1.2538904724409448
0
LINE
8
BLACK
6
CONTINUOUS
10
0.5400507086614174
20
1.2538904724409448
11
0.5576497244094488
21
1.2440345275590552
0
LINE
8
BLACK
6
CONTINUOUS
10
0.5576497244094488
20
1.2440345275590552
11
0.5744212204724409
21
1.2328281889763779
0
LINE
8
BLACK
6
CONTINUOUS
10
0.5744212204724409
20
1.2328281889763779
11
0.5902617716535433
21
1.2203405118110235
0
LINE
8
BLACK
6
CONTINUOUS
10
0.5902617716535433
20
1.2203405118110235
11
0.6050737007874015
21
1.2066485039370078
0
LINE
8
BLACK
6
CONTINUOUS
10
0.6050737007874015
20
1.2066485039370078
11
0.6187657086614173
21
1.1918365748031496
0
LINE
8
BLACK
6
CONTINUOUS
10
0.6187657086614173
20
1.1918365748031496
11
0.6312533858267716
21
1.1759960236220472
0
LINE
8
BLACK
6
CONTINUOUS
10
0.6312533858267716
20
1.1759960236220472
11
0.6424597244094488
21
1.1592245275590551
0
LINE
8
BLACK
6
CONTINUOUS
10
0.6424597244094488
20
1.1592245275590551
11
0.6523156692913386
21
1.1416255118110237
0
LINE
8
BLACK
6
CONTINUOUS
10
0.6523156692913386
20
1.1416255118110237
11
0.6607603937007874
21
1.1233074409448818
0
LINE
8
BLACK
6
CONTINUOUS
10
0.6607603937007874
20
1.1233074409448818
11
0.6677418897637795
21
1.1043833070866143
0
LINE
8
BLACK
6
CONTINUOUS
10
0.6677418897637795
20
1.1043833070866143
11
0.6732170866141732
21
1.0849697244094487
0
LINE
8
BLACK
6
CONTINUOUS
10
0.6732170866141732
20
1.0849697244094487
11
0.6771522047244094
21
1.0651864173228347
0
LINE
8
BLACK
6
CONTINUOUS
10
0.6771522047244094
20
1.0651864173228347
11
0.6795230708661417
21
1.0451553543307086
0
LINE
8
BLACK
6
CONTINUOUS
10
0.6795230708661417
20
1.0451553543307086
11
0.6803149606299213
21
1.0249999999999999
0
LINE
8
BLACK
6
CONTINUOUS
10
0.6803149606299213
20
1.0249999999999999
11
0.6795230708661417
21
1.0048446456692912
0
LINE
8
BLACK
6
CONTINUOUS
10
0.6795230708661417
20
1.0048446456692912
11
0.6771522047244094
21
0.9848135826771653
0
LINE
8
BLACK
6
CONTINUOUS
10
0.6771522047244094
20
0.9848135826771653
11
0.6732170866141732
21
0.9650302755905512
0
LINE
8
BLACK
6
CONTINUOUS
10
0.6732170866141732
20
0.9650302755905512
11
0.6677418897637795
21
0.9456166929133858
0
LINE
8
BLACK
6
CONTINUOUS
10
0.6677418897637795
20
0.9456166929133858
11
0.6607603937007874
21
0.926692559055118
0
LINE
8
BLACK
6
CONTINUOUS
10
0.6607603937007874
20
0.926692559055118
11
0.6523156692913386
21
0.9083744881889764
0
LINE
8
BLACK
6
CONTINUOUS
10
0.6523156692913386
20
0.9083744881889764
11
0.6424597244094488
21
0.8907754724409449
0
LINE
8
BLACK
6
CONTINUOUS
10
0.6424597244094488
20
0.8907754724409449
11
0.6312533858267716
21
0.8740039763779527
0
LINE
8
BLACK
6
CONTINUOUS
10
0.6312533858267716
20
0.8740039763779527
11
0.6187657086614173
21
0.8581634251968504
0
LINE
8
BLACK
6
CONTINUOUS
10
0.6187657086614173
20
0.8581634251968504
11
0.6050737007874015
21
0.8433514960629921
0
LINE
8
BLACK
6
CONTINUOUS
10
0.6050737007874015
20
0.8433514960629921
11
0.5902617716535433
21
0.8296594881889764
0
LINE
8
BLACK
6
CONTINUOUS
10
0.5902617716535433
20
0.8296594881889764
11
0.5744212204724409
21
0.817171811023622
0
LINE
8
BLACK
6
CONTINUOUS
10
0.5744212204724409
20
0.817171811023622
11
0.5576497244094488
21
0.8059654724409449
0
LINE
8
BLACK
6
CONTINUOUS
10
0.5576497244094488
20
0.8059654724409449
11
0.5400507086614174
21
0.7961095275590551
0
LINE
8
BLACK
6
CONTINUOUS
10
0.5400507086614174
20
0.7961095275590551
11
0.5217326377952756
21
0.7876648031496063
0
LINE
8
BLACK
6
CONTINUOUS
10
0.5217326377952756
20
0.7876648031496063
11
0.5028085039370078
21
0.7806833070866142
0
LINE
8
BLACK
6
CONTINUOUS
10
0.5028085039370078
20
0.7806833070866142
11
0.4833949212598425
21
0.7752081102362205
0
LINE
8
BLACK
6
CONTINUOUS
10
0.4833949212598425
20
0.7752081102362205
11
0.4636116141732283
21
0.7712729921259842
0
LINE
8
BLACK
6
CONTINUOUS
10
0.4636116141732283
20
0.7712729921259842
11
0.4435805511811023
21
0.768902125984252
0
LINE
8
BLACK
6
CONTINUOUS
10
0.4435805511811023
20
0.768902125984252
11
0.4234251968503937
21
0.7681102362204725
0
LINE
8
BLACK
6
CONTINUOUS
10
0.4234251968503937
20
0.7681102362204725
11
0.403269842519685
21
0.768902125984252
0
LINE
8
BLACK
6
CONTINUOUS
10
0.403269842519685
20
0.768902125984252
11
0.383238779527559
21
0.7712729921259842
0
LINE
8
BLACK
6
CONTINUOUS
10
0.383238779527559
20
0.7712729921259842
11
0.3634554724409449
21
0.7752081102362205
0
LINE
8
BLACK
6
CONTINUOUS
10
0.3634554724409449
20
0.7752081102362205
11
0.3440418897637795
21
0.7806833070866142
0
LINE
8
BLACK
6
CONTINUOUS
10
0.3440418897637795
20
0.7806833070866142
11
0.3251177559055118
21
0.7876648031496063
0
LINE
8
BLACK
6
CONTINUOUS
10
0.3251177559055118
20
0.7876648031496063
11
0.3067996850393701
21
0.7961095275590551
0
LINE
8
BLACK
6
CONTINUOUS
10
0.3067996850393701
20
0.7961095275590551
11
0.2892006692913386
21
0.8059654724409449
0
LINE
8
BLACK
6
CONTINUOUS
10
0.2892006692913386
20
0.8059654724409449
11
0.2724291732283465
21
0.817171811023622
0
LINE
8
BLACK
6
CONTINUOUS
10
0.2724291732283465
20
0.817171811023622
11
0.2565886220472441
21
0.8296594881889764
0
LINE
8
BLACK
6
CONTINUOUS
10
0.2565886220472441
20
0.8296594881889764
11
0.2417766929133858
21
0.8433514960629921
0
LINE
8
BLACK
6
CONTINUOUS
10
0.2417766929133858
20
0.8433514960629921
11
0.2280846850393701
21
0.8581634251968504
0
LINE
8
BLACK
6
CONTINUOUS
10
0.2280846850393701
20
0.8581634251968504
11
0.2155970078740158
21
0.8740039763779527
0
LINE
8
BLACK
6
CONTINUOUS
10
0.2155970078740158
20
0.8740039763779527
11
0.2043906692913386
21
0.8907754724409449
0
LINE
8
BLACK
6
CONTINUOUS
10
0.2043906692913386
20
0.8907754724409449
11
0.1945347244094488
21
0.9083744881889764
0
LINE
8
BLACK
6
CONTINUOUS
10
0.1945347244094488
20
0.9083744881889764
11
0.18609
21
0.926692559055118
0
LINE
8
BLACK
6
CONTINUOUS
10
0.18609
20
0.926692559055118
11
0.1791085039370079
21
0.9456166929133858
0
LINE
8
BLACK
6
CONTINUOUS
10
0.1791085039370079
20
0.9456166929133858
11
0.1736333070866142
21
0.9650302755905512
0
LINE
8
BLACK
6
CONTINUOUS
10
0.1736333070866142
20
0.9650302755905512
11
0.169698188976378
21
0.9848135826771653
0
LINE
8
BLACK
6
CONTINUOUS
10
0.169698188976378
20
0.9848135826771653
11
0.1673273228346457
21
1.0048446456692912
0
LINE
8
BLACK
6
CONTINUOUS
10
0.1673273228346457
20
1.0048446456692912
11
0.1665354330708661
21
1.0249999999999999
0
LINE
8
BLACK
6
CONTINUOUS
10
0.1665354330708661
20
1.0249999999999999
11
0.1673273228346457
21
1.0451553543307086
0
LINE
8
BLACK
6
CONTINUOUS
10
0.1673273228346457
20
1.0451553543307086
11
0.169698188976378
21
1.0651864173228347
0
LINE
8
BLACK
6
CONTINUOUS
10
0.169698188976378
20
1.0651864173228347
11
0.1736333070866142
21
1.0849697244094487
0
LINE
8
BLACK
6
CONTINUOUS
10
0.1736333070866142
20
1.0849697244094487
11
0.1791085039370079
21
1.1043833070866143
0
LINE
8
BLACK
6
CONTINUOUS
10
0.1791085039370079
20
1.1043833070866143
11
0.18609
21
1.1233074409448818
0
LINE
8
BLACK
6
CONTINUOUS
10
0.18609
20
1.1233074409448818
11
0.1945347244094488
21
1.1416255118110237
0
LINE
8
BLACK
6
CONTINUOUS
10
0.1945347244094488
20
1.1416255118110237
11
0.2043906692913386
21
1.1592245275590551
0
LINE
8
BLACK
6
CONTINUOUS
10
0.2043906692913386
20
1.1592245275590551
11
0.2155970078740158
21
1.1759960236220472
0
LINE
8
BLACK
6
CONTINUOUS
10
0.2155970078740158
20
1.1759960236220472
11
0.2280846850393701
21
1.1918365748031496
0
LINE
8
BLACK
6
CONTINUOUS
10
0.2280846850393701
20
1.1918365748031496
11
0.2417766929133858
21
1.2066485039370078
0
LINE
8
BLACK
6
CONTINUOUS
10
0.2417766929133858
20
1.2066485039370078
11
0.2565886220472441
21
1.2203405118110235
0
LINE
8
BLACK
6
CONTINUOUS
10
0.2565886220472441
20
1.2203405118110235
11
0.2724291732283465
21
1.2328281889763779
0
LINE
8
BLACK
6
CONTINUOUS
10
0.2724291732283465
20
1.2328281889763779
11
0.2892006692913386
21
1.2440345275590552
0
LINE
8
BLACK
6
CONTINUOUS
10
0.2892006692913386
20
1.2440345275590552
11
0.3067996850393701
21
1.2538904724409448
0
LINE
8
BLACK
6
CONTINUOUS
10
0.3067996850393701
20
1.2538904724409448
11
0.3251177559055118
21
1.2623351968503937
0
LINE
8
BLACK
6
CONTINUOUS
10
0.3251177559055118
20
1.2623351968503937
11
0.3440418897637795
21
1.2693166929133859
0
LINE
8
BLACK
6
CONTINUOUS
10
0.3440418897637795
20
1.2693166929133859
11
0.3634554724409449
21
1.2747918897637796
0
LINE
8
BLACK
6
CONTINUOUS
10
0.3634554724409449
20
1.2747918897637796
11
0.383238779527559
21
1.2787270078740156
0
LINE
8
BLACK
6
CONTINUOUS
10
0.383238779527559
20
1.2787270078740156
11
0.403269842519685
21
1.2810978740157479
0
LINE
8
BLACK
6
CONTINUOUS
10
0.403269842519685
20
1.2810978740157479
11
0.4234251968503937
21
1.2818897637795275
0
LINE
8
BLACK
6
CONTINUOUS
10
0.4234251968503937
20
1.2818897637795275
11
0.4435805511811023
21
1.2810978740157479
0
LINE
8
BLACK
6
CONTINUOUS
10
0.1690937007874016
20
1.0049836614173229
11
0.171448188976378
21
0.985090748031496
0
LINE
8
BLACK
6
CONTINUOUS
10
0.171448188976378
20
0.985090748031496
11
0.1753561811023622
21
0.9654438976377953
0
LINE
8
BLACK
6
CONTINUOUS
10
0.1753561811023622
20
0.9654438976377953
11
0.1807936220472441
21
0.9461642125984252
0
LINE
8
BLACK
6
CONTINUOUS
10
0.1807936220472441
20
0.9461642125984252
11
0.1877269291338583
21
0.9273705905511811
0
LINE
8
BLACK
6
CONTINUOUS
10
0.1877269291338583
20
0.9273705905511811
11
0.1961134251968504
21
0.9091788582677165
0
LINE
8
BLACK
6
CONTINUOUS
10
0.1961134251968504
20
0.9091788582677165
11
0.2059013779527559
21
0.8917012204724409
0
LINE
8
BLACK
6
CONTINUOUS
10
0.2059013779527559
20
0.8917012204724409
11
0.2170304330708661
21
0.8750454330708661
0
LINE
8
BLACK
6
CONTINUOUS
10
0.2170304330708661
20
0.8750454330708661
11
0.229431968503937
21
0.8593141338582677
0
LINE
8
BLACK
6
CONTINUOUS
10
0.229431968503937
20
0.8593141338582677
11
0.2430295669291339
21
0.8446043700787401
0
LINE
8
BLACK
6
CONTINUOUS
10
0.2430295669291339
20
0.8446043700787401
11
0.2577393307086614
21
0.8310067716535433
0
LINE
8
BLACK
6
CONTINUOUS
10
0.2577393307086614
20
0.8310067716535433
11
0.2734706299212598
21
0.8186052362204724
0
LINE
8
BLACK
6
CONTINUOUS
10
0.2734706299212598
20
0.8186052362204724
11
0.2901264173228346
21
0.8074761811023622
0
LINE
8
BLACK
6
CONTINUOUS
10
0.2901264173228346
20
0.8074761811023622
11
0.3076040551181102
21
0.7976882283464567
0
LINE
8
BLACK
6
CONTINUOUS
10
0.3076040551181102
20
0.7976882283464567
11
0.3257957874015748
21
0.7893017322834646
0
LINE
8
BLACK
6
CONTINUOUS
10
0.3257957874015748
20
0.7893017322834646
11
0.3445894094488189
21
0.7823684251968503
0
LINE
8
BLACK
6
CONTINUOUS
10
0.3445894094488189
20
0.7823684251968503
11
0.363869094488189
21
0.7769309842519685
0
LINE
8
BLACK
6
CONTINUOUS
10
0.363869094488189
20
0.7769309842519685
11
0.3835159448818898
21
0.7730229921259842
0
LINE
8
BLACK
6
CONTINUOUS
10
0.3835159448818898
20
0.7730229921259842
11
0.4034088582677166
21
0.7706685039370078
0
LINE
8
BLACK
6
CONTINUOUS
10
0.4034088582677166
20
0.7706685039370078
11
0.4234251968503937
21
0.7698820472440945
0
LINE
8
BLACK
6
CONTINUOUS
10
0.4234251968503937
20
0.7698820472440945
11
0.4434415354330709
21
0.7706685039370078
0
LINE
8
BLACK
6
CONTINUOUS
10
0.4434415354330709
20
0.7706685039370078
11
0.4633344488188976
21
0.7730229921259842
0
LINE
8
BLACK
6
CONTINUOUS
10
0.4633344488188976
20
0.7730229921259842
11
0.4829812992125984
21
0.7769309842519685
0
LINE
8
BLACK
6
CONTINUOUS
10
0.4829812992125984
20
0.7769309842519685
11
0.5022609842519685
21
0.7823684251968503
0
LINE
8
BLACK
6
CONTINUOUS
10
0.5022609842519685
20
0.7823684251968503
11
0.5210546062992126
21
0.7893017322834646
0
LINE
8
BLACK
6
CONTINUOUS
10
0.5210546062992126
20
0.7893017322834646
11
0.5392463385826771
21
0.7976882283464567
0
LINE
8
BLACK
6
CONTINUOUS
10
0.5392463385826771
20
0.7976882283464567
11
0.5567239763779528
21
0.8074761811023622
0
LINE
8
BLACK
6
CONTINUOUS
10
0.5567239763779528
20
0.8074761811023622
11
0.5733797637795276
21
0.8186052362204724
0
LINE
8
BLACK
6
CONTINUOUS
10
0.5733797637795276
20
0.8186052362204724
11
0.589111062992126
21
0.8310067716535433
0
LINE
8
BLACK
6
CONTINUOUS
10
0.589111062992126
20
0.8310067716535433
11
0.6038208267716535
21
0.8446043700787401
0
LINE
8
BLACK
6
CONTINUOUS
10
0.6038208267716535
20
0.8446043700787401
11
0.6174184251968504
21
0.8593141338582677
0
LINE
8
BLACK
6
CONTINUOUS
10
0.6174184251968504
20
0.8593141338582677
11
0.6298199606299213
21
0.8750454330708661
0
LINE
8
BLACK
6
CONTINUOUS
10
0.6298199606299213
20
0.8750454330708661
11
0.6409490157480315
21
0.8917012204724409
0
LINE
8
BLACK
6
CONTINUOUS
10
0.6409490157480315
20
0.8917012204724409
11
0.650736968503937
21
0.9091788582677165
0
LINE
8
BLACK
6
CONTINUOUS
10
0.650736968503937
20
0.9091788582677165
11
0.6591234645669292
21
0.9273705905511811
0
LINE
8
BLACK
6
CONTINUOUS
10
0.6591234645669292
20
0.9273705905511811
11
0.6660567716535433
21
0.9461642125984252
0
LINE
8
BLACK
6
CONTINUOUS
10
0.6660567716535433
20
0.9461642125984252
11
0.6714942125984252
21
0.9654438976377953
0
LINE
8
BLACK
6
CONTINUOUS
10
0.6714942125984252
20
0.9654438976377953
11
0.6754022047244095
21
0.985090748031496
0
LINE
8
BLACK
6
CONTINUOUS
10
0.6754022047244095
20
0.985090748031496
11
0.6777566929133858
21
1.0049836614173229
0
LINE
8
BLACK
6
CONTINUOUS
10
0.6777566929133858
20
1.0049836614173229
11
0.6785431496062992
21
1.0249999999999999
0
LINE
8
BLACK
6
CONTINUOUS
10
0.6785431496062992
20
1.0249999999999999
11
0.6777566929133858
21
1.0450163385826772
0
LINE
8
BLACK
6
CONTINUOUS
10
0.6777566929133858
20
1.0450163385826772
11
0.6754022047244095
21
1.0649092519685039
0
LINE
8
BLACK
6
CONTINUOUS
10
0.6754022047244095
20
1.0649092519685039
11
0.6714942125984252
21
1.0845561023622048
0
LINE
8
BLACK
6
CONTINUOUS
10
0.6714942125984252
20
1.0845561023622048
11
0.6660567716535433
21
1.1038357874015747
0
LINE
8
BLACK
6
CONTINUOUS
10
0.6660567716535433
20
1.1038357874015747
11
0.6591234645669292
21
1.1226294094488189
0
LINE
8
BLACK
6
CONTINUOUS
10
0.6591234645669292
20
1.1226294094488189
11
0.650736968503937
21
1.1408211417322833
0
LINE
8
BLACK
6
CONTINUOUS
10
0.650736968503937
20
1.1408211417322833
11
0.6409490157480315
21
1.158298779527559
0
LINE
8
BLACK
6
CONTINUOUS
10
0.6409490157480315
20
1.158298779527559
11
0.6298199606299213
21
1.1749545669291339
0
LINE
8
BLACK
6
CONTINUOUS
10
0.6298199606299213
20
1.1749545669291339
11
0.6174184251968504
21
1.1906858661417323
0
LINE
8
BLACK
6
CONTINUOUS
10
0.6174184251968504
20
1.1906858661417323
11
0.6038208267716535
21
1.2053956299212598
0
LINE
8
BLACK
6
CONTINUOUS
10
0.6038208267716535
20
1.2053956299212598
11
0.589111062992126
21
1.2189932283464566
0
LINE
8
BLACK
6
CONTINUOUS
10
0.589111062992126
20
1.2189932283464566
11
0.5733797637795276
21
1.2313947637795275
0
LINE
8
BLACK
6
CONTINUOUS
10
0.5733797637795276
20
1.2313947637795275
11
0.5567239763779528
21
1.2425238188976377
0
LINE
8
BLACK
6
CONTINUOUS
10
0.5567239763779528
20
1.2425238188976377
11
0.5392463385826771
21
1.2523117716535432
0
LINE
8
BLACK
6
CONTINUOUS
10
0.5392463385826771
20
1.2523117716535432
11
0.5210546062992126
21
1.2606982677165355
0
LINE
8
BLACK
6
CONTINUOUS
10
0.5210546062992126
20
1.2606982677165355
11
0.5022609842519685
21
1.2676315748031495
0
LINE
8
BLACK
6
CONTINUOUS
10
0.5022609842519685
20
1.2676315748031495
11
0.4829812992125984
21
1.2730690157480316
0
LINE
8
BLACK
6
CONTINUOUS
10
0.4829812992125984
20
1.2730690157480316
11
0.4633344488188976
21
1.2769770078740157
0
LINE
8
BLACK
6
CONTINUOUS
10
0.4633344488188976
20
1.2769770078740157
11
0.4434415354330709
21
1.279331496062992
0
LINE
8
BLACK
6
CONTINUOUS
10
0.4434415354330709
20
1.279331496062992
11
0.4234251968503937
21
1.2801179527559055
0
LINE
8
BLACK
6
CONTINUOUS
10
0.4234251968503937
20
1.2801179527559055
11
0.4034088582677166
21
1.279331496062992
0
LINE
8
BLACK
6
CONTINUOUS
10
0.4034088582677166
20
1.279331496062992
11
0.3835159448818898
21
1.2769770078740157
0
LINE
8
BLACK
6
CONTINUOUS
10
0.3835159448818898
20
1.2769770078740157
11
0.363869094488189
21
1.2730690157480316
0
LINE
8
BLACK
6
CONTINUOUS
10
0.363869094488189
20
1.2730690157480316
11
0.3445894094488189
21
1.2676315748031495
0
LINE
8
BLACK
6
CONTINUOUS
10
0.3445894094488189
20
1.2676315748031495
11
0.3257957874015748
21
1.2606982677165355
0
LINE
8
BLACK
6
CONTINUOUS
10
0.3257957874015748
20
1.2606982677165355
11
0.3076040551181102
21
1.2523117716535432
0
LINE
8
BLACK
6
CONTINUOUS
10
0.3076040551181102
20
1.2523117716535432
11
0.2901264173228346
21
1.2425238188976377
0
LINE
8
BLACK
6
CONTINUOUS
10
0.2901264173228346
20
1.2425238188976377
11
0.2734706299212598
21
1.2313947637795275
0
LINE
8
BLACK
6
CONTINUOUS
10
0.2734706299212598
20
1.2313947637795275
11
0.2577393307086614
21
1.2189932283464566
0
LINE
8
BLACK
6
CONTINUOUS
10
0.2577393307086614
20
1.2189932283464566
11
0.2430295669291339
21
1.2053956299212598
0
LINE
8
BLACK
6
CONTINUOUS
10
0.2430295669291339
20
1.2053956299212598
11
0.229431968503937
21
1.1906858661417323
0
LINE
8
BLACK
6
CONTINUOUS
10
0.229431968503937
20
1.1906858661417323
11
0.2170304330708661
21
1.1749545669291339
0
LINE
8
BLACK
6
CONTINUOUS
10
0.2170304330708661
20
1.1749545669291339
11
0.2059013779527559
21
1.158298779527559
0
LINE
8
BLACK
6
CONTINUOUS
10
0.2059013779527559
20
1.158298779527559
11
0.1961134251968504
21
1.1408211417322833
0
LINE
8
BLACK
6
CONTINUOUS
10
0.1961134251968504
20
1.1408211417322833
11
0.1877269291338583
21
1.1226294094488189
0
LINE
8
BLACK
6
CONTINUOUS
10
0.1877269291338583
20
1.1226294094488189
11
0.1807936220472441
21
1.1038357874015747
0
LINE
8
BLACK
6
CONTINUOUS
10
0.1807936220472441
20
1.1038357874015747
11
0.1753561811023622
21
1.0845561023622048
0
LINE
8
BLACK
6
CONTINUOUS
10
0.1753561811023622
20
1.0845561023622048
11
0.171448188976378
21
1.0649092519685039
0
LINE
8
BLACK
6
CONTINUOUS
10
0.171448188976378
20
1.0649092519685039
11
0.1690937007874016
21
1.0450163385826772
0
LINE
8
BLACK
6
CONTINUOUS
10
0.1690937007874016
20
1.0450163385826772
11
0.1683072440944882
21
1.0249999999999999
0
LINE
8
BLACK
6
CONTINUOUS
10
0.1683072440944882
20
1.0249999999999999
11
0.1690937007874016
21
1.0049836614173229
  0
ENDSEC
  0
EOF
