  0
SECTION
  2
HEADER
  9
$ANGBASE
  50
0.0
  9
$ANGDIR
  70
1
  9
$MEASUREMENT
  70
0
  0
ENDSEC
  0
SECTION
  2
TABLES
  0
TABLE
  2
LTYPE
  70
4
  0
LTYPE
  5
40F
  2
CONTINUOUS
  70
0
  3
Solid line
  72
65
  73
0
  40
0.0
  0
LTYPE
  5
410
  2
DASHDOT
 70
0
  3
Dash Dot ____ _ ____ _
 72
65
 73
4
 40
2.0
 49
1.25
 49
-0.25
 49
0.25
 49
-0.25
  0
LTYPE
  5
411
  2
DASHED
 70
0
  3
Dashed __ __ __ __ __
 72
65
 73
2
 40
0.75
 49
0.5
 49
-0.25
  0
LTYPE
  5
43B
  2
DOTTED
 70
0
  3
Dotted .  .  .  .
 72
65
 73
2
 40
0.2
 49
0.0
 49
-0.2
  0
ENDTAB
  0
TABLE
  2
STYLE
  70
4
  0
STYLE
  2
KICAD
  70
0
  40
0
  41
1
  42
1
  50
0
  71
0
  3
isocp.shx
  0
STYLE
  2
KICADB
  70
0
  40
0
  41
1
  42
1
  50
0
  71
0
  3
isocp.shx
  0
STYLE
  2
KICADI
  70
0
  40
0
  41
1
  42
1
  50
15
  71
0
  3
isocp.shx
  0
STYLE
  2
KICADBI
  70
0
  40
0
  41
1
  42
1
  50
15
  71
0
  3
isocp.shx
  0
ENDTAB
  0
TABLE
  2
LAYER
  70
1
  0
LAYER
  2
BLACK
  70
0
  62
7
  6
CONTINUOUS
  0
ENDTAB
  0
ENDSEC
  0
SECTION
  2
ENTITIES
0
LINE
8
BLACK
6
CONTINUOUS
10
0.0906619291338583
20
0.7790979921259842
11
0.0913527559055118
21
0.7772
0
LINE
8
BLACK
6
CONTINUOUS
10
0.0913527559055118
20
0.7772
11
0.0913527559055118
21
0.4228
0
LINE
8
BLACK
6
CONTINUOUS
10
0.0913527559055118
20
0.4228
11
0.0911746850393701
21
0.4217900787401574
0
LINE
8
BLACK
6
CONTINUOUS
10
0.0911746850393701
20
0.4217900787401574
11
0.0898763779527559
21
0.4202428346456693
0
LINE
8
BLACK
6
CONTINUOUS
10
0.0898763779527559
20
0.4202428346456693
11
0.0878872440944882
21
0.4198920866141732
0
LINE
8
BLACK
6
CONTINUOUS
10
0.0878872440944882
20
0.4198920866141732
11
0.0861380708661417
21
0.4209020078740157
0
LINE
8
BLACK
6
CONTINUOUS
10
0.0861380708661417
20
0.4209020078740157
11
0.0854472440944882
21
0.4228
0
LINE
8
BLACK
6
CONTINUOUS
10
0.0854472440944882
20
0.4228
11
0.0854472440944882
21
0.7772
0
LINE
8
BLACK
6
CONTINUOUS
10
0.0854472440944882
20
0.7772
11
0.0856253149606299
21
0.7782099212598425
0
LINE
8
BLACK
6
CONTINUOUS
10
0.0856253149606299
20
0.7782099212598425
11
0.0869236220472441
21
0.7797571653543307
0
LINE
8
BLACK
6
CONTINUOUS
10
0.0869236220472441
20
0.7797571653543307
11
0.0889127559055118
21
0.7801079133858267
0
LINE
8
BLACK
6
CONTINUOUS
10
0.0889127559055118
20
0.7801079133858267
11
0.0906619291338583
21
0.7790979921259842
0
LINE
8
BLACK
6
CONTINUOUS
10
0.2638619291338583
20
0.7798979921259842
11
0.2645527559055118
21
0.778
0
LINE
8
BLACK
6
CONTINUOUS
10
0.2645527559055118
20
0.778
11
0.2645527559055118
21
0.4236
0
LINE
8
BLACK
6
CONTINUOUS
10
0.2645527559055118
20
0.4236
11
0.2643746850393701
21
0.4225900787401575
0
LINE
8
BLACK
6
CONTINUOUS
10
0.2643746850393701
20
0.4225900787401575
11
0.2630763779527559
21
0.4210428346456693
0
LINE
8
BLACK
6
CONTINUOUS
10
0.2630763779527559
20
0.4210428346456693
11
0.2610872440944882
21
0.4206920866141732
0
LINE
8
BLACK
6
CONTINUOUS
10
0.2610872440944882
20
0.4206920866141732
11
0.2593380708661417
21
0.4217020078740157
0
LINE
8
BLACK
6
CONTINUOUS
10
0.2593380708661417
20
0.4217020078740157
11
0.2586472440944882
21
0.4236
0
LINE
8
BLACK
6
CONTINUOUS
10
0.2586472440944882
20
0.4236
11
0.2586472440944882
21
0.778
0
LINE
8
BLACK
6
CONTINUOUS
10
0.2586472440944882
20
0.778
11
0.2588253149606299
21
0.7790099212598425
0
LINE
8
BLACK
6
CONTINUOUS
10
0.2588253149606299
20
0.7790099212598425
11
0.2601236220472441
21
0.7805571653543307
0
LINE
8
BLACK
6
CONTINUOUS
10
0.2601236220472441
20
0.7805571653543307
11
0.2621127559055118
21
0.7809079133858268
0
LINE
8
BLACK
6
CONTINUOUS
10
0.2621127559055118
20
0.7809079133858268
11
0.2638619291338583
21
0.7798979921259842
0
LINE
8
BLACK
6
CONTINUOUS
10
0.7197619291338583
20
0.5568979921259842
11
0.7204527559055118
21
0.5549999999999999
0
LINE
8
BLACK
6
CONTINUOUS
10
0.7204527559055118
20
0.5549999999999999
11
0.7204527559055118
21
0.515
0
LINE
8
BLACK
6
CONTINUOUS
10
0.7204527559055118
20
0.515
11
0.7203851181102362
21
0.5146164566929133
0
LINE
8
BLACK
6
CONTINUOUS
10
0.7203851181102362
20
0.5146164566929133
11
0.7204079133858268
21
0.5144872440944882
0
LINE
8
BLACK
6
CONTINUOUS
10
0.7204079133858268
20
0.5144872440944882
11
0.720342283464567
21
0.5143736220472441
0
LINE
8
BLACK
6
CONTINUOUS
10
0.720342283464567
20
0.5143736220472441
11
0.7202746850393701
21
0.5139900787401575
0
LINE
8
BLACK
6
CONTINUOUS
10
0.7202746850393701
20
0.5139900787401575
11
0.7197815354330709
21
0.5134023622047243
0
LINE
8
BLACK
6
CONTINUOUS
10
0.7197815354330709
20
0.5134023622047243
11
0.7193979921259842
21
0.5127380708661418
0
LINE
8
BLACK
6
CONTINUOUS
10
0.7193979921259842
20
0.5127380708661418
11
0.7191476377952756
21
0.5126469291338582
0
LINE
8
BLACK
6
CONTINUOUS
10
0.7191476377952756
20
0.5126469291338582
11
0.7189763779527559
21
0.5124428346456693
0
LINE
8
BLACK
6
CONTINUOUS
10
0.7189763779527559
20
0.5124428346456693
11
0.7182207874015748
21
0.5123095669291339
0
LINE
8
BLACK
6
CONTINUOUS
10
0.7182207874015748
20
0.5123095669291339
11
0.7175
21
0.5120472440944882
0
LINE
8
BLACK
6
CONTINUOUS
10
0.7175
20
0.5120472440944882
11
0.6649855118110236
21
0.5120472440944882
0
LINE
8
BLACK
6
CONTINUOUS
10
0.6649855118110236
20
0.5120472440944882
11
0.6654527559055118
21
0.51
0
LINE
8
BLACK
6
CONTINUOUS
10
0.6654527559055118
20
0.51
11
0.6646651968503937
21
0.5065494094488189
0
LINE
8
BLACK
6
CONTINUOUS
10
0.6646651968503937
20
0.5065494094488189
11
0.6624584645669291
21
0.5037822834645669
0
LINE
8
BLACK
6
CONTINUOUS
10
0.6624584645669291
20
0.5037822834645669
11
0.6592696456692914
21
0.5022466535433071
0
LINE
8
BLACK
6
CONTINUOUS
10
0.6592696456692914
20
0.5022466535433071
11
0.6557303543307087
21
0.5022466535433071
0
LINE
8
BLACK
6
CONTINUOUS
10
0.6557303543307087
20
0.5022466535433071
11
0.6525415354330708
21
0.5037822834645669
0
LINE
8
BLACK
6
CONTINUOUS
10
0.6525415354330708
20
0.5037822834645669
11
0.6503348031496062
21
0.5065494094488189
0
LINE
8
BLACK
6
CONTINUOUS
10
0.6503348031496062
20
0.5065494094488189
11
0.6495472440944882
21
0.51
0
LINE
8
BLACK
6
CONTINUOUS
10
0.6495472440944882
20
0.51
11
0.6503348031496062
21
0.5134505905511811
0
LINE
8
BLACK
6
CONTINUOUS
10
0.6503348031496062
20
0.5134505905511811
11
0.6525415354330708
21
0.516217716535433
0
LINE
8
BLACK
6
CONTINUOUS
10
0.6525415354330708
20
0.516217716535433
11
0.6545472440944882
21
0.5171835826771654
0
LINE
8
BLACK
6
CONTINUOUS
10
0.6545472440944882
20
0.5171835826771654
11
0.6545472440944882
21
0.5549999999999999
0
LINE
8
BLACK
6
CONTINUOUS
10
0.6545472440944882
20
0.5549999999999999
11
0.6547253149606299
21
0.5560099212598425
0
LINE
8
BLACK
6
CONTINUOUS
10
0.6547253149606299
20
0.5560099212598425
11
0.6560236220472441
21
0.5575571653543306
0
LINE
8
BLACK
6
CONTINUOUS
10
0.6560236220472441
20
0.5575571653543306
11
0.6580127559055118
21
0.5579079133858268
0
LINE
8
BLACK
6
CONTINUOUS
10
0.6580127559055118
20
0.5579079133858268
11
0.6597619291338582
21
0.5568979921259842
0
LINE
8
BLACK
6
CONTINUOUS
10
0.6597619291338582
20
0.5568979921259842
11
0.6604527559055118
21
0.5549999999999999
0
LINE
8
BLACK
6
CONTINUOUS
10
0.6604527559055118
20
0.5549999999999999
11
0.6604527559055118
21
0.5179527559055118
0
LINE
8
BLACK
6
CONTINUOUS
10
0.6604527559055118
20
0.5179527559055118
11
0.7145472440944882
21
0.5179527559055118
0
LINE
8
BLACK
6
CONTINUOUS
10
0.7145472440944882
20
0.5179527559055118
11
0.7145472440944882
21
0.5549999999999999
0
LINE
8
BLACK
6
CONTINUOUS
10
0.7145472440944882
20
0.5549999999999999
11
0.7147253149606299
21
0.5560099212598425
0
LINE
8
BLACK
6
CONTINUOUS
10
0.7147253149606299
20
0.5560099212598425
11
0.7160236220472441
21
0.5575571653543306
0
LINE
8
BLACK
6
CONTINUOUS
10
0.7160236220472441
20
0.5575571653543306
11
0.7180127559055118
21
0.5579079133858268
0
LINE
8
BLACK
6
CONTINUOUS
10
0.7180127559055118
20
0.5579079133858268
11
0.7197619291338583
21
0.5568979921259842
0
LINE
8
BLACK
6
CONTINUOUS
10
0.6559331102362205
20
0.5084331102362205
11
0.6575
21
0.507784094488189
0
LINE
8
BLACK
6
CONTINUOUS
10
0.6575
20
0.507784094488189
11
0.6590668897637795
21
0.5084331102362205
0
LINE
8
BLACK
6
CONTINUOUS
10
0.6590668897637795
20
0.5084331102362205
11
0.659715905511811
21
0.51
0
LINE
8
BLACK
6
CONTINUOUS
10
0.659715905511811
20
0.51
11
0.6590668897637795
21
0.5115668897637795
0
LINE
8
BLACK
6
CONTINUOUS
10
0.6590668897637795
20
0.5115668897637795
11
0.6579072047244094
21
0.5120472440944882
0
LINE
8
BLACK
6
CONTINUOUS
10
0.6579072047244094
20
0.5120472440944882
11
0.6575
21
0.5120472440944882
0
LINE
8
BLACK
6
CONTINUOUS
10
0.6575
20
0.5120472440944882
11
0.6572143700787402
21
0.5120975984251969
0
LINE
8
BLACK
6
CONTINUOUS
10
0.6572143700787402
20
0.5120975984251969
11
0.6559331102362205
21
0.5115668897637795
0
LINE
8
BLACK
6
CONTINUOUS
10
0.6559331102362205
20
0.5115668897637795
11
0.6552840944881889
21
0.51
0
LINE
8
BLACK
6
CONTINUOUS
10
0.6552840944881889
20
0.51
11
0.6559331102362205
21
0.5084331102362205
0
LINE
8
BLACK
6
CONTINUOUS
10
0.1827246456692913
20
0.6008842913385827
11
0.1833360236220472
21
0.6009210236220472
0
LINE
8
BLACK
6
CONTINUOUS
10
0.1833360236220472
20
0.6009210236220472
11
0.1842000787401575
21
0.6004889763779527
0
LINE
8
BLACK
6
CONTINUOUS
10
0.1842000787401575
20
0.6004889763779527
11
0.1851331102362205
21
0.6002389763779528
0
LINE
8
BLACK
6
CONTINUOUS
10
0.1851331102362205
20
0.6002389763779528
11
0.1855661023622047
21
0.5998059448818898
0
LINE
8
BLACK
6
CONTINUOUS
10
0.1855661023622047
20
0.5998059448818898
11
0.186113937007874
21
0.5995320472440945
0
LINE
8
BLACK
6
CONTINUOUS
10
0.186113937007874
20
0.5995320472440945
11
0.1866462204724409
21
0.5987258267716535
0
LINE
8
BLACK
6
CONTINUOUS
10
0.1866462204724409
20
0.5987258267716535
11
0.1873292519685039
21
0.5980428346456693
0
LINE
8
BLACK
6
CONTINUOUS
10
0.1873292519685039
20
0.5980428346456693
11
0.1874877165354331
21
0.5974513385826772
0
LINE
8
BLACK
6
CONTINUOUS
10
0.1874877165354331
20
0.5974513385826772
11
0.1878252362204724
21
0.5969401968503937
0
LINE
8
BLACK
6
CONTINUOUS
10
0.1878252362204724
20
0.5969401968503937
11
0.1878831102362205
21
0.5959757874015748
0
LINE
8
BLACK
6
CONTINUOUS
10
0.1878831102362205
20
0.5959757874015748
11
0.1881331102362205
21
0.5950428346456693
0
LINE
8
BLACK
6
CONTINUOUS
10
0.1881331102362205
20
0.5950428346456693
11
0.1881331102362205
21
0.5724714173228347
0
LINE
8
BLACK
6
CONTINUOUS
10
0.1881331102362205
20
0.5724714173228347
11
0.2021331102362205
21
0.5724714173228347
0
LINE
8
BLACK
6
CONTINUOUS
10
0.2021331102362205
20
0.5724714173228347
11
0.2051331102362205
21
0.5716675590551181
0
LINE
8
BLACK
6
CONTINUOUS
10
0.2051331102362205
20
0.5716675590551181
11
0.2073292519685039
21
0.5694714173228347
0
LINE
8
BLACK
6
CONTINUOUS
10
0.2073292519685039
20
0.5694714173228347
11
0.2081331102362205
21
0.5664714173228347
0
LINE
8
BLACK
6
CONTINUOUS
10
0.2081331102362205
20
0.5664714173228347
11
0.2073292519685039
21
0.5634714173228347
0
LINE
8
BLACK
6
CONTINUOUS
10
0.2073292519685039
20
0.5634714173228347
11
0.2051331102362205
21
0.5612752755905511
0
LINE
8
BLACK
6
CONTINUOUS
10
0.2051331102362205
20
0.5612752755905511
11
0.2021331102362205
21
0.5604714173228347
0
LINE
8
BLACK
6
CONTINUOUS
10
0.2021331102362205
20
0.5604714173228347
11
0.1881331102362205
21
0.5604714173228347
0
LINE
8
BLACK
6
CONTINUOUS
10
0.1881331102362205
20
0.5604714173228347
11
0.1881331102362205
21
0.5578999606299212
0
LINE
8
BLACK
6
CONTINUOUS
10
0.1881331102362205
20
0.5578999606299212
11
0.1873292519685039
21
0.5548999606299212
0
LINE
8
BLACK
6
CONTINUOUS
10
0.1873292519685039
20
0.5548999606299212
11
0.1851331102362205
21
0.5527038188976378
0
LINE
8
BLACK
6
CONTINUOUS
10
0.1851331102362205
20
0.5527038188976378
11
0.1821331102362205
21
0.5518999606299212
0
LINE
8
BLACK
6
CONTINUOUS
10
0.1821331102362205
20
0.5518999606299212
11
0.1791331102362205
21
0.5527038188976378
0
LINE
8
BLACK
6
CONTINUOUS
10
0.1791331102362205
20
0.5527038188976378
11
0.176936968503937
21
0.5548999606299212
0
LINE
8
BLACK
6
CONTINUOUS
10
0.176936968503937
20
0.5548999606299212
11
0.1761331102362205
21
0.5578999606299212
0
LINE
8
BLACK
6
CONTINUOUS
10
0.1761331102362205
20
0.5578999606299212
11
0.1761331102362205
21
0.5604714173228347
0
LINE
8
BLACK
6
CONTINUOUS
10
0.1761331102362205
20
0.5604714173228347
11
0.1621331102362205
21
0.5604714173228347
0
LINE
8
BLACK
6
CONTINUOUS
10
0.1621331102362205
20
0.5604714173228347
11
0.1591331102362205
21
0.5612752755905511
0
LINE
8
BLACK
6
CONTINUOUS
10
0.1591331102362205
20
0.5612752755905511
11
0.156936968503937
21
0.5634714173228347
0
LINE
8
BLACK
6
CONTINUOUS
10
0.156936968503937
20
0.5634714173228347
11
0.1561331102362205
21
0.5664714173228347
0
LINE
8
BLACK
6
CONTINUOUS
10
0.1561331102362205
20
0.5664714173228347
11
0.156936968503937
21
0.5694714173228347
0
LINE
8
BLACK
6
CONTINUOUS
10
0.156936968503937
20
0.5694714173228347
11
0.1591331102362205
21
0.5716675590551181
0
LINE
8
BLACK
6
CONTINUOUS
10
0.1591331102362205
20
0.5716675590551181
11
0.1621331102362205
21
0.5724714173228347
0
LINE
8
BLACK
6
CONTINUOUS
10
0.1621331102362205
20
0.5724714173228347
11
0.1761331102362205
21
0.5724714173228347
0
LINE
8
BLACK
6
CONTINUOUS
10
0.1761331102362205
20
0.5724714173228347
11
0.1761331102362205
21
0.5867182677165355
0
LINE
8
BLACK
6
CONTINUOUS
10
0.1761331102362205
20
0.5867182677165355
11
0.1411733464566929
21
0.5750650393700787
0
LINE
8
BLACK
6
CONTINUOUS
10
0.1411733464566929
20
0.5750650393700787
11
0.1380731102362205
21
0.574878937007874
0
LINE
8
BLACK
6
CONTINUOUS
10
0.1380731102362205
20
0.574878937007874
11
0.135295157480315
21
0.5762679133858267
0
LINE
8
BLACK
6
CONTINUOUS
10
0.135295157480315
20
0.5762679133858267
11
0.1335838976377953
21
0.5788597637795275
0
LINE
8
BLACK
6
CONTINUOUS
10
0.1335838976377953
20
0.5788597637795275
11
0.1333977952755905
21
0.58196
0
LINE
8
BLACK
6
CONTINUOUS
10
0.1333977952755905
20
0.58196
11
0.1347867716535433
21
0.5847379527559055
0
LINE
8
BLACK
6
CONTINUOUS
10
0.1347867716535433
20
0.5847379527559055
11
0.1373786220472441
21
0.5864492125984252
0
LINE
8
BLACK
6
CONTINUOUS
10
0.1373786220472441
20
0.5864492125984252
11
0.1802357480314961
21
0.6007349212598425
0
LINE
8
BLACK
6
CONTINUOUS
10
0.1802357480314961
20
0.6007349212598425
11
0.1811999606299212
21
0.6007927952755905
0
LINE
8
BLACK
6
CONTINUOUS
10
0.1811999606299212
20
0.6007927952755905
11
0.1821331102362205
21
0.6010428346456693
0
LINE
8
BLACK
6
CONTINUOUS
10
0.1821331102362205
20
0.6010428346456693
11
0.1827246456692913
21
0.6008842913385827
0
LINE
8
BLACK
6
CONTINUOUS
10
0.7178835039370078
20
0.6378851181102362
11
0.7180127559055118
21
0.6379079133858268
0
LINE
8
BLACK
6
CONTINUOUS
10
0.7180127559055118
20
0.6379079133858268
11
0.7181263385826772
21
0.637842283464567
0
LINE
8
BLACK
6
CONTINUOUS
10
0.7181263385826772
20
0.637842283464567
11
0.7185099212598425
21
0.6377746850393701
0
LINE
8
BLACK
6
CONTINUOUS
10
0.7185099212598425
20
0.6377746850393701
11
0.7190975984251968
21
0.6372815354330709
0
LINE
8
BLACK
6
CONTINUOUS
10
0.7190975984251968
20
0.6372815354330709
11
0.7197619291338583
21
0.6368979921259842
0
LINE
8
BLACK
6
CONTINUOUS
10
0.7197619291338583
20
0.6368979921259842
11
0.7198530314960629
21
0.6366476377952756
0
LINE
8
BLACK
6
CONTINUOUS
10
0.7198530314960629
20
0.6366476377952756
11
0.7200571653543307
21
0.6364763779527559
0
LINE
8
BLACK
6
CONTINUOUS
10
0.7200571653543307
20
0.6364763779527559
11
0.7201903937007874
21
0.6357207874015748
0
LINE
8
BLACK
6
CONTINUOUS
10
0.7201903937007874
20
0.6357207874015748
11
0.7204527559055118
21
0.635
0
LINE
8
BLACK
6
CONTINUOUS
10
0.7204527559055118
20
0.635
11
0.7204527559055118
21
0.595
0
LINE
8
BLACK
6
CONTINUOUS
10
0.7204527559055118
20
0.595
11
0.7202746850393701
21
0.5939900787401574
0
LINE
8
BLACK
6
CONTINUOUS
10
0.7202746850393701
20
0.5939900787401574
11
0.7189763779527559
21
0.5924428346456693
0
LINE
8
BLACK
6
CONTINUOUS
10
0.7189763779527559
20
0.5924428346456693
11
0.7169872440944882
21
0.5920920866141732
0
LINE
8
BLACK
6
CONTINUOUS
10
0.7169872440944882
20
0.5920920866141732
11
0.7152380708661417
21
0.5931020078740157
0
LINE
8
BLACK
6
CONTINUOUS
10
0.7152380708661417
20
0.5931020078740157
11
0.7145472440944882
21
0.595
0
LINE
8
BLACK
6
CONTINUOUS
10
0.7145472440944882
20
0.595
11
0.7145472440944882
21
0.6320472440944882
0
LINE
8
BLACK
6
CONTINUOUS
10
0.7145472440944882
20
0.6320472440944882
11
0.6604527559055118
21
0.6320472440944882
0
LINE
8
BLACK
6
CONTINUOUS
10
0.6604527559055118
20
0.6320472440944882
11
0.6604527559055118
21
0.595
0
LINE
8
BLACK
6
CONTINUOUS
10
0.6604527559055118
20
0.595
11
0.66027468503937
21
0.5939900787401574
0
LINE
8
BLACK
6
CONTINUOUS
10
0.66027468503937
20
0.5939900787401574
11
0.6589763779527559
21
0.5924428346456693
0
LINE
8
BLACK
6
CONTINUOUS
10
0.6589763779527559
20
0.5924428346456693
11
0.6569872440944882
21
0.5920920866141732
0
LINE
8
BLACK
6
CONTINUOUS
10
0.6569872440944882
20
0.5920920866141732
11
0.6552380708661417
21
0.5931020078740157
0
LINE
8
BLACK
6
CONTINUOUS
10
0.6552380708661417
20
0.5931020078740157
11
0.6545472440944882
21
0.595
0
LINE
8
BLACK
6
CONTINUOUS
10
0.6545472440944882
20
0.595
11
0.6545472440944882
21
0.635
0
LINE
8
BLACK
6
CONTINUOUS
10
0.6545472440944882
20
0.635
11
0.654614842519685
21
0.6353835039370078
0
LINE
8
BLACK
6
CONTINUOUS
10
0.654614842519685
20
0.6353835039370078
11
0.6545920866141732
21
0.6355127559055118
0
LINE
8
BLACK
6
CONTINUOUS
10
0.6545920866141732
20
0.6355127559055118
11
0.6546576771653543
21
0.6356263385826771
0
LINE
8
BLACK
6
CONTINUOUS
10
0.6546576771653543
20
0.6356263385826771
11
0.6547253149606299
21
0.6360099212598425
0
LINE
8
BLACK
6
CONTINUOUS
10
0.6547253149606299
20
0.6360099212598425
11
0.6552184251968504
21
0.6365975984251968
0
LINE
8
BLACK
6
CONTINUOUS
10
0.6552184251968504
20
0.6365975984251968
11
0.6556020078740157
21
0.6372619291338583
0
LINE
8
BLACK
6
CONTINUOUS
10
0.6556020078740157
20
0.6372619291338583
11
0.6558523228346457
21
0.6373530314960629
0
LINE
8
BLACK
6
CONTINUOUS
10
0.6558523228346457
20
0.6373530314960629
11
0.6560236220472441
21
0.6375571653543307
0
LINE
8
BLACK
6
CONTINUOUS
10
0.6560236220472441
20
0.6375571653543307
11
0.6567791732283464
21
0.6376903937007874
0
LINE
8
BLACK
6
CONTINUOUS
10
0.6567791732283464
20
0.6376903937007874
11
0.6575
21
0.6379527559055118
0
LINE
8
BLACK
6
CONTINUOUS
10
0.6575
20
0.6379527559055118
11
0.7175
21
0.6379527559055118
0
LINE
8
BLACK
6
CONTINUOUS
10
0.7175
20
0.6379527559055118
11
0.7178835039370078
21
0.6378851181102362
0
LINE
8
BLACK
6
CONTINUOUS
10
1.2232619291338582
20
0.8038979921259842
11
1.2239527559055119
21
0.8019999999999999
0
LINE
8
BLACK
6
CONTINUOUS
10
1.2239527559055119
20
0.8019999999999999
11
1.2239527559055119
21
0.5972755905511811
0
LINE
8
BLACK
6
CONTINUOUS
10
1.2239527559055119
20
0.5972755905511811
11
1.22377468503937
21
0.5962656692913386
0
LINE
8
BLACK
6
CONTINUOUS
10
1.22377468503937
20
0.5962656692913386
11
1.2224763779527559
21
0.5947184251968504
0
LINE
8
BLACK
6
CONTINUOUS
10
1.2224763779527559
20
0.5947184251968504
11
1.2204872440944881
21
0.5943676771653543
0
LINE
8
BLACK
6
CONTINUOUS
10
1.2204872440944881
20
0.5943676771653543
11
1.2187380708661417
21
0.5953775984251969
0
LINE
8
BLACK
6
CONTINUOUS
10
1.2187380708661417
20
0.5953775984251969
11
1.2180472440944881
21
0.5972755905511811
0
LINE
8
BLACK
6
CONTINUOUS
10
1.2180472440944881
20
0.5972755905511811
11
1.2180472440944881
21
0.8019999999999999
0
LINE
8
BLACK
6
CONTINUOUS
10
1.2180472440944881
20
0.8019999999999999
11
1.2182253149606299
21
0.8030099212598425
0
LINE
8
BLACK
6
CONTINUOUS
10
1.2182253149606299
20
0.8030099212598425
11
1.2195236220472441
21
0.8045571653543306
0
LINE
8
BLACK
6
CONTINUOUS
10
1.2195236220472441
20
0.8045571653543306
11
1.2215127559055119
21
0.8049079133858268
0
LINE
8
BLACK
6
CONTINUOUS
10
1.2215127559055119
20
0.8049079133858268
11
1.2232619291338582
21
0.8038979921259842
0
LINE
8
BLACK
6
CONTINUOUS
10
1.0804115354330708
20
0.8042601968503936
11
1.0811023622047244
21
0.8023622047244094
0
LINE
8
BLACK
6
CONTINUOUS
10
1.0811023622047244
20
0.8023622047244094
11
1.0811023622047244
21
0.5976377952755906
0
LINE
8
BLACK
6
CONTINUOUS
10
1.0811023622047244
20
0.5976377952755906
11
1.0809242913385826
21
0.596627874015748
0
LINE
8
BLACK
6
CONTINUOUS
10
1.0809242913385826
20
0.596627874015748
11
1.0796259842519684
21
0.5950806299212599
0
LINE
8
BLACK
6
CONTINUOUS
10
1.0796259842519684
20
0.5950806299212599
11
1.0776368503937008
21
0.5947298818897637
0
LINE
8
BLACK
6
CONTINUOUS
10
1.0776368503937008
20
0.5947298818897637
11
1.0758876771653543
21
0.5957398031496063
0
LINE
8
BLACK
6
CONTINUOUS
10
1.0758876771653543
20
0.5957398031496063
11
1.0751968503937008
21
0.5976377952755906
0
LINE
8
BLACK
6
CONTINUOUS
10
1.0751968503937008
20
0.5976377952755906
11
1.0751968503937008
21
0.8023622047244094
0
LINE
8
BLACK
6
CONTINUOUS
10
1.0751968503937008
20
0.8023622047244094
11
1.0753749212598425
21
0.803372125984252
0
LINE
8
BLACK
6
CONTINUOUS
10
1.0753749212598425
20
0.803372125984252
11
1.0766732283464566
21
0.8049193700787401
0
LINE
8
BLACK
6
CONTINUOUS
10
1.0766732283464566
20
0.8049193700787401
11
1.0786623622047244
21
0.8052701181102362
0
LINE
8
BLACK
6
CONTINUOUS
10
1.0786623622047244
20
0.8052701181102362
11
1.0804115354330708
21
0.8042601968503936
0
LINE
8
BLACK
6
CONTINUOUS
10
0.1771338188976378
20
0.6608512204724409
11
0.1778740551181102
21
0.6608637007874015
0
LINE
8
BLACK
6
CONTINUOUS
10
0.1778740551181102
20
0.6608637007874015
11
0.1893026377952756
21
0.6580065354330709
0
LINE
8
BLACK
6
CONTINUOUS
10
0.1893026377952756
20
0.6580065354330709
11
0.1898817716535433
21
0.657685
0
LINE
8
BLACK
6
CONTINUOUS
10
0.1898817716535433
20
0.657685
11
0.1905306692913386
21
0.6575522440944882
0
LINE
8
BLACK
6
CONTINUOUS
10
0.1905306692913386
20
0.6575522440944882
11
0.1962449606299213
21
0.6546951181102362
0
LINE
8
BLACK
6
CONTINUOUS
10
0.1962449606299213
20
0.6546951181102362
11
0.1969677559055118
21
0.6540541338582677
0
LINE
8
BLACK
6
CONTINUOUS
10
0.1969677559055118
20
0.6540541338582677
11
0.1978043307086614
21
0.6535711811023622
0
LINE
8
BLACK
6
CONTINUOUS
10
0.1978043307086614
20
0.6535711811023622
11
0.2035186220472441
21
0.6478568897637795
0
LINE
8
BLACK
6
CONTINUOUS
10
0.2035186220472441
20
0.6478568897637795
11
0.2042081889763779
21
0.6466624803149607
0
LINE
8
BLACK
6
CONTINUOUS
10
0.2042081889763779
20
0.6466624803149607
11
0.2049680708661417
21
0.6455116141732283
0
LINE
8
BLACK
6
CONTINUOUS
10
0.2049680708661417
20
0.6455116141732283
11
0.2078252362204724
21
0.6369401968503937
0
LINE
8
BLACK
6
CONTINUOUS
10
0.2078252362204724
20
0.6369401968503937
11
0.2078831102362205
21
0.6359757874015748
0
LINE
8
BLACK
6
CONTINUOUS
10
0.2078831102362205
20
0.6359757874015748
11
0.2081331102362205
21
0.6350428346456692
0
LINE
8
BLACK
6
CONTINUOUS
10
0.2081331102362205
20
0.6350428346456692
11
0.2081331102362205
21
0.6293285433070867
0
LINE
8
BLACK
6
CONTINUOUS
10
0.2081331102362205
20
0.6293285433070867
11
0.2078831102362205
21
0.6283955511811024
0
LINE
8
BLACK
6
CONTINUOUS
10
0.2078831102362205
20
0.6283955511811024
11
0.2078252362204724
21
0.6274311811023622
0
LINE
8
BLACK
6
CONTINUOUS
10
0.2078252362204724
20
0.6274311811023622
11
0.2049680708661417
21
0.6188597637795276
0
LINE
8
BLACK
6
CONTINUOUS
10
0.2049680708661417
20
0.6188597637795276
11
0.2042081889763779
21
0.6177088582677165
0
LINE
8
BLACK
6
CONTINUOUS
10
0.2042081889763779
20
0.6177088582677165
11
0.2035186220472441
21
0.6165144881889764
0
LINE
8
BLACK
6
CONTINUOUS
10
0.2035186220472441
20
0.6165144881889764
11
0.2006614566929134
21
0.6136573228346457
0
LINE
8
BLACK
6
CONTINUOUS
10
0.2006614566929134
20
0.6136573228346457
11
0.1979717322834646
21
0.6121044094488188
0
LINE
8
BLACK
6
CONTINUOUS
10
0.1979717322834646
20
0.6121044094488188
11
0.194865905511811
21
0.6121044094488188
0
LINE
8
BLACK
6
CONTINUOUS
10
0.194865905511811
20
0.6121044094488188
11
0.1921761811023622
21
0.6136573228346457
0
LINE
8
BLACK
6
CONTINUOUS
10
0.1921761811023622
20
0.6136573228346457
11
0.1906232677165354
21
0.6163470472440945
0
LINE
8
BLACK
6
CONTINUOUS
10
0.1906232677165354
20
0.6163470472440945
11
0.1906232677165354
21
0.619452874015748
0
LINE
8
BLACK
6
CONTINUOUS
10
0.1906232677165354
20
0.619452874015748
11
0.1921761811023622
21
0.6221425984251968
0
LINE
8
BLACK
6
CONTINUOUS
10
0.1921761811023622
20
0.6221425984251968
11
0.1940317716535433
21
0.6239981889763779
0
LINE
8
BLACK
6
CONTINUOUS
10
0.1940317716535433
20
0.6239981889763779
11
0.1961331102362205
21
0.6303021259842519
0
LINE
8
BLACK
6
CONTINUOUS
10
0.1961331102362205
20
0.6303021259842519
11
0.1961331102362205
21
0.6340692125984252
0
LINE
8
BLACK
6
CONTINUOUS
10
0.1961331102362205
20
0.6340692125984252
11
0.1940317716535433
21
0.6403731496062992
0
LINE
8
BLACK
6
CONTINUOUS
10
0.1940317716535433
20
0.6403731496062992
11
0.1900075590551181
21
0.6443973622047244
0
LINE
8
BLACK
6
CONTINUOUS
10
0.1900075590551181
20
0.6443973622047244
11
0.1857532677165354
21
0.6465245275590551
0
LINE
8
BLACK
6
CONTINUOUS
10
0.1857532677165354
20
0.6465245275590551
11
0.1756801181102362
21
0.6490428346456693
0
LINE
8
BLACK
6
CONTINUOUS
10
0.1756801181102362
20
0.6490428346456693
11
0.1685861023622047
21
0.6490428346456693
0
LINE
8
BLACK
6
CONTINUOUS
10
0.1685861023622047
20
0.6490428346456693
11
0.1585129133858268
21
0.6465245275590551
0
LINE
8
BLACK
6
CONTINUOUS
10
0.1585129133858268
20
0.6465245275590551
11
0.1542586220472441
21
0.6443973622047244
0
LINE
8
BLACK
6
CONTINUOUS
10
0.1542586220472441
20
0.6443973622047244
11
0.1502344488188976
21
0.640373188976378
0
LINE
8
BLACK
6
CONTINUOUS
10
0.1502344488188976
20
0.640373188976378
11
0.1481331102362205
21
0.6340691732283464
0
LINE
8
BLACK
6
CONTINUOUS
10
0.1481331102362205
20
0.6340691732283464
11
0.1481331102362205
21
0.6303021653543307
0
LINE
8
BLACK
6
CONTINUOUS
10
0.1481331102362205
20
0.6303021653543307
11
0.1502344488188976
21
0.6239981496062992
0
LINE
8
BLACK
6
CONTINUOUS
10
0.1502344488188976
20
0.6239981496062992
11
0.1520900393700787
21
0.6221425984251968
0
LINE
8
BLACK
6
CONTINUOUS
10
0.1520900393700787
20
0.6221425984251968
11
0.1536429527559055
21
0.619452874015748
0
LINE
8
BLACK
6
CONTINUOUS
10
0.1536429527559055
20
0.619452874015748
11
0.1536429527559055
21
0.6163470472440945
0
LINE
8
BLACK
6
CONTINUOUS
10
0.1536429527559055
20
0.6163470472440945
11
0.1520900393700787
21
0.6136573228346457
0
LINE
8
BLACK
6
CONTINUOUS
10
0.1520900393700787
20
0.6136573228346457
11
0.1494003149606299
21
0.6121044094488188
0
LINE
8
BLACK
6
CONTINUOUS
10
0.1494003149606299
20
0.6121044094488188
11
0.1462944881889764
21
0.6121044094488188
0
LINE
8
BLACK
6
CONTINUOUS
10
0.1462944881889764
20
0.6121044094488188
11
0.1436047637795276
21
0.6136573228346457
0
LINE
8
BLACK
6
CONTINUOUS
10
0.1436047637795276
20
0.6136573228346457
11
0.1407475984251969
21
0.6165144881889764
0
LINE
8
BLACK
6
CONTINUOUS
10
0.1407475984251969
20
0.6165144881889764
11
0.1400579921259842
21
0.6177088582677165
0
LINE
8
BLACK
6
CONTINUOUS
10
0.1400579921259842
20
0.6177088582677165
11
0.1392981496062992
21
0.6188597637795276
0
LINE
8
BLACK
6
CONTINUOUS
10
0.1392981496062992
20
0.6188597637795276
11
0.1364410236220472
21
0.6274311811023622
0
LINE
8
BLACK
6
CONTINUOUS
10
0.1364410236220472
20
0.6274311811023622
11
0.1363831102362205
21
0.6283953937007873
0
LINE
8
BLACK
6
CONTINUOUS
10
0.1363831102362205
20
0.6283953937007873
11
0.1361331102362205
21
0.6293285433070867
0
LINE
8
BLACK
6
CONTINUOUS
10
0.1361331102362205
20
0.6293285433070867
11
0.1361331102362205
21
0.6350428346456692
0
LINE
8
BLACK
6
CONTINUOUS
10
0.1361331102362205
20
0.6350428346456692
11
0.1363831102362205
21
0.6359759448818898
0
LINE
8
BLACK
6
CONTINUOUS
10
0.1363831102362205
20
0.6359759448818898
11
0.1364410236220472
21
0.6369401968503937
0
LINE
8
BLACK
6
CONTINUOUS
10
0.1364410236220472
20
0.6369401968503937
11
0.1392981496062992
21
0.6455116141732283
0
LINE
8
BLACK
6
CONTINUOUS
10
0.1392981496062992
20
0.6455116141732283
11
0.1400579921259842
21
0.6466624803149607
0
LINE
8
BLACK
6
CONTINUOUS
10
0.1400579921259842
20
0.6466624803149607
11
0.1407475984251969
21
0.6478568897637795
0
LINE
8
BLACK
6
CONTINUOUS
10
0.1407475984251969
20
0.6478568897637795
11
0.1464618897637795
21
0.6535711811023622
0
LINE
8
BLACK
6
CONTINUOUS
10
0.1464618897637795
20
0.6535711811023622
11
0.1472984645669291
21
0.6540541732283465
0
LINE
8
BLACK
6
CONTINUOUS
10
0.1472984645669291
20
0.6540541732283465
11
0.1480212598425197
21
0.6546951181102362
0
LINE
8
BLACK
6
CONTINUOUS
10
0.1480212598425197
20
0.6546951181102362
11
0.1537355511811024
21
0.6575522440944882
0
LINE
8
BLACK
6
CONTINUOUS
10
0.1537355511811024
20
0.6575522440944882
11
0.1543844094488189
21
0.657685
0
LINE
8
BLACK
6
CONTINUOUS
10
0.1543844094488189
20
0.657685
11
0.1549635826771653
21
0.6580065354330709
0
LINE
8
BLACK
6
CONTINUOUS
10
0.1549635826771653
20
0.6580065354330709
11
0.1663921653543307
21
0.6608637007874015
0
LINE
8
BLACK
6
CONTINUOUS
10
0.1663921653543307
20
0.6608637007874015
11
0.1671323622047244
21
0.6608512204724409
0
LINE
8
BLACK
6
CONTINUOUS
10
0.1671323622047244
20
0.6608512204724409
11
0.1678474015748032
21
0.6610428346456693
0
LINE
8
BLACK
6
CONTINUOUS
10
0.1678474015748032
20
0.6610428346456693
11
0.1764188188976378
21
0.6610428346456693
0
LINE
8
BLACK
6
CONTINUOUS
10
0.1764188188976378
20
0.6610428346456693
11
0.1771338188976378
21
0.6608512204724409
0
LINE
8
BLACK
6
CONTINUOUS
10
0.8915438582677165
20
0.6729977165354331
11
0.8926566929133858
21
0.6713121653543307
0
LINE
8
BLACK
6
CONTINUOUS
10
0.8926566929133858
20
0.6713121653543307
11
0.8924257874015747
21
0.6693056299212599
0
LINE
8
BLACK
6
CONTINUOUS
10
0.8924257874015747
20
0.6693056299212599
11
0.8905510236220472
21
0.6655561023622047
0
LINE
8
BLACK
6
CONTINUOUS
10
0.8905510236220472
20
0.6655561023622047
11
0.8900250787401575
21
0.6648470078740157
0
LINE
8
BLACK
6
CONTINUOUS
10
0.8900250787401575
20
0.6648470078740157
11
0.8899979133858268
21
0.6647887007874016
0
LINE
8
BLACK
6
CONTINUOUS
10
0.8899979133858268
20
0.6647887007874016
11
0.8875395275590551
21
0.6623303149606299
0
LINE
8
BLACK
6
CONTINUOUS
10
0.8875395275590551
20
0.6623303149606299
11
0.9149535039370078
21
0.6623303149606299
0
LINE
8
BLACK
6
CONTINUOUS
10
0.9149535039370078
20
0.6623303149606299
11
0.9149535039370078
21
0.6706261417322834
0
LINE
8
BLACK
6
CONTINUOUS
10
0.9149535039370078
20
0.6706261417322834
11
0.9151315748031496
21
0.671636062992126
0
LINE
8
BLACK
6
CONTINUOUS
10
0.9151315748031496
20
0.671636062992126
11
0.9164298818897637
21
0.6731833070866141
0
LINE
8
BLACK
6
CONTINUOUS
10
0.9164298818897637
20
0.6731833070866141
11
0.9184190157480314
21
0.6735340551181103
0
LINE
8
BLACK
6
CONTINUOUS
10
0.9184190157480314
20
0.6735340551181103
11
0.920168188976378
21
0.6725241338582677
0
LINE
8
BLACK
6
CONTINUOUS
10
0.920168188976378
20
0.6725241338582677
11
0.9208590157480315
21
0.6706261417322834
0
LINE
8
BLACK
6
CONTINUOUS
10
0.9208590157480315
20
0.6706261417322834
11
0.9208590157480315
21
0.6481289763779527
0
LINE
8
BLACK
6
CONTINUOUS
10
0.9208590157480315
20
0.6481289763779527
11
0.9206809448818898
21
0.6471190551181102
0
LINE
8
BLACK
6
CONTINUOUS
10
0.9206809448818898
20
0.6471190551181102
11
0.9193826377952755
21
0.645571811023622
0
LINE
8
BLACK
6
CONTINUOUS
10
0.9193826377952755
20
0.645571811023622
11
0.9173935039370078
21
0.645221062992126
0
LINE
8
BLACK
6
CONTINUOUS
10
0.9173935039370078
20
0.645221062992126
11
0.9156443307086614
21
0.6462309842519685
0
LINE
8
BLACK
6
CONTINUOUS
10
0.9156443307086614
20
0.6462309842519685
11
0.9149535039370078
21
0.6481289763779527
0
LINE
8
BLACK
6
CONTINUOUS
10
0.9149535039370078
20
0.6481289763779527
11
0.9149535039370078
21
0.6564248031496063
0
LINE
8
BLACK
6
CONTINUOUS
10
0.9149535039370078
20
0.6564248031496063
11
0.8785361811023622
21
0.6564248031496063
0
LINE
8
BLACK
6
CONTINUOUS
10
0.8785361811023622
20
0.6564248031496063
11
0.8775262598425196
21
0.656602874015748
0
LINE
8
BLACK
6
CONTINUOUS
10
0.8775262598425196
20
0.656602874015748
11
0.8773961811023622
21
0.656711968503937
0
LINE
8
BLACK
6
CONTINUOUS
10
0.8773961811023622
20
0.656711968503937
11
0.8772274409448819
21
0.6567306692913386
0
LINE
8
BLACK
6
CONTINUOUS
10
0.8772274409448819
20
0.6567306692913386
11
0.8766355118110236
21
0.6573502755905511
0
LINE
8
BLACK
6
CONTINUOUS
10
0.8766355118110236
20
0.6573502755905511
11
0.8759790157480315
21
0.6579011811023622
0
LINE
8
BLACK
6
CONTINUOUS
10
0.8759790157480315
20
0.6579011811023622
11
0.8759495275590551
21
0.6580683858267716
0
LINE
8
BLACK
6
CONTINUOUS
10
0.8759495275590551
20
0.6580683858267716
11
0.8758322440944881
21
0.6581911811023622
0
LINE
8
BLACK
6
CONTINUOUS
10
0.8758322440944881
20
0.6581911811023622
11
0.8757770866141732
21
0.6590462992125984
0
LINE
8
BLACK
6
CONTINUOUS
10
0.8757770866141732
20
0.6590462992125984
11
0.8756282677165355
21
0.6598903149606299
0
LINE
8
BLACK
6
CONTINUOUS
10
0.8756282677165355
20
0.6598903149606299
11
0.8757131496062992
21
0.6600373622047244
0
LINE
8
BLACK
6
CONTINUOUS
10
0.8757131496062992
20
0.6600373622047244
11
0.8757022440944882
21
0.6602067716535432
0
LINE
8
BLACK
6
CONTINUOUS
10
0.8757022440944882
20
0.6602067716535432
11
0.87620968503937
21
0.6608973622047244
0
LINE
8
BLACK
6
CONTINUOUS
10
0.87620968503937
20
0.6608973622047244
11
0.8766381889763779
21
0.6616394881889763
0
LINE
8
BLACK
6
CONTINUOUS
10
0.8766381889763779
20
0.6616394881889763
11
0.8767976771653543
21
0.6616975196850393
0
LINE
8
BLACK
6
CONTINUOUS
10
0.8767976771653543
20
0.6616975196850393
11
0.8768982677165355
21
0.6618344094488189
0
LINE
8
BLACK
6
CONTINUOUS
10
0.8768982677165355
20
0.6618344094488189
11
0.8822792913385826
21
0.6654217322834646
0
LINE
8
BLACK
6
CONTINUOUS
10
0.8822792913385826
20
0.6654217322834646
11
0.8854832677165354
21
0.6686257086614174
0
LINE
8
BLACK
6
CONTINUOUS
10
0.8854832677165354
20
0.6686257086614174
11
0.8871437401574803
21
0.6719466535433071
0
LINE
8
BLACK
6
CONTINUOUS
10
0.8871437401574803
20
0.6719466535433071
11
0.8877546456692913
21
0.6727703149606299
0
LINE
8
BLACK
6
CONTINUOUS
10
0.8877546456692913
20
0.6727703149606299
11
0.8896078346456693
21
0.6735735826771654
0
LINE
8
BLACK
6
CONTINUOUS
10
0.8896078346456693
20
0.6735735826771654
11
0.8915438582677165
21
0.6729977165354331
0
LINE
8
BLACK
6
CONTINUOUS
10
1.1662445669291339
20
0.6936514566929134
11
1.1681193700787402
21
0.6917766929133858
0
LINE
8
BLACK
6
CONTINUOUS
10
1.1681193700787402
20
0.6917766929133858
11
1.1686257480314961
21
0.6910535039370078
0
LINE
8
BLACK
6
CONTINUOUS
10
1.1686257480314961
20
0.6910535039370078
11
1.1686725196850394
21
0.6910092519685039
0
LINE
8
BLACK
6
CONTINUOUS
10
1.1686725196850394
20
0.6910092519685039
11
1.1705472834645669
21
0.6872597244094488
0
LINE
8
BLACK
6
CONTINUOUS
10
1.1705472834645669
20
0.6872597244094488
11
1.1708396456692913
21
0.686276811023622
0
LINE
8
BLACK
6
CONTINUOUS
10
1.1708396456692913
20
0.686276811023622
11
1.1707986220472442
21
0.6861050787401575
0
LINE
8
BLACK
6
CONTINUOUS
10
1.1707986220472442
20
0.6861050787401575
11
1.1708590157480314
21
0.6859392125984252
0
LINE
8
BLACK
6
CONTINUOUS
10
1.1708590157480314
20
0.6859392125984252
11
1.1708590157480314
21
0.6765653937007874
0
LINE
8
BLACK
6
CONTINUOUS
10
1.1708590157480314
20
0.6765653937007874
11
1.1706809448818898
21
0.6755554724409448
0
LINE
8
BLACK
6
CONTINUOUS
10
1.1706809448818898
20
0.6755554724409448
11
1.1705674409448819
21
0.6754201968503937
0
LINE
8
BLACK
6
CONTINUOUS
10
1.1705674409448819
20
0.6754201968503937
11
1.1705472834645669
21
0.6752448818897637
0
LINE
8
BLACK
6
CONTINUOUS
10
1.1705472834645669
20
0.6752448818897637
11
1.1686725196850394
21
0.6714953543307086
0
LINE
8
BLACK
6
CONTINUOUS
10
1.1686725196850394
20
0.6714953543307086
11
1.1681465354330709
21
0.670786220472441
0
LINE
8
BLACK
6
CONTINUOUS
10
1.1681465354330709
20
0.670786220472441
11
1.1681193700787402
21
0.6707279133858267
0
LINE
8
BLACK
6
CONTINUOUS
10
1.1681193700787402
20
0.6707279133858267
11
1.1662445669291339
21
0.6688531496062992
0
LINE
8
BLACK
6
CONTINUOUS
10
1.1662445669291339
20
0.6688531496062992
11
1.165521496062992
21
0.6683468503937008
0
LINE
8
BLACK
6
CONTINUOUS
10
1.165521496062992
20
0.6683468503937008
11
1.1654772047244095
21
0.6683000787401575
0
LINE
8
BLACK
6
CONTINUOUS
10
1.1654772047244095
20
0.6683000787401575
11
1.1617276771653544
21
0.66642531496063
0
LINE
8
BLACK
6
CONTINUOUS
10
1.1617276771653544
20
0.66642531496063
11
1.1607447244094489
21
0.6661329527559054
0
LINE
8
BLACK
6
CONTINUOUS
10
1.1607447244094489
20
0.6661329527559054
11
1.1605730314960629
21
0.666173937007874
0
LINE
8
BLACK
6
CONTINUOUS
10
1.1605730314960629
20
0.666173937007874
11
1.1604071653543306
21
0.6661135826771654
0
LINE
8
BLACK
6
CONTINUOUS
10
1.1604071653543306
20
0.6661135826771654
11
1.1510333464566929
21
0.6661135826771654
0
LINE
8
BLACK
6
CONTINUOUS
10
1.1510333464566929
20
0.6661135826771654
11
1.1500234251968504
21
0.6662916535433071
0
LINE
8
BLACK
6
CONTINUOUS
10
1.1500234251968504
20
0.6662916535433071
11
1.1498881496062991
21
0.6664051181102362
0
LINE
8
BLACK
6
CONTINUOUS
10
1.1498881496062991
20
0.6664051181102362
11
1.1497128346456693
21
0.66642531496063
0
LINE
8
BLACK
6
CONTINUOUS
10
1.1497128346456693
20
0.66642531496063
11
1.1459633070866142
21
0.6683000787401575
0
LINE
8
BLACK
6
CONTINUOUS
10
1.1459633070866142
20
0.6683000787401575
11
1.1452542125984251
21
0.6688259448818897
0
LINE
8
BLACK
6
CONTINUOUS
10
1.1452542125984251
20
0.6688259448818897
11
1.1451959055118111
21
0.6688531889763779
0
LINE
8
BLACK
6
CONTINUOUS
10
1.1451959055118111
20
0.6688531889763779
11
1.1433211417322835
21
0.6707279527559055
0
LINE
8
BLACK
6
CONTINUOUS
10
1.1433211417322835
20
0.6707279527559055
11
1.1428148425196849
21
0.6714510236220472
0
LINE
8
BLACK
6
CONTINUOUS
10
1.1428148425196849
20
0.6714510236220472
11
1.1427680314960629
21
0.6714953543307086
0
LINE
8
BLACK
6
CONTINUOUS
10
1.1427680314960629
20
0.6714953543307086
11
1.1408932677165353
21
0.6752448818897637
0
LINE
8
BLACK
6
CONTINUOUS
10
1.1408932677165353
20
0.6752448818897637
11
1.1406009055118109
21
0.6762278346456693
0
LINE
8
BLACK
6
CONTINUOUS
10
1.1406009055118109
20
0.6762278346456693
11
1.1406418897637796
21
0.6763994881889763
0
LINE
8
BLACK
6
CONTINUOUS
10
1.1406418897637796
20
0.6763994881889763
11
1.1405815354330708
21
0.6765653937007874
0
LINE
8
BLACK
6
CONTINUOUS
10
1.1405815354330708
20
0.6765653937007874
11
1.1405815354330708
21
0.6859392125984252
0
LINE
8
BLACK
6
CONTINUOUS
10
1.1405815354330708
20
0.6859392125984252
11
1.1407596062992125
21
0.6869491338582677
0
LINE
8
BLACK
6
CONTINUOUS
10
1.1407596062992125
20
0.6869491338582677
11
1.1408730708661416
21
0.6870843700787401
0
LINE
8
BLACK
6
CONTINUOUS
10
1.1408730708661416
20
0.6870843700787401
11
1.1408932677165353
21
0.6872597244094488
0
LINE
8
BLACK
6
CONTINUOUS
10
1.1408932677165353
20
0.6872597244094488
11
1.1412601968503937
21
0.6879936220472441
0
LINE
8
BLACK
6
CONTINUOUS
10
1.1412601968503937
20
0.6879936220472441
11
1.131488937007874
21
0.6870164960629921
0
LINE
8
BLACK
6
CONTINUOUS
10
1.131488937007874
20
0.6870164960629921
11
1.131488937007874
21
0.6709411023622047
0
LINE
8
BLACK
6
CONTINUOUS
10
1.131488937007874
20
0.6709411023622047
11
1.1313108661417322
21
0.6699311811023622
0
LINE
8
BLACK
6
CONTINUOUS
10
1.1313108661417322
20
0.6699311811023622
11
1.130012559055118
21
0.668383937007874
0
LINE
8
BLACK
6
CONTINUOUS
10
1.130012559055118
20
0.668383937007874
11
1.1280234251968504
21
0.668033188976378
0
LINE
8
BLACK
6
CONTINUOUS
10
1.1280234251968504
20
0.668033188976378
11
1.1262742519685038
21
0.6690431102362204
0
LINE
8
BLACK
6
CONTINUOUS
10
1.1262742519685038
20
0.6690431102362204
11
1.1255834251968504
21
0.6709411023622047
0
LINE
8
BLACK
6
CONTINUOUS
10
1.1255834251968504
20
0.6709411023622047
11
1.1255834251968504
21
0.6896887401574803
0
LINE
8
BLACK
6
CONTINUOUS
10
1.1255834251968504
20
0.6896887401574803
11
1.1256105118110236
21
0.689842559055118
0
LINE
8
BLACK
6
CONTINUOUS
10
1.1256105118110236
20
0.689842559055118
11
1.1255916929133858
21
0.6899096062992126
0
LINE
8
BLACK
6
CONTINUOUS
10
1.1255916929133858
20
0.6899096062992126
11
1.1256420078740157
21
0.6900211417322835
0
LINE
8
BLACK
6
CONTINUOUS
10
1.1256420078740157
20
0.6900211417322835
11
1.125761496062992
21
0.6906986614173228
0
LINE
8
BLACK
6
CONTINUOUS
10
1.125761496062992
20
0.6906986614173228
11
1.1261645669291338
21
0.6911790157480315
0
LINE
8
BLACK
6
CONTINUOUS
10
1.1261645669291338
20
0.6911790157480315
11
1.1264225196850393
21
0.691750590551181
0
LINE
8
BLACK
6
CONTINUOUS
10
1.1264225196850393
20
0.691750590551181
11
1.1267944488188977
21
0.6919296456692913
0
LINE
8
BLACK
6
CONTINUOUS
10
1.1267944488188977
20
0.6919296456692913
11
1.1270598031496062
21
0.692245905511811
0
LINE
8
BLACK
6
CONTINUOUS
10
1.1270598031496062
20
0.692245905511811
11
1.1276773228346457
21
0.6923547637795275
0
LINE
8
BLACK
6
CONTINUOUS
10
1.1276773228346457
20
0.6923547637795275
11
1.1282423622047244
21
0.6926268503937008
0
LINE
8
BLACK
6
CONTINUOUS
10
1.1282423622047244
20
0.6926268503937008
11
1.14699
21
0.6945016141732283
0
LINE
8
BLACK
6
CONTINUOUS
10
1.14699
20
0.6945016141732283
11
1.1480126377952755
21
0.6944249212598425
0
LINE
8
BLACK
6
CONTINUOUS
10
1.1480126377952755
20
0.6944249212598425
11
1.1480287007874015
21
0.694413937007874
0
LINE
8
BLACK
6
CONTINUOUS
10
1.1480287007874015
20
0.694413937007874
11
1.148048031496063
21
0.6944156299212598
0
LINE
8
BLACK
6
CONTINUOUS
10
1.148048031496063
20
0.6944156299212598
11
1.1488597637795275
21
0.6938472440944882
0
LINE
8
BLACK
6
CONTINUOUS
10
1.1488597637795275
20
0.6938472440944882
11
1.1496813779527559
21
0.6932870078740158
0
LINE
8
BLACK
6
CONTINUOUS
10
1.1496813779527559
20
0.6932870078740158
11
1.1496866141732283
21
0.6932682677165354
0
LINE
8
BLACK
6
CONTINUOUS
10
1.1496866141732283
20
0.6932682677165354
11
1.1497025984251967
21
0.6932571259842519
0
LINE
8
BLACK
6
CONTINUOUS
10
1.1497025984251967
20
0.6932571259842519
11
1.1499594881889763
21
0.692298188976378
0
LINE
8
BLACK
6
CONTINUOUS
10
1.1499594881889763
20
0.692298188976378
11
1.1502283070866142
21
0.6913426377952756
0
LINE
8
BLACK
6
CONTINUOUS
10
1.1502283070866142
20
0.6913426377952756
11
1.1502202755905511
21
0.6913248818897637
0
LINE
8
BLACK
6
CONTINUOUS
10
1.1502202755905511
20
0.6913248818897637
11
1.1502253149606299
21
0.6913061417322834
0
LINE
8
BLACK
6
CONTINUOUS
10
1.1502253149606299
20
0.6913061417322834
11
1.1498063779527559
21
0.6904077559055118
0
LINE
8
BLACK
6
CONTINUOUS
10
1.1498063779527559
20
0.6904077559055118
11
1.1493974803149607
21
0.6895016535433071
0
LINE
8
BLACK
6
CONTINUOUS
10
1.1493974803149607
20
0.6895016535433071
11
1.1493799212598426
21
0.6894931889763779
0
LINE
8
BLACK
6
CONTINUOUS
10
1.1493799212598426
20
0.6894931889763779
11
1.1493717322834645
21
0.6894755905511811
0
LINE
8
BLACK
6
CONTINUOUS
10
1.1493717322834645
20
0.6894755905511811
11
1.1478357874015748
21
0.6879396456692913
0
LINE
8
BLACK
6
CONTINUOUS
10
1.1478357874015748
20
0.6879396456692913
11
1.1464870472440944
21
0.6852421653543307
0
LINE
8
BLACK
6
CONTINUOUS
10
1.1464870472440944
20
0.6852421653543307
11
1.1464870472440944
21
0.6772624409448819
0
LINE
8
BLACK
6
CONTINUOUS
10
1.1464870472440944
20
0.6772624409448819
11
1.1478357874015748
21
0.6745649606299212
0
LINE
8
BLACK
6
CONTINUOUS
10
1.1478357874015748
20
0.6745649606299212
11
1.1490329133858268
21
0.6733678346456693
0
LINE
8
BLACK
6
CONTINUOUS
10
1.1490329133858268
20
0.6733678346456693
11
1.1517303937007874
21
0.672019094488189
0
LINE
8
BLACK
6
CONTINUOUS
10
1.1517303937007874
20
0.672019094488189
11
1.1597101181102363
21
0.672019094488189
0
LINE
8
BLACK
6
CONTINUOUS
10
1.1597101181102363
20
0.672019094488189
11
1.1624075984251969
21
0.6733678346456693
0
LINE
8
BLACK
6
CONTINUOUS
10
1.1624075984251969
20
0.6733678346456693
11
1.1636047637795275
21
0.6745649606299212
0
LINE
8
BLACK
6
CONTINUOUS
10
1.1636047637795275
20
0.6745649606299212
11
1.1649535039370078
21
0.6772624409448819
0
LINE
8
BLACK
6
CONTINUOUS
10
1.1649535039370078
20
0.6772624409448819
11
1.1649535039370078
21
0.6852421653543307
0
LINE
8
BLACK
6
CONTINUOUS
10
1.1649535039370078
20
0.6852421653543307
11
1.1636047637795275
21
0.6879396062992126
0
LINE
8
BLACK
6
CONTINUOUS
10
1.1636047637795275
20
0.6879396062992126
11
1.1620688188976378
21
0.6894755511811024
0
LINE
8
BLACK
6
CONTINUOUS
10
1.1620688188976378
20
0.6894755511811024
11
1.1614805905511811
21
0.6903155905511811
0
LINE
8
BLACK
6
CONTINUOUS
10
1.1614805905511811
20
0.6903155905511811
11
1.161304527559055
21
0.692327716535433
0
LINE
8
BLACK
6
CONTINUOUS
10
1.161304527559055
20
0.692327716535433
11
1.1624630314960629
21
0.6939822834645669
0
LINE
8
BLACK
6
CONTINUOUS
10
1.1624630314960629
20
0.6939822834645669
11
1.1644140157480314
21
0.694505
0
LINE
8
BLACK
6
CONTINUOUS
10
1.1644140157480314
20
0.694505
11
1.1662445669291339
21
0.6936514566929134
0
LINE
8
BLACK
6
CONTINUOUS
10
0.9053632283464567
20
0.7147213779527559
11
0.9054990157480315
21
0.7147355905511811
0
LINE
8
BLACK
6
CONTINUOUS
10
0.9054990157480315
20
0.7147355905511811
11
0.9129980708661417
21
0.7128608267716535
0
LINE
8
BLACK
6
CONTINUOUS
10
0.9129980708661417
20
0.7128608267716535
11
0.9139346456692913
21
0.7124431102362204
0
LINE
8
BLACK
6
CONTINUOUS
10
0.9139346456692913
20
0.7124431102362204
11
0.914105748031496
21
0.7122072440944882
0
LINE
8
BLACK
6
CONTINUOUS
10
0.914105748031496
20
0.7122072440944882
11
0.914369842519685
21
0.7120841338582677
0
LINE
8
BLACK
6
CONTINUOUS
10
0.914369842519685
20
0.7120841338582677
11
0.9181194094488189
21
0.7083346062992126
0
LINE
8
BLACK
6
CONTINUOUS
10
0.9181194094488189
20
0.7083346062992126
11
0.9186257874015747
21
0.7076114173228346
0
LINE
8
BLACK
6
CONTINUOUS
10
0.9186257874015747
20
0.7076114173228346
11
0.9186725196850394
21
0.7075672047244095
0
LINE
8
BLACK
6
CONTINUOUS
10
0.9186725196850394
20
0.7075672047244095
11
0.9205472834645669
21
0.7038176771653543
0
LINE
8
BLACK
6
CONTINUOUS
10
0.9205472834645669
20
0.7038176771653543
11
0.9208396456692913
21
0.7028347637795276
0
LINE
8
BLACK
6
CONTINUOUS
10
0.9208396456692913
20
0.7028347637795276
11
0.9207986220472441
21
0.702663031496063
0
LINE
8
BLACK
6
CONTINUOUS
10
0.9207986220472441
20
0.702663031496063
11
0.9208590157480315
21
0.7024971653543307
0
LINE
8
BLACK
6
CONTINUOUS
10
0.9208590157480315
20
0.7024971653543307
11
0.9208590157480315
21
0.6949981102362205
0
LINE
8
BLACK
6
CONTINUOUS
10
0.9208590157480315
20
0.6949981102362205
11
0.9206809448818898
21
0.6939881889763779
0
LINE
8
BLACK
6
CONTINUOUS
10
0.9206809448818898
20
0.6939881889763779
11
0.9205674409448819
21
0.6938529133858268
0
LINE
8
BLACK
6
CONTINUOUS
10
0.9205674409448819
20
0.6938529133858268
11
0.9205472834645669
21
0.6936775984251968
0
LINE
8
BLACK
6
CONTINUOUS
10
0.9205472834645669
20
0.6936775984251968
11
0.9196242913385827
21
0.6918316141732284
0
LINE
8
BLACK
6
CONTINUOUS
10
0.9196242913385827
20
0.6918316141732284
11
0.921868937007874
21
0.689586968503937
0
LINE
8
BLACK
6
CONTINUOUS
10
0.921868937007874
20
0.689586968503937
11
0.9223753149606299
21
0.6888637795275591
0
LINE
8
BLACK
6
CONTINUOUS
10
0.9223753149606299
20
0.6888637795275591
11
0.9224220472440945
21
0.6888195669291338
0
LINE
8
BLACK
6
CONTINUOUS
10
0.9224220472440945
20
0.6888195669291338
11
0.924296811023622
21
0.6850700393700787
0
LINE
8
BLACK
6
CONTINUOUS
10
0.924296811023622
20
0.6850700393700787
11
0.9245891732283464
21
0.6840871259842519
0
LINE
8
BLACK
6
CONTINUOUS
10
0.9245891732283464
20
0.6840871259842519
11
0.9241198818897638
21
0.6821225984251968
0
LINE
8
BLACK
6
CONTINUOUS
10
0.9241198818897638
20
0.6821225984251968
11
0.9224975984251969
21
0.6809192913385826
0
LINE
8
BLACK
6
CONTINUOUS
10
0.9224975984251969
20
0.6809192913385826
11
0.9204814566929134
21
0.6810403543307086
0
LINE
8
BLACK
6
CONTINUOUS
10
0.9204814566929134
20
0.6810403543307086
11
0.9190147637795275
21
0.6824290157480315
0
LINE
8
BLACK
6
CONTINUOUS
10
0.9190147637795275
20
0.6824290157480315
11
0.9173542913385827
21
0.6857499606299212
0
LINE
8
BLACK
6
CONTINUOUS
10
0.9173542913385827
20
0.6857499606299212
11
0.9160314566929134
21
0.6870727559055118
0
LINE
8
BLACK
6
CONTINUOUS
10
0.9160314566929134
20
0.6870727559055118
11
0.914369842519685
21
0.6854111417322835
0
LINE
8
BLACK
6
CONTINUOUS
10
0.914369842519685
20
0.6854111417322835
11
0.9135298031496063
21
0.6848229133858268
0
LINE
8
BLACK
6
CONTINUOUS
10
0.9135298031496063
20
0.6848229133858268
11
0.9132394881889764
21
0.6847975196850393
0
LINE
8
BLACK
6
CONTINUOUS
10
0.9132394881889764
20
0.6847975196850393
11
0.9129980708661417
21
0.6846344488188976
0
LINE
8
BLACK
6
CONTINUOUS
10
0.9129980708661417
20
0.6846344488188976
11
0.9054990157480315
21
0.68275968503937
0
LINE
8
BLACK
6
CONTINUOUS
10
0.9054990157480315
20
0.68275968503937
11
0.9049111023622047
21
0.6827181889763779
0
LINE
8
BLACK
6
CONTINUOUS
10
0.9049111023622047
20
0.6827181889763779
11
0.904782874015748
21
0.6826715354330708
0
LINE
8
BLACK
6
CONTINUOUS
10
0.904782874015748
20
0.6826715354330708
11
0.8916595275590551
21
0.6826715354330708
0
LINE
8
BLACK
6
CONTINUOUS
10
0.8916595275590551
20
0.6826715354330708
11
0.8910791338582676
21
0.6827738582677165
0
LINE
8
BLACK
6
CONTINUOUS
10
0.8910791338582676
20
0.6827738582677165
11
0.8909433858267717
21
0.68275968503937
0
LINE
8
BLACK
6
CONTINUOUS
10
0.8909433858267717
20
0.68275968503937
11
0.8834443307086614
21
0.6846344488188976
0
LINE
8
BLACK
6
CONTINUOUS
10
0.8834443307086614
20
0.6846344488188976
11
0.8825077559055118
21
0.6850521653543307
0
LINE
8
BLACK
6
CONTINUOUS
10
0.8825077559055118
20
0.6850521653543307
11
0.8823366141732283
21
0.6852879921259842
0
LINE
8
BLACK
6
CONTINUOUS
10
0.8823366141732283
20
0.6852879921259842
11
0.8820725590551181
21
0.6854111417322835
0
LINE
8
BLACK
6
CONTINUOUS
10
0.8820725590551181
20
0.6854111417322835
11
0.8783230314960629
21
0.6891606692913386
0
LINE
8
BLACK
6
CONTINUOUS
10
0.8783230314960629
20
0.6891606692913386
11
0.8778167322834646
21
0.6898837401574803
0
LINE
8
BLACK
6
CONTINUOUS
10
0.8778167322834646
20
0.6898837401574803
11
0.8777699212598425
21
0.6899280708661417
0
LINE
8
BLACK
6
CONTINUOUS
10
0.8777699212598425
20
0.6899280708661417
11
0.875895157480315
21
0.6936775984251968
0
LINE
8
BLACK
6
CONTINUOUS
10
0.875895157480315
20
0.6936775984251968
11
0.8756027952755905
21
0.6946605511811024
0
LINE
8
BLACK
6
CONTINUOUS
10
0.8756027952755905
20
0.6946605511811024
11
0.875643779527559
21
0.6948322047244094
0
LINE
8
BLACK
6
CONTINUOUS
10
0.875643779527559
20
0.6948322047244094
11
0.8755834251968504
21
0.6949981102362205
0
LINE
8
BLACK
6
CONTINUOUS
10
0.8755834251968504
20
0.6949981102362205
11
0.8755834251968504
21
0.7024971653543307
0
LINE
8
BLACK
6
CONTINUOUS
10
0.8755834251968504
20
0.7024971653543307
11
0.8757614960629921
21
0.7035070866141732
0
LINE
8
BLACK
6
CONTINUOUS
10
0.8757614960629921
20
0.7035070866141732
11
0.8758749606299212
21
0.7036423228346457
0
LINE
8
BLACK
6
CONTINUOUS
10
0.8758749606299212
20
0.7036423228346457
11
0.875895157480315
21
0.7038176771653543
0
LINE
8
BLACK
6
CONTINUOUS
10
0.875895157480315
20
0.7038176771653543
11
0.8777699212598425
21
0.7075672047244095
0
LINE
8
BLACK
6
CONTINUOUS
10
0.8777699212598425
20
0.7075672047244095
11
0.8782958267716535
21
0.7082762598425196
0
LINE
8
BLACK
6
CONTINUOUS
10
0.8782958267716535
20
0.7082762598425196
11
0.8783230314960629
21
0.7083346062992126
0
LINE
8
BLACK
6
CONTINUOUS
10
0.8783230314960629
20
0.7083346062992126
11
0.8820725590551181
21
0.7120841338582677
0
LINE
8
BLACK
6
CONTINUOUS
10
0.8820725590551181
20
0.7120841338582677
11
0.8829125984251969
21
0.7126723622047244
0
LINE
8
BLACK
6
CONTINUOUS
10
0.8829125984251969
20
0.7126723622047244
11
0.883202874015748
21
0.7126977559055118
0
LINE
8
BLACK
6
CONTINUOUS
10
0.883202874015748
20
0.7126977559055118
11
0.8834443307086614
21
0.7128608267716535
0
LINE
8
BLACK
6
CONTINUOUS
10
0.8834443307086614
20
0.7128608267716535
11
0.8909433858267717
21
0.7147355905511811
0
LINE
8
BLACK
6
CONTINUOUS
10
0.8909433858267717
20
0.7147355905511811
11
0.8915312598425197
21
0.7147770472440945
0
LINE
8
BLACK
6
CONTINUOUS
10
0.8915312598425197
20
0.7147770472440945
11
0.8916595275590551
21
0.7148237401574803
0
LINE
8
BLACK
6
CONTINUOUS
10
0.8916595275590551
20
0.7148237401574803
11
0.904782874015748
21
0.7148237401574803
0
LINE
8
BLACK
6
CONTINUOUS
10
0.904782874015748
20
0.7148237401574803
11
0.9053632283464567
21
0.7147213779527559
0
LINE
8
BLACK
6
CONTINUOUS
10
0.8856700393700787
20
0.7073299606299213
11
0.8828376771653543
21
0.7044975984251969
0
LINE
8
BLACK
6
CONTINUOUS
10
0.8828376771653543
20
0.7044975984251969
11
0.881488937007874
21
0.7018001181102362
0
LINE
8
BLACK
6
CONTINUOUS
10
0.881488937007874
20
0.7018001181102362
11
0.881488937007874
21
0.695695157480315
0
LINE
8
BLACK
6
CONTINUOUS
10
0.881488937007874
20
0.695695157480315
11
0.8828376771653543
21
0.6929976771653543
0
LINE
8
BLACK
6
CONTINUOUS
10
0.8828376771653543
20
0.6929976771653543
11
0.8856700393700787
21
0.6901652755905512
0
LINE
8
BLACK
6
CONTINUOUS
10
0.8856700393700787
20
0.6901652755905512
11
0.8920230708661417
21
0.6885770472440945
0
LINE
8
BLACK
6
CONTINUOUS
10
0.8920230708661417
20
0.6885770472440945
11
0.9044193307086614
21
0.6885770472440945
0
LINE
8
BLACK
6
CONTINUOUS
10
0.9044193307086614
20
0.6885770472440945
11
0.9107723228346456
21
0.6901652755905512
0
LINE
8
BLACK
6
CONTINUOUS
10
0.9107723228346456
20
0.6901652755905512
11
0.9118556299212598
21
0.6912485826771654
0
LINE
8
BLACK
6
CONTINUOUS
10
0.9118556299212598
20
0.6912485826771654
11
0.9083192519685039
21
0.6947849606299212
0
LINE
8
BLACK
6
CONTINUOUS
10
0.9083192519685039
20
0.6947849606299212
11
0.9078129527559055
21
0.695508031496063
0
LINE
8
BLACK
6
CONTINUOUS
10
0.9078129527559055
20
0.695508031496063
11
0.9077661417322834
21
0.6955523622047244
0
LINE
8
BLACK
6
CONTINUOUS
10
0.9077661417322834
20
0.6955523622047244
11
0.9058913779527559
21
0.6993018897637795
0
LINE
8
BLACK
6
CONTINUOUS
10
0.9058913779527559
20
0.6993018897637795
11
0.9055990157480315
21
0.700284842519685
0
LINE
8
BLACK
6
CONTINUOUS
10
0.9055990157480315
20
0.700284842519685
11
0.90564
21
0.7004564960629921
0
LINE
8
BLACK
6
CONTINUOUS
10
0.90564
20
0.7004564960629921
11
0.9055796456692913
21
0.7006224015748032
0
LINE
8
BLACK
6
CONTINUOUS
10
0.9055796456692913
20
0.7006224015748032
11
0.9055796456692913
21
0.7043719291338583
0
LINE
8
BLACK
6
CONTINUOUS
10
0.9055796456692913
20
0.7043719291338583
11
0.905757716535433
21
0.7053818503937008
0
LINE
8
BLACK
6
CONTINUOUS
10
0.905757716535433
20
0.7053818503937008
11
0.9070560236220472
21
0.706929094488189
0
LINE
8
BLACK
6
CONTINUOUS
10
0.9070560236220472
20
0.706929094488189
11
0.9090451574803149
21
0.707279842519685
0
LINE
8
BLACK
6
CONTINUOUS
10
0.9090451574803149
20
0.707279842519685
11
0.9107943307086614
21
0.7062699212598426
0
LINE
8
BLACK
6
CONTINUOUS
10
0.9107943307086614
20
0.7062699212598426
11
0.9114851574803149
21
0.7043719291338583
0
LINE
8
BLACK
6
CONTINUOUS
10
0.9114851574803149
20
0.7043719291338583
11
0.9114851574803149
21
0.7013194488188976
0
LINE
8
BLACK
6
CONTINUOUS
10
0.9114851574803149
20
0.7013194488188976
11
0.9128338582677166
21
0.698621968503937
0
LINE
8
BLACK
6
CONTINUOUS
10
0.9128338582677166
20
0.698621968503937
11
0.9149535039370078
21
0.6965023622047244
0
LINE
8
BLACK
6
CONTINUOUS
10
0.9149535039370078
20
0.6965023622047244
11
0.9149535039370078
21
0.7018001181102362
0
LINE
8
BLACK
6
CONTINUOUS
10
0.9149535039370078
20
0.7018001181102362
11
0.9136047637795275
21
0.7044975590551181
0
LINE
8
BLACK
6
CONTINUOUS
10
0.9136047637795275
20
0.7044975590551181
11
0.9107723228346456
21
0.7073299606299213
0
LINE
8
BLACK
6
CONTINUOUS
10
0.9107723228346456
20
0.7073299606299213
11
0.9044193307086614
21
0.7089182283464567
0
LINE
8
BLACK
6
CONTINUOUS
10
0.9044193307086614
20
0.7089182283464567
11
0.8920230708661417
21
0.7089182283464567
0
LINE
8
BLACK
6
CONTINUOUS
10
0.8920230708661417
20
0.7089182283464567
11
0.8856700393700787
21
0.7073299606299213
0
LINE
8
BLACK
6
CONTINUOUS
10
0.6498986614173228
20
0.7014734645669292
11
0.6505905511811023
21
0.6998031496062992
0
LINE
8
BLACK
6
CONTINUOUS
10
0.6505905511811023
20
0.6998031496062992
11
0.6498986614173228
21
0.6981328346456692
0
LINE
8
BLACK
6
CONTINUOUS
10
0.6498986614173228
20
0.6981328346456692
11
0.6482283464566929
21
0.6974409448818898
0
LINE
8
BLACK
6
CONTINUOUS
10
0.6482283464566929
20
0.6974409448818898
11
0.6072834645669292
21
0.6974409448818898
0
LINE
8
BLACK
6
CONTINUOUS
10
0.6072834645669292
20
0.6974409448818898
11
0.6072834645669292
21
0.6891732283464567
0
LINE
8
BLACK
6
CONTINUOUS
10
0.6072834645669292
20
0.6891732283464567
11
0.6065915748031496
21
0.6875029133858268
0
LINE
8
BLACK
6
CONTINUOUS
10
0.6065915748031496
20
0.6875029133858268
11
0.6049212598425197
21
0.6868110236220473
0
LINE
8
BLACK
6
CONTINUOUS
10
0.6049212598425197
20
0.6868110236220473
11
0.5458661417322834
21
0.6868110236220473
0
LINE
8
BLACK
6
CONTINUOUS
10
0.5458661417322834
20
0.6868110236220473
11
0.5441958267716536
21
0.6875029133858268
0
LINE
8
BLACK
6
CONTINUOUS
10
0.5441958267716536
20
0.6875029133858268
11
0.543503937007874
21
0.6891732283464567
0
LINE
8
BLACK
6
CONTINUOUS
10
0.543503937007874
20
0.6891732283464567
11
0.5441958267716536
21
0.6908435433070866
0
LINE
8
BLACK
6
CONTINUOUS
10
0.5441958267716536
20
0.6908435433070866
11
0.5458661417322834
21
0.6915354330708662
0
LINE
8
BLACK
6
CONTINUOUS
10
0.5458661417322834
20
0.6915354330708662
11
0.6025590551181103
21
0.6915354330708662
0
LINE
8
BLACK
6
CONTINUOUS
10
0.6025590551181103
20
0.6915354330708662
11
0.6025590551181103
21
0.6998031496062992
0
LINE
8
BLACK
6
CONTINUOUS
10
0.6025590551181103
20
0.6998031496062992
11
0.6032509448818898
21
0.7014734645669292
0
LINE
8
BLACK
6
CONTINUOUS
10
0.6032509448818898
20
0.7014734645669292
11
0.6049212598425197
21
0.7021653543307086
0
LINE
8
BLACK
6
CONTINUOUS
10
0.6049212598425197
20
0.7021653543307086
11
0.6482283464566929
21
0.7021653543307086
0
LINE
8
BLACK
6
CONTINUOUS
10
0.6482283464566929
20
0.7021653543307086
11
0.6498986614173228
21
0.7014734645669292
0
LINE
8
BLACK
6
CONTINUOUS
10
1.1689161811023623
20
0.7318335039370079
11
1.1704634251968504
21
0.7305351968503937
0
LINE
8
BLACK
6
CONTINUOUS
10
1.1704634251968504
20
0.7305351968503937
11
1.1708141732283464
21
0.728546062992126
0
LINE
8
BLACK
6
CONTINUOUS
10
1.1708141732283464
20
0.728546062992126
11
1.1698042519685039
21
0.7267968897637795
0
LINE
8
BLACK
6
CONTINUOUS
10
1.1698042519685039
20
0.7267968897637795
11
1.1679062598425196
21
0.726106062992126
0
LINE
8
BLACK
6
CONTINUOUS
10
1.1679062598425196
20
0.726106062992126
11
1.1521113385826771
21
0.726106062992126
0
LINE
8
BLACK
6
CONTINUOUS
10
1.1521113385826771
20
0.726106062992126
11
1.1521113385826771
21
0.7212223622047244
0
LINE
8
BLACK
6
CONTINUOUS
10
1.1521113385826771
20
0.7212223622047244
11
1.1695995669291339
21
0.7089806299212599
0
LINE
8
BLACK
6
CONTINUOUS
10
1.1695995669291339
20
0.7089806299212599
11
1.1703248031496063
21
0.708255590551181
0
LINE
8
BLACK
6
CONTINUOUS
10
1.1703248031496063
20
0.708255590551181
11
1.1708478346456692
21
0.7063047244094488
0
LINE
8
BLACK
6
CONTINUOUS
10
1.1708478346456692
20
0.7063047244094488
11
1.1699944881889763
21
0.7044740157480315
0
LINE
8
BLACK
6
CONTINUOUS
10
1.1699944881889763
20
0.7044740157480315
11
1.1681640157480315
21
0.7036201968503937
0
LINE
8
BLACK
6
CONTINUOUS
10
1.1681640157480315
20
0.7036201968503937
11
1.1662129921259843
21
0.7041426377952755
0
LINE
8
BLACK
6
CONTINUOUS
10
1.1662129921259843
20
0.7041426377952755
11
1.1521039370078741
21
0.714018937007874
0
LINE
8
BLACK
6
CONTINUOUS
10
1.1521039370078741
20
0.714018937007874
11
1.1519332677165355
21
0.7130507874015748
0
LINE
8
BLACK
6
CONTINUOUS
10
1.1519332677165355
20
0.7130507874015748
11
1.1518197637795276
21
0.7129155118110236
0
LINE
8
BLACK
6
CONTINUOUS
10
1.1518197637795276
20
0.7129155118110236
11
1.1517996062992126
21
0.7127401968503937
0
LINE
8
BLACK
6
CONTINUOUS
10
1.1517996062992126
20
0.7127401968503937
11
1.1499248425196851
21
0.7089906692913386
0
LINE
8
BLACK
6
CONTINUOUS
10
1.1499248425196851
20
0.7089906692913386
11
1.1493989370078741
21
0.7082815748031496
0
LINE
8
BLACK
6
CONTINUOUS
10
1.1493989370078741
20
0.7082815748031496
11
1.1493717322834645
21
0.7082232677165354
0
LINE
8
BLACK
6
CONTINUOUS
10
1.1493717322834645
20
0.7082232677165354
11
1.1474969685039369
21
0.7063485039370079
0
LINE
8
BLACK
6
CONTINUOUS
10
1.1474969685039369
20
0.7063485039370079
11
1.1467738582677165
21
0.7058422047244094
0
LINE
8
BLACK
6
CONTINUOUS
10
1.1467738582677165
20
0.7058422047244094
11
1.1467295669291337
21
0.7057953937007874
0
LINE
8
BLACK
6
CONTINUOUS
10
1.1467295669291337
20
0.7057953937007874
11
1.1429800393700786
21
0.7039206299212598
0
LINE
8
BLACK
6
CONTINUOUS
10
1.1429800393700786
20
0.7039206299212598
11
1.1419970866141731
21
0.7036282677165354
0
LINE
8
BLACK
6
CONTINUOUS
10
1.1419970866141731
20
0.7036282677165354
11
1.1418253937007874
21
0.7036692519685039
0
LINE
8
BLACK
6
CONTINUOUS
10
1.1418253937007874
20
0.7036692519685039
11
1.1416595275590551
21
0.7036088976377952
0
LINE
8
BLACK
6
CONTINUOUS
10
1.1416595275590551
20
0.7036088976377952
11
1.1360352362204724
21
0.7036088976377952
0
LINE
8
BLACK
6
CONTINUOUS
10
1.1360352362204724
20
0.7036088976377952
11
1.13502531496063
21
0.703786968503937
0
LINE
8
BLACK
6
CONTINUOUS
10
1.13502531496063
20
0.703786968503937
11
1.1348900393700787
21
0.7039004330708661
0
LINE
8
BLACK
6
CONTINUOUS
10
1.1348900393700787
20
0.7039004330708661
11
1.1347147244094489
21
0.7039206299212598
0
LINE
8
BLACK
6
CONTINUOUS
10
1.1347147244094489
20
0.7039206299212598
11
1.1309651968503938
21
0.7057953937007874
0
LINE
8
BLACK
6
CONTINUOUS
10
1.1309651968503938
20
0.7057953937007874
11
1.1302561023622046
21
0.7063212598425197
0
LINE
8
BLACK
6
CONTINUOUS
10
1.1302561023622046
20
0.7063212598425197
11
1.1301977952755906
21
0.7063485039370079
0
LINE
8
BLACK
6
CONTINUOUS
10
1.1301977952755906
20
0.7063485039370079
11
1.1283230314960631
21
0.7082232677165354
0
LINE
8
BLACK
6
CONTINUOUS
10
1.1283230314960631
20
0.7082232677165354
11
1.1278167322834645
21
0.7089463385826772
0
LINE
8
BLACK
6
CONTINUOUS
10
1.1278167322834645
20
0.7089463385826772
11
1.1277699212598424
21
0.7089906692913386
0
LINE
8
BLACK
6
CONTINUOUS
10
1.1277699212598424
20
0.7089906692913386
11
1.1258951574803149
21
0.7127401968503937
0
LINE
8
BLACK
6
CONTINUOUS
10
1.1258951574803149
20
0.7127401968503937
11
1.1256027952755905
21
0.7137231496062992
0
LINE
8
BLACK
6
CONTINUOUS
10
1.1256027952755905
20
0.7137231496062992
11
1.1256437795275591
21
0.7138948031496063
0
LINE
8
BLACK
6
CONTINUOUS
10
1.1256437795275591
20
0.7138948031496063
11
1.1255834251968504
21
0.7140607086614174
0
LINE
8
BLACK
6
CONTINUOUS
10
1.1255834251968504
20
0.7140607086614174
11
1.1255834251968504
21
0.7290588188976378
0
LINE
8
BLACK
6
CONTINUOUS
10
1.1255834251968504
20
0.7290588188976378
11
1.1256510236220472
21
0.7294423228346456
0
LINE
8
BLACK
6
CONTINUOUS
10
1.1256510236220472
20
0.7294423228346456
11
1.1256282677165355
21
0.7295715748031496
0
LINE
8
BLACK
6
CONTINUOUS
10
1.1256282677165355
20
0.7295715748031496
11
1.1256938582677165
21
0.7296851574803149
0
LINE
8
BLACK
6
CONTINUOUS
10
1.1256938582677165
20
0.7296851574803149
11
1.125761496062992
21
0.7300687401574802
0
LINE
8
BLACK
6
CONTINUOUS
10
1.125761496062992
20
0.7300687401574802
11
1.1262546062992125
21
0.7306564173228346
0
LINE
8
BLACK
6
CONTINUOUS
10
1.1262546062992125
20
0.7306564173228346
11
1.1266381889763779
21
0.731320748031496
0
LINE
8
BLACK
6
CONTINUOUS
10
1.1266381889763779
20
0.731320748031496
11
1.1268885039370078
21
0.7314118503937008
0
LINE
8
BLACK
6
CONTINUOUS
10
1.1268885039370078
20
0.7314118503937008
11
1.1270598031496062
21
0.7316159842519685
0
LINE
8
BLACK
6
CONTINUOUS
10
1.1270598031496062
20
0.7316159842519685
11
1.1278153543307086
21
0.7317492125984252
0
LINE
8
BLACK
6
CONTINUOUS
10
1.1278153543307086
20
0.7317492125984252
11
1.1285361811023622
21
0.7320115748031496
0
LINE
8
BLACK
6
CONTINUOUS
10
1.1285361811023622
20
0.7320115748031496
11
1.1679062598425196
21
0.7320115748031496
0
LINE
8
BLACK
6
CONTINUOUS
10
1.1679062598425196
20
0.7320115748031496
11
1.1689161811023623
21
0.7318335039370079
0
LINE
8
BLACK
6
CONTINUOUS
10
1.131488937007874
20
0.7147577559055118
11
1.1328376771653543
21
0.7120602755905512
0
LINE
8
BLACK
6
CONTINUOUS
10
1.1328376771653543
20
0.7120602755905512
11
1.1340348031496064
21
0.7108631496062991
0
LINE
8
BLACK
6
CONTINUOUS
10
1.1340348031496064
20
0.7108631496062991
11
1.136732283464567
21
0.7095144094488188
0
LINE
8
BLACK
6
CONTINUOUS
10
1.136732283464567
20
0.7095144094488188
11
1.1409624803149605
21
0.7095144094488188
0
LINE
8
BLACK
6
CONTINUOUS
10
1.1409624803149605
20
0.7095144094488188
11
1.1436599606299211
21
0.7108631496062991
0
LINE
8
BLACK
6
CONTINUOUS
10
1.1436599606299211
20
0.7108631496062991
11
1.1448570866141732
21
0.7120602755905512
0
LINE
8
BLACK
6
CONTINUOUS
10
1.1448570866141732
20
0.7120602755905512
11
1.1462058267716535
21
0.7147577559055118
0
LINE
8
BLACK
6
CONTINUOUS
10
1.1462058267716535
20
0.7147577559055118
11
1.1462058267716535
21
0.726106062992126
0
LINE
8
BLACK
6
CONTINUOUS
10
1.1462058267716535
20
0.726106062992126
11
1.131488937007874
21
0.726106062992126
0
LINE
8
BLACK
6
CONTINUOUS
10
1.131488937007874
20
0.726106062992126
11
1.131488937007874
21
0.7147577559055118
0
LINE
8
BLACK
6
CONTINUOUS
10
0.7764734645669291
20
0.9603317322834646
11
0.7771653543307087
21
0.9586614173228346
0
LINE
8
BLACK
6
CONTINUOUS
10
0.7771653543307087
20
0.9586614173228346
11
0.7771653543307087
21
0.8472440944881889
0
LINE
8
BLACK
6
CONTINUOUS
10
0.7771653543307087
20
0.8472440944881889
11
0.7764734645669291
21
0.8455737795275591
0
LINE
8
BLACK
6
CONTINUOUS
10
0.7764734645669291
20
0.8455737795275591
11
0.7748031496062991
21
0.8448818897637795
0
LINE
8
BLACK
6
CONTINUOUS
10
0.7748031496062991
20
0.8448818897637795
11
0.7665354330708661
21
0.8448818897637795
0
LINE
8
BLACK
6
CONTINUOUS
10
0.7665354330708661
20
0.8448818897637795
11
0.7665354330708661
21
0.7881889763779527
0
LINE
8
BLACK
6
CONTINUOUS
10
0.7665354330708661
20
0.7881889763779527
11
0.7658435433070866
21
0.7865186614173229
0
LINE
8
BLACK
6
CONTINUOUS
10
0.7658435433070866
20
0.7865186614173229
11
0.7641732283464566
21
0.7858267716535433
0
LINE
8
BLACK
6
CONTINUOUS
10
0.7641732283464566
20
0.7858267716535433
11
0.7625029133858268
21
0.7865186614173229
0
LINE
8
BLACK
6
CONTINUOUS
10
0.7625029133858268
20
0.7865186614173229
11
0.7618110236220472
21
0.7881889763779527
0
LINE
8
BLACK
6
CONTINUOUS
10
0.7618110236220472
20
0.7881889763779527
11
0.7618110236220472
21
0.8472440944881889
0
LINE
8
BLACK
6
CONTINUOUS
10
0.7618110236220472
20
0.8472440944881889
11
0.7625029133858268
21
0.8489144094488189
0
LINE
8
BLACK
6
CONTINUOUS
10
0.7625029133858268
20
0.8489144094488189
11
0.7641732283464566
21
0.8496062992125984
0
LINE
8
BLACK
6
CONTINUOUS
10
0.7641732283464566
20
0.8496062992125984
11
0.7724409448818897
21
0.8496062992125984
0
LINE
8
BLACK
6
CONTINUOUS
10
0.7724409448818897
20
0.8496062992125984
11
0.7724409448818897
21
0.9586614173228346
0
LINE
8
BLACK
6
CONTINUOUS
10
0.7724409448818897
20
0.9586614173228346
11
0.7731328346456693
21
0.9603317322834646
0
LINE
8
BLACK
6
CONTINUOUS
10
0.7731328346456693
20
0.9603317322834646
11
0.7748031496062991
21
0.9610236220472441
0
LINE
8
BLACK
6
CONTINUOUS
10
0.7748031496062991
20
0.9610236220472441
11
0.7764734645669291
21
0.9603317322834646
0
LINE
8
BLACK
6
CONTINUOUS
10
1.0268671653543306
20
0.8922214960629921
11
1.0275590551181102
21
0.8905511811023622
0
LINE
8
BLACK
6
CONTINUOUS
10
1.0275590551181102
20
0.8905511811023622
11
1.0275590551181102
21
0.8496062992125984
0
LINE
8
BLACK
6
CONTINUOUS
10
1.0275590551181102
20
0.8496062992125984
11
1.0358267716535432
21
0.8496062992125984
0
LINE
8
BLACK
6
CONTINUOUS
10
1.0358267716535432
20
0.8496062992125984
11
1.0374970866141733
21
0.8489144094488189
0
LINE
8
BLACK
6
CONTINUOUS
10
1.0374970866141733
20
0.8489144094488189
11
1.0381889763779528
21
0.8472440944881889
0
LINE
8
BLACK
6
CONTINUOUS
10
1.0381889763779528
20
0.8472440944881889
11
1.0381889763779528
21
0.7881889763779527
0
LINE
8
BLACK
6
CONTINUOUS
10
1.0381889763779528
20
0.7881889763779527
11
1.0374970866141733
21
0.7865186614173229
0
LINE
8
BLACK
6
CONTINUOUS
10
1.0374970866141733
20
0.7865186614173229
11
1.0358267716535432
21
0.7858267716535433
0
LINE
8
BLACK
6
CONTINUOUS
10
1.0358267716535432
20
0.7858267716535433
11
1.0341564566929133
21
0.7865186614173229
0
LINE
8
BLACK
6
CONTINUOUS
10
1.0341564566929133
20
0.7865186614173229
11
1.0334645669291338
21
0.7881889763779527
0
LINE
8
BLACK
6
CONTINUOUS
10
1.0334645669291338
20
0.7881889763779527
11
1.0334645669291338
21
0.8448818897637795
0
LINE
8
BLACK
6
CONTINUOUS
10
1.0334645669291338
20
0.8448818897637795
11
1.0251968503937008
21
0.8448818897637795
0
LINE
8
BLACK
6
CONTINUOUS
10
1.0251968503937008
20
0.8448818897637795
11
1.0235265354330709
21
0.8455737795275591
0
LINE
8
BLACK
6
CONTINUOUS
10
1.0235265354330709
20
0.8455737795275591
11
1.0228346456692914
21
0.8472440944881889
0
LINE
8
BLACK
6
CONTINUOUS
10
1.0228346456692914
20
0.8472440944881889
11
1.0228346456692914
21
0.8905511811023622
0
LINE
8
BLACK
6
CONTINUOUS
10
1.0228346456692914
20
0.8905511811023622
11
1.0235265354330709
21
0.8922214960629921
0
LINE
8
BLACK
6
CONTINUOUS
10
1.0235265354330709
20
0.8922214960629921
11
1.0251968503937008
21
0.8929133858267716
0
LINE
8
BLACK
6
CONTINUOUS
10
1.0251968503937008
20
0.8929133858267716
11
1.0268671653543306
21
0.8922214960629921
0
LINE
8
BLACK
6
CONTINUOUS
10
0.0690759842519685
20
0.8513570866141732
11
0.0720759842519685
21
0.8505532283464566
0
LINE
8
BLACK
6
CONTINUOUS
10
0.0720759842519685
20
0.8505532283464566
11
0.074272125984252
21
0.8483570866141732
0
LINE
8
BLACK
6
CONTINUOUS
10
0.074272125984252
20
0.8483570866141732
11
0.0750759842519685
21
0.8453570866141732
0
LINE
8
BLACK
6
CONTINUOUS
10
0.0750759842519685
20
0.8453570866141732
11
0.0750759842519685
21
0.8284999606299213
0
LINE
8
BLACK
6
CONTINUOUS
10
0.0750759842519685
20
0.8284999606299213
11
0.0919331102362205
21
0.8284999606299213
0
LINE
8
BLACK
6
CONTINUOUS
10
0.0919331102362205
20
0.8284999606299213
11
0.0949331102362205
21
0.8276961023622047
0
LINE
8
BLACK
6
CONTINUOUS
10
0.0949331102362205
20
0.8276961023622047
11
0.0971292519685039
21
0.8254999606299213
0
LINE
8
BLACK
6
CONTINUOUS
10
0.0971292519685039
20
0.8254999606299213
11
0.0979331102362205
21
0.8224999606299213
0
LINE
8
BLACK
6
CONTINUOUS
10
0.0979331102362205
20
0.8224999606299213
11
0.0971292519685039
21
0.8194999606299213
0
LINE
8
BLACK
6
CONTINUOUS
10
0.0971292519685039
20
0.8194999606299213
11
0.0949331102362205
21
0.8173038188976378
0
LINE
8
BLACK
6
CONTINUOUS
10
0.0949331102362205
20
0.8173038188976378
11
0.0919331102362205
21
0.8164999606299213
0
LINE
8
BLACK
6
CONTINUOUS
10
0.0919331102362205
20
0.8164999606299213
11
0.0750759842519685
21
0.8164999606299213
0
LINE
8
BLACK
6
CONTINUOUS
10
0.0750759842519685
20
0.8164999606299213
11
0.0750759842519685
21
0.7996428346456693
0
LINE
8
BLACK
6
CONTINUOUS
10
0.0750759842519685
20
0.7996428346456693
11
0.074272125984252
21
0.7966428346456693
0
LINE
8
BLACK
6
CONTINUOUS
10
0.074272125984252
20
0.7966428346456693
11
0.0720759842519685
21
0.7944466929133858
0
LINE
8
BLACK
6
CONTINUOUS
10
0.0720759842519685
20
0.7944466929133858
11
0.0690759842519685
21
0.7936428346456693
0
LINE
8
BLACK
6
CONTINUOUS
10
0.0690759842519685
20
0.7936428346456693
11
0.0660759842519685
21
0.7944466929133858
0
LINE
8
BLACK
6
CONTINUOUS
10
0.0660759842519685
20
0.7944466929133858
11
0.063879842519685
21
0.7966428346456693
0
LINE
8
BLACK
6
CONTINUOUS
10
0.063879842519685
20
0.7966428346456693
11
0.0630759842519685
21
0.7996428346456693
0
LINE
8
BLACK
6
CONTINUOUS
10
0.0630759842519685
20
0.7996428346456693
11
0.0630759842519685
21
0.8164999606299213
0
LINE
8
BLACK
6
CONTINUOUS
10
0.0630759842519685
20
0.8164999606299213
11
0.0462188188976378
21
0.8164999606299213
0
LINE
8
BLACK
6
CONTINUOUS
10
0.0462188188976378
20
0.8164999606299213
11
0.0432188188976378
21
0.8173038188976378
0
LINE
8
BLACK
6
CONTINUOUS
10
0.0432188188976378
20
0.8173038188976378
11
0.0410226771653543
21
0.8194999606299213
0
LINE
8
BLACK
6
CONTINUOUS
10
0.0410226771653543
20
0.8194999606299213
11
0.0402188188976378
21
0.8224999606299213
0
LINE
8
BLACK
6
CONTINUOUS
10
0.0402188188976378
20
0.8224999606299213
11
0.0410226771653543
21
0.8254999606299213
0
LINE
8
BLACK
6
CONTINUOUS
10
0.0410226771653543
20
0.8254999606299213
11
0.0432188188976378
21
0.8276961023622047
0
LINE
8
BLACK
6
CONTINUOUS
10
0.0432188188976378
20
0.8276961023622047
11
0.0462188188976378
21
0.8284999606299213
0
LINE
8
BLACK
6
CONTINUOUS
10
0.0462188188976378
20
0.8284999606299213
11
0.0630759842519685
21
0.8284999606299213
0
LINE
8
BLACK
6
CONTINUOUS
10
0.0630759842519685
20
0.8284999606299213
11
0.0630759842519685
21
0.8453570866141732
0
LINE
8
BLACK
6
CONTINUOUS
10
0.0630759842519685
20
0.8453570866141732
11
0.063879842519685
21
0.8483570866141732
0
LINE
8
BLACK
6
CONTINUOUS
10
0.063879842519685
20
0.8483570866141732
11
0.0660759842519685
21
0.8505532283464566
0
LINE
8
BLACK
6
CONTINUOUS
10
0.0660759842519685
20
0.8505532283464566
11
0.0690759842519685
21
0.8513570866141732
0
LINE
8
BLACK
6
CONTINUOUS
10
0.2626099212598425
20
0.7996746850393701
11
0.2641571653543307
21
0.7983763779527558
0
LINE
8
BLACK
6
CONTINUOUS
10
0.2641571653543307
20
0.7983763779527558
11
0.2645079133858267
21
0.7963872440944881
0
LINE
8
BLACK
6
CONTINUOUS
10
0.2645079133858267
20
0.7963872440944881
11
0.2634979921259842
21
0.7946380708661417
0
LINE
8
BLACK
6
CONTINUOUS
10
0.2634979921259842
20
0.7946380708661417
11
0.2616
21
0.7939472440944881
0
LINE
8
BLACK
6
CONTINUOUS
10
0.2616
20
0.7939472440944881
11
0.0884
21
0.7939472440944881
0
LINE
8
BLACK
6
CONTINUOUS
10
0.0884
20
0.7939472440944881
11
0.0873900787401575
21
0.7941253149606299
0
LINE
8
BLACK
6
CONTINUOUS
10
0.0873900787401575
20
0.7941253149606299
11
0.0858428346456693
21
0.795423622047244
0
LINE
8
BLACK
6
CONTINUOUS
10
0.0858428346456693
20
0.795423622047244
11
0.0854920866141732
21
0.7974127559055117
0
LINE
8
BLACK
6
CONTINUOUS
10
0.0854920866141732
20
0.7974127559055117
11
0.0865020078740157
21
0.7991619291338582
0
LINE
8
BLACK
6
CONTINUOUS
10
0.0865020078740157
20
0.7991619291338582
11
0.0884
21
0.7998527559055117
0
LINE
8
BLACK
6
CONTINUOUS
10
0.0884
20
0.7998527559055117
11
0.2616
21
0.7998527559055117
0
LINE
8
BLACK
6
CONTINUOUS
10
0.2616
20
0.7998527559055117
11
0.2626099212598425
21
0.7996746850393701
0
LINE
8
BLACK
6
CONTINUOUS
10
0.4169491338582677
20
0.8542384645669291
11
0.4170843700787402
21
0.8541249606299213
0
LINE
8
BLACK
6
CONTINUOUS
10
0.4170843700787402
20
0.8541249606299213
11
0.4172597244094488
21
0.8541048031496062
0
LINE
8
BLACK
6
CONTINUOUS
10
0.4172597244094488
20
0.8541048031496062
11
0.4210092519685039
21
0.8522300393700787
0
LINE
8
BLACK
6
CONTINUOUS
10
0.4210092519685039
20
0.8522300393700787
11
0.4217183070866142
21
0.851704094488189
0
LINE
8
BLACK
6
CONTINUOUS
10
0.4217183070866142
20
0.851704094488189
11
0.4217766535433071
21
0.8516769291338583
0
LINE
8
BLACK
6
CONTINUOUS
10
0.4217766535433071
20
0.8516769291338583
11
0.4236514173228346
21
0.8498021653543307
0
LINE
8
BLACK
6
CONTINUOUS
10
0.4236514173228346
20
0.8498021653543307
11
0.4242396062992126
21
0.8489621259842519
0
LINE
8
BLACK
6
CONTINUOUS
10
0.4242396062992126
20
0.8489621259842519
11
0.4244156299212598
21
0.8469500393700787
0
LINE
8
BLACK
6
CONTINUOUS
10
0.4244156299212598
20
0.8469500393700787
11
0.423257125984252
21
0.8452954724409448
0
LINE
8
BLACK
6
CONTINUOUS
10
0.423257125984252
20
0.8452954724409448
11
0.4213061417322835
21
0.8447727559055118
0
LINE
8
BLACK
6
CONTINUOUS
10
0.4213061417322835
20
0.8447727559055118
11
0.4194755905511811
21
0.8456263385826771
0
LINE
8
BLACK
6
CONTINUOUS
10
0.4194755905511811
20
0.8456263385826771
11
0.4179396456692913
21
0.8471622834645669
0
LINE
8
BLACK
6
CONTINUOUS
10
0.4179396456692913
20
0.8471622834645669
11
0.4152421653543307
21
0.8485110236220472
0
LINE
8
BLACK
6
CONTINUOUS
10
0.4152421653543307
20
0.8485110236220472
11
0.4072624409448819
21
0.8485110236220472
0
LINE
8
BLACK
6
CONTINUOUS
10
0.4072624409448819
20
0.8485110236220472
11
0.4045649606299213
21
0.8471622834645669
0
LINE
8
BLACK
6
CONTINUOUS
10
0.4045649606299213
20
0.8471622834645669
11
0.4033678346456693
21
0.845965157480315
0
LINE
8
BLACK
6
CONTINUOUS
10
0.4033678346456693
20
0.845965157480315
11
0.402019094488189
21
0.8432676771653543
0
LINE
8
BLACK
6
CONTINUOUS
10
0.402019094488189
20
0.8432676771653543
11
0.402019094488189
21
0.8406943307086614
0
LINE
8
BLACK
6
CONTINUOUS
10
0.402019094488189
20
0.8406943307086614
11
0.4035218897637795
21
0.836185905511811
0
LINE
8
BLACK
6
CONTINUOUS
10
0.4035218897637795
20
0.836185905511811
11
0.4255261811023622
21
0.8141816141732283
0
LINE
8
BLACK
6
CONTINUOUS
10
0.4255261811023622
20
0.8141816141732283
11
0.4258959448818898
21
0.8136535433070866
0
LINE
8
BLACK
6
CONTINUOUS
10
0.4258959448818898
20
0.8136535433070866
11
0.4259954330708661
21
0.8135700787401574
0
LINE
8
BLACK
6
CONTINUOUS
10
0.4259954330708661
20
0.8135700787401574
11
0.4260092125984252
21
0.8134917322834645
0
LINE
8
BLACK
6
CONTINUOUS
10
0.4260092125984252
20
0.8134917322834645
11
0.4261144094488189
21
0.8133415748031496
0
LINE
8
BLACK
6
CONTINUOUS
10
0.4261144094488189
20
0.8133415748031496
11
0.4261918503937008
21
0.8124559842519685
0
LINE
8
BLACK
6
CONTINUOUS
10
0.4261918503937008
20
0.8124559842519685
11
0.4263461811023622
21
0.8115809448818897
0
LINE
8
BLACK
6
CONTINUOUS
10
0.4263461811023622
20
0.8115809448818897
11
0.4262786614173228
21
0.8114639763779528
0
LINE
8
BLACK
6
CONTINUOUS
10
0.4262786614173228
20
0.8114639763779528
11
0.4262904330708661
21
0.8113294488188976
0
LINE
8
BLACK
6
CONTINUOUS
10
0.4262904330708661
20
0.8113294488188976
11
0.4257805511811024
21
0.8106012598425196
0
LINE
8
BLACK
6
CONTINUOUS
10
0.4257805511811024
20
0.8106012598425196
11
0.4253362598425197
21
0.8098317716535433
0
LINE
8
BLACK
6
CONTINUOUS
10
0.4253362598425197
20
0.8098317716535433
11
0.4252093700787402
21
0.809785590551181
0
LINE
8
BLACK
6
CONTINUOUS
10
0.4252093700787402
20
0.809785590551181
11
0.4251318897637795
21
0.8096749212598425
0
LINE
8
BLACK
6
CONTINUOUS
10
0.4251318897637795
20
0.8096749212598425
11
0.4242733464566929
21
0.8094448818897637
0
LINE
8
BLACK
6
CONTINUOUS
10
0.4242733464566929
20
0.8094448818897637
11
0.4234382677165354
21
0.8091409448818897
0
LINE
8
BLACK
6
CONTINUOUS
10
0.4234382677165354
20
0.8091409448818897
11
0.3990663385826771
21
0.8091409448818897
0
LINE
8
BLACK
6
CONTINUOUS
10
0.3990663385826771
20
0.8091409448818897
11
0.3980564173228346
21
0.8093190157480314
0
LINE
8
BLACK
6
CONTINUOUS
10
0.3980564173228346
20
0.8093190157480314
11
0.3965091732283464
21
0.8106173228346456
0
LINE
8
BLACK
6
CONTINUOUS
10
0.3965091732283464
20
0.8106173228346456
11
0.3961584251968504
21
0.8126064566929133
0
LINE
8
BLACK
6
CONTINUOUS
10
0.3961584251968504
20
0.8126064566929133
11
0.3971683464566929
21
0.8143556299212599
0
LINE
8
BLACK
6
CONTINUOUS
10
0.3971683464566929
20
0.8143556299212599
11
0.3990663385826771
21
0.8150464566929133
0
LINE
8
BLACK
6
CONTINUOUS
10
0.3990663385826771
20
0.8150464566929133
11
0.41630968503937
21
0.8150464566929133
0
LINE
8
BLACK
6
CONTINUOUS
10
0.41630968503937
20
0.8150464566929133
11
0.3988531889763779
21
0.8325029921259842
0
LINE
8
BLACK
6
CONTINUOUS
10
0.3988531889763779
20
0.8325029921259842
11
0.398265
21
0.8333430314960629
0
LINE
8
BLACK
6
CONTINUOUS
10
0.398265
20
0.8333430314960629
11
0.3982496062992126
21
0.8335188582677165
0
LINE
8
BLACK
6
CONTINUOUS
10
0.3982496062992126
20
0.8335188582677165
11
0.3981398818897638
21
0.8336571653543307
0
LINE
8
BLACK
6
CONTINUOUS
10
0.3981398818897638
20
0.8336571653543307
11
0.3962651181102362
21
0.8392814566929133
0
LINE
8
BLACK
6
CONTINUOUS
10
0.3962651181102362
20
0.8392814566929133
11
0.3961356299212598
21
0.8401546062992126
0
LINE
8
BLACK
6
CONTINUOUS
10
0.3961356299212598
20
0.8401546062992126
11
0.3961135826771653
21
0.8402151968503937
0
LINE
8
BLACK
6
CONTINUOUS
10
0.3961135826771653
20
0.8402151968503937
11
0.3961135826771653
21
0.8439647244094488
0
LINE
8
BLACK
6
CONTINUOUS
10
0.3961135826771653
20
0.8439647244094488
11
0.3962916535433071
21
0.8449746456692914
0
LINE
8
BLACK
6
CONTINUOUS
10
0.3962916535433071
20
0.8449746456692914
11
0.3964051181102362
21
0.8451098818897638
0
LINE
8
BLACK
6
CONTINUOUS
10
0.3964051181102362
20
0.8451098818897638
11
0.3964253149606299
21
0.8452852362204725
0
LINE
8
BLACK
6
CONTINUOUS
10
0.3964253149606299
20
0.8452852362204725
11
0.3983000787401575
21
0.8490347637795276
0
LINE
8
BLACK
6
CONTINUOUS
10
0.3983000787401575
20
0.8490347637795276
11
0.3988259842519685
21
0.8497438188976377
0
LINE
8
BLACK
6
CONTINUOUS
10
0.3988259842519685
20
0.8497438188976377
11
0.3988531889763779
21
0.8498021653543307
0
LINE
8
BLACK
6
CONTINUOUS
10
0.3988531889763779
20
0.8498021653543307
11
0.4007279527559055
21
0.8516769291338583
0
LINE
8
BLACK
6
CONTINUOUS
10
0.4007279527559055
20
0.8516769291338583
11
0.4014510236220472
21
0.8521831889763779
0
LINE
8
BLACK
6
CONTINUOUS
10
0.4014510236220472
20
0.8521831889763779
11
0.4014953543307087
21
0.8522300393700787
0
LINE
8
BLACK
6
CONTINUOUS
10
0.4014953543307087
20
0.8522300393700787
11
0.4052448818897638
21
0.8541048031496062
0
LINE
8
BLACK
6
CONTINUOUS
10
0.4052448818897638
20
0.8541048031496062
11
0.4062277952755906
21
0.8543971653543306
0
LINE
8
BLACK
6
CONTINUOUS
10
0.4062277952755906
20
0.8543971653543306
11
0.4063994881889764
21
0.8543561417322835
0
LINE
8
BLACK
6
CONTINUOUS
10
0.4063994881889764
20
0.8543561417322835
11
0.4065653937007874
21
0.8544165354330708
0
LINE
8
BLACK
6
CONTINUOUS
10
0.4065653937007874
20
0.8544165354330708
11
0.4159392125984252
21
0.8544165354330708
0
LINE
8
BLACK
6
CONTINUOUS
10
0.4159392125984252
20
0.8544165354330708
11
0.4169491338582677
21
0.8542384645669291
0
LINE
8
BLACK
6
CONTINUOUS
10
0.4594423228346456
20
0.8543488976377952
11
0.4595715748031496
21
0.8543716929133858
0
LINE
8
BLACK
6
CONTINUOUS
10
0.4595715748031496
20
0.8543716929133858
11
0.459685157480315
21
0.854306062992126
0
LINE
8
BLACK
6
CONTINUOUS
10
0.459685157480315
20
0.854306062992126
11
0.4600687401574803
21
0.8542384645669291
0
LINE
8
BLACK
6
CONTINUOUS
10
0.4600687401574803
20
0.8542384645669291
11
0.4606564173228346
21
0.8537453149606299
0
LINE
8
BLACK
6
CONTINUOUS
10
0.4606564173228346
20
0.8537453149606299
11
0.461320748031496
21
0.8533617716535433
0
LINE
8
BLACK
6
CONTINUOUS
10
0.461320748031496
20
0.8533617716535433
11
0.4614118503937008
21
0.8531114173228346
0
LINE
8
BLACK
6
CONTINUOUS
10
0.4614118503937008
20
0.8531114173228346
11
0.4616159842519685
21
0.8529401574803149
0
LINE
8
BLACK
6
CONTINUOUS
10
0.4616159842519685
20
0.8529401574803149
11
0.4617492125984252
21
0.8521845669291338
0
LINE
8
BLACK
6
CONTINUOUS
10
0.4617492125984252
20
0.8521845669291338
11
0.4620115748031496
21
0.851463779527559
0
LINE
8
BLACK
6
CONTINUOUS
10
0.4620115748031496
20
0.851463779527559
11
0.4620115748031496
21
0.8120937007874015
0
LINE
8
BLACK
6
CONTINUOUS
10
0.4620115748031496
20
0.8120937007874015
11
0.461943937007874
21
0.8117101574803149
0
LINE
8
BLACK
6
CONTINUOUS
10
0.461943937007874
20
0.8117101574803149
11
0.4619667322834646
21
0.8115809448818897
0
LINE
8
BLACK
6
CONTINUOUS
10
0.4619667322834646
20
0.8115809448818897
11
0.4619011023622047
21
0.8114673228346456
0
LINE
8
BLACK
6
CONTINUOUS
10
0.4619011023622047
20
0.8114673228346456
11
0.4618335039370078
21
0.8110837795275591
0
LINE
8
BLACK
6
CONTINUOUS
10
0.4618335039370078
20
0.8110837795275591
11
0.4613403543307086
21
0.810496062992126
0
LINE
8
BLACK
6
CONTINUOUS
10
0.4613403543307086
20
0.810496062992126
11
0.460956811023622
21
0.8098317716535433
0
LINE
8
BLACK
6
CONTINUOUS
10
0.460956811023622
20
0.8098317716535433
11
0.4607064566929134
21
0.8097406299212598
0
LINE
8
BLACK
6
CONTINUOUS
10
0.4607064566929134
20
0.8097406299212598
11
0.4605351968503937
21
0.8095365354330708
0
LINE
8
BLACK
6
CONTINUOUS
10
0.4605351968503937
20
0.8095365354330708
11
0.4597796062992126
21
0.8094032677165354
0
LINE
8
BLACK
6
CONTINUOUS
10
0.4597796062992126
20
0.8094032677165354
11
0.4590588188976378
21
0.8091409448818897
0
LINE
8
BLACK
6
CONTINUOUS
10
0.4590588188976378
20
0.8091409448818897
11
0.449685
21
0.8091409448818897
0
LINE
8
BLACK
6
CONTINUOUS
10
0.449685
20
0.8091409448818897
11
0.4488155905511811
21
0.8092942125984252
0
LINE
8
BLACK
6
CONTINUOUS
10
0.4488155905511811
20
0.8092942125984252
11
0.4487512598425197
21
0.8092924803149606
0
LINE
8
BLACK
6
CONTINUOUS
10
0.4487512598425197
20
0.8092924803149606
11
0.4431269291338583
21
0.8111672834645669
0
LINE
8
BLACK
6
CONTINUOUS
10
0.4431269291338583
20
0.8111672834645669
11
0.4422251574803149
21
0.8116555905511811
0
LINE
8
BLACK
6
CONTINUOUS
10
0.4422251574803149
20
0.8116555905511811
11
0.4421327165354331
21
0.8118059842519685
0
LINE
8
BLACK
6
CONTINUOUS
10
0.4421327165354331
20
0.8118059842519685
11
0.4419727952755905
21
0.8118805905511811
0
LINE
8
BLACK
6
CONTINUOUS
10
0.4419727952755905
20
0.8118805905511811
11
0.4382232677165354
21
0.8156301181102362
0
LINE
8
BLACK
6
CONTINUOUS
10
0.4382232677165354
20
0.8156301181102362
11
0.437716968503937
21
0.816353188976378
0
LINE
8
BLACK
6
CONTINUOUS
10
0.437716968503937
20
0.816353188976378
11
0.437670157480315
21
0.8163975196850394
0
LINE
8
BLACK
6
CONTINUOUS
10
0.437670157480315
20
0.8163975196850394
11
0.4357953937007874
21
0.8201470472440945
0
LINE
8
BLACK
6
CONTINUOUS
10
0.4357953937007874
20
0.8201470472440945
11
0.4356500787401575
21
0.8206354724409448
0
LINE
8
BLACK
6
CONTINUOUS
10
0.4356500787401575
20
0.8206354724409448
11
0.435571811023622
21
0.8207514173228346
0
LINE
8
BLACK
6
CONTINUOUS
10
0.435571811023622
20
0.8207514173228346
11
0.4336970472440945
21
0.8282504724409449
0
LINE
8
BLACK
6
CONTINUOUS
10
0.4336970472440945
20
0.8282504724409449
11
0.4336555511811023
21
0.8288383464566929
0
LINE
8
BLACK
6
CONTINUOUS
10
0.4336555511811023
20
0.8288383464566929
11
0.4336088976377953
21
0.8289666141732284
0
LINE
8
BLACK
6
CONTINUOUS
10
0.4336088976377953
20
0.8289666141732284
11
0.4336088976377953
21
0.834590905511811
0
LINE
8
BLACK
6
CONTINUOUS
10
0.4336088976377953
20
0.834590905511811
11
0.4337112204724409
21
0.8351712598425197
0
LINE
8
BLACK
6
CONTINUOUS
10
0.4337112204724409
20
0.8351712598425197
11
0.4336970472440945
21
0.8353070472440944
0
LINE
8
BLACK
6
CONTINUOUS
10
0.4336970472440945
20
0.8353070472440944
11
0.435571811023622
21
0.8428061023622047
0
LINE
8
BLACK
6
CONTINUOUS
10
0.435571811023622
20
0.8428061023622047
11
0.4357793700787401
21
0.8432715354330709
0
LINE
8
BLACK
6
CONTINUOUS
10
0.4357793700787401
20
0.8432715354330709
11
0.4357953937007874
21
0.8434104724409449
0
LINE
8
BLACK
6
CONTINUOUS
10
0.4357953937007874
20
0.8434104724409449
11
0.437670157480315
21
0.84716
0
LINE
8
BLACK
6
CONTINUOUS
10
0.437670157480315
20
0.84716
11
0.438196062992126
21
0.8478690551181102
0
LINE
8
BLACK
6
CONTINUOUS
10
0.438196062992126
20
0.8478690551181102
11
0.4382232677165354
21
0.8479274015748032
0
LINE
8
BLACK
6
CONTINUOUS
10
0.4382232677165354
20
0.8479274015748032
11
0.4419727952755905
21
0.8516769291338583
0
LINE
8
BLACK
6
CONTINUOUS
10
0.4419727952755905
20
0.8516769291338583
11
0.4428128346456693
21
0.8522651574803149
0
LINE
8
BLACK
6
CONTINUOUS
10
0.4428128346456693
20
0.8522651574803149
11
0.4429887401574803
21
0.8522805118110236
0
LINE
8
BLACK
6
CONTINUOUS
10
0.4429887401574803
20
0.8522805118110236
11
0.443126968503937
21
0.8523902362204724
0
LINE
8
BLACK
6
CONTINUOUS
10
0.443126968503937
20
0.8523902362204724
11
0.4487512204724409
21
0.8542649999999999
0
LINE
8
BLACK
6
CONTINUOUS
10
0.4487512204724409
20
0.8542649999999999
11
0.4496244488188976
21
0.8543944881889763
0
LINE
8
BLACK
6
CONTINUOUS
10
0.4496244488188976
20
0.8543944881889763
11
0.449685
21
0.8544165354330708
0
LINE
8
BLACK
6
CONTINUOUS
10
0.449685
20
0.8544165354330708
11
0.4590588188976378
21
0.8544165354330708
0
LINE
8
BLACK
6
CONTINUOUS
10
0.4590588188976378
20
0.8544165354330708
11
0.4594423228346456
21
0.8543488976377952
0
LINE
8
BLACK
6
CONTINUOUS
10
0.445655748031496
20
0.8470082283464567
11
0.4427379133858267
21
0.8440903937007874
0
LINE
8
BLACK
6
CONTINUOUS
10
0.4427379133858267
20
0.8440903937007874
11
0.4412224015748031
21
0.8410594094488189
0
LINE
8
BLACK
6
CONTINUOUS
10
0.4412224015748031
20
0.8410594094488189
11
0.4395144094488189
21
0.8342273622047244
0
LINE
8
BLACK
6
CONTINUOUS
10
0.4395144094488189
20
0.8342273622047244
11
0.4395144094488189
21
0.8293301574803149
0
LINE
8
BLACK
6
CONTINUOUS
10
0.4395144094488189
20
0.8293301574803149
11
0.4412224015748031
21
0.8224981102362204
0
LINE
8
BLACK
6
CONTINUOUS
10
0.4412224015748031
20
0.8224981102362204
11
0.4427379133858267
21
0.819467125984252
0
LINE
8
BLACK
6
CONTINUOUS
10
0.4427379133858267
20
0.819467125984252
11
0.4456557086614173
21
0.8165492913385827
0
LINE
8
BLACK
6
CONTINUOUS
10
0.4456557086614173
20
0.8165492913385827
11
0.4501641732283465
21
0.8150464566929133
0
LINE
8
BLACK
6
CONTINUOUS
10
0.4501641732283465
20
0.8150464566929133
11
0.456106062992126
21
0.8150464566929133
0
LINE
8
BLACK
6
CONTINUOUS
10
0.456106062992126
20
0.8150464566929133
11
0.456106062992126
21
0.8485110236220472
0
LINE
8
BLACK
6
CONTINUOUS
10
0.456106062992126
20
0.8485110236220472
11
0.4501641338582677
21
0.8485110236220472
0
LINE
8
BLACK
6
CONTINUOUS
10
0.4501641338582677
20
0.8485110236220472
11
0.445655748031496
21
0.8470082283464567
0
LINE
8
BLACK
6
CONTINUOUS
10
0.6049212598425197
20
0.9631889763779528
11
0.6065915748031496
21
0.9624970866141732
0
LINE
8
BLACK
6
CONTINUOUS
10
0.6065915748031496
20
0.9624970866141732
11
0.6072834645669292
21
0.9608267716535432
0
LINE
8
BLACK
6
CONTINUOUS
10
0.6072834645669292
20
0.9608267716535432
11
0.6072834645669292
21
0.9525590551181102
0
LINE
8
BLACK
6
CONTINUOUS
10
0.6072834645669292
20
0.9525590551181102
11
0.7163385826771653
21
0.9525590551181102
0
LINE
8
BLACK
6
CONTINUOUS
10
0.7163385826771653
20
0.9525590551181102
11
0.7180088976377953
21
0.9518671653543307
0
LINE
8
BLACK
6
CONTINUOUS
10
0.7180088976377953
20
0.9518671653543307
11
0.7187007874015748
21
0.9501968503937007
0
LINE
8
BLACK
6
CONTINUOUS
10
0.7187007874015748
20
0.9501968503937007
11
0.7180088976377953
21
0.9485265354330709
0
LINE
8
BLACK
6
CONTINUOUS
10
0.7180088976377953
20
0.9485265354330709
11
0.7163385826771653
21
0.9478346456692913
0
LINE
8
BLACK
6
CONTINUOUS
10
0.7163385826771653
20
0.9478346456692913
11
0.6049212598425197
21
0.9478346456692913
0
LINE
8
BLACK
6
CONTINUOUS
10
0.6049212598425197
20
0.9478346456692913
11
0.6032509448818898
21
0.9485265354330709
0
LINE
8
BLACK
6
CONTINUOUS
10
0.6032509448818898
20
0.9485265354330709
11
0.6025590551181103
21
0.9501968503937007
0
LINE
8
BLACK
6
CONTINUOUS
10
0.6025590551181103
20
0.9501968503937007
11
0.6025590551181103
21
0.9584645669291338
0
LINE
8
BLACK
6
CONTINUOUS
10
0.6025590551181103
20
0.9584645669291338
11
0.5458661417322834
21
0.9584645669291338
0
LINE
8
BLACK
6
CONTINUOUS
10
0.5458661417322834
20
0.9584645669291338
11
0.5441958267716536
21
0.9591564566929134
0
LINE
8
BLACK
6
CONTINUOUS
10
0.5441958267716536
20
0.9591564566929134
11
0.543503937007874
21
0.9608267716535432
0
LINE
8
BLACK
6
CONTINUOUS
10
0.543503937007874
20
0.9608267716535432
11
0.5441958267716536
21
0.9624970866141732
0
LINE
8
BLACK
6
CONTINUOUS
10
0.5441958267716536
20
0.9624970866141732
11
0.5458661417322834
21
0.9631889763779528
0
LINE
8
BLACK
6
CONTINUOUS
10
0.5458661417322834
20
0.9631889763779528
11
0.6049212598425197
21
0.9631889763779528
0
LINE
8
BLACK
6
CONTINUOUS
10
1.0228835039370079
20
1.0703851181102362
11
1.0230127559055118
21
1.0704079133858266
0
LINE
8
BLACK
6
CONTINUOUS
10
1.0230127559055118
20
1.0704079133858266
11
1.0231263385826772
21
1.0703422834645668
0
LINE
8
BLACK
6
CONTINUOUS
10
1.0231263385826772
20
1.0703422834645668
11
1.0235099212598424
21
1.0702746850393701
0
LINE
8
BLACK
6
CONTINUOUS
10
1.0235099212598424
20
1.0702746850393701
11
1.0240975984251968
21
1.0697815354330709
0
LINE
8
BLACK
6
CONTINUOUS
10
1.0240975984251968
20
1.0697815354330709
11
1.0247619291338583
21
1.0693979921259842
0
LINE
8
BLACK
6
CONTINUOUS
10
1.0247619291338583
20
1.0693979921259842
11
1.0248530314960629
21
1.0691476377952756
0
LINE
8
BLACK
6
CONTINUOUS
10
1.0248530314960629
20
1.0691476377952756
11
1.0250571653543308
21
1.0689763779527559
0
LINE
8
BLACK
6
CONTINUOUS
10
1.0250571653543308
20
1.0689763779527559
11
1.0251903937007874
21
1.0682207874015748
0
LINE
8
BLACK
6
CONTINUOUS
10
1.0251903937007874
20
1.0682207874015748
11
1.0254527559055118
21
1.0674999999999999
0
LINE
8
BLACK
6
CONTINUOUS
10
1.0254527559055118
20
1.0674999999999999
11
1.0254527559055118
21
1.0151196456692912
0
LINE
8
BLACK
6
CONTINUOUS
10
1.0254527559055118
20
1.0151196456692912
11
1.0257303543307086
21
1.0152533464566929
0
LINE
8
BLACK
6
CONTINUOUS
10
1.0257303543307086
20
1.0152533464566929
11
1.0292696456692914
21
1.0152533464566929
0
LINE
8
BLACK
6
CONTINUOUS
10
1.0292696456692914
20
1.0152533464566929
11
1.032458464566929
21
1.013717716535433
0
LINE
8
BLACK
6
CONTINUOUS
10
1.032458464566929
20
1.013717716535433
11
1.0346651968503937
21
1.0109505905511811
0
LINE
8
BLACK
6
CONTINUOUS
10
1.0346651968503937
20
1.0109505905511811
11
1.0354527559055118
21
1.0075000000000001
0
LINE
8
BLACK
6
CONTINUOUS
10
1.0354527559055118
20
1.0075000000000001
11
1.0346651968503937
21
1.0040494094488188
0
LINE
8
BLACK
6
CONTINUOUS
10
1.0346651968503937
20
1.0040494094488188
11
1.032458464566929
21
1.0012822834645669
0
LINE
8
BLACK
6
CONTINUOUS
10
1.032458464566929
20
1.0012822834645669
11
1.0292696456692914
21
0.9997466535433071
0
LINE
8
BLACK
6
CONTINUOUS
10
1.0292696456692914
20
0.9997466535433071
11
1.0257303543307086
21
0.9997466535433071
0
LINE
8
BLACK
6
CONTINUOUS
10
1.0257303543307086
20
0.9997466535433071
11
1.0225415354330709
21
1.0012822834645669
0
LINE
8
BLACK
6
CONTINUOUS
10
1.0225415354330709
20
1.0012822834645669
11
1.0203348031496062
21
1.0040494094488188
0
LINE
8
BLACK
6
CONTINUOUS
10
1.0203348031496062
20
1.0040494094488188
11
1.0202211811023623
21
1.0045472440944883
0
LINE
8
BLACK
6
CONTINUOUS
10
1.0202211811023623
20
1.0045472440944883
11
0.9824999999999999
21
1.0045472440944883
0
LINE
8
BLACK
6
CONTINUOUS
10
0.9824999999999999
20
1.0045472440944883
11
0.9814900787401575
21
1.0047253149606299
0
LINE
8
BLACK
6
CONTINUOUS
10
0.9814900787401575
20
1.0047253149606299
11
0.9799428346456692
21
1.006023622047244
0
LINE
8
BLACK
6
CONTINUOUS
10
0.9799428346456692
20
1.006023622047244
11
0.9795920866141732
21
1.0080127559055119
0
LINE
8
BLACK
6
CONTINUOUS
10
0.9795920866141732
20
1.0080127559055119
11
0.9806020078740157
21
1.0097619291338582
0
LINE
8
BLACK
6
CONTINUOUS
10
0.9806020078740157
20
1.0097619291338582
11
0.9824999999999999
21
1.0104527559055119
0
LINE
8
BLACK
6
CONTINUOUS
10
0.9824999999999999
20
1.0104527559055119
11
1.0195472440944882
21
1.0104527559055119
0
LINE
8
BLACK
6
CONTINUOUS
10
1.0195472440944882
20
1.0104527559055119
11
1.0195472440944882
21
1.0645472440944881
0
LINE
8
BLACK
6
CONTINUOUS
10
1.0195472440944882
20
1.0645472440944881
11
0.9824999999999999
21
1.0645472440944881
0
LINE
8
BLACK
6
CONTINUOUS
10
0.9824999999999999
20
1.0645472440944881
11
0.9814900787401575
21
1.0647253149606299
0
LINE
8
BLACK
6
CONTINUOUS
10
0.9814900787401575
20
1.0647253149606299
11
0.9799428346456692
21
1.0660236220472441
0
LINE
8
BLACK
6
CONTINUOUS
10
0.9799428346456692
20
1.0660236220472441
11
0.9795920866141732
21
1.0680127559055117
0
LINE
8
BLACK
6
CONTINUOUS
10
0.9795920866141732
20
1.0680127559055117
11
0.9806020078740157
21
1.0697619291338583
0
LINE
8
BLACK
6
CONTINUOUS
10
0.9806020078740157
20
1.0697619291338583
11
0.9824999999999999
21
1.0704527559055117
0
LINE
8
BLACK
6
CONTINUOUS
10
0.9824999999999999
20
1.0704527559055117
11
1.0225
21
1.0704527559055117
0
LINE
8
BLACK
6
CONTINUOUS
10
1.0225
20
1.0704527559055117
11
1.0228835039370079
21
1.0703851181102362
0
LINE
8
BLACK
6
CONTINUOUS
10
1.0259331102362204
20
1.0090668897637796
11
1.0254527559055118
21
1.0079071653543308
0
LINE
8
BLACK
6
CONTINUOUS
10
1.0254527559055118
20
1.0079071653543308
11
1.0254527559055118
21
1.0075000000000001
0
LINE
8
BLACK
6
CONTINUOUS
10
1.0254527559055118
20
1.0075000000000001
11
1.0254023622047244
21
1.0072143700787402
0
LINE
8
BLACK
6
CONTINUOUS
10
1.0254023622047244
20
1.0072143700787402
11
1.0259331102362204
21
1.0059331102362203
0
LINE
8
BLACK
6
CONTINUOUS
10
1.0259331102362204
20
1.0059331102362203
11
1.0275000000000001
21
1.0052840944881889
0
LINE
8
BLACK
6
CONTINUOUS
10
1.0275000000000001
20
1.0052840944881889
11
1.0290668897637796
21
1.0059331102362203
0
LINE
8
BLACK
6
CONTINUOUS
10
1.0290668897637796
20
1.0059331102362203
11
1.029715905511811
21
1.0075000000000001
0
LINE
8
BLACK
6
CONTINUOUS
10
1.029715905511811
20
1.0075000000000001
11
1.0290668897637796
21
1.0090668897637796
0
LINE
8
BLACK
6
CONTINUOUS
10
1.0290668897637796
20
1.0090668897637796
11
1.0275000000000001
21
1.009715905511811
0
LINE
8
BLACK
6
CONTINUOUS
10
1.0275000000000001
20
1.009715905511811
11
1.0259331102362204
21
1.0090668897637796
0
LINE
8
BLACK
6
CONTINUOUS
10
0.9435099212598425
20
1.0702746850393701
11
0.9450571653543307
21
1.0689763779527559
0
LINE
8
BLACK
6
CONTINUOUS
10
0.9450571653543307
20
1.0689763779527559
11
0.9454079133858267
21
1.0669872440944881
0
LINE
8
BLACK
6
CONTINUOUS
10
0.9454079133858267
20
1.0669872440944881
11
0.9443979921259842
21
1.0652380708661418
0
LINE
8
BLACK
6
CONTINUOUS
10
0.9443979921259842
20
1.0652380708661418
11
0.9425
21
1.0645472440944881
0
LINE
8
BLACK
6
CONTINUOUS
10
0.9425
20
1.0645472440944881
11
0.9054527559055118
21
1.0645472440944881
0
LINE
8
BLACK
6
CONTINUOUS
10
0.9054527559055118
20
1.0645472440944881
11
0.9054527559055118
21
1.0104527559055119
0
LINE
8
BLACK
6
CONTINUOUS
10
0.9054527559055118
20
1.0104527559055119
11
0.9425
21
1.0104527559055119
0
LINE
8
BLACK
6
CONTINUOUS
10
0.9425
20
1.0104527559055119
11
0.9435099212598425
21
1.01027468503937
0
LINE
8
BLACK
6
CONTINUOUS
10
0.9435099212598425
20
1.01027468503937
11
0.9450571653543307
21
1.0089763779527559
0
LINE
8
BLACK
6
CONTINUOUS
10
0.9450571653543307
20
1.0089763779527559
11
0.9454079133858267
21
1.0069872440944883
0
LINE
8
BLACK
6
CONTINUOUS
10
0.9454079133858267
20
1.0069872440944883
11
0.9443979921259842
21
1.0052380708661417
0
LINE
8
BLACK
6
CONTINUOUS
10
0.9443979921259842
20
1.0052380708661417
11
0.9425
21
1.0045472440944883
0
LINE
8
BLACK
6
CONTINUOUS
10
0.9425
20
1.0045472440944883
11
0.9025
21
1.0045472440944883
0
LINE
8
BLACK
6
CONTINUOUS
10
0.9025
20
1.0045472440944883
11
0.9021164566929134
21
1.004614842519685
0
LINE
8
BLACK
6
CONTINUOUS
10
0.9021164566929134
20
1.004614842519685
11
0.9019872440944882
21
1.0045920866141731
0
LINE
8
BLACK
6
CONTINUOUS
10
0.9019872440944882
20
1.0045920866141731
11
0.9018736220472441
21
1.0046576771653544
0
LINE
8
BLACK
6
CONTINUOUS
10
0.9018736220472441
20
1.0046576771653544
11
0.9014900787401574
21
1.0047253149606299
0
LINE
8
BLACK
6
CONTINUOUS
10
0.9014900787401574
20
1.0047253149606299
11
0.9009023622047244
21
1.0052184251968503
0
LINE
8
BLACK
6
CONTINUOUS
10
0.9009023622047244
20
1.0052184251968503
11
0.9002380708661417
21
1.0056020078740158
0
LINE
8
BLACK
6
CONTINUOUS
10
0.9002380708661417
20
1.0056020078740158
11
0.9001469291338583
21
1.0058523228346457
0
LINE
8
BLACK
6
CONTINUOUS
10
0.9001469291338583
20
1.0058523228346457
11
0.8999428346456693
21
1.006023622047244
0
LINE
8
BLACK
6
CONTINUOUS
10
0.8999428346456693
20
1.006023622047244
11
0.8998095669291338
21
1.0067791732283464
0
LINE
8
BLACK
6
CONTINUOUS
10
0.8998095669291338
20
1.0067791732283464
11
0.8995472440944882
21
1.0075000000000001
0
LINE
8
BLACK
6
CONTINUOUS
10
0.8995472440944882
20
1.0075000000000001
11
0.8995472440944882
21
1.0674999999999999
0
LINE
8
BLACK
6
CONTINUOUS
10
0.8995472440944882
20
1.0674999999999999
11
0.899614842519685
21
1.0678835039370078
0
LINE
8
BLACK
6
CONTINUOUS
10
0.899614842519685
20
1.0678835039370078
11
0.8995920866141732
21
1.0680127559055117
0
LINE
8
BLACK
6
CONTINUOUS
10
0.8995920866141732
20
1.0680127559055117
11
0.8996576771653543
21
1.0681263385826771
0
LINE
8
BLACK
6
CONTINUOUS
10
0.8996576771653543
20
1.0681263385826771
11
0.8997253149606299
21
1.0685099212598426
0
LINE
8
BLACK
6
CONTINUOUS
10
0.8997253149606299
20
1.0685099212598426
11
0.9002184251968504
21
1.0690975984251969
0
LINE
8
BLACK
6
CONTINUOUS
10
0.9002184251968504
20
1.0690975984251969
11
0.9006020078740157
21
1.0697619291338583
0
LINE
8
BLACK
6
CONTINUOUS
10
0.9006020078740157
20
1.0697619291338583
11
0.9008523228346457
21
1.069853031496063
0
LINE
8
BLACK
6
CONTINUOUS
10
0.9008523228346457
20
1.069853031496063
11
0.9010236220472441
21
1.0700571653543307
0
LINE
8
BLACK
6
CONTINUOUS
10
0.9010236220472441
20
1.0700571653543307
11
0.9017791732283464
21
1.0701903937007873
0
LINE
8
BLACK
6
CONTINUOUS
10
0.9017791732283464
20
1.0701903937007873
11
0.9025
21
1.0704527559055117
0
LINE
8
BLACK
6
CONTINUOUS
10
0.9025
20
1.0704527559055117
11
0.9425
21
1.0704527559055117
0
LINE
8
BLACK
6
CONTINUOUS
10
0.9425
20
1.0704527559055117
11
0.9435099212598425
21
1.0702746850393701
0
LINE
8
BLACK
6
CONTINUOUS
10
1.1072619291338583
20
1.1318979921259842
11
1.1079527559055118
21
1.1299999999999999
0
LINE
8
BLACK
6
CONTINUOUS
10
1.1079527559055118
20
1.1299999999999999
11
1.1079527559055118
21
1.0900000000000001
0
LINE
8
BLACK
6
CONTINUOUS
10
1.1079527559055118
20
1.0900000000000001
11
1.1078851181102363
21
1.0896164566929134
0
LINE
8
BLACK
6
CONTINUOUS
10
1.1078851181102363
20
1.0896164566929134
11
1.1079079133858267
21
1.0894872440944883
0
LINE
8
BLACK
6
CONTINUOUS
10
1.1079079133858267
20
1.0894872440944883
11
1.1078422834645669
21
1.0893736220472441
0
LINE
8
BLACK
6
CONTINUOUS
10
1.1078422834645669
20
1.0893736220472441
11
1.1077746850393702
21
1.0889900787401574
0
LINE
8
BLACK
6
CONTINUOUS
10
1.1077746850393702
20
1.0889900787401574
11
1.107281535433071
21
1.0884023622047243
0
LINE
8
BLACK
6
CONTINUOUS
10
1.107281535433071
20
1.0884023622047243
11
1.1068979921259843
21
1.0877380708661417
0
LINE
8
BLACK
6
CONTINUOUS
10
1.1068979921259843
20
1.0877380708661417
11
1.1066476377952756
21
1.0876469291338582
0
LINE
8
BLACK
6
CONTINUOUS
10
1.1066476377952756
20
1.0876469291338582
11
1.1064763779527558
21
1.0874428346456693
0
LINE
8
BLACK
6
CONTINUOUS
10
1.1064763779527558
20
1.0874428346456693
11
1.1057207874015749
21
1.0873095669291339
0
LINE
8
BLACK
6
CONTINUOUS
10
1.1057207874015749
20
1.0873095669291339
11
1.105
21
1.0870472440944883
0
LINE
8
BLACK
6
CONTINUOUS
10
1.105
20
1.0870472440944883
11
1.0449999999999999
21
1.0870472440944883
0
LINE
8
BLACK
6
CONTINUOUS
10
1.0449999999999999
20
1.0870472440944883
11
1.0446164566929133
21
1.087114842519685
0
LINE
8
BLACK
6
CONTINUOUS
10
1.0446164566929133
20
1.087114842519685
11
1.0444872440944881
21
1.0870920866141731
0
LINE
8
BLACK
6
CONTINUOUS
10
1.0444872440944881
20
1.0870920866141731
11
1.0443736220472442
21
1.0871576771653544
0
LINE
8
BLACK
6
CONTINUOUS
10
1.0443736220472442
20
1.0871576771653544
11
1.0439900787401575
21
1.0872253149606299
0
LINE
8
BLACK
6
CONTINUOUS
10
1.0439900787401575
20
1.0872253149606299
11
1.0434023622047244
21
1.0877184251968504
0
LINE
8
BLACK
6
CONTINUOUS
10
1.0434023622047244
20
1.0877184251968504
11
1.0427380708661418
21
1.0881020078740158
0
LINE
8
BLACK
6
CONTINUOUS
10
1.0427380708661418
20
1.0881020078740158
11
1.0426469291338583
21
1.0883523228346457
0
LINE
8
BLACK
6
CONTINUOUS
10
1.0426469291338583
20
1.0883523228346457
11
1.0424428346456693
21
1.0885236220472441
0
LINE
8
BLACK
6
CONTINUOUS
10
1.0424428346456693
20
1.0885236220472441
11
1.0423095669291338
21
1.0892791732283464
0
LINE
8
BLACK
6
CONTINUOUS
10
1.0423095669291338
20
1.0892791732283464
11
1.0420472440944881
21
1.0900000000000001
0
LINE
8
BLACK
6
CONTINUOUS
10
1.0420472440944881
20
1.0900000000000001
11
1.0420472440944881
21
1.1299999999999999
0
LINE
8
BLACK
6
CONTINUOUS
10
1.0420472440944881
20
1.1299999999999999
11
1.04222531496063
21
1.1310099212598426
0
LINE
8
BLACK
6
CONTINUOUS
10
1.04222531496063
20
1.1310099212598426
11
1.0435236220472441
21
1.1325571653543307
0
LINE
8
BLACK
6
CONTINUOUS
10
1.0435236220472441
20
1.1325571653543307
11
1.0455127559055117
21
1.1329079133858266
0
LINE
8
BLACK
6
CONTINUOUS
10
1.0455127559055117
20
1.1329079133858266
11
1.0472619291338583
21
1.1318979921259842
0
LINE
8
BLACK
6
CONTINUOUS
10
1.0472619291338583
20
1.1318979921259842
11
1.0479527559055117
21
1.1299999999999999
0
LINE
8
BLACK
6
CONTINUOUS
10
1.0479527559055117
20
1.1299999999999999
11
1.0479527559055117
21
1.0929527559055119
0
LINE
8
BLACK
6
CONTINUOUS
10
1.0479527559055117
20
1.0929527559055119
11
1.1020472440944882
21
1.0929527559055119
0
LINE
8
BLACK
6
CONTINUOUS
10
1.1020472440944882
20
1.0929527559055119
11
1.1020472440944882
21
1.1299999999999999
0
LINE
8
BLACK
6
CONTINUOUS
10
1.1020472440944882
20
1.1299999999999999
11
1.1022253149606298
21
1.1310099212598426
0
LINE
8
BLACK
6
CONTINUOUS
10
1.1022253149606298
20
1.1310099212598426
11
1.103523622047244
21
1.1325571653543307
0
LINE
8
BLACK
6
CONTINUOUS
10
1.103523622047244
20
1.1325571653543307
11
1.1055127559055118
21
1.1329079133858266
0
LINE
8
BLACK
6
CONTINUOUS
10
1.1055127559055118
20
1.1329079133858266
11
1.1072619291338583
21
1.1318979921259842
0
LINE
8
BLACK
6
CONTINUOUS
10
0.7788367322834645
20
1.396583031496063
11
0.7795275590551181
21
1.3946850393700787
0
LINE
8
BLACK
6
CONTINUOUS
10
0.7795275590551181
20
1.3946850393700787
11
0.7795275590551181
21
1.3415354330708662
0
LINE
8
BLACK
6
CONTINUOUS
10
0.7795275590551181
20
1.3415354330708662
11
0.7794599212598425
21
1.3411518897637795
0
LINE
8
BLACK
6
CONTINUOUS
10
0.7794599212598425
20
1.3411518897637795
11
0.7794827165354331
21
1.3410226771653544
0
LINE
8
BLACK
6
CONTINUOUS
10
0.7794827165354331
20
1.3410226771653544
11
0.7794170866141732
21
1.3409090551181102
0
LINE
8
BLACK
6
CONTINUOUS
10
0.7794170866141732
20
1.3409090551181102
11
0.7793494881889763
21
1.3405255118110235
0
LINE
8
BLACK
6
CONTINUOUS
10
0.7793494881889763
20
1.3405255118110235
11
0.7788563385826771
21
1.3399377952755904
0
LINE
8
BLACK
6
CONTINUOUS
10
0.7788563385826771
20
1.3399377952755904
11
0.7784727952755905
21
1.3392735039370078
0
LINE
8
BLACK
6
CONTINUOUS
10
0.7784727952755905
20
1.3392735039370078
11
0.7782224409448819
21
1.3391823622047243
0
LINE
8
BLACK
6
CONTINUOUS
10
0.7782224409448819
20
1.3391823622047243
11
0.7780511811023622
21
1.3389782677165354
0
LINE
8
BLACK
6
CONTINUOUS
10
0.7780511811023622
20
1.3389782677165354
11
0.7772955905511811
21
1.3388450000000001
0
LINE
8
BLACK
6
CONTINUOUS
10
0.7772955905511811
20
1.3388450000000001
11
0.7765748031496063
21
1.3385826771653544
0
LINE
8
BLACK
6
CONTINUOUS
10
0.7765748031496063
20
1.3385826771653544
11
0.7746062992125984
21
1.3385826771653544
0
LINE
8
BLACK
6
CONTINUOUS
10
0.7746062992125984
20
1.3385826771653544
11
0.7746062992125984
21
1.1614173228346456
0
LINE
8
BLACK
6
CONTINUOUS
10
0.7746062992125984
20
1.1614173228346456
11
0.780511811023622
21
1.1614173228346456
0
LINE
8
BLACK
6
CONTINUOUS
10
0.780511811023622
20
1.1614173228346456
11
0.7815217322834646
21
1.161239251968504
0
LINE
8
BLACK
6
CONTINUOUS
10
0.7815217322834646
20
1.161239251968504
11
0.7830689763779527
21
1.1599409448818898
0
LINE
8
BLACK
6
CONTINUOUS
10
0.7830689763779527
20
1.1599409448818898
11
0.7834197244094488
21
1.157951811023622
0
LINE
8
BLACK
6
CONTINUOUS
10
0.7834197244094488
20
1.157951811023622
11
0.7824098031496063
21
1.1562026377952757
0
LINE
8
BLACK
6
CONTINUOUS
10
0.7824098031496063
20
1.1562026377952757
11
0.780511811023622
21
1.155511811023622
0
LINE
8
BLACK
6
CONTINUOUS
10
0.780511811023622
20
1.155511811023622
11
0.7716535433070866
21
1.155511811023622
0
LINE
8
BLACK
6
CONTINUOUS
10
0.7716535433070866
20
1.155511811023622
11
0.77127
21
1.1555794094488188
0
LINE
8
BLACK
6
CONTINUOUS
10
0.77127
20
1.1555794094488188
11
0.7711407874015748
21
1.1555566535433071
0
LINE
8
BLACK
6
CONTINUOUS
10
0.7711407874015748
20
1.1555566535433071
11
0.7710271653543307
21
1.1556222440944881
0
LINE
8
BLACK
6
CONTINUOUS
10
0.7710271653543307
20
1.1556222440944881
11
0.7706436220472441
21
1.1556898818897638
0
LINE
8
BLACK
6
CONTINUOUS
10
0.7706436220472441
20
1.1556898818897638
11
0.770055905511811
21
1.1561829921259843
0
LINE
8
BLACK
6
CONTINUOUS
10
0.770055905511811
20
1.1561829921259843
11
0.7693916141732283
21
1.1565665748031495
0
LINE
8
BLACK
6
CONTINUOUS
10
0.7693916141732283
20
1.1565665748031495
11
0.7693004724409449
21
1.1568168897637796
0
LINE
8
BLACK
6
CONTINUOUS
10
0.7693004724409449
20
1.1568168897637796
11
0.7690963779527559
21
1.156988188976378
0
LINE
8
BLACK
6
CONTINUOUS
10
0.7690963779527559
20
1.156988188976378
11
0.7689631102362204
21
1.1577437401574804
0
LINE
8
BLACK
6
CONTINUOUS
10
0.7689631102362204
20
1.1577437401574804
11
0.7687007874015748
21
1.1584645669291338
0
LINE
8
BLACK
6
CONTINUOUS
10
0.7687007874015748
20
1.1584645669291338
11
0.7687007874015748
21
1.3415354330708662
0
LINE
8
BLACK
6
CONTINUOUS
10
0.7687007874015748
20
1.3415354330708662
11
0.7687683858267716
21
1.3419189370078739
0
LINE
8
BLACK
6
CONTINUOUS
10
0.7687683858267716
20
1.3419189370078739
11
0.7687456299212598
21
1.342048188976378
0
LINE
8
BLACK
6
CONTINUOUS
10
0.7687456299212598
20
1.342048188976378
11
0.7688112204724409
21
1.3421617716535432
0
LINE
8
BLACK
6
CONTINUOUS
10
0.7688112204724409
20
1.3421617716535432
11
0.7688788582677165
21
1.3425453543307087
0
LINE
8
BLACK
6
CONTINUOUS
10
0.7688788582677165
20
1.3425453543307087
11
0.769371968503937
21
1.343133031496063
0
LINE
8
BLACK
6
CONTINUOUS
10
0.769371968503937
20
1.343133031496063
11
0.7697555511811024
21
1.3437973622047243
0
LINE
8
BLACK
6
CONTINUOUS
10
0.7697555511811024
20
1.3437973622047243
11
0.7700058661417323
21
1.3438884645669291
0
LINE
8
BLACK
6
CONTINUOUS
10
0.7700058661417323
20
1.3438884645669291
11
0.7701771653543307
21
1.3440925984251968
0
LINE
8
BLACK
6
CONTINUOUS
10
0.7701771653543307
20
1.3440925984251968
11
0.770932716535433
21
1.3442258267716536
0
LINE
8
BLACK
6
CONTINUOUS
10
0.770932716535433
20
1.3442258267716536
11
0.7716535433070866
21
1.344488188976378
0
LINE
8
BLACK
6
CONTINUOUS
10
0.7716535433070866
20
1.344488188976378
11
0.7736220472440944
21
1.344488188976378
0
LINE
8
BLACK
6
CONTINUOUS
10
0.7736220472440944
20
1.344488188976378
11
0.7736220472440944
21
1.3946850393700787
0
LINE
8
BLACK
6
CONTINUOUS
10
0.7736220472440944
20
1.3946850393700787
11
0.7738001181102362
21
1.3956949606299212
0
LINE
8
BLACK
6
CONTINUOUS
10
0.7738001181102362
20
1.3956949606299212
11
0.7750984251968503
21
1.3972422047244095
0
LINE
8
BLACK
6
CONTINUOUS
10
0.7750984251968503
20
1.3972422047244095
11
0.7770875590551181
21
1.3975929527559054
0
LINE
8
BLACK
6
CONTINUOUS
10
0.7770875590551181
20
1.3975929527559054
11
0.7788367322834645
21
1.396583031496063
0
LINE
8
BLACK
6
CONTINUOUS
10
0.9787299606299212
20
1.3444205511811023
11
0.9788592125984251
21
1.3444433464566929
0
LINE
8
BLACK
6
CONTINUOUS
10
0.9788592125984251
20
1.3444433464566929
11
0.9789727952755906
21
1.3443777165354331
0
LINE
8
BLACK
6
CONTINUOUS
10
0.9789727952755906
20
1.3443777165354331
11
0.9793563779527559
21
1.3443101181102362
0
LINE
8
BLACK
6
CONTINUOUS
10
0.9793563779527559
20
1.3443101181102362
11
0.9799440551181102
21
1.3438169685039369
0
LINE
8
BLACK
6
CONTINUOUS
10
0.9799440551181102
20
1.3438169685039369
11
0.9806083858267717
21
1.3434334251968503
0
LINE
8
BLACK
6
CONTINUOUS
10
0.9806083858267717
20
1.3434334251968503
11
0.9806994881889763
21
1.3431830708661416
0
LINE
8
BLACK
6
CONTINUOUS
10
0.9806994881889763
20
1.3431830708661416
11
0.980903622047244
21
1.343011811023622
0
LINE
8
BLACK
6
CONTINUOUS
10
0.980903622047244
20
1.343011811023622
11
0.9810368503937008
21
1.3422562204724409
0
LINE
8
BLACK
6
CONTINUOUS
10
0.9810368503937008
20
1.3422562204724409
11
0.9812992125984251
21
1.3415354330708662
0
LINE
8
BLACK
6
CONTINUOUS
10
0.9812992125984251
20
1.3415354330708662
11
0.9812992125984251
21
1.1584645669291338
0
LINE
8
BLACK
6
CONTINUOUS
10
0.9812992125984251
20
1.1584645669291338
11
0.9812315748031496
21
1.1580810236220471
0
LINE
8
BLACK
6
CONTINUOUS
10
0.9812315748031496
20
1.1580810236220471
11
0.9812543700787402
21
1.157951811023622
0
LINE
8
BLACK
6
CONTINUOUS
10
0.9812543700787402
20
1.157951811023622
11
0.9811887401574803
21
1.157838188976378
0
LINE
8
BLACK
6
CONTINUOUS
10
0.9811887401574803
20
1.157838188976378
11
0.9811211417322835
21
1.1574546456692913
0
LINE
8
BLACK
6
CONTINUOUS
10
0.9811211417322835
20
1.1574546456692913
11
0.9806279921259843
21
1.1568669291338582
0
LINE
8
BLACK
6
CONTINUOUS
10
0.9806279921259843
20
1.1568669291338582
11
0.9802444488188976
21
1.1562026377952757
0
LINE
8
BLACK
6
CONTINUOUS
10
0.9802444488188976
20
1.1562026377952757
11
0.979994094488189
21
1.1561114960629921
0
LINE
8
BLACK
6
CONTINUOUS
10
0.979994094488189
20
1.1561114960629921
11
0.9798228346456692
21
1.1559074015748032
0
LINE
8
BLACK
6
CONTINUOUS
10
0.9798228346456692
20
1.1559074015748032
11
0.9790672440944882
21
1.1557741338582677
0
LINE
8
BLACK
6
CONTINUOUS
10
0.9790672440944882
20
1.1557741338582677
11
0.9783464566929133
21
1.155511811023622
0
LINE
8
BLACK
6
CONTINUOUS
10
0.9783464566929133
20
1.155511811023622
11
0.9694881889763779
21
1.155511811023622
0
LINE
8
BLACK
6
CONTINUOUS
10
0.9694881889763779
20
1.155511811023622
11
0.9684782677165354
21
1.1556898818897638
0
LINE
8
BLACK
6
CONTINUOUS
10
0.9684782677165354
20
1.1556898818897638
11
0.9669310236220472
21
1.156988188976378
0
LINE
8
BLACK
6
CONTINUOUS
10
0.9669310236220472
20
1.156988188976378
11
0.9665802755905512
21
1.1589773228346456
0
LINE
8
BLACK
6
CONTINUOUS
10
0.9665802755905512
20
1.1589773228346456
11
0.9675901968503937
21
1.1607264960629922
0
LINE
8
BLACK
6
CONTINUOUS
10
0.9675901968503937
20
1.1607264960629922
11
0.9694881889763779
21
1.1614173228346456
0
LINE
8
BLACK
6
CONTINUOUS
10
0.9694881889763779
20
1.1614173228346456
11
0.9753937007874015
21
1.1614173228346456
0
LINE
8
BLACK
6
CONTINUOUS
10
0.9753937007874015
20
1.1614173228346456
11
0.9753937007874015
21
1.3385826771653544
0
LINE
8
BLACK
6
CONTINUOUS
10
0.9753937007874015
20
1.3385826771653544
11
0.9694881889763779
21
1.3385826771653544
0
LINE
8
BLACK
6
CONTINUOUS
10
0.9694881889763779
20
1.3385826771653544
11
0.9684782677165354
21
1.338760748031496
0
LINE
8
BLACK
6
CONTINUOUS
10
0.9684782677165354
20
1.338760748031496
11
0.9669310236220472
21
1.3400590551181102
0
LINE
8
BLACK
6
CONTINUOUS
10
0.9669310236220472
20
1.3400590551181102
11
0.9665802755905512
21
1.342048188976378
0
LINE
8
BLACK
6
CONTINUOUS
10
0.9665802755905512
20
1.342048188976378
11
0.9675901968503937
21
1.3437973622047243
0
LINE
8
BLACK
6
CONTINUOUS
10
0.9675901968503937
20
1.3437973622047243
11
0.9694881889763779
21
1.344488188976378
0
LINE
8
BLACK
6
CONTINUOUS
10
0.9694881889763779
20
1.344488188976378
11
0.9783464566929133
21
1.344488188976378
0
LINE
8
BLACK
6
CONTINUOUS
10
0.9783464566929133
20
1.344488188976378
11
0.9787299606299212
21
1.3444205511811023
0
LINE
8
BLACK
6
CONTINUOUS
10
1.1099584645669291
20
1.221217716535433
11
1.1121651968503936
21
1.2184505905511811
0
LINE
8
BLACK
6
CONTINUOUS
10
1.1121651968503936
20
1.2184505905511811
11
1.1129527559055117
21
1.2150000000000001
0
LINE
8
BLACK
6
CONTINUOUS
10
1.1129527559055117
20
1.2150000000000001
11
1.1121651968503936
21
1.2115494094488188
0
LINE
8
BLACK
6
CONTINUOUS
10
1.1121651968503936
20
1.2115494094488188
11
1.1099584645669291
21
1.208782283464567
0
LINE
8
BLACK
6
CONTINUOUS
10
1.1099584645669291
20
1.208782283464567
11
1.1079527559055118
21
1.207816377952756
0
LINE
8
BLACK
6
CONTINUOUS
10
1.1079527559055118
20
1.207816377952756
11
1.1079527559055118
21
1.1699999999999999
0
LINE
8
BLACK
6
CONTINUOUS
10
1.1079527559055118
20
1.1699999999999999
11
1.1077746850393702
21
1.1689900787401575
0
LINE
8
BLACK
6
CONTINUOUS
10
1.1077746850393702
20
1.1689900787401575
11
1.1064763779527558
21
1.1674428346456693
0
LINE
8
BLACK
6
CONTINUOUS
10
1.1064763779527558
20
1.1674428346456693
11
1.1044872440944882
21
1.1670920866141732
0
LINE
8
BLACK
6
CONTINUOUS
10
1.1044872440944882
20
1.1670920866141732
11
1.1027380708661416
21
1.1681020078740156
0
LINE
8
BLACK
6
CONTINUOUS
10
1.1027380708661416
20
1.1681020078740156
11
1.1020472440944882
21
1.1699999999999999
0
LINE
8
BLACK
6
CONTINUOUS
10
1.1020472440944882
20
1.1699999999999999
11
1.1020472440944882
21
1.2070472440944882
0
LINE
8
BLACK
6
CONTINUOUS
10
1.1020472440944882
20
1.2070472440944882
11
1.0479527559055117
21
1.2070472440944882
0
LINE
8
BLACK
6
CONTINUOUS
10
1.0479527559055117
20
1.2070472440944882
11
1.0479527559055117
21
1.1699999999999999
0
LINE
8
BLACK
6
CONTINUOUS
10
1.0479527559055117
20
1.1699999999999999
11
1.0477746850393701
21
1.1689900787401575
0
LINE
8
BLACK
6
CONTINUOUS
10
1.0477746850393701
20
1.1689900787401575
11
1.0464763779527559
21
1.1674428346456693
0
LINE
8
BLACK
6
CONTINUOUS
10
1.0464763779527559
20
1.1674428346456693
11
1.0444872440944881
21
1.1670920866141732
0
LINE
8
BLACK
6
CONTINUOUS
10
1.0444872440944881
20
1.1670920866141732
11
1.0427380708661418
21
1.1681020078740156
0
LINE
8
BLACK
6
CONTINUOUS
10
1.0427380708661418
20
1.1681020078740156
11
1.0420472440944881
21
1.1699999999999999
0
LINE
8
BLACK
6
CONTINUOUS
10
1.0420472440944881
20
1.1699999999999999
11
1.0420472440944881
21
1.21
0
LINE
8
BLACK
6
CONTINUOUS
10
1.0420472440944881
20
1.21
11
1.0421148425196851
21
1.2103835039370079
0
LINE
8
BLACK
6
CONTINUOUS
10
1.0421148425196851
20
1.2103835039370079
11
1.0420920866141732
21
1.2105127559055118
0
LINE
8
BLACK
6
CONTINUOUS
10
1.0420920866141732
20
1.2105127559055118
11
1.0421576771653542
21
1.2106263385826772
0
LINE
8
BLACK
6
CONTINUOUS
10
1.0421576771653542
20
1.2106263385826772
11
1.04222531496063
21
1.2110099212598424
0
LINE
8
BLACK
6
CONTINUOUS
10
1.04222531496063
20
1.2110099212598424
11
1.0427184251968504
21
1.2115975984251968
0
LINE
8
BLACK
6
CONTINUOUS
10
1.0427184251968504
20
1.2115975984251968
11
1.0431020078740156
21
1.2122619291338583
0
LINE
8
BLACK
6
CONTINUOUS
10
1.0431020078740156
20
1.2122619291338583
11
1.0433523228346457
21
1.2123530314960629
0
LINE
8
BLACK
6
CONTINUOUS
10
1.0433523228346457
20
1.2123530314960629
11
1.0435236220472441
21
1.2125571653543308
0
LINE
8
BLACK
6
CONTINUOUS
10
1.0435236220472441
20
1.2125571653543308
11
1.0442791732283465
21
1.2126903937007874
0
LINE
8
BLACK
6
CONTINUOUS
10
1.0442791732283465
20
1.2126903937007874
11
1.0449999999999999
21
1.2129527559055118
0
LINE
8
BLACK
6
CONTINUOUS
10
1.0449999999999999
20
1.2129527559055118
11
1.0975144881889765
21
1.2129527559055118
0
LINE
8
BLACK
6
CONTINUOUS
10
1.0975144881889765
20
1.2129527559055118
11
1.0970472440944881
21
1.2150000000000001
0
LINE
8
BLACK
6
CONTINUOUS
10
1.0970472440944881
20
1.2150000000000001
11
1.0978348031496064
21
1.2184505905511811
0
LINE
8
BLACK
6
CONTINUOUS
10
1.0978348031496064
20
1.2184505905511811
11
1.1000415354330708
21
1.221217716535433
0
LINE
8
BLACK
6
CONTINUOUS
10
1.1000415354330708
20
1.221217716535433
11
1.1032303543307087
21
1.2227533464566929
0
LINE
8
BLACK
6
CONTINUOUS
10
1.1032303543307087
20
1.2227533464566929
11
1.1067696456692913
21
1.2227533464566929
0
LINE
8
BLACK
6
CONTINUOUS
10
1.1067696456692913
20
1.2227533464566929
11
1.1099584645669291
21
1.221217716535433
0
LINE
8
BLACK
6
CONTINUOUS
10
1.1034331102362205
20
1.2134331102362204
11
1.1045927952755905
21
1.2129527559055118
0
LINE
8
BLACK
6
CONTINUOUS
10
1.1045927952755905
20
1.2129527559055118
11
1.105
21
1.2129527559055118
0
LINE
8
BLACK
6
CONTINUOUS
10
1.105
20
1.2129527559055118
11
1.1052855905511811
21
1.2129023622047244
0
LINE
8
BLACK
6
CONTINUOUS
10
1.1052855905511811
20
1.2129023622047244
11
1.1065668897637795
21
1.2134331102362204
0
LINE
8
BLACK
6
CONTINUOUS
10
1.1065668897637795
20
1.2134331102362204
11
1.1072159055118109
21
1.2150000000000001
0
LINE
8
BLACK
6
CONTINUOUS
10
1.1072159055118109
20
1.2150000000000001
11
1.1065668897637795
21
1.2165668897637796
0
LINE
8
BLACK
6
CONTINUOUS
10
1.1065668897637795
20
1.2165668897637796
11
1.105
21
1.217215905511811
0
LINE
8
BLACK
6
CONTINUOUS
10
1.105
20
1.217215905511811
11
1.1034331102362205
21
1.2165668897637796
0
LINE
8
BLACK
6
CONTINUOUS
10
1.1034331102362205
20
1.2165668897637796
11
1.102784094488189
21
1.2150000000000001
0
LINE
8
BLACK
6
CONTINUOUS
10
1.102784094488189
20
1.2150000000000001
11
1.1034331102362205
21
1.2134331102362204
0
LINE
8
BLACK
6
CONTINUOUS
10
0.8715438582677165
20
1.2529977165354331
11
0.8726566929133858
21
1.2513121653543307
0
LINE
8
BLACK
6
CONTINUOUS
10
0.8726566929133858
20
1.2513121653543307
11
0.8724257874015748
21
1.2493056299212597
0
LINE
8
BLACK
6
CONTINUOUS
10
0.8724257874015748
20
1.2493056299212597
11
0.8705510236220472
21
1.2455561023622046
0
LINE
8
BLACK
6
CONTINUOUS
10
0.8705510236220472
20
1.2455561023622046
11
0.8700250787401574
21
1.2448470078740157
0
LINE
8
BLACK
6
CONTINUOUS
10
0.8700250787401574
20
1.2448470078740157
11
0.8699979133858268
21
1.2447887007874014
0
LINE
8
BLACK
6
CONTINUOUS
10
0.8699979133858268
20
1.2447887007874014
11
0.8675395275590551
21
1.24233031496063
0
LINE
8
BLACK
6
CONTINUOUS
10
0.8675395275590551
20
1.24233031496063
11
0.8949535039370079
21
1.24233031496063
0
LINE
8
BLACK
6
CONTINUOUS
10
0.8949535039370079
20
1.24233031496063
11
0.8949535039370079
21
1.2506261417322835
0
LINE
8
BLACK
6
CONTINUOUS
10
0.8949535039370079
20
1.2506261417322835
11
0.8951315748031495
21
1.2516360629921259
0
LINE
8
BLACK
6
CONTINUOUS
10
0.8951315748031495
20
1.2516360629921259
11
0.8964298818897638
21
1.2531833070866141
0
LINE
8
BLACK
6
CONTINUOUS
10
0.8964298818897638
20
1.2531833070866141
11
0.8984190157480315
21
1.2535340551181102
0
LINE
8
BLACK
6
CONTINUOUS
10
0.8984190157480315
20
1.2535340551181102
11
0.900168188976378
21
1.2525241338582678
0
LINE
8
BLACK
6
CONTINUOUS
10
0.900168188976378
20
1.2525241338582678
11
0.9008590157480315
21
1.2506261417322835
0
LINE
8
BLACK
6
CONTINUOUS
10
0.9008590157480315
20
1.2506261417322835
11
0.9008590157480315
21
1.2281289763779528
0
LINE
8
BLACK
6
CONTINUOUS
10
0.9008590157480315
20
1.2281289763779528
11
0.9006809448818898
21
1.2271190551181101
0
LINE
8
BLACK
6
CONTINUOUS
10
0.9006809448818898
20
1.2271190551181101
11
0.8993826377952756
21
1.225571811023622
0
LINE
8
BLACK
6
CONTINUOUS
10
0.8993826377952756
20
1.225571811023622
11
0.8973935039370079
21
1.2252210629921259
0
LINE
8
BLACK
6
CONTINUOUS
10
0.8973935039370079
20
1.2252210629921259
11
0.8956443307086615
21
1.2262309842519685
0
LINE
8
BLACK
6
CONTINUOUS
10
0.8956443307086615
20
1.2262309842519685
11
0.8949535039370079
21
1.2281289763779528
0
LINE
8
BLACK
6
CONTINUOUS
10
0.8949535039370079
20
1.2281289763779528
11
0.8949535039370079
21
1.2364248031496063
0
LINE
8
BLACK
6
CONTINUOUS
10
0.8949535039370079
20
1.2364248031496063
11
0.8585361811023622
21
1.2364248031496063
0
LINE
8
BLACK
6
CONTINUOUS
10
0.8585361811023622
20
1.2364248031496063
11
0.8575262598425196
21
1.236602874015748
0
LINE
8
BLACK
6
CONTINUOUS
10
0.8575262598425196
20
1.236602874015748
11
0.8573961811023622
21
1.2367119685039369
0
LINE
8
BLACK
6
CONTINUOUS
10
0.8573961811023622
20
1.2367119685039369
11
0.8572274409448819
21
1.2367306692913385
0
LINE
8
BLACK
6
CONTINUOUS
10
0.8572274409448819
20
1.2367306692913385
11
0.8566355118110236
21
1.2373502755905512
0
LINE
8
BLACK
6
CONTINUOUS
10
0.8566355118110236
20
1.2373502755905512
11
0.8559790157480315
21
1.2379011811023621
0
LINE
8
BLACK
6
CONTINUOUS
10
0.8559790157480315
20
1.2379011811023621
11
0.8559495275590551
21
1.2380683858267716
0
LINE
8
BLACK
6
CONTINUOUS
10
0.8559495275590551
20
1.2380683858267716
11
0.8558322440944882
21
1.2381911811023623
0
LINE
8
BLACK
6
CONTINUOUS
10
0.8558322440944882
20
1.2381911811023623
11
0.8557770866141732
21
1.2390462992125983
0
LINE
8
BLACK
6
CONTINUOUS
10
0.8557770866141732
20
1.2390462992125983
11
0.8556282677165354
21
1.23989031496063
0
LINE
8
BLACK
6
CONTINUOUS
10
0.8556282677165354
20
1.23989031496063
11
0.8557131496062992
21
1.2400373622047245
0
LINE
8
BLACK
6
CONTINUOUS
10
0.8557131496062992
20
1.2400373622047245
11
0.8557022440944881
21
1.2402067716535432
0
LINE
8
BLACK
6
CONTINUOUS
10
0.8557022440944881
20
1.2402067716535432
11
0.85620968503937
21
1.2408973622047244
0
LINE
8
BLACK
6
CONTINUOUS
10
0.85620968503937
20
1.2408973622047244
11
0.8566381889763779
21
1.2416394881889763
0
LINE
8
BLACK
6
CONTINUOUS
10
0.8566381889763779
20
1.2416394881889763
11
0.8567976771653543
21
1.2416975196850393
0
LINE
8
BLACK
6
CONTINUOUS
10
0.8567976771653543
20
1.2416975196850393
11
0.8568982677165354
21
1.241834409448819
0
LINE
8
BLACK
6
CONTINUOUS
10
0.8568982677165354
20
1.241834409448819
11
0.8622792913385826
21
1.2454217322834646
0
LINE
8
BLACK
6
CONTINUOUS
10
0.8622792913385826
20
1.2454217322834646
11
0.8654832677165354
21
1.2486257086614172
0
LINE
8
BLACK
6
CONTINUOUS
10
0.8654832677165354
20
1.2486257086614172
11
0.8671437401574803
21
1.251946653543307
0
LINE
8
BLACK
6
CONTINUOUS
10
0.8671437401574803
20
1.251946653543307
11
0.8677546456692913
21
1.25277031496063
0
LINE
8
BLACK
6
CONTINUOUS
10
0.8677546456692913
20
1.25277031496063
11
0.8696078346456693
21
1.2535735826771652
0
LINE
8
BLACK
6
CONTINUOUS
10
0.8696078346456693
20
1.2535735826771652
11
0.8715438582677165
21
1.2529977165354331
0
LINE
8
BLACK
6
CONTINUOUS
10
1.1072619291338583
20
1.3068979921259842
11
1.1079527559055118
21
1.3049999999999999
0
LINE
8
BLACK
6
CONTINUOUS
10
1.1079527559055118
20
1.3049999999999999
11
1.1079527559055118
21
1.2649999999999999
0
LINE
8
BLACK
6
CONTINUOUS
10
1.1079527559055118
20
1.2649999999999999
11
1.1078851181102363
21
1.2646164566929134
0
LINE
8
BLACK
6
CONTINUOUS
10
1.1078851181102363
20
1.2646164566929134
11
1.1079079133858267
21
1.2644872440944881
0
LINE
8
BLACK
6
CONTINUOUS
10
1.1079079133858267
20
1.2644872440944881
11
1.1078422834645669
21
1.2643736220472441
0
LINE
8
BLACK
6
CONTINUOUS
10
1.1078422834645669
20
1.2643736220472441
11
1.1077746850393702
21
1.2639900787401575
0
LINE
8
BLACK
6
CONTINUOUS
10
1.1077746850393702
20
1.2639900787401575
11
1.107281535433071
21
1.2634023622047243
0
LINE
8
BLACK
6
CONTINUOUS
10
1.107281535433071
20
1.2634023622047243
11
1.1068979921259843
21
1.2627380708661418
0
LINE
8
BLACK
6
CONTINUOUS
10
1.1068979921259843
20
1.2627380708661418
11
1.1066476377952756
21
1.2626469291338582
0
LINE
8
BLACK
6
CONTINUOUS
10
1.1066476377952756
20
1.2626469291338582
11
1.1064763779527558
21
1.2624428346456693
0
LINE
8
BLACK
6
CONTINUOUS
10
1.1064763779527558
20
1.2624428346456693
11
1.1057207874015749
21
1.2623095669291338
0
LINE
8
BLACK
6
CONTINUOUS
10
1.1057207874015749
20
1.2623095669291338
11
1.105
21
1.2620472440944881
0
LINE
8
BLACK
6
CONTINUOUS
10
1.105
20
1.2620472440944881
11
1.0449999999999999
21
1.2620472440944881
0
LINE
8
BLACK
6
CONTINUOUS
10
1.0449999999999999
20
1.2620472440944881
11
1.0446164566929133
21
1.2621148425196851
0
LINE
8
BLACK
6
CONTINUOUS
10
1.0446164566929133
20
1.2621148425196851
11
1.0444872440944881
21
1.2620920866141732
0
LINE
8
BLACK
6
CONTINUOUS
10
1.0444872440944881
20
1.2620920866141732
11
1.0443736220472442
21
1.2621576771653542
0
LINE
8
BLACK
6
CONTINUOUS
10
1.0443736220472442
20
1.2621576771653542
11
1.0439900787401575
21
1.26222531496063
0
LINE
8
BLACK
6
CONTINUOUS
10
1.0439900787401575
20
1.26222531496063
11
1.0434023622047244
21
1.2627184251968504
0
LINE
8
BLACK
6
CONTINUOUS
10
1.0434023622047244
20
1.2627184251968504
11
1.0427380708661418
21
1.2631020078740156
0
LINE
8
BLACK
6
CONTINUOUS
10
1.0427380708661418
20
1.2631020078740156
11
1.0426469291338583
21
1.2633523228346457
0
LINE
8
BLACK
6
CONTINUOUS
10
1.0426469291338583
20
1.2633523228346457
11
1.0424428346456693
21
1.2635236220472441
0
LINE
8
BLACK
6
CONTINUOUS
10
1.0424428346456693
20
1.2635236220472441
11
1.0423095669291338
21
1.2642791732283465
0
LINE
8
BLACK
6
CONTINUOUS
10
1.0423095669291338
20
1.2642791732283465
11
1.0420472440944881
21
1.2649999999999999
0
LINE
8
BLACK
6
CONTINUOUS
10
1.0420472440944881
20
1.2649999999999999
11
1.0420472440944881
21
1.3049999999999999
0
LINE
8
BLACK
6
CONTINUOUS
10
1.0420472440944881
20
1.3049999999999999
11
1.04222531496063
21
1.3060099212598424
0
LINE
8
BLACK
6
CONTINUOUS
10
1.04222531496063
20
1.3060099212598424
11
1.0435236220472441
21
1.3075571653543308
0
LINE
8
BLACK
6
CONTINUOUS
10
1.0435236220472441
20
1.3075571653543308
11
1.0455127559055117
21
1.3079079133858267
0
LINE
8
BLACK
6
CONTINUOUS
10
1.0455127559055117
20
1.3079079133858267
11
1.0472619291338583
21
1.3068979921259842
0
LINE
8
BLACK
6
CONTINUOUS
10
1.0472619291338583
20
1.3068979921259842
11
1.0479527559055117
21
1.3049999999999999
0
LINE
8
BLACK
6
CONTINUOUS
10
1.0479527559055117
20
1.3049999999999999
11
1.0479527559055117
21
1.2679527559055117
0
LINE
8
BLACK
6
CONTINUOUS
10
1.0479527559055117
20
1.2679527559055117
11
1.1020472440944882
21
1.2679527559055117
0
LINE
8
BLACK
6
CONTINUOUS
10
1.1020472440944882
20
1.2679527559055117
11
1.1020472440944882
21
1.3049999999999999
0
LINE
8
BLACK
6
CONTINUOUS
10
1.1020472440944882
20
1.3049999999999999
11
1.1022253149606298
21
1.3060099212598424
0
LINE
8
BLACK
6
CONTINUOUS
10
1.1022253149606298
20
1.3060099212598424
11
1.103523622047244
21
1.3075571653543308
0
LINE
8
BLACK
6
CONTINUOUS
10
1.103523622047244
20
1.3075571653543308
11
1.1055127559055118
21
1.3079079133858267
0
LINE
8
BLACK
6
CONTINUOUS
10
1.1055127559055118
20
1.3079079133858267
11
1.1072619291338583
21
1.3068979921259842
0
LINE
8
BLACK
6
CONTINUOUS
10
0.8914170866141732
20
1.2927709055118111
11
0.8915523228346457
21
1.2926574015748031
0
LINE
8
BLACK
6
CONTINUOUS
10
0.8915523228346457
20
1.2926574015748031
11
0.8917276771653543
21
1.2926372440944882
0
LINE
8
BLACK
6
CONTINUOUS
10
0.8917276771653543
20
1.2926372440944882
11
0.8954772047244094
21
1.2907624803149607
0
LINE
8
BLACK
6
CONTINUOUS
10
0.8954772047244094
20
1.2907624803149607
11
0.8961861811023621
21
1.2902366141732282
0
LINE
8
BLACK
6
CONTINUOUS
10
0.8961861811023621
20
1.2902366141732282
11
0.8962445669291338
21
1.2902094094488188
0
LINE
8
BLACK
6
CONTINUOUS
10
0.8962445669291338
20
1.2902094094488188
11
0.8981193700787401
21
1.2883346456692912
0
LINE
8
BLACK
6
CONTINUOUS
10
0.8981193700787401
20
1.2883346456692912
11
0.8986257480314961
21
1.2876114566929133
0
LINE
8
BLACK
6
CONTINUOUS
10
0.8986257480314961
20
1.2876114566929133
11
0.8986725196850394
21
1.2875672047244093
0
LINE
8
BLACK
6
CONTINUOUS
10
0.8986725196850394
20
1.2875672047244093
11
0.9005472834645669
21
1.2838176771653542
0
LINE
8
BLACK
6
CONTINUOUS
10
0.9005472834645669
20
1.2838176771653542
11
0.9008396456692913
21
1.2828347637795274
0
LINE
8
BLACK
6
CONTINUOUS
10
0.9008396456692913
20
1.2828347637795274
11
0.900798622047244
21
1.282663031496063
0
LINE
8
BLACK
6
CONTINUOUS
10
0.900798622047244
20
1.282663031496063
11
0.9008590157480315
21
1.2824971653543307
0
LINE
8
BLACK
6
CONTINUOUS
10
0.9008590157480315
20
1.2824971653543307
11
0.9008590157480315
21
1.2749981102362204
0
LINE
8
BLACK
6
CONTINUOUS
10
0.9008590157480315
20
1.2749981102362204
11
0.9006809448818898
21
1.273988188976378
0
LINE
8
BLACK
6
CONTINUOUS
10
0.9006809448818898
20
1.273988188976378
11
0.9005674409448818
21
1.2738529133858267
0
LINE
8
BLACK
6
CONTINUOUS
10
0.9005674409448818
20
1.2738529133858267
11
0.9005472834645669
21
1.2736775984251969
0
LINE
8
BLACK
6
CONTINUOUS
10
0.9005472834645669
20
1.2736775984251969
11
0.8986725196850394
21
1.2699280708661418
0
LINE
8
BLACK
6
CONTINUOUS
10
0.8986725196850394
20
1.2699280708661418
11
0.8981465354330709
21
1.2692189370078739
0
LINE
8
BLACK
6
CONTINUOUS
10
0.8981465354330709
20
1.2692189370078739
11
0.8981193700787401
21
1.2691606299212599
0
LINE
8
BLACK
6
CONTINUOUS
10
0.8981193700787401
20
1.2691606299212599
11
0.8962445669291338
21
1.2672858661417323
0
LINE
8
BLACK
6
CONTINUOUS
10
0.8962445669291338
20
1.2672858661417323
11
0.8955214960629921
21
1.2667795669291337
0
LINE
8
BLACK
6
CONTINUOUS
10
0.8955214960629921
20
1.2667795669291337
11
0.8954772047244094
21
1.2667327952755905
0
LINE
8
BLACK
6
CONTINUOUS
10
0.8954772047244094
20
1.2667327952755905
11
0.8917276771653543
21
1.2648580314960629
0
LINE
8
BLACK
6
CONTINUOUS
10
0.8917276771653543
20
1.2648580314960629
11
0.8907447244094489
21
1.2645656692913385
0
LINE
8
BLACK
6
CONTINUOUS
10
0.8907447244094489
20
1.2645656692913385
11
0.8905730314960629
21
1.2646066535433071
0
LINE
8
BLACK
6
CONTINUOUS
10
0.8905730314960629
20
1.2646066535433071
11
0.8904071653543307
21
1.2645462992125984
0
LINE
8
BLACK
6
CONTINUOUS
10
0.8904071653543307
20
1.2645462992125984
11
0.8585361811023622
21
1.2645462992125984
0
LINE
8
BLACK
6
CONTINUOUS
10
0.8585361811023622
20
1.2645462992125984
11
0.8575262598425196
21
1.2647243700787401
0
LINE
8
BLACK
6
CONTINUOUS
10
0.8575262598425196
20
1.2647243700787401
11
0.8559790157480315
21
1.2660226771653542
0
LINE
8
BLACK
6
CONTINUOUS
10
0.8559790157480315
20
1.2660226771653542
11
0.8556282677165354
21
1.268011811023622
0
LINE
8
BLACK
6
CONTINUOUS
10
0.8556282677165354
20
1.268011811023622
11
0.8566381889763779
21
1.2697609842519684
0
LINE
8
BLACK
6
CONTINUOUS
10
0.8566381889763779
20
1.2697609842519684
11
0.8585361811023622
21
1.270451811023622
0
LINE
8
BLACK
6
CONTINUOUS
10
0.8585361811023622
20
1.270451811023622
11
0.8897101181102361
21
1.270451811023622
0
LINE
8
BLACK
6
CONTINUOUS
10
0.8897101181102361
20
1.270451811023622
11
0.8924075984251968
21
1.2718005511811024
0
LINE
8
BLACK
6
CONTINUOUS
10
0.8924075984251968
20
1.2718005511811024
11
0.8936047637795276
21
1.2729976771653544
0
LINE
8
BLACK
6
CONTINUOUS
10
0.8936047637795276
20
1.2729976771653544
11
0.8949535039370079
21
1.275695157480315
0
LINE
8
BLACK
6
CONTINUOUS
10
0.8949535039370079
20
1.275695157480315
11
0.8949535039370079
21
1.2818001181102361
0
LINE
8
BLACK
6
CONTINUOUS
10
0.8949535039370079
20
1.2818001181102361
11
0.8936047637795276
21
1.284497559055118
0
LINE
8
BLACK
6
CONTINUOUS
10
0.8936047637795276
20
1.284497559055118
11
0.8924075984251968
21
1.28569468503937
0
LINE
8
BLACK
6
CONTINUOUS
10
0.8924075984251968
20
1.28569468503937
11
0.8897101181102361
21
1.2870434645669291
0
LINE
8
BLACK
6
CONTINUOUS
10
0.8897101181102361
20
1.2870434645669291
11
0.8585361811023622
21
1.2870434645669291
0
LINE
8
BLACK
6
CONTINUOUS
10
0.8585361811023622
20
1.2870434645669291
11
0.8575262598425196
21
1.2872215354330709
0
LINE
8
BLACK
6
CONTINUOUS
10
0.8575262598425196
20
1.2872215354330709
11
0.8559790157480315
21
1.2885198425196851
0
LINE
8
BLACK
6
CONTINUOUS
10
0.8559790157480315
20
1.2885198425196851
11
0.8556282677165354
21
1.2905089763779527
0
LINE
8
BLACK
6
CONTINUOUS
10
0.8556282677165354
20
1.2905089763779527
11
0.8566381889763779
21
1.2922581496062993
0
LINE
8
BLACK
6
CONTINUOUS
10
0.8566381889763779
20
1.2922581496062993
11
0.8585361811023622
21
1.2929489763779527
0
LINE
8
BLACK
6
CONTINUOUS
10
0.8585361811023622
20
1.2929489763779527
11
0.8904071653543307
21
1.2929489763779527
0
LINE
8
BLACK
6
CONTINUOUS
10
0.8904071653543307
20
1.2929489763779527
11
0.8914170866141732
21
1.2927709055118111
0
LINE
8
BLACK
6
CONTINUOUS
10
1.1099584645669291
20
1.396217716535433
11
1.1121651968503936
21
1.3934505905511811
0
LINE
8
BLACK
6
CONTINUOUS
10
1.1121651968503936
20
1.3934505905511811
11
1.1129527559055117
21
1.3899999999999999
0
LINE
8
BLACK
6
CONTINUOUS
10
1.1129527559055117
20
1.3899999999999999
11
1.1121651968503936
21
1.3865494094488189
0
LINE
8
BLACK
6
CONTINUOUS
10
1.1121651968503936
20
1.3865494094488189
11
1.1099584645669291
21
1.383782283464567
0
LINE
8
BLACK
6
CONTINUOUS
10
1.1099584645669291
20
1.383782283464567
11
1.1079527559055118
21
1.3828163779527558
0
LINE
8
BLACK
6
CONTINUOUS
10
1.1079527559055118
20
1.3828163779527558
11
1.1079527559055118
21
1.345
0
LINE
8
BLACK
6
CONTINUOUS
10
1.1079527559055118
20
1.345
11
1.1077746850393702
21
1.3439900787401575
0
LINE
8
BLACK
6
CONTINUOUS
10
1.1077746850393702
20
1.3439900787401575
11
1.1064763779527558
21
1.3424428346456692
0
LINE
8
BLACK
6
CONTINUOUS
10
1.1064763779527558
20
1.3424428346456692
11
1.1044872440944882
21
1.3420920866141732
0
LINE
8
BLACK
6
CONTINUOUS
10
1.1044872440944882
20
1.3420920866141732
11
1.1027380708661416
21
1.3431020078740157
0
LINE
8
BLACK
6
CONTINUOUS
10
1.1027380708661416
20
1.3431020078740157
11
1.1020472440944882
21
1.345
0
LINE
8
BLACK
6
CONTINUOUS
10
1.1020472440944882
20
1.345
11
1.1020472440944882
21
1.3820472440944882
0
LINE
8
BLACK
6
CONTINUOUS
10
1.1020472440944882
20
1.3820472440944882
11
1.0479527559055117
21
1.3820472440944882
0
LINE
8
BLACK
6
CONTINUOUS
10
1.0479527559055117
20
1.3820472440944882
11
1.0479527559055117
21
1.345
0
LINE
8
BLACK
6
CONTINUOUS
10
1.0479527559055117
20
1.345
11
1.0477746850393701
21
1.3439900787401575
0
LINE
8
BLACK
6
CONTINUOUS
10
1.0477746850393701
20
1.3439900787401575
11
1.0464763779527559
21
1.3424428346456692
0
LINE
8
BLACK
6
CONTINUOUS
10
1.0464763779527559
20
1.3424428346456692
11
1.0444872440944881
21
1.3420920866141732
0
LINE
8
BLACK
6
CONTINUOUS
10
1.0444872440944881
20
1.3420920866141732
11
1.0427380708661418
21
1.3431020078740157
0
LINE
8
BLACK
6
CONTINUOUS
10
1.0427380708661418
20
1.3431020078740157
11
1.0420472440944881
21
1.345
0
LINE
8
BLACK
6
CONTINUOUS
10
1.0420472440944881
20
1.345
11
1.0420472440944881
21
1.385
0
LINE
8
BLACK
6
CONTINUOUS
10
1.0420472440944881
20
1.385
11
1.0421148425196851
21
1.3853835039370079
0
LINE
8
BLACK
6
CONTINUOUS
10
1.0421148425196851
20
1.3853835039370079
11
1.0420920866141732
21
1.3855127559055118
0
LINE
8
BLACK
6
CONTINUOUS
10
1.0420920866141732
20
1.3855127559055118
11
1.0421576771653542
21
1.385626338582677
0
LINE
8
BLACK
6
CONTINUOUS
10
1.0421576771653542
20
1.385626338582677
11
1.04222531496063
21
1.3860099212598425
0
LINE
8
BLACK
6
CONTINUOUS
10
1.04222531496063
20
1.3860099212598425
11
1.0427184251968504
21
1.3865975984251968
0
LINE
8
BLACK
6
CONTINUOUS
10
1.0427184251968504
20
1.3865975984251968
11
1.0431020078740156
21
1.3872619291338582
0
LINE
8
BLACK
6
CONTINUOUS
10
1.0431020078740156
20
1.3872619291338582
11
1.0433523228346457
21
1.3873530314960629
0
LINE
8
BLACK
6
CONTINUOUS
10
1.0433523228346457
20
1.3873530314960629
11
1.0435236220472441
21
1.3875571653543306
0
LINE
8
BLACK
6
CONTINUOUS
10
1.0435236220472441
20
1.3875571653543306
11
1.0442791732283465
21
1.3876903937007874
0
LINE
8
BLACK
6
CONTINUOUS
10
1.0442791732283465
20
1.3876903937007874
11
1.0449999999999999
21
1.3879527559055118
0
LINE
8
BLACK
6
CONTINUOUS
10
1.0449999999999999
20
1.3879527559055118
11
1.0975144881889765
21
1.3879527559055118
0
LINE
8
BLACK
6
CONTINUOUS
10
1.0975144881889765
20
1.3879527559055118
11
1.0970472440944881
21
1.3899999999999999
0
LINE
8
BLACK
6
CONTINUOUS
10
1.0970472440944881
20
1.3899999999999999
11
1.0978348031496064
21
1.3934505905511811
0
LINE
8
BLACK
6
CONTINUOUS
10
1.0978348031496064
20
1.3934505905511811
11
1.1000415354330708
21
1.396217716535433
0
LINE
8
BLACK
6
CONTINUOUS
10
1.1000415354330708
20
1.396217716535433
11
1.1032303543307087
21
1.3977533464566929
0
LINE
8
BLACK
6
CONTINUOUS
10
1.1032303543307087
20
1.3977533464566929
11
1.1067696456692913
21
1.3977533464566929
0
LINE
8
BLACK
6
CONTINUOUS
10
1.1067696456692913
20
1.3977533464566929
11
1.1099584645669291
21
1.396217716535433
0
LINE
8
BLACK
6
CONTINUOUS
10
1.1034331102362205
20
1.3884331102362204
11
1.1045927952755905
21
1.3879527559055118
0
LINE
8
BLACK
6
CONTINUOUS
10
1.1045927952755905
20
1.3879527559055118
11
1.105
21
1.3879527559055118
0
LINE
8
BLACK
6
CONTINUOUS
10
1.105
20
1.3879527559055118
11
1.1052855905511811
21
1.3879023622047244
0
LINE
8
BLACK
6
CONTINUOUS
10
1.1052855905511811
20
1.3879023622047244
11
1.1065668897637795
21
1.3884331102362204
0
LINE
8
BLACK
6
CONTINUOUS
10
1.1065668897637795
20
1.3884331102362204
11
1.1072159055118109
21
1.3899999999999999
0
LINE
8
BLACK
6
CONTINUOUS
10
1.1072159055118109
20
1.3899999999999999
11
1.1065668897637795
21
1.3915668897637794
0
LINE
8
BLACK
6
CONTINUOUS
10
1.1065668897637795
20
1.3915668897637794
11
1.105
21
1.3922159055118111
0
LINE
8
BLACK
6
CONTINUOUS
10
1.105
20
1.3922159055118111
11
1.1034331102362205
21
1.3915668897637794
0
LINE
8
BLACK
6
CONTINUOUS
10
1.1034331102362205
20
1.3915668897637794
11
1.102784094488189
21
1.3899999999999999
0
LINE
8
BLACK
6
CONTINUOUS
10
1.102784094488189
20
1.3899999999999999
11
1.1034331102362205
21
1.3884331102362204
0
LINE
8
BLACK
6
CONTINUOUS
10
1.1072619291338583
20
1.4568979921259841
11
1.1079527559055118
21
1.4550000000000001
0
LINE
8
BLACK
6
CONTINUOUS
10
1.1079527559055118
20
1.4550000000000001
11
1.1079527559055118
21
1.415
0
LINE
8
BLACK
6
CONTINUOUS
10
1.1079527559055118
20
1.415
11
1.1078851181102363
21
1.4146164566929134
0
LINE
8
BLACK
6
CONTINUOUS
10
1.1078851181102363
20
1.4146164566929134
11
1.1079079133858267
21
1.4144872440944882
0
LINE
8
BLACK
6
CONTINUOUS
10
1.1079079133858267
20
1.4144872440944882
11
1.1078422834645669
21
1.414373622047244
0
LINE
8
BLACK
6
CONTINUOUS
10
1.1078422834645669
20
1.414373622047244
11
1.1077746850393702
21
1.4139900787401574
0
LINE
8
BLACK
6
CONTINUOUS
10
1.1077746850393702
20
1.4139900787401574
11
1.107281535433071
21
1.4134023622047245
0
LINE
8
BLACK
6
CONTINUOUS
10
1.107281535433071
20
1.4134023622047245
11
1.1068979921259843
21
1.4127380708661417
0
LINE
8
BLACK
6
CONTINUOUS
10
1.1068979921259843
20
1.4127380708661417
11
1.1066476377952756
21
1.4126469291338581
0
LINE
8
BLACK
6
CONTINUOUS
10
1.1066476377952756
20
1.4126469291338581
11
1.1064763779527558
21
1.4124428346456692
0
LINE
8
BLACK
6
CONTINUOUS
10
1.1064763779527558
20
1.4124428346456692
11
1.1057207874015749
21
1.4123095669291339
0
LINE
8
BLACK
6
CONTINUOUS
10
1.1057207874015749
20
1.4123095669291339
11
1.105
21
1.4120472440944882
0
LINE
8
BLACK
6
CONTINUOUS
10
1.105
20
1.4120472440944882
11
1.0449999999999999
21
1.4120472440944882
0
LINE
8
BLACK
6
CONTINUOUS
10
1.0449999999999999
20
1.4120472440944882
11
1.0446164566929133
21
1.412114842519685
0
LINE
8
BLACK
6
CONTINUOUS
10
1.0446164566929133
20
1.412114842519685
11
1.0444872440944881
21
1.4120920866141733
0
LINE
8
BLACK
6
CONTINUOUS
10
1.0444872440944881
20
1.4120920866141733
11
1.0443736220472442
21
1.4121576771653543
0
LINE
8
BLACK
6
CONTINUOUS
10
1.0443736220472442
20
1.4121576771653543
11
1.0439900787401575
21
1.4122253149606299
0
LINE
8
BLACK
6
CONTINUOUS
10
1.0439900787401575
20
1.4122253149606299
11
1.0434023622047244
21
1.4127184251968503
0
LINE
8
BLACK
6
CONTINUOUS
10
1.0434023622047244
20
1.4127184251968503
11
1.0427380708661418
21
1.4131020078740157
0
LINE
8
BLACK
6
CONTINUOUS
10
1.0427380708661418
20
1.4131020078740157
11
1.0426469291338583
21
1.4133523228346456
0
LINE
8
BLACK
6
CONTINUOUS
10
1.0426469291338583
20
1.4133523228346456
11
1.0424428346456693
21
1.413523622047244
0
LINE
8
BLACK
6
CONTINUOUS
10
1.0424428346456693
20
1.413523622047244
11
1.0423095669291338
21
1.4142791732283464
0
LINE
8
BLACK
6
CONTINUOUS
10
1.0423095669291338
20
1.4142791732283464
11
1.0420472440944881
21
1.415
0
LINE
8
BLACK
6
CONTINUOUS
10
1.0420472440944881
20
1.415
11
1.0420472440944881
21
1.4550000000000001
0
LINE
8
BLACK
6
CONTINUOUS
10
1.0420472440944881
20
1.4550000000000001
11
1.04222531496063
21
1.4560099212598425
0
LINE
8
BLACK
6
CONTINUOUS
10
1.04222531496063
20
1.4560099212598425
11
1.0435236220472441
21
1.4575571653543307
0
LINE
8
BLACK
6
CONTINUOUS
10
1.0435236220472441
20
1.4575571653543307
11
1.0455127559055117
21
1.4579079133858268
0
LINE
8
BLACK
6
CONTINUOUS
10
1.0455127559055117
20
1.4579079133858268
11
1.0472619291338583
21
1.4568979921259841
0
LINE
8
BLACK
6
CONTINUOUS
10
1.0472619291338583
20
1.4568979921259841
11
1.0479527559055117
21
1.4550000000000001
0
LINE
8
BLACK
6
CONTINUOUS
10
1.0479527559055117
20
1.4550000000000001
11
1.0479527559055117
21
1.4179527559055118
0
LINE
8
BLACK
6
CONTINUOUS
10
1.0479527559055117
20
1.4179527559055118
11
1.1020472440944882
21
1.4179527559055118
0
LINE
8
BLACK
6
CONTINUOUS
10
1.1020472440944882
20
1.4179527559055118
11
1.1020472440944882
21
1.4550000000000001
0
LINE
8
BLACK
6
CONTINUOUS
10
1.1020472440944882
20
1.4550000000000001
11
1.1022253149606298
21
1.4560099212598425
0
LINE
8
BLACK
6
CONTINUOUS
10
1.1022253149606298
20
1.4560099212598425
11
1.103523622047244
21
1.4575571653543307
0
LINE
8
BLACK
6
CONTINUOUS
10
1.103523622047244
20
1.4575571653543307
11
1.1055127559055118
21
1.4579079133858268
0
LINE
8
BLACK
6
CONTINUOUS
10
1.1055127559055118
20
1.4579079133858268
11
1.1072619291338583
21
1.4568979921259841
0
LINE
8
BLACK
6
CONTINUOUS
10
0.7572619291338583
20
1.4818979921259843
11
0.7579527559055118
21
1.48
0
LINE
8
BLACK
6
CONTINUOUS
10
0.7579527559055118
20
1.48
11
0.7579527559055118
21
1.4399999999999999
0
LINE
8
BLACK
6
CONTINUOUS
10
0.7579527559055118
20
1.4399999999999999
11
0.7578851181102362
21
1.4396164566929133
0
LINE
8
BLACK
6
CONTINUOUS
10
0.7578851181102362
20
1.4396164566929133
11
0.7579079133858267
21
1.4394872440944881
0
LINE
8
BLACK
6
CONTINUOUS
10
0.7579079133858267
20
1.4394872440944881
11
0.7578422834645669
21
1.4393736220472442
0
LINE
8
BLACK
6
CONTINUOUS
10
0.7578422834645669
20
1.4393736220472442
11
0.7577746850393701
21
1.4389900787401575
0
LINE
8
BLACK
6
CONTINUOUS
10
0.7577746850393701
20
1.4389900787401575
11
0.7572815354330709
21
1.4384023622047244
0
LINE
8
BLACK
6
CONTINUOUS
10
0.7572815354330709
20
1.4384023622047244
11
0.7568979921259842
21
1.4377380708661418
0
LINE
8
BLACK
6
CONTINUOUS
10
0.7568979921259842
20
1.4377380708661418
11
0.7566476377952756
21
1.4376469291338583
0
LINE
8
BLACK
6
CONTINUOUS
10
0.7566476377952756
20
1.4376469291338583
11
0.7564763779527559
21
1.4374428346456694
0
LINE
8
BLACK
6
CONTINUOUS
10
0.7564763779527559
20
1.4374428346456694
11
0.7557207874015748
21
1.4373095669291338
0
LINE
8
BLACK
6
CONTINUOUS
10
0.7557207874015748
20
1.4373095669291338
11
0.755
21
1.4370472440944881
0
LINE
8
BLACK
6
CONTINUOUS
10
0.755
20
1.4370472440944881
11
0.7024855118110236
21
1.4370472440944881
0
LINE
8
BLACK
6
CONTINUOUS
10
0.7024855118110236
20
1.4370472440944881
11
0.7029527559055118
21
1.4350000000000001
0
LINE
8
BLACK
6
CONTINUOUS
10
0.7029527559055118
20
1.4350000000000001
11
0.7021651968503937
21
1.4315494094488188
0
LINE
8
BLACK
6
CONTINUOUS
10
0.7021651968503937
20
1.4315494094488188
11
0.6999584645669291
21
1.4287822834645669
0
LINE
8
BLACK
6
CONTINUOUS
10
0.6999584645669291
20
1.4287822834645669
11
0.6967696456692913
21
1.427246653543307
0
LINE
8
BLACK
6
CONTINUOUS
10
0.6967696456692913
20
1.427246653543307
11
0.6932303543307087
21
1.427246653543307
0
LINE
8
BLACK
6
CONTINUOUS
10
0.6932303543307087
20
1.427246653543307
11
0.6900415354330709
21
1.4287822834645669
0
LINE
8
BLACK
6
CONTINUOUS
10
0.6900415354330709
20
1.4287822834645669
11
0.6878348031496063
21
1.4315494094488188
0
LINE
8
BLACK
6
CONTINUOUS
10
0.6878348031496063
20
1.4315494094488188
11
0.6870472440944881
21
1.4350000000000001
0
LINE
8
BLACK
6
CONTINUOUS
10
0.6870472440944881
20
1.4350000000000001
11
0.6878348031496063
21
1.4384505905511811
0
LINE
8
BLACK
6
CONTINUOUS
10
0.6878348031496063
20
1.4384505905511811
11
0.6900415354330709
21
1.441217716535433
0
LINE
8
BLACK
6
CONTINUOUS
10
0.6900415354330709
20
1.441217716535433
11
0.6920472440944881
21
1.4421835826771654
0
LINE
8
BLACK
6
CONTINUOUS
10
0.6920472440944881
20
1.4421835826771654
11
0.6920472440944881
21
1.48
0
LINE
8
BLACK
6
CONTINUOUS
10
0.6920472440944881
20
1.48
11
0.6922253149606299
21
1.4810099212598424
0
LINE
8
BLACK
6
CONTINUOUS
10
0.6922253149606299
20
1.4810099212598424
11
0.693523622047244
21
1.4825571653543306
0
LINE
8
BLACK
6
CONTINUOUS
10
0.693523622047244
20
1.4825571653543306
11
0.6955127559055118
21
1.4829079133858267
0
LINE
8
BLACK
6
CONTINUOUS
10
0.6955127559055118
20
1.4829079133858267
11
0.6972619291338582
21
1.4818979921259843
0
LINE
8
BLACK
6
CONTINUOUS
10
0.6972619291338582
20
1.4818979921259843
11
0.6979527559055118
21
1.48
0
LINE
8
BLACK
6
CONTINUOUS
10
0.6979527559055118
20
1.48
11
0.6979527559055118
21
1.4429527559055118
0
LINE
8
BLACK
6
CONTINUOUS
10
0.6979527559055118
20
1.4429527559055118
11
0.7520472440944882
21
1.4429527559055118
0
LINE
8
BLACK
6
CONTINUOUS
10
0.7520472440944882
20
1.4429527559055118
11
0.7520472440944882
21
1.48
0
LINE
8
BLACK
6
CONTINUOUS
10
0.7520472440944882
20
1.48
11
0.7522253149606299
21
1.4810099212598424
0
LINE
8
BLACK
6
CONTINUOUS
10
0.7522253149606299
20
1.4810099212598424
11
0.7535236220472441
21
1.4825571653543306
0
LINE
8
BLACK
6
CONTINUOUS
10
0.7535236220472441
20
1.4825571653543306
11
0.7555127559055118
21
1.4829079133858267
0
LINE
8
BLACK
6
CONTINUOUS
10
0.7555127559055118
20
1.4829079133858267
11
0.7572619291338583
21
1.4818979921259843
0
LINE
8
BLACK
6
CONTINUOUS
10
0.6934331102362205
20
1.4334331102362203
11
0.695
21
1.4327840944881889
0
LINE
8
BLACK
6
CONTINUOUS
10
0.695
20
1.4327840944881889
11
0.6965668897637796
21
1.4334331102362203
0
LINE
8
BLACK
6
CONTINUOUS
10
0.6965668897637796
20
1.4334331102362203
11
0.697215905511811
21
1.4350000000000001
0
LINE
8
BLACK
6
CONTINUOUS
10
0.697215905511811
20
1.4350000000000001
11
0.6965668897637796
21
1.4365668897637796
0
LINE
8
BLACK
6
CONTINUOUS
10
0.6965668897637796
20
1.4365668897637796
11
0.6954072047244094
21
1.4370472440944881
0
LINE
8
BLACK
6
CONTINUOUS
10
0.6954072047244094
20
1.4370472440944881
11
0.695
21
1.4370472440944881
0
LINE
8
BLACK
6
CONTINUOUS
10
0.695
20
1.4370472440944881
11
0.6947143700787402
21
1.4370975984251968
0
LINE
8
BLACK
6
CONTINUOUS
10
0.6947143700787402
20
1.4370975984251968
11
0.6934331102362205
21
1.4365668897637796
0
LINE
8
BLACK
6
CONTINUOUS
10
0.6934331102362205
20
1.4365668897637796
11
0.692784094488189
21
1.4350000000000001
0
LINE
8
BLACK
6
CONTINUOUS
10
0.692784094488189
20
1.4350000000000001
11
0.6934331102362205
21
1.4334331102362203
0
LINE
8
BLACK
6
CONTINUOUS
10
0.8322619291338582
20
1.4818979921259843
11
0.8329527559055118
21
1.48
0
LINE
8
BLACK
6
CONTINUOUS
10
0.8329527559055118
20
1.48
11
0.8329527559055118
21
1.4399999999999999
0
LINE
8
BLACK
6
CONTINUOUS
10
0.8329527559055118
20
1.4399999999999999
11
0.8328851181102362
21
1.4396164566929133
0
LINE
8
BLACK
6
CONTINUOUS
10
0.8328851181102362
20
1.4396164566929133
11
0.8329079133858267
21
1.4394872440944881
0
LINE
8
BLACK
6
CONTINUOUS
10
0.8329079133858267
20
1.4394872440944881
11
0.8328422834645669
21
1.4393736220472442
0
LINE
8
BLACK
6
CONTINUOUS
10
0.8328422834645669
20
1.4393736220472442
11
0.83277468503937
21
1.4389900787401575
0
LINE
8
BLACK
6
CONTINUOUS
10
0.83277468503937
20
1.4389900787401575
11
0.8322815354330708
21
1.4384023622047244
0
LINE
8
BLACK
6
CONTINUOUS
10
0.8322815354330708
20
1.4384023622047244
11
0.8318979921259843
21
1.4377380708661418
0
LINE
8
BLACK
6
CONTINUOUS
10
0.8318979921259843
20
1.4377380708661418
11
0.8316476377952756
21
1.4376469291338583
0
LINE
8
BLACK
6
CONTINUOUS
10
0.8316476377952756
20
1.4376469291338583
11
0.8314763779527559
21
1.4374428346456694
0
LINE
8
BLACK
6
CONTINUOUS
10
0.8314763779527559
20
1.4374428346456694
11
0.8307207874015747
21
1.4373095669291338
0
LINE
8
BLACK
6
CONTINUOUS
10
0.8307207874015747
20
1.4373095669291338
11
0.83
21
1.4370472440944881
0
LINE
8
BLACK
6
CONTINUOUS
10
0.83
20
1.4370472440944881
11
0.7774855118110237
21
1.4370472440944881
0
LINE
8
BLACK
6
CONTINUOUS
10
0.7774855118110237
20
1.4370472440944881
11
0.7779527559055118
21
1.4350000000000001
0
LINE
8
BLACK
6
CONTINUOUS
10
0.7779527559055118
20
1.4350000000000001
11
0.7771651968503936
21
1.4315494094488188
0
LINE
8
BLACK
6
CONTINUOUS
10
0.7771651968503936
20
1.4315494094488188
11
0.7749584645669291
21
1.4287822834645669
0
LINE
8
BLACK
6
CONTINUOUS
10
0.7749584645669291
20
1.4287822834645669
11
0.7717696456692913
21
1.427246653543307
0
LINE
8
BLACK
6
CONTINUOUS
10
0.7717696456692913
20
1.427246653543307
11
0.7682303543307086
21
1.427246653543307
0
LINE
8
BLACK
6
CONTINUOUS
10
0.7682303543307086
20
1.427246653543307
11
0.7650415354330709
21
1.4287822834645669
0
LINE
8
BLACK
6
CONTINUOUS
10
0.7650415354330709
20
1.4287822834645669
11
0.7628348031496063
21
1.4315494094488188
0
LINE
8
BLACK
6
CONTINUOUS
10
0.7628348031496063
20
1.4315494094488188
11
0.7620472440944882
21
1.4350000000000001
0
LINE
8
BLACK
6
CONTINUOUS
10
0.7620472440944882
20
1.4350000000000001
11
0.7628348031496063
21
1.4384505905511811
0
LINE
8
BLACK
6
CONTINUOUS
10
0.7628348031496063
20
1.4384505905511811
11
0.7650415354330709
21
1.441217716535433
0
LINE
8
BLACK
6
CONTINUOUS
10
0.7650415354330709
20
1.441217716535433
11
0.7670472440944882
21
1.4421835826771654
0
LINE
8
BLACK
6
CONTINUOUS
10
0.7670472440944882
20
1.4421835826771654
11
0.7670472440944882
21
1.48
0
LINE
8
BLACK
6
CONTINUOUS
10
0.7670472440944882
20
1.48
11
0.76722531496063
21
1.4810099212598424
0
LINE
8
BLACK
6
CONTINUOUS
10
0.76722531496063
20
1.4810099212598424
11
0.7685236220472441
21
1.4825571653543306
0
LINE
8
BLACK
6
CONTINUOUS
10
0.7685236220472441
20
1.4825571653543306
11
0.7705127559055118
21
1.4829079133858267
0
LINE
8
BLACK
6
CONTINUOUS
10
0.7705127559055118
20
1.4829079133858267
11
0.7722619291338583
21
1.4818979921259843
0
LINE
8
BLACK
6
CONTINUOUS
10
0.7722619291338583
20
1.4818979921259843
11
0.7729527559055118
21
1.48
0
LINE
8
BLACK
6
CONTINUOUS
10
0.7729527559055118
20
1.48
11
0.7729527559055118
21
1.4429527559055118
0
LINE
8
BLACK
6
CONTINUOUS
10
0.7729527559055118
20
1.4429527559055118
11
0.8270472440944882
21
1.4429527559055118
0
LINE
8
BLACK
6
CONTINUOUS
10
0.8270472440944882
20
1.4429527559055118
11
0.8270472440944882
21
1.48
0
LINE
8
BLACK
6
CONTINUOUS
10
0.8270472440944882
20
1.48
11
0.8272253149606299
21
1.4810099212598424
0
LINE
8
BLACK
6
CONTINUOUS
10
0.8272253149606299
20
1.4810099212598424
11
0.8285236220472441
21
1.4825571653543306
0
LINE
8
BLACK
6
CONTINUOUS
10
0.8285236220472441
20
1.4825571653543306
11
0.8305127559055118
21
1.4829079133858267
0
LINE
8
BLACK
6
CONTINUOUS
10
0.8305127559055118
20
1.4829079133858267
11
0.8322619291338582
21
1.4818979921259843
0
LINE
8
BLACK
6
CONTINUOUS
10
0.7684331102362204
20
1.4334331102362203
11
0.77
21
1.4327840944881889
0
LINE
8
BLACK
6
CONTINUOUS
10
0.77
20
1.4327840944881889
11
0.7715668897637795
21
1.4334331102362203
0
LINE
8
BLACK
6
CONTINUOUS
10
0.7715668897637795
20
1.4334331102362203
11
0.772215905511811
21
1.4350000000000001
0
LINE
8
BLACK
6
CONTINUOUS
10
0.772215905511811
20
1.4350000000000001
11
0.7715668897637795
21
1.4365668897637796
0
LINE
8
BLACK
6
CONTINUOUS
10
0.7715668897637795
20
1.4365668897637796
11
0.7704072047244094
21
1.4370472440944881
0
LINE
8
BLACK
6
CONTINUOUS
10
0.7704072047244094
20
1.4370472440944881
11
0.77
21
1.4370472440944881
0
LINE
8
BLACK
6
CONTINUOUS
10
0.77
20
1.4370472440944881
11
0.7697143700787401
21
1.4370975984251968
0
LINE
8
BLACK
6
CONTINUOUS
10
0.7697143700787401
20
1.4370975984251968
11
0.7684331102362204
21
1.4365668897637796
0
LINE
8
BLACK
6
CONTINUOUS
10
0.7684331102362204
20
1.4365668897637796
11
0.767784094488189
21
1.4350000000000001
0
LINE
8
BLACK
6
CONTINUOUS
10
0.767784094488189
20
1.4350000000000001
11
0.7684331102362204
21
1.4334331102362203
0
LINE
8
BLACK
6
CONTINUOUS
10
0.9072619291338583
20
1.4818979921259843
11
0.9079527559055118
21
1.48
0
LINE
8
BLACK
6
CONTINUOUS
10
0.9079527559055118
20
1.48
11
0.9079527559055118
21
1.4399999999999999
0
LINE
8
BLACK
6
CONTINUOUS
10
0.9079527559055118
20
1.4399999999999999
11
0.9078851181102362
21
1.4396164566929133
0
LINE
8
BLACK
6
CONTINUOUS
10
0.9078851181102362
20
1.4396164566929133
11
0.9079079133858268
21
1.4394872440944881
0
LINE
8
BLACK
6
CONTINUOUS
10
0.9079079133858268
20
1.4394872440944881
11
0.9078422834645669
21
1.4393736220472442
0
LINE
8
BLACK
6
CONTINUOUS
10
0.9078422834645669
20
1.4393736220472442
11
0.9077746850393701
21
1.4389900787401575
0
LINE
8
BLACK
6
CONTINUOUS
10
0.9077746850393701
20
1.4389900787401575
11
0.9072815354330709
21
1.4384023622047244
0
LINE
8
BLACK
6
CONTINUOUS
10
0.9072815354330709
20
1.4384023622047244
11
0.9068979921259842
21
1.4377380708661418
0
LINE
8
BLACK
6
CONTINUOUS
10
0.9068979921259842
20
1.4377380708661418
11
0.9066476377952756
21
1.4376469291338583
0
LINE
8
BLACK
6
CONTINUOUS
10
0.9066476377952756
20
1.4376469291338583
11
0.9064763779527559
21
1.4374428346456694
0
LINE
8
BLACK
6
CONTINUOUS
10
0.9064763779527559
20
1.4374428346456694
11
0.9057207874015748
21
1.4373095669291338
0
LINE
8
BLACK
6
CONTINUOUS
10
0.9057207874015748
20
1.4373095669291338
11
0.905
21
1.4370472440944881
0
LINE
8
BLACK
6
CONTINUOUS
10
0.905
20
1.4370472440944881
11
0.8524855118110236
21
1.4370472440944881
0
LINE
8
BLACK
6
CONTINUOUS
10
0.8524855118110236
20
1.4370472440944881
11
0.8529527559055118
21
1.4350000000000001
0
LINE
8
BLACK
6
CONTINUOUS
10
0.8529527559055118
20
1.4350000000000001
11
0.8521651968503937
21
1.4315494094488188
0
LINE
8
BLACK
6
CONTINUOUS
10
0.8521651968503937
20
1.4315494094488188
11
0.8499584645669291
21
1.4287822834645669
0
LINE
8
BLACK
6
CONTINUOUS
10
0.8499584645669291
20
1.4287822834645669
11
0.8467696456692914
21
1.427246653543307
0
LINE
8
BLACK
6
CONTINUOUS
10
0.8467696456692914
20
1.427246653543307
11
0.8432303543307086
21
1.427246653543307
0
LINE
8
BLACK
6
CONTINUOUS
10
0.8432303543307086
20
1.427246653543307
11
0.8400415354330708
21
1.4287822834645669
0
LINE
8
BLACK
6
CONTINUOUS
10
0.8400415354330708
20
1.4287822834645669
11
0.8378348031496062
21
1.4315494094488188
0
LINE
8
BLACK
6
CONTINUOUS
10
0.8378348031496062
20
1.4315494094488188
11
0.8370472440944882
21
1.4350000000000001
0
LINE
8
BLACK
6
CONTINUOUS
10
0.8370472440944882
20
1.4350000000000001
11
0.8378348031496062
21
1.4384505905511811
0
LINE
8
BLACK
6
CONTINUOUS
10
0.8378348031496062
20
1.4384505905511811
11
0.8400415354330708
21
1.441217716535433
0
LINE
8
BLACK
6
CONTINUOUS
10
0.8400415354330708
20
1.441217716535433
11
0.8420472440944882
21
1.4421835826771654
0
LINE
8
BLACK
6
CONTINUOUS
10
0.8420472440944882
20
1.4421835826771654
11
0.8420472440944882
21
1.48
0
LINE
8
BLACK
6
CONTINUOUS
10
0.8420472440944882
20
1.48
11
0.8422253149606299
21
1.4810099212598424
0
LINE
8
BLACK
6
CONTINUOUS
10
0.8422253149606299
20
1.4810099212598424
11
0.8435236220472441
21
1.4825571653543306
0
LINE
8
BLACK
6
CONTINUOUS
10
0.8435236220472441
20
1.4825571653543306
11
0.8455127559055118
21
1.4829079133858267
0
LINE
8
BLACK
6
CONTINUOUS
10
0.8455127559055118
20
1.4829079133858267
11
0.8472619291338582
21
1.4818979921259843
0
LINE
8
BLACK
6
CONTINUOUS
10
0.8472619291338582
20
1.4818979921259843
11
0.8479527559055118
21
1.48
0
LINE
8
BLACK
6
CONTINUOUS
10
0.8479527559055118
20
1.48
11
0.8479527559055118
21
1.4429527559055118
0
LINE
8
BLACK
6
CONTINUOUS
10
0.8479527559055118
20
1.4429527559055118
11
0.9020472440944882
21
1.4429527559055118
0
LINE
8
BLACK
6
CONTINUOUS
10
0.9020472440944882
20
1.4429527559055118
11
0.9020472440944882
21
1.48
0
LINE
8
BLACK
6
CONTINUOUS
10
0.9020472440944882
20
1.48
11
0.9022253149606299
21
1.4810099212598424
0
LINE
8
BLACK
6
CONTINUOUS
10
0.9022253149606299
20
1.4810099212598424
11
0.9035236220472441
21
1.4825571653543306
0
LINE
8
BLACK
6
CONTINUOUS
10
0.9035236220472441
20
1.4825571653543306
11
0.9055127559055118
21
1.4829079133858267
0
LINE
8
BLACK
6
CONTINUOUS
10
0.9055127559055118
20
1.4829079133858267
11
0.9072619291338583
21
1.4818979921259843
0
LINE
8
BLACK
6
CONTINUOUS
10
0.8434331102362205
20
1.4334331102362203
11
0.845
21
1.4327840944881889
0
LINE
8
BLACK
6
CONTINUOUS
10
0.845
20
1.4327840944881889
11
0.8465668897637795
21
1.4334331102362203
0
LINE
8
BLACK
6
CONTINUOUS
10
0.8465668897637795
20
1.4334331102362203
11
0.847215905511811
21
1.4350000000000001
0
LINE
8
BLACK
6
CONTINUOUS
10
0.847215905511811
20
1.4350000000000001
11
0.8465668897637795
21
1.4365668897637796
0
LINE
8
BLACK
6
CONTINUOUS
10
0.8465668897637795
20
1.4365668897637796
11
0.8454072047244094
21
1.4370472440944881
0
LINE
8
BLACK
6
CONTINUOUS
10
0.8454072047244094
20
1.4370472440944881
11
0.845
21
1.4370472440944881
0
LINE
8
BLACK
6
CONTINUOUS
10
0.845
20
1.4370472440944881
11
0.8447143700787402
21
1.4370975984251968
0
LINE
8
BLACK
6
CONTINUOUS
10
0.8447143700787402
20
1.4370975984251968
11
0.8434331102362205
21
1.4365668897637796
0
LINE
8
BLACK
6
CONTINUOUS
10
0.8434331102362205
20
1.4365668897637796
11
0.8427840944881889
21
1.4350000000000001
0
LINE
8
BLACK
6
CONTINUOUS
10
0.8427840944881889
20
1.4350000000000001
11
0.8434331102362205
21
1.4334331102362203
0
LINE
8
BLACK
6
CONTINUOUS
10
0.9822619291338582
20
1.4818979921259843
11
0.9829527559055118
21
1.48
0
LINE
8
BLACK
6
CONTINUOUS
10
0.9829527559055118
20
1.48
11
0.9829527559055118
21
1.4399999999999999
0
LINE
8
BLACK
6
CONTINUOUS
10
0.9829527559055118
20
1.4399999999999999
11
0.9828851181102362
21
1.4396164566929133
0
LINE
8
BLACK
6
CONTINUOUS
10
0.9828851181102362
20
1.4396164566929133
11
0.9829079133858267
21
1.4394872440944881
0
LINE
8
BLACK
6
CONTINUOUS
10
0.9829079133858267
20
1.4394872440944881
11
0.9828422834645669
21
1.4393736220472442
0
LINE
8
BLACK
6
CONTINUOUS
10
0.9828422834645669
20
1.4393736220472442
11
0.98277468503937
21
1.4389900787401575
0
LINE
8
BLACK
6
CONTINUOUS
10
0.98277468503937
20
1.4389900787401575
11
0.9822815354330708
21
1.4384023622047244
0
LINE
8
BLACK
6
CONTINUOUS
10
0.9822815354330708
20
1.4384023622047244
11
0.9818979921259843
21
1.4377380708661418
0
LINE
8
BLACK
6
CONTINUOUS
10
0.9818979921259843
20
1.4377380708661418
11
0.9816476377952755
21
1.4376469291338583
0
LINE
8
BLACK
6
CONTINUOUS
10
0.9816476377952755
20
1.4376469291338583
11
0.9814763779527559
21
1.4374428346456694
0
LINE
8
BLACK
6
CONTINUOUS
10
0.9814763779527559
20
1.4374428346456694
11
0.9807207874015748
21
1.4373095669291338
0
LINE
8
BLACK
6
CONTINUOUS
10
0.9807207874015748
20
1.4373095669291338
11
0.98
21
1.4370472440944881
0
LINE
8
BLACK
6
CONTINUOUS
10
0.98
20
1.4370472440944881
11
0.9274855118110236
21
1.4370472440944881
0
LINE
8
BLACK
6
CONTINUOUS
10
0.9274855118110236
20
1.4370472440944881
11
0.9279527559055117
21
1.4350000000000001
0
LINE
8
BLACK
6
CONTINUOUS
10
0.9279527559055117
20
1.4350000000000001
11
0.9271651968503937
21
1.4315494094488188
0
LINE
8
BLACK
6
CONTINUOUS
10
0.9271651968503937
20
1.4315494094488188
11
0.9249584645669291
21
1.4287822834645669
0
LINE
8
BLACK
6
CONTINUOUS
10
0.9249584645669291
20
1.4287822834645669
11
0.9217696456692913
21
1.427246653543307
0
LINE
8
BLACK
6
CONTINUOUS
10
0.9217696456692913
20
1.427246653543307
11
0.9182303543307087
21
1.427246653543307
0
LINE
8
BLACK
6
CONTINUOUS
10
0.9182303543307087
20
1.427246653543307
11
0.9150415354330709
21
1.4287822834645669
0
LINE
8
BLACK
6
CONTINUOUS
10
0.9150415354330709
20
1.4287822834645669
11
0.9128348031496063
21
1.4315494094488188
0
LINE
8
BLACK
6
CONTINUOUS
10
0.9128348031496063
20
1.4315494094488188
11
0.9120472440944881
21
1.4350000000000001
0
LINE
8
BLACK
6
CONTINUOUS
10
0.9120472440944881
20
1.4350000000000001
11
0.9128348031496063
21
1.4384505905511811
0
LINE
8
BLACK
6
CONTINUOUS
10
0.9128348031496063
20
1.4384505905511811
11
0.9150415354330709
21
1.441217716535433
0
LINE
8
BLACK
6
CONTINUOUS
10
0.9150415354330709
20
1.441217716535433
11
0.9170472440944881
21
1.4421835826771654
0
LINE
8
BLACK
6
CONTINUOUS
10
0.9170472440944881
20
1.4421835826771654
11
0.9170472440944881
21
1.48
0
LINE
8
BLACK
6
CONTINUOUS
10
0.9170472440944881
20
1.48
11
0.9172253149606299
21
1.4810099212598424
0
LINE
8
BLACK
6
CONTINUOUS
10
0.9172253149606299
20
1.4810099212598424
11
0.918523622047244
21
1.4825571653543306
0
LINE
8
BLACK
6
CONTINUOUS
10
0.918523622047244
20
1.4825571653543306
11
0.9205127559055117
21
1.4829079133858267
0
LINE
8
BLACK
6
CONTINUOUS
10
0.9205127559055117
20
1.4829079133858267
11
0.9222619291338583
21
1.4818979921259843
0
LINE
8
BLACK
6
CONTINUOUS
10
0.9222619291338583
20
1.4818979921259843
11
0.9229527559055117
21
1.48
0
LINE
8
BLACK
6
CONTINUOUS
10
0.9229527559055117
20
1.48
11
0.9229527559055117
21
1.4429527559055118
0
LINE
8
BLACK
6
CONTINUOUS
10
0.9229527559055117
20
1.4429527559055118
11
0.9770472440944882
21
1.4429527559055118
0
LINE
8
BLACK
6
CONTINUOUS
10
0.9770472440944882
20
1.4429527559055118
11
0.9770472440944882
21
1.48
0
LINE
8
BLACK
6
CONTINUOUS
10
0.9770472440944882
20
1.48
11
0.9772253149606299
21
1.4810099212598424
0
LINE
8
BLACK
6
CONTINUOUS
10
0.9772253149606299
20
1.4810099212598424
11
0.9785236220472441
21
1.4825571653543306
0
LINE
8
BLACK
6
CONTINUOUS
10
0.9785236220472441
20
1.4825571653543306
11
0.9805127559055118
21
1.4829079133858267
0
LINE
8
BLACK
6
CONTINUOUS
10
0.9805127559055118
20
1.4829079133858267
11
0.9822619291338582
21
1.4818979921259843
0
LINE
8
BLACK
6
CONTINUOUS
10
0.9184331102362204
20
1.4334331102362203
11
0.9199999999999999
21
1.4327840944881889
0
LINE
8
BLACK
6
CONTINUOUS
10
0.9199999999999999
20
1.4327840944881889
11
0.9215668897637795
21
1.4334331102362203
0
LINE
8
BLACK
6
CONTINUOUS
10
0.9215668897637795
20
1.4334331102362203
11
0.922215905511811
21
1.4350000000000001
0
LINE
8
BLACK
6
CONTINUOUS
10
0.922215905511811
20
1.4350000000000001
11
0.9215668897637795
21
1.4365668897637796
0
LINE
8
BLACK
6
CONTINUOUS
10
0.9215668897637795
20
1.4365668897637796
11
0.9204072047244094
21
1.4370472440944881
0
LINE
8
BLACK
6
CONTINUOUS
10
0.9204072047244094
20
1.4370472440944881
11
0.9199999999999999
21
1.4370472440944881
0
LINE
8
BLACK
6
CONTINUOUS
10
0.9199999999999999
20
1.4370472440944881
11
0.9197143700787401
21
1.4370975984251968
0
LINE
8
BLACK
6
CONTINUOUS
10
0.9197143700787401
20
1.4370975984251968
11
0.9184331102362204
21
1.4365668897637796
0
LINE
8
BLACK
6
CONTINUOUS
10
0.9184331102362204
20
1.4365668897637796
11
0.917784094488189
21
1.4350000000000001
0
LINE
8
BLACK
6
CONTINUOUS
10
0.917784094488189
20
1.4350000000000001
11
0.9184331102362204
21
1.4334331102362203
0
LINE
8
BLACK
6
CONTINUOUS
10
1.1099584645669291
20
1.5462177165354329
11
1.1121651968503936
21
1.5434505905511811
0
LINE
8
BLACK
6
CONTINUOUS
10
1.1121651968503936
20
1.5434505905511811
11
1.1129527559055117
21
1.54
0
LINE
8
BLACK
6
CONTINUOUS
10
1.1129527559055117
20
1.54
11
1.1121651968503936
21
1.5365494094488188
0
LINE
8
BLACK
6
CONTINUOUS
10
1.1121651968503936
20
1.5365494094488188
11
1.1099584645669291
21
1.5337822834645669
0
LINE
8
BLACK
6
CONTINUOUS
10
1.1099584645669291
20
1.5337822834645669
11
1.1079527559055118
21
1.5328163779527559
0
LINE
8
BLACK
6
CONTINUOUS
10
1.1079527559055118
20
1.5328163779527559
11
1.1079527559055118
21
1.4949999999999999
0
LINE
8
BLACK
6
CONTINUOUS
10
1.1079527559055118
20
1.4949999999999999
11
1.1077746850393702
21
1.4939900787401574
0
LINE
8
BLACK
6
CONTINUOUS
10
1.1077746850393702
20
1.4939900787401574
11
1.1064763779527558
21
1.4924428346456693
0
LINE
8
BLACK
6
CONTINUOUS
10
1.1064763779527558
20
1.4924428346456693
11
1.1044872440944882
21
1.4920920866141731
0
LINE
8
BLACK
6
CONTINUOUS
10
1.1044872440944882
20
1.4920920866141731
11
1.1027380708661416
21
1.4931020078740158
0
LINE
8
BLACK
6
CONTINUOUS
10
1.1027380708661416
20
1.4931020078740158
11
1.1020472440944882
21
1.4949999999999999
0
LINE
8
BLACK
6
CONTINUOUS
10
1.1020472440944882
20
1.4949999999999999
11
1.1020472440944882
21
1.5320472440944881
0
LINE
8
BLACK
6
CONTINUOUS
10
1.1020472440944882
20
1.5320472440944881
11
1.0479527559055117
21
1.5320472440944881
0
LINE
8
BLACK
6
CONTINUOUS
10
1.0479527559055117
20
1.5320472440944881
11
1.0479527559055117
21
1.4949999999999999
0
LINE
8
BLACK
6
CONTINUOUS
10
1.0479527559055117
20
1.4949999999999999
11
1.0477746850393701
21
1.4939900787401574
0
LINE
8
BLACK
6
CONTINUOUS
10
1.0477746850393701
20
1.4939900787401574
11
1.0464763779527559
21
1.4924428346456693
0
LINE
8
BLACK
6
CONTINUOUS
10
1.0464763779527559
20
1.4924428346456693
11
1.0444872440944881
21
1.4920920866141731
0
LINE
8
BLACK
6
CONTINUOUS
10
1.0444872440944881
20
1.4920920866141731
11
1.0427380708661418
21
1.4931020078740158
0
LINE
8
BLACK
6
CONTINUOUS
10
1.0427380708661418
20
1.4931020078740158
11
1.0420472440944881
21
1.4949999999999999
0
LINE
8
BLACK
6
CONTINUOUS
10
1.0420472440944881
20
1.4949999999999999
11
1.0420472440944881
21
1.5349999999999999
0
LINE
8
BLACK
6
CONTINUOUS
10
1.0420472440944881
20
1.5349999999999999
11
1.0421148425196851
21
1.5353835039370078
0
LINE
8
BLACK
6
CONTINUOUS
10
1.0421148425196851
20
1.5353835039370078
11
1.0420920866141732
21
1.5355127559055117
0
LINE
8
BLACK
6
CONTINUOUS
10
1.0420920866141732
20
1.5355127559055117
11
1.0421576771653542
21
1.5356263385826772
0
LINE
8
BLACK
6
CONTINUOUS
10
1.0421576771653542
20
1.5356263385826772
11
1.04222531496063
21
1.5360099212598426
0
LINE
8
BLACK
6
CONTINUOUS
10
1.04222531496063
20
1.5360099212598426
11
1.0427184251968504
21
1.5365975984251967
0
LINE
8
BLACK
6
CONTINUOUS
10
1.0427184251968504
20
1.5365975984251967
11
1.0431020078740156
21
1.5372619291338583
0
LINE
8
BLACK
6
CONTINUOUS
10
1.0431020078740156
20
1.5372619291338583
11
1.0433523228346457
21
1.5373530314960631
0
LINE
8
BLACK
6
CONTINUOUS
10
1.0433523228346457
20
1.5373530314960631
11
1.0435236220472441
21
1.5375571653543307
0
LINE
8
BLACK
6
CONTINUOUS
10
1.0435236220472441
20
1.5375571653543307
11
1.0442791732283465
21
1.5376903937007873
0
LINE
8
BLACK
6
CONTINUOUS
10
1.0442791732283465
20
1.5376903937007873
11
1.0449999999999999
21
1.5379527559055117
0
LINE
8
BLACK
6
CONTINUOUS
10
1.0449999999999999
20
1.5379527559055117
11
1.0975144881889765
21
1.5379527559055117
0
LINE
8
BLACK
6
CONTINUOUS
10
1.0975144881889765
20
1.5379527559055117
11
1.0970472440944881
21
1.54
0
LINE
8
BLACK
6
CONTINUOUS
10
1.0970472440944881
20
1.54
11
1.0978348031496064
21
1.5434505905511811
0
LINE
8
BLACK
6
CONTINUOUS
10
1.0978348031496064
20
1.5434505905511811
11
1.1000415354330708
21
1.5462177165354329
0
LINE
8
BLACK
6
CONTINUOUS
10
1.1000415354330708
20
1.5462177165354329
11
1.1032303543307087
21
1.5477533464566928
0
LINE
8
BLACK
6
CONTINUOUS
10
1.1032303543307087
20
1.5477533464566928
11
1.1067696456692913
21
1.5477533464566928
0
LINE
8
BLACK
6
CONTINUOUS
10
1.1067696456692913
20
1.5477533464566928
11
1.1099584645669291
21
1.5462177165354329
0
LINE
8
BLACK
6
CONTINUOUS
10
1.1034331102362205
20
1.5384331102362205
11
1.1045927952755905
21
1.5379527559055117
0
LINE
8
BLACK
6
CONTINUOUS
10
1.1045927952755905
20
1.5379527559055117
11
1.105
21
1.5379527559055117
0
LINE
8
BLACK
6
CONTINUOUS
10
1.105
20
1.5379527559055117
11
1.1052855905511811
21
1.5379023622047243
0
LINE
8
BLACK
6
CONTINUOUS
10
1.1052855905511811
20
1.5379023622047243
11
1.1065668897637795
21
1.5384331102362205
0
LINE
8
BLACK
6
CONTINUOUS
10
1.1065668897637795
20
1.5384331102362205
11
1.1072159055118109
21
1.54
0
LINE
8
BLACK
6
CONTINUOUS
10
1.1072159055118109
20
1.54
11
1.1065668897637795
21
1.5415668897637795
0
LINE
8
BLACK
6
CONTINUOUS
10
1.1065668897637795
20
1.5415668897637795
11
1.105
21
1.542215905511811
0
LINE
8
BLACK
6
CONTINUOUS
10
1.105
20
1.542215905511811
11
1.1034331102362205
21
1.5415668897637795
0
LINE
8
BLACK
6
CONTINUOUS
10
1.1034331102362205
20
1.5415668897637795
11
1.102784094488189
21
1.54
0
LINE
8
BLACK
6
CONTINUOUS
10
1.102784094488189
20
1.54
11
1.1034331102362205
21
1.5384331102362205
0
LINE
8
BLACK
6
CONTINUOUS
10
0.7553835039370078
20
1.5628851181102361
11
0.7555127559055118
21
1.5629079133858268
0
LINE
8
BLACK
6
CONTINUOUS
10
0.7555127559055118
20
1.5629079133858268
11
0.7556263385826771
21
1.562842283464567
0
LINE
8
BLACK
6
CONTINUOUS
10
0.7556263385826771
20
1.562842283464567
11
0.7560099212598425
21
1.56277468503937
0
LINE
8
BLACK
6
CONTINUOUS
10
0.7560099212598425
20
1.56277468503937
11
0.7565975984251968
21
1.5622815354330708
0
LINE
8
BLACK
6
CONTINUOUS
10
0.7565975984251968
20
1.5622815354330708
11
0.7572619291338583
21
1.5618979921259841
0
LINE
8
BLACK
6
CONTINUOUS
10
0.7572619291338583
20
1.5618979921259841
11
0.7573530314960629
21
1.5616476377952755
0
LINE
8
BLACK
6
CONTINUOUS
10
0.7573530314960629
20
1.5616476377952755
11
0.7575571653543307
21
1.5614763779527558
0
LINE
8
BLACK
6
CONTINUOUS
10
0.7575571653543307
20
1.5614763779527558
11
0.7576903937007874
21
1.5607207874015747
0
LINE
8
BLACK
6
CONTINUOUS
10
0.7576903937007874
20
1.5607207874015747
11
0.7579527559055118
21
1.5600000000000001
0
LINE
8
BLACK
6
CONTINUOUS
10
0.7579527559055118
20
1.5600000000000001
11
0.7579527559055118
21
1.52
0
LINE
8
BLACK
6
CONTINUOUS
10
0.7579527559055118
20
1.52
11
0.7577746850393701
21
1.5189900787401573
0
LINE
8
BLACK
6
CONTINUOUS
10
0.7577746850393701
20
1.5189900787401573
11
0.7564763779527559
21
1.5174428346456692
0
LINE
8
BLACK
6
CONTINUOUS
10
0.7564763779527559
20
1.5174428346456692
11
0.7544872440944882
21
1.5170920866141733
0
LINE
8
BLACK
6
CONTINUOUS
10
0.7544872440944882
20
1.5170920866141733
11
0.7527380708661418
21
1.5181020078740157
0
LINE
8
BLACK
6
CONTINUOUS
10
0.7527380708661418
20
1.5181020078740157
11
0.7520472440944882
21
1.52
0
LINE
8
BLACK
6
CONTINUOUS
10
0.7520472440944882
20
1.52
11
0.7520472440944882
21
1.5570472440944882
0
LINE
8
BLACK
6
CONTINUOUS
10
0.7520472440944882
20
1.5570472440944882
11
0.6979527559055118
21
1.5570472440944882
0
LINE
8
BLACK
6
CONTINUOUS
10
0.6979527559055118
20
1.5570472440944882
11
0.6979527559055118
21
1.52
0
LINE
8
BLACK
6
CONTINUOUS
10
0.6979527559055118
20
1.52
11
0.69777468503937
21
1.5189900787401573
0
LINE
8
BLACK
6
CONTINUOUS
10
0.69777468503937
20
1.5189900787401573
11
0.6964763779527559
21
1.5174428346456692
0
LINE
8
BLACK
6
CONTINUOUS
10
0.6964763779527559
20
1.5174428346456692
11
0.6944872440944881
21
1.5170920866141733
0
LINE
8
BLACK
6
CONTINUOUS
10
0.6944872440944881
20
1.5170920866141733
11
0.6927380708661417
21
1.5181020078740157
0
LINE
8
BLACK
6
CONTINUOUS
10
0.6927380708661417
20
1.5181020078740157
11
0.6920472440944881
21
1.52
0
LINE
8
BLACK
6
CONTINUOUS
10
0.6920472440944881
20
1.52
11
0.6920472440944881
21
1.5600000000000001
0
LINE
8
BLACK
6
CONTINUOUS
10
0.6920472440944881
20
1.5600000000000001
11
0.692114842519685
21
1.5603835039370078
0
LINE
8
BLACK
6
CONTINUOUS
10
0.692114842519685
20
1.5603835039370078
11
0.6920920866141732
21
1.5605127559055119
0
LINE
8
BLACK
6
CONTINUOUS
10
0.6920920866141732
20
1.5605127559055119
11
0.6921576771653544
21
1.5606263385826771
0
LINE
8
BLACK
6
CONTINUOUS
10
0.6921576771653544
20
1.5606263385826771
11
0.6922253149606299
21
1.5610099212598425
0
LINE
8
BLACK
6
CONTINUOUS
10
0.6922253149606299
20
1.5610099212598425
11
0.6927184251968503
21
1.5615975984251969
0
LINE
8
BLACK
6
CONTINUOUS
10
0.6927184251968503
20
1.5615975984251969
11
0.6931020078740158
21
1.5622619291338582
0
LINE
8
BLACK
6
CONTINUOUS
10
0.6931020078740158
20
1.5622619291338582
11
0.6933523228346457
21
1.562353031496063
0
LINE
8
BLACK
6
CONTINUOUS
10
0.6933523228346457
20
1.562353031496063
11
0.693523622047244
21
1.5625571653543306
0
LINE
8
BLACK
6
CONTINUOUS
10
0.693523622047244
20
1.5625571653543306
11
0.6942791732283464
21
1.5626903937007874
0
LINE
8
BLACK
6
CONTINUOUS
10
0.6942791732283464
20
1.5626903937007874
11
0.695
21
1.5629527559055119
0
LINE
8
BLACK
6
CONTINUOUS
10
0.695
20
1.5629527559055119
11
0.755
21
1.5629527559055119
0
LINE
8
BLACK
6
CONTINUOUS
10
0.755
20
1.5629527559055119
11
0.7553835039370078
21
1.5628851181102361
0
LINE
8
BLACK
6
CONTINUOUS
10
0.8303835039370079
20
1.5628851181102361
11
0.8305127559055118
21
1.5629079133858268
0
LINE
8
BLACK
6
CONTINUOUS
10
0.8305127559055118
20
1.5629079133858268
11
0.8306263385826771
21
1.562842283464567
0
LINE
8
BLACK
6
CONTINUOUS
10
0.8306263385826771
20
1.562842283464567
11
0.8310099212598425
21
1.56277468503937
0
LINE
8
BLACK
6
CONTINUOUS
10
0.8310099212598425
20
1.56277468503937
11
0.8315975984251969
21
1.5622815354330708
0
LINE
8
BLACK
6
CONTINUOUS
10
0.8315975984251969
20
1.5622815354330708
11
0.8322619291338582
21
1.5618979921259841
0
LINE
8
BLACK
6
CONTINUOUS
10
0.8322619291338582
20
1.5618979921259841
11
0.832353031496063
21
1.5616476377952755
0
LINE
8
BLACK
6
CONTINUOUS
10
0.832353031496063
20
1.5616476377952755
11
0.8325571653543307
21
1.5614763779527558
0
LINE
8
BLACK
6
CONTINUOUS
10
0.8325571653543307
20
1.5614763779527558
11
0.8326903937007873
21
1.5607207874015747
0
LINE
8
BLACK
6
CONTINUOUS
10
0.8326903937007873
20
1.5607207874015747
11
0.8329527559055118
21
1.5600000000000001
0
LINE
8
BLACK
6
CONTINUOUS
10
0.8329527559055118
20
1.5600000000000001
11
0.8329527559055118
21
1.52
0
LINE
8
BLACK
6
CONTINUOUS
10
0.8329527559055118
20
1.52
11
0.83277468503937
21
1.5189900787401573
0
LINE
8
BLACK
6
CONTINUOUS
10
0.83277468503937
20
1.5189900787401573
11
0.8314763779527559
21
1.5174428346456692
0
LINE
8
BLACK
6
CONTINUOUS
10
0.8314763779527559
20
1.5174428346456692
11
0.8294872440944882
21
1.5170920866141733
0
LINE
8
BLACK
6
CONTINUOUS
10
0.8294872440944882
20
1.5170920866141733
11
0.8277380708661417
21
1.5181020078740157
0
LINE
8
BLACK
6
CONTINUOUS
10
0.8277380708661417
20
1.5181020078740157
11
0.8270472440944882
21
1.52
0
LINE
8
BLACK
6
CONTINUOUS
10
0.8270472440944882
20
1.52
11
0.8270472440944882
21
1.5570472440944882
0
LINE
8
BLACK
6
CONTINUOUS
10
0.8270472440944882
20
1.5570472440944882
11
0.7729527559055118
21
1.5570472440944882
0
LINE
8
BLACK
6
CONTINUOUS
10
0.7729527559055118
20
1.5570472440944882
11
0.7729527559055118
21
1.52
0
LINE
8
BLACK
6
CONTINUOUS
10
0.7729527559055118
20
1.52
11
0.7727746850393701
21
1.5189900787401573
0
LINE
8
BLACK
6
CONTINUOUS
10
0.7727746850393701
20
1.5189900787401573
11
0.7714763779527559
21
1.5174428346456692
0
LINE
8
BLACK
6
CONTINUOUS
10
0.7714763779527559
20
1.5174428346456692
11
0.7694872440944882
21
1.5170920866141733
0
LINE
8
BLACK
6
CONTINUOUS
10
0.7694872440944882
20
1.5170920866141733
11
0.7677380708661418
21
1.5181020078740157
0
LINE
8
BLACK
6
CONTINUOUS
10
0.7677380708661418
20
1.5181020078740157
11
0.7670472440944882
21
1.52
0
LINE
8
BLACK
6
CONTINUOUS
10
0.7670472440944882
20
1.52
11
0.7670472440944882
21
1.5600000000000001
0
LINE
8
BLACK
6
CONTINUOUS
10
0.7670472440944882
20
1.5600000000000001
11
0.767114842519685
21
1.5603835039370078
0
LINE
8
BLACK
6
CONTINUOUS
10
0.767114842519685
20
1.5603835039370078
11
0.7670920866141732
21
1.5605127559055119
0
LINE
8
BLACK
6
CONTINUOUS
10
0.7670920866141732
20
1.5605127559055119
11
0.7671576771653543
21
1.5606263385826771
0
LINE
8
BLACK
6
CONTINUOUS
10
0.7671576771653543
20
1.5606263385826771
11
0.76722531496063
21
1.5610099212598425
0
LINE
8
BLACK
6
CONTINUOUS
10
0.76722531496063
20
1.5610099212598425
11
0.7677184251968504
21
1.5615975984251969
0
LINE
8
BLACK
6
CONTINUOUS
10
0.7677184251968504
20
1.5615975984251969
11
0.7681020078740157
21
1.5622619291338582
0
LINE
8
BLACK
6
CONTINUOUS
10
0.7681020078740157
20
1.5622619291338582
11
0.7683523228346456
21
1.562353031496063
0
LINE
8
BLACK
6
CONTINUOUS
10
0.7683523228346456
20
1.562353031496063
11
0.7685236220472441
21
1.5625571653543306
0
LINE
8
BLACK
6
CONTINUOUS
10
0.7685236220472441
20
1.5625571653543306
11
0.7692791732283465
21
1.5626903937007874
0
LINE
8
BLACK
6
CONTINUOUS
10
0.7692791732283465
20
1.5626903937007874
11
0.77
21
1.5629527559055119
0
LINE
8
BLACK
6
CONTINUOUS
10
0.77
20
1.5629527559055119
11
0.83
21
1.5629527559055119
0
LINE
8
BLACK
6
CONTINUOUS
10
0.83
20
1.5629527559055119
11
0.8303835039370079
21
1.5628851181102361
0
LINE
8
BLACK
6
CONTINUOUS
10
0.9053835039370078
20
1.5628851181102361
11
0.9055127559055118
21
1.5629079133858268
0
LINE
8
BLACK
6
CONTINUOUS
10
0.9055127559055118
20
1.5629079133858268
11
0.9056263385826772
21
1.562842283464567
0
LINE
8
BLACK
6
CONTINUOUS
10
0.9056263385826772
20
1.562842283464567
11
0.9060099212598425
21
1.56277468503937
0
LINE
8
BLACK
6
CONTINUOUS
10
0.9060099212598425
20
1.56277468503937
11
0.9065975984251968
21
1.5622815354330708
0
LINE
8
BLACK
6
CONTINUOUS
10
0.9065975984251968
20
1.5622815354330708
11
0.9072619291338583
21
1.5618979921259841
0
LINE
8
BLACK
6
CONTINUOUS
10
0.9072619291338583
20
1.5618979921259841
11
0.9073530314960629
21
1.5616476377952755
0
LINE
8
BLACK
6
CONTINUOUS
10
0.9073530314960629
20
1.5616476377952755
11
0.9075571653543307
21
1.5614763779527558
0
LINE
8
BLACK
6
CONTINUOUS
10
0.9075571653543307
20
1.5614763779527558
11
0.9076903937007874
21
1.5607207874015747
0
LINE
8
BLACK
6
CONTINUOUS
10
0.9076903937007874
20
1.5607207874015747
11
0.9079527559055118
21
1.5600000000000001
0
LINE
8
BLACK
6
CONTINUOUS
10
0.9079527559055118
20
1.5600000000000001
11
0.9079527559055118
21
1.52
0
LINE
8
BLACK
6
CONTINUOUS
10
0.9079527559055118
20
1.52
11
0.9077746850393701
21
1.5189900787401573
0
LINE
8
BLACK
6
CONTINUOUS
10
0.9077746850393701
20
1.5189900787401573
11
0.9064763779527559
21
1.5174428346456692
0
LINE
8
BLACK
6
CONTINUOUS
10
0.9064763779527559
20
1.5174428346456692
11
0.9044872440944882
21
1.5170920866141733
0
LINE
8
BLACK
6
CONTINUOUS
10
0.9044872440944882
20
1.5170920866141733
11
0.9027380708661417
21
1.5181020078740157
0
LINE
8
BLACK
6
CONTINUOUS
10
0.9027380708661417
20
1.5181020078740157
11
0.9020472440944882
21
1.52
0
LINE
8
BLACK
6
CONTINUOUS
10
0.9020472440944882
20
1.52
11
0.9020472440944882
21
1.5570472440944882
0
LINE
8
BLACK
6
CONTINUOUS
10
0.9020472440944882
20
1.5570472440944882
11
0.8479527559055118
21
1.5570472440944882
0
LINE
8
BLACK
6
CONTINUOUS
10
0.8479527559055118
20
1.5570472440944882
11
0.8479527559055118
21
1.52
0
LINE
8
BLACK
6
CONTINUOUS
10
0.8479527559055118
20
1.52
11
0.84777468503937
21
1.5189900787401573
0
LINE
8
BLACK
6
CONTINUOUS
10
0.84777468503937
20
1.5189900787401573
11
0.8464763779527559
21
1.5174428346456692
0
LINE
8
BLACK
6
CONTINUOUS
10
0.8464763779527559
20
1.5174428346456692
11
0.8444872440944882
21
1.5170920866141733
0
LINE
8
BLACK
6
CONTINUOUS
10
0.8444872440944882
20
1.5170920866141733
11
0.8427380708661417
21
1.5181020078740157
0
LINE
8
BLACK
6
CONTINUOUS
10
0.8427380708661417
20
1.5181020078740157
11
0.8420472440944882
21
1.52
0
LINE
8
BLACK
6
CONTINUOUS
10
0.8420472440944882
20
1.52
11
0.8420472440944882
21
1.5600000000000001
0
LINE
8
BLACK
6
CONTINUOUS
10
0.8420472440944882
20
1.5600000000000001
11
0.842114842519685
21
1.5603835039370078
0
LINE
8
BLACK
6
CONTINUOUS
10
0.842114842519685
20
1.5603835039370078
11
0.8420920866141732
21
1.5605127559055119
0
LINE
8
BLACK
6
CONTINUOUS
10
0.8420920866141732
20
1.5605127559055119
11
0.8421576771653543
21
1.5606263385826771
0
LINE
8
BLACK
6
CONTINUOUS
10
0.8421576771653543
20
1.5606263385826771
11
0.8422253149606299
21
1.5610099212598425
0
LINE
8
BLACK
6
CONTINUOUS
10
0.8422253149606299
20
1.5610099212598425
11
0.8427184251968504
21
1.5615975984251969
0
LINE
8
BLACK
6
CONTINUOUS
10
0.8427184251968504
20
1.5615975984251969
11
0.8431020078740157
21
1.5622619291338582
0
LINE
8
BLACK
6
CONTINUOUS
10
0.8431020078740157
20
1.5622619291338582
11
0.8433523228346457
21
1.562353031496063
0
LINE
8
BLACK
6
CONTINUOUS
10
0.8433523228346457
20
1.562353031496063
11
0.8435236220472441
21
1.5625571653543306
0
LINE
8
BLACK
6
CONTINUOUS
10
0.8435236220472441
20
1.5625571653543306
11
0.8442791732283464
21
1.5626903937007874
0
LINE
8
BLACK
6
CONTINUOUS
10
0.8442791732283464
20
1.5626903937007874
11
0.845
21
1.5629527559055119
0
LINE
8
BLACK
6
CONTINUOUS
10
0.845
20
1.5629527559055119
11
0.905
21
1.5629527559055119
0
LINE
8
BLACK
6
CONTINUOUS
10
0.905
20
1.5629527559055119
11
0.9053835039370078
21
1.5628851181102361
0
LINE
8
BLACK
6
CONTINUOUS
10
0.9803835039370079
20
1.5628851181102361
11
0.9805127559055118
21
1.5629079133858268
0
LINE
8
BLACK
6
CONTINUOUS
10
0.9805127559055118
20
1.5629079133858268
11
0.9806263385826771
21
1.562842283464567
0
LINE
8
BLACK
6
CONTINUOUS
10
0.9806263385826771
20
1.562842283464567
11
0.9810099212598425
21
1.56277468503937
0
LINE
8
BLACK
6
CONTINUOUS
10
0.9810099212598425
20
1.56277468503937
11
0.9815975984251968
21
1.5622815354330708
0
LINE
8
BLACK
6
CONTINUOUS
10
0.9815975984251968
20
1.5622815354330708
11
0.9822619291338582
21
1.5618979921259841
0
LINE
8
BLACK
6
CONTINUOUS
10
0.9822619291338582
20
1.5618979921259841
11
0.982353031496063
21
1.5616476377952755
0
LINE
8
BLACK
6
CONTINUOUS
10
0.982353031496063
20
1.5616476377952755
11
0.9825571653543307
21
1.5614763779527558
0
LINE
8
BLACK
6
CONTINUOUS
10
0.9825571653543307
20
1.5614763779527558
11
0.9826903937007874
21
1.5607207874015747
0
LINE
8
BLACK
6
CONTINUOUS
10
0.9826903937007874
20
1.5607207874015747
11
0.9829527559055118
21
1.5600000000000001
0
LINE
8
BLACK
6
CONTINUOUS
10
0.9829527559055118
20
1.5600000000000001
11
0.9829527559055118
21
1.52
0
LINE
8
BLACK
6
CONTINUOUS
10
0.9829527559055118
20
1.52
11
0.98277468503937
21
1.5189900787401573
0
LINE
8
BLACK
6
CONTINUOUS
10
0.98277468503937
20
1.5189900787401573
11
0.9814763779527559
21
1.5174428346456692
0
LINE
8
BLACK
6
CONTINUOUS
10
0.9814763779527559
20
1.5174428346456692
11
0.9794872440944882
21
1.5170920866141733
0
LINE
8
BLACK
6
CONTINUOUS
10
0.9794872440944882
20
1.5170920866141733
11
0.9777380708661417
21
1.5181020078740157
0
LINE
8
BLACK
6
CONTINUOUS
10
0.9777380708661417
20
1.5181020078740157
11
0.9770472440944882
21
1.52
0
LINE
8
BLACK
6
CONTINUOUS
10
0.9770472440944882
20
1.52
11
0.9770472440944882
21
1.5570472440944882
0
LINE
8
BLACK
6
CONTINUOUS
10
0.9770472440944882
20
1.5570472440944882
11
0.9229527559055117
21
1.5570472440944882
0
LINE
8
BLACK
6
CONTINUOUS
10
0.9229527559055117
20
1.5570472440944882
11
0.9229527559055117
21
1.52
0
LINE
8
BLACK
6
CONTINUOUS
10
0.9229527559055117
20
1.52
11
0.9227746850393701
21
1.5189900787401573
0
LINE
8
BLACK
6
CONTINUOUS
10
0.9227746850393701
20
1.5189900787401573
11
0.9214763779527558
21
1.5174428346456692
0
LINE
8
BLACK
6
CONTINUOUS
10
0.9214763779527558
20
1.5174428346456692
11
0.9194872440944881
21
1.5170920866141733
0
LINE
8
BLACK
6
CONTINUOUS
10
0.9194872440944881
20
1.5170920866141733
11
0.9177380708661417
21
1.5181020078740157
0
LINE
8
BLACK
6
CONTINUOUS
10
0.9177380708661417
20
1.5181020078740157
11
0.9170472440944881
21
1.52
0
LINE
8
BLACK
6
CONTINUOUS
10
0.9170472440944881
20
1.52
11
0.9170472440944881
21
1.5600000000000001
0
LINE
8
BLACK
6
CONTINUOUS
10
0.9170472440944881
20
1.5600000000000001
11
0.917114842519685
21
1.5603835039370078
0
LINE
8
BLACK
6
CONTINUOUS
10
0.917114842519685
20
1.5603835039370078
11
0.9170920866141732
21
1.5605127559055119
0
LINE
8
BLACK
6
CONTINUOUS
10
0.9170920866141732
20
1.5605127559055119
11
0.9171576771653543
21
1.5606263385826771
0
LINE
8
BLACK
6
CONTINUOUS
10
0.9171576771653543
20
1.5606263385826771
11
0.9172253149606299
21
1.5610099212598425
0
LINE
8
BLACK
6
CONTINUOUS
10
0.9172253149606299
20
1.5610099212598425
11
0.9177184251968503
21
1.5615975984251969
0
LINE
8
BLACK
6
CONTINUOUS
10
0.9177184251968503
20
1.5615975984251969
11
0.9181020078740157
21
1.5622619291338582
0
LINE
8
BLACK
6
CONTINUOUS
10
0.9181020078740157
20
1.5622619291338582
11
0.9183523228346456
21
1.562353031496063
0
LINE
8
BLACK
6
CONTINUOUS
10
0.9183523228346456
20
1.562353031496063
11
0.918523622047244
21
1.5625571653543306
0
LINE
8
BLACK
6
CONTINUOUS
10
0.918523622047244
20
1.5625571653543306
11
0.9192791732283464
21
1.5626903937007874
0
LINE
8
BLACK
6
CONTINUOUS
10
0.9192791732283464
20
1.5626903937007874
11
0.9199999999999999
21
1.5629527559055119
0
LINE
8
BLACK
6
CONTINUOUS
10
0.9199999999999999
20
1.5629527559055119
11
0.98
21
1.5629527559055119
0
LINE
8
BLACK
6
CONTINUOUS
10
0.98
20
1.5629527559055119
11
0.9803835039370079
21
1.5628851181102361
0
CIRCLE
8
BLACK
10
0.325
20
1.0249999999999999
40
0.0068897637795276
0
CIRCLE
8
BLACK
10
0.5218503937007873
20
1.0249999999999999
40
0.0068897637795276
0
CIRCLE
8
BLACK
10
0.5
20
1.4749999999999999
40
0.0068897637795276
0
CIRCLE
8
BLACK
10
0.5
20
1.375
40
0.0068897637795276
0
CIRCLE
8
BLACK
10
0.6
20
1.4749999999999999
40
0.0068897637795276
0
CIRCLE
8
BLACK
10
0.6
20
1.375
40
0.0068897637795276
0
CIRCLE
8
BLACK
10
1.3999999999999999
20
0.2
40
0.0068897637795276
0
CIRCLE
8
BLACK
10
1.3999999999999999
20
1.3999999999999999
40
0.0068897637795276
0
CIRCLE
8
BLACK
10
0.2
20
0.2
40
0.0068897637795276
0
CIRCLE
8
BLACK
10
0.2
20
1.3999999999999999
40
0.0068897637795276
0
CIRCLE
8
BLACK
10
0.7
20
0.2031496062992126
40
0.0068897637795276
0
CIRCLE
8
BLACK
10
0.7
20
0.4
40
0.0068897637795276
0
CIRCLE
8
BLACK
10
1.0999999999999999
20
0.2031496062992126
40
0.0068897637795276
0
CIRCLE
8
BLACK
10
1.0999999999999999
20
0.4
40
0.0068897637795276
0
CIRCLE
8
BLACK
10
0.9
20
0.2031496062992126
40
0.0068897637795276
0
CIRCLE
8
BLACK
10
0.9
20
0.4
40
0.0068897637795276
0
CIRCLE
8
BLACK
10
0.5
20
0.2031496062992126
40
0.0068897637795276
0
CIRCLE
8
BLACK
10
0.5
20
0.4
40
0.0068897637795276
  0
ENDSEC
  0
EOF
