  0
SECTION
  2
HEADER
  9
$ANGBASE
  50
0.0
  9
$ANGDIR
  70
1
  9
$MEASUREMENT
  70
0
  0
ENDSEC
  0
SECTION
  2
TABLES
  0
TABLE
  2
LTYPE
  70
4
  0
LTYPE
  5
40F
  2
CONTINUOUS
  70
0
  3
Solid line
  72
65
  73
0
  40
0.0
  0
LTYPE
  5
410
  2
DASHDOT
 70
0
  3
Dash Dot ____ _ ____ _
 72
65
 73
4
 40
2.0
 49
1.25
 49
-0.25
 49
0.25
 49
-0.25
  0
LTYPE
  5
411
  2
DASHED
 70
0
  3
Dashed __ __ __ __ __
 72
65
 73
2
 40
0.75
 49
0.5
 49
-0.25
  0
LTYPE
  5
43B
  2
DOTTED
 70
0
  3
Dotted .  .  .  .
 72
65
 73
2
 40
0.2
 49
0.0
 49
-0.2
  0
ENDTAB
  0
TABLE
  2
STYLE
  70
4
  0
STYLE
  2
KICAD
  70
0
  40
0
  41
1
  42
1
  50
0
  71
0
  3
isocp.shx
  0
STYLE
  2
KICADB
  70
0
  40
0
  41
1
  42
1
  50
0
  71
0
  3
isocp.shx
  0
STYLE
  2
KICADI
  70
0
  40
0
  41
1
  42
1
  50
15
  71
0
  3
isocp.shx
  0
STYLE
  2
KICADBI
  70
0
  40
0
  41
1
  42
1
  50
15
  71
0
  3
isocp.shx
  0
ENDTAB
  0
TABLE
  2
LAYER
  70
1
  0
LAYER
  2
BLACK
  70
0
  62
7
  6
CONTINUOUS
  0
ENDTAB
  0
ENDSEC
  0
SECTION
  2
ENTITIES
0
LINE
8
BLACK
6
CONTINUOUS
10
0.575
20
0.1281496062992126
11
0.425
21
0.1281496062992126
0
LINE
8
BLACK
6
CONTINUOUS
10
0.425
20
0.1281496062992126
11
0.425
21
0.2781496062992126
0
LINE
8
BLACK
6
CONTINUOUS
10
0.425
20
0.2781496062992126
11
0.575
21
0.2781496062992126
0
LINE
8
BLACK
6
CONTINUOUS
10
0.575
20
0.2781496062992126
11
0.575
21
0.1281496062992126
0
LINE
8
BLACK
6
CONTINUOUS
10
0.575
20
0.325
11
0.425
21
0.325
0
LINE
8
BLACK
6
CONTINUOUS
10
0.425
20
0.325
11
0.425
21
0.475
0
LINE
8
BLACK
6
CONTINUOUS
10
0.425
20
0.475
11
0.575
21
0.475
0
LINE
8
BLACK
6
CONTINUOUS
10
0.575
20
0.475
11
0.575
21
0.325
0
LINE
8
BLACK
6
CONTINUOUS
10
0.775
20
0.1281496062992126
11
0.625
21
0.1281496062992126
0
LINE
8
BLACK
6
CONTINUOUS
10
0.625
20
0.1281496062992126
11
0.625
21
0.2781496062992126
0
LINE
8
BLACK
6
CONTINUOUS
10
0.625
20
0.2781496062992126
11
0.775
21
0.2781496062992126
0
LINE
8
BLACK
6
CONTINUOUS
10
0.775
20
0.2781496062992126
11
0.775
21
0.1281496062992126
0
LINE
8
BLACK
6
CONTINUOUS
10
0.775
20
0.325
11
0.625
21
0.325
0
LINE
8
BLACK
6
CONTINUOUS
10
0.625
20
0.325
11
0.625
21
0.475
0
LINE
8
BLACK
6
CONTINUOUS
10
0.625
20
0.475
11
0.775
21
0.475
0
LINE
8
BLACK
6
CONTINUOUS
10
0.775
20
0.475
11
0.775
21
0.325
0
LINE
8
BLACK
6
CONTINUOUS
10
0.975
20
0.1281496062992126
11
0.825
21
0.1281496062992126
0
LINE
8
BLACK
6
CONTINUOUS
10
0.825
20
0.1281496062992126
11
0.825
21
0.2781496062992126
0
LINE
8
BLACK
6
CONTINUOUS
10
0.825
20
0.2781496062992126
11
0.975
21
0.2781496062992126
0
LINE
8
BLACK
6
CONTINUOUS
10
0.975
20
0.2781496062992126
11
0.975
21
0.1281496062992126
0
LINE
8
BLACK
6
CONTINUOUS
10
0.975
20
0.325
11
0.825
21
0.325
0
LINE
8
BLACK
6
CONTINUOUS
10
0.825
20
0.325
11
0.825
21
0.475
0
LINE
8
BLACK
6
CONTINUOUS
10
0.825
20
0.475
11
0.975
21
0.475
0
LINE
8
BLACK
6
CONTINUOUS
10
0.975
20
0.475
11
0.975
21
0.325
0
LINE
8
BLACK
6
CONTINUOUS
10
1.0298664173228347
20
1.5149772834645669
11
1.0342564566929133
21
1.512740433070866
0
LINE
8
BLACK
6
CONTINUOUS
10
1.0342564566929133
20
1.512740433070866
11
1.0377404330708662
21
1.5092564566929134
0
LINE
8
BLACK
6
CONTINUOUS
10
1.0377404330708662
20
1.5092564566929134
11
1.0399772834645669
21
1.5048664173228345
0
LINE
8
BLACK
6
CONTINUOUS
10
1.0399772834645669
20
1.5048664173228345
11
1.0407480314960629
21
1.5
0
LINE
8
BLACK
6
CONTINUOUS
10
1.0407480314960629
20
1.5
11
1.0399772834645669
21
1.4951335826771652
0
LINE
8
BLACK
6
CONTINUOUS
10
1.0399772834645669
20
1.4951335826771652
11
1.0377404330708662
21
1.4907435433070866
0
LINE
8
BLACK
6
CONTINUOUS
10
1.0377404330708662
20
1.4907435433070866
11
1.0342564566929133
21
1.4872595669291337
0
LINE
8
BLACK
6
CONTINUOUS
10
1.0342564566929133
20
1.4872595669291337
11
1.0298664173228347
21
1.4850227165354331
0
LINE
8
BLACK
6
CONTINUOUS
10
1.0298664173228347
20
1.4850227165354331
11
1.0249999999999999
21
1.484251968503937
0
LINE
8
BLACK
6
CONTINUOUS
10
1.0249999999999999
20
1.484251968503937
11
1.0201335826771654
21
1.4850227165354331
0
LINE
8
BLACK
6
CONTINUOUS
10
1.0201335826771654
20
1.4850227165354331
11
1.0157435433070865
21
1.4872595669291337
0
LINE
8
BLACK
6
CONTINUOUS
10
1.0157435433070865
20
1.4872595669291337
11
1.0148141338582677
21
1.4881889763779528
0
LINE
8
BLACK
6
CONTINUOUS
10
1.0148141338582677
20
1.4881889763779528
11
0.8757584251968503
21
1.4881889763779528
0
LINE
8
BLACK
6
CONTINUOUS
10
0.8757584251968503
20
1.4881889763779528
11
0.4042177952755905
21
1.0166483464566929
0
LINE
8
BLACK
6
CONTINUOUS
10
0.4042177952755905
20
1.0166483464566929
11
0.4039226771653543
21
1.0164032677165353
0
LINE
8
BLACK
6
CONTINUOUS
10
0.4039226771653543
20
1.0164032677165353
11
0.4038231889763779
21
1.0162715354330709
0
LINE
8
BLACK
6
CONTINUOUS
10
0.4038231889763779
20
1.0162715354330709
11
0.4035905511811024
21
1.0161274803149607
0
LINE
8
BLACK
6
CONTINUOUS
10
0.4035905511811024
20
1.0161274803149607
11
0.4025409842519685
21
1.0152559448818896
0
LINE
8
BLACK
6
CONTINUOUS
10
0.4025409842519685
20
1.0152559448818896
11
0.4012928346456693
21
1.0147048031496062
0
LINE
8
BLACK
6
CONTINUOUS
10
0.4012928346456693
20
1.0147048031496062
11
0.4001327559055118
21
1.0139865354330708
0
LINE
8
BLACK
6
CONTINUOUS
10
0.4001327559055118
20
1.0139865354330708
11
0.3993234645669291
21
1.0138352362204723
0
LINE
8
BLACK
6
CONTINUOUS
10
0.3993234645669291
20
1.0138352362204723
11
0.3985702755905512
21
1.0135026771653544
0
LINE
8
BLACK
6
CONTINUOUS
10
0.3985702755905512
20
1.0135026771653544
11
0.3972072440944882
21
1.0134396456692913
0
LINE
8
BLACK
6
CONTINUOUS
10
0.3972072440944882
20
1.0134396456692913
11
0.3958661417322835
21
1.0131889763779527
0
LINE
8
BLACK
6
CONTINUOUS
10
0.3958661417322835
20
1.0131889763779527
11
0.372244094488189
21
1.0131889763779527
0
LINE
8
BLACK
6
CONTINUOUS
10
0.372244094488189
20
1.0131889763779527
11
0.372244094488189
21
0.977755905511811
0
LINE
8
BLACK
6
CONTINUOUS
10
0.372244094488189
20
0.977755905511811
11
0.277755905511811
21
0.977755905511811
0
LINE
8
BLACK
6
CONTINUOUS
10
0.277755905511811
20
0.977755905511811
11
0.277755905511811
21
1.072244094488189
0
LINE
8
BLACK
6
CONTINUOUS
10
0.277755905511811
20
1.072244094488189
11
0.372244094488189
21
1.072244094488189
0
LINE
8
BLACK
6
CONTINUOUS
10
0.372244094488189
20
1.072244094488189
11
0.372244094488189
21
1.0368110236220471
0
LINE
8
BLACK
6
CONTINUOUS
10
0.372244094488189
20
1.0368110236220471
11
0.3909738582677165
21
1.0368110236220471
0
LINE
8
BLACK
6
CONTINUOUS
10
0.3909738582677165
20
1.0368110236220471
11
0.8625144881889764
21
1.508351653543307
0
LINE
8
BLACK
6
CONTINUOUS
10
0.8625144881889764
20
1.508351653543307
11
0.8628096062992126
21
1.5085966929133858
0
LINE
8
BLACK
6
CONTINUOUS
10
0.8628096062992126
20
1.5085966929133858
11
0.862909094488189
21
1.508728464566929
0
LINE
8
BLACK
6
CONTINUOUS
10
0.862909094488189
20
1.508728464566929
11
0.8631416141732283
21
1.5088724409448819
0
LINE
8
BLACK
6
CONTINUOUS
10
0.8631416141732283
20
1.5088724409448819
11
0.8641912992125984
21
1.509744094488189
0
LINE
8
BLACK
6
CONTINUOUS
10
0.8641912992125984
20
1.509744094488189
11
0.8654395669291338
21
1.5102952362204725
0
LINE
8
BLACK
6
CONTINUOUS
10
0.8654395669291338
20
1.5102952362204725
11
0.8665995275590551
21
1.5110134645669291
0
LINE
8
BLACK
6
CONTINUOUS
10
0.8665995275590551
20
1.5110134645669291
11
0.8674087401574803
21
1.5111647244094488
0
LINE
8
BLACK
6
CONTINUOUS
10
0.8674087401574803
20
1.5111647244094488
11
0.8681620078740158
21
1.5114973228346456
0
LINE
8
BLACK
6
CONTINUOUS
10
0.8681620078740158
20
1.5114973228346456
11
0.869525
21
1.5115603149606298
0
LINE
8
BLACK
6
CONTINUOUS
10
0.869525
20
1.5115603149606298
11
0.8708661417322835
21
1.5118110236220472
0
LINE
8
BLACK
6
CONTINUOUS
10
0.8708661417322835
20
1.5118110236220472
11
1.0148141338582677
21
1.5118110236220472
0
LINE
8
BLACK
6
CONTINUOUS
10
1.0148141338582677
20
1.5118110236220472
11
1.0157435433070865
21
1.512740433070866
0
LINE
8
BLACK
6
CONTINUOUS
10
1.0157435433070865
20
1.512740433070866
11
1.0201335826771654
21
1.5149772834645669
0
LINE
8
BLACK
6
CONTINUOUS
10
1.0201335826771654
20
1.5149772834645669
11
1.0249999999999999
21
1.515748031496063
0
LINE
8
BLACK
6
CONTINUOUS
10
1.0249999999999999
20
1.515748031496063
11
1.0298664173228347
21
1.5149772834645669
0
LINE
8
BLACK
6
CONTINUOUS
10
0.53
20
1.345
11
0.47
21
1.345
0
LINE
8
BLACK
6
CONTINUOUS
10
0.47
20
1.345
11
0.47
21
1.405
0
LINE
8
BLACK
6
CONTINUOUS
10
0.47
20
1.405
11
0.53
21
1.405
0
LINE
8
BLACK
6
CONTINUOUS
10
0.53
20
1.405
11
0.53
21
1.345
0
LINE
8
BLACK
6
CONTINUOUS
10
0.63
20
1.345
11
0.57
21
1.345
0
LINE
8
BLACK
6
CONTINUOUS
10
0.57
20
1.345
11
0.57
21
1.405
0
LINE
8
BLACK
6
CONTINUOUS
10
0.57
20
1.405
11
0.63
21
1.405
0
LINE
8
BLACK
6
CONTINUOUS
10
0.63
20
1.405
11
0.63
21
1.345
0
LINE
8
BLACK
6
CONTINUOUS
10
0.63
20
1.4450000000000001
11
0.57
21
1.4450000000000001
0
LINE
8
BLACK
6
CONTINUOUS
10
0.57
20
1.4450000000000001
11
0.57
21
1.5049999999999999
0
LINE
8
BLACK
6
CONTINUOUS
10
0.57
20
1.5049999999999999
11
0.63
21
1.5049999999999999
0
LINE
8
BLACK
6
CONTINUOUS
10
0.63
20
1.5049999999999999
11
0.63
21
1.4450000000000001
0
LINE
8
BLACK
6
CONTINUOUS
10
1.5847488582677165
20
1.5862400787401574
11
1.5865792913385826
21
1.5841276377952755
0
LINE
8
BLACK
6
CONTINUOUS
10
1.5865792913385826
20
1.5841276377952755
11
1.5870275590551182
21
1.5820669291338583
0
LINE
8
BLACK
6
CONTINUOUS
10
1.5870275590551182
20
1.5820669291338583
11
1.5870275590551182
21
0.0179330708661417
0
LINE
8
BLACK
6
CONTINUOUS
10
1.5870275590551182
20
0.0179330708661417
11
1.5862400787401574
21
0.0152511417322835
0
LINE
8
BLACK
6
CONTINUOUS
10
1.5862400787401574
20
0.0152511417322835
11
1.5841276377952755
21
0.0134207086614173
0
LINE
8
BLACK
6
CONTINUOUS
10
1.5841276377952755
20
0.0134207086614173
11
1.5820669291338583
21
0.0129724409448819
0
LINE
8
BLACK
6
CONTINUOUS
10
1.5820669291338583
20
0.0129724409448819
11
0.0179330708661417
21
0.0129724409448819
0
LINE
8
BLACK
6
CONTINUOUS
10
0.0179330708661417
20
0.0129724409448819
11
0.0152511417322835
21
0.0137599212598425
0
LINE
8
BLACK
6
CONTINUOUS
10
0.0152511417322835
20
0.0137599212598425
11
0.0134207086614173
21
0.0158723622047244
0
LINE
8
BLACK
6
CONTINUOUS
10
0.0134207086614173
20
0.0158723622047244
11
0.0129724409448819
21
0.0179330708661417
0
LINE
8
BLACK
6
CONTINUOUS
10
0.0129724409448819
20
0.0179330708661417
11
0.0129724409448819
21
0.1262342519685039
0
LINE
8
BLACK
6
CONTINUOUS
10
0.0129724409448819
20
0.1262342519685039
11
0.0129724409448819
21
0.9758405511811024
0
LINE
8
BLACK
6
CONTINUOUS
10
0.0129724409448819
20
0.9758405511811024
11
0.0129724409448819
21
1.5820669291338583
0
LINE
8
BLACK
6
CONTINUOUS
10
0.0129724409448819
20
1.5820669291338583
11
0.0137599212598425
21
1.5847488582677165
0
LINE
8
BLACK
6
CONTINUOUS
10
0.0137599212598425
20
1.5847488582677165
11
0.0158723622047244
21
1.5865792913385826
0
LINE
8
BLACK
6
CONTINUOUS
10
0.0158723622047244
20
1.5865792913385826
11
0.0179330708661417
21
1.5870275590551182
0
LINE
8
BLACK
6
CONTINUOUS
10
0.0179330708661417
20
1.5870275590551182
11
1.5820669291338583
21
1.5870275590551182
0
LINE
8
BLACK
6
CONTINUOUS
10
1.5820669291338583
20
1.5870275590551182
11
1.5847488582677165
21
1.5862400787401574
0
LINE
8
BLACK
6
CONTINUOUS
10
0.423084842519685
20
0.4950196456692914
11
0.4230846456692913
21
0.4950196456692914
0
LINE
8
BLACK
6
CONTINUOUS
10
0.4230846456692913
20
0.4950196456692914
11
0.420700905511811
21
0.4947633858267717
0
LINE
8
BLACK
6
CONTINUOUS
10
0.420700905511811
20
0.4947633858267717
11
0.4207005905511811
21
0.4947633070866141
0
LINE
8
BLACK
6
CONTINUOUS
10
0.4207005905511811
20
0.4947633070866141
11
0.417632874015748
21
0.4936190551181102
0
LINE
8
BLACK
6
CONTINUOUS
10
0.417632874015748
20
0.4936190551181102
11
0.4153069291338582
21
0.4927515354330709
0
LINE
8
BLACK
6
CONTINUOUS
10
0.4153069291338582
20
0.4927515354330709
11
0.4153068503937008
21
0.4927514960629921
0
LINE
8
BLACK
6
CONTINUOUS
10
0.4153068503937008
20
0.4927514960629921
11
0.4153067716535433
21
0.4927514566929134
0
LINE
8
BLACK
6
CONTINUOUS
10
0.4153067716535433
20
0.4927514566929134
11
0.4106983464566929
21
0.4893016141732283
0
LINE
8
BLACK
6
CONTINUOUS
10
0.4106983464566929
20
0.4893016141732283
11
0.4072485039370078
21
0.4846931889763779
0
LINE
8
BLACK
6
CONTINUOUS
10
0.4072485039370078
20
0.4846931889763779
11
0.4072484251968504
21
0.4846929921259843
0
LINE
8
BLACK
6
CONTINUOUS
10
0.4072484251968504
20
0.4846929921259843
11
0.4052366535433071
21
0.4792993700787401
0
LINE
8
BLACK
6
CONTINUOUS
10
0.4052366535433071
20
0.4792993700787401
11
0.4052365748031496
21
0.4792990551181102
0
LINE
8
BLACK
6
CONTINUOUS
10
0.4052365748031496
20
0.4792990551181102
11
0.4049803149606299
21
0.4769153149606299
0
LINE
8
BLACK
6
CONTINUOUS
10
0.4049803149606299
20
0.4769153149606299
11
0.4049803149606299
21
0.3230846456692913
0
LINE
8
BLACK
6
CONTINUOUS
10
0.4049803149606299
20
0.3230846456692913
11
0.4052365748031496
21
0.320700905511811
0
LINE
8
BLACK
6
CONTINUOUS
10
0.4052365748031496
20
0.320700905511811
11
0.4052366535433071
21
0.3207005905511811
0
LINE
8
BLACK
6
CONTINUOUS
10
0.4052366535433071
20
0.3207005905511811
11
0.4072484251968504
21
0.315306968503937
0
LINE
8
BLACK
6
CONTINUOUS
10
0.4072484251968504
20
0.315306968503937
11
0.4072485039370078
21
0.3153067716535433
0
LINE
8
BLACK
6
CONTINUOUS
10
0.4072485039370078
20
0.3153067716535433
11
0.4106983464566929
21
0.3106983464566929
0
LINE
8
BLACK
6
CONTINUOUS
10
0.4106983464566929
20
0.3106983464566929
11
0.4153067716535433
21
0.3072485039370079
0
LINE
8
BLACK
6
CONTINUOUS
10
0.4153067716535433
20
0.3072485039370079
11
0.415306968503937
21
0.3072484251968504
0
LINE
8
BLACK
6
CONTINUOUS
10
0.415306968503937
20
0.3072484251968504
11
0.4180572047244094
21
0.3062226377952756
0
LINE
8
BLACK
6
CONTINUOUS
10
0.4180572047244094
20
0.3062226377952756
11
0.420294842519685
21
0.3045475590551181
0
LINE
8
BLACK
6
CONTINUOUS
10
0.420294842519685
20
0.3045475590551181
11
0.4212716141732283
21
0.3019286614173228
0
LINE
8
BLACK
6
CONTINUOUS
10
0.4212716141732283
20
0.3019286614173228
11
0.4206774409448819
21
0.2991974015748031
0
LINE
8
BLACK
6
CONTINUOUS
10
0.4206774409448819
20
0.2991974015748031
11
0.4187009842519685
21
0.2972209448818898
0
LINE
8
BLACK
6
CONTINUOUS
10
0.4187009842519685
20
0.2972209448818898
11
0.4180572047244094
21
0.296926968503937
0
LINE
8
BLACK
6
CONTINUOUS
10
0.4180572047244094
20
0.296926968503937
11
0.4166014173228346
21
0.296383937007874
0
LINE
8
BLACK
6
CONTINUOUS
10
0.4166014173228346
20
0.296383937007874
11
0.4153069291338582
21
0.2959011417322834
0
LINE
8
BLACK
6
CONTINUOUS
10
0.4153069291338582
20
0.2959011417322834
11
0.4153068503937008
21
0.2959011023622047
0
LINE
8
BLACK
6
CONTINUOUS
10
0.4153068503937008
20
0.2959011023622047
11
0.4153067716535433
21
0.295901062992126
0
LINE
8
BLACK
6
CONTINUOUS
10
0.4153067716535433
20
0.295901062992126
11
0.4106983464566929
21
0.2924512204724409
0
LINE
8
BLACK
6
CONTINUOUS
10
0.4106983464566929
20
0.2924512204724409
11
0.4072485039370078
21
0.2878427952755905
0
LINE
8
BLACK
6
CONTINUOUS
10
0.4072485039370078
20
0.2878427952755905
11
0.4072484251968504
21
0.2878425984251968
0
LINE
8
BLACK
6
CONTINUOUS
10
0.4072484251968504
20
0.2878425984251968
11
0.4052366535433071
21
0.2824489763779527
0
LINE
8
BLACK
6
CONTINUOUS
10
0.4052366535433071
20
0.2824489763779527
11
0.4052365748031496
21
0.2824486614173228
0
LINE
8
BLACK
6
CONTINUOUS
10
0.4052365748031496
20
0.2824486614173228
11
0.4049803149606299
21
0.2800649212598425
0
LINE
8
BLACK
6
CONTINUOUS
10
0.4049803149606299
20
0.2800649212598425
11
0.4049803149606299
21
0.1262342519685039
0
LINE
8
BLACK
6
CONTINUOUS
10
0.4049803149606299
20
0.1262342519685039
11
0.4052365748031496
21
0.1238505118110236
0
LINE
8
BLACK
6
CONTINUOUS
10
0.4052365748031496
20
0.1238505118110236
11
0.4052366535433071
21
0.1238501968503937
0
LINE
8
BLACK
6
CONTINUOUS
10
0.4052366535433071
20
0.1238501968503937
11
0.4072484251968504
21
0.1184565748031496
0
LINE
8
BLACK
6
CONTINUOUS
10
0.4072484251968504
20
0.1184565748031496
11
0.4072485039370078
21
0.1184563779527559
0
LINE
8
BLACK
6
CONTINUOUS
10
0.4072485039370078
20
0.1184563779527559
11
0.4106983464566929
21
0.1138479527559055
0
LINE
8
BLACK
6
CONTINUOUS
10
0.4106983464566929
20
0.1138479527559055
11
0.4153067716535433
21
0.1103981102362205
0
LINE
8
BLACK
6
CONTINUOUS
10
0.4153067716535433
20
0.1103981102362205
11
0.415306968503937
21
0.110398031496063
0
LINE
8
BLACK
6
CONTINUOUS
10
0.415306968503937
20
0.110398031496063
11
0.4207005905511811
21
0.1083862598425197
0
LINE
8
BLACK
6
CONTINUOUS
10
0.4207005905511811
20
0.1083862598425197
11
0.420700905511811
21
0.1083861811023622
0
LINE
8
BLACK
6
CONTINUOUS
10
0.420700905511811
20
0.1083861811023622
11
0.4230846456692913
21
0.1081299212598425
0
LINE
8
BLACK
6
CONTINUOUS
10
0.4230846456692913
20
0.1081299212598425
11
0.4230851181102362
21
0.1081299212598425
0
LINE
8
BLACK
6
CONTINUOUS
10
0.4230851181102362
20
0.1081299212598425
11
0.5769153149606299
21
0.1081299212598425
0
LINE
8
BLACK
6
CONTINUOUS
10
0.5769153149606299
20
0.1081299212598425
11
0.5792990551181102
21
0.1083861811023622
0
LINE
8
BLACK
6
CONTINUOUS
10
0.5792990551181102
20
0.1083861811023622
11
0.5792993700787401
21
0.1083862598425197
0
LINE
8
BLACK
6
CONTINUOUS
10
0.5792993700787401
20
0.1083862598425197
11
0.5846929921259842
21
0.110398031496063
0
LINE
8
BLACK
6
CONTINUOUS
10
0.5846929921259842
20
0.110398031496063
11
0.5846931889763779
21
0.1103981102362205
0
LINE
8
BLACK
6
CONTINUOUS
10
0.5846931889763779
20
0.1103981102362205
11
0.5893016141732283
21
0.1138479527559055
0
LINE
8
BLACK
6
CONTINUOUS
10
0.5893016141732283
20
0.1138479527559055
11
0.5927514566929134
21
0.1184563779527559
0
LINE
8
BLACK
6
CONTINUOUS
10
0.5927514566929134
20
0.1184563779527559
11
0.5927515354330708
21
0.1184565748031496
0
LINE
8
BLACK
6
CONTINUOUS
10
0.5927515354330708
20
0.1184565748031496
11
0.5947633070866142
21
0.1238501968503937
0
LINE
8
BLACK
6
CONTINUOUS
10
0.5947633070866142
20
0.1238501968503937
11
0.5947633858267717
21
0.1238505118110236
0
LINE
8
BLACK
6
CONTINUOUS
10
0.5947633858267717
20
0.1238505118110236
11
0.5950196456692913
21
0.1262342519685039
0
LINE
8
BLACK
6
CONTINUOUS
10
0.5950196456692913
20
0.1262342519685039
11
0.5950196850393701
21
0.1262349212598425
0
LINE
8
BLACK
6
CONTINUOUS
10
0.5950196850393701
20
0.1262349212598425
11
0.5950196850393701
21
0.2800642519685039
0
LINE
8
BLACK
6
CONTINUOUS
10
0.5950196850393701
20
0.2800642519685039
11
0.5950196456692913
21
0.2800649212598425
0
LINE
8
BLACK
6
CONTINUOUS
10
0.5950196456692913
20
0.2800649212598425
11
0.5947633858267717
21
0.2824486614173228
0
LINE
8
BLACK
6
CONTINUOUS
10
0.5947633858267717
20
0.2824486614173228
11
0.5947633070866142
21
0.2824489763779527
0
LINE
8
BLACK
6
CONTINUOUS
10
0.5947633070866142
20
0.2824489763779527
11
0.5944866141732283
21
0.2831907480314961
0
LINE
8
BLACK
6
CONTINUOUS
10
0.5944866141732283
20
0.2831907480314961
11
0.5927515354330708
21
0.2878426771653543
0
LINE
8
BLACK
6
CONTINUOUS
10
0.5927515354330708
20
0.2878426771653543
11
0.5893016141732283
21
0.2924512204724409
0
LINE
8
BLACK
6
CONTINUOUS
10
0.5893016141732283
20
0.2924512204724409
11
0.5846930708661418
21
0.2959011417322834
0
LINE
8
BLACK
6
CONTINUOUS
10
0.5846930708661418
20
0.2959011417322834
11
0.5819426377952756
21
0.296926968503937
0
LINE
8
BLACK
6
CONTINUOUS
10
0.5819426377952756
20
0.296926968503937
11
0.5797051574803149
21
0.2986020078740158
0
LINE
8
BLACK
6
CONTINUOUS
10
0.5797051574803149
20
0.2986020078740158
11
0.5787283464566929
21
0.3012209448818898
0
LINE
8
BLACK
6
CONTINUOUS
10
0.5787283464566929
20
0.3012209448818898
11
0.5793225196850393
21
0.3039522047244094
0
LINE
8
BLACK
6
CONTINUOUS
10
0.5793225196850393
20
0.3039522047244094
11
0.5812989763779527
21
0.3059286614173228
0
LINE
8
BLACK
6
CONTINUOUS
10
0.5812989763779527
20
0.3059286614173228
11
0.5819422834645669
21
0.3062224409448819
0
LINE
8
BLACK
6
CONTINUOUS
10
0.5819422834645669
20
0.3062224409448819
11
0.5846930708661418
21
0.3072484645669291
0
LINE
8
BLACK
6
CONTINUOUS
10
0.5846930708661418
20
0.3072484645669291
11
0.5846931102362205
21
0.3072485039370079
0
LINE
8
BLACK
6
CONTINUOUS
10
0.5846931102362205
20
0.3072485039370079
11
0.5846932283464567
21
0.3072485433070866
0
LINE
8
BLACK
6
CONTINUOUS
10
0.5846932283464567
20
0.3072485433070866
11
0.5893016141732283
21
0.3106983464566929
0
LINE
8
BLACK
6
CONTINUOUS
10
0.5893016141732283
20
0.3106983464566929
11
0.5927514566929134
21
0.3153067716535433
0
LINE
8
BLACK
6
CONTINUOUS
10
0.5927514566929134
20
0.3153067716535433
11
0.5927515354330708
21
0.315306968503937
0
LINE
8
BLACK
6
CONTINUOUS
10
0.5927515354330708
20
0.315306968503937
11
0.5947633070866142
21
0.3207005905511811
0
LINE
8
BLACK
6
CONTINUOUS
10
0.5947633070866142
20
0.3207005905511811
11
0.5947633858267717
21
0.320700905511811
0
LINE
8
BLACK
6
CONTINUOUS
10
0.5947633858267717
20
0.320700905511811
11
0.5950196456692913
21
0.3230846456692913
0
LINE
8
BLACK
6
CONTINUOUS
10
0.5950196456692913
20
0.3230846456692913
11
0.5950196850393701
21
0.3230853149606299
0
LINE
8
BLACK
6
CONTINUOUS
10
0.5950196850393701
20
0.3230853149606299
11
0.5950196850393701
21
0.4769146456692913
0
LINE
8
BLACK
6
CONTINUOUS
10
0.5950196850393701
20
0.4769146456692913
11
0.5950196456692913
21
0.4769153149606299
0
LINE
8
BLACK
6
CONTINUOUS
10
0.5950196456692913
20
0.4769153149606299
11
0.5947633858267717
21
0.4792990551181102
0
LINE
8
BLACK
6
CONTINUOUS
10
0.5947633858267717
20
0.4792990551181102
11
0.5947633070866142
21
0.4792993700787401
0
LINE
8
BLACK
6
CONTINUOUS
10
0.5947633070866142
20
0.4792993700787401
11
0.5944866141732283
21
0.4800411417322835
0
LINE
8
BLACK
6
CONTINUOUS
10
0.5944866141732283
20
0.4800411417322835
11
0.5927515354330708
21
0.4846930708661417
0
LINE
8
BLACK
6
CONTINUOUS
10
0.5927515354330708
20
0.4846930708661417
11
0.5893016141732283
21
0.4893016141732283
0
LINE
8
BLACK
6
CONTINUOUS
10
0.5893016141732283
20
0.4893016141732283
11
0.5846930708661418
21
0.4927515354330709
0
LINE
8
BLACK
6
CONTINUOUS
10
0.5846930708661418
20
0.4927515354330709
11
0.579299251968504
21
0.4947633464566929
0
LINE
8
BLACK
6
CONTINUOUS
10
0.579299251968504
20
0.4947633464566929
11
0.5792991732283465
21
0.4947633464566929
0
LINE
8
BLACK
6
CONTINUOUS
10
0.5792991732283465
20
0.4947633464566929
11
0.5792990551181102
21
0.4947633858267717
0
LINE
8
BLACK
6
CONTINUOUS
10
0.5792990551181102
20
0.4947633858267717
11
0.5769153149606299
21
0.4950196456692914
0
LINE
8
BLACK
6
CONTINUOUS
10
0.5769153149606299
20
0.4950196456692914
11
0.576915157480315
21
0.4950196456692914
0
LINE
8
BLACK
6
CONTINUOUS
10
0.576915157480315
20
0.4950196456692914
11
0.5769148818897638
21
0.49501968503937
0
LINE
8
BLACK
6
CONTINUOUS
10
0.5769148818897638
20
0.49501968503937
11
0.4230851181102362
21
0.49501968503937
0
LINE
8
BLACK
6
CONTINUOUS
10
0.4230851181102362
20
0.49501968503937
11
0.423084842519685
21
0.4950196456692914
0
LINE
8
BLACK
6
CONTINUOUS
10
0.6052365748031496
20
0.1238505118110236
11
0.605236653543307
21
0.1238501968503937
0
LINE
8
BLACK
6
CONTINUOUS
10
0.605236653543307
20
0.1238501968503937
11
0.6072484251968504
21
0.1184565748031496
0
LINE
8
BLACK
6
CONTINUOUS
10
0.6072484251968504
20
0.1184565748031496
11
0.6072485039370079
21
0.1184563779527559
0
LINE
8
BLACK
6
CONTINUOUS
10
0.6072485039370079
20
0.1184563779527559
11
0.6106983464566929
21
0.1138479527559055
0
LINE
8
BLACK
6
CONTINUOUS
10
0.6106983464566929
20
0.1138479527559055
11
0.6153067716535433
21
0.1103981102362205
0
LINE
8
BLACK
6
CONTINUOUS
10
0.6153067716535433
20
0.1103981102362205
11
0.615306968503937
21
0.110398031496063
0
LINE
8
BLACK
6
CONTINUOUS
10
0.615306968503937
20
0.110398031496063
11
0.6207005905511811
21
0.1083862598425197
0
LINE
8
BLACK
6
CONTINUOUS
10
0.6207005905511811
20
0.1083862598425197
11
0.620700905511811
21
0.1083861811023622
0
LINE
8
BLACK
6
CONTINUOUS
10
0.620700905511811
20
0.1083861811023622
11
0.6230846456692913
21
0.1081299212598425
0
LINE
8
BLACK
6
CONTINUOUS
10
0.6230846456692913
20
0.1081299212598425
11
0.6230851181102363
21
0.1081299212598425
0
LINE
8
BLACK
6
CONTINUOUS
10
0.6230851181102363
20
0.1081299212598425
11
0.7769153149606299
21
0.1081299212598425
0
LINE
8
BLACK
6
CONTINUOUS
10
0.7769153149606299
20
0.1081299212598425
11
0.7792990551181103
21
0.1083861811023622
0
LINE
8
BLACK
6
CONTINUOUS
10
0.7792990551181103
20
0.1083861811023622
11
0.7792993700787402
21
0.1083862598425197
0
LINE
8
BLACK
6
CONTINUOUS
10
0.7792993700787402
20
0.1083862598425197
11
0.7846929921259842
21
0.110398031496063
0
LINE
8
BLACK
6
CONTINUOUS
10
0.7846929921259842
20
0.110398031496063
11
0.784693188976378
21
0.1103981102362205
0
LINE
8
BLACK
6
CONTINUOUS
10
0.784693188976378
20
0.1103981102362205
11
0.7893016141732283
21
0.1138479527559055
0
LINE
8
BLACK
6
CONTINUOUS
10
0.7893016141732283
20
0.1138479527559055
11
0.7927514566929134
21
0.1184563779527559
0
LINE
8
BLACK
6
CONTINUOUS
10
0.7927514566929134
20
0.1184563779527559
11
0.7927515354330709
21
0.1184565748031496
0
LINE
8
BLACK
6
CONTINUOUS
10
0.7927515354330709
20
0.1184565748031496
11
0.7947633070866141
21
0.1238501968503937
0
LINE
8
BLACK
6
CONTINUOUS
10
0.7947633070866141
20
0.1238501968503937
11
0.7947633858267716
21
0.1238505118110236
0
LINE
8
BLACK
6
CONTINUOUS
10
0.7947633858267716
20
0.1238505118110236
11
0.7950196456692913
21
0.1262342519685039
0
LINE
8
BLACK
6
CONTINUOUS
10
0.7950196456692913
20
0.1262342519685039
11
0.79501968503937
21
0.1262349212598425
0
LINE
8
BLACK
6
CONTINUOUS
10
0.79501968503937
20
0.1262349212598425
11
0.79501968503937
21
0.2800642519685039
0
LINE
8
BLACK
6
CONTINUOUS
10
0.79501968503937
20
0.2800642519685039
11
0.7950196456692913
21
0.2800649212598425
0
LINE
8
BLACK
6
CONTINUOUS
10
0.7950196456692913
20
0.2800649212598425
11
0.7947633858267716
21
0.2824486614173228
0
LINE
8
BLACK
6
CONTINUOUS
10
0.7947633858267716
20
0.2824486614173228
11
0.7947633070866141
21
0.2824489763779527
0
LINE
8
BLACK
6
CONTINUOUS
10
0.7947633070866141
20
0.2824489763779527
11
0.7944866141732283
21
0.2831907480314961
0
LINE
8
BLACK
6
CONTINUOUS
10
0.7944866141732283
20
0.2831907480314961
11
0.7927515354330709
21
0.2878426771653543
0
LINE
8
BLACK
6
CONTINUOUS
10
0.7927515354330709
20
0.2878426771653543
11
0.7893016141732283
21
0.2924512204724409
0
LINE
8
BLACK
6
CONTINUOUS
10
0.7893016141732283
20
0.2924512204724409
11
0.7846930708661417
21
0.2959011417322834
0
LINE
8
BLACK
6
CONTINUOUS
10
0.7846930708661417
20
0.2959011417322834
11
0.7819426377952756
21
0.296926968503937
0
LINE
8
BLACK
6
CONTINUOUS
10
0.7819426377952756
20
0.296926968503937
11
0.779705157480315
21
0.2986020078740158
0
LINE
8
BLACK
6
CONTINUOUS
10
0.779705157480315
20
0.2986020078740158
11
0.7787283464566929
21
0.3012209448818898
0
LINE
8
BLACK
6
CONTINUOUS
10
0.7787283464566929
20
0.3012209448818898
11
0.7793225196850394
21
0.3039522047244094
0
LINE
8
BLACK
6
CONTINUOUS
10
0.7793225196850394
20
0.3039522047244094
11
0.7812989763779528
21
0.3059286614173228
0
LINE
8
BLACK
6
CONTINUOUS
10
0.7812989763779528
20
0.3059286614173228
11
0.781942283464567
21
0.3062224409448819
0
LINE
8
BLACK
6
CONTINUOUS
10
0.781942283464567
20
0.3062224409448819
11
0.7846930708661417
21
0.3072484645669291
0
LINE
8
BLACK
6
CONTINUOUS
10
0.7846930708661417
20
0.3072484645669291
11
0.7846931102362205
21
0.3072485039370079
0
LINE
8
BLACK
6
CONTINUOUS
10
0.7846931102362205
20
0.3072485039370079
11
0.7846932283464567
21
0.3072485433070866
0
LINE
8
BLACK
6
CONTINUOUS
10
0.7846932283464567
20
0.3072485433070866
11
0.7893016141732283
21
0.3106983464566929
0
LINE
8
BLACK
6
CONTINUOUS
10
0.7893016141732283
20
0.3106983464566929
11
0.7927514566929134
21
0.3153067716535433
0
LINE
8
BLACK
6
CONTINUOUS
10
0.7927514566929134
20
0.3153067716535433
11
0.7927515354330709
21
0.315306968503937
0
LINE
8
BLACK
6
CONTINUOUS
10
0.7927515354330709
20
0.315306968503937
11
0.7947633070866141
21
0.3207005905511811
0
LINE
8
BLACK
6
CONTINUOUS
10
0.7947633070866141
20
0.3207005905511811
11
0.7947633858267716
21
0.320700905511811
0
LINE
8
BLACK
6
CONTINUOUS
10
0.7947633858267716
20
0.320700905511811
11
0.7950196456692913
21
0.3230846456692913
0
LINE
8
BLACK
6
CONTINUOUS
10
0.7950196456692913
20
0.3230846456692913
11
0.79501968503937
21
0.3230853149606299
0
LINE
8
BLACK
6
CONTINUOUS
10
0.79501968503937
20
0.3230853149606299
11
0.79501968503937
21
0.4769146456692913
0
LINE
8
BLACK
6
CONTINUOUS
10
0.79501968503937
20
0.4769146456692913
11
0.7950196456692913
21
0.4769153149606299
0
LINE
8
BLACK
6
CONTINUOUS
10
0.7950196456692913
20
0.4769153149606299
11
0.7947633858267716
21
0.4792990551181102
0
LINE
8
BLACK
6
CONTINUOUS
10
0.7947633858267716
20
0.4792990551181102
11
0.7947633070866141
21
0.4792993700787401
0
LINE
8
BLACK
6
CONTINUOUS
10
0.7947633070866141
20
0.4792993700787401
11
0.7944866141732283
21
0.4800411417322835
0
LINE
8
BLACK
6
CONTINUOUS
10
0.7944866141732283
20
0.4800411417322835
11
0.7927515354330709
21
0.4846930708661417
0
LINE
8
BLACK
6
CONTINUOUS
10
0.7927515354330709
20
0.4846930708661417
11
0.7893016141732283
21
0.4893016141732283
0
LINE
8
BLACK
6
CONTINUOUS
10
0.7893016141732283
20
0.4893016141732283
11
0.7846930708661417
21
0.4927515354330709
0
LINE
8
BLACK
6
CONTINUOUS
10
0.7846930708661417
20
0.4927515354330709
11
0.7792992519685039
21
0.4947633464566929
0
LINE
8
BLACK
6
CONTINUOUS
10
0.7792992519685039
20
0.4947633464566929
11
0.7792991732283464
21
0.4947633464566929
0
LINE
8
BLACK
6
CONTINUOUS
10
0.7792991732283464
20
0.4947633464566929
11
0.7792990551181103
21
0.4947633858267717
0
LINE
8
BLACK
6
CONTINUOUS
10
0.7792990551181103
20
0.4947633858267717
11
0.7769153149606299
21
0.4950196456692914
0
LINE
8
BLACK
6
CONTINUOUS
10
0.7769153149606299
20
0.4950196456692914
11
0.7769151574803149
21
0.4950196456692914
0
LINE
8
BLACK
6
CONTINUOUS
10
0.7769151574803149
20
0.4950196456692914
11
0.7769148818897638
21
0.49501968503937
0
LINE
8
BLACK
6
CONTINUOUS
10
0.7769148818897638
20
0.49501968503937
11
0.6230851181102363
21
0.49501968503937
0
LINE
8
BLACK
6
CONTINUOUS
10
0.6230851181102363
20
0.49501968503937
11
0.623084842519685
21
0.4950196456692914
0
LINE
8
BLACK
6
CONTINUOUS
10
0.623084842519685
20
0.4950196456692914
11
0.6230846456692913
21
0.4950196456692914
0
LINE
8
BLACK
6
CONTINUOUS
10
0.6230846456692913
20
0.4950196456692914
11
0.620700905511811
21
0.4947633858267717
0
LINE
8
BLACK
6
CONTINUOUS
10
0.620700905511811
20
0.4947633858267717
11
0.6207005905511811
21
0.4947633070866141
0
LINE
8
BLACK
6
CONTINUOUS
10
0.6207005905511811
20
0.4947633070866141
11
0.6176328740157481
21
0.4936190551181102
0
LINE
8
BLACK
6
CONTINUOUS
10
0.6176328740157481
20
0.4936190551181102
11
0.6153069291338582
21
0.4927515354330709
0
LINE
8
BLACK
6
CONTINUOUS
10
0.6153069291338582
20
0.4927515354330709
11
0.6153068503937008
21
0.4927514960629921
0
LINE
8
BLACK
6
CONTINUOUS
10
0.6153068503937008
20
0.4927514960629921
11
0.6153067716535433
21
0.4927514566929134
0
LINE
8
BLACK
6
CONTINUOUS
10
0.6153067716535433
20
0.4927514566929134
11
0.6106983464566929
21
0.4893016141732283
0
LINE
8
BLACK
6
CONTINUOUS
10
0.6106983464566929
20
0.4893016141732283
11
0.6072485039370079
21
0.4846931889763779
0
LINE
8
BLACK
6
CONTINUOUS
10
0.6072485039370079
20
0.4846931889763779
11
0.6072484251968504
21
0.4846929921259843
0
LINE
8
BLACK
6
CONTINUOUS
10
0.6072484251968504
20
0.4846929921259843
11
0.605236653543307
21
0.4792993700787401
0
LINE
8
BLACK
6
CONTINUOUS
10
0.605236653543307
20
0.4792993700787401
11
0.6052365748031496
21
0.4792990551181102
0
LINE
8
BLACK
6
CONTINUOUS
10
0.6052365748031496
20
0.4792990551181102
11
0.6049803149606299
21
0.4769153149606299
0
LINE
8
BLACK
6
CONTINUOUS
10
0.6049803149606299
20
0.4769153149606299
11
0.6049803149606299
21
0.3230846456692913
0
LINE
8
BLACK
6
CONTINUOUS
10
0.6049803149606299
20
0.3230846456692913
11
0.6052365748031496
21
0.320700905511811
0
LINE
8
BLACK
6
CONTINUOUS
10
0.6052365748031496
20
0.320700905511811
11
0.605236653543307
21
0.3207005905511811
0
LINE
8
BLACK
6
CONTINUOUS
10
0.605236653543307
20
0.3207005905511811
11
0.6072484251968504
21
0.315306968503937
0
LINE
8
BLACK
6
CONTINUOUS
10
0.6072484251968504
20
0.315306968503937
11
0.6072485039370079
21
0.3153067716535433
0
LINE
8
BLACK
6
CONTINUOUS
10
0.6072485039370079
20
0.3153067716535433
11
0.6106983464566929
21
0.3106983464566929
0
LINE
8
BLACK
6
CONTINUOUS
10
0.6106983464566929
20
0.3106983464566929
11
0.6153067716535433
21
0.3072485039370079
0
LINE
8
BLACK
6
CONTINUOUS
10
0.6153067716535433
20
0.3072485039370079
11
0.615306968503937
21
0.3072484251968504
0
LINE
8
BLACK
6
CONTINUOUS
10
0.615306968503937
20
0.3072484251968504
11
0.6180572047244094
21
0.3062226377952756
0
LINE
8
BLACK
6
CONTINUOUS
10
0.6180572047244094
20
0.3062226377952756
11
0.620294842519685
21
0.3045475590551181
0
LINE
8
BLACK
6
CONTINUOUS
10
0.620294842519685
20
0.3045475590551181
11
0.6212716141732283
21
0.3019286614173228
0
LINE
8
BLACK
6
CONTINUOUS
10
0.6212716141732283
20
0.3019286614173228
11
0.6206774409448819
21
0.2991974015748031
0
LINE
8
BLACK
6
CONTINUOUS
10
0.6206774409448819
20
0.2991974015748031
11
0.6187009842519685
21
0.2972209448818898
0
LINE
8
BLACK
6
CONTINUOUS
10
0.6187009842519685
20
0.2972209448818898
11
0.6180572047244094
21
0.296926968503937
0
LINE
8
BLACK
6
CONTINUOUS
10
0.6180572047244094
20
0.296926968503937
11
0.6166014173228346
21
0.296383937007874
0
LINE
8
BLACK
6
CONTINUOUS
10
0.6166014173228346
20
0.296383937007874
11
0.6153069291338582
21
0.2959011417322834
0
LINE
8
BLACK
6
CONTINUOUS
10
0.6153069291338582
20
0.2959011417322834
11
0.6153068503937008
21
0.2959011023622047
0
LINE
8
BLACK
6
CONTINUOUS
10
0.6153068503937008
20
0.2959011023622047
11
0.6153067716535433
21
0.295901062992126
0
LINE
8
BLACK
6
CONTINUOUS
10
0.6153067716535433
20
0.295901062992126
11
0.6106983464566929
21
0.2924512204724409
0
LINE
8
BLACK
6
CONTINUOUS
10
0.6106983464566929
20
0.2924512204724409
11
0.6072485039370079
21
0.2878427952755905
0
LINE
8
BLACK
6
CONTINUOUS
10
0.6072485039370079
20
0.2878427952755905
11
0.6072484251968504
21
0.2878425984251968
0
LINE
8
BLACK
6
CONTINUOUS
10
0.6072484251968504
20
0.2878425984251968
11
0.605236653543307
21
0.2824489763779527
0
LINE
8
BLACK
6
CONTINUOUS
10
0.605236653543307
20
0.2824489763779527
11
0.6052365748031496
21
0.2824486614173228
0
LINE
8
BLACK
6
CONTINUOUS
10
0.6052365748031496
20
0.2824486614173228
11
0.6049803149606299
21
0.2800649212598425
0
LINE
8
BLACK
6
CONTINUOUS
10
0.6049803149606299
20
0.2800649212598425
11
0.6049803149606299
21
0.1262342519685039
0
LINE
8
BLACK
6
CONTINUOUS
10
0.6049803149606299
20
0.1262342519685039
11
0.6052365748031496
21
0.1238505118110236
0
LINE
8
BLACK
6
CONTINUOUS
10
0.8052365748031496
20
0.1238505118110236
11
0.8052366535433071
21
0.1238501968503937
0
LINE
8
BLACK
6
CONTINUOUS
10
0.8052366535433071
20
0.1238501968503937
11
0.8072484251968504
21
0.1184565748031496
0
LINE
8
BLACK
6
CONTINUOUS
10
0.8072484251968504
20
0.1184565748031496
11
0.8072485039370079
21
0.1184563779527559
0
LINE
8
BLACK
6
CONTINUOUS
10
0.8072485039370079
20
0.1184563779527559
11
0.8106983464566929
21
0.1138479527559055
0
LINE
8
BLACK
6
CONTINUOUS
10
0.8106983464566929
20
0.1138479527559055
11
0.8153067716535433
21
0.1103981102362205
0
LINE
8
BLACK
6
CONTINUOUS
10
0.8153067716535433
20
0.1103981102362205
11
0.815306968503937
21
0.110398031496063
0
LINE
8
BLACK
6
CONTINUOUS
10
0.815306968503937
20
0.110398031496063
11
0.8207005905511811
21
0.1083862598425197
0
LINE
8
BLACK
6
CONTINUOUS
10
0.8207005905511811
20
0.1083862598425197
11
0.820700905511811
21
0.1083861811023622
0
LINE
8
BLACK
6
CONTINUOUS
10
0.820700905511811
20
0.1083861811023622
11
0.8230846456692913
21
0.1081299212598425
0
LINE
8
BLACK
6
CONTINUOUS
10
0.8230846456692913
20
0.1081299212598425
11
0.8230851181102362
21
0.1081299212598425
0
LINE
8
BLACK
6
CONTINUOUS
10
0.8230851181102362
20
0.1081299212598425
11
0.9769153149606299
21
0.1081299212598425
0
LINE
8
BLACK
6
CONTINUOUS
10
0.9769153149606299
20
0.1081299212598425
11
0.9792990551181102
21
0.1083861811023622
0
LINE
8
BLACK
6
CONTINUOUS
10
0.9792990551181102
20
0.1083861811023622
11
0.9792993700787401
21
0.1083862598425197
0
LINE
8
BLACK
6
CONTINUOUS
10
0.9792993700787401
20
0.1083862598425197
11
0.9846929921259843
21
0.110398031496063
0
LINE
8
BLACK
6
CONTINUOUS
10
0.9846929921259843
20
0.110398031496063
11
0.9846931889763779
21
0.1103981102362205
0
LINE
8
BLACK
6
CONTINUOUS
10
0.9846931889763779
20
0.1103981102362205
11
0.9893016141732284
21
0.1138479527559055
0
LINE
8
BLACK
6
CONTINUOUS
10
0.9893016141732284
20
0.1138479527559055
11
0.9927514566929133
21
0.1184563779527559
0
LINE
8
BLACK
6
CONTINUOUS
10
0.9927514566929133
20
0.1184563779527559
11
0.9927515354330708
21
0.1184565748031496
0
LINE
8
BLACK
6
CONTINUOUS
10
0.9927515354330708
20
0.1184565748031496
11
0.9947633070866142
21
0.1238501968503937
0
LINE
8
BLACK
6
CONTINUOUS
10
0.9947633070866142
20
0.1238501968503937
11
0.9947633858267716
21
0.1238505118110236
0
LINE
8
BLACK
6
CONTINUOUS
10
0.9947633858267716
20
0.1238505118110236
11
0.9950196456692914
21
0.1262342519685039
0
LINE
8
BLACK
6
CONTINUOUS
10
0.9950196456692914
20
0.1262342519685039
11
0.9950196850393701
21
0.1262349212598425
0
LINE
8
BLACK
6
CONTINUOUS
10
0.9950196850393701
20
0.1262349212598425
11
0.9950196850393701
21
0.2800642519685039
0
LINE
8
BLACK
6
CONTINUOUS
10
0.9950196850393701
20
0.2800642519685039
11
0.9950196456692914
21
0.2800649212598425
0
LINE
8
BLACK
6
CONTINUOUS
10
0.9950196456692914
20
0.2800649212598425
11
0.9947633858267716
21
0.2824486614173228
0
LINE
8
BLACK
6
CONTINUOUS
10
0.9947633858267716
20
0.2824486614173228
11
0.9947633070866142
21
0.2824489763779527
0
LINE
8
BLACK
6
CONTINUOUS
10
0.9947633070866142
20
0.2824489763779527
11
0.9944866141732284
21
0.2831907480314961
0
LINE
8
BLACK
6
CONTINUOUS
10
0.9944866141732284
20
0.2831907480314961
11
0.9927515354330708
21
0.2878426771653543
0
LINE
8
BLACK
6
CONTINUOUS
10
0.9927515354330708
20
0.2878426771653543
11
0.9893016141732284
21
0.2924512204724409
0
LINE
8
BLACK
6
CONTINUOUS
10
0.9893016141732284
20
0.2924512204724409
11
0.9846930708661417
21
0.2959011417322834
0
LINE
8
BLACK
6
CONTINUOUS
10
0.9846930708661417
20
0.2959011417322834
11
0.9819426377952756
21
0.296926968503937
0
LINE
8
BLACK
6
CONTINUOUS
10
0.9819426377952756
20
0.296926968503937
11
0.9797051574803149
21
0.2986020078740158
0
LINE
8
BLACK
6
CONTINUOUS
10
0.9797051574803149
20
0.2986020078740158
11
0.9787283464566929
21
0.3012209448818898
0
LINE
8
BLACK
6
CONTINUOUS
10
0.9787283464566929
20
0.3012209448818898
11
0.9793225196850394
21
0.3039522047244094
0
LINE
8
BLACK
6
CONTINUOUS
10
0.9793225196850394
20
0.3039522047244094
11
0.9812989763779527
21
0.3059286614173228
0
LINE
8
BLACK
6
CONTINUOUS
10
0.9812989763779527
20
0.3059286614173228
11
0.9819422834645669
21
0.3062224409448819
0
LINE
8
BLACK
6
CONTINUOUS
10
0.9819422834645669
20
0.3062224409448819
11
0.9846930708661417
21
0.3072484645669291
0
LINE
8
BLACK
6
CONTINUOUS
10
0.9846930708661417
20
0.3072484645669291
11
0.9846931102362204
21
0.3072485039370079
0
LINE
8
BLACK
6
CONTINUOUS
10
0.9846931102362204
20
0.3072485039370079
11
0.9846932283464567
21
0.3072485433070866
0
LINE
8
BLACK
6
CONTINUOUS
10
0.9846932283464567
20
0.3072485433070866
11
0.9893016141732284
21
0.3106983464566929
0
LINE
8
BLACK
6
CONTINUOUS
10
0.9893016141732284
20
0.3106983464566929
11
0.9927514566929133
21
0.3153067716535433
0
LINE
8
BLACK
6
CONTINUOUS
10
0.9927514566929133
20
0.3153067716535433
11
0.9927515354330708
21
0.315306968503937
0
LINE
8
BLACK
6
CONTINUOUS
10
0.9927515354330708
20
0.315306968503937
11
0.9947633070866142
21
0.3207005905511811
0
LINE
8
BLACK
6
CONTINUOUS
10
0.9947633070866142
20
0.3207005905511811
11
0.9947633858267716
21
0.320700905511811
0
LINE
8
BLACK
6
CONTINUOUS
10
0.9947633858267716
20
0.320700905511811
11
0.9950196456692914
21
0.3230846456692913
0
LINE
8
BLACK
6
CONTINUOUS
10
0.9950196456692914
20
0.3230846456692913
11
0.9950196850393701
21
0.3230853149606299
0
LINE
8
BLACK
6
CONTINUOUS
10
0.9950196850393701
20
0.3230853149606299
11
0.9950196850393701
21
0.4769146456692913
0
LINE
8
BLACK
6
CONTINUOUS
10
0.9950196850393701
20
0.4769146456692913
11
0.9950196456692914
21
0.4769153149606299
0
LINE
8
BLACK
6
CONTINUOUS
10
0.9950196456692914
20
0.4769153149606299
11
0.9947633858267716
21
0.4792990551181102
0
LINE
8
BLACK
6
CONTINUOUS
10
0.9947633858267716
20
0.4792990551181102
11
0.9947633070866142
21
0.4792993700787401
0
LINE
8
BLACK
6
CONTINUOUS
10
0.9947633070866142
20
0.4792993700787401
11
0.9944866141732284
21
0.4800411417322835
0
LINE
8
BLACK
6
CONTINUOUS
10
0.9944866141732284
20
0.4800411417322835
11
0.9927515354330708
21
0.4846930708661417
0
LINE
8
BLACK
6
CONTINUOUS
10
0.9927515354330708
20
0.4846930708661417
11
0.9893016141732284
21
0.4893016141732283
0
LINE
8
BLACK
6
CONTINUOUS
10
0.9893016141732284
20
0.4893016141732283
11
0.9846930708661417
21
0.4927515354330709
0
LINE
8
BLACK
6
CONTINUOUS
10
0.9846930708661417
20
0.4927515354330709
11
0.9792992519685039
21
0.4947633464566929
0
LINE
8
BLACK
6
CONTINUOUS
10
0.9792992519685039
20
0.4947633464566929
11
0.9792991732283465
21
0.4947633464566929
0
LINE
8
BLACK
6
CONTINUOUS
10
0.9792991732283465
20
0.4947633464566929
11
0.9792990551181102
21
0.4947633858267717
0
LINE
8
BLACK
6
CONTINUOUS
10
0.9792990551181102
20
0.4947633858267717
11
0.9769153149606299
21
0.4950196456692914
0
LINE
8
BLACK
6
CONTINUOUS
10
0.9769153149606299
20
0.4950196456692914
11
0.976915157480315
21
0.4950196456692914
0
LINE
8
BLACK
6
CONTINUOUS
10
0.976915157480315
20
0.4950196456692914
11
0.9769148818897637
21
0.49501968503937
0
LINE
8
BLACK
6
CONTINUOUS
10
0.9769148818897637
20
0.49501968503937
11
0.8230851181102362
21
0.49501968503937
0
LINE
8
BLACK
6
CONTINUOUS
10
0.8230851181102362
20
0.49501968503937
11
0.8230848425196851
21
0.4950196456692914
0
LINE
8
BLACK
6
CONTINUOUS
10
0.8230848425196851
20
0.4950196456692914
11
0.8230846456692913
21
0.4950196456692914
0
LINE
8
BLACK
6
CONTINUOUS
10
0.8230846456692913
20
0.4950196456692914
11
0.820700905511811
21
0.4947633858267717
0
LINE
8
BLACK
6
CONTINUOUS
10
0.820700905511811
20
0.4947633858267717
11
0.8207005905511811
21
0.4947633070866141
0
LINE
8
BLACK
6
CONTINUOUS
10
0.8207005905511811
20
0.4947633070866141
11
0.817632874015748
21
0.4936190551181102
0
LINE
8
BLACK
6
CONTINUOUS
10
0.817632874015748
20
0.4936190551181102
11
0.8153069291338583
21
0.4927515354330709
0
LINE
8
BLACK
6
CONTINUOUS
10
0.8153069291338583
20
0.4927515354330709
11
0.8153068503937008
21
0.4927514960629921
0
LINE
8
BLACK
6
CONTINUOUS
10
0.8153068503937008
20
0.4927514960629921
11
0.8153067716535433
21
0.4927514566929134
0
LINE
8
BLACK
6
CONTINUOUS
10
0.8153067716535433
20
0.4927514566929134
11
0.8106983464566929
21
0.4893016141732283
0
LINE
8
BLACK
6
CONTINUOUS
10
0.8106983464566929
20
0.4893016141732283
11
0.8072485039370079
21
0.4846931889763779
0
LINE
8
BLACK
6
CONTINUOUS
10
0.8072485039370079
20
0.4846931889763779
11
0.8072484251968504
21
0.4846929921259843
0
LINE
8
BLACK
6
CONTINUOUS
10
0.8072484251968504
20
0.4846929921259843
11
0.8052366535433071
21
0.4792993700787401
0
LINE
8
BLACK
6
CONTINUOUS
10
0.8052366535433071
20
0.4792993700787401
11
0.8052365748031496
21
0.4792990551181102
0
LINE
8
BLACK
6
CONTINUOUS
10
0.8052365748031496
20
0.4792990551181102
11
0.8049803149606299
21
0.4769153149606299
0
LINE
8
BLACK
6
CONTINUOUS
10
0.8049803149606299
20
0.4769153149606299
11
0.8049803149606299
21
0.3230846456692913
0
LINE
8
BLACK
6
CONTINUOUS
10
0.8049803149606299
20
0.3230846456692913
11
0.8052365748031496
21
0.320700905511811
0
LINE
8
BLACK
6
CONTINUOUS
10
0.8052365748031496
20
0.320700905511811
11
0.8052366535433071
21
0.3207005905511811
0
LINE
8
BLACK
6
CONTINUOUS
10
0.8052366535433071
20
0.3207005905511811
11
0.8072484251968504
21
0.315306968503937
0
LINE
8
BLACK
6
CONTINUOUS
10
0.8072484251968504
20
0.315306968503937
11
0.8072485039370079
21
0.3153067716535433
0
LINE
8
BLACK
6
CONTINUOUS
10
0.8072485039370079
20
0.3153067716535433
11
0.8106983464566929
21
0.3106983464566929
0
LINE
8
BLACK
6
CONTINUOUS
10
0.8106983464566929
20
0.3106983464566929
11
0.8153067716535433
21
0.3072485039370079
0
LINE
8
BLACK
6
CONTINUOUS
10
0.8153067716535433
20
0.3072485039370079
11
0.815306968503937
21
0.3072484251968504
0
LINE
8
BLACK
6
CONTINUOUS
10
0.815306968503937
20
0.3072484251968504
11
0.8180572047244095
21
0.3062226377952756
0
LINE
8
BLACK
6
CONTINUOUS
10
0.8180572047244095
20
0.3062226377952756
11
0.820294842519685
21
0.3045475590551181
0
LINE
8
BLACK
6
CONTINUOUS
10
0.820294842519685
20
0.3045475590551181
11
0.8212716141732284
21
0.3019286614173228
0
LINE
8
BLACK
6
CONTINUOUS
10
0.8212716141732284
20
0.3019286614173228
11
0.8206774409448818
21
0.2991974015748031
0
LINE
8
BLACK
6
CONTINUOUS
10
0.8206774409448818
20
0.2991974015748031
11
0.8187009842519685
21
0.2972209448818898
0
LINE
8
BLACK
6
CONTINUOUS
10
0.8187009842519685
20
0.2972209448818898
11
0.8180572047244095
21
0.296926968503937
0
LINE
8
BLACK
6
CONTINUOUS
10
0.8180572047244095
20
0.296926968503937
11
0.8166014173228346
21
0.296383937007874
0
LINE
8
BLACK
6
CONTINUOUS
10
0.8166014173228346
20
0.296383937007874
11
0.8153069291338583
21
0.2959011417322834
0
LINE
8
BLACK
6
CONTINUOUS
10
0.8153069291338583
20
0.2959011417322834
11
0.8153068503937008
21
0.2959011023622047
0
LINE
8
BLACK
6
CONTINUOUS
10
0.8153068503937008
20
0.2959011023622047
11
0.8153067716535433
21
0.295901062992126
0
LINE
8
BLACK
6
CONTINUOUS
10
0.8153067716535433
20
0.295901062992126
11
0.8106983464566929
21
0.2924512204724409
0
LINE
8
BLACK
6
CONTINUOUS
10
0.8106983464566929
20
0.2924512204724409
11
0.8072485039370079
21
0.2878427952755905
0
LINE
8
BLACK
6
CONTINUOUS
10
0.8072485039370079
20
0.2878427952755905
11
0.8072484251968504
21
0.2878425984251968
0
LINE
8
BLACK
6
CONTINUOUS
10
0.8072484251968504
20
0.2878425984251968
11
0.8052366535433071
21
0.2824489763779527
0
LINE
8
BLACK
6
CONTINUOUS
10
0.8052366535433071
20
0.2824489763779527
11
0.8052365748031496
21
0.2824486614173228
0
LINE
8
BLACK
6
CONTINUOUS
10
0.8052365748031496
20
0.2824486614173228
11
0.8049803149606299
21
0.2800649212598425
0
LINE
8
BLACK
6
CONTINUOUS
10
0.8049803149606299
20
0.2800649212598425
11
0.8049803149606299
21
0.1262342519685039
0
LINE
8
BLACK
6
CONTINUOUS
10
0.8049803149606299
20
0.1262342519685039
11
0.8052365748031496
21
0.1238505118110236
0
LINE
8
BLACK
6
CONTINUOUS
10
0.2579924803149606
20
0.973456811023622
11
0.2579925590551181
21
0.9734564960629921
0
LINE
8
BLACK
6
CONTINUOUS
10
0.2579925590551181
20
0.9734564960629921
11
0.2600043307086614
21
0.968062874015748
0
LINE
8
BLACK
6
CONTINUOUS
10
0.2600043307086614
20
0.968062874015748
11
0.2600044094488189
21
0.9680626771653543
0
LINE
8
BLACK
6
CONTINUOUS
10
0.2600044094488189
20
0.9680626771653543
11
0.2634542519685039
21
0.9634542519685039
0
LINE
8
BLACK
6
CONTINUOUS
10
0.2634542519685039
20
0.9634542519685039
11
0.2680626771653543
21
0.9600044094488189
0
LINE
8
BLACK
6
CONTINUOUS
10
0.2680626771653543
20
0.9600044094488189
11
0.268062874015748
21
0.9600043307086614
0
LINE
8
BLACK
6
CONTINUOUS
10
0.268062874015748
20
0.9600043307086614
11
0.2734564960629921
21
0.957992559055118
0
LINE
8
BLACK
6
CONTINUOUS
10
0.2734564960629921
20
0.957992559055118
11
0.273456811023622
21
0.9579924803149606
0
LINE
8
BLACK
6
CONTINUOUS
10
0.273456811023622
20
0.9579924803149606
11
0.2758405511811023
21
0.9577362204724409
0
LINE
8
BLACK
6
CONTINUOUS
10
0.2758405511811023
20
0.9577362204724409
11
0.2758410236220473
21
0.9577362204724409
0
LINE
8
BLACK
6
CONTINUOUS
10
0.2758410236220473
20
0.9577362204724409
11
0.3741594094488189
21
0.9577362204724409
0
LINE
8
BLACK
6
CONTINUOUS
10
0.3741594094488189
20
0.9577362204724409
11
0.3765431496062992
21
0.9579924803149606
0
LINE
8
BLACK
6
CONTINUOUS
10
0.3765431496062992
20
0.9579924803149606
11
0.3765434645669291
21
0.957992559055118
0
LINE
8
BLACK
6
CONTINUOUS
10
0.3765434645669291
20
0.957992559055118
11
0.3819370866141732
21
0.9600043307086614
0
LINE
8
BLACK
6
CONTINUOUS
10
0.3819370866141732
20
0.9600043307086614
11
0.3819372834645669
21
0.9600044094488189
0
LINE
8
BLACK
6
CONTINUOUS
10
0.3819372834645669
20
0.9600044094488189
11
0.3865457086614173
21
0.9634542519685039
0
LINE
8
BLACK
6
CONTINUOUS
10
0.3865457086614173
20
0.9634542519685039
11
0.3899955511811024
21
0.9680626771653543
0
LINE
8
BLACK
6
CONTINUOUS
10
0.3899955511811024
20
0.9680626771653543
11
0.3899956299212599
21
0.968062874015748
0
LINE
8
BLACK
6
CONTINUOUS
10
0.3899956299212599
20
0.968062874015748
11
0.3920074015748031
21
0.9734564960629921
0
LINE
8
BLACK
6
CONTINUOUS
10
0.3920074015748031
20
0.9734564960629921
11
0.3920074803149606
21
0.973456811023622
0
LINE
8
BLACK
6
CONTINUOUS
10
0.3920074803149606
20
0.973456811023622
11
0.3922637401574803
21
0.9758405511811024
0
LINE
8
BLACK
6
CONTINUOUS
10
0.3922637401574803
20
0.9758405511811024
11
0.392263779527559
21
0.9758412204724409
0
LINE
8
BLACK
6
CONTINUOUS
10
0.392263779527559
20
0.9758412204724409
11
0.392263779527559
21
0.9882086614173228
0
LINE
8
BLACK
6
CONTINUOUS
10
0.392263779527559
20
0.9882086614173228
11
0.3930512598425197
21
0.9908905905511811
0
LINE
8
BLACK
6
CONTINUOUS
10
0.3930512598425197
20
0.9908905905511811
11
0.3951637007874015
21
0.9927210236220472
0
LINE
8
BLACK
6
CONTINUOUS
10
0.3951637007874015
20
0.9927210236220472
11
0.3972244094488189
21
0.9931692913385827
0
LINE
8
BLACK
6
CONTINUOUS
10
0.3972244094488189
20
0.9931692913385827
11
0.3994527559055118
21
0.9931692913385827
0
LINE
8
BLACK
6
CONTINUOUS
10
0.3994527559055118
20
0.9931692913385827
11
0.4009346850393701
21
0.9935075196850394
0
LINE
8
BLACK
6
CONTINUOUS
10
0.4009346850393701
20
0.9935075196850394
11
0.4014829921259843
21
0.9936007086614173
0
LINE
8
BLACK
6
CONTINUOUS
10
0.4014829921259843
20
0.9936007086614173
11
0.402993937007874
21
0.9937709448818898
0
LINE
8
BLACK
6
CONTINUOUS
10
0.402993937007874
20
0.9937709448818898
11
0.4029942125984252
21
0.9937710236220472
0
LINE
8
BLACK
6
CONTINUOUS
10
0.4029942125984252
20
0.9937710236220472
11
0.404428937007874
21
0.9942730314960629
0
LINE
8
BLACK
6
CONTINUOUS
10
0.404428937007874
20
0.9942730314960629
11
0.404963188976378
21
0.994426968503937
0
LINE
8
BLACK
6
CONTINUOUS
10
0.404963188976378
20
0.994426968503937
11
0.4064455118110236
21
0.9947653543307087
0
LINE
8
BLACK
6
CONTINUOUS
10
0.4064455118110236
20
0.9947653543307087
11
0.4064458267716535
21
0.9947654330708661
0
LINE
8
BLACK
6
CONTINUOUS
10
0.4064458267716535
20
0.9947654330708661
11
0.4078154724409448
21
0.9954250393700788
0
LINE
8
BLACK
6
CONTINUOUS
10
0.4078154724409448
20
0.9954250393700788
11
0.4083293700787402
21
0.9956379133858267
0
LINE
8
BLACK
6
CONTINUOUS
10
0.4083293700787402
20
0.9956379133858267
11
0.4085438976377953
21
0.9957129527559054
0
LINE
8
BLACK
6
CONTINUOUS
10
0.4085438976377953
20
0.9957129527559054
11
0.4097643700787402
21
0.9961400393700787
0
LINE
8
BLACK
6
CONTINUOUS
10
0.4097643700787402
20
0.9961400393700787
11
0.4110515354330709
21
0.9969488188976378
0
LINE
8
BLACK
6
CONTINUOUS
10
0.4110515354330709
20
0.9969488188976378
11
0.4115383464566929
21
0.997217874015748
0
LINE
8
BLACK
6
CONTINUOUS
10
0.4115383464566929
20
0.997217874015748
11
0.4129081889763779
21
0.9978775590551181
0
LINE
8
BLACK
6
CONTINUOUS
10
0.4129081889763779
20
0.9978775590551181
11
0.4129083464566929
21
0.9978776377952756
0
LINE
8
BLACK
6
CONTINUOUS
10
0.4129083464566929
20
0.9978776377952756
11
0.4140969291338583
21
0.9988255118110236
0
LINE
8
BLACK
6
CONTINUOUS
10
0.4140969291338583
20
0.9988255118110236
11
0.4145505511811023
21
0.9991474015748031
0
LINE
8
BLACK
6
CONTINUOUS
10
0.4145505511811023
20
0.9991474015748031
11
0.4158378346456693
21
0.9999562598425197
0
LINE
8
BLACK
6
CONTINUOUS
10
0.4158378346456693
20
0.9999562598425197
11
0.4209098818897637
21
1.0050283070866142
0
LINE
8
BLACK
6
CONTINUOUS
10
0.4209098818897637
20
1.0050283070866142
11
0.8825979133858267
21
1.4667163385826771
0
LINE
8
BLACK
6
CONTINUOUS
10
0.8825979133858267
20
1.4667163385826771
11
0.8850511417322835
21
1.4680559448818897
0
LINE
8
BLACK
6
CONTINUOUS
10
0.8850511417322835
20
1.4680559448818897
11
0.8861055905511811
21
1.4681692913385826
0
LINE
8
BLACK
6
CONTINUOUS
10
0.8861055905511811
20
1.4681692913385826
11
1.0075002362204724
21
1.4681692913385826
0
LINE
8
BLACK
6
CONTINUOUS
10
1.0075002362204724
20
1.4681692913385826
11
1.0095179133858267
21
1.4677404330708661
0
LINE
8
BLACK
6
CONTINUOUS
10
1.0095179133858267
20
1.4677404330708661
11
1.0138862598425196
21
1.4657955118110235
0
LINE
8
BLACK
6
CONTINUOUS
10
1.0138862598425196
20
1.4657955118110235
11
1.0212406692913385
21
1.4642322834645669
0
LINE
8
BLACK
6
CONTINUOUS
10
1.0212406692913385
20
1.4642322834645669
11
1.0287593307086613
21
1.4642322834645669
0
LINE
8
BLACK
6
CONTINUOUS
10
1.0287593307086613
20
1.4642322834645669
11
1.0361137007874015
21
1.4657955118110235
0
LINE
8
BLACK
6
CONTINUOUS
10
1.0361137007874015
20
1.4657955118110235
11
1.0429823622047243
21
1.4688536220472441
0
LINE
8
BLACK
6
CONTINUOUS
10
1.0429823622047243
20
1.4688536220472441
11
1.0490651574803149
21
1.4732730314960629
0
LINE
8
BLACK
6
CONTINUOUS
10
1.0490651574803149
20
1.4732730314960629
11
1.0540958267716536
21
1.4788601574803149
0
LINE
8
BLACK
6
CONTINUOUS
10
1.0540958267716536
20
1.4788601574803149
11
1.0540961023622046
21
1.4788605511811024
0
LINE
8
BLACK
6
CONTINUOUS
10
1.0540961023622046
20
1.4788605511811024
11
1.0578553937007873
21
1.485371811023622
0
LINE
8
BLACK
6
CONTINUOUS
10
1.0578553937007873
20
1.485371811023622
11
1.0601788188976378
21
1.4925225196850394
0
LINE
8
BLACK
6
CONTINUOUS
10
1.0601788188976378
20
1.4925225196850394
11
1.0609647244094489
21
1.5
0
LINE
8
BLACK
6
CONTINUOUS
10
1.0609647244094489
20
1.5
11
1.0601788188976378
21
1.5074774803149606
0
LINE
8
BLACK
6
CONTINUOUS
10
1.0601788188976378
20
1.5074774803149606
11
1.0578553937007873
21
1.514628188976378
0
LINE
8
BLACK
6
CONTINUOUS
10
1.0578553937007873
20
1.514628188976378
11
1.0540960629921259
21
1.5211395275590551
0
LINE
8
BLACK
6
CONTINUOUS
10
1.0540960629921259
20
1.5211395275590551
11
1.050833188976378
21
1.5247633070866142
0
LINE
8
BLACK
6
CONTINUOUS
10
1.050833188976378
20
1.5247633070866142
11
1.0490651574803149
21
1.5267269291338583
0
LINE
8
BLACK
6
CONTINUOUS
10
1.0490651574803149
20
1.5267269291338583
11
1.0490651181102362
21
1.5267269291338583
0
LINE
8
BLACK
6
CONTINUOUS
10
1.0490651181102362
20
1.5267269291338583
11
1.0490650787401574
21
1.5267270078740156
0
LINE
8
BLACK
6
CONTINUOUS
10
1.0490650787401574
20
1.5267270078740156
11
1.0429823622047243
21
1.5311463779527559
0
LINE
8
BLACK
6
CONTINUOUS
10
1.0429823622047243
20
1.5311463779527559
11
1.0361137007874015
21
1.5342044881889763
0
LINE
8
BLACK
6
CONTINUOUS
10
1.0361137007874015
20
1.5342044881889763
11
1.0287593307086613
21
1.5357677165354331
0
LINE
8
BLACK
6
CONTINUOUS
10
1.0287593307086613
20
1.5357677165354331
11
1.0212406692913385
21
1.5357677165354331
0
LINE
8
BLACK
6
CONTINUOUS
10
1.0212406692913385
20
1.5357677165354331
11
1.0138862992125983
21
1.5342044881889763
0
LINE
8
BLACK
6
CONTINUOUS
10
1.0138862992125983
20
1.5342044881889763
11
1.0100190157480315
21
1.5324826377952756
0
LINE
8
BLACK
6
CONTINUOUS
10
1.0100190157480315
20
1.5324826377952756
11
1.0095179133858267
21
1.5322595669291339
0
LINE
8
BLACK
6
CONTINUOUS
10
1.0095179133858267
20
1.5322595669291339
11
1.0075002362204724
21
1.5318307086614174
0
LINE
8
BLACK
6
CONTINUOUS
10
1.0075002362204724
20
1.5318307086614174
11
0.8744526377952756
21
1.5318307086614174
0
LINE
8
BLACK
6
CONTINUOUS
10
0.8744526377952756
20
1.5318307086614174
11
0.86727968503937
21
1.5318307086614174
0
LINE
8
BLACK
6
CONTINUOUS
10
0.86727968503937
20
1.5318307086614174
11
0.8657974015748031
21
1.5314923622047243
0
LINE
8
BLACK
6
CONTINUOUS
10
0.8657974015748031
20
1.5314923622047243
11
0.8652488976377952
21
1.5313991732283465
0
LINE
8
BLACK
6
CONTINUOUS
10
0.8652488976377952
20
1.5313991732283465
11
0.8637383070866141
21
1.5312290157480315
0
LINE
8
BLACK
6
CONTINUOUS
10
0.8637383070866141
20
1.5312290157480315
11
0.862302716535433
21
1.5307266535433071
0
LINE
8
BLACK
6
CONTINUOUS
10
0.862302716535433
20
1.5307266535433071
11
0.8617691338582677
21
1.5305729527559055
0
LINE
8
BLACK
6
CONTINUOUS
10
0.8617691338582677
20
1.5305729527559055
11
0.8602866141732284
21
1.5302346062992125
0
LINE
8
BLACK
6
CONTINUOUS
10
0.8602866141732284
20
1.5302346062992125
11
0.8589165748031495
21
1.5295748031496064
0
LINE
8
BLACK
6
CONTINUOUS
10
0.8589165748031495
20
1.5295748031496064
11
0.8584033070866142
21
1.5293622047244093
0
LINE
8
BLACK
6
CONTINUOUS
10
0.8584033070866142
20
1.5293622047244093
11
0.8569679133858268
21
1.5288599606299211
0
LINE
8
BLACK
6
CONTINUOUS
10
0.8569679133858268
20
1.5288599606299211
11
0.8569677952755905
21
1.5288598818897638
0
LINE
8
BLACK
6
CONTINUOUS
10
0.8569677952755905
20
1.5288598818897638
11
0.8556805905511811
21
1.528051062992126
0
LINE
8
BLACK
6
CONTINUOUS
10
0.8556805905511811
20
1.528051062992126
11
0.8551938976377953
21
1.5277820472440944
0
LINE
8
BLACK
6
CONTINUOUS
10
0.8551938976377953
20
1.5277820472440944
11
0.8538240551181102
21
1.5271224015748031
0
LINE
8
BLACK
6
CONTINUOUS
10
0.8538240551181102
20
1.5271224015748031
11
0.8538238976377952
21
1.5271222834645668
0
LINE
8
BLACK
6
CONTINUOUS
10
0.8538238976377952
20
1.5271222834645668
11
0.8526352755905512
21
1.5261744094488188
0
LINE
8
BLACK
6
CONTINUOUS
10
0.8526352755905512
20
1.5261744094488188
11
0.8521816141732284
21
1.5258525196850394
0
LINE
8
BLACK
6
CONTINUOUS
10
0.8521816141732284
20
1.5258525196850394
11
0.8508944488188976
21
1.5250437401574803
0
LINE
8
BLACK
6
CONTINUOUS
10
0.8508944488188976
20
1.5250437401574803
11
0.8496224803149606
21
1.5237717716535433
0
LINE
8
BLACK
6
CONTINUOUS
10
0.8496224803149606
20
1.5237717716535433
11
0.6559014960629921
21
1.3300507874015748
0
LINE
8
BLACK
6
CONTINUOUS
10
0.6559014960629921
20
1.3300507874015748
11
0.6534482677165354
21
1.3287111811023622
0
LINE
8
BLACK
6
CONTINUOUS
10
0.6534482677165354
20
1.3287111811023622
11
0.6506602755905512
21
1.3289105905511811
0
LINE
8
BLACK
6
CONTINUOUS
10
0.6506602755905512
20
1.3289105905511811
11
0.6484226377952755
21
1.3305856692913385
0
LINE
8
BLACK
6
CONTINUOUS
10
0.6484226377952755
20
1.3305856692913385
11
0.6474458267716535
21
1.3332045669291339
0
LINE
8
BLACK
6
CONTINUOUS
10
0.6474458267716535
20
1.3332045669291339
11
0.6477459842519685
21
1.3352920472440946
0
LINE
8
BLACK
6
CONTINUOUS
10
0.6477459842519685
20
1.3352920472440946
11
0.6497633070866141
21
1.3407005905511811
0
LINE
8
BLACK
6
CONTINUOUS
10
0.6497633070866141
20
1.3407005905511811
11
0.6497633858267716
21
1.3407009055118111
0
LINE
8
BLACK
6
CONTINUOUS
10
0.6497633858267716
20
1.3407009055118111
11
0.6500196456692913
21
1.3430846456692913
0
LINE
8
BLACK
6
CONTINUOUS
10
0.6500196456692913
20
1.3430846456692913
11
0.65001968503937
21
1.3430853149606299
0
LINE
8
BLACK
6
CONTINUOUS
10
0.65001968503937
20
1.3430853149606299
11
0.65001968503937
21
1.4069146456692914
0
LINE
8
BLACK
6
CONTINUOUS
10
0.65001968503937
20
1.4069146456692914
11
0.6500196456692913
21
1.4069153149606299
0
LINE
8
BLACK
6
CONTINUOUS
10
0.6500196456692913
20
1.4069153149606299
11
0.6497633858267716
21
1.4092990551181102
0
LINE
8
BLACK
6
CONTINUOUS
10
0.6497633858267716
20
1.4092990551181102
11
0.6497633070866141
21
1.4092993700787402
0
LINE
8
BLACK
6
CONTINUOUS
10
0.6497633070866141
20
1.4092993700787402
11
0.6494866141732283
21
1.4100411417322833
0
LINE
8
BLACK
6
CONTINUOUS
10
0.6494866141732283
20
1.4100411417322833
11
0.6477515354330708
21
1.4146930708661416
0
LINE
8
BLACK
6
CONTINUOUS
10
0.6477515354330708
20
1.4146930708661416
11
0.6443016141732283
21
1.4193016141732284
0
LINE
8
BLACK
6
CONTINUOUS
10
0.6443016141732283
20
1.4193016141732284
11
0.6419943700787402
21
1.4210288188976377
0
LINE
8
BLACK
6
CONTINUOUS
10
0.6419943700787402
20
1.4210288188976377
11
0.6403192913385827
21
1.4232664566929134
0
LINE
8
BLACK
6
CONTINUOUS
10
0.6403192913385827
20
1.4232664566929134
11
0.6401199212598425
21
1.4260544881889763
0
LINE
8
BLACK
6
CONTINUOUS
10
0.6401199212598425
20
1.4260544881889763
11
0.6414594881889764
21
1.428507716535433
0
LINE
8
BLACK
6
CONTINUOUS
10
0.6414594881889764
20
1.428507716535433
11
0.6419943700787402
21
1.4289711811023622
0
LINE
8
BLACK
6
CONTINUOUS
10
0.6419943700787402
20
1.4289711811023622
11
0.6443016141732283
21
1.4306983464566929
0
LINE
8
BLACK
6
CONTINUOUS
10
0.6443016141732283
20
1.4306983464566929
11
0.6477514566929133
21
1.4353067716535433
0
LINE
8
BLACK
6
CONTINUOUS
10
0.6477514566929133
20
1.4353067716535433
11
0.6477515354330708
21
1.435306968503937
0
LINE
8
BLACK
6
CONTINUOUS
10
0.6477515354330708
20
1.435306968503937
11
0.6497633070866141
21
1.4407005905511812
0
LINE
8
BLACK
6
CONTINUOUS
10
0.6497633070866141
20
1.4407005905511812
11
0.6497633858267716
21
1.440700905511811
0
LINE
8
BLACK
6
CONTINUOUS
10
0.6497633858267716
20
1.440700905511811
11
0.6500196456692913
21
1.4430846456692914
0
LINE
8
BLACK
6
CONTINUOUS
10
0.6500196456692913
20
1.4430846456692914
11
0.65001968503937
21
1.44308531496063
0
LINE
8
BLACK
6
CONTINUOUS
10
0.65001968503937
20
1.44308531496063
11
0.65001968503937
21
1.5069146456692912
0
LINE
8
BLACK
6
CONTINUOUS
10
0.65001968503937
20
1.5069146456692912
11
0.6500196456692913
21
1.5069153149606298
0
LINE
8
BLACK
6
CONTINUOUS
10
0.6500196456692913
20
1.5069153149606298
11
0.6497633858267716
21
1.5092990551181102
0
LINE
8
BLACK
6
CONTINUOUS
10
0.6497633858267716
20
1.5092990551181102
11
0.6497633070866141
21
1.50929937007874
0
LINE
8
BLACK
6
CONTINUOUS
10
0.6497633070866141
20
1.50929937007874
11
0.6477757480314961
21
1.5146281102362205
0
LINE
8
BLACK
6
CONTINUOUS
10
0.6477757480314961
20
1.5146281102362205
11
0.6477515354330708
21
1.5146930708661417
0
LINE
8
BLACK
6
CONTINUOUS
10
0.6477515354330708
20
1.5146930708661417
11
0.6443016141732283
21
1.5193016141732283
0
LINE
8
BLACK
6
CONTINUOUS
10
0.6443016141732283
20
1.5193016141732283
11
0.6396930708661417
21
1.5227515354330707
0
LINE
8
BLACK
6
CONTINUOUS
10
0.6396930708661417
20
1.5227515354330707
11
0.6342992519685039
21
1.524763346456693
0
LINE
8
BLACK
6
CONTINUOUS
10
0.6342992519685039
20
1.524763346456693
11
0.6342991732283464
21
1.524763346456693
0
LINE
8
BLACK
6
CONTINUOUS
10
0.6342991732283464
20
1.524763346456693
11
0.6342990551181102
21
1.5247633858267715
0
LINE
8
BLACK
6
CONTINUOUS
10
0.6342990551181102
20
1.5247633858267715
11
0.6319153149606299
21
1.5250196456692913
0
LINE
8
BLACK
6
CONTINUOUS
10
0.6319153149606299
20
1.5250196456692913
11
0.6319151574803149
21
1.5250196456692913
0
LINE
8
BLACK
6
CONTINUOUS
10
0.6319151574803149
20
1.5250196456692913
11
0.6319148818897637
21
1.52501968503937
0
LINE
8
BLACK
6
CONTINUOUS
10
0.6319148818897637
20
1.52501968503937
11
0.5680851181102362
21
1.52501968503937
0
LINE
8
BLACK
6
CONTINUOUS
10
0.5680851181102362
20
1.52501968503937
11
0.5680848425196851
21
1.5250196456692913
0
LINE
8
BLACK
6
CONTINUOUS
10
0.5680848425196851
20
1.5250196456692913
11
0.5680846456692913
21
1.5250196456692913
0
LINE
8
BLACK
6
CONTINUOUS
10
0.5680846456692913
20
1.5250196456692913
11
0.565700905511811
21
1.5247633858267715
0
LINE
8
BLACK
6
CONTINUOUS
10
0.565700905511811
20
1.5247633858267715
11
0.565700590551181
21
1.5247633070866142
0
LINE
8
BLACK
6
CONTINUOUS
10
0.565700590551181
20
1.5247633070866142
11
0.5630423622047244
21
1.523771811023622
0
LINE
8
BLACK
6
CONTINUOUS
10
0.5630423622047244
20
1.523771811023622
11
0.5603069291338583
21
1.5227515354330707
0
LINE
8
BLACK
6
CONTINUOUS
10
0.5603069291338583
20
1.5227515354330707
11
0.5603068503937008
21
1.522751496062992
0
LINE
8
BLACK
6
CONTINUOUS
10
0.5603068503937008
20
1.522751496062992
11
0.5603067716535433
21
1.5227514566929135
0
LINE
8
BLACK
6
CONTINUOUS
10
0.5603067716535433
20
1.5227514566929135
11
0.5556983464566929
21
1.5193016141732283
0
LINE
8
BLACK
6
CONTINUOUS
10
0.5556983464566929
20
1.5193016141732283
11
0.5522485039370079
21
1.5146931889763779
0
LINE
8
BLACK
6
CONTINUOUS
10
0.5522485039370079
20
1.5146931889763779
11
0.5522484251968504
21
1.5146929921259842
0
LINE
8
BLACK
6
CONTINUOUS
10
0.5522484251968504
20
1.5146929921259842
11
0.5502366535433071
21
1.50929937007874
0
LINE
8
BLACK
6
CONTINUOUS
10
0.5502366535433071
20
1.50929937007874
11
0.5502365748031496
21
1.5092990551181102
0
LINE
8
BLACK
6
CONTINUOUS
10
0.5502365748031496
20
1.5092990551181102
11
0.5499803149606299
21
1.5069153149606298
0
LINE
8
BLACK
6
CONTINUOUS
10
0.5499803149606299
20
1.5069153149606298
11
0.5499803149606299
21
1.4430846456692914
0
LINE
8
BLACK
6
CONTINUOUS
10
0.5499803149606299
20
1.4430846456692914
11
0.5502365748031496
21
1.440700905511811
0
LINE
8
BLACK
6
CONTINUOUS
10
0.5502365748031496
20
1.440700905511811
11
0.5502366535433071
21
1.4407005905511812
0
LINE
8
BLACK
6
CONTINUOUS
10
0.5502366535433071
20
1.4407005905511812
11
0.5522484251968504
21
1.435306968503937
0
LINE
8
BLACK
6
CONTINUOUS
10
0.5522484251968504
20
1.435306968503937
11
0.5522485039370079
21
1.4353067716535433
0
LINE
8
BLACK
6
CONTINUOUS
10
0.5522485039370079
20
1.4353067716535433
11
0.5556983858267717
21
1.4306983464566929
0
LINE
8
BLACK
6
CONTINUOUS
10
0.5556983858267717
20
1.4306983464566929
11
0.5580056299212598
21
1.4289711417322835
0
LINE
8
BLACK
6
CONTINUOUS
10
0.5580056299212598
20
1.4289711417322835
11
0.5596806692913385
21
1.4267335039370079
0
LINE
8
BLACK
6
CONTINUOUS
10
0.5596806692913385
20
1.4267335039370079
11
0.5598800393700787
21
1.4239455118110236
0
LINE
8
BLACK
6
CONTINUOUS
10
0.5598800393700787
20
1.4239455118110236
11
0.5585404724409448
21
1.4214922834645669
0
LINE
8
BLACK
6
CONTINUOUS
10
0.5585404724409448
20
1.4214922834645669
11
0.5580056299212598
21
1.4210288582677164
0
LINE
8
BLACK
6
CONTINUOUS
10
0.5580056299212598
20
1.4210288582677164
11
0.5556983858267717
21
1.4193016141732284
0
LINE
8
BLACK
6
CONTINUOUS
10
0.5556983858267717
20
1.4193016141732284
11
0.5539711811023622
21
1.4169943700787402
0
LINE
8
BLACK
6
CONTINUOUS
10
0.5539711811023622
20
1.4169943700787402
11
0.5517335433070866
21
1.4153192913385826
0
LINE
8
BLACK
6
CONTINUOUS
10
0.5517335433070866
20
1.4153192913385826
11
0.5489455118110236
21
1.4151199212598424
0
LINE
8
BLACK
6
CONTINUOUS
10
0.5489455118110236
20
1.4151199212598424
11
0.5464922834645669
21
1.4164594881889763
0
LINE
8
BLACK
6
CONTINUOUS
10
0.5464922834645669
20
1.4164594881889763
11
0.5460288188976378
21
1.4169943700787402
0
LINE
8
BLACK
6
CONTINUOUS
10
0.5460288188976378
20
1.4169943700787402
11
0.5443016141732283
21
1.4193016141732284
0
LINE
8
BLACK
6
CONTINUOUS
10
0.5443016141732283
20
1.4193016141732284
11
0.539693188976378
21
1.4227514566929134
0
LINE
8
BLACK
6
CONTINUOUS
10
0.539693188976378
20
1.4227514566929134
11
0.5396931496062992
21
1.4227514566929134
0
LINE
8
BLACK
6
CONTINUOUS
10
0.5396931496062992
20
1.4227514566929134
11
0.5396930708661417
21
1.4227515354330709
0
LINE
8
BLACK
6
CONTINUOUS
10
0.5396930708661417
20
1.4227515354330709
11
0.5342992519685039
21
1.4247633464566929
0
LINE
8
BLACK
6
CONTINUOUS
10
0.5342992519685039
20
1.4247633464566929
11
0.5342991732283464
21
1.4247633464566929
0
LINE
8
BLACK
6
CONTINUOUS
10
0.5342991732283464
20
1.4247633464566929
11
0.5342990551181103
21
1.4247633858267716
0
LINE
8
BLACK
6
CONTINUOUS
10
0.5342990551181103
20
1.4247633858267716
11
0.5319153149606299
21
1.4250196456692914
0
LINE
8
BLACK
6
CONTINUOUS
10
0.5319153149606299
20
1.4250196456692914
11
0.5319151574803149
21
1.4250196456692914
0
LINE
8
BLACK
6
CONTINUOUS
10
0.5319151574803149
20
1.4250196456692914
11
0.5319148818897638
21
1.4250196850393702
0
LINE
8
BLACK
6
CONTINUOUS
10
0.5319148818897638
20
1.4250196850393702
11
0.4680851181102362
21
1.4250196850393702
0
LINE
8
BLACK
6
CONTINUOUS
10
0.4680851181102362
20
1.4250196850393702
11
0.468084842519685
21
1.4250196456692914
0
LINE
8
BLACK
6
CONTINUOUS
10
0.468084842519685
20
1.4250196456692914
11
0.4680846456692913
21
1.4250196456692914
0
LINE
8
BLACK
6
CONTINUOUS
10
0.4680846456692913
20
1.4250196456692914
11
0.465700905511811
21
1.4247633858267716
0
LINE
8
BLACK
6
CONTINUOUS
10
0.465700905511811
20
1.4247633858267716
11
0.4657005905511811
21
1.4247633070866141
0
LINE
8
BLACK
6
CONTINUOUS
10
0.4657005905511811
20
1.4247633070866141
11
0.4635080708661417
21
1.4239455118110236
0
LINE
8
BLACK
6
CONTINUOUS
10
0.4635080708661417
20
1.4239455118110236
11
0.4603069291338582
21
1.4227515354330709
0
LINE
8
BLACK
6
CONTINUOUS
10
0.4603069291338582
20
1.4227515354330709
11
0.4603068503937008
21
1.4227514960629921
0
LINE
8
BLACK
6
CONTINUOUS
10
0.4603068503937008
20
1.4227514960629921
11
0.4603067716535433
21
1.4227514566929134
0
LINE
8
BLACK
6
CONTINUOUS
10
0.4603067716535433
20
1.4227514566929134
11
0.4556983464566929
21
1.4193016141732284
0
LINE
8
BLACK
6
CONTINUOUS
10
0.4556983464566929
20
1.4193016141732284
11
0.4522485039370079
21
1.4146931889763779
0
LINE
8
BLACK
6
CONTINUOUS
10
0.4522485039370079
20
1.4146931889763779
11
0.4522484251968504
21
1.4146929921259843
0
LINE
8
BLACK
6
CONTINUOUS
10
0.4522484251968504
20
1.4146929921259843
11
0.4502366535433071
21
1.4092993700787402
0
LINE
8
BLACK
6
CONTINUOUS
10
0.4502366535433071
20
1.4092993700787402
11
0.4502365748031496
21
1.4092990551181102
0
LINE
8
BLACK
6
CONTINUOUS
10
0.4502365748031496
20
1.4092990551181102
11
0.4499803149606299
21
1.4069153149606299
0
LINE
8
BLACK
6
CONTINUOUS
10
0.4499803149606299
20
1.4069153149606299
11
0.4499803149606299
21
1.3430846456692913
0
LINE
8
BLACK
6
CONTINUOUS
10
0.4499803149606299
20
1.3430846456692913
11
0.4502365748031496
21
1.3407009055118111
0
LINE
8
BLACK
6
CONTINUOUS
10
0.4502365748031496
20
1.3407009055118111
11
0.4502366535433071
21
1.3407005905511811
0
LINE
8
BLACK
6
CONTINUOUS
10
0.4502366535433071
20
1.3407005905511811
11
0.4522484251968504
21
1.3353069685039369
0
LINE
8
BLACK
6
CONTINUOUS
10
0.4522484251968504
20
1.3353069685039369
11
0.4522485039370079
21
1.3353067716535432
0
LINE
8
BLACK
6
CONTINUOUS
10
0.4522485039370079
20
1.3353067716535432
11
0.4556983464566929
21
1.3306983464566928
0
LINE
8
BLACK
6
CONTINUOUS
10
0.4556983464566929
20
1.3306983464566928
11
0.4603067716535433
21
1.3272485039370079
0
LINE
8
BLACK
6
CONTINUOUS
10
0.4603067716535433
20
1.3272485039370079
11
0.460306968503937
21
1.3272484251968504
0
LINE
8
BLACK
6
CONTINUOUS
10
0.460306968503937
20
1.3272484251968504
11
0.4657005905511811
21
1.3252366535433071
0
LINE
8
BLACK
6
CONTINUOUS
10
0.4657005905511811
20
1.3252366535433071
11
0.465700905511811
21
1.3252365748031496
0
LINE
8
BLACK
6
CONTINUOUS
10
0.465700905511811
20
1.3252365748031496
11
0.4680846456692913
21
1.3249803149606298
0
LINE
8
BLACK
6
CONTINUOUS
10
0.4680846456692913
20
1.3249803149606298
11
0.4680851181102362
21
1.3249803149606298
0
LINE
8
BLACK
6
CONTINUOUS
10
0.4680851181102362
20
1.3249803149606298
11
0.5319153149606299
21
1.3249803149606298
0
LINE
8
BLACK
6
CONTINUOUS
10
0.5319153149606299
20
1.3249803149606298
11
0.5342990551181103
21
1.3252365748031496
0
LINE
8
BLACK
6
CONTINUOUS
10
0.5342990551181103
20
1.3252365748031496
11
0.5342993700787402
21
1.3252366535433071
0
LINE
8
BLACK
6
CONTINUOUS
10
0.5342993700787402
20
1.3252366535433071
11
0.5396929921259842
21
1.3272484251968504
0
LINE
8
BLACK
6
CONTINUOUS
10
0.5396929921259842
20
1.3272484251968504
11
0.539693188976378
21
1.3272485039370079
0
LINE
8
BLACK
6
CONTINUOUS
10
0.539693188976378
20
1.3272485039370079
11
0.5443016141732283
21
1.3306983858267716
0
LINE
8
BLACK
6
CONTINUOUS
10
0.5443016141732283
20
1.3306983858267716
11
0.5460288582677165
21
1.3330056299212598
0
LINE
8
BLACK
6
CONTINUOUS
10
0.5460288582677165
20
1.3330056299212598
11
0.5482664960629922
21
1.3346806692913387
0
LINE
8
BLACK
6
CONTINUOUS
10
0.5482664960629922
20
1.3346806692913387
11
0.5510544881889764
21
1.3348800393700788
0
LINE
8
BLACK
6
CONTINUOUS
10
0.5510544881889764
20
1.3348800393700788
11
0.5535077165354331
21
1.3335404724409448
0
LINE
8
BLACK
6
CONTINUOUS
10
0.5535077165354331
20
1.3335404724409448
11
0.5539711417322835
21
1.3330056299212598
0
LINE
8
BLACK
6
CONTINUOUS
10
0.5539711417322835
20
1.3330056299212598
11
0.5556983464566929
21
1.3306983858267716
0
LINE
8
BLACK
6
CONTINUOUS
10
0.5556983464566929
20
1.3306983858267716
11
0.5603067716535433
21
1.3272485039370079
0
LINE
8
BLACK
6
CONTINUOUS
10
0.5603067716535433
20
1.3272485039370079
11
0.560306968503937
21
1.3272484251968504
0
LINE
8
BLACK
6
CONTINUOUS
10
0.560306968503937
20
1.3272484251968504
11
0.565700590551181
21
1.3252366535433071
0
LINE
8
BLACK
6
CONTINUOUS
10
0.565700590551181
20
1.3252366535433071
11
0.565700905511811
21
1.3252365748031496
0
LINE
8
BLACK
6
CONTINUOUS
10
0.565700905511811
20
1.3252365748031496
11
0.5680846456692913
21
1.3249803149606298
0
LINE
8
BLACK
6
CONTINUOUS
10
0.5680846456692913
20
1.3249803149606298
11
0.5680851181102362
21
1.3249803149606298
0
LINE
8
BLACK
6
CONTINUOUS
10
0.5680851181102362
20
1.3249803149606298
11
0.6319153149606299
21
1.3249803149606298
0
LINE
8
BLACK
6
CONTINUOUS
10
0.6319153149606299
20
1.3249803149606298
11
0.6342990551181102
21
1.3252365748031496
0
LINE
8
BLACK
6
CONTINUOUS
10
0.6342990551181102
20
1.3252365748031496
11
0.634299094488189
21
1.3252366141732284
0
LINE
8
BLACK
6
CONTINUOUS
10
0.634299094488189
20
1.3252366141732284
11
0.6342991732283464
21
1.3252366141732284
0
LINE
8
BLACK
6
CONTINUOUS
10
0.6342991732283464
20
1.3252366141732284
11
0.6342992519685039
21
1.3252366535433071
0
LINE
8
BLACK
6
CONTINUOUS
10
0.6342992519685039
20
1.3252366535433071
11
0.6396930708661417
21
1.3272484645669291
0
LINE
8
BLACK
6
CONTINUOUS
10
0.6396930708661417
20
1.3272484645669291
11
0.6396931102362204
21
1.3272484645669291
0
LINE
8
BLACK
6
CONTINUOUS
10
0.6396931102362204
20
1.3272484645669291
11
0.6397079133858268
21
1.3272540157480315
0
LINE
8
BLACK
6
CONTINUOUS
10
0.6397079133858268
20
1.3272540157480315
11
0.6424959448818898
21
1.3274534251968504
0
LINE
8
BLACK
6
CONTINUOUS
10
0.6424959448818898
20
1.3274534251968504
11
0.6449491732283464
21
1.3261138582677165
0
LINE
8
BLACK
6
CONTINUOUS
10
0.6449491732283464
20
1.3261138582677165
11
0.6462887401574803
21
1.3236606299212599
0
LINE
8
BLACK
6
CONTINUOUS
10
0.6462887401574803
20
1.3236606299212599
11
0.6460893700787401
21
1.3208725984251968
0
LINE
8
BLACK
6
CONTINUOUS
10
0.6460893700787401
20
1.3208725984251968
11
0.6449491732283464
21
1.319098464566929
0
LINE
8
BLACK
6
CONTINUOUS
10
0.6449491732283464
20
1.319098464566929
11
0.4002824409448819
21
1.0744317322834644
0
LINE
8
BLACK
6
CONTINUOUS
10
0.4002824409448819
20
1.0744317322834644
11
0.3978292125984252
21
1.0730921259842519
0
LINE
8
BLACK
6
CONTINUOUS
10
0.3978292125984252
20
1.0730921259842519
11
0.3950412204724409
21
1.0732915354330708
0
LINE
8
BLACK
6
CONTINUOUS
10
0.3950412204724409
20
1.0732915354330708
11
0.3928035826771654
21
1.0749666141732284
0
LINE
8
BLACK
6
CONTINUOUS
10
0.3928035826771654
20
1.0749666141732284
11
0.3921898818897638
21
1.0762801968503937
0
LINE
8
BLACK
6
CONTINUOUS
10
0.3921898818897638
20
1.0762801968503937
11
0.392115905511811
21
1.0762525984251967
0
LINE
8
BLACK
6
CONTINUOUS
10
0.392115905511811
20
1.0762525984251967
11
0.3912557086614173
21
1.0785587401574803
0
LINE
8
BLACK
6
CONTINUOUS
10
0.3912557086614173
20
1.0785587401574803
11
0.3899956299212599
21
1.0819371653543306
0
LINE
8
BLACK
6
CONTINUOUS
10
0.3899956299212599
20
1.0819371653543306
11
0.3865457086614173
21
1.0865457086614172
0
LINE
8
BLACK
6
CONTINUOUS
10
0.3865457086614173
20
1.0865457086614172
11
0.3819371653543307
21
1.0899956299212599
0
LINE
8
BLACK
6
CONTINUOUS
10
0.3819371653543307
20
1.0899956299212599
11
0.3765433464566929
21
1.0920074409448819
0
LINE
8
BLACK
6
CONTINUOUS
10
0.3765433464566929
20
1.0920074409448819
11
0.3765432677165354
21
1.0920074409448819
0
LINE
8
BLACK
6
CONTINUOUS
10
0.3765432677165354
20
1.0920074409448819
11
0.3765431496062992
21
1.0920074803149606
0
LINE
8
BLACK
6
CONTINUOUS
10
0.3765431496062992
20
1.0920074803149606
11
0.3741594094488189
21
1.0922637401574804
0
LINE
8
BLACK
6
CONTINUOUS
10
0.3741594094488189
20
1.0922637401574804
11
0.3741592519685039
21
1.0922637401574804
0
LINE
8
BLACK
6
CONTINUOUS
10
0.3741592519685039
20
1.0922637401574804
11
0.3741589763779528
21
1.0922637795275589
0
LINE
8
BLACK
6
CONTINUOUS
10
0.3741589763779528
20
1.0922637795275589
11
0.2758410236220473
21
1.0922637795275589
0
LINE
8
BLACK
6
CONTINUOUS
10
0.2758410236220473
20
1.0922637795275589
11
0.2758407480314961
21
1.0922637401574804
0
LINE
8
BLACK
6
CONTINUOUS
10
0.2758407480314961
20
1.0922637401574804
11
0.2758405511811023
21
1.0922637401574804
0
LINE
8
BLACK
6
CONTINUOUS
10
0.2758405511811023
20
1.0922637401574804
11
0.273456811023622
21
1.0920074803149606
0
LINE
8
BLACK
6
CONTINUOUS
10
0.273456811023622
20
1.0920074803149606
11
0.2734564960629921
21
1.0920074015748031
0
LINE
8
BLACK
6
CONTINUOUS
10
0.2734564960629921
20
1.0920074015748031
11
0.2703887795275591
21
1.0908631496062993
0
LINE
8
BLACK
6
CONTINUOUS
10
0.2703887795275591
20
1.0908631496062993
11
0.2680628346456693
21
1.0899956299212599
0
LINE
8
BLACK
6
CONTINUOUS
10
0.2680628346456693
20
1.0899956299212599
11
0.2680627559055118
21
1.0899955905511811
0
LINE
8
BLACK
6
CONTINUOUS
10
0.2680627559055118
20
1.0899955905511811
11
0.2680626771653543
21
1.0899955511811024
0
LINE
8
BLACK
6
CONTINUOUS
10
0.2680626771653543
20
1.0899955511811024
11
0.2634542519685039
21
1.0865457086614172
0
LINE
8
BLACK
6
CONTINUOUS
10
0.2634542519685039
20
1.0865457086614172
11
0.2600044094488189
21
1.0819372834645669
0
LINE
8
BLACK
6
CONTINUOUS
10
0.2600044094488189
20
1.0819372834645669
11
0.2600043307086614
21
1.0819370866141731
0
LINE
8
BLACK
6
CONTINUOUS
10
0.2600043307086614
20
1.0819370866141731
11
0.2579925590551181
21
1.0765434645669292
0
LINE
8
BLACK
6
CONTINUOUS
10
0.2579925590551181
20
1.0765434645669292
11
0.2579924803149606
21
1.0765431496062992
0
LINE
8
BLACK
6
CONTINUOUS
10
0.2579924803149606
20
1.0765431496062992
11
0.2577362204724409
21
1.0741594094488189
0
LINE
8
BLACK
6
CONTINUOUS
10
0.2577362204724409
20
1.0741594094488189
11
0.2577362204724409
21
0.9758405511811024
0
LINE
8
BLACK
6
CONTINUOUS
10
0.2577362204724409
20
0.9758405511811024
11
0.2579924803149606
21
0.973456811023622
0
CIRCLE
8
BLACK
10
0.325
20
1.0249999999999999
40
0.0068897637795276
0
CIRCLE
8
BLACK
10
0.5218503937007873
20
1.0249999999999999
40
0.0068897637795276
0
CIRCLE
8
BLACK
10
0.5
20
1.4749999999999999
40
0.0068897637795276
0
CIRCLE
8
BLACK
10
0.5
20
1.375
40
0.0068897637795276
0
CIRCLE
8
BLACK
10
0.6
20
1.4749999999999999
40
0.0068897637795276
0
CIRCLE
8
BLACK
10
0.6
20
1.375
40
0.0068897637795276
0
CIRCLE
8
BLACK
10
1.3999999999999999
20
0.2
40
0.0068897637795276
0
CIRCLE
8
BLACK
10
1.3999999999999999
20
1.3999999999999999
40
0.0068897637795276
0
CIRCLE
8
BLACK
10
0.2
20
0.2
40
0.0068897637795276
0
CIRCLE
8
BLACK
10
0.2
20
1.3999999999999999
40
0.0068897637795276
0
CIRCLE
8
BLACK
10
0.7
20
0.2031496062992126
40
0.0068897637795276
0
CIRCLE
8
BLACK
10
0.7
20
0.4
40
0.0068897637795276
0
CIRCLE
8
BLACK
10
1.0999999999999999
20
0.2031496062992126
40
0.0068897637795276
0
CIRCLE
8
BLACK
10
1.0999999999999999
20
0.4
40
0.0068897637795276
0
CIRCLE
8
BLACK
10
0.9
20
0.2031496062992126
40
0.0068897637795276
0
CIRCLE
8
BLACK
10
0.9
20
0.4
40
0.0068897637795276
0
CIRCLE
8
BLACK
10
0.5
20
0.2031496062992126
40
0.0068897637795276
0
CIRCLE
8
BLACK
10
0.5
20
0.4
40
0.0068897637795276
0
CIRCLE
8
BLACK
10
1.0249999999999999
20
1.5
40
0.0078740157480315
0
CIRCLE
8
BLACK
10
1.0999999999999999
20
1.0800000000000001
40
0.0078740157480315
0
CIRCLE
8
BLACK
10
1.1199999999999999
20
0.52
40
0.0078740157480315
0
CIRCLE
8
BLACK
10
0.38
20
0.4
40
0.0078740157480315
0
CIRCLE
8
BLACK
10
1.25
20
0.49
40
0.0078740157480315
0
CIRCLE
8
BLACK
10
0.9199999999999999
20
0.95
40
0.0078740157480315
0
CIRCLE
8
BLACK
10
0.38
20
0.5
40
0.0078740157480315
0
CIRCLE
8
BLACK
10
1.25
20
0.45
40
0.0078740157480315
0
CIRCLE
8
BLACK
10
1.0700000000000001
20
0.52
40
0.0078740157480315
0
CIRCLE
8
BLACK
10
0.34
20
0.5
40
0.0078740157480315
0
CIRCLE
8
BLACK
10
1.1499999999999999
20
1.04
40
0.0078740157480315
0
CIRCLE
8
BLACK
10
0.8099999999999999
20
1.0600000000000001
40
0.0078740157480315
0
CIRCLE
8
BLACK
10
0.3
20
0.5599999999999999
40
0.0078740157480315
0
CIRCLE
8
BLACK
10
1.21
20
0.39
40
0.0078740157480315
0
CIRCLE
8
BLACK
10
1.1499999999999999
20
1.53
40
0.0078740157480315
0
CIRCLE
8
BLACK
10
0.61
20
1.0999999999999999
40
0.0078740157480315
0
CIRCLE
8
BLACK
10
0.73
20
0.66
40
0.0078740157480315
0
CIRCLE
8
BLACK
10
0.63
20
0.66
40
0.0078740157480315
0
CIRCLE
8
BLACK
10
1.0900000000000001
20
0.75
40
0.0078740157480315
0
CIRCLE
8
BLACK
10
1.0999999999999999
20
1.04
40
0.0078740157480315
0
CIRCLE
8
BLACK
10
1.1499999999999999
20
1.1299999999999999
40
0.0078740157480315
0
CIRCLE
8
BLACK
10
0.34
20
0.45
40
0.0078740157480315
0
CIRCLE
8
BLACK
10
0.88
20
0.91
40
0.0078740157480315
0
CIRCLE
8
BLACK
10
1.1399999999999999
20
0.65
40
0.0078740157480315
0
CIRCLE
8
BLACK
10
0.59
20
0.75
40
0.0078740157480315
0
CIRCLE
8
BLACK
10
1.25
20
0.59
40
0.0078740157480315
0
CIRCLE
8
BLACK
10
1.0900000000000001
20
0.65
40
0.0078740157480315
0
CIRCLE
8
BLACK
10
0.61
20
1.02
40
0.0078740157480315
0
CIRCLE
8
BLACK
10
1.24
20
0.75
40
0.0078740157480315
0
CIRCLE
8
BLACK
10
1.0600000000000001
20
1.04
40
0.0078740157480315
0
CIRCLE
8
BLACK
10
0.3
20
0.4
40
0.0078740157480315
0
CIRCLE
8
BLACK
10
1.24
20
0.7
40
0.0078740157480315
0
CIRCLE
8
BLACK
10
0.6899999999999999
20
1.0999999999999999
40
0.0078740157480315
0
CIRCLE
8
BLACK
10
0.59
20
0.7999999999999999
40
0.0078740157480315
0
CIRCLE
8
BLACK
10
1.1899999999999999
20
0.75
40
0.0078740157480315
0
CIRCLE
8
BLACK
10
1.1499999999999999
20
1.45
40
0.0078740157480315
0
CIRCLE
8
BLACK
10
0.34
20
0.4
40
0.0078740157480315
0
CIRCLE
8
BLACK
10
0.3
20
0.5
40
0.0078740157480315
0
CIRCLE
8
BLACK
10
1.1699999999999999
20
0.52
40
0.0078740157480315
0
CIRCLE
8
BLACK
10
0.59
20
0.9
40
0.0078740157480315
0
CIRCLE
8
BLACK
10
1.25
20
0.54
40
0.0078740157480315
0
CIRCLE
8
BLACK
10
0.6899999999999999
20
1.0600000000000001
40
0.0078740157480315
0
CIRCLE
8
BLACK
10
0.88
20
0.95
40
0.0078740157480315
0
CIRCLE
8
BLACK
10
0.65
20
1.0600000000000001
40
0.0078740157480315
0
CIRCLE
8
BLACK
10
0.6899999999999999
20
1.02
40
0.0078740157480315
0
CIRCLE
8
BLACK
10
1.1499999999999999
20
1.3300000000000001
40
0.0078740157480315
0
CIRCLE
8
BLACK
10
1.1499999999999999
20
1.3699999999999999
40
0.0078740157480315
0
CIRCLE
8
BLACK
10
1.1399999999999999
20
0.7
40
0.0078740157480315
0
CIRCLE
8
BLACK
10
0.59
20
0.95
40
0.0078740157480315
0
CIRCLE
8
BLACK
10
0.9199999999999999
20
0.91
40
0.0078740157480315
0
CIRCLE
8
BLACK
10
1.24
20
0.65
40
0.0078740157480315
0
CIRCLE
8
BLACK
10
0.65
20
1.02
40
0.0078740157480315
0
CIRCLE
8
BLACK
10
1.21
20
0.45
40
0.0078740157480315
0
CIRCLE
8
BLACK
10
1.0900000000000001
20
0.7
40
0.0078740157480315
0
CIRCLE
8
BLACK
10
0.3
20
0.45
40
0.0078740157480315
0
CIRCLE
8
BLACK
10
0.67
20
1.53
40
0.0078740157480315
0
CIRCLE
8
BLACK
10
1.1399999999999999
20
0.75
40
0.0078740157480315
0
CIRCLE
8
BLACK
10
0.65
20
1.0999999999999999
40
0.0078740157480315
0
CIRCLE
8
BLACK
10
1.1899999999999999
20
0.65
40
0.0078740157480315
0
CIRCLE
8
BLACK
10
1.1899999999999999
20
0.7
40
0.0078740157480315
0
CIRCLE
8
BLACK
10
1.1499999999999999
20
1.28
40
0.0078740157480315
0
CIRCLE
8
BLACK
10
0.61
20
1.0600000000000001
40
0.0078740157480315
0
CIRCLE
8
BLACK
10
1.1499999999999999
20
1.49
40
0.0078740157480315
0
CIRCLE
8
BLACK
10
0.38
20
0.45
40
0.0078740157480315
0
CIRCLE
8
BLACK
10
0.6799999999999999
20
0.66
40
0.0078740157480315
0
CIRCLE
8
BLACK
10
1.1499999999999999
20
1.0900000000000001
40
0.0078740157480315
0
CIRCLE
8
BLACK
10
1.21
20
0.33
40
0.0078740157480315
0
CIRCLE
8
BLACK
10
1.0600000000000001
20
1.0800000000000001
40
0.0078740157480315
0
CIRCLE
8
BLACK
10
1.02
20
1.1299999999999999
40
0.0078740157480315
0
CIRCLE
8
BLACK
10
0.59
20
0.85
40
0.0078740157480315
  0
ENDSEC
  0
EOF
