  0
SECTION
  2
HEADER
  9
$ANGBASE
  50
0.0
  9
$ANGDIR
  70
1
  9
$MEASUREMENT
  70
0
  0
ENDSEC
  0
SECTION
  2
TABLES
  0
TABLE
  2
LTYPE
  70
4
  0
LTYPE
  5
40F
  2
CONTINUOUS
  70
0
  3
Solid line
  72
65
  73
0
  40
0.0
  0
LTYPE
  5
410
  2
DASHDOT
 70
0
  3
Dash Dot ____ _ ____ _
 72
65
 73
4
 40
2.0
 49
1.25
 49
-0.25
 49
0.25
 49
-0.25
  0
LTYPE
  5
411
  2
DASHED
 70
0
  3
Dashed __ __ __ __ __
 72
65
 73
2
 40
0.75
 49
0.5
 49
-0.25
  0
LTYPE
  5
43B
  2
DOTTED
 70
0
  3
Dotted .  .  .  .
 72
65
 73
2
 40
0.2
 49
0.0
 49
-0.2
  0
ENDTAB
  0
TABLE
  2
STYLE
  70
4
  0
STYLE
  2
KICAD
  70
0
  40
0
  41
1
  42
1
  50
0
  71
0
  3
isocp.shx
  0
STYLE
  2
KICADB
  70
0
  40
0
  41
1
  42
1
  50
0
  71
0
  3
isocp.shx
  0
STYLE
  2
KICADI
  70
0
  40
0
  41
1
  42
1
  50
15
  71
0
  3
isocp.shx
  0
STYLE
  2
KICADBI
  70
0
  40
0
  41
1
  42
1
  50
15
  71
0
  3
isocp.shx
  0
ENDTAB
  0
TABLE
  2
LAYER
  70
1
  0
LAYER
  2
BLACK
  70
0
  62
7
  6
CONTINUOUS
  0
ENDTAB
  0
ENDSEC
  0
SECTION
  2
ENTITIES
0
LINE
8
BLACK
6
CONTINUOUS
10
0.4102338188976378
20
1.0492632283464567
11
0.4102981889763779
21
1.0492649999999999
0
LINE
8
BLACK
6
CONTINUOUS
10
0.4102981889763779
20
1.0492649999999999
11
0.4159224803149606
21
1.0473902362204723
0
LINE
8
BLACK
6
CONTINUOUS
10
0.4159224803149606
20
1.0473902362204723
11
0.4168242519685039
21
1.0469019685039369
0
LINE
8
BLACK
6
CONTINUOUS
10
0.4168242519685039
20
1.0469019685039369
11
0.4169166535433071
21
1.046751496062992
0
LINE
8
BLACK
6
CONTINUOUS
10
0.4169166535433071
20
1.046751496062992
11
0.4170766535433071
21
1.0466769291338582
0
LINE
8
BLACK
6
CONTINUOUS
10
0.4170766535433071
20
1.0466769291338582
11
0.4189514173228346
21
1.0448021653543307
0
LINE
8
BLACK
6
CONTINUOUS
10
0.4189514173228346
20
1.0448021653543307
11
0.4195396062992126
21
1.043962125984252
0
LINE
8
BLACK
6
CONTINUOUS
10
0.4195396062992126
20
1.043962125984252
11
0.4197156299212598
21
1.0419500393700787
0
LINE
8
BLACK
6
CONTINUOUS
10
0.4197156299212598
20
1.0419500393700787
11
0.4185571259842519
21
1.0402954724409448
0
LINE
8
BLACK
6
CONTINUOUS
10
0.4185571259842519
20
1.0402954724409448
11
0.4166061417322834
21
1.0397727559055119
0
LINE
8
BLACK
6
CONTINUOUS
10
0.4166061417322834
20
1.0397727559055119
11
0.4147755905511811
21
1.0406263385826771
0
LINE
8
BLACK
6
CONTINUOUS
10
0.4147755905511811
20
1.0406263385826771
11
0.4133937007874016
21
1.0420081889763779
0
LINE
8
BLACK
6
CONTINUOUS
10
0.4133937007874016
20
1.0420081889763779
11
0.4088853149606299
21
1.0435110236220473
0
LINE
8
BLACK
6
CONTINUOUS
10
0.4088853149606299
20
1.0435110236220473
11
0.4060940551181103
21
1.0435110236220473
0
LINE
8
BLACK
6
CONTINUOUS
10
0.4060940551181103
20
1.0435110236220473
11
0.4015856692913386
21
1.0420082283464567
0
LINE
8
BLACK
6
CONTINUOUS
10
0.4015856692913386
20
1.0420082283464567
11
0.3986678346456693
21
1.0390903937007874
0
LINE
8
BLACK
6
CONTINUOUS
10
0.3986678346456693
20
1.0390903937007874
11
0.3971523228346457
21
1.0360594094488189
0
LINE
8
BLACK
6
CONTINUOUS
10
0.3971523228346457
20
1.0360594094488189
11
0.3954443307086614
21
1.0292273622047243
0
LINE
8
BLACK
6
CONTINUOUS
10
0.3954443307086614
20
1.0292273622047243
11
0.3954443307086614
21
1.024330157480315
0
LINE
8
BLACK
6
CONTINUOUS
10
0.3954443307086614
20
1.024330157480315
11
0.3971523228346457
21
1.0174981102362204
0
LINE
8
BLACK
6
CONTINUOUS
10
0.3971523228346457
20
1.0174981102362204
11
0.3986678346456693
21
1.0144671259842519
0
LINE
8
BLACK
6
CONTINUOUS
10
0.3986678346456693
20
1.0144671259842519
11
0.4015856299212598
21
1.0115492913385826
0
LINE
8
BLACK
6
CONTINUOUS
10
0.4015856299212598
20
1.0115492913385826
11
0.406094094488189
21
1.0100464566929133
0
LINE
8
BLACK
6
CONTINUOUS
10
0.406094094488189
20
1.0100464566929133
11
0.4088852755905512
21
1.0100464566929133
0
LINE
8
BLACK
6
CONTINUOUS
10
0.4088852755905512
20
1.0100464566929133
11
0.4133936614173228
21
1.0115492519685039
0
LINE
8
BLACK
6
CONTINUOUS
10
0.4133936614173228
20
1.0115492519685039
11
0.4147755905511811
21
1.0129311811023622
0
LINE
8
BLACK
6
CONTINUOUS
10
0.4147755905511811
20
1.0129311811023622
11
0.4156156299212598
21
1.0135193700787402
0
LINE
8
BLACK
6
CONTINUOUS
10
0.4156156299212598
20
1.0135193700787402
11
0.4176277165354331
21
1.0136953937007873
0
LINE
8
BLACK
6
CONTINUOUS
10
0.4176277165354331
20
1.0136953937007873
11
0.4192822834645669
21
1.0125368897637794
0
LINE
8
BLACK
6
CONTINUOUS
10
0.4192822834645669
20
1.0125368897637794
11
0.419805
21
1.0105859055118109
0
LINE
8
BLACK
6
CONTINUOUS
10
0.419805
20
1.0105859055118109
11
0.4189514173228346
21
1.0087553543307086
0
LINE
8
BLACK
6
CONTINUOUS
10
0.4189514173228346
20
1.0087553543307086
11
0.4170766535433071
21
1.0068805905511811
0
LINE
8
BLACK
6
CONTINUOUS
10
0.4170766535433071
20
1.0068805905511811
11
0.4162366141732283
21
1.0062924015748032
0
LINE
8
BLACK
6
CONTINUOUS
10
0.4162366141732283
20
1.0062924015748032
11
0.4160607874015748
21
1.0062770078740157
0
LINE
8
BLACK
6
CONTINUOUS
10
0.4160607874015748
20
1.0062770078740157
11
0.4159225196850393
21
1.006167283464567
0
LINE
8
BLACK
6
CONTINUOUS
10
0.4159225196850393
20
1.006167283464567
11
0.4102982283464567
21
1.0042924803149607
0
LINE
8
BLACK
6
CONTINUOUS
10
0.4102982283464567
20
1.0042924803149607
11
0.4094249606299212
21
1.0041629527559055
0
LINE
8
BLACK
6
CONTINUOUS
10
0.4094249606299212
20
1.0041629527559055
11
0.4093644488188976
21
1.0041409448818897
0
LINE
8
BLACK
6
CONTINUOUS
10
0.4093644488188976
20
1.0041409448818897
11
0.4056149212598425
21
1.0041409448818897
0
LINE
8
BLACK
6
CONTINUOUS
10
0.4056149212598425
20
1.0041409448818897
11
0.4047455118110236
21
1.0042942125984251
0
LINE
8
BLACK
6
CONTINUOUS
10
0.4047455118110236
20
1.0042942125984251
11
0.4046811811023622
21
1.0042924803149607
0
LINE
8
BLACK
6
CONTINUOUS
10
0.4046811811023622
20
1.0042924803149607
11
0.3990568503937008
21
1.006167283464567
0
LINE
8
BLACK
6
CONTINUOUS
10
0.3990568503937008
20
1.006167283464567
11
0.3981550787401575
21
1.0066555905511811
0
LINE
8
BLACK
6
CONTINUOUS
10
0.3981550787401575
20
1.0066555905511811
11
0.3980626377952756
21
1.0068059842519685
0
LINE
8
BLACK
6
CONTINUOUS
10
0.3980626377952756
20
1.0068059842519685
11
0.3979027165354331
21
1.0068805905511811
0
LINE
8
BLACK
6
CONTINUOUS
10
0.3979027165354331
20
1.0068805905511811
11
0.394153188976378
21
1.0106301181102362
0
LINE
8
BLACK
6
CONTINUOUS
10
0.394153188976378
20
1.0106301181102362
11
0.3936468897637795
21
1.0113531889763778
0
LINE
8
BLACK
6
CONTINUOUS
10
0.3936468897637795
20
1.0113531889763778
11
0.3936000787401575
21
1.0113975196850393
0
LINE
8
BLACK
6
CONTINUOUS
10
0.3936000787401575
20
1.0113975196850393
11
0.3917253149606299
21
1.0151470472440944
0
LINE
8
BLACK
6
CONTINUOUS
10
0.3917253149606299
20
1.0151470472440944
11
0.39158
21
1.0156354724409449
0
LINE
8
BLACK
6
CONTINUOUS
10
0.39158
20
1.0156354724409449
11
0.3915017322834646
21
1.0157514173228346
0
LINE
8
BLACK
6
CONTINUOUS
10
0.3915017322834646
20
1.0157514173228346
11
0.389626968503937
21
1.0232504724409448
0
LINE
8
BLACK
6
CONTINUOUS
10
0.389626968503937
20
1.0232504724409448
11
0.3895854724409449
21
1.0238383464566929
0
LINE
8
BLACK
6
CONTINUOUS
10
0.3895854724409449
20
1.0238383464566929
11
0.3895388188976378
21
1.0239666141732284
0
LINE
8
BLACK
6
CONTINUOUS
10
0.3895388188976378
20
1.0239666141732284
11
0.3895388188976378
21
1.0295909055118111
0
LINE
8
BLACK
6
CONTINUOUS
10
0.3895388188976378
20
1.0295909055118111
11
0.3896411417322835
21
1.0301712598425197
0
LINE
8
BLACK
6
CONTINUOUS
10
0.3896411417322835
20
1.0301712598425197
11
0.389626968503937
21
1.0303070472440945
0
LINE
8
BLACK
6
CONTINUOUS
10
0.389626968503937
20
1.0303070472440945
11
0.3915017322834646
21
1.0378061023622047
0
LINE
8
BLACK
6
CONTINUOUS
10
0.3915017322834646
20
1.0378061023622047
11
0.3917092913385827
21
1.0382715354330709
0
LINE
8
BLACK
6
CONTINUOUS
10
0.3917092913385827
20
1.0382715354330709
11
0.3917253149606299
21
1.0384104724409449
0
LINE
8
BLACK
6
CONTINUOUS
10
0.3917253149606299
20
1.0384104724409449
11
0.3936000787401575
21
1.04216
0
LINE
8
BLACK
6
CONTINUOUS
10
0.3936000787401575
20
1.04216
11
0.3941259842519685
21
1.0428690551181101
0
LINE
8
BLACK
6
CONTINUOUS
10
0.3941259842519685
20
1.0428690551181101
11
0.394153188976378
21
1.0429274015748031
0
LINE
8
BLACK
6
CONTINUOUS
10
0.394153188976378
20
1.0429274015748031
11
0.3979027165354331
21
1.0466769291338582
0
LINE
8
BLACK
6
CONTINUOUS
10
0.3979027165354331
20
1.0466769291338582
11
0.3987427559055118
21
1.0472651574803149
0
LINE
8
BLACK
6
CONTINUOUS
10
0.3987427559055118
20
1.0472651574803149
11
0.3989186614173229
21
1.0472805118110236
0
LINE
8
BLACK
6
CONTINUOUS
10
0.3989186614173229
20
1.0472805118110236
11
0.3990568897637795
21
1.0473902362204723
0
LINE
8
BLACK
6
CONTINUOUS
10
0.3990568897637795
20
1.0473902362204723
11
0.4046811417322835
21
1.0492649999999999
0
LINE
8
BLACK
6
CONTINUOUS
10
0.4046811417322835
20
1.0492649999999999
11
0.4055543700787401
21
1.0493944881889763
0
LINE
8
BLACK
6
CONTINUOUS
10
0.4055543700787401
20
1.0493944881889763
11
0.4056149212598425
21
1.0494165354330709
0
LINE
8
BLACK
6
CONTINUOUS
10
0.4056149212598425
20
1.0494165354330709
11
0.4093644488188976
21
1.0494165354330709
0
LINE
8
BLACK
6
CONTINUOUS
10
0.4093644488188976
20
1.0494165354330709
11
0.4102338188976378
21
1.0492632283464567
0
LINE
8
BLACK
6
CONTINUOUS
10
0.4547961417322834
20
1.0493394094488189
11
0.4549316535433071
21
1.0493604330708661
0
LINE
8
BLACK
6
CONTINUOUS
10
0.4549316535433071
20
1.0493604330708661
11
0.4550362992125984
21
1.0492970472440946
0
LINE
8
BLACK
6
CONTINUOUS
10
0.4550362992125984
20
1.0492970472440946
11
0.4553687401574803
21
1.049238464566929
0
LINE
8
BLACK
6
CONTINUOUS
10
0.4553687401574803
20
1.049238464566929
11
0.4559785039370078
21
1.0487267716535433
0
LINE
8
BLACK
6
CONTINUOUS
10
0.4559785039370078
20
1.0487267716535433
11
0.4566595669291338
21
1.0483145669291338
0
LINE
8
BLACK
6
CONTINUOUS
10
0.4566595669291338
20
1.0483145669291338
11
0.4567355118110236
21
1.0480915354330709
0
LINE
8
BLACK
6
CONTINUOUS
10
0.4567355118110236
20
1.0480915354330709
11
0.4569159842519685
21
1.0479401574803149
0
LINE
8
BLACK
6
CONTINUOUS
10
0.4569159842519685
20
1.0479401574803149
11
0.4570542125984252
21
1.0471561811023622
0
LINE
8
BLACK
6
CONTINUOUS
10
0.4570542125984252
20
1.0471561811023622
11
0.4573109448818898
21
1.0464026771653543
0
LINE
8
BLACK
6
CONTINUOUS
10
0.4573109448818898
20
1.0464026771653543
11
0.4572257874015748
21
1.046183031496063
0
LINE
8
BLACK
6
CONTINUOUS
10
0.4572257874015748
20
1.046183031496063
11
0.4572667322834645
21
1.0459510236220473
0
LINE
8
BLACK
6
CONTINUOUS
10
0.4572667322834645
20
1.0459510236220473
11
0.4568686220472441
21
1.0452615354330708
0
LINE
8
BLACK
6
CONTINUOUS
10
0.4568686220472441
20
1.0452615354330708
11
0.4565809842519685
21
1.0445193700787401
0
LINE
8
BLACK
6
CONTINUOUS
10
0.4565809842519685
20
1.0445193700787401
11
0.4476246456692913
21
1.0342835433070865
0
LINE
8
BLACK
6
CONTINUOUS
10
0.4476246456692913
20
1.0342835433070865
11
0.4478696850393701
21
1.0342403543307086
0
LINE
8
BLACK
6
CONTINUOUS
10
0.4478696850393701
20
1.0342403543307086
11
0.4480049212598425
21
1.0341268503937007
0
LINE
8
BLACK
6
CONTINUOUS
10
0.4480049212598425
20
1.0341268503937007
11
0.4481802755905512
21
1.0341066929133857
0
LINE
8
BLACK
6
CONTINUOUS
10
0.4481802755905512
20
1.0341066929133857
11
0.4519298031496063
21
1.0322319291338582
0
LINE
8
BLACK
6
CONTINUOUS
10
0.4519298031496063
20
1.0322319291338582
11
0.4526388582677165
21
1.0317059842519685
0
LINE
8
BLACK
6
CONTINUOUS
10
0.4526388582677165
20
1.0317059842519685
11
0.4526972047244094
21
1.0316788188976378
0
LINE
8
BLACK
6
CONTINUOUS
10
0.4526972047244094
20
1.0316788188976378
11
0.454571968503937
21
1.0298040551181102
0
LINE
8
BLACK
6
CONTINUOUS
10
0.454571968503937
20
1.0298040551181102
11
0.4550782283464567
21
1.0290809448818898
0
LINE
8
BLACK
6
CONTINUOUS
10
0.4550782283464567
20
1.0290809448818898
11
0.4551250787401575
21
1.0290366535433071
0
LINE
8
BLACK
6
CONTINUOUS
10
0.4551250787401575
20
1.0290366535433071
11
0.456999842519685
21
1.025287125984252
0
LINE
8
BLACK
6
CONTINUOUS
10
0.456999842519685
20
1.025287125984252
11
0.4572922047244095
21
1.0243042125984252
0
LINE
8
BLACK
6
CONTINUOUS
10
0.4572922047244095
20
1.0243042125984252
11
0.4572511811023622
21
1.0241324803149605
0
LINE
8
BLACK
6
CONTINUOUS
10
0.4572511811023622
20
1.0241324803149605
11
0.4573115748031496
21
1.0239666141732284
0
LINE
8
BLACK
6
CONTINUOUS
10
0.4573115748031496
20
1.0239666141732284
11
0.4573115748031496
21
1.0145927952755904
0
LINE
8
BLACK
6
CONTINUOUS
10
0.4573115748031496
20
1.0145927952755904
11
0.4571335039370079
21
1.013582874015748
0
LINE
8
BLACK
6
CONTINUOUS
10
0.4571335039370079
20
1.013582874015748
11
0.45702
21
1.0134475984251969
0
LINE
8
BLACK
6
CONTINUOUS
10
0.45702
20
1.0134475984251969
11
0.456999842519685
21
1.0132722834645669
0
LINE
8
BLACK
6
CONTINUOUS
10
0.456999842519685
20
1.0132722834645669
11
0.4551250787401575
21
1.0095227559055118
0
LINE
8
BLACK
6
CONTINUOUS
10
0.4551250787401575
20
1.0095227559055118
11
0.4545991732283464
21
1.0088136614173229
0
LINE
8
BLACK
6
CONTINUOUS
10
0.4545991732283464
20
1.0088136614173229
11
0.454571968503937
21
1.0087553543307086
0
LINE
8
BLACK
6
CONTINUOUS
10
0.454571968503937
20
1.0087553543307086
11
0.4526972047244094
21
1.0068805905511811
0
LINE
8
BLACK
6
CONTINUOUS
10
0.4526972047244094
20
1.0068805905511811
11
0.4519742125984252
21
1.0063743700787402
0
LINE
8
BLACK
6
CONTINUOUS
10
0.4519742125984252
20
1.0063743700787402
11
0.451929842519685
21
1.0063274803149607
0
LINE
8
BLACK
6
CONTINUOUS
10
0.451929842519685
20
1.0063274803149607
11
0.4481803149606299
21
1.0044526771653544
0
LINE
8
BLACK
6
CONTINUOUS
10
0.4481803149606299
20
1.0044526771653544
11
0.4471973622047244
21
1.00416031496063
0
LINE
8
BLACK
6
CONTINUOUS
10
0.4471973622047244
20
1.00416031496063
11
0.4470256299212598
21
1.0042012992125984
0
LINE
8
BLACK
6
CONTINUOUS
10
0.4470256299212598
20
1.0042012992125984
11
0.4468597637795276
21
1.0041409448818897
0
LINE
8
BLACK
6
CONTINUOUS
10
0.4468597637795276
20
1.0041409448818897
11
0.4356111811023622
21
1.0041409448818897
0
LINE
8
BLACK
6
CONTINUOUS
10
0.4356111811023622
20
1.0041409448818897
11
0.4346012598425197
21
1.0043190157480315
0
LINE
8
BLACK
6
CONTINUOUS
10
0.4346012598425197
20
1.0043190157480315
11
0.4344659842519685
21
1.0044324803149607
0
LINE
8
BLACK
6
CONTINUOUS
10
0.4344659842519685
20
1.0044324803149607
11
0.4342906692913386
21
1.0044526771653544
0
LINE
8
BLACK
6
CONTINUOUS
10
0.4342906692913386
20
1.0044526771653544
11
0.4305411023622047
21
1.0063274803149607
0
LINE
8
BLACK
6
CONTINUOUS
10
0.4305411023622047
20
1.0063274803149607
11
0.4298320866141732
21
1.0068533464566929
0
LINE
8
BLACK
6
CONTINUOUS
10
0.4298320866141732
20
1.0068533464566929
11
0.4297737401574803
21
1.0068805905511811
0
LINE
8
BLACK
6
CONTINUOUS
10
0.4297737401574803
20
1.0068805905511811
11
0.4278989763779528
21
1.0087553543307086
0
LINE
8
BLACK
6
CONTINUOUS
10
0.4278989763779528
20
1.0087553543307086
11
0.4273107874015748
21
1.0095953937007873
0
LINE
8
BLACK
6
CONTINUOUS
10
0.4273107874015748
20
1.0095953937007873
11
0.4271347244094488
21
1.0116074803149606
0
LINE
8
BLACK
6
CONTINUOUS
10
0.4271347244094488
20
1.0116074803149606
11
0.4282932677165354
21
1.0132620472440945
0
LINE
8
BLACK
6
CONTINUOUS
10
0.4282932677165354
20
1.0132620472440945
11
0.4302442125984252
21
1.0137847637795276
0
LINE
8
BLACK
6
CONTINUOUS
10
0.4302442125984252
20
1.0137847637795276
11
0.4320748031496063
21
1.0129311811023622
0
LINE
8
BLACK
6
CONTINUOUS
10
0.4320748031496063
20
1.0129311811023622
11
0.4336107086614173
21
1.0113952362204723
0
LINE
8
BLACK
6
CONTINUOUS
10
0.4336107086614173
20
1.0113952362204723
11
0.4363082677165354
21
1.0100464566929133
0
LINE
8
BLACK
6
CONTINUOUS
10
0.4363082677165354
20
1.0100464566929133
11
0.4461626771653543
21
1.0100464566929133
0
LINE
8
BLACK
6
CONTINUOUS
10
0.4461626771653543
20
1.0100464566929133
11
0.4488601574803149
21
1.0113951968503936
0
LINE
8
BLACK
6
CONTINUOUS
10
0.4488601574803149
20
1.0113951968503936
11
0.4500573228346457
21
1.0125923622047244
0
LINE
8
BLACK
6
CONTINUOUS
10
0.4500573228346457
20
1.0125923622047244
11
0.451406062992126
21
1.015289842519685
0
LINE
8
BLACK
6
CONTINUOUS
10
0.451406062992126
20
1.015289842519685
11
0.451406062992126
21
1.0232695669291338
0
LINE
8
BLACK
6
CONTINUOUS
10
0.451406062992126
20
1.0232695669291338
11
0.4500573228346457
21
1.0259670472440945
0
LINE
8
BLACK
6
CONTINUOUS
10
0.4500573228346457
20
1.0259670472440945
11
0.4488601968503937
21
1.0271641732283465
0
LINE
8
BLACK
6
CONTINUOUS
10
0.4488601968503937
20
1.0271641732283465
11
0.446162716535433
21
1.0285129133858268
0
LINE
8
BLACK
6
CONTINUOUS
10
0.446162716535433
20
1.0285129133858268
11
0.4412354724409449
21
1.0285129133858268
0
LINE
8
BLACK
6
CONTINUOUS
10
0.4412354724409449
20
1.0285129133858268
11
0.4407981102362205
21
1.0285899999999999
0
LINE
8
BLACK
6
CONTINUOUS
10
0.4407981102362205
20
1.0285899999999999
11
0.4406626377952756
21
1.0285690157480314
0
LINE
8
BLACK
6
CONTINUOUS
10
0.4406626377952756
20
1.0285690157480314
11
0.4405579527559055
21
1.0286323622047244
0
LINE
8
BLACK
6
CONTINUOUS
10
0.4405579527559055
20
1.0286323622047244
11
0.4402255511811023
21
1.0286909842519685
0
LINE
8
BLACK
6
CONTINUOUS
10
0.4402255511811023
20
1.0286909842519685
11
0.4396157480314961
21
1.0292026377952757
0
LINE
8
BLACK
6
CONTINUOUS
10
0.4396157480314961
20
1.0292026377952757
11
0.4389347244094488
21
1.0296148818897637
0
LINE
8
BLACK
6
CONTINUOUS
10
0.4389347244094488
20
1.0296148818897637
11
0.4388587401574803
21
1.0298378740157481
0
LINE
8
BLACK
6
CONTINUOUS
10
0.4388587401574803
20
1.0298378740157481
11
0.4386783070866141
21
1.0299892913385826
0
LINE
8
BLACK
6
CONTINUOUS
10
0.4386783070866141
20
1.0299892913385826
11
0.4385400393700787
21
1.0307732283464566
0
LINE
8
BLACK
6
CONTINUOUS
10
0.4385400393700787
20
1.0307732283464566
11
0.4382833464566929
21
1.0315267716535432
0
LINE
8
BLACK
6
CONTINUOUS
10
0.4382833464566929
20
1.0315267716535432
11
0.4383684645669291
21
1.0317463779527558
0
LINE
8
BLACK
6
CONTINUOUS
10
0.4383684645669291
20
1.0317463779527558
11
0.4383275590551181
21
1.0319784251968505
0
LINE
8
BLACK
6
CONTINUOUS
10
0.4383275590551181
20
1.0319784251968505
11
0.4387256299212599
21
1.032667874015748
0
LINE
8
BLACK
6
CONTINUOUS
10
0.4387256299212599
20
1.032667874015748
11
0.4390133070866142
21
1.0334100787401574
0
LINE
8
BLACK
6
CONTINUOUS
10
0.4390133070866142
20
1.0334100787401574
11
0.4478516535433071
21
1.0435110236220473
0
LINE
8
BLACK
6
CONTINUOUS
10
0.4478516535433071
20
1.0435110236220473
11
0.4299868897637795
21
1.0435110236220473
0
LINE
8
BLACK
6
CONTINUOUS
10
0.4299868897637795
20
1.0435110236220473
11
0.428976968503937
21
1.0436890944881889
0
LINE
8
BLACK
6
CONTINUOUS
10
0.428976968503937
20
1.0436890944881889
11
0.4274297244094488
21
1.0449874015748031
0
LINE
8
BLACK
6
CONTINUOUS
10
0.4274297244094488
20
1.0449874015748031
11
0.4270789763779527
21
1.0469765354330709
0
LINE
8
BLACK
6
CONTINUOUS
10
0.4270789763779527
20
1.0469765354330709
11
0.4280888976377953
21
1.0487257086614172
0
LINE
8
BLACK
6
CONTINUOUS
10
0.4280888976377953
20
1.0487257086614172
11
0.4299868897637795
21
1.0494165354330709
0
LINE
8
BLACK
6
CONTINUOUS
10
0.4299868897637795
20
1.0494165354330709
11
0.4543588188976378
21
1.0494165354330709
0
LINE
8
BLACK
6
CONTINUOUS
10
0.4543588188976378
20
1.0494165354330709
11
0.4547961417322834
21
1.0493394094488189
0
LINE
8
BLACK
6
CONTINUOUS
10
0.2381443307086614
20
1.1587738188976378
11
0.238720905511811
21
1.1573818897637795
0
LINE
8
BLACK
6
CONTINUOUS
10
0.238720905511811
20
1.1573818897637795
11
0.238720905511811
21
1.134744094488189
0
LINE
8
BLACK
6
CONTINUOUS
10
0.238720905511811
20
1.134744094488189
11
0.2613587007874016
21
1.134744094488189
0
LINE
8
BLACK
6
CONTINUOUS
10
0.2613587007874016
20
1.134744094488189
11
0.2627506299212599
21
1.1341675196850394
0
LINE
8
BLACK
6
CONTINUOUS
10
0.2627506299212599
20
1.1341675196850394
11
0.2633272047244095
21
1.1327755905511812
0
LINE
8
BLACK
6
CONTINUOUS
10
0.2633272047244095
20
1.1327755905511812
11
0.2627506299212599
21
1.1313836614173227
0
LINE
8
BLACK
6
CONTINUOUS
10
0.2627506299212599
20
1.1313836614173227
11
0.2613587007874016
21
1.1308070866141733
0
LINE
8
BLACK
6
CONTINUOUS
10
0.2613587007874016
20
1.1308070866141733
11
0.238720905511811
21
1.1308070866141733
0
LINE
8
BLACK
6
CONTINUOUS
10
0.238720905511811
20
1.1308070866141733
11
0.238720905511811
21
1.1081692913385826
0
LINE
8
BLACK
6
CONTINUOUS
10
0.238720905511811
20
1.1081692913385826
11
0.2381443307086614
21
1.1067773622047243
0
LINE
8
BLACK
6
CONTINUOUS
10
0.2381443307086614
20
1.1067773622047243
11
0.2367524015748032
21
1.1062007874015747
0
LINE
8
BLACK
6
CONTINUOUS
10
0.2367524015748032
20
1.1062007874015747
11
0.2353604724409449
21
1.1067773622047243
0
LINE
8
BLACK
6
CONTINUOUS
10
0.2353604724409449
20
1.1067773622047243
11
0.2347838976377953
21
1.1081692913385826
0
LINE
8
BLACK
6
CONTINUOUS
10
0.2347838976377953
20
1.1081692913385826
11
0.2347838976377953
21
1.1308070866141733
0
LINE
8
BLACK
6
CONTINUOUS
10
0.2347838976377953
20
1.1308070866141733
11
0.2121461023622047
21
1.1308070866141733
0
LINE
8
BLACK
6
CONTINUOUS
10
0.2121461023622047
20
1.1308070866141733
11
0.2107541732283464
21
1.1313836614173227
0
LINE
8
BLACK
6
CONTINUOUS
10
0.2107541732283464
20
1.1313836614173227
11
0.2101775984251968
21
1.1327755905511812
0
LINE
8
BLACK
6
CONTINUOUS
10
0.2101775984251968
20
1.1327755905511812
11
0.2107541732283464
21
1.1341675196850394
0
LINE
8
BLACK
6
CONTINUOUS
10
0.2107541732283464
20
1.1341675196850394
11
0.2121461023622047
21
1.134744094488189
0
LINE
8
BLACK
6
CONTINUOUS
10
0.2121461023622047
20
1.134744094488189
11
0.2347838976377953
21
1.134744094488189
0
LINE
8
BLACK
6
CONTINUOUS
10
0.2347838976377953
20
1.134744094488189
11
0.2347838976377953
21
1.1573818897637795
0
LINE
8
BLACK
6
CONTINUOUS
10
0.2347838976377953
20
1.1573818897637795
11
0.2353604724409449
21
1.1587738188976378
0
LINE
8
BLACK
6
CONTINUOUS
10
0.2353604724409449
20
1.1587738188976378
11
0.2367524015748032
21
1.1593503937007874
0
LINE
8
BLACK
6
CONTINUOUS
10
0.2367524015748032
20
1.1593503937007874
11
0.2381443307086614
21
1.1587738188976378
0
LINE
8
BLACK
6
CONTINUOUS
10
0.4428855118110236
20
1.2722668897637794
11
0.4622258661417323
21
1.2699778346456692
0
LINE
8
BLACK
6
CONTINUOUS
10
0.4622258661417323
20
1.2699778346456692
11
0.4813270078740157
21
1.2661783464566929
0
LINE
8
BLACK
6
CONTINUOUS
10
0.4813270078740157
20
1.2661783464566929
11
0.5000711417322835
21
1.260891968503937
0
LINE
8
BLACK
6
CONTINUOUS
10
0.5000711417322835
20
1.260891968503937
11
0.5183427559055118
21
1.254151220472441
0
LINE
8
BLACK
6
CONTINUOUS
10
0.5183427559055118
20
1.254151220472441
11
0.5360291338582677
21
1.2459976771653543
0
LINE
8
BLACK
6
CONTINUOUS
10
0.5360291338582677
20
1.2459976771653543
11
0.5530212992125985
21
1.2364816141732282
0
LINE
8
BLACK
6
CONTINUOUS
10
0.5530212992125985
20
1.2364816141732282
11
0.5692144488188976
21
1.2256616929133859
0
LINE
8
BLACK
6
CONTINUOUS
10
0.5692144488188976
20
1.2256616929133859
11
0.5845087795275591
21
1.2136046456692913
0
LINE
8
BLACK
6
CONTINUOUS
10
0.5845087795275591
20
1.2136046456692913
11
0.5988099606299212
21
1.2003847637795275
0
LINE
8
BLACK
6
CONTINUOUS
10
0.5988099606299212
20
1.2003847637795275
11
0.6120298425196851
21
1.1860835826771654
0
LINE
8
BLACK
6
CONTINUOUS
10
0.6120298425196851
20
1.1860835826771654
11
0.6240868897637795
21
1.1707892519685039
0
LINE
8
BLACK
6
CONTINUOUS
10
0.6240868897637795
20
1.1707892519685039
11
0.634906811023622
21
1.1545961023622047
0
LINE
8
BLACK
6
CONTINUOUS
10
0.634906811023622
20
1.1545961023622047
11
0.644422874015748
21
1.1376039370078741
0
LINE
8
BLACK
6
CONTINUOUS
10
0.644422874015748
20
1.1376039370078741
11
0.6525764173228347
21
1.119917559055118
0
LINE
8
BLACK
6
CONTINUOUS
10
0.6525764173228347
20
1.119917559055118
11
0.6593171653543307
21
1.1016459448818898
0
LINE
8
BLACK
6
CONTINUOUS
10
0.6593171653543307
20
1.1016459448818898
11
0.6646035433070866
21
1.0829018110236219
0
LINE
8
BLACK
6
CONTINUOUS
10
0.6646035433070866
20
1.0829018110236219
11
0.6684030314960629
21
1.0638006692913387
0
LINE
8
BLACK
6
CONTINUOUS
10
0.6684030314960629
20
1.0638006692913387
11
0.6706920866141732
21
1.04446031496063
0
LINE
8
BLACK
6
CONTINUOUS
10
0.6706920866141732
20
1.04446031496063
11
0.6714566929133858
21
1.0249999999999999
0
LINE
8
BLACK
6
CONTINUOUS
10
0.6714566929133858
20
1.0249999999999999
11
0.6706920866141732
21
1.0055396850393701
0
LINE
8
BLACK
6
CONTINUOUS
10
0.6706920866141732
20
1.0055396850393701
11
0.6684030314960629
21
0.9861993307086614
0
LINE
8
BLACK
6
CONTINUOUS
10
0.6684030314960629
20
0.9861993307086614
11
0.6646035433070866
21
0.9670981889763779
0
LINE
8
BLACK
6
CONTINUOUS
10
0.6646035433070866
20
0.9670981889763779
11
0.6593171653543307
21
0.9483540551181102
0
LINE
8
BLACK
6
CONTINUOUS
10
0.6593171653543307
20
0.9483540551181102
11
0.6525764173228347
21
0.9300824409448819
0
LINE
8
BLACK
6
CONTINUOUS
10
0.6525764173228347
20
0.9300824409448819
11
0.644422874015748
21
0.9123960629921259
0
LINE
8
BLACK
6
CONTINUOUS
10
0.644422874015748
20
0.9123960629921259
11
0.634906811023622
21
0.8954038976377953
0
LINE
8
BLACK
6
CONTINUOUS
10
0.634906811023622
20
0.8954038976377953
11
0.6240868897637795
21
0.879210748031496
0
LINE
8
BLACK
6
CONTINUOUS
10
0.6240868897637795
20
0.879210748031496
11
0.6120298425196851
21
0.8639164173228346
0
LINE
8
BLACK
6
CONTINUOUS
10
0.6120298425196851
20
0.8639164173228346
11
0.5988099606299212
21
0.8496152362204724
0
LINE
8
BLACK
6
CONTINUOUS
10
0.5988099606299212
20
0.8496152362204724
11
0.5845087795275591
21
0.8363953543307087
0
LINE
8
BLACK
6
CONTINUOUS
10
0.5845087795275591
20
0.8363953543307087
11
0.5692144488188976
21
0.8243383070866142
0
LINE
8
BLACK
6
CONTINUOUS
10
0.5692144488188976
20
0.8243383070866142
11
0.5530212992125985
21
0.8135183858267716
0
LINE
8
BLACK
6
CONTINUOUS
10
0.5530212992125985
20
0.8135183858267716
11
0.5360291338582677
21
0.8040023228346457
0
LINE
8
BLACK
6
CONTINUOUS
10
0.5360291338582677
20
0.8040023228346457
11
0.5183427559055118
21
0.7958487795275591
0
LINE
8
BLACK
6
CONTINUOUS
10
0.5183427559055118
20
0.7958487795275591
11
0.5000711417322835
21
0.789108031496063
0
LINE
8
BLACK
6
CONTINUOUS
10
0.5000711417322835
20
0.789108031496063
11
0.4813270078740157
21
0.783821653543307
0
LINE
8
BLACK
6
CONTINUOUS
10
0.4813270078740157
20
0.783821653543307
11
0.4622258661417323
21
0.7800221653543307
0
LINE
8
BLACK
6
CONTINUOUS
10
0.4622258661417323
20
0.7800221653543307
11
0.4428855118110236
21
0.7777331102362205
0
LINE
8
BLACK
6
CONTINUOUS
10
0.4428855118110236
20
0.7777331102362205
11
0.4234251968503937
21
0.7769685039370079
0
LINE
8
BLACK
6
CONTINUOUS
10
0.4234251968503937
20
0.7769685039370079
11
0.4039648818897638
21
0.7777331102362205
0
LINE
8
BLACK
6
CONTINUOUS
10
0.4039648818897638
20
0.7777331102362205
11
0.3846245275590551
21
0.7800221653543307
0
LINE
8
BLACK
6
CONTINUOUS
10
0.3846245275590551
20
0.7800221653543307
11
0.3655233858267716
21
0.783821653543307
0
LINE
8
BLACK
6
CONTINUOUS
10
0.3655233858267716
20
0.783821653543307
11
0.346779251968504
21
0.789108031496063
0
LINE
8
BLACK
6
CONTINUOUS
10
0.346779251968504
20
0.789108031496063
11
0.3285076377952756
21
0.7958487795275591
0
LINE
8
BLACK
6
CONTINUOUS
10
0.3285076377952756
20
0.7958487795275591
11
0.3108212598425197
21
0.8040023228346457
0
LINE
8
BLACK
6
CONTINUOUS
10
0.3108212598425197
20
0.8040023228346457
11
0.2938290944881889
21
0.8135183858267716
0
LINE
8
BLACK
6
CONTINUOUS
10
0.2938290944881889
20
0.8135183858267716
11
0.2776359448818898
21
0.8243383070866142
0
LINE
8
BLACK
6
CONTINUOUS
10
0.2776359448818898
20
0.8243383070866142
11
0.2623416141732283
21
0.8363953543307087
0
LINE
8
BLACK
6
CONTINUOUS
10
0.2623416141732283
20
0.8363953543307087
11
0.2480404330708661
21
0.8496152362204724
0
LINE
8
BLACK
6
CONTINUOUS
10
0.2480404330708661
20
0.8496152362204724
11
0.2348205511811023
21
0.8639164173228346
0
LINE
8
BLACK
6
CONTINUOUS
10
0.2348205511811023
20
0.8639164173228346
11
0.2227635039370079
21
0.879210748031496
0
LINE
8
BLACK
6
CONTINUOUS
10
0.2227635039370079
20
0.879210748031496
11
0.2119435826771653
21
0.8954038976377953
0
LINE
8
BLACK
6
CONTINUOUS
10
0.2119435826771653
20
0.8954038976377953
11
0.2024275196850394
21
0.9123960629921259
0
LINE
8
BLACK
6
CONTINUOUS
10
0.2024275196850394
20
0.9123960629921259
11
0.1942739763779527
21
0.9300824409448819
0
LINE
8
BLACK
6
CONTINUOUS
10
0.1942739763779527
20
0.9300824409448819
11
0.1875332283464567
21
0.9483540551181102
0
LINE
8
BLACK
6
CONTINUOUS
10
0.1875332283464567
20
0.9483540551181102
11
0.1822468503937008
21
0.9670981889763779
0
LINE
8
BLACK
6
CONTINUOUS
10
0.1822468503937008
20
0.9670981889763779
11
0.1784473622047244
21
0.9861993307086614
0
LINE
8
BLACK
6
CONTINUOUS
10
0.1784473622047244
20
0.9861993307086614
11
0.1761583070866142
21
1.0055396850393701
0
LINE
8
BLACK
6
CONTINUOUS
10
0.1761583070866142
20
1.0055396850393701
11
0.1753937007874016
21
1.0249999999999999
0
LINE
8
BLACK
6
CONTINUOUS
10
0.1753937007874016
20
1.0249999999999999
11
0.1761583070866142
21
1.04446031496063
0
LINE
8
BLACK
6
CONTINUOUS
10
0.1761583070866142
20
1.04446031496063
11
0.1784473622047244
21
1.0638006692913387
0
LINE
8
BLACK
6
CONTINUOUS
10
0.1784473622047244
20
1.0638006692913387
11
0.1822468503937008
21
1.0829018110236219
0
LINE
8
BLACK
6
CONTINUOUS
10
0.1822468503937008
20
1.0829018110236219
11
0.1875332283464567
21
1.1016459448818898
0
LINE
8
BLACK
6
CONTINUOUS
10
0.1875332283464567
20
1.1016459448818898
11
0.1942739763779527
21
1.119917559055118
0
LINE
8
BLACK
6
CONTINUOUS
10
0.1942739763779527
20
1.119917559055118
11
0.2024275196850394
21
1.1376039370078741
0
LINE
8
BLACK
6
CONTINUOUS
10
0.2024275196850394
20
1.1376039370078741
11
0.2119435826771653
21
1.1545961023622047
0
LINE
8
BLACK
6
CONTINUOUS
10
0.2119435826771653
20
1.1545961023622047
11
0.2227635039370079
21
1.1707892519685039
0
LINE
8
BLACK
6
CONTINUOUS
10
0.2227635039370079
20
1.1707892519685039
11
0.2348205511811023
21
1.1860835826771654
0
LINE
8
BLACK
6
CONTINUOUS
10
0.2348205511811023
20
1.1860835826771654
11
0.2480404330708661
21
1.2003847637795275
0
LINE
8
BLACK
6
CONTINUOUS
10
0.2480404330708661
20
1.2003847637795275
11
0.2623416141732283
21
1.2136046456692913
0
LINE
8
BLACK
6
CONTINUOUS
10
0.2623416141732283
20
1.2136046456692913
11
0.2776359448818898
21
1.2256616929133859
0
LINE
8
BLACK
6
CONTINUOUS
10
0.2776359448818898
20
1.2256616929133859
11
0.2938290944881889
21
1.2364816141732282
0
LINE
8
BLACK
6
CONTINUOUS
10
0.2938290944881889
20
1.2364816141732282
11
0.3108212598425197
21
1.2459976771653543
0
LINE
8
BLACK
6
CONTINUOUS
10
0.3108212598425197
20
1.2459976771653543
11
0.3285076377952756
21
1.254151220472441
0
LINE
8
BLACK
6
CONTINUOUS
10
0.3285076377952756
20
1.254151220472441
11
0.346779251968504
21
1.260891968503937
0
LINE
8
BLACK
6
CONTINUOUS
10
0.346779251968504
20
1.260891968503937
11
0.3655233858267716
21
1.2661783464566929
0
LINE
8
BLACK
6
CONTINUOUS
10
0.3655233858267716
20
1.2661783464566929
11
0.3846245275590551
21
1.2699778346456692
0
LINE
8
BLACK
6
CONTINUOUS
10
0.3846245275590551
20
1.2699778346456692
11
0.4039648818897638
21
1.2722668897637794
0
LINE
8
BLACK
6
CONTINUOUS
10
0.4039648818897638
20
1.2722668897637794
11
0.4234251968503937
21
1.273031496062992
0
LINE
8
BLACK
6
CONTINUOUS
10
0.4234251968503937
20
1.273031496062992
11
0.4428855118110236
21
1.2722668897637794
0
LINE
8
BLACK
6
CONTINUOUS
10
0.1799247637795275
20
1.0053425984251969
11
0.1822961417322835
21
0.985812716535433
0
LINE
8
BLACK
6
CONTINUOUS
10
0.1822961417322835
20
0.985812716535433
11
0.1862312992125984
21
0.966536968503937
0
LINE
8
BLACK
6
CONTINUOUS
10
0.1862312992125984
20
0.966536968503937
11
0.1917047637795276
21
0.9476403543307086
0
LINE
8
BLACK
6
CONTINUOUS
10
0.1917047637795276
20
0.9476403543307086
11
0.1986810236220472
21
0.9292454724409449
0
LINE
8
BLACK
6
CONTINUOUS
10
0.1986810236220472
20
0.9292454724409449
11
0.207114842519685
21
0.9114715748031496
0
LINE
8
BLACK
6
CONTINUOUS
10
0.207114842519685
20
0.9114715748031496
11
0.2169514960629921
21
0.894433937007874
0
LINE
8
BLACK
6
CONTINUOUS
10
0.2169514960629921
20
0.894433937007874
11
0.2281272440944882
21
0.8782431102362205
0
LINE
8
BLACK
6
CONTINUOUS
10
0.2281272440944882
20
0.8782431102362205
11
0.2405695669291339
21
0.8630040551181102
0
LINE
8
BLACK
6
CONTINUOUS
10
0.2405695669291339
20
0.8630040551181102
11
0.2541977559055118
21
0.8488155905511811
0
LINE
8
BLACK
6
CONTINUOUS
10
0.2541977559055118
20
0.8488155905511811
11
0.2689234645669291
21
0.8357697244094489
0
LINE
8
BLACK
6
CONTINUOUS
10
0.2689234645669291
20
0.8357697244094489
11
0.2846511811023622
21
0.8239511417322835
0
LINE
8
BLACK
6
CONTINUOUS
10
0.2846511811023622
20
0.8239511417322835
11
0.3012788976377953
21
0.8134364173228347
0
LINE
8
BLACK
6
CONTINUOUS
10
0.3012788976377953
20
0.8134364173228347
11
0.318698779527559
21
0.8042937401574803
0
LINE
8
BLACK
6
CONTINUOUS
10
0.318698779527559
20
0.8042937401574803
11
0.3367978346456693
21
0.7965824409448818
0
LINE
8
BLACK
6
CONTINUOUS
10
0.3367978346456693
20
0.7965824409448818
11
0.3554587401574803
21
0.7903525196850394
0
LINE
8
BLACK
6
CONTINUOUS
10
0.3554587401574803
20
0.7903525196850394
11
0.3745603937007874
21
0.7856444094488189
0
LINE
8
BLACK
6
CONTINUOUS
10
0.3745603937007874
20
0.7856444094488189
11
0.3939789763779528
21
0.7824885826771654
0
LINE
8
BLACK
6
CONTINUOUS
10
0.3939789763779528
20
0.7824885826771654
11
0.4135885433070866
21
0.7809055118110236
0
LINE
8
BLACK
6
CONTINUOUS
10
0.4135885433070866
20
0.7809055118110236
11
0.4332618503937008
21
0.7809055118110236
0
LINE
8
BLACK
6
CONTINUOUS
10
0.4332618503937008
20
0.7809055118110236
11
0.4528714173228346
21
0.7824885826771654
0
LINE
8
BLACK
6
CONTINUOUS
10
0.4528714173228346
20
0.7824885826771654
11
0.47229
21
0.7856444094488189
0
LINE
8
BLACK
6
CONTINUOUS
10
0.47229
20
0.7856444094488189
11
0.491391653543307
21
0.7903525196850394
0
LINE
8
BLACK
6
CONTINUOUS
10
0.491391653543307
20
0.7903525196850394
11
0.5100525590551181
21
0.7965824409448818
0
LINE
8
BLACK
6
CONTINUOUS
10
0.5100525590551181
20
0.7965824409448818
11
0.5281516141732283
21
0.8042937401574803
0
LINE
8
BLACK
6
CONTINUOUS
10
0.5281516141732283
20
0.8042937401574803
11
0.5455714960629922
21
0.8134364173228347
0
LINE
8
BLACK
6
CONTINUOUS
10
0.5455714960629922
20
0.8134364173228347
11
0.5621992125984252
21
0.8239511417322835
0
LINE
8
BLACK
6
CONTINUOUS
10
0.5621992125984252
20
0.8239511417322835
11
0.5779269291338582
21
0.8357697244094489
0
LINE
8
BLACK
6
CONTINUOUS
10
0.5779269291338582
20
0.8357697244094489
11
0.5926526377952755
21
0.8488155905511811
0
LINE
8
BLACK
6
CONTINUOUS
10
0.5926526377952755
20
0.8488155905511811
11
0.6062808267716535
21
0.8630040551181102
0
LINE
8
BLACK
6
CONTINUOUS
10
0.6062808267716535
20
0.8630040551181102
11
0.6187231496062991
21
0.8782431102362205
0
LINE
8
BLACK
6
CONTINUOUS
10
0.6187231496062991
20
0.8782431102362205
11
0.6298988976377953
21
0.894433937007874
0
LINE
8
BLACK
6
CONTINUOUS
10
0.6298988976377953
20
0.894433937007874
11
0.6397355511811024
21
0.9114715748031496
0
LINE
8
BLACK
6
CONTINUOUS
10
0.6397355511811024
20
0.9114715748031496
11
0.6481693700787401
21
0.9292454724409449
0
LINE
8
BLACK
6
CONTINUOUS
10
0.6481693700787401
20
0.9292454724409449
11
0.6551456299212598
21
0.9476403543307086
0
LINE
8
BLACK
6
CONTINUOUS
10
0.6551456299212598
20
0.9476403543307086
11
0.660619094488189
21
0.966536968503937
0
LINE
8
BLACK
6
CONTINUOUS
10
0.660619094488189
20
0.966536968503937
11
0.6645542519685039
21
0.985812716535433
0
LINE
8
BLACK
6
CONTINUOUS
10
0.6645542519685039
20
0.985812716535433
11
0.6669256299212598
21
1.0053425984251969
0
LINE
8
BLACK
6
CONTINUOUS
10
0.6669256299212598
20
1.0053425984251969
11
0.6677177952755905
21
1.0249999999999999
0
LINE
8
BLACK
6
CONTINUOUS
10
0.6677177952755905
20
1.0249999999999999
11
0.6669256299212598
21
1.0446574015748031
0
LINE
8
BLACK
6
CONTINUOUS
10
0.6669256299212598
20
1.0446574015748031
11
0.6645542519685039
21
1.0641872834645669
0
LINE
8
BLACK
6
CONTINUOUS
10
0.6645542519685039
20
1.0641872834645669
11
0.660619094488189
21
1.0834630314960629
0
LINE
8
BLACK
6
CONTINUOUS
10
0.660619094488189
20
1.0834630314960629
11
0.6551456299212598
21
1.1023596456692912
0
LINE
8
BLACK
6
CONTINUOUS
10
0.6551456299212598
20
1.1023596456692912
11
0.6481693700787401
21
1.1207545275590551
0
LINE
8
BLACK
6
CONTINUOUS
10
0.6481693700787401
20
1.1207545275590551
11
0.6397355511811024
21
1.1385284251968504
0
LINE
8
BLACK
6
CONTINUOUS
10
0.6397355511811024
20
1.1385284251968504
11
0.6298988976377953
21
1.1555660629921261
0
LINE
8
BLACK
6
CONTINUOUS
10
0.6298988976377953
20
1.1555660629921261
11
0.6187231496062991
21
1.1717568897637796
0
LINE
8
BLACK
6
CONTINUOUS
10
0.6187231496062991
20
1.1717568897637796
11
0.6062808267716535
21
1.1869959448818896
0
LINE
8
BLACK
6
CONTINUOUS
10
0.6062808267716535
20
1.1869959448818896
11
0.5926526377952755
21
1.2011844094488189
0
LINE
8
BLACK
6
CONTINUOUS
10
0.5926526377952755
20
1.2011844094488189
11
0.5779269291338582
21
1.2142302755905512
0
LINE
8
BLACK
6
CONTINUOUS
10
0.5779269291338582
20
1.2142302755905512
11
0.5621992125984252
21
1.2260488582677165
0
LINE
8
BLACK
6
CONTINUOUS
10
0.5621992125984252
20
1.2260488582677165
11
0.5455714960629922
21
1.2365635826771653
0
LINE
8
BLACK
6
CONTINUOUS
10
0.5455714960629922
20
1.2365635826771653
11
0.5281516141732283
21
1.2457062598425197
0
LINE
8
BLACK
6
CONTINUOUS
10
0.5281516141732283
20
1.2457062598425197
11
0.5100525590551181
21
1.253417559055118
0
LINE
8
BLACK
6
CONTINUOUS
10
0.5100525590551181
20
1.253417559055118
11
0.491391653543307
21
1.2596474803149607
0
LINE
8
BLACK
6
CONTINUOUS
10
0.491391653543307
20
1.2596474803149607
11
0.47229
21
1.264355590551181
0
LINE
8
BLACK
6
CONTINUOUS
10
0.47229
20
1.264355590551181
11
0.4528714173228346
21
1.2675114173228346
0
LINE
8
BLACK
6
CONTINUOUS
10
0.4528714173228346
20
1.2675114173228346
11
0.4332618503937008
21
1.2690944881889763
0
LINE
8
BLACK
6
CONTINUOUS
10
0.4332618503937008
20
1.2690944881889763
11
0.4135885433070866
21
1.2690944881889763
0
LINE
8
BLACK
6
CONTINUOUS
10
0.4135885433070866
20
1.2690944881889763
11
0.3939789763779528
21
1.2675114173228346
0
LINE
8
BLACK
6
CONTINUOUS
10
0.3939789763779528
20
1.2675114173228346
11
0.3745603937007874
21
1.264355590551181
0
LINE
8
BLACK
6
CONTINUOUS
10
0.3745603937007874
20
1.264355590551181
11
0.3554587401574803
21
1.2596474803149607
0
LINE
8
BLACK
6
CONTINUOUS
10
0.3554587401574803
20
1.2596474803149607
11
0.3367978346456693
21
1.253417559055118
0
LINE
8
BLACK
6
CONTINUOUS
10
0.3367978346456693
20
1.253417559055118
11
0.318698779527559
21
1.2457062598425197
0
LINE
8
BLACK
6
CONTINUOUS
10
0.318698779527559
20
1.2457062598425197
11
0.3012788976377953
21
1.2365635826771653
0
LINE
8
BLACK
6
CONTINUOUS
10
0.3012788976377953
20
1.2365635826771653
11
0.2846511811023622
21
1.2260488582677165
0
LINE
8
BLACK
6
CONTINUOUS
10
0.2846511811023622
20
1.2260488582677165
11
0.2689234645669291
21
1.2142302755905512
0
LINE
8
BLACK
6
CONTINUOUS
10
0.2689234645669291
20
1.2142302755905512
11
0.2541977559055118
21
1.2011844094488189
0
LINE
8
BLACK
6
CONTINUOUS
10
0.2541977559055118
20
1.2011844094488189
11
0.2405695669291339
21
1.1869959448818896
0
LINE
8
BLACK
6
CONTINUOUS
10
0.2405695669291339
20
1.1869959448818896
11
0.2281272440944882
21
1.1717568897637796
0
LINE
8
BLACK
6
CONTINUOUS
10
0.2281272440944882
20
1.1717568897637796
11
0.2169514960629921
21
1.1555660629921261
0
LINE
8
BLACK
6
CONTINUOUS
10
0.2169514960629921
20
1.1555660629921261
11
0.207114842519685
21
1.1385284251968504
0
LINE
8
BLACK
6
CONTINUOUS
10
0.207114842519685
20
1.1385284251968504
11
0.1986810236220472
21
1.1207545275590551
0
LINE
8
BLACK
6
CONTINUOUS
10
0.1986810236220472
20
1.1207545275590551
11
0.1917047637795276
21
1.1023596456692912
0
LINE
8
BLACK
6
CONTINUOUS
10
0.1917047637795276
20
1.1023596456692912
11
0.1862312992125984
21
1.0834630314960629
0
LINE
8
BLACK
6
CONTINUOUS
10
0.1862312992125984
20
1.0834630314960629
11
0.1822961417322835
21
1.0641872834645669
0
LINE
8
BLACK
6
CONTINUOUS
10
0.1822961417322835
20
1.0641872834645669
11
0.1799247637795275
21
1.0446574015748031
0
LINE
8
BLACK
6
CONTINUOUS
10
0.1799247637795275
20
1.0446574015748031
11
0.1791325984251969
21
1.0249999999999999
0
LINE
8
BLACK
6
CONTINUOUS
10
0.1791325984251969
20
1.0249999999999999
11
0.1799247637795275
21
1.0053425984251969
  0
ENDSEC
  0
EOF
