  0
SECTION
  2
HEADER
  9
$ANGBASE
  50
0.0
  9
$ANGDIR
  70
1
  9
$MEASUREMENT
  70
0
  0
ENDSEC
  0
SECTION
  2
TABLES
  0
TABLE
  2
LTYPE
  70
4
  0
LTYPE
  5
40F
  2
CONTINUOUS
  70
0
  3
Solid line
  72
65
  73
0
  40
0.0
  0
LTYPE
  5
410
  2
DASHDOT
 70
0
  3
Dash Dot ____ _ ____ _
 72
65
 73
4
 40
2.0
 49
1.25
 49
-0.25
 49
0.25
 49
-0.25
  0
LTYPE
  5
411
  2
DASHED
 70
0
  3
Dashed __ __ __ __ __
 72
65
 73
2
 40
0.75
 49
0.5
 49
-0.25
  0
LTYPE
  5
43B
  2
DOTTED
 70
0
  3
Dotted .  .  .  .
 72
65
 73
2
 40
0.2
 49
0.0
 49
-0.2
  0
ENDTAB
  0
TABLE
  2
STYLE
  70
4
  0
STYLE
  2
KICAD
  70
0
  40
0
  41
1
  42
1
  50
0
  71
0
  3
isocp.shx
  0
STYLE
  2
KICADB
  70
0
  40
0
  41
1
  42
1
  50
0
  71
0
  3
isocp.shx
  0
STYLE
  2
KICADI
  70
0
  40
0
  41
1
  42
1
  50
15
  71
0
  3
isocp.shx
  0
STYLE
  2
KICADBI
  70
0
  40
0
  41
1
  42
1
  50
15
  71
0
  3
isocp.shx
  0
ENDTAB
  0
TABLE
  2
LAYER
  70
1
  0
LAYER
  2
BLACK
  70
0
  62
7
  6
CONTINUOUS
  0
ENDTAB
  0
ENDSEC
  0
SECTION
  2
ENTITIES
0
LINE
8
BLACK
6
CONTINUOUS
10
1.0377952755905511
20
0.9694881889763779
11
1.0384912598425196
21
0.9691999212598424
0
LINE
8
BLACK
6
CONTINUOUS
10
1.0384912598425196
20
0.9691999212598424
11
1.038779527559055
21
0.968503937007874
0
LINE
8
BLACK
6
CONTINUOUS
10
1.038779527559055
20
0.968503937007874
11
1.038779527559055
21
0.5314960629921259
0
LINE
8
BLACK
6
CONTINUOUS
10
1.038779527559055
20
0.5314960629921259
11
1.0384912598425196
21
0.5308000787401574
0
LINE
8
BLACK
6
CONTINUOUS
10
1.0384912598425196
20
0.5308000787401574
11
1.0377952755905511
21
0.530511811023622
0
LINE
8
BLACK
6
CONTINUOUS
10
1.0377952755905511
20
0.530511811023622
11
0.7622047244094488
21
0.530511811023622
0
LINE
8
BLACK
6
CONTINUOUS
10
0.7622047244094488
20
0.530511811023622
11
0.7615087401574803
21
0.5308000787401574
0
LINE
8
BLACK
6
CONTINUOUS
10
0.7615087401574803
20
0.5308000787401574
11
0.7612204724409448
21
0.5314960629921259
0
LINE
8
BLACK
6
CONTINUOUS
10
0.7612204724409448
20
0.5314960629921259
11
0.7612204724409448
21
0.968503937007874
0
LINE
8
BLACK
6
CONTINUOUS
10
0.7612204724409448
20
0.968503937007874
11
0.7615087401574803
21
0.9691999212598424
0
LINE
8
BLACK
6
CONTINUOUS
10
0.7615087401574803
20
0.9691999212598424
11
0.7622047244094488
21
0.9694881889763779
0
LINE
8
BLACK
6
CONTINUOUS
10
0.7622047244094488
20
0.9694881889763779
11
1.0377952755905511
21
0.9694881889763779
0
LINE
8
BLACK
6
CONTINUOUS
10
0.7631889763779527
20
0.96751968503937
11
0.7631889763779527
21
0.5324803149606299
0
LINE
8
BLACK
6
CONTINUOUS
10
0.7631889763779527
20
0.5324803149606299
11
1.0368110236220471
21
0.5324803149606299
0
LINE
8
BLACK
6
CONTINUOUS
10
1.0368110236220471
20
0.5324803149606299
11
1.0368110236220471
21
0.96751968503937
0
LINE
8
BLACK
6
CONTINUOUS
10
1.0368110236220471
20
0.96751968503937
11
0.7631889763779527
21
0.96751968503937
0
LINE
8
BLACK
6
CONTINUOUS
10
1.2267716535433071
20
0.8545275590551181
11
1.2274676377952756
21
0.8542392913385827
0
LINE
8
BLACK
6
CONTINUOUS
10
1.2274676377952756
20
0.8542392913385827
11
1.227755905511811
21
0.8535433070866142
0
LINE
8
BLACK
6
CONTINUOUS
10
1.227755905511811
20
0.8535433070866142
11
1.227755905511811
21
0.5464566929133858
0
LINE
8
BLACK
6
CONTINUOUS
10
1.227755905511811
20
0.5464566929133858
11
1.2274676377952756
21
0.5457607086614173
0
LINE
8
BLACK
6
CONTINUOUS
10
1.2274676377952756
20
0.5457607086614173
11
1.2267716535433071
21
0.5454724409448819
0
LINE
8
BLACK
6
CONTINUOUS
10
1.2267716535433071
20
0.5454724409448819
11
1.073228346456693
21
0.5454724409448819
0
LINE
8
BLACK
6
CONTINUOUS
10
1.073228346456693
20
0.5454724409448819
11
1.0725323622047245
21
0.5457607086614173
0
LINE
8
BLACK
6
CONTINUOUS
10
1.0725323622047245
20
0.5457607086614173
11
1.072244094488189
21
0.5464566929133858
0
LINE
8
BLACK
6
CONTINUOUS
10
1.072244094488189
20
0.5464566929133858
11
1.072244094488189
21
0.8535433070866142
0
LINE
8
BLACK
6
CONTINUOUS
10
1.072244094488189
20
0.8535433070866142
11
1.0725323622047245
21
0.8542392913385827
0
LINE
8
BLACK
6
CONTINUOUS
10
1.0725323622047245
20
0.8542392913385827
11
1.073228346456693
21
0.8545275590551181
0
LINE
8
BLACK
6
CONTINUOUS
10
1.073228346456693
20
0.8545275590551181
11
1.2267716535433071
21
0.8545275590551181
0
LINE
8
BLACK
6
CONTINUOUS
10
1.0742125984251969
20
0.8525590551181103
11
1.0742125984251969
21
0.5474409448818898
0
LINE
8
BLACK
6
CONTINUOUS
10
1.0742125984251969
20
0.5474409448818898
11
1.2257874015748031
21
0.5474409448818898
0
LINE
8
BLACK
6
CONTINUOUS
10
1.2257874015748031
20
0.5474409448818898
11
1.2257874015748031
21
0.8525590551181103
0
LINE
8
BLACK
6
CONTINUOUS
10
1.2257874015748031
20
0.8525590551181103
11
1.0742125984251969
21
0.8525590551181103
0
LINE
8
BLACK
6
CONTINUOUS
10
0.7261811023622047
20
0.963779527559055
11
0.7268770866141732
21
0.9634912598425197
0
LINE
8
BLACK
6
CONTINUOUS
10
0.7268770866141732
20
0.9634912598425197
11
0.7271653543307086
21
0.9627952755905511
0
LINE
8
BLACK
6
CONTINUOUS
10
0.7271653543307086
20
0.9627952755905511
11
0.7271653543307086
21
0.6872047244094488
0
LINE
8
BLACK
6
CONTINUOUS
10
0.7271653543307086
20
0.6872047244094488
11
0.7268770866141732
21
0.6865087401574803
0
LINE
8
BLACK
6
CONTINUOUS
10
0.7268770866141732
20
0.6865087401574803
11
0.7261811023622047
21
0.6862204724409449
0
LINE
8
BLACK
6
CONTINUOUS
10
0.7261811023622047
20
0.6862204724409449
11
0.2891732283464567
21
0.6862204724409449
0
LINE
8
BLACK
6
CONTINUOUS
10
0.2891732283464567
20
0.6862204724409449
11
0.2884772440944882
21
0.6865087401574803
0
LINE
8
BLACK
6
CONTINUOUS
10
0.2884772440944882
20
0.6865087401574803
11
0.2881889763779528
21
0.6872047244094488
0
LINE
8
BLACK
6
CONTINUOUS
10
0.2881889763779528
20
0.6872047244094488
11
0.2881889763779528
21
0.9627952755905511
0
LINE
8
BLACK
6
CONTINUOUS
10
0.2881889763779528
20
0.9627952755905511
11
0.2884772440944882
21
0.9634912598425197
0
LINE
8
BLACK
6
CONTINUOUS
10
0.2884772440944882
20
0.9634912598425197
11
0.2891732283464567
21
0.963779527559055
0
LINE
8
BLACK
6
CONTINUOUS
10
0.2891732283464567
20
0.963779527559055
11
0.7261811023622047
21
0.963779527559055
0
LINE
8
BLACK
6
CONTINUOUS
10
0.2901574803149606
20
0.9618110236220472
11
0.2901574803149606
21
0.6881889763779527
0
LINE
8
BLACK
6
CONTINUOUS
10
0.2901574803149606
20
0.6881889763779527
11
0.7251968503937007
21
0.6881889763779527
0
LINE
8
BLACK
6
CONTINUOUS
10
0.7251968503937007
20
0.6881889763779527
11
0.7251968503937007
21
0.9618110236220472
0
LINE
8
BLACK
6
CONTINUOUS
10
0.7251968503937007
20
0.9618110236220472
11
0.2901574803149606
21
0.9618110236220472
0
LINE
8
BLACK
6
CONTINUOUS
10
0.985236220472441
20
1.4064960629921259
11
0.9859322047244095
21
1.4062077952755905
0
LINE
8
BLACK
6
CONTINUOUS
10
0.9859322047244095
20
1.4062077952755905
11
0.9862204724409449
21
1.405511811023622
0
LINE
8
BLACK
6
CONTINUOUS
10
0.9862204724409449
20
1.405511811023622
11
0.9862204724409449
21
1.094488188976378
0
LINE
8
BLACK
6
CONTINUOUS
10
0.9862204724409449
20
1.094488188976378
11
0.9859322047244095
21
1.0937922047244095
0
LINE
8
BLACK
6
CONTINUOUS
10
0.9859322047244095
20
1.0937922047244095
11
0.985236220472441
21
1.0935039370078741
0
LINE
8
BLACK
6
CONTINUOUS
10
0.985236220472441
20
1.0935039370078741
11
0.764763779527559
21
1.0935039370078741
0
LINE
8
BLACK
6
CONTINUOUS
10
0.764763779527559
20
1.0935039370078741
11
0.7640677952755905
21
1.0937922047244095
0
LINE
8
BLACK
6
CONTINUOUS
10
0.7640677952755905
20
1.0937922047244095
11
0.7637795275590551
21
1.094488188976378
0
LINE
8
BLACK
6
CONTINUOUS
10
0.7637795275590551
20
1.094488188976378
11
0.7637795275590551
21
1.405511811023622
0
LINE
8
BLACK
6
CONTINUOUS
10
0.7637795275590551
20
1.405511811023622
11
0.7640677952755905
21
1.4062077952755905
0
LINE
8
BLACK
6
CONTINUOUS
10
0.7640677952755905
20
1.4062077952755905
11
0.764763779527559
21
1.4064960629921259
0
LINE
8
BLACK
6
CONTINUOUS
10
0.764763779527559
20
1.4064960629921259
11
0.985236220472441
21
1.4064960629921259
0
LINE
8
BLACK
6
CONTINUOUS
10
0.765748031496063
20
1.4045275590551181
11
0.765748031496063
21
1.0954724409448819
0
LINE
8
BLACK
6
CONTINUOUS
10
0.765748031496063
20
1.0954724409448819
11
0.984251968503937
21
1.0954724409448819
0
LINE
8
BLACK
6
CONTINUOUS
10
0.984251968503937
20
1.0954724409448819
11
0.984251968503937
21
1.4045275590551181
0
LINE
8
BLACK
6
CONTINUOUS
10
0.984251968503937
20
1.4045275590551181
11
0.765748031496063
21
1.4045275590551181
  0
ENDSEC
  0
EOF
