  0
SECTION
  2
HEADER
  9
$ANGBASE
  50
0.0
  9
$ANGDIR
  70
1
  9
$MEASUREMENT
  70
0
  0
ENDSEC
  0
SECTION
  2
TABLES
  0
TABLE
  2
LTYPE
  70
4
  0
LTYPE
  5
40F
  2
CONTINUOUS
  70
0
  3
Solid line
  72
65
  73
0
  40
0.0
  0
LTYPE
  5
410
  2
DASHDOT
 70
0
  3
Dash Dot ____ _ ____ _
 72
65
 73
4
 40
2.0
 49
1.25
 49
-0.25
 49
0.25
 49
-0.25
  0
LTYPE
  5
411
  2
DASHED
 70
0
  3
Dashed __ __ __ __ __
 72
65
 73
2
 40
0.75
 49
0.5
 49
-0.25
  0
LTYPE
  5
43B
  2
DOTTED
 70
0
  3
Dotted .  .  .  .
 72
65
 73
2
 40
0.2
 49
0.0
 49
-0.2
  0
ENDTAB
  0
TABLE
  2
STYLE
  70
4
  0
STYLE
  2
KICAD
  70
0
  40
0
  41
1
  42
1
  50
0
  71
0
  3
isocp.shx
  0
STYLE
  2
KICADB
  70
0
  40
0
  41
1
  42
1
  50
0
  71
0
  3
isocp.shx
  0
STYLE
  2
KICADI
  70
0
  40
0
  41
1
  42
1
  50
15
  71
0
  3
isocp.shx
  0
STYLE
  2
KICADBI
  70
0
  40
0
  41
1
  42
1
  50
15
  71
0
  3
isocp.shx
  0
ENDTAB
  0
TABLE
  2
LAYER
  70
1
  0
LAYER
  2
BLACK
  70
0
  62
7
  6
CONTINUOUS
  0
ENDTAB
  0
ENDSEC
  0
SECTION
  2
ENTITIES
0
LINE
8
BLACK
6
CONTINUOUS
10
0.2141057480314961
20
0.3251920866141732
11
0.2280341338582677
21
0.3228255511811023
0
LINE
8
BLACK
6
CONTINUOUS
10
0.2280341338582677
20
0.3228255511811023
11
0.2416099606299213
21
0.3189144488188976
0
LINE
8
BLACK
6
CONTINUOUS
10
0.2416099606299213
20
0.3189144488188976
11
0.2546625196850394
21
0.313507874015748
0
LINE
8
BLACK
6
CONTINUOUS
10
0.2546625196850394
20
0.313507874015748
11
0.2670276771653543
21
0.3066738976377953
0
LINE
8
BLACK
6
CONTINUOUS
10
0.2670276771653543
20
0.3066738976377953
11
0.2785498818897638
21
0.2984984645669291
0
LINE
8
BLACK
6
CONTINUOUS
10
0.2785498818897638
20
0.2984984645669291
11
0.2890843307086614
21
0.2890843307086614
0
LINE
8
BLACK
6
CONTINUOUS
10
0.2890843307086614
20
0.2890843307086614
11
0.2984984645669291
21
0.2785498818897638
0
LINE
8
BLACK
6
CONTINUOUS
10
0.2984984645669291
20
0.2785498818897638
11
0.3066738976377953
21
0.2670276771653543
0
LINE
8
BLACK
6
CONTINUOUS
10
0.3066738976377953
20
0.2670276771653543
11
0.313507874015748
21
0.2546625196850394
0
LINE
8
BLACK
6
CONTINUOUS
10
0.313507874015748
20
0.2546625196850394
11
0.3189144488188976
21
0.2416099606299213
0
LINE
8
BLACK
6
CONTINUOUS
10
0.3189144488188976
20
0.2416099606299213
11
0.3228255511811023
21
0.2280341338582677
0
LINE
8
BLACK
6
CONTINUOUS
10
0.3228255511811023
20
0.2280341338582677
11
0.3251920866141732
21
0.2141057480314961
0
LINE
8
BLACK
6
CONTINUOUS
10
0.3251920866141732
20
0.2141057480314961
11
0.3259842519685039
21
0.2
0
LINE
8
BLACK
6
CONTINUOUS
10
0.3259842519685039
20
0.2
11
0.3251920866141732
21
0.1858942519685039
0
LINE
8
BLACK
6
CONTINUOUS
10
0.3251920866141732
20
0.1858942519685039
11
0.3228255511811023
21
0.1719658661417323
0
LINE
8
BLACK
6
CONTINUOUS
10
0.3228255511811023
20
0.1719658661417323
11
0.3189144488188976
21
0.1583900393700787
0
LINE
8
BLACK
6
CONTINUOUS
10
0.3189144488188976
20
0.1583900393700787
11
0.313507874015748
21
0.1453374803149606
0
LINE
8
BLACK
6
CONTINUOUS
10
0.313507874015748
20
0.1453374803149606
11
0.3066738976377953
21
0.1329723228346457
0
LINE
8
BLACK
6
CONTINUOUS
10
0.3066738976377953
20
0.1329723228346457
11
0.2984984645669291
21
0.1214501181102362
0
LINE
8
BLACK
6
CONTINUOUS
10
0.2984984645669291
20
0.1214501181102362
11
0.2890843307086614
21
0.1109156692913386
0
LINE
8
BLACK
6
CONTINUOUS
10
0.2890843307086614
20
0.1109156692913386
11
0.2785498818897638
21
0.1015015354330709
0
LINE
8
BLACK
6
CONTINUOUS
10
0.2785498818897638
20
0.1015015354330709
11
0.2670276771653543
21
0.0933261023622047
0
LINE
8
BLACK
6
CONTINUOUS
10
0.2670276771653543
20
0.0933261023622047
11
0.2546625196850394
21
0.086492125984252
0
LINE
8
BLACK
6
CONTINUOUS
10
0.2546625196850394
20
0.086492125984252
11
0.2416099606299213
21
0.0810855511811024
0
LINE
8
BLACK
6
CONTINUOUS
10
0.2416099606299213
20
0.0810855511811024
11
0.2280341338582677
21
0.0771744488188976
0
LINE
8
BLACK
6
CONTINUOUS
10
0.2280341338582677
20
0.0771744488188976
11
0.2141057480314961
21
0.0748079133858268
0
LINE
8
BLACK
6
CONTINUOUS
10
0.2141057480314961
20
0.0748079133858268
11
0.2
21
0.0740157480314961
0
LINE
8
BLACK
6
CONTINUOUS
10
0.2
20
0.0740157480314961
11
0.1858942519685039
21
0.0748079133858268
0
LINE
8
BLACK
6
CONTINUOUS
10
0.1858942519685039
20
0.0748079133858268
11
0.1719658661417323
21
0.0771744488188976
0
LINE
8
BLACK
6
CONTINUOUS
10
0.1719658661417323
20
0.0771744488188976
11
0.1583900393700787
21
0.0810855511811024
0
LINE
8
BLACK
6
CONTINUOUS
10
0.1583900393700787
20
0.0810855511811024
11
0.1453374803149606
21
0.086492125984252
0
LINE
8
BLACK
6
CONTINUOUS
10
0.1453374803149606
20
0.086492125984252
11
0.1329723228346457
21
0.0933261023622047
0
LINE
8
BLACK
6
CONTINUOUS
10
0.1329723228346457
20
0.0933261023622047
11
0.1214501181102362
21
0.1015015354330709
0
LINE
8
BLACK
6
CONTINUOUS
10
0.1214501181102362
20
0.1015015354330709
11
0.1109156692913386
21
0.1109156692913386
0
LINE
8
BLACK
6
CONTINUOUS
10
0.1109156692913386
20
0.1109156692913386
11
0.1015015354330709
21
0.1214501181102362
0
LINE
8
BLACK
6
CONTINUOUS
10
0.1015015354330709
20
0.1214501181102362
11
0.0933261023622047
21
0.1329723228346457
0
LINE
8
BLACK
6
CONTINUOUS
10
0.0933261023622047
20
0.1329723228346457
11
0.086492125984252
21
0.1453374803149606
0
LINE
8
BLACK
6
CONTINUOUS
10
0.086492125984252
20
0.1453374803149606
11
0.0810855511811024
21
0.1583900393700787
0
LINE
8
BLACK
6
CONTINUOUS
10
0.0810855511811024
20
0.1583900393700787
11
0.0771744488188976
21
0.1719658661417323
0
LINE
8
BLACK
6
CONTINUOUS
10
0.0771744488188976
20
0.1719658661417323
11
0.0748079133858268
21
0.1858942519685039
0
LINE
8
BLACK
6
CONTINUOUS
10
0.0748079133858268
20
0.1858942519685039
11
0.0740157480314961
21
0.2
0
LINE
8
BLACK
6
CONTINUOUS
10
0.0740157480314961
20
0.2
11
0.0748079133858268
21
0.2141057480314961
0
LINE
8
BLACK
6
CONTINUOUS
10
0.0748079133858268
20
0.2141057480314961
11
0.0771744488188976
21
0.2280341338582677
0
LINE
8
BLACK
6
CONTINUOUS
10
0.0771744488188976
20
0.2280341338582677
11
0.0810855511811024
21
0.2416099606299213
0
LINE
8
BLACK
6
CONTINUOUS
10
0.0810855511811024
20
0.2416099606299213
11
0.086492125984252
21
0.2546625196850394
0
LINE
8
BLACK
6
CONTINUOUS
10
0.086492125984252
20
0.2546625196850394
11
0.0933261023622047
21
0.2670276771653543
0
LINE
8
BLACK
6
CONTINUOUS
10
0.0933261023622047
20
0.2670276771653543
11
0.1015015354330709
21
0.2785498818897638
0
LINE
8
BLACK
6
CONTINUOUS
10
0.1015015354330709
20
0.2785498818897638
11
0.1109156692913386
21
0.2890843307086614
0
LINE
8
BLACK
6
CONTINUOUS
10
0.1109156692913386
20
0.2890843307086614
11
0.1214501181102362
21
0.2984984645669291
0
LINE
8
BLACK
6
CONTINUOUS
10
0.1214501181102362
20
0.2984984645669291
11
0.1329723228346457
21
0.3066738976377953
0
LINE
8
BLACK
6
CONTINUOUS
10
0.1329723228346457
20
0.3066738976377953
11
0.1453374803149606
21
0.313507874015748
0
LINE
8
BLACK
6
CONTINUOUS
10
0.1453374803149606
20
0.313507874015748
11
0.1583900393700787
21
0.3189144488188976
0
LINE
8
BLACK
6
CONTINUOUS
10
0.1583900393700787
20
0.3189144488188976
11
0.1719658661417323
21
0.3228255511811023
0
LINE
8
BLACK
6
CONTINUOUS
10
0.1719658661417323
20
0.3228255511811023
11
0.1858942519685039
21
0.3251920866141732
0
LINE
8
BLACK
6
CONTINUOUS
10
0.1858942519685039
20
0.3251920866141732
11
0.2
21
0.3259842519685039
0
LINE
8
BLACK
6
CONTINUOUS
10
0.2
20
0.3259842519685039
11
0.2141057480314961
21
0.3251920866141732
0
LINE
8
BLACK
6
CONTINUOUS
10
1.414105748031496
20
0.3251920866141732
11
1.4280341338582676
21
0.3228255511811023
0
LINE
8
BLACK
6
CONTINUOUS
10
1.4280341338582676
20
0.3228255511811023
11
1.4416099606299213
21
0.3189144488188976
0
LINE
8
BLACK
6
CONTINUOUS
10
1.4416099606299213
20
0.3189144488188976
11
1.4546625196850393
21
0.313507874015748
0
LINE
8
BLACK
6
CONTINUOUS
10
1.4546625196850393
20
0.313507874015748
11
1.4670276771653543
21
0.3066738976377953
0
LINE
8
BLACK
6
CONTINUOUS
10
1.4670276771653543
20
0.3066738976377953
11
1.4785498818897638
21
0.2984984645669291
0
LINE
8
BLACK
6
CONTINUOUS
10
1.4785498818897638
20
0.2984984645669291
11
1.4890843307086614
21
0.2890843307086614
0
LINE
8
BLACK
6
CONTINUOUS
10
1.4890843307086614
20
0.2890843307086614
11
1.498498464566929
21
0.2785498818897638
0
LINE
8
BLACK
6
CONTINUOUS
10
1.498498464566929
20
0.2785498818897638
11
1.5066738976377951
21
0.2670276771653543
0
LINE
8
BLACK
6
CONTINUOUS
10
1.5066738976377951
20
0.2670276771653543
11
1.5135078740157479
21
0.2546625196850394
0
LINE
8
BLACK
6
CONTINUOUS
10
1.5135078740157479
20
0.2546625196850394
11
1.5189144488188977
21
0.2416099606299213
0
LINE
8
BLACK
6
CONTINUOUS
10
1.5189144488188977
20
0.2416099606299213
11
1.5228255511811024
21
0.2280341338582677
0
LINE
8
BLACK
6
CONTINUOUS
10
1.5228255511811024
20
0.2280341338582677
11
1.5251920866141733
21
0.2141057480314961
0
LINE
8
BLACK
6
CONTINUOUS
10
1.5251920866141733
20
0.2141057480314961
11
1.5259842519685038
21
0.2
0
LINE
8
BLACK
6
CONTINUOUS
10
1.5259842519685038
20
0.2
11
1.5251920866141733
21
0.1858942519685039
0
LINE
8
BLACK
6
CONTINUOUS
10
1.5251920866141733
20
0.1858942519685039
11
1.5228255511811024
21
0.1719658661417323
0
LINE
8
BLACK
6
CONTINUOUS
10
1.5228255511811024
20
0.1719658661417323
11
1.5189144488188977
21
0.1583900393700787
0
LINE
8
BLACK
6
CONTINUOUS
10
1.5189144488188977
20
0.1583900393700787
11
1.5135078740157479
21
0.1453374803149606
0
LINE
8
BLACK
6
CONTINUOUS
10
1.5135078740157479
20
0.1453374803149606
11
1.5066738976377951
21
0.1329723228346457
0
LINE
8
BLACK
6
CONTINUOUS
10
1.5066738976377951
20
0.1329723228346457
11
1.498498464566929
21
0.1214501181102362
0
LINE
8
BLACK
6
CONTINUOUS
10
1.498498464566929
20
0.1214501181102362
11
1.4890843307086614
21
0.1109156692913386
0
LINE
8
BLACK
6
CONTINUOUS
10
1.4890843307086614
20
0.1109156692913386
11
1.4785498818897638
21
0.1015015354330709
0
LINE
8
BLACK
6
CONTINUOUS
10
1.4785498818897638
20
0.1015015354330709
11
1.4670276771653543
21
0.0933261023622047
0
LINE
8
BLACK
6
CONTINUOUS
10
1.4670276771653543
20
0.0933261023622047
11
1.4546625196850393
21
0.086492125984252
0
LINE
8
BLACK
6
CONTINUOUS
10
1.4546625196850393
20
0.086492125984252
11
1.4416099606299213
21
0.0810855511811024
0
LINE
8
BLACK
6
CONTINUOUS
10
1.4416099606299213
20
0.0810855511811024
11
1.4280341338582676
21
0.0771744488188976
0
LINE
8
BLACK
6
CONTINUOUS
10
1.4280341338582676
20
0.0771744488188976
11
1.414105748031496
21
0.0748079133858268
0
LINE
8
BLACK
6
CONTINUOUS
10
1.414105748031496
20
0.0748079133858268
11
1.3999999999999999
21
0.0740157480314961
0
LINE
8
BLACK
6
CONTINUOUS
10
1.3999999999999999
20
0.0740157480314961
11
1.3858942519685038
21
0.0748079133858268
0
LINE
8
BLACK
6
CONTINUOUS
10
1.3858942519685038
20
0.0748079133858268
11
1.3719658661417322
21
0.0771744488188976
0
LINE
8
BLACK
6
CONTINUOUS
10
1.3719658661417322
20
0.0771744488188976
11
1.3583900393700787
21
0.0810855511811024
0
LINE
8
BLACK
6
CONTINUOUS
10
1.3583900393700787
20
0.0810855511811024
11
1.3453374803149607
21
0.086492125984252
0
LINE
8
BLACK
6
CONTINUOUS
10
1.3453374803149607
20
0.086492125984252
11
1.3329723228346457
21
0.0933261023622047
0
LINE
8
BLACK
6
CONTINUOUS
10
1.3329723228346457
20
0.0933261023622047
11
1.3214501181102363
21
0.1015015354330709
0
LINE
8
BLACK
6
CONTINUOUS
10
1.3214501181102363
20
0.1015015354330709
11
1.3109156692913386
21
0.1109156692913386
0
LINE
8
BLACK
6
CONTINUOUS
10
1.3109156692913386
20
0.1109156692913386
11
1.3015015354330708
21
0.1214501181102362
0
LINE
8
BLACK
6
CONTINUOUS
10
1.3015015354330708
20
0.1214501181102362
11
1.2933261023622047
21
0.1329723228346457
0
LINE
8
BLACK
6
CONTINUOUS
10
1.2933261023622047
20
0.1329723228346457
11
1.2864921259842519
21
0.1453374803149606
0
LINE
8
BLACK
6
CONTINUOUS
10
1.2864921259842519
20
0.1453374803149606
11
1.2810855511811023
21
0.1583900393700787
0
LINE
8
BLACK
6
CONTINUOUS
10
1.2810855511811023
20
0.1583900393700787
11
1.2771744488188976
21
0.1719658661417323
0
LINE
8
BLACK
6
CONTINUOUS
10
1.2771744488188976
20
0.1719658661417323
11
1.2748079133858268
21
0.1858942519685039
0
LINE
8
BLACK
6
CONTINUOUS
10
1.2748079133858268
20
0.1858942519685039
11
1.274015748031496
21
0.2
0
LINE
8
BLACK
6
CONTINUOUS
10
1.274015748031496
20
0.2
11
1.2748079133858268
21
0.2141057480314961
0
LINE
8
BLACK
6
CONTINUOUS
10
1.2748079133858268
20
0.2141057480314961
11
1.2771744488188976
21
0.2280341338582677
0
LINE
8
BLACK
6
CONTINUOUS
10
1.2771744488188976
20
0.2280341338582677
11
1.2810855511811023
21
0.2416099606299213
0
LINE
8
BLACK
6
CONTINUOUS
10
1.2810855511811023
20
0.2416099606299213
11
1.2864921259842519
21
0.2546625196850394
0
LINE
8
BLACK
6
CONTINUOUS
10
1.2864921259842519
20
0.2546625196850394
11
1.2933261023622047
21
0.2670276771653543
0
LINE
8
BLACK
6
CONTINUOUS
10
1.2933261023622047
20
0.2670276771653543
11
1.3015015354330708
21
0.2785498818897638
0
LINE
8
BLACK
6
CONTINUOUS
10
1.3015015354330708
20
0.2785498818897638
11
1.3109156692913386
21
0.2890843307086614
0
LINE
8
BLACK
6
CONTINUOUS
10
1.3109156692913386
20
0.2890843307086614
11
1.3214501181102363
21
0.2984984645669291
0
LINE
8
BLACK
6
CONTINUOUS
10
1.3214501181102363
20
0.2984984645669291
11
1.3329723228346457
21
0.3066738976377953
0
LINE
8
BLACK
6
CONTINUOUS
10
1.3329723228346457
20
0.3066738976377953
11
1.3453374803149607
21
0.313507874015748
0
LINE
8
BLACK
6
CONTINUOUS
10
1.3453374803149607
20
0.313507874015748
11
1.3583900393700787
21
0.3189144488188976
0
LINE
8
BLACK
6
CONTINUOUS
10
1.3583900393700787
20
0.3189144488188976
11
1.3719658661417322
21
0.3228255511811023
0
LINE
8
BLACK
6
CONTINUOUS
10
1.3719658661417322
20
0.3228255511811023
11
1.3858942519685038
21
0.3251920866141732
0
LINE
8
BLACK
6
CONTINUOUS
10
1.3858942519685038
20
0.3251920866141732
11
1.3999999999999999
21
0.3259842519685039
0
LINE
8
BLACK
6
CONTINUOUS
10
1.3999999999999999
20
0.3259842519685039
11
1.414105748031496
21
0.3251920866141732
0
LINE
8
BLACK
6
CONTINUOUS
10
0.5780132677165354
20
0.2854242519685039
11
0.5805677559055118
21
0.2837173622047244
0
LINE
8
BLACK
6
CONTINUOUS
10
0.5805677559055118
20
0.2837173622047244
11
0.5822746456692913
21
0.281162874015748
0
LINE
8
BLACK
6
CONTINUOUS
10
0.5822746456692913
20
0.281162874015748
11
0.5828740157480314
21
0.2781496062992126
0
LINE
8
BLACK
6
CONTINUOUS
10
0.5828740157480314
20
0.2781496062992126
11
0.5828740157480314
21
0.1281496062992126
0
LINE
8
BLACK
6
CONTINUOUS
10
0.5828740157480314
20
0.1281496062992126
11
0.5822746456692913
21
0.1251363385826772
0
LINE
8
BLACK
6
CONTINUOUS
10
0.5822746456692913
20
0.1251363385826772
11
0.5805677559055118
21
0.1225818503937008
0
LINE
8
BLACK
6
CONTINUOUS
10
0.5805677559055118
20
0.1225818503937008
11
0.5780132677165354
21
0.1208749606299213
0
LINE
8
BLACK
6
CONTINUOUS
10
0.5780132677165354
20
0.1208749606299213
11
0.575
21
0.1202755905511811
0
LINE
8
BLACK
6
CONTINUOUS
10
0.575
20
0.1202755905511811
11
0.425
21
0.1202755905511811
0
LINE
8
BLACK
6
CONTINUOUS
10
0.425
20
0.1202755905511811
11
0.4219867322834646
21
0.1208749606299213
0
LINE
8
BLACK
6
CONTINUOUS
10
0.4219867322834646
20
0.1208749606299213
11
0.4194322440944882
21
0.1225818503937008
0
LINE
8
BLACK
6
CONTINUOUS
10
0.4194322440944882
20
0.1225818503937008
11
0.4177253543307087
21
0.1251363385826772
0
LINE
8
BLACK
6
CONTINUOUS
10
0.4177253543307087
20
0.1251363385826772
11
0.4171259842519685
21
0.1281496062992126
0
LINE
8
BLACK
6
CONTINUOUS
10
0.4171259842519685
20
0.1281496062992126
11
0.4171259842519685
21
0.2781496062992126
0
LINE
8
BLACK
6
CONTINUOUS
10
0.4171259842519685
20
0.2781496062992126
11
0.4177253543307087
21
0.281162874015748
0
LINE
8
BLACK
6
CONTINUOUS
10
0.4177253543307087
20
0.281162874015748
11
0.4194322440944882
21
0.2837173622047244
0
LINE
8
BLACK
6
CONTINUOUS
10
0.4194322440944882
20
0.2837173622047244
11
0.4219867322834646
21
0.2854242519685039
0
LINE
8
BLACK
6
CONTINUOUS
10
0.4219867322834646
20
0.2854242519685039
11
0.425
21
0.2860236220472441
0
LINE
8
BLACK
6
CONTINUOUS
10
0.425
20
0.2860236220472441
11
0.575
21
0.2860236220472441
0
LINE
8
BLACK
6
CONTINUOUS
10
0.575
20
0.2860236220472441
11
0.5780132677165354
21
0.2854242519685039
0
LINE
8
BLACK
6
CONTINUOUS
10
0.7780132677165355
20
0.2854242519685039
11
0.7805677559055118
21
0.2837173622047244
0
LINE
8
BLACK
6
CONTINUOUS
10
0.7805677559055118
20
0.2837173622047244
11
0.7822746456692913
21
0.281162874015748
0
LINE
8
BLACK
6
CONTINUOUS
10
0.7822746456692913
20
0.281162874015748
11
0.7828740157480315
21
0.2781496062992126
0
LINE
8
BLACK
6
CONTINUOUS
10
0.7828740157480315
20
0.2781496062992126
11
0.7828740157480315
21
0.1281496062992126
0
LINE
8
BLACK
6
CONTINUOUS
10
0.7828740157480315
20
0.1281496062992126
11
0.7822746456692913
21
0.1251363385826772
0
LINE
8
BLACK
6
CONTINUOUS
10
0.7822746456692913
20
0.1251363385826772
11
0.7805677559055118
21
0.1225818503937008
0
LINE
8
BLACK
6
CONTINUOUS
10
0.7805677559055118
20
0.1225818503937008
11
0.7780132677165355
21
0.1208749606299213
0
LINE
8
BLACK
6
CONTINUOUS
10
0.7780132677165355
20
0.1208749606299213
11
0.775
21
0.1202755905511811
0
LINE
8
BLACK
6
CONTINUOUS
10
0.775
20
0.1202755905511811
11
0.625
21
0.1202755905511811
0
LINE
8
BLACK
6
CONTINUOUS
10
0.625
20
0.1202755905511811
11
0.6219867322834646
21
0.1208749606299213
0
LINE
8
BLACK
6
CONTINUOUS
10
0.6219867322834646
20
0.1208749606299213
11
0.6194322440944882
21
0.1225818503937008
0
LINE
8
BLACK
6
CONTINUOUS
10
0.6194322440944882
20
0.1225818503937008
11
0.6177253543307086
21
0.1251363385826772
0
LINE
8
BLACK
6
CONTINUOUS
10
0.6177253543307086
20
0.1251363385826772
11
0.6171259842519685
21
0.1281496062992126
0
LINE
8
BLACK
6
CONTINUOUS
10
0.6171259842519685
20
0.1281496062992126
11
0.6171259842519685
21
0.2781496062992126
0
LINE
8
BLACK
6
CONTINUOUS
10
0.6171259842519685
20
0.2781496062992126
11
0.6177253543307086
21
0.281162874015748
0
LINE
8
BLACK
6
CONTINUOUS
10
0.6177253543307086
20
0.281162874015748
11
0.6194322440944882
21
0.2837173622047244
0
LINE
8
BLACK
6
CONTINUOUS
10
0.6194322440944882
20
0.2837173622047244
11
0.6219867322834646
21
0.2854242519685039
0
LINE
8
BLACK
6
CONTINUOUS
10
0.6219867322834646
20
0.2854242519685039
11
0.625
21
0.2860236220472441
0
LINE
8
BLACK
6
CONTINUOUS
10
0.625
20
0.2860236220472441
11
0.775
21
0.2860236220472441
0
LINE
8
BLACK
6
CONTINUOUS
10
0.775
20
0.2860236220472441
11
0.7780132677165355
21
0.2854242519685039
0
LINE
8
BLACK
6
CONTINUOUS
10
0.9780132677165354
20
0.2854242519685039
11
0.9805677559055118
21
0.2837173622047244
0
LINE
8
BLACK
6
CONTINUOUS
10
0.9805677559055118
20
0.2837173622047244
11
0.9822746456692913
21
0.281162874015748
0
LINE
8
BLACK
6
CONTINUOUS
10
0.9822746456692913
20
0.281162874015748
11
0.9828740157480315
21
0.2781496062992126
0
LINE
8
BLACK
6
CONTINUOUS
10
0.9828740157480315
20
0.2781496062992126
11
0.9828740157480315
21
0.1281496062992126
0
LINE
8
BLACK
6
CONTINUOUS
10
0.9828740157480315
20
0.1281496062992126
11
0.9822746456692913
21
0.1251363385826772
0
LINE
8
BLACK
6
CONTINUOUS
10
0.9822746456692913
20
0.1251363385826772
11
0.9805677559055118
21
0.1225818503937008
0
LINE
8
BLACK
6
CONTINUOUS
10
0.9805677559055118
20
0.1225818503937008
11
0.9780132677165354
21
0.1208749606299213
0
LINE
8
BLACK
6
CONTINUOUS
10
0.9780132677165354
20
0.1208749606299213
11
0.975
21
0.1202755905511811
0
LINE
8
BLACK
6
CONTINUOUS
10
0.975
20
0.1202755905511811
11
0.825
21
0.1202755905511811
0
LINE
8
BLACK
6
CONTINUOUS
10
0.825
20
0.1202755905511811
11
0.8219867322834645
21
0.1208749606299213
0
LINE
8
BLACK
6
CONTINUOUS
10
0.8219867322834645
20
0.1208749606299213
11
0.8194322440944881
21
0.1225818503937008
0
LINE
8
BLACK
6
CONTINUOUS
10
0.8194322440944881
20
0.1225818503937008
11
0.8177253543307087
21
0.1251363385826772
0
LINE
8
BLACK
6
CONTINUOUS
10
0.8177253543307087
20
0.1251363385826772
11
0.8171259842519685
21
0.1281496062992126
0
LINE
8
BLACK
6
CONTINUOUS
10
0.8171259842519685
20
0.1281496062992126
11
0.8171259842519685
21
0.2781496062992126
0
LINE
8
BLACK
6
CONTINUOUS
10
0.8171259842519685
20
0.2781496062992126
11
0.8177253543307087
21
0.281162874015748
0
LINE
8
BLACK
6
CONTINUOUS
10
0.8177253543307087
20
0.281162874015748
11
0.8194322440944881
21
0.2837173622047244
0
LINE
8
BLACK
6
CONTINUOUS
10
0.8194322440944881
20
0.2837173622047244
11
0.8219867322834645
21
0.2854242519685039
0
LINE
8
BLACK
6
CONTINUOUS
10
0.8219867322834645
20
0.2854242519685039
11
0.825
21
0.2860236220472441
0
LINE
8
BLACK
6
CONTINUOUS
10
0.825
20
0.2860236220472441
11
0.975
21
0.2860236220472441
0
LINE
8
BLACK
6
CONTINUOUS
10
0.975
20
0.2860236220472441
11
0.9780132677165354
21
0.2854242519685039
0
LINE
8
BLACK
6
CONTINUOUS
10
1.1780132677165354
20
0.2854242519685039
11
1.1805677559055119
21
0.2837173622047244
0
LINE
8
BLACK
6
CONTINUOUS
10
1.1805677559055119
20
0.2837173622047244
11
1.1822746456692914
21
0.281162874015748
0
LINE
8
BLACK
6
CONTINUOUS
10
1.1822746456692914
20
0.281162874015748
11
1.1828740157480315
21
0.2781496062992126
0
LINE
8
BLACK
6
CONTINUOUS
10
1.1828740157480315
20
0.2781496062992126
11
1.1828740157480315
21
0.1281496062992126
0
LINE
8
BLACK
6
CONTINUOUS
10
1.1828740157480315
20
0.1281496062992126
11
1.1822746456692914
21
0.1251363385826772
0
LINE
8
BLACK
6
CONTINUOUS
10
1.1822746456692914
20
0.1251363385826772
11
1.1805677559055119
21
0.1225818503937008
0
LINE
8
BLACK
6
CONTINUOUS
10
1.1805677559055119
20
0.1225818503937008
11
1.1780132677165354
21
0.1208749606299213
0
LINE
8
BLACK
6
CONTINUOUS
10
1.1780132677165354
20
0.1208749606299213
11
1.175
21
0.1202755905511811
0
LINE
8
BLACK
6
CONTINUOUS
10
1.175
20
0.1202755905511811
11
1.0249999999999999
21
0.1202755905511811
0
LINE
8
BLACK
6
CONTINUOUS
10
1.0249999999999999
20
0.1202755905511811
11
1.0219867322834646
21
0.1208749606299213
0
LINE
8
BLACK
6
CONTINUOUS
10
1.0219867322834646
20
0.1208749606299213
11
1.0194322440944881
21
0.1225818503937008
0
LINE
8
BLACK
6
CONTINUOUS
10
1.0194322440944881
20
0.1225818503937008
11
1.0177253543307085
21
0.1251363385826772
0
LINE
8
BLACK
6
CONTINUOUS
10
1.0177253543307085
20
0.1251363385826772
11
1.0171259842519684
21
0.1281496062992126
0
LINE
8
BLACK
6
CONTINUOUS
10
1.0171259842519684
20
0.1281496062992126
11
1.0171259842519684
21
0.2781496062992126
0
LINE
8
BLACK
6
CONTINUOUS
10
1.0171259842519684
20
0.2781496062992126
11
1.0177253543307085
21
0.281162874015748
0
LINE
8
BLACK
6
CONTINUOUS
10
1.0177253543307085
20
0.281162874015748
11
1.0194322440944881
21
0.2837173622047244
0
LINE
8
BLACK
6
CONTINUOUS
10
1.0194322440944881
20
0.2837173622047244
11
1.0219867322834646
21
0.2854242519685039
0
LINE
8
BLACK
6
CONTINUOUS
10
1.0219867322834646
20
0.2854242519685039
11
1.0249999999999999
21
0.2860236220472441
0
LINE
8
BLACK
6
CONTINUOUS
10
1.0249999999999999
20
0.2860236220472441
11
1.175
21
0.2860236220472441
0
LINE
8
BLACK
6
CONTINUOUS
10
1.175
20
0.2860236220472441
11
1.1780132677165354
21
0.2854242519685039
0
LINE
8
BLACK
6
CONTINUOUS
10
0.5780132677165354
20
0.4822746456692913
11
0.5805677559055118
21
0.4805677559055118
0
LINE
8
BLACK
6
CONTINUOUS
10
0.5805677559055118
20
0.4805677559055118
11
0.5822746456692913
21
0.4780132677165354
0
LINE
8
BLACK
6
CONTINUOUS
10
0.5822746456692913
20
0.4780132677165354
11
0.5828740157480314
21
0.475
0
LINE
8
BLACK
6
CONTINUOUS
10
0.5828740157480314
20
0.475
11
0.5828740157480314
21
0.325
0
LINE
8
BLACK
6
CONTINUOUS
10
0.5828740157480314
20
0.325
11
0.5822746456692913
21
0.3219867322834646
0
LINE
8
BLACK
6
CONTINUOUS
10
0.5822746456692913
20
0.3219867322834646
11
0.5805677559055118
21
0.3194322440944882
0
LINE
8
BLACK
6
CONTINUOUS
10
0.5805677559055118
20
0.3194322440944882
11
0.5780132677165354
21
0.3177253543307086
0
LINE
8
BLACK
6
CONTINUOUS
10
0.5780132677165354
20
0.3177253543307086
11
0.575
21
0.3171259842519685
0
LINE
8
BLACK
6
CONTINUOUS
10
0.575
20
0.3171259842519685
11
0.425
21
0.3171259842519685
0
LINE
8
BLACK
6
CONTINUOUS
10
0.425
20
0.3171259842519685
11
0.4219867322834646
21
0.3177253543307086
0
LINE
8
BLACK
6
CONTINUOUS
10
0.4219867322834646
20
0.3177253543307086
11
0.4194322440944882
21
0.3194322440944882
0
LINE
8
BLACK
6
CONTINUOUS
10
0.4194322440944882
20
0.3194322440944882
11
0.4177253543307087
21
0.3219867322834646
0
LINE
8
BLACK
6
CONTINUOUS
10
0.4177253543307087
20
0.3219867322834646
11
0.4171259842519685
21
0.325
0
LINE
8
BLACK
6
CONTINUOUS
10
0.4171259842519685
20
0.325
11
0.4171259842519685
21
0.475
0
LINE
8
BLACK
6
CONTINUOUS
10
0.4171259842519685
20
0.475
11
0.4177253543307087
21
0.4780132677165354
0
LINE
8
BLACK
6
CONTINUOUS
10
0.4177253543307087
20
0.4780132677165354
11
0.4194322440944882
21
0.4805677559055118
0
LINE
8
BLACK
6
CONTINUOUS
10
0.4194322440944882
20
0.4805677559055118
11
0.4219867322834646
21
0.4822746456692913
0
LINE
8
BLACK
6
CONTINUOUS
10
0.4219867322834646
20
0.4822746456692913
11
0.425
21
0.4828740157480315
0
LINE
8
BLACK
6
CONTINUOUS
10
0.425
20
0.4828740157480315
11
0.575
21
0.4828740157480315
0
LINE
8
BLACK
6
CONTINUOUS
10
0.575
20
0.4828740157480315
11
0.5780132677165354
21
0.4822746456692913
0
LINE
8
BLACK
6
CONTINUOUS
10
0.7780132677165355
20
0.4822746456692913
11
0.7805677559055118
21
0.4805677559055118
0
LINE
8
BLACK
6
CONTINUOUS
10
0.7805677559055118
20
0.4805677559055118
11
0.7822746456692913
21
0.4780132677165354
0
LINE
8
BLACK
6
CONTINUOUS
10
0.7822746456692913
20
0.4780132677165354
11
0.7828740157480315
21
0.475
0
LINE
8
BLACK
6
CONTINUOUS
10
0.7828740157480315
20
0.475
11
0.7828740157480315
21
0.325
0
LINE
8
BLACK
6
CONTINUOUS
10
0.7828740157480315
20
0.325
11
0.7822746456692913
21
0.3219867322834646
0
LINE
8
BLACK
6
CONTINUOUS
10
0.7822746456692913
20
0.3219867322834646
11
0.7805677559055118
21
0.3194322440944882
0
LINE
8
BLACK
6
CONTINUOUS
10
0.7805677559055118
20
0.3194322440944882
11
0.7780132677165355
21
0.3177253543307086
0
LINE
8
BLACK
6
CONTINUOUS
10
0.7780132677165355
20
0.3177253543307086
11
0.775
21
0.3171259842519685
0
LINE
8
BLACK
6
CONTINUOUS
10
0.775
20
0.3171259842519685
11
0.625
21
0.3171259842519685
0
LINE
8
BLACK
6
CONTINUOUS
10
0.625
20
0.3171259842519685
11
0.6219867322834646
21
0.3177253543307086
0
LINE
8
BLACK
6
CONTINUOUS
10
0.6219867322834646
20
0.3177253543307086
11
0.6194322440944882
21
0.3194322440944882
0
LINE
8
BLACK
6
CONTINUOUS
10
0.6194322440944882
20
0.3194322440944882
11
0.6177253543307086
21
0.3219867322834646
0
LINE
8
BLACK
6
CONTINUOUS
10
0.6177253543307086
20
0.3219867322834646
11
0.6171259842519685
21
0.325
0
LINE
8
BLACK
6
CONTINUOUS
10
0.6171259842519685
20
0.325
11
0.6171259842519685
21
0.475
0
LINE
8
BLACK
6
CONTINUOUS
10
0.6171259842519685
20
0.475
11
0.6177253543307086
21
0.4780132677165354
0
LINE
8
BLACK
6
CONTINUOUS
10
0.6177253543307086
20
0.4780132677165354
11
0.6194322440944882
21
0.4805677559055118
0
LINE
8
BLACK
6
CONTINUOUS
10
0.6194322440944882
20
0.4805677559055118
11
0.6219867322834646
21
0.4822746456692913
0
LINE
8
BLACK
6
CONTINUOUS
10
0.6219867322834646
20
0.4822746456692913
11
0.625
21
0.4828740157480315
0
LINE
8
BLACK
6
CONTINUOUS
10
0.625
20
0.4828740157480315
11
0.775
21
0.4828740157480315
0
LINE
8
BLACK
6
CONTINUOUS
10
0.775
20
0.4828740157480315
11
0.7780132677165355
21
0.4822746456692913
0
LINE
8
BLACK
6
CONTINUOUS
10
0.9780132677165354
20
0.4822746456692913
11
0.9805677559055118
21
0.4805677559055118
0
LINE
8
BLACK
6
CONTINUOUS
10
0.9805677559055118
20
0.4805677559055118
11
0.9822746456692913
21
0.4780132677165354
0
LINE
8
BLACK
6
CONTINUOUS
10
0.9822746456692913
20
0.4780132677165354
11
0.9828740157480315
21
0.475
0
LINE
8
BLACK
6
CONTINUOUS
10
0.9828740157480315
20
0.475
11
0.9828740157480315
21
0.325
0
LINE
8
BLACK
6
CONTINUOUS
10
0.9828740157480315
20
0.325
11
0.9822746456692913
21
0.3219867322834646
0
LINE
8
BLACK
6
CONTINUOUS
10
0.9822746456692913
20
0.3219867322834646
11
0.9805677559055118
21
0.3194322440944882
0
LINE
8
BLACK
6
CONTINUOUS
10
0.9805677559055118
20
0.3194322440944882
11
0.9780132677165354
21
0.3177253543307086
0
LINE
8
BLACK
6
CONTINUOUS
10
0.9780132677165354
20
0.3177253543307086
11
0.975
21
0.3171259842519685
0
LINE
8
BLACK
6
CONTINUOUS
10
0.975
20
0.3171259842519685
11
0.825
21
0.3171259842519685
0
LINE
8
BLACK
6
CONTINUOUS
10
0.825
20
0.3171259842519685
11
0.8219867322834645
21
0.3177253543307086
0
LINE
8
BLACK
6
CONTINUOUS
10
0.8219867322834645
20
0.3177253543307086
11
0.8194322440944881
21
0.3194322440944882
0
LINE
8
BLACK
6
CONTINUOUS
10
0.8194322440944881
20
0.3194322440944882
11
0.8177253543307087
21
0.3219867322834646
0
LINE
8
BLACK
6
CONTINUOUS
10
0.8177253543307087
20
0.3219867322834646
11
0.8171259842519685
21
0.325
0
LINE
8
BLACK
6
CONTINUOUS
10
0.8171259842519685
20
0.325
11
0.8171259842519685
21
0.475
0
LINE
8
BLACK
6
CONTINUOUS
10
0.8171259842519685
20
0.475
11
0.8177253543307087
21
0.4780132677165354
0
LINE
8
BLACK
6
CONTINUOUS
10
0.8177253543307087
20
0.4780132677165354
11
0.8194322440944881
21
0.4805677559055118
0
LINE
8
BLACK
6
CONTINUOUS
10
0.8194322440944881
20
0.4805677559055118
11
0.8219867322834645
21
0.4822746456692913
0
LINE
8
BLACK
6
CONTINUOUS
10
0.8219867322834645
20
0.4822746456692913
11
0.825
21
0.4828740157480315
0
LINE
8
BLACK
6
CONTINUOUS
10
0.825
20
0.4828740157480315
11
0.975
21
0.4828740157480315
0
LINE
8
BLACK
6
CONTINUOUS
10
0.975
20
0.4828740157480315
11
0.9780132677165354
21
0.4822746456692913
0
LINE
8
BLACK
6
CONTINUOUS
10
1.1780132677165354
20
0.4822746456692913
11
1.1805677559055119
21
0.4805677559055118
0
LINE
8
BLACK
6
CONTINUOUS
10
1.1805677559055119
20
0.4805677559055118
11
1.1822746456692914
21
0.4780132677165354
0
LINE
8
BLACK
6
CONTINUOUS
10
1.1822746456692914
20
0.4780132677165354
11
1.1828740157480315
21
0.475
0
LINE
8
BLACK
6
CONTINUOUS
10
1.1828740157480315
20
0.475
11
1.1828740157480315
21
0.325
0
LINE
8
BLACK
6
CONTINUOUS
10
1.1828740157480315
20
0.325
11
1.1822746456692914
21
0.3219867322834646
0
LINE
8
BLACK
6
CONTINUOUS
10
1.1822746456692914
20
0.3219867322834646
11
1.1805677559055119
21
0.3194322440944882
0
LINE
8
BLACK
6
CONTINUOUS
10
1.1805677559055119
20
0.3194322440944882
11
1.1780132677165354
21
0.3177253543307086
0
LINE
8
BLACK
6
CONTINUOUS
10
1.1780132677165354
20
0.3177253543307086
11
1.175
21
0.3171259842519685
0
LINE
8
BLACK
6
CONTINUOUS
10
1.175
20
0.3171259842519685
11
1.0249999999999999
21
0.3171259842519685
0
LINE
8
BLACK
6
CONTINUOUS
10
1.0249999999999999
20
0.3171259842519685
11
1.0219867322834646
21
0.3177253543307086
0
LINE
8
BLACK
6
CONTINUOUS
10
1.0219867322834646
20
0.3177253543307086
11
1.0194322440944881
21
0.3194322440944882
0
LINE
8
BLACK
6
CONTINUOUS
10
1.0194322440944881
20
0.3194322440944882
11
1.0177253543307085
21
0.3219867322834646
0
LINE
8
BLACK
6
CONTINUOUS
10
1.0177253543307085
20
0.3219867322834646
11
1.0171259842519684
21
0.325
0
LINE
8
BLACK
6
CONTINUOUS
10
1.0171259842519684
20
0.325
11
1.0171259842519684
21
0.475
0
LINE
8
BLACK
6
CONTINUOUS
10
1.0171259842519684
20
0.475
11
1.0177253543307085
21
0.4780132677165354
0
LINE
8
BLACK
6
CONTINUOUS
10
1.0177253543307085
20
0.4780132677165354
11
1.0194322440944881
21
0.4805677559055118
0
LINE
8
BLACK
6
CONTINUOUS
10
1.0194322440944881
20
0.4805677559055118
11
1.0219867322834646
21
0.4822746456692913
0
LINE
8
BLACK
6
CONTINUOUS
10
1.0219867322834646
20
0.4822746456692913
11
1.0249999999999999
21
0.4828740157480315
0
LINE
8
BLACK
6
CONTINUOUS
10
1.0249999999999999
20
0.4828740157480315
11
1.175
21
0.4828740157480315
0
LINE
8
BLACK
6
CONTINUOUS
10
1.175
20
0.4828740157480315
11
1.1780132677165354
21
0.4822746456692913
0
LINE
8
BLACK
6
CONTINUOUS
10
0.2311632677165354
20
0.5324746456692914
11
0.2337177559055118
21
0.5307677559055118
0
LINE
8
BLACK
6
CONTINUOUS
10
0.2337177559055118
20
0.5307677559055118
11
0.2354246456692913
21
0.5282132677165354
0
LINE
8
BLACK
6
CONTINUOUS
10
0.2354246456692913
20
0.5282132677165354
11
0.2360240157480315
21
0.5252
0
LINE
8
BLACK
6
CONTINUOUS
10
0.2360240157480315
20
0.5252
11
0.2360240157480315
21
0.4248
0
LINE
8
BLACK
6
CONTINUOUS
10
0.2360240157480315
20
0.4248
11
0.2354246456692913
21
0.4217867322834646
0
LINE
8
BLACK
6
CONTINUOUS
10
0.2354246456692913
20
0.4217867322834646
11
0.2337177559055118
21
0.4192322440944882
0
LINE
8
BLACK
6
CONTINUOUS
10
0.2337177559055118
20
0.4192322440944882
11
0.2311632677165354
21
0.4175253543307086
0
LINE
8
BLACK
6
CONTINUOUS
10
0.2311632677165354
20
0.4175253543307086
11
0.22815
21
0.4169259842519685
0
LINE
8
BLACK
6
CONTINUOUS
10
0.22815
20
0.4169259842519685
11
0.12185
21
0.4169259842519685
0
LINE
8
BLACK
6
CONTINUOUS
10
0.12185
20
0.4169259842519685
11
0.1188367322834646
21
0.4175253543307086
0
LINE
8
BLACK
6
CONTINUOUS
10
0.1188367322834646
20
0.4175253543307086
11
0.1162822440944882
21
0.4192322440944882
0
LINE
8
BLACK
6
CONTINUOUS
10
0.1162822440944882
20
0.4192322440944882
11
0.1145753543307087
21
0.4217867322834646
0
LINE
8
BLACK
6
CONTINUOUS
10
0.1145753543307087
20
0.4217867322834646
11
0.1139759842519685
21
0.4248
0
LINE
8
BLACK
6
CONTINUOUS
10
0.1139759842519685
20
0.4248
11
0.1139759842519685
21
0.5252
0
LINE
8
BLACK
6
CONTINUOUS
10
0.1139759842519685
20
0.5252
11
0.1145753543307087
21
0.5282132677165354
0
LINE
8
BLACK
6
CONTINUOUS
10
0.1145753543307087
20
0.5282132677165354
11
0.1162822440944882
21
0.5307677559055118
0
LINE
8
BLACK
6
CONTINUOUS
10
0.1162822440944882
20
0.5307677559055118
11
0.1188367322834646
21
0.5324746456692914
0
LINE
8
BLACK
6
CONTINUOUS
10
0.1188367322834646
20
0.5324746456692914
11
0.12185
21
0.5330740157480315
0
LINE
8
BLACK
6
CONTINUOUS
10
0.12185
20
0.5330740157480315
11
0.22815
21
0.5330740157480315
0
LINE
8
BLACK
6
CONTINUOUS
10
0.22815
20
0.5330740157480315
11
0.2311632677165354
21
0.5324746456692914
0
LINE
8
BLACK
6
CONTINUOUS
10
0.7180132677165354
20
0.5622746456692913
11
0.7205677559055118
21
0.5605677559055118
0
LINE
8
BLACK
6
CONTINUOUS
10
0.7205677559055118
20
0.5605677559055118
11
0.7222746456692913
21
0.5580132677165354
0
LINE
8
BLACK
6
CONTINUOUS
10
0.7222746456692913
20
0.5580132677165354
11
0.7228740157480315
21
0.5549999999999999
0
LINE
8
BLACK
6
CONTINUOUS
10
0.7228740157480315
20
0.5549999999999999
11
0.7228740157480315
21
0.52
0
LINE
8
BLACK
6
CONTINUOUS
10
0.7228740157480315
20
0.52
11
0.7222746456692913
21
0.5169867322834646
0
LINE
8
BLACK
6
CONTINUOUS
10
0.7222746456692913
20
0.5169867322834646
11
0.7205677559055118
21
0.5144322440944882
0
LINE
8
BLACK
6
CONTINUOUS
10
0.7205677559055118
20
0.5144322440944882
11
0.7180132677165354
21
0.5127253543307086
0
LINE
8
BLACK
6
CONTINUOUS
10
0.7180132677165354
20
0.5127253543307086
11
0.715
21
0.5121259842519685
0
LINE
8
BLACK
6
CONTINUOUS
10
0.715
20
0.5121259842519685
11
0.66
21
0.5121259842519685
0
LINE
8
BLACK
6
CONTINUOUS
10
0.66
20
0.5121259842519685
11
0.6569867322834646
21
0.5127253543307086
0
LINE
8
BLACK
6
CONTINUOUS
10
0.6569867322834646
20
0.5127253543307086
11
0.6544322440944882
21
0.5144322440944882
0
LINE
8
BLACK
6
CONTINUOUS
10
0.6544322440944882
20
0.5144322440944882
11
0.6527253543307087
21
0.5169867322834646
0
LINE
8
BLACK
6
CONTINUOUS
10
0.6527253543307087
20
0.5169867322834646
11
0.6521259842519684
21
0.52
0
LINE
8
BLACK
6
CONTINUOUS
10
0.6521259842519684
20
0.52
11
0.6521259842519684
21
0.5549999999999999
0
LINE
8
BLACK
6
CONTINUOUS
10
0.6521259842519684
20
0.5549999999999999
11
0.6527253543307087
21
0.5580132677165354
0
LINE
8
BLACK
6
CONTINUOUS
10
0.6527253543307087
20
0.5580132677165354
11
0.6544322440944882
21
0.5605677559055118
0
LINE
8
BLACK
6
CONTINUOUS
10
0.6544322440944882
20
0.5605677559055118
11
0.6569867322834646
21
0.5622746456692913
0
LINE
8
BLACK
6
CONTINUOUS
10
0.6569867322834646
20
0.5622746456692913
11
0.66
21
0.5628740157480315
0
LINE
8
BLACK
6
CONTINUOUS
10
0.66
20
0.5628740157480315
11
0.715
21
0.5628740157480315
0
LINE
8
BLACK
6
CONTINUOUS
10
0.715
20
0.5628740157480315
11
0.7180132677165354
21
0.5622746456692913
0
LINE
8
BLACK
6
CONTINUOUS
10
1.0171864960629922
20
0.8005817322834645
11
1.0197409842519685
21
0.798874842519685
0
LINE
8
BLACK
6
CONTINUOUS
10
1.0197409842519685
20
0.798874842519685
11
1.021447874015748
21
0.7963203543307087
0
LINE
8
BLACK
6
CONTINUOUS
10
1.021447874015748
20
0.7963203543307087
11
1.0220472440944881
21
0.7933070866141733
0
LINE
8
BLACK
6
CONTINUOUS
10
1.0220472440944881
20
0.7933070866141733
11
1.0220472440944881
21
0.5413385826771654
0
LINE
8
BLACK
6
CONTINUOUS
10
1.0220472440944881
20
0.5413385826771654
11
1.021447874015748
21
0.53832531496063
0
LINE
8
BLACK
6
CONTINUOUS
10
1.021447874015748
20
0.53832531496063
11
1.0197409842519685
21
0.5357708267716536
0
LINE
8
BLACK
6
CONTINUOUS
10
1.0197409842519685
20
0.5357708267716536
11
1.0171864960629922
21
0.534063937007874
0
LINE
8
BLACK
6
CONTINUOUS
10
1.0171864960629922
20
0.534063937007874
11
1.0141732283464566
21
0.5334645669291338
0
LINE
8
BLACK
6
CONTINUOUS
10
1.0141732283464566
20
0.5334645669291338
11
0.7858267716535433
21
0.5334645669291338
0
LINE
8
BLACK
6
CONTINUOUS
10
0.7858267716535433
20
0.5334645669291338
11
0.7828135039370079
21
0.534063937007874
0
LINE
8
BLACK
6
CONTINUOUS
10
0.7828135039370079
20
0.534063937007874
11
0.7802590157480315
21
0.5357708267716536
0
LINE
8
BLACK
6
CONTINUOUS
10
0.7802590157480315
20
0.5357708267716536
11
0.7785521259842519
21
0.53832531496063
0
LINE
8
BLACK
6
CONTINUOUS
10
0.7785521259842519
20
0.53832531496063
11
0.7779527559055118
21
0.5413385826771654
0
LINE
8
BLACK
6
CONTINUOUS
10
0.7779527559055118
20
0.5413385826771654
11
0.7779527559055118
21
0.7933070866141733
0
LINE
8
BLACK
6
CONTINUOUS
10
0.7779527559055118
20
0.7933070866141733
11
0.7785521259842519
21
0.7963203543307087
0
LINE
8
BLACK
6
CONTINUOUS
10
0.7785521259842519
20
0.7963203543307087
11
0.7802590157480315
21
0.798874842519685
0
LINE
8
BLACK
6
CONTINUOUS
10
0.7802590157480315
20
0.798874842519685
11
0.7828135039370079
21
0.8005817322834645
0
LINE
8
BLACK
6
CONTINUOUS
10
0.7828135039370079
20
0.8005817322834645
11
0.7858267716535433
21
0.8011811023622047
0
LINE
8
BLACK
6
CONTINUOUS
10
0.7858267716535433
20
0.8011811023622047
11
1.0141732283464566
21
0.8011811023622047
0
LINE
8
BLACK
6
CONTINUOUS
10
1.0141732283464566
20
0.8011811023622047
11
1.0171864960629922
21
0.8005817322834645
0
LINE
8
BLACK
6
CONTINUOUS
10
1.2160053937007873
20
0.6049124409448818
11
1.2185598818897638
21
0.6032055511811023
0
LINE
8
BLACK
6
CONTINUOUS
10
1.2185598818897638
20
0.6032055511811023
11
1.2202667716535434
21
0.600651062992126
0
LINE
8
BLACK
6
CONTINUOUS
10
1.2202667716535434
20
0.600651062992126
11
1.2208661417322835
21
0.5976377952755906
0
LINE
8
BLACK
6
CONTINUOUS
10
1.2208661417322835
20
0.5976377952755906
11
1.2208661417322835
21
0.5582677165354331
0
LINE
8
BLACK
6
CONTINUOUS
10
1.2208661417322835
20
0.5582677165354331
11
1.2202667716535434
21
0.5552544488188976
0
LINE
8
BLACK
6
CONTINUOUS
10
1.2202667716535434
20
0.5552544488188976
11
1.2185598818897638
21
0.5526999606299212
0
LINE
8
BLACK
6
CONTINUOUS
10
1.2185598818897638
20
0.5526999606299212
11
1.2160053937007873
21
0.5509930708661417
0
LINE
8
BLACK
6
CONTINUOUS
10
1.2160053937007873
20
0.5509930708661417
11
1.212992125984252
21
0.5503937007874016
0
LINE
8
BLACK
6
CONTINUOUS
10
1.212992125984252
20
0.5503937007874016
11
1.0870078740157481
21
0.5503937007874016
0
LINE
8
BLACK
6
CONTINUOUS
10
1.0870078740157481
20
0.5503937007874016
11
1.0839946062992125
21
0.5509930708661417
0
LINE
8
BLACK
6
CONTINUOUS
10
1.0839946062992125
20
0.5509930708661417
11
1.0814401181102362
21
0.5526999606299212
0
LINE
8
BLACK
6
CONTINUOUS
10
1.0814401181102362
20
0.5526999606299212
11
1.0797332283464567
21
0.5552544488188976
0
LINE
8
BLACK
6
CONTINUOUS
10
1.0797332283464567
20
0.5552544488188976
11
1.0791338582677166
21
0.5582677165354331
0
LINE
8
BLACK
6
CONTINUOUS
10
1.0791338582677166
20
0.5582677165354331
11
1.0791338582677166
21
0.5976377952755906
0
LINE
8
BLACK
6
CONTINUOUS
10
1.0791338582677166
20
0.5976377952755906
11
1.0797332283464567
21
0.600651062992126
0
LINE
8
BLACK
6
CONTINUOUS
10
1.0797332283464567
20
0.600651062992126
11
1.0814401181102362
21
0.6032055511811023
0
LINE
8
BLACK
6
CONTINUOUS
10
1.0814401181102362
20
0.6032055511811023
11
1.0839946062992125
21
0.6049124409448818
0
LINE
8
BLACK
6
CONTINUOUS
10
1.0839946062992125
20
0.6049124409448818
11
1.0870078740157481
21
0.6055118110236221
0
LINE
8
BLACK
6
CONTINUOUS
10
1.0870078740157481
20
0.6055118110236221
11
1.212992125984252
21
0.6055118110236221
0
LINE
8
BLACK
6
CONTINUOUS
10
1.212992125984252
20
0.6055118110236221
11
1.2160053937007873
21
0.6049124409448818
0
LINE
8
BLACK
6
CONTINUOUS
10
0.7180132677165354
20
0.6372746456692914
11
0.7205677559055118
21
0.6355677559055118
0
LINE
8
BLACK
6
CONTINUOUS
10
0.7205677559055118
20
0.6355677559055118
11
0.7222746456692913
21
0.6330132677165354
0
LINE
8
BLACK
6
CONTINUOUS
10
0.7222746456692913
20
0.6330132677165354
11
0.7228740157480315
21
0.63
0
LINE
8
BLACK
6
CONTINUOUS
10
0.7228740157480315
20
0.63
11
0.7228740157480315
21
0.595
0
LINE
8
BLACK
6
CONTINUOUS
10
0.7228740157480315
20
0.595
11
0.7222746456692913
21
0.5919867322834645
0
LINE
8
BLACK
6
CONTINUOUS
10
0.7222746456692913
20
0.5919867322834645
11
0.7205677559055118
21
0.5894322440944881
0
LINE
8
BLACK
6
CONTINUOUS
10
0.7205677559055118
20
0.5894322440944881
11
0.7180132677165354
21
0.5877253543307086
0
LINE
8
BLACK
6
CONTINUOUS
10
0.7180132677165354
20
0.5877253543307086
11
0.715
21
0.5871259842519685
0
LINE
8
BLACK
6
CONTINUOUS
10
0.715
20
0.5871259842519685
11
0.66
21
0.5871259842519685
0
LINE
8
BLACK
6
CONTINUOUS
10
0.66
20
0.5871259842519685
11
0.6569867322834646
21
0.5877253543307086
0
LINE
8
BLACK
6
CONTINUOUS
10
0.6569867322834646
20
0.5877253543307086
11
0.6544322440944882
21
0.5894322440944881
0
LINE
8
BLACK
6
CONTINUOUS
10
0.6544322440944882
20
0.5894322440944881
11
0.6527253543307087
21
0.5919867322834645
0
LINE
8
BLACK
6
CONTINUOUS
10
0.6527253543307087
20
0.5919867322834645
11
0.6521259842519684
21
0.595
0
LINE
8
BLACK
6
CONTINUOUS
10
0.6521259842519684
20
0.595
11
0.6521259842519684
21
0.63
0
LINE
8
BLACK
6
CONTINUOUS
10
0.6521259842519684
20
0.63
11
0.6527253543307087
21
0.6330132677165354
0
LINE
8
BLACK
6
CONTINUOUS
10
0.6527253543307087
20
0.6330132677165354
11
0.6544322440944882
21
0.6355677559055118
0
LINE
8
BLACK
6
CONTINUOUS
10
0.6544322440944882
20
0.6355677559055118
11
0.6569867322834646
21
0.6372746456692914
0
LINE
8
BLACK
6
CONTINUOUS
10
0.6569867322834646
20
0.6372746456692914
11
0.66
21
0.6378740157480315
0
LINE
8
BLACK
6
CONTINUOUS
10
0.66
20
0.6378740157480315
11
0.715
21
0.6378740157480315
0
LINE
8
BLACK
6
CONTINUOUS
10
0.715
20
0.6378740157480315
11
0.7180132677165354
21
0.6372746456692914
0
LINE
8
BLACK
6
CONTINUOUS
10
0.2311632677165354
20
0.7824746456692914
11
0.2337177559055118
21
0.7807677559055118
0
LINE
8
BLACK
6
CONTINUOUS
10
0.2337177559055118
20
0.7807677559055118
11
0.2354246456692913
21
0.7782132677165354
0
LINE
8
BLACK
6
CONTINUOUS
10
0.2354246456692913
20
0.7782132677165354
11
0.2360240157480315
21
0.7752
0
LINE
8
BLACK
6
CONTINUOUS
10
0.2360240157480315
20
0.7752
11
0.2360240157480315
21
0.6748
0
LINE
8
BLACK
6
CONTINUOUS
10
0.2360240157480315
20
0.6748
11
0.2354246456692913
21
0.6717867322834645
0
LINE
8
BLACK
6
CONTINUOUS
10
0.2354246456692913
20
0.6717867322834645
11
0.2337177559055118
21
0.6692322440944882
0
LINE
8
BLACK
6
CONTINUOUS
10
0.2337177559055118
20
0.6692322440944882
11
0.2311632677165354
21
0.6675253543307087
0
LINE
8
BLACK
6
CONTINUOUS
10
0.2311632677165354
20
0.6675253543307087
11
0.22815
21
0.6669259842519685
0
LINE
8
BLACK
6
CONTINUOUS
10
0.22815
20
0.6669259842519685
11
0.12185
21
0.6669259842519685
0
LINE
8
BLACK
6
CONTINUOUS
10
0.12185
20
0.6669259842519685
11
0.1188367322834646
21
0.6675253543307087
0
LINE
8
BLACK
6
CONTINUOUS
10
0.1188367322834646
20
0.6675253543307087
11
0.1162822440944882
21
0.6692322440944882
0
LINE
8
BLACK
6
CONTINUOUS
10
0.1162822440944882
20
0.6692322440944882
11
0.1145753543307087
21
0.6717867322834645
0
LINE
8
BLACK
6
CONTINUOUS
10
0.1145753543307087
20
0.6717867322834645
11
0.1139759842519685
21
0.6748
0
LINE
8
BLACK
6
CONTINUOUS
10
0.1139759842519685
20
0.6748
11
0.1139759842519685
21
0.7752
0
LINE
8
BLACK
6
CONTINUOUS
10
0.1139759842519685
20
0.7752
11
0.1145753543307087
21
0.7782132677165354
0
LINE
8
BLACK
6
CONTINUOUS
10
0.1145753543307087
20
0.7782132677165354
11
0.1162822440944882
21
0.7807677559055118
0
LINE
8
BLACK
6
CONTINUOUS
10
0.1162822440944882
20
0.7807677559055118
11
0.1188367322834646
21
0.7824746456692914
0
LINE
8
BLACK
6
CONTINUOUS
10
0.1188367322834646
20
0.7824746456692914
11
0.12185
21
0.7830740157480315
0
LINE
8
BLACK
6
CONTINUOUS
10
0.12185
20
0.7830740157480315
11
0.22815
21
0.7830740157480315
0
LINE
8
BLACK
6
CONTINUOUS
10
0.22815
20
0.7830740157480315
11
0.2311632677165354
21
0.7824746456692914
0
LINE
8
BLACK
6
CONTINUOUS
10
0.5539975196850394
20
0.946447874015748
11
0.5565520078740157
21
0.9447409842519685
0
LINE
8
BLACK
6
CONTINUOUS
10
0.5565520078740157
20
0.9447409842519685
11
0.5582588976377952
21
0.9421864960629921
0
LINE
8
BLACK
6
CONTINUOUS
10
0.5582588976377952
20
0.9421864960629921
11
0.5588582677165355
21
0.9391732283464567
0
LINE
8
BLACK
6
CONTINUOUS
10
0.5588582677165355
20
0.9391732283464567
11
0.5588582677165355
21
0.7108267716535432
0
LINE
8
BLACK
6
CONTINUOUS
10
0.5588582677165355
20
0.7108267716535432
11
0.5582588976377952
21
0.7078135039370078
0
LINE
8
BLACK
6
CONTINUOUS
10
0.5582588976377952
20
0.7078135039370078
11
0.5565520078740157
21
0.7052590157480315
0
LINE
8
BLACK
6
CONTINUOUS
10
0.5565520078740157
20
0.7052590157480315
11
0.5539975196850394
21
0.703552125984252
0
LINE
8
BLACK
6
CONTINUOUS
10
0.5539975196850394
20
0.703552125984252
11
0.550984251968504
21
0.7029527559055118
0
LINE
8
BLACK
6
CONTINUOUS
10
0.550984251968504
20
0.7029527559055118
11
0.2990157480314961
21
0.7029527559055118
0
LINE
8
BLACK
6
CONTINUOUS
10
0.2990157480314961
20
0.7029527559055118
11
0.2960024803149606
21
0.703552125984252
0
LINE
8
BLACK
6
CONTINUOUS
10
0.2960024803149606
20
0.703552125984252
11
0.2934479921259843
21
0.7052590157480315
0
LINE
8
BLACK
6
CONTINUOUS
10
0.2934479921259843
20
0.7052590157480315
11
0.2917411023622047
21
0.7078135039370078
0
LINE
8
BLACK
6
CONTINUOUS
10
0.2917411023622047
20
0.7078135039370078
11
0.2911417322834646
21
0.7108267716535432
0
LINE
8
BLACK
6
CONTINUOUS
10
0.2911417322834646
20
0.7108267716535432
11
0.2911417322834646
21
0.9391732283464567
0
LINE
8
BLACK
6
CONTINUOUS
10
0.2911417322834646
20
0.9391732283464567
11
0.2917411023622047
21
0.9421864960629921
0
LINE
8
BLACK
6
CONTINUOUS
10
0.2917411023622047
20
0.9421864960629921
11
0.2934479921259843
21
0.9447409842519685
0
LINE
8
BLACK
6
CONTINUOUS
10
0.2934479921259843
20
0.9447409842519685
11
0.2960024803149606
21
0.946447874015748
0
LINE
8
BLACK
6
CONTINUOUS
10
0.2960024803149606
20
0.946447874015748
11
0.2990157480314961
21
0.9470472440944881
0
LINE
8
BLACK
6
CONTINUOUS
10
0.2990157480314961
20
0.9470472440944881
11
0.550984251968504
21
0.9470472440944881
0
LINE
8
BLACK
6
CONTINUOUS
10
0.550984251968504
20
0.9470472440944881
11
0.5539975196850394
21
0.946447874015748
0
LINE
8
BLACK
6
CONTINUOUS
10
0.7193518503937008
20
0.7661329133858268
11
0.7219063385826772
21
0.7644260236220473
0
LINE
8
BLACK
6
CONTINUOUS
10
0.7219063385826772
20
0.7644260236220473
11
0.7236132283464567
21
0.7618715354330708
0
LINE
8
BLACK
6
CONTINUOUS
10
0.7236132283464567
20
0.7618715354330708
11
0.7242125984251968
21
0.7588582677165354
0
LINE
8
BLACK
6
CONTINUOUS
10
0.7242125984251968
20
0.7588582677165354
11
0.7242125984251968
21
0.7116141732283464
0
LINE
8
BLACK
6
CONTINUOUS
10
0.7242125984251968
20
0.7116141732283464
11
0.7236132283464567
21
0.708600905511811
0
LINE
8
BLACK
6
CONTINUOUS
10
0.7236132283464567
20
0.708600905511811
11
0.7219063385826772
21
0.7060464173228346
0
LINE
8
BLACK
6
CONTINUOUS
10
0.7219063385826772
20
0.7060464173228346
11
0.7193518503937008
21
0.7043395275590552
0
LINE
8
BLACK
6
CONTINUOUS
10
0.7193518503937008
20
0.7043395275590552
11
0.7163385826771653
21
0.7037401574803149
0
LINE
8
BLACK
6
CONTINUOUS
10
0.7163385826771653
20
0.7037401574803149
11
0.6297244094488189
21
0.7037401574803149
0
LINE
8
BLACK
6
CONTINUOUS
10
0.6297244094488189
20
0.7037401574803149
11
0.6267111417322835
21
0.7043395275590552
0
LINE
8
BLACK
6
CONTINUOUS
10
0.6267111417322835
20
0.7043395275590552
11
0.6241566535433071
21
0.7060464173228346
0
LINE
8
BLACK
6
CONTINUOUS
10
0.6241566535433071
20
0.7060464173228346
11
0.6224497637795275
21
0.708600905511811
0
LINE
8
BLACK
6
CONTINUOUS
10
0.6224497637795275
20
0.708600905511811
11
0.6218503937007874
21
0.7116141732283464
0
LINE
8
BLACK
6
CONTINUOUS
10
0.6218503937007874
20
0.7116141732283464
11
0.6218503937007874
21
0.7588582677165354
0
LINE
8
BLACK
6
CONTINUOUS
10
0.6218503937007874
20
0.7588582677165354
11
0.6224497637795275
21
0.7618715354330708
0
LINE
8
BLACK
6
CONTINUOUS
10
0.6224497637795275
20
0.7618715354330708
11
0.6241566535433071
21
0.7644260236220473
0
LINE
8
BLACK
6
CONTINUOUS
10
0.6241566535433071
20
0.7644260236220473
11
0.6267111417322835
21
0.7661329133858268
0
LINE
8
BLACK
6
CONTINUOUS
10
0.6267111417322835
20
0.7661329133858268
11
0.6297244094488189
21
0.7667322834645669
0
LINE
8
BLACK
6
CONTINUOUS
10
0.6297244094488189
20
0.7667322834645669
11
0.7163385826771653
21
0.7667322834645669
0
LINE
8
BLACK
6
CONTINUOUS
10
0.7163385826771653
20
0.7667322834645669
11
0.7193518503937008
21
0.7661329133858268
0
LINE
8
BLACK
6
CONTINUOUS
10
1.2160053937007873
20
0.8490069291338582
11
1.2185598818897638
21
0.8473000393700787
0
LINE
8
BLACK
6
CONTINUOUS
10
1.2185598818897638
20
0.8473000393700787
11
1.2202667716535434
21
0.8447455511811024
0
LINE
8
BLACK
6
CONTINUOUS
10
1.2202667716535434
20
0.8447455511811024
11
1.2208661417322835
21
0.8417322834645669
0
LINE
8
BLACK
6
CONTINUOUS
10
1.2208661417322835
20
0.8417322834645669
11
1.2208661417322835
21
0.8023622047244094
0
LINE
8
BLACK
6
CONTINUOUS
10
1.2208661417322835
20
0.8023622047244094
11
1.2202667716535434
21
0.799348937007874
0
LINE
8
BLACK
6
CONTINUOUS
10
1.2202667716535434
20
0.799348937007874
11
1.2185598818897638
21
0.7967944488188976
0
LINE
8
BLACK
6
CONTINUOUS
10
1.2185598818897638
20
0.7967944488188976
11
1.2160053937007873
21
0.7950875590551181
0
LINE
8
BLACK
6
CONTINUOUS
10
1.2160053937007873
20
0.7950875590551181
11
1.212992125984252
21
0.794488188976378
0
LINE
8
BLACK
6
CONTINUOUS
10
1.212992125984252
20
0.794488188976378
11
1.0870078740157481
21
0.794488188976378
0
LINE
8
BLACK
6
CONTINUOUS
10
1.0870078740157481
20
0.794488188976378
11
1.0839946062992125
21
0.7950875590551181
0
LINE
8
BLACK
6
CONTINUOUS
10
1.0839946062992125
20
0.7950875590551181
11
1.0814401181102362
21
0.7967944488188976
0
LINE
8
BLACK
6
CONTINUOUS
10
1.0814401181102362
20
0.7967944488188976
11
1.0797332283464567
21
0.799348937007874
0
LINE
8
BLACK
6
CONTINUOUS
10
1.0797332283464567
20
0.799348937007874
11
1.0791338582677166
21
0.8023622047244094
0
LINE
8
BLACK
6
CONTINUOUS
10
1.0791338582677166
20
0.8023622047244094
11
1.0791338582677166
21
0.8417322834645669
0
LINE
8
BLACK
6
CONTINUOUS
10
1.0791338582677166
20
0.8417322834645669
11
1.0797332283464567
21
0.8447455511811024
0
LINE
8
BLACK
6
CONTINUOUS
10
1.0797332283464567
20
0.8447455511811024
11
1.0814401181102362
21
0.8473000393700787
0
LINE
8
BLACK
6
CONTINUOUS
10
1.0814401181102362
20
0.8473000393700787
11
1.0839946062992125
21
0.8490069291338582
0
LINE
8
BLACK
6
CONTINUOUS
10
1.0839946062992125
20
0.8490069291338582
11
1.0870078740157481
21
0.8496062992125984
0
LINE
8
BLACK
6
CONTINUOUS
10
1.0870078740157481
20
0.8496062992125984
11
1.212992125984252
21
0.8496062992125984
0
LINE
8
BLACK
6
CONTINUOUS
10
1.212992125984252
20
0.8496062992125984
11
1.2160053937007873
21
0.8490069291338582
0
LINE
8
BLACK
6
CONTINUOUS
10
0.8368715354330708
20
0.965936062992126
11
0.8394260236220472
21
0.9642291732283464
0
LINE
8
BLACK
6
CONTINUOUS
10
0.8394260236220472
20
0.9642291732283464
11
0.8411329133858267
21
0.96167468503937
0
LINE
8
BLACK
6
CONTINUOUS
10
0.8411329133858267
20
0.96167468503937
11
0.8417322834645669
21
0.9586614173228346
0
LINE
8
BLACK
6
CONTINUOUS
10
0.8417322834645669
20
0.9586614173228346
11
0.8417322834645669
21
0.8720472440944882
0
LINE
8
BLACK
6
CONTINUOUS
10
0.8417322834645669
20
0.8720472440944882
11
0.8411329133858267
21
0.8690339763779528
0
LINE
8
BLACK
6
CONTINUOUS
10
0.8411329133858267
20
0.8690339763779528
11
0.8394260236220472
21
0.8664794881889764
0
LINE
8
BLACK
6
CONTINUOUS
10
0.8394260236220472
20
0.8664794881889764
11
0.8368715354330708
21
0.8647725984251968
0
LINE
8
BLACK
6
CONTINUOUS
10
0.8368715354330708
20
0.8647725984251968
11
0.8338582677165354
21
0.8641732283464567
0
LINE
8
BLACK
6
CONTINUOUS
10
0.8338582677165354
20
0.8641732283464567
11
0.7866141732283465
21
0.8641732283464567
0
LINE
8
BLACK
6
CONTINUOUS
10
0.7866141732283465
20
0.8641732283464567
11
0.7836009055118111
21
0.8647725984251968
0
LINE
8
BLACK
6
CONTINUOUS
10
0.7836009055118111
20
0.8647725984251968
11
0.7810464173228346
21
0.8664794881889764
0
LINE
8
BLACK
6
CONTINUOUS
10
0.7810464173228346
20
0.8664794881889764
11
0.7793395275590551
21
0.8690339763779528
0
LINE
8
BLACK
6
CONTINUOUS
10
0.7793395275590551
20
0.8690339763779528
11
0.778740157480315
21
0.8720472440944882
0
LINE
8
BLACK
6
CONTINUOUS
10
0.778740157480315
20
0.8720472440944882
11
0.778740157480315
21
0.9586614173228346
0
LINE
8
BLACK
6
CONTINUOUS
10
0.778740157480315
20
0.9586614173228346
11
0.7793395275590551
21
0.96167468503937
0
LINE
8
BLACK
6
CONTINUOUS
10
0.7793395275590551
20
0.96167468503937
11
0.7810464173228346
21
0.9642291732283464
0
LINE
8
BLACK
6
CONTINUOUS
10
0.7810464173228346
20
0.9642291732283464
11
0.7836009055118111
21
0.965936062992126
0
LINE
8
BLACK
6
CONTINUOUS
10
0.7836009055118111
20
0.965936062992126
11
0.7866141732283465
21
0.9665354330708661
0
LINE
8
BLACK
6
CONTINUOUS
10
0.7866141732283465
20
0.9665354330708661
11
0.8338582677165354
21
0.9665354330708661
0
LINE
8
BLACK
6
CONTINUOUS
10
0.8338582677165354
20
0.9665354330708661
11
0.8368715354330708
21
0.965936062992126
0
LINE
8
BLACK
6
CONTINUOUS
10
1.0163990944881889
20
0.965936062992126
11
1.0189535826771654
21
0.9642291732283464
0
LINE
8
BLACK
6
CONTINUOUS
10
1.0189535826771654
20
0.9642291732283464
11
1.0206604724409449
21
0.96167468503937
0
LINE
8
BLACK
6
CONTINUOUS
10
1.0206604724409449
20
0.96167468503937
11
1.021259842519685
21
0.9586614173228346
0
LINE
8
BLACK
6
CONTINUOUS
10
1.021259842519685
20
0.9586614173228346
11
1.021259842519685
21
0.8720472440944882
0
LINE
8
BLACK
6
CONTINUOUS
10
1.021259842519685
20
0.8720472440944882
11
1.0206604724409449
21
0.8690339763779528
0
LINE
8
BLACK
6
CONTINUOUS
10
1.0206604724409449
20
0.8690339763779528
11
1.0189535826771654
21
0.8664794881889764
0
LINE
8
BLACK
6
CONTINUOUS
10
1.0189535826771654
20
0.8664794881889764
11
1.0163990944881889
21
0.8647725984251968
0
LINE
8
BLACK
6
CONTINUOUS
10
1.0163990944881889
20
0.8647725984251968
11
1.0133858267716536
21
0.8641732283464567
0
LINE
8
BLACK
6
CONTINUOUS
10
1.0133858267716536
20
0.8641732283464567
11
0.9661417322834646
21
0.8641732283464567
0
LINE
8
BLACK
6
CONTINUOUS
10
0.9661417322834646
20
0.8641732283464567
11
0.9631284645669291
21
0.8647725984251968
0
LINE
8
BLACK
6
CONTINUOUS
10
0.9631284645669291
20
0.8647725984251968
11
0.9605739763779527
21
0.8664794881889764
0
LINE
8
BLACK
6
CONTINUOUS
10
0.9605739763779527
20
0.8664794881889764
11
0.9588670866141732
21
0.8690339763779528
0
LINE
8
BLACK
6
CONTINUOUS
10
0.9588670866141732
20
0.8690339763779528
11
0.9582677165354331
21
0.8720472440944882
0
LINE
8
BLACK
6
CONTINUOUS
10
0.9582677165354331
20
0.8720472440944882
11
0.9582677165354331
21
0.9586614173228346
0
LINE
8
BLACK
6
CONTINUOUS
10
0.9582677165354331
20
0.9586614173228346
11
0.9588670866141732
21
0.96167468503937
0
LINE
8
BLACK
6
CONTINUOUS
10
0.9588670866141732
20
0.96167468503937
11
0.9605739763779527
21
0.9642291732283464
0
LINE
8
BLACK
6
CONTINUOUS
10
0.9605739763779527
20
0.9642291732283464
11
0.9631284645669291
21
0.965936062992126
0
LINE
8
BLACK
6
CONTINUOUS
10
0.9631284645669291
20
0.965936062992126
11
0.9661417322834646
21
0.9665354330708661
0
LINE
8
BLACK
6
CONTINUOUS
10
0.9661417322834646
20
0.9665354330708661
11
1.0133858267716536
21
0.9665354330708661
0
LINE
8
BLACK
6
CONTINUOUS
10
1.0133858267716536
20
0.9665354330708661
11
1.0163990944881889
21
0.965936062992126
0
LINE
8
BLACK
6
CONTINUOUS
10
0.7193518503937008
20
0.9456604724409449
11
0.7219063385826772
21
0.9439535826771653
0
LINE
8
BLACK
6
CONTINUOUS
10
0.7219063385826772
20
0.9439535826771653
11
0.7236132283464567
21
0.9413990944881889
0
LINE
8
BLACK
6
CONTINUOUS
10
0.7236132283464567
20
0.9413990944881889
11
0.7242125984251968
21
0.9383858267716535
0
LINE
8
BLACK
6
CONTINUOUS
10
0.7242125984251968
20
0.9383858267716535
11
0.7242125984251968
21
0.8911417322834645
0
LINE
8
BLACK
6
CONTINUOUS
10
0.7242125984251968
20
0.8911417322834645
11
0.7236132283464567
21
0.8881284645669291
0
LINE
8
BLACK
6
CONTINUOUS
10
0.7236132283464567
20
0.8881284645669291
11
0.7219063385826772
21
0.8855739763779528
0
LINE
8
BLACK
6
CONTINUOUS
10
0.7219063385826772
20
0.8855739763779528
11
0.7193518503937008
21
0.8838670866141732
0
LINE
8
BLACK
6
CONTINUOUS
10
0.7193518503937008
20
0.8838670866141732
11
0.7163385826771653
21
0.883267716535433
0
LINE
8
BLACK
6
CONTINUOUS
10
0.7163385826771653
20
0.883267716535433
11
0.6297244094488189
21
0.883267716535433
0
LINE
8
BLACK
6
CONTINUOUS
10
0.6297244094488189
20
0.883267716535433
11
0.6267111417322835
21
0.8838670866141732
0
LINE
8
BLACK
6
CONTINUOUS
10
0.6267111417322835
20
0.8838670866141732
11
0.6241566535433071
21
0.8855739763779528
0
LINE
8
BLACK
6
CONTINUOUS
10
0.6241566535433071
20
0.8855739763779528
11
0.6224497637795275
21
0.8881284645669291
0
LINE
8
BLACK
6
CONTINUOUS
10
0.6224497637795275
20
0.8881284645669291
11
0.6218503937007874
21
0.8911417322834645
0
LINE
8
BLACK
6
CONTINUOUS
10
0.6218503937007874
20
0.8911417322834645
11
0.6218503937007874
21
0.9383858267716535
0
LINE
8
BLACK
6
CONTINUOUS
10
0.6218503937007874
20
0.9383858267716535
11
0.6224497637795275
21
0.9413990944881889
0
LINE
8
BLACK
6
CONTINUOUS
10
0.6224497637795275
20
0.9413990944881889
11
0.6241566535433071
21
0.9439535826771653
0
LINE
8
BLACK
6
CONTINUOUS
10
0.6241566535433071
20
0.9439535826771653
11
0.6267111417322835
21
0.9456604724409449
0
LINE
8
BLACK
6
CONTINUOUS
10
0.6267111417322835
20
0.9456604724409449
11
0.6297244094488189
21
0.946259842519685
0
LINE
8
BLACK
6
CONTINUOUS
10
0.6297244094488189
20
0.946259842519685
11
0.7163385826771653
21
0.946259842519685
0
LINE
8
BLACK
6
CONTINUOUS
10
0.7163385826771653
20
0.946259842519685
11
0.7193518503937008
21
0.9456604724409449
0
LINE
8
BLACK
6
CONTINUOUS
10
0.3752573622047244
20
1.0795187401574804
11
0.3778118503937008
21
1.0778118503937009
0
LINE
8
BLACK
6
CONTINUOUS
10
0.3778118503937008
20
1.0778118503937009
11
0.3795187401574803
21
1.0752573622047243
0
LINE
8
BLACK
6
CONTINUOUS
10
0.3795187401574803
20
1.0752573622047243
11
0.3801181102362204
21
1.072244094488189
0
LINE
8
BLACK
6
CONTINUOUS
10
0.3801181102362204
20
1.072244094488189
11
0.3801181102362204
21
0.977755905511811
0
LINE
8
BLACK
6
CONTINUOUS
10
0.3801181102362204
20
0.977755905511811
11
0.3795187401574803
21
0.9747426377952756
0
LINE
8
BLACK
6
CONTINUOUS
10
0.3795187401574803
20
0.9747426377952756
11
0.3778118503937008
21
0.9721881496062992
0
LINE
8
BLACK
6
CONTINUOUS
10
0.3778118503937008
20
0.9721881496062992
11
0.3752573622047244
21
0.9704812598425197
0
LINE
8
BLACK
6
CONTINUOUS
10
0.3752573622047244
20
0.9704812598425197
11
0.372244094488189
21
0.9698818897637795
0
LINE
8
BLACK
6
CONTINUOUS
10
0.372244094488189
20
0.9698818897637795
11
0.277755905511811
21
0.9698818897637795
0
LINE
8
BLACK
6
CONTINUOUS
10
0.277755905511811
20
0.9698818897637795
11
0.2747426377952756
21
0.9704812598425197
0
LINE
8
BLACK
6
CONTINUOUS
10
0.2747426377952756
20
0.9704812598425197
11
0.2721881496062992
21
0.9721881496062992
0
LINE
8
BLACK
6
CONTINUOUS
10
0.2721881496062992
20
0.9721881496062992
11
0.2704812598425197
21
0.9747426377952756
0
LINE
8
BLACK
6
CONTINUOUS
10
0.2704812598425197
20
0.9747426377952756
11
0.2698818897637795
21
0.977755905511811
0
LINE
8
BLACK
6
CONTINUOUS
10
0.2698818897637795
20
0.977755905511811
11
0.2698818897637795
21
1.072244094488189
0
LINE
8
BLACK
6
CONTINUOUS
10
0.2698818897637795
20
1.072244094488189
11
0.2704812598425197
21
1.0752573622047243
0
LINE
8
BLACK
6
CONTINUOUS
10
0.2704812598425197
20
1.0752573622047243
11
0.2721881496062992
21
1.0778118503937009
0
LINE
8
BLACK
6
CONTINUOUS
10
0.2721881496062992
20
1.0778118503937009
11
0.2747426377952756
21
1.0795187401574804
0
LINE
8
BLACK
6
CONTINUOUS
10
0.2747426377952756
20
1.0795187401574804
11
0.277755905511811
21
1.0801181102362205
0
LINE
8
BLACK
6
CONTINUOUS
10
0.277755905511811
20
1.0801181102362205
11
0.372244094488189
21
1.0801181102362205
0
LINE
8
BLACK
6
CONTINUOUS
10
0.372244094488189
20
1.0801181102362205
11
0.3752573622047244
21
1.0795187401574804
0
LINE
8
BLACK
6
CONTINUOUS
10
0.5353811023622047
20
1.0784314960629922
11
0.5439911023622047
21
1.0754757086614173
0
LINE
8
BLACK
6
CONTINUOUS
10
0.5439911023622047
20
1.0754757086614173
11
0.551997125984252
21
1.071143031496063
0
LINE
8
BLACK
6
CONTINUOUS
10
0.551997125984252
20
1.071143031496063
11
0.5591808661417322
21
1.0655516929133857
0
LINE
8
BLACK
6
CONTINUOUS
10
0.5591808661417322
20
1.0655516929133857
11
0.5653463385826771
21
1.058854251968504
0
LINE
8
BLACK
6
CONTINUOUS
10
0.5653463385826771
20
1.058854251968504
11
0.5703253149606299
21
1.0512333070866142
0
LINE
8
BLACK
6
CONTINUOUS
10
0.5703253149606299
20
1.0512333070866142
11
0.5739820472440945
21
1.0428968110236221
0
LINE
8
BLACK
6
CONTINUOUS
10
0.5739820472440945
20
1.0428968110236221
11
0.5762167716535433
21
1.034072125984252
0
LINE
8
BLACK
6
CONTINUOUS
10
0.5762167716535433
20
1.034072125984252
11
0.5769685039370078
21
1.0249999999999999
0
LINE
8
BLACK
6
CONTINUOUS
10
0.5769685039370078
20
1.0249999999999999
11
0.5762167716535433
21
1.015927874015748
0
LINE
8
BLACK
6
CONTINUOUS
10
0.5762167716535433
20
1.015927874015748
11
0.5739820472440945
21
1.007103188976378
0
LINE
8
BLACK
6
CONTINUOUS
10
0.5739820472440945
20
1.007103188976378
11
0.5703253149606299
21
0.9987666929133858
0
LINE
8
BLACK
6
CONTINUOUS
10
0.5703253149606299
20
0.9987666929133858
11
0.5653463385826771
21
0.991145748031496
0
LINE
8
BLACK
6
CONTINUOUS
10
0.5653463385826771
20
0.991145748031496
11
0.5591808661417322
21
0.9844483070866141
0
LINE
8
BLACK
6
CONTINUOUS
10
0.5591808661417322
20
0.9844483070866141
11
0.551997125984252
21
0.978856968503937
0
LINE
8
BLACK
6
CONTINUOUS
10
0.551997125984252
20
0.978856968503937
11
0.5439911023622047
21
0.9745242913385826
0
LINE
8
BLACK
6
CONTINUOUS
10
0.5439911023622047
20
0.9745242913385826
11
0.5353811023622047
21
0.9715685039370079
0
LINE
8
BLACK
6
CONTINUOUS
10
0.5353811023622047
20
0.9715685039370079
11
0.5264020078740157
21
0.9700701574803149
0
LINE
8
BLACK
6
CONTINUOUS
10
0.5264020078740157
20
0.9700701574803149
11
0.5172987795275591
21
0.9700701574803149
0
LINE
8
BLACK
6
CONTINUOUS
10
0.5172987795275591
20
0.9700701574803149
11
0.5083196850393701
21
0.9715685039370079
0
LINE
8
BLACK
6
CONTINUOUS
10
0.5083196850393701
20
0.9715685039370079
11
0.4997096850393701
21
0.9745242913385826
0
LINE
8
BLACK
6
CONTINUOUS
10
0.4997096850393701
20
0.9745242913385826
11
0.4917036614173228
21
0.978856968503937
0
LINE
8
BLACK
6
CONTINUOUS
10
0.4917036614173228
20
0.978856968503937
11
0.4845199212598425
21
0.9844483070866141
0
LINE
8
BLACK
6
CONTINUOUS
10
0.4845199212598425
20
0.9844483070866141
11
0.4783544488188976
21
0.991145748031496
0
LINE
8
BLACK
6
CONTINUOUS
10
0.4783544488188976
20
0.991145748031496
11
0.4733754724409449
21
0.9987666929133858
0
LINE
8
BLACK
6
CONTINUOUS
10
0.4733754724409449
20
0.9987666929133858
11
0.4697187401574803
21
1.007103188976378
0
LINE
8
BLACK
6
CONTINUOUS
10
0.4697187401574803
20
1.007103188976378
11
0.4674840157480315
21
1.015927874015748
0
LINE
8
BLACK
6
CONTINUOUS
10
0.4674840157480315
20
1.015927874015748
11
0.4667322834645669
21
1.0249999999999999
0
LINE
8
BLACK
6
CONTINUOUS
10
0.4667322834645669
20
1.0249999999999999
11
0.4674840157480315
21
1.034072125984252
0
LINE
8
BLACK
6
CONTINUOUS
10
0.4674840157480315
20
1.034072125984252
11
0.4697187401574803
21
1.0428968110236221
0
LINE
8
BLACK
6
CONTINUOUS
10
0.4697187401574803
20
1.0428968110236221
11
0.4733754724409449
21
1.0512333070866142
0
LINE
8
BLACK
6
CONTINUOUS
10
0.4733754724409449
20
1.0512333070866142
11
0.4783544488188976
21
1.058854251968504
0
LINE
8
BLACK
6
CONTINUOUS
10
0.4783544488188976
20
1.058854251968504
11
0.4845199212598425
21
1.0655516929133857
0
LINE
8
BLACK
6
CONTINUOUS
10
0.4845199212598425
20
1.0655516929133857
11
0.4917036614173228
21
1.071143031496063
0
LINE
8
BLACK
6
CONTINUOUS
10
0.4917036614173228
20
1.071143031496063
11
0.4997096850393701
21
1.0754757086614173
0
LINE
8
BLACK
6
CONTINUOUS
10
0.4997096850393701
20
1.0754757086614173
11
0.5083196850393701
21
1.0784314960629922
0
LINE
8
BLACK
6
CONTINUOUS
10
0.5083196850393701
20
1.0784314960629922
11
0.5172987795275591
21
1.079929842519685
0
LINE
8
BLACK
6
CONTINUOUS
10
0.5172987795275591
20
1.079929842519685
11
0.5264020078740157
21
1.079929842519685
0
LINE
8
BLACK
6
CONTINUOUS
10
0.5264020078740157
20
1.079929842519685
11
0.5353811023622047
21
1.0784314960629922
0
LINE
8
BLACK
6
CONTINUOUS
10
0.9455132677165354
20
1.0722746456692913
11
0.9480677559055118
21
1.0705677559055118
0
LINE
8
BLACK
6
CONTINUOUS
10
0.9480677559055118
20
1.0705677559055118
11
0.9497746456692913
21
1.0680132677165355
0
LINE
8
BLACK
6
CONTINUOUS
10
0.9497746456692913
20
1.0680132677165355
11
0.9503740157480315
21
1.0649999999999999
0
LINE
8
BLACK
6
CONTINUOUS
10
0.9503740157480315
20
1.0649999999999999
11
0.9503740157480315
21
1.01
0
LINE
8
BLACK
6
CONTINUOUS
10
0.9503740157480315
20
1.01
11
0.9497746456692913
21
1.0069867322834645
0
LINE
8
BLACK
6
CONTINUOUS
10
0.9497746456692913
20
1.0069867322834645
11
0.9480677559055118
21
1.0044322440944882
0
LINE
8
BLACK
6
CONTINUOUS
10
0.9480677559055118
20
1.0044322440944882
11
0.9455132677165354
21
1.0027253543307086
0
LINE
8
BLACK
6
CONTINUOUS
10
0.9455132677165354
20
1.0027253543307086
11
0.9425
21
1.0021259842519685
0
LINE
8
BLACK
6
CONTINUOUS
10
0.9425
20
1.0021259842519685
11
0.9075
21
1.0021259842519685
0
LINE
8
BLACK
6
CONTINUOUS
10
0.9075
20
1.0021259842519685
11
0.9044867322834645
21
1.0027253543307086
0
LINE
8
BLACK
6
CONTINUOUS
10
0.9044867322834645
20
1.0027253543307086
11
0.9019322440944881
21
1.0044322440944882
0
LINE
8
BLACK
6
CONTINUOUS
10
0.9019322440944881
20
1.0044322440944882
11
0.9002253543307086
21
1.0069867322834645
0
LINE
8
BLACK
6
CONTINUOUS
10
0.9002253543307086
20
1.0069867322834645
11
0.8996259842519685
21
1.01
0
LINE
8
BLACK
6
CONTINUOUS
10
0.8996259842519685
20
1.01
11
0.8996259842519685
21
1.0649999999999999
0
LINE
8
BLACK
6
CONTINUOUS
10
0.8996259842519685
20
1.0649999999999999
11
0.9002253543307086
21
1.0680132677165355
0
LINE
8
BLACK
6
CONTINUOUS
10
0.9002253543307086
20
1.0680132677165355
11
0.9019322440944881
21
1.0705677559055118
0
LINE
8
BLACK
6
CONTINUOUS
10
0.9019322440944881
20
1.0705677559055118
11
0.9044867322834645
21
1.0722746456692913
0
LINE
8
BLACK
6
CONTINUOUS
10
0.9044867322834645
20
1.0722746456692913
11
0.9075
21
1.0728740157480314
0
LINE
8
BLACK
6
CONTINUOUS
10
0.9075
20
1.0728740157480314
11
0.9425
21
1.0728740157480314
0
LINE
8
BLACK
6
CONTINUOUS
10
0.9425
20
1.0728740157480314
11
0.9455132677165354
21
1.0722746456692913
0
LINE
8
BLACK
6
CONTINUOUS
10
1.0205132677165354
20
1.0722746456692913
11
1.0230677559055117
21
1.0705677559055118
0
LINE
8
BLACK
6
CONTINUOUS
10
1.0230677559055117
20
1.0705677559055118
11
1.0247746456692912
21
1.0680132677165355
0
LINE
8
BLACK
6
CONTINUOUS
10
1.0247746456692912
20
1.0680132677165355
11
1.0253740157480316
21
1.0649999999999999
0
LINE
8
BLACK
6
CONTINUOUS
10
1.0253740157480316
20
1.0649999999999999
11
1.0253740157480316
21
1.01
0
LINE
8
BLACK
6
CONTINUOUS
10
1.0253740157480316
20
1.01
11
1.0247746456692912
21
1.0069867322834645
0
LINE
8
BLACK
6
CONTINUOUS
10
1.0247746456692912
20
1.0069867322834645
11
1.0230677559055117
21
1.0044322440944882
0
LINE
8
BLACK
6
CONTINUOUS
10
1.0230677559055117
20
1.0044322440944882
11
1.0205132677165354
21
1.0027253543307086
0
LINE
8
BLACK
6
CONTINUOUS
10
1.0205132677165354
20
1.0027253543307086
11
1.0175000000000001
21
1.0021259842519685
0
LINE
8
BLACK
6
CONTINUOUS
10
1.0175000000000001
20
1.0021259842519685
11
0.9824999999999999
21
1.0021259842519685
0
LINE
8
BLACK
6
CONTINUOUS
10
0.9824999999999999
20
1.0021259842519685
11
0.9794867322834645
21
1.0027253543307086
0
LINE
8
BLACK
6
CONTINUOUS
10
0.9794867322834645
20
1.0027253543307086
11
0.9769322440944882
21
1.0044322440944882
0
LINE
8
BLACK
6
CONTINUOUS
10
0.9769322440944882
20
1.0044322440944882
11
0.9752253543307087
21
1.0069867322834645
0
LINE
8
BLACK
6
CONTINUOUS
10
0.9752253543307087
20
1.0069867322834645
11
0.9746259842519684
21
1.01
0
LINE
8
BLACK
6
CONTINUOUS
10
0.9746259842519684
20
1.01
11
0.9746259842519684
21
1.0649999999999999
0
LINE
8
BLACK
6
CONTINUOUS
10
0.9746259842519684
20
1.0649999999999999
11
0.9752253543307087
21
1.0680132677165355
0
LINE
8
BLACK
6
CONTINUOUS
10
0.9752253543307087
20
1.0680132677165355
11
0.9769322440944882
21
1.0705677559055118
0
LINE
8
BLACK
6
CONTINUOUS
10
0.9769322440944882
20
1.0705677559055118
11
0.9794867322834645
21
1.0722746456692913
0
LINE
8
BLACK
6
CONTINUOUS
10
0.9794867322834645
20
1.0722746456692913
11
0.9824999999999999
21
1.0728740157480314
0
LINE
8
BLACK
6
CONTINUOUS
10
0.9824999999999999
20
1.0728740157480314
11
1.0175000000000001
21
1.0728740157480314
0
LINE
8
BLACK
6
CONTINUOUS
10
1.0175000000000001
20
1.0728740157480314
11
1.0205132677165354
21
1.0722746456692913
0
LINE
8
BLACK
6
CONTINUOUS
10
1.1055132677165354
20
1.1372746456692913
11
1.1080677559055119
21
1.1355677559055117
0
LINE
8
BLACK
6
CONTINUOUS
10
1.1080677559055119
20
1.1355677559055117
11
1.1097746456692914
21
1.1330132677165354
0
LINE
8
BLACK
6
CONTINUOUS
10
1.1097746456692914
20
1.1330132677165354
11
1.1103740157480315
21
1.1299999999999999
0
LINE
8
BLACK
6
CONTINUOUS
10
1.1103740157480315
20
1.1299999999999999
11
1.1103740157480315
21
1.095
0
LINE
8
BLACK
6
CONTINUOUS
10
1.1103740157480315
20
1.095
11
1.1097746456692914
21
1.0919867322834644
0
LINE
8
BLACK
6
CONTINUOUS
10
1.1097746456692914
20
1.0919867322834644
11
1.1080677559055119
21
1.0894322440944881
0
LINE
8
BLACK
6
CONTINUOUS
10
1.1080677559055119
20
1.0894322440944881
11
1.1055132677165354
21
1.0877253543307086
0
LINE
8
BLACK
6
CONTINUOUS
10
1.1055132677165354
20
1.0877253543307086
11
1.1025
21
1.0871259842519685
0
LINE
8
BLACK
6
CONTINUOUS
10
1.1025
20
1.0871259842519685
11
1.0474999999999999
21
1.0871259842519685
0
LINE
8
BLACK
6
CONTINUOUS
10
1.0474999999999999
20
1.0871259842519685
11
1.0444867322834646
21
1.0877253543307086
0
LINE
8
BLACK
6
CONTINUOUS
10
1.0444867322834646
20
1.0877253543307086
11
1.0419322440944883
21
1.0894322440944881
0
LINE
8
BLACK
6
CONTINUOUS
10
1.0419322440944883
20
1.0894322440944881
11
1.0402253543307087
21
1.0919867322834644
0
LINE
8
BLACK
6
CONTINUOUS
10
1.0402253543307087
20
1.0919867322834644
11
1.0396259842519684
21
1.095
0
LINE
8
BLACK
6
CONTINUOUS
10
1.0396259842519684
20
1.095
11
1.0396259842519684
21
1.1299999999999999
0
LINE
8
BLACK
6
CONTINUOUS
10
1.0396259842519684
20
1.1299999999999999
11
1.0402253543307087
21
1.1330132677165354
0
LINE
8
BLACK
6
CONTINUOUS
10
1.0402253543307087
20
1.1330132677165354
11
1.0419322440944883
21
1.1355677559055117
0
LINE
8
BLACK
6
CONTINUOUS
10
1.0419322440944883
20
1.1355677559055117
11
1.0444867322834646
21
1.1372746456692913
0
LINE
8
BLACK
6
CONTINUOUS
10
1.0444867322834646
20
1.1372746456692913
11
1.0474999999999999
21
1.1378740157480314
0
LINE
8
BLACK
6
CONTINUOUS
10
1.0474999999999999
20
1.1378740157480314
11
1.1025
21
1.1378740157480314
0
LINE
8
BLACK
6
CONTINUOUS
10
1.1025
20
1.1378740157480314
11
1.1055132677165354
21
1.1372746456692913
0
LINE
8
BLACK
6
CONTINUOUS
10
0.8100998818897638
20
1.1696762204724409
11
0.8110236220472441
21
1.1690589763779526
0
LINE
8
BLACK
6
CONTINUOUS
10
0.8110236220472441
20
1.1690589763779526
11
0.8119473622047244
21
1.1696762204724409
0
LINE
8
BLACK
6
CONTINUOUS
10
0.8119473622047244
20
1.1696762204724409
11
0.8149606299212598
21
1.170275590551181
0
LINE
8
BLACK
6
CONTINUOUS
10
0.8149606299212598
20
1.170275590551181
11
0.8326771653543307
21
1.170275590551181
0
LINE
8
BLACK
6
CONTINUOUS
10
0.8326771653543307
20
1.170275590551181
11
0.8356904330708661
21
1.1696762204724409
0
LINE
8
BLACK
6
CONTINUOUS
10
0.8356904330708661
20
1.1696762204724409
11
0.8366141732283464
21
1.1690589763779526
0
LINE
8
BLACK
6
CONTINUOUS
10
0.8366141732283464
20
1.1690589763779526
11
0.8375379133858267
21
1.1696762204724409
0
LINE
8
BLACK
6
CONTINUOUS
10
0.8375379133858267
20
1.1696762204724409
11
0.8405511811023622
21
1.170275590551181
0
LINE
8
BLACK
6
CONTINUOUS
10
0.8405511811023622
20
1.170275590551181
11
0.8582677165354331
21
1.170275590551181
0
LINE
8
BLACK
6
CONTINUOUS
10
0.8582677165354331
20
1.170275590551181
11
0.8612809842519685
21
1.1696762204724409
0
LINE
8
BLACK
6
CONTINUOUS
10
0.8612809842519685
20
1.1696762204724409
11
0.8622047244094488
21
1.1690589763779526
0
LINE
8
BLACK
6
CONTINUOUS
10
0.8622047244094488
20
1.1690589763779526
11
0.8631284645669292
21
1.1696762204724409
0
LINE
8
BLACK
6
CONTINUOUS
10
0.8631284645669292
20
1.1696762204724409
11
0.8661417322834646
21
1.170275590551181
0
LINE
8
BLACK
6
CONTINUOUS
10
0.8661417322834646
20
1.170275590551181
11
0.8838582677165354
21
1.170275590551181
0
LINE
8
BLACK
6
CONTINUOUS
10
0.8838582677165354
20
1.170275590551181
11
0.8868715354330708
21
1.1696762204724409
0
LINE
8
BLACK
6
CONTINUOUS
10
0.8868715354330708
20
1.1696762204724409
11
0.8877952755905512
21
1.1690589763779526
0
LINE
8
BLACK
6
CONTINUOUS
10
0.8877952755905512
20
1.1690589763779526
11
0.8887190157480315
21
1.1696762204724409
0
LINE
8
BLACK
6
CONTINUOUS
10
0.8887190157480315
20
1.1696762204724409
11
0.8917322834645669
21
1.170275590551181
0
LINE
8
BLACK
6
CONTINUOUS
10
0.8917322834645669
20
1.170275590551181
11
0.9094488188976377
21
1.170275590551181
0
LINE
8
BLACK
6
CONTINUOUS
10
0.9094488188976377
20
1.170275590551181
11
0.9124620866141732
21
1.1696762204724409
0
LINE
8
BLACK
6
CONTINUOUS
10
0.9124620866141732
20
1.1696762204724409
11
0.9133858267716535
21
1.1690589763779526
0
LINE
8
BLACK
6
CONTINUOUS
10
0.9133858267716535
20
1.1690589763779526
11
0.9143095669291338
21
1.1696762204724409
0
LINE
8
BLACK
6
CONTINUOUS
10
0.9143095669291338
20
1.1696762204724409
11
0.9173228346456692
21
1.170275590551181
0
LINE
8
BLACK
6
CONTINUOUS
10
0.9173228346456692
20
1.170275590551181
11
0.9350393700787402
21
1.170275590551181
0
LINE
8
BLACK
6
CONTINUOUS
10
0.9350393700787402
20
1.170275590551181
11
0.9380526377952756
21
1.1696762204724409
0
LINE
8
BLACK
6
CONTINUOUS
10
0.9380526377952756
20
1.1696762204724409
11
0.9389763779527559
21
1.1690589763779526
0
LINE
8
BLACK
6
CONTINUOUS
10
0.9389763779527559
20
1.1690589763779526
11
0.9399001181102362
21
1.1696762204724409
0
LINE
8
BLACK
6
CONTINUOUS
10
0.9399001181102362
20
1.1696762204724409
11
0.9429133858267716
21
1.170275590551181
0
LINE
8
BLACK
6
CONTINUOUS
10
0.9429133858267716
20
1.170275590551181
11
0.9606299212598425
21
1.170275590551181
0
LINE
8
BLACK
6
CONTINUOUS
10
0.9606299212598425
20
1.170275590551181
11
0.9636431889763779
21
1.1696762204724409
0
LINE
8
BLACK
6
CONTINUOUS
10
0.9636431889763779
20
1.1696762204724409
11
0.9661976771653543
21
1.1679693307086614
0
LINE
8
BLACK
6
CONTINUOUS
10
0.9661976771653543
20
1.1679693307086614
11
0.9679045669291338
21
1.1654148425196851
0
LINE
8
BLACK
6
CONTINUOUS
10
0.9679045669291338
20
1.1654148425196851
11
0.968503937007874
21
1.1624015748031495
0
LINE
8
BLACK
6
CONTINUOUS
10
0.968503937007874
20
1.1624015748031495
11
0.968503937007874
21
1.1053149606299213
0
LINE
8
BLACK
6
CONTINUOUS
10
0.968503937007874
20
1.1053149606299213
11
0.9679045669291338
21
1.1023016929133858
0
LINE
8
BLACK
6
CONTINUOUS
10
0.9679045669291338
20
1.1023016929133858
11
0.9661976771653543
21
1.0997472047244095
0
LINE
8
BLACK
6
CONTINUOUS
10
0.9661976771653543
20
1.0997472047244095
11
0.9636431889763779
21
1.0980403149606299
0
LINE
8
BLACK
6
CONTINUOUS
10
0.9636431889763779
20
1.0980403149606299
11
0.9606299212598425
21
1.0974409448818898
0
LINE
8
BLACK
6
CONTINUOUS
10
0.9606299212598425
20
1.0974409448818898
11
0.9429133858267716
21
1.0974409448818898
0
LINE
8
BLACK
6
CONTINUOUS
10
0.9429133858267716
20
1.0974409448818898
11
0.9399001181102362
21
1.0980403149606299
0
LINE
8
BLACK
6
CONTINUOUS
10
0.9399001181102362
20
1.0980403149606299
11
0.9389763779527559
21
1.0986575196850394
0
LINE
8
BLACK
6
CONTINUOUS
10
0.9389763779527559
20
1.0986575196850394
11
0.9380526377952756
21
1.0980403149606299
0
LINE
8
BLACK
6
CONTINUOUS
10
0.9380526377952756
20
1.0980403149606299
11
0.9350393700787402
21
1.0974409448818898
0
LINE
8
BLACK
6
CONTINUOUS
10
0.9350393700787402
20
1.0974409448818898
11
0.9173228346456692
21
1.0974409448818898
0
LINE
8
BLACK
6
CONTINUOUS
10
0.9173228346456692
20
1.0974409448818898
11
0.9143095669291338
21
1.0980403149606299
0
LINE
8
BLACK
6
CONTINUOUS
10
0.9143095669291338
20
1.0980403149606299
11
0.9133858267716535
21
1.0986575196850394
0
LINE
8
BLACK
6
CONTINUOUS
10
0.9133858267716535
20
1.0986575196850394
11
0.9124620866141732
21
1.0980403149606299
0
LINE
8
BLACK
6
CONTINUOUS
10
0.9124620866141732
20
1.0980403149606299
11
0.9094488188976377
21
1.0974409448818898
0
LINE
8
BLACK
6
CONTINUOUS
10
0.9094488188976377
20
1.0974409448818898
11
0.8917322834645669
21
1.0974409448818898
0
LINE
8
BLACK
6
CONTINUOUS
10
0.8917322834645669
20
1.0974409448818898
11
0.8887190157480315
21
1.0980403149606299
0
LINE
8
BLACK
6
CONTINUOUS
10
0.8887190157480315
20
1.0980403149606299
11
0.8877952755905512
21
1.0986575196850394
0
LINE
8
BLACK
6
CONTINUOUS
10
0.8877952755905512
20
1.0986575196850394
11
0.8868715354330708
21
1.0980403149606299
0
LINE
8
BLACK
6
CONTINUOUS
10
0.8868715354330708
20
1.0980403149606299
11
0.8838582677165354
21
1.0974409448818898
0
LINE
8
BLACK
6
CONTINUOUS
10
0.8838582677165354
20
1.0974409448818898
11
0.8661417322834646
21
1.0974409448818898
0
LINE
8
BLACK
6
CONTINUOUS
10
0.8661417322834646
20
1.0974409448818898
11
0.8631284645669292
21
1.0980403149606299
0
LINE
8
BLACK
6
CONTINUOUS
10
0.8631284645669292
20
1.0980403149606299
11
0.8622047244094488
21
1.0986575196850394
0
LINE
8
BLACK
6
CONTINUOUS
10
0.8622047244094488
20
1.0986575196850394
11
0.8612809842519685
21
1.0980403149606299
0
LINE
8
BLACK
6
CONTINUOUS
10
0.8612809842519685
20
1.0980403149606299
11
0.8582677165354331
21
1.0974409448818898
0
LINE
8
BLACK
6
CONTINUOUS
10
0.8582677165354331
20
1.0974409448818898
11
0.8405511811023622
21
1.0974409448818898
0
LINE
8
BLACK
6
CONTINUOUS
10
0.8405511811023622
20
1.0974409448818898
11
0.8375379133858267
21
1.0980403149606299
0
LINE
8
BLACK
6
CONTINUOUS
10
0.8375379133858267
20
1.0980403149606299
11
0.8366141732283464
21
1.0986575196850394
0
LINE
8
BLACK
6
CONTINUOUS
10
0.8366141732283464
20
1.0986575196850394
11
0.8356904330708661
21
1.0980403149606299
0
LINE
8
BLACK
6
CONTINUOUS
10
0.8356904330708661
20
1.0980403149606299
11
0.8326771653543307
21
1.0974409448818898
0
LINE
8
BLACK
6
CONTINUOUS
10
0.8326771653543307
20
1.0974409448818898
11
0.8149606299212598
21
1.0974409448818898
0
LINE
8
BLACK
6
CONTINUOUS
10
0.8149606299212598
20
1.0974409448818898
11
0.8119473622047244
21
1.0980403149606299
0
LINE
8
BLACK
6
CONTINUOUS
10
0.8119473622047244
20
1.0980403149606299
11
0.8110236220472441
21
1.0986575196850394
0
LINE
8
BLACK
6
CONTINUOUS
10
0.8110236220472441
20
1.0986575196850394
11
0.8100998818897638
21
1.0980403149606299
0
LINE
8
BLACK
6
CONTINUOUS
10
0.8100998818897638
20
1.0980403149606299
11
0.8070866141732284
21
1.0974409448818898
0
LINE
8
BLACK
6
CONTINUOUS
10
0.8070866141732284
20
1.0974409448818898
11
0.7893700787401574
21
1.0974409448818898
0
LINE
8
BLACK
6
CONTINUOUS
10
0.7893700787401574
20
1.0974409448818898
11
0.786356811023622
21
1.0980403149606299
0
LINE
8
BLACK
6
CONTINUOUS
10
0.786356811023622
20
1.0980403149606299
11
0.7838023228346457
21
1.0997472047244095
0
LINE
8
BLACK
6
CONTINUOUS
10
0.7838023228346457
20
1.0997472047244095
11
0.7820954330708662
21
1.1023016929133858
0
LINE
8
BLACK
6
CONTINUOUS
10
0.7820954330708662
20
1.1023016929133858
11
0.7814960629921259
21
1.1053149606299213
0
LINE
8
BLACK
6
CONTINUOUS
10
0.7814960629921259
20
1.1053149606299213
11
0.7814960629921259
21
1.1624015748031495
0
LINE
8
BLACK
6
CONTINUOUS
10
0.7814960629921259
20
1.1624015748031495
11
0.7820954330708662
21
1.1654148425196851
0
LINE
8
BLACK
6
CONTINUOUS
10
0.7820954330708662
20
1.1654148425196851
11
0.7838023228346457
21
1.1679693307086614
0
LINE
8
BLACK
6
CONTINUOUS
10
0.7838023228346457
20
1.1679693307086614
11
0.786356811023622
21
1.1696762204724409
0
LINE
8
BLACK
6
CONTINUOUS
10
0.786356811023622
20
1.1696762204724409
11
0.7893700787401574
21
1.170275590551181
0
LINE
8
BLACK
6
CONTINUOUS
10
0.7893700787401574
20
1.170275590551181
11
0.8070866141732284
21
1.170275590551181
0
LINE
8
BLACK
6
CONTINUOUS
10
0.8070866141732284
20
1.170275590551181
11
0.8100998818897638
21
1.1696762204724409
0
LINE
8
BLACK
6
CONTINUOUS
10
1.1055132677165354
20
1.2122746456692912
11
1.1080677559055119
21
1.2105677559055117
0
LINE
8
BLACK
6
CONTINUOUS
10
1.1080677559055119
20
1.2105677559055117
11
1.1097746456692914
21
1.2080132677165354
0
LINE
8
BLACK
6
CONTINUOUS
10
1.1097746456692914
20
1.2080132677165354
11
1.1103740157480315
21
1.2050000000000001
0
LINE
8
BLACK
6
CONTINUOUS
10
1.1103740157480315
20
1.2050000000000001
11
1.1103740157480315
21
1.1699999999999999
0
LINE
8
BLACK
6
CONTINUOUS
10
1.1103740157480315
20
1.1699999999999999
11
1.1097746456692914
21
1.1669867322834646
0
LINE
8
BLACK
6
CONTINUOUS
10
1.1097746456692914
20
1.1669867322834646
11
1.1080677559055119
21
1.1644322440944881
0
LINE
8
BLACK
6
CONTINUOUS
10
1.1080677559055119
20
1.1644322440944881
11
1.1055132677165354
21
1.1627253543307086
0
LINE
8
BLACK
6
CONTINUOUS
10
1.1055132677165354
20
1.1627253543307086
11
1.1025
21
1.1621259842519684
0
LINE
8
BLACK
6
CONTINUOUS
10
1.1025
20
1.1621259842519684
11
1.0474999999999999
21
1.1621259842519684
0
LINE
8
BLACK
6
CONTINUOUS
10
1.0474999999999999
20
1.1621259842519684
11
1.0444867322834646
21
1.1627253543307086
0
LINE
8
BLACK
6
CONTINUOUS
10
1.0444867322834646
20
1.1627253543307086
11
1.0419322440944883
21
1.1644322440944881
0
LINE
8
BLACK
6
CONTINUOUS
10
1.0419322440944883
20
1.1644322440944881
11
1.0402253543307087
21
1.1669867322834646
0
LINE
8
BLACK
6
CONTINUOUS
10
1.0402253543307087
20
1.1669867322834646
11
1.0396259842519684
21
1.1699999999999999
0
LINE
8
BLACK
6
CONTINUOUS
10
1.0396259842519684
20
1.1699999999999999
11
1.0396259842519684
21
1.2050000000000001
0
LINE
8
BLACK
6
CONTINUOUS
10
1.0396259842519684
20
1.2050000000000001
11
1.0402253543307087
21
1.2080132677165354
0
LINE
8
BLACK
6
CONTINUOUS
10
1.0402253543307087
20
1.2080132677165354
11
1.0419322440944883
21
1.2105677559055117
0
LINE
8
BLACK
6
CONTINUOUS
10
1.0419322440944883
20
1.2105677559055117
11
1.0444867322834646
21
1.2122746456692912
0
LINE
8
BLACK
6
CONTINUOUS
10
1.0444867322834646
20
1.2122746456692912
11
1.0474999999999999
21
1.2128740157480316
0
LINE
8
BLACK
6
CONTINUOUS
10
1.0474999999999999
20
1.2128740157480316
11
1.1025
21
1.2128740157480316
0
LINE
8
BLACK
6
CONTINUOUS
10
1.1025
20
1.2128740157480316
11
1.1055132677165354
21
1.2122746456692912
0
LINE
8
BLACK
6
CONTINUOUS
10
1.1055132677165354
20
1.3122746456692913
11
1.1080677559055119
21
1.3105677559055118
0
LINE
8
BLACK
6
CONTINUOUS
10
1.1080677559055119
20
1.3105677559055118
11
1.1097746456692914
21
1.3080132677165355
0
LINE
8
BLACK
6
CONTINUOUS
10
1.1097746456692914
20
1.3080132677165355
11
1.1103740157480315
21
1.3049999999999999
0
LINE
8
BLACK
6
CONTINUOUS
10
1.1103740157480315
20
1.3049999999999999
11
1.1103740157480315
21
1.27
0
LINE
8
BLACK
6
CONTINUOUS
10
1.1103740157480315
20
1.27
11
1.1097746456692914
21
1.2669867322834645
0
LINE
8
BLACK
6
CONTINUOUS
10
1.1097746456692914
20
1.2669867322834645
11
1.1080677559055119
21
1.2644322440944882
0
LINE
8
BLACK
6
CONTINUOUS
10
1.1080677559055119
20
1.2644322440944882
11
1.1055132677165354
21
1.2627253543307086
0
LINE
8
BLACK
6
CONTINUOUS
10
1.1055132677165354
20
1.2627253543307086
11
1.1025
21
1.2621259842519685
0
LINE
8
BLACK
6
CONTINUOUS
10
1.1025
20
1.2621259842519685
11
1.0474999999999999
21
1.2621259842519685
0
LINE
8
BLACK
6
CONTINUOUS
10
1.0474999999999999
20
1.2621259842519685
11
1.0444867322834646
21
1.2627253543307086
0
LINE
8
BLACK
6
CONTINUOUS
10
1.0444867322834646
20
1.2627253543307086
11
1.0419322440944883
21
1.2644322440944882
0
LINE
8
BLACK
6
CONTINUOUS
10
1.0419322440944883
20
1.2644322440944882
11
1.0402253543307087
21
1.2669867322834645
0
LINE
8
BLACK
6
CONTINUOUS
10
1.0402253543307087
20
1.2669867322834645
11
1.0396259842519684
21
1.27
0
LINE
8
BLACK
6
CONTINUOUS
10
1.0396259842519684
20
1.27
11
1.0396259842519684
21
1.3049999999999999
0
LINE
8
BLACK
6
CONTINUOUS
10
1.0396259842519684
20
1.3049999999999999
11
1.0402253543307087
21
1.3080132677165355
0
LINE
8
BLACK
6
CONTINUOUS
10
1.0402253543307087
20
1.3080132677165355
11
1.0419322440944883
21
1.3105677559055118
0
LINE
8
BLACK
6
CONTINUOUS
10
1.0419322440944883
20
1.3105677559055118
11
1.0444867322834646
21
1.3122746456692913
0
LINE
8
BLACK
6
CONTINUOUS
10
1.0444867322834646
20
1.3122746456692913
11
1.0474999999999999
21
1.3128740157480314
0
LINE
8
BLACK
6
CONTINUOUS
10
1.0474999999999999
20
1.3128740157480314
11
1.1025
21
1.3128740157480314
0
LINE
8
BLACK
6
CONTINUOUS
10
1.1025
20
1.3128740157480314
11
1.1055132677165354
21
1.3122746456692913
0
LINE
8
BLACK
6
CONTINUOUS
10
0.2141057480314961
20
1.5251920866141733
11
0.2280341338582677
21
1.5228255511811024
0
LINE
8
BLACK
6
CONTINUOUS
10
0.2280341338582677
20
1.5228255511811024
11
0.2416099606299213
21
1.5189144488188977
0
LINE
8
BLACK
6
CONTINUOUS
10
0.2416099606299213
20
1.5189144488188977
11
0.2546625196850394
21
1.5135078740157479
0
LINE
8
BLACK
6
CONTINUOUS
10
0.2546625196850394
20
1.5135078740157479
11
0.2670276771653543
21
1.5066738976377951
0
LINE
8
BLACK
6
CONTINUOUS
10
0.2670276771653543
20
1.5066738976377951
11
0.2785498818897638
21
1.498498464566929
0
LINE
8
BLACK
6
CONTINUOUS
10
0.2785498818897638
20
1.498498464566929
11
0.2890843307086614
21
1.4890843307086614
0
LINE
8
BLACK
6
CONTINUOUS
10
0.2890843307086614
20
1.4890843307086614
11
0.2984984645669291
21
1.4785498818897638
0
LINE
8
BLACK
6
CONTINUOUS
10
0.2984984645669291
20
1.4785498818897638
11
0.3066738976377953
21
1.4670276771653543
0
LINE
8
BLACK
6
CONTINUOUS
10
0.3066738976377953
20
1.4670276771653543
11
0.313507874015748
21
1.4546625196850393
0
LINE
8
BLACK
6
CONTINUOUS
10
0.313507874015748
20
1.4546625196850393
11
0.3189144488188976
21
1.4416099606299213
0
LINE
8
BLACK
6
CONTINUOUS
10
0.3189144488188976
20
1.4416099606299213
11
0.3228255511811023
21
1.4280341338582676
0
LINE
8
BLACK
6
CONTINUOUS
10
0.3228255511811023
20
1.4280341338582676
11
0.3251920866141732
21
1.414105748031496
0
LINE
8
BLACK
6
CONTINUOUS
10
0.3251920866141732
20
1.414105748031496
11
0.3259842519685039
21
1.3999999999999999
0
LINE
8
BLACK
6
CONTINUOUS
10
0.3259842519685039
20
1.3999999999999999
11
0.3251920866141732
21
1.3858942519685038
0
LINE
8
BLACK
6
CONTINUOUS
10
0.3251920866141732
20
1.3858942519685038
11
0.3228255511811023
21
1.3719658661417322
0
LINE
8
BLACK
6
CONTINUOUS
10
0.3228255511811023
20
1.3719658661417322
11
0.3189144488188976
21
1.3583900393700787
0
LINE
8
BLACK
6
CONTINUOUS
10
0.3189144488188976
20
1.3583900393700787
11
0.313507874015748
21
1.3453374803149607
0
LINE
8
BLACK
6
CONTINUOUS
10
0.313507874015748
20
1.3453374803149607
11
0.3066738976377953
21
1.3329723228346457
0
LINE
8
BLACK
6
CONTINUOUS
10
0.3066738976377953
20
1.3329723228346457
11
0.2984984645669291
21
1.3214501181102363
0
LINE
8
BLACK
6
CONTINUOUS
10
0.2984984645669291
20
1.3214501181102363
11
0.2890843307086614
21
1.3109156692913386
0
LINE
8
BLACK
6
CONTINUOUS
10
0.2890843307086614
20
1.3109156692913386
11
0.2785498818897638
21
1.3015015354330708
0
LINE
8
BLACK
6
CONTINUOUS
10
0.2785498818897638
20
1.3015015354330708
11
0.2670276771653543
21
1.2933261023622047
0
LINE
8
BLACK
6
CONTINUOUS
10
0.2670276771653543
20
1.2933261023622047
11
0.2546625196850394
21
1.2864921259842519
0
LINE
8
BLACK
6
CONTINUOUS
10
0.2546625196850394
20
1.2864921259842519
11
0.2416099606299213
21
1.2810855511811023
0
LINE
8
BLACK
6
CONTINUOUS
10
0.2416099606299213
20
1.2810855511811023
11
0.2280341338582677
21
1.2771744488188976
0
LINE
8
BLACK
6
CONTINUOUS
10
0.2280341338582677
20
1.2771744488188976
11
0.2141057480314961
21
1.2748079133858268
0
LINE
8
BLACK
6
CONTINUOUS
10
0.2141057480314961
20
1.2748079133858268
11
0.2
21
1.274015748031496
0
LINE
8
BLACK
6
CONTINUOUS
10
0.2
20
1.274015748031496
11
0.1858942519685039
21
1.2748079133858268
0
LINE
8
BLACK
6
CONTINUOUS
10
0.1858942519685039
20
1.2748079133858268
11
0.1719658661417323
21
1.2771744488188976
0
LINE
8
BLACK
6
CONTINUOUS
10
0.1719658661417323
20
1.2771744488188976
11
0.1583900393700787
21
1.2810855511811023
0
LINE
8
BLACK
6
CONTINUOUS
10
0.1583900393700787
20
1.2810855511811023
11
0.1453374803149606
21
1.2864921259842519
0
LINE
8
BLACK
6
CONTINUOUS
10
0.1453374803149606
20
1.2864921259842519
11
0.1329723228346457
21
1.2933261023622047
0
LINE
8
BLACK
6
CONTINUOUS
10
0.1329723228346457
20
1.2933261023622047
11
0.1214501181102362
21
1.3015015354330708
0
LINE
8
BLACK
6
CONTINUOUS
10
0.1214501181102362
20
1.3015015354330708
11
0.1109156692913386
21
1.3109156692913386
0
LINE
8
BLACK
6
CONTINUOUS
10
0.1109156692913386
20
1.3109156692913386
11
0.1015015354330709
21
1.3214501181102363
0
LINE
8
BLACK
6
CONTINUOUS
10
0.1015015354330709
20
1.3214501181102363
11
0.0933261023622047
21
1.3329723228346457
0
LINE
8
BLACK
6
CONTINUOUS
10
0.0933261023622047
20
1.3329723228346457
11
0.086492125984252
21
1.3453374803149607
0
LINE
8
BLACK
6
CONTINUOUS
10
0.086492125984252
20
1.3453374803149607
11
0.0810855511811024
21
1.3583900393700787
0
LINE
8
BLACK
6
CONTINUOUS
10
0.0810855511811024
20
1.3583900393700787
11
0.0771744488188976
21
1.3719658661417322
0
LINE
8
BLACK
6
CONTINUOUS
10
0.0771744488188976
20
1.3719658661417322
11
0.0748079133858268
21
1.3858942519685038
0
LINE
8
BLACK
6
CONTINUOUS
10
0.0748079133858268
20
1.3858942519685038
11
0.0740157480314961
21
1.3999999999999999
0
LINE
8
BLACK
6
CONTINUOUS
10
0.0740157480314961
20
1.3999999999999999
11
0.0748079133858268
21
1.414105748031496
0
LINE
8
BLACK
6
CONTINUOUS
10
0.0748079133858268
20
1.414105748031496
11
0.0771744488188976
21
1.4280341338582676
0
LINE
8
BLACK
6
CONTINUOUS
10
0.0771744488188976
20
1.4280341338582676
11
0.0810855511811024
21
1.4416099606299213
0
LINE
8
BLACK
6
CONTINUOUS
10
0.0810855511811024
20
1.4416099606299213
11
0.086492125984252
21
1.4546625196850393
0
LINE
8
BLACK
6
CONTINUOUS
10
0.086492125984252
20
1.4546625196850393
11
0.0933261023622047
21
1.4670276771653543
0
LINE
8
BLACK
6
CONTINUOUS
10
0.0933261023622047
20
1.4670276771653543
11
0.1015015354330709
21
1.4785498818897638
0
LINE
8
BLACK
6
CONTINUOUS
10
0.1015015354330709
20
1.4785498818897638
11
0.1109156692913386
21
1.4890843307086614
0
LINE
8
BLACK
6
CONTINUOUS
10
0.1109156692913386
20
1.4890843307086614
11
0.1214501181102362
21
1.498498464566929
0
LINE
8
BLACK
6
CONTINUOUS
10
0.1214501181102362
20
1.498498464566929
11
0.1329723228346457
21
1.5066738976377951
0
LINE
8
BLACK
6
CONTINUOUS
10
0.1329723228346457
20
1.5066738976377951
11
0.1453374803149606
21
1.5135078740157479
0
LINE
8
BLACK
6
CONTINUOUS
10
0.1453374803149606
20
1.5135078740157479
11
0.1583900393700787
21
1.5189144488188977
0
LINE
8
BLACK
6
CONTINUOUS
10
0.1583900393700787
20
1.5189144488188977
11
0.1719658661417323
21
1.5228255511811024
0
LINE
8
BLACK
6
CONTINUOUS
10
0.1719658661417323
20
1.5228255511811024
11
0.1858942519685039
21
1.5251920866141733
0
LINE
8
BLACK
6
CONTINUOUS
10
0.1858942519685039
20
1.5251920866141733
11
0.2
21
1.5259842519685038
0
LINE
8
BLACK
6
CONTINUOUS
10
0.2
20
1.5259842519685038
11
0.2141057480314961
21
1.5251920866141733
0
LINE
8
BLACK
6
CONTINUOUS
10
1.414105748031496
20
1.5251920866141733
11
1.4280341338582676
21
1.5228255511811024
0
LINE
8
BLACK
6
CONTINUOUS
10
1.4280341338582676
20
1.5228255511811024
11
1.4416099606299213
21
1.5189144488188977
0
LINE
8
BLACK
6
CONTINUOUS
10
1.4416099606299213
20
1.5189144488188977
11
1.4546625196850393
21
1.5135078740157479
0
LINE
8
BLACK
6
CONTINUOUS
10
1.4546625196850393
20
1.5135078740157479
11
1.4670276771653543
21
1.5066738976377951
0
LINE
8
BLACK
6
CONTINUOUS
10
1.4670276771653543
20
1.5066738976377951
11
1.4785498818897638
21
1.498498464566929
0
LINE
8
BLACK
6
CONTINUOUS
10
1.4785498818897638
20
1.498498464566929
11
1.4890843307086614
21
1.4890843307086614
0
LINE
8
BLACK
6
CONTINUOUS
10
1.4890843307086614
20
1.4890843307086614
11
1.498498464566929
21
1.4785498818897638
0
LINE
8
BLACK
6
CONTINUOUS
10
1.498498464566929
20
1.4785498818897638
11
1.5066738976377951
21
1.4670276771653543
0
LINE
8
BLACK
6
CONTINUOUS
10
1.5066738976377951
20
1.4670276771653543
11
1.5135078740157479
21
1.4546625196850393
0
LINE
8
BLACK
6
CONTINUOUS
10
1.5135078740157479
20
1.4546625196850393
11
1.5189144488188977
21
1.4416099606299213
0
LINE
8
BLACK
6
CONTINUOUS
10
1.5189144488188977
20
1.4416099606299213
11
1.5228255511811024
21
1.4280341338582676
0
LINE
8
BLACK
6
CONTINUOUS
10
1.5228255511811024
20
1.4280341338582676
11
1.5251920866141733
21
1.414105748031496
0
LINE
8
BLACK
6
CONTINUOUS
10
1.5251920866141733
20
1.414105748031496
11
1.5259842519685038
21
1.3999999999999999
0
LINE
8
BLACK
6
CONTINUOUS
10
1.5259842519685038
20
1.3999999999999999
11
1.5251920866141733
21
1.3858942519685038
0
LINE
8
BLACK
6
CONTINUOUS
10
1.5251920866141733
20
1.3858942519685038
11
1.5228255511811024
21
1.3719658661417322
0
LINE
8
BLACK
6
CONTINUOUS
10
1.5228255511811024
20
1.3719658661417322
11
1.5189144488188977
21
1.3583900393700787
0
LINE
8
BLACK
6
CONTINUOUS
10
1.5189144488188977
20
1.3583900393700787
11
1.5135078740157479
21
1.3453374803149607
0
LINE
8
BLACK
6
CONTINUOUS
10
1.5135078740157479
20
1.3453374803149607
11
1.5066738976377951
21
1.3329723228346457
0
LINE
8
BLACK
6
CONTINUOUS
10
1.5066738976377951
20
1.3329723228346457
11
1.498498464566929
21
1.3214501181102363
0
LINE
8
BLACK
6
CONTINUOUS
10
1.498498464566929
20
1.3214501181102363
11
1.4890843307086614
21
1.3109156692913386
0
LINE
8
BLACK
6
CONTINUOUS
10
1.4890843307086614
20
1.3109156692913386
11
1.4785498818897638
21
1.3015015354330708
0
LINE
8
BLACK
6
CONTINUOUS
10
1.4785498818897638
20
1.3015015354330708
11
1.4670276771653543
21
1.2933261023622047
0
LINE
8
BLACK
6
CONTINUOUS
10
1.4670276771653543
20
1.2933261023622047
11
1.4546625196850393
21
1.2864921259842519
0
LINE
8
BLACK
6
CONTINUOUS
10
1.4546625196850393
20
1.2864921259842519
11
1.4416099606299213
21
1.2810855511811023
0
LINE
8
BLACK
6
CONTINUOUS
10
1.4416099606299213
20
1.2810855511811023
11
1.4280341338582676
21
1.2771744488188976
0
LINE
8
BLACK
6
CONTINUOUS
10
1.4280341338582676
20
1.2771744488188976
11
1.414105748031496
21
1.2748079133858268
0
LINE
8
BLACK
6
CONTINUOUS
10
1.414105748031496
20
1.2748079133858268
11
1.3999999999999999
21
1.274015748031496
0
LINE
8
BLACK
6
CONTINUOUS
10
1.3999999999999999
20
1.274015748031496
11
1.3858942519685038
21
1.2748079133858268
0
LINE
8
BLACK
6
CONTINUOUS
10
1.3858942519685038
20
1.2748079133858268
11
1.3719658661417322
21
1.2771744488188976
0
LINE
8
BLACK
6
CONTINUOUS
10
1.3719658661417322
20
1.2771744488188976
11
1.3583900393700787
21
1.2810855511811023
0
LINE
8
BLACK
6
CONTINUOUS
10
1.3583900393700787
20
1.2810855511811023
11
1.3453374803149607
21
1.2864921259842519
0
LINE
8
BLACK
6
CONTINUOUS
10
1.3453374803149607
20
1.2864921259842519
11
1.3329723228346457
21
1.2933261023622047
0
LINE
8
BLACK
6
CONTINUOUS
10
1.3329723228346457
20
1.2933261023622047
11
1.3214501181102363
21
1.3015015354330708
0
LINE
8
BLACK
6
CONTINUOUS
10
1.3214501181102363
20
1.3015015354330708
11
1.3109156692913386
21
1.3109156692913386
0
LINE
8
BLACK
6
CONTINUOUS
10
1.3109156692913386
20
1.3109156692913386
11
1.3015015354330708
21
1.3214501181102363
0
LINE
8
BLACK
6
CONTINUOUS
10
1.3015015354330708
20
1.3214501181102363
11
1.2933261023622047
21
1.3329723228346457
0
LINE
8
BLACK
6
CONTINUOUS
10
1.2933261023622047
20
1.3329723228346457
11
1.2864921259842519
21
1.3453374803149607
0
LINE
8
BLACK
6
CONTINUOUS
10
1.2864921259842519
20
1.3453374803149607
11
1.2810855511811023
21
1.3583900393700787
0
LINE
8
BLACK
6
CONTINUOUS
10
1.2810855511811023
20
1.3583900393700787
11
1.2771744488188976
21
1.3719658661417322
0
LINE
8
BLACK
6
CONTINUOUS
10
1.2771744488188976
20
1.3719658661417322
11
1.2748079133858268
21
1.3858942519685038
0
LINE
8
BLACK
6
CONTINUOUS
10
1.2748079133858268
20
1.3858942519685038
11
1.274015748031496
21
1.3999999999999999
0
LINE
8
BLACK
6
CONTINUOUS
10
1.274015748031496
20
1.3999999999999999
11
1.2748079133858268
21
1.414105748031496
0
LINE
8
BLACK
6
CONTINUOUS
10
1.2748079133858268
20
1.414105748031496
11
1.2771744488188976
21
1.4280341338582676
0
LINE
8
BLACK
6
CONTINUOUS
10
1.2771744488188976
20
1.4280341338582676
11
1.2810855511811023
21
1.4416099606299213
0
LINE
8
BLACK
6
CONTINUOUS
10
1.2810855511811023
20
1.4416099606299213
11
1.2864921259842519
21
1.4546625196850393
0
LINE
8
BLACK
6
CONTINUOUS
10
1.2864921259842519
20
1.4546625196850393
11
1.2933261023622047
21
1.4670276771653543
0
LINE
8
BLACK
6
CONTINUOUS
10
1.2933261023622047
20
1.4670276771653543
11
1.3015015354330708
21
1.4785498818897638
0
LINE
8
BLACK
6
CONTINUOUS
10
1.3015015354330708
20
1.4785498818897638
11
1.3109156692913386
21
1.4890843307086614
0
LINE
8
BLACK
6
CONTINUOUS
10
1.3109156692913386
20
1.4890843307086614
11
1.3214501181102363
21
1.498498464566929
0
LINE
8
BLACK
6
CONTINUOUS
10
1.3214501181102363
20
1.498498464566929
11
1.3329723228346457
21
1.5066738976377951
0
LINE
8
BLACK
6
CONTINUOUS
10
1.3329723228346457
20
1.5066738976377951
11
1.3453374803149607
21
1.5135078740157479
0
LINE
8
BLACK
6
CONTINUOUS
10
1.3453374803149607
20
1.5135078740157479
11
1.3583900393700787
21
1.5189144488188977
0
LINE
8
BLACK
6
CONTINUOUS
10
1.3583900393700787
20
1.5189144488188977
11
1.3719658661417322
21
1.5228255511811024
0
LINE
8
BLACK
6
CONTINUOUS
10
1.3719658661417322
20
1.5228255511811024
11
1.3858942519685038
21
1.5251920866141733
0
LINE
8
BLACK
6
CONTINUOUS
10
1.3858942519685038
20
1.5251920866141733
11
1.3999999999999999
21
1.5259842519685038
0
LINE
8
BLACK
6
CONTINUOUS
10
1.3999999999999999
20
1.5259842519685038
11
1.414105748031496
21
1.5251920866141733
0
LINE
8
BLACK
6
CONTINUOUS
10
0.8100998818897638
20
1.4019596850393701
11
0.8110236220472441
21
1.4013424409448818
0
LINE
8
BLACK
6
CONTINUOUS
10
0.8110236220472441
20
1.4013424409448818
11
0.8119473622047244
21
1.4019596850393701
0
LINE
8
BLACK
6
CONTINUOUS
10
0.8119473622047244
20
1.4019596850393701
11
0.8149606299212598
21
1.4025590551181102
0
LINE
8
BLACK
6
CONTINUOUS
10
0.8149606299212598
20
1.4025590551181102
11
0.8326771653543307
21
1.4025590551181102
0
LINE
8
BLACK
6
CONTINUOUS
10
0.8326771653543307
20
1.4025590551181102
11
0.8356904330708661
21
1.4019596850393701
0
LINE
8
BLACK
6
CONTINUOUS
10
0.8356904330708661
20
1.4019596850393701
11
0.8366141732283464
21
1.4013424409448818
0
LINE
8
BLACK
6
CONTINUOUS
10
0.8366141732283464
20
1.4013424409448818
11
0.8375379133858267
21
1.4019596850393701
0
LINE
8
BLACK
6
CONTINUOUS
10
0.8375379133858267
20
1.4019596850393701
11
0.8405511811023622
21
1.4025590551181102
0
LINE
8
BLACK
6
CONTINUOUS
10
0.8405511811023622
20
1.4025590551181102
11
0.8582677165354331
21
1.4025590551181102
0
LINE
8
BLACK
6
CONTINUOUS
10
0.8582677165354331
20
1.4025590551181102
11
0.8612809842519685
21
1.4019596850393701
0
LINE
8
BLACK
6
CONTINUOUS
10
0.8612809842519685
20
1.4019596850393701
11
0.8622047244094488
21
1.4013424409448818
0
LINE
8
BLACK
6
CONTINUOUS
10
0.8622047244094488
20
1.4013424409448818
11
0.8631284645669292
21
1.4019596850393701
0
LINE
8
BLACK
6
CONTINUOUS
10
0.8631284645669292
20
1.4019596850393701
11
0.8661417322834646
21
1.4025590551181102
0
LINE
8
BLACK
6
CONTINUOUS
10
0.8661417322834646
20
1.4025590551181102
11
0.8838582677165354
21
1.4025590551181102
0
LINE
8
BLACK
6
CONTINUOUS
10
0.8838582677165354
20
1.4025590551181102
11
0.8868715354330708
21
1.4019596850393701
0
LINE
8
BLACK
6
CONTINUOUS
10
0.8868715354330708
20
1.4019596850393701
11
0.8877952755905512
21
1.4013424409448818
0
LINE
8
BLACK
6
CONTINUOUS
10
0.8877952755905512
20
1.4013424409448818
11
0.8887190157480315
21
1.4019596850393701
0
LINE
8
BLACK
6
CONTINUOUS
10
0.8887190157480315
20
1.4019596850393701
11
0.8917322834645669
21
1.4025590551181102
0
LINE
8
BLACK
6
CONTINUOUS
10
0.8917322834645669
20
1.4025590551181102
11
0.9094488188976377
21
1.4025590551181102
0
LINE
8
BLACK
6
CONTINUOUS
10
0.9094488188976377
20
1.4025590551181102
11
0.9124620866141732
21
1.4019596850393701
0
LINE
8
BLACK
6
CONTINUOUS
10
0.9124620866141732
20
1.4019596850393701
11
0.9133858267716535
21
1.4013424409448818
0
LINE
8
BLACK
6
CONTINUOUS
10
0.9133858267716535
20
1.4013424409448818
11
0.9143095669291338
21
1.4019596850393701
0
LINE
8
BLACK
6
CONTINUOUS
10
0.9143095669291338
20
1.4019596850393701
11
0.9173228346456692
21
1.4025590551181102
0
LINE
8
BLACK
6
CONTINUOUS
10
0.9173228346456692
20
1.4025590551181102
11
0.9350393700787402
21
1.4025590551181102
0
LINE
8
BLACK
6
CONTINUOUS
10
0.9350393700787402
20
1.4025590551181102
11
0.9380526377952756
21
1.4019596850393701
0
LINE
8
BLACK
6
CONTINUOUS
10
0.9380526377952756
20
1.4019596850393701
11
0.9389763779527559
21
1.4013424409448818
0
LINE
8
BLACK
6
CONTINUOUS
10
0.9389763779527559
20
1.4013424409448818
11
0.9399001181102362
21
1.4019596850393701
0
LINE
8
BLACK
6
CONTINUOUS
10
0.9399001181102362
20
1.4019596850393701
11
0.9429133858267716
21
1.4025590551181102
0
LINE
8
BLACK
6
CONTINUOUS
10
0.9429133858267716
20
1.4025590551181102
11
0.9606299212598425
21
1.4025590551181102
0
LINE
8
BLACK
6
CONTINUOUS
10
0.9606299212598425
20
1.4025590551181102
11
0.9636431889763779
21
1.4019596850393701
0
LINE
8
BLACK
6
CONTINUOUS
10
0.9636431889763779
20
1.4019596850393701
11
0.9661976771653543
21
1.4002527952755905
0
LINE
8
BLACK
6
CONTINUOUS
10
0.9661976771653543
20
1.4002527952755905
11
0.9679045669291338
21
1.3976983070866142
0
LINE
8
BLACK
6
CONTINUOUS
10
0.9679045669291338
20
1.3976983070866142
11
0.968503937007874
21
1.3946850393700787
0
LINE
8
BLACK
6
CONTINUOUS
10
0.968503937007874
20
1.3946850393700787
11
0.968503937007874
21
1.3375984251968505
0
LINE
8
BLACK
6
CONTINUOUS
10
0.968503937007874
20
1.3375984251968505
11
0.9679045669291338
21
1.3345851574803149
0
LINE
8
BLACK
6
CONTINUOUS
10
0.9679045669291338
20
1.3345851574803149
11
0.9661976771653543
21
1.3320306692913386
0
LINE
8
BLACK
6
CONTINUOUS
10
0.9661976771653543
20
1.3320306692913386
11
0.9636431889763779
21
1.3303237795275591
0
LINE
8
BLACK
6
CONTINUOUS
10
0.9636431889763779
20
1.3303237795275591
11
0.9606299212598425
21
1.329724409448819
0
LINE
8
BLACK
6
CONTINUOUS
10
0.9606299212598425
20
1.329724409448819
11
0.9429133858267716
21
1.329724409448819
0
LINE
8
BLACK
6
CONTINUOUS
10
0.9429133858267716
20
1.329724409448819
11
0.9399001181102362
21
1.3303237795275591
0
LINE
8
BLACK
6
CONTINUOUS
10
0.9399001181102362
20
1.3303237795275591
11
0.9389763779527559
21
1.3309409842519684
0
LINE
8
BLACK
6
CONTINUOUS
10
0.9389763779527559
20
1.3309409842519684
11
0.9380526377952756
21
1.3303237795275591
0
LINE
8
BLACK
6
CONTINUOUS
10
0.9380526377952756
20
1.3303237795275591
11
0.9350393700787402
21
1.329724409448819
0
LINE
8
BLACK
6
CONTINUOUS
10
0.9350393700787402
20
1.329724409448819
11
0.9173228346456692
21
1.329724409448819
0
LINE
8
BLACK
6
CONTINUOUS
10
0.9173228346456692
20
1.329724409448819
11
0.9143095669291338
21
1.3303237795275591
0
LINE
8
BLACK
6
CONTINUOUS
10
0.9143095669291338
20
1.3303237795275591
11
0.9133858267716535
21
1.3309409842519684
0
LINE
8
BLACK
6
CONTINUOUS
10
0.9133858267716535
20
1.3309409842519684
11
0.9124620866141732
21
1.3303237795275591
0
LINE
8
BLACK
6
CONTINUOUS
10
0.9124620866141732
20
1.3303237795275591
11
0.9094488188976377
21
1.329724409448819
0
LINE
8
BLACK
6
CONTINUOUS
10
0.9094488188976377
20
1.329724409448819
11
0.8917322834645669
21
1.329724409448819
0
LINE
8
BLACK
6
CONTINUOUS
10
0.8917322834645669
20
1.329724409448819
11
0.8887190157480315
21
1.3303237795275591
0
LINE
8
BLACK
6
CONTINUOUS
10
0.8887190157480315
20
1.3303237795275591
11
0.8877952755905512
21
1.3309409842519684
0
LINE
8
BLACK
6
CONTINUOUS
10
0.8877952755905512
20
1.3309409842519684
11
0.8868715354330708
21
1.3303237795275591
0
LINE
8
BLACK
6
CONTINUOUS
10
0.8868715354330708
20
1.3303237795275591
11
0.8838582677165354
21
1.329724409448819
0
LINE
8
BLACK
6
CONTINUOUS
10
0.8838582677165354
20
1.329724409448819
11
0.8661417322834646
21
1.329724409448819
0
LINE
8
BLACK
6
CONTINUOUS
10
0.8661417322834646
20
1.329724409448819
11
0.8631284645669292
21
1.3303237795275591
0
LINE
8
BLACK
6
CONTINUOUS
10
0.8631284645669292
20
1.3303237795275591
11
0.8622047244094488
21
1.3309409842519684
0
LINE
8
BLACK
6
CONTINUOUS
10
0.8622047244094488
20
1.3309409842519684
11
0.8612809842519685
21
1.3303237795275591
0
LINE
8
BLACK
6
CONTINUOUS
10
0.8612809842519685
20
1.3303237795275591
11
0.8582677165354331
21
1.329724409448819
0
LINE
8
BLACK
6
CONTINUOUS
10
0.8582677165354331
20
1.329724409448819
11
0.8405511811023622
21
1.329724409448819
0
LINE
8
BLACK
6
CONTINUOUS
10
0.8405511811023622
20
1.329724409448819
11
0.8375379133858267
21
1.3303237795275591
0
LINE
8
BLACK
6
CONTINUOUS
10
0.8375379133858267
20
1.3303237795275591
11
0.8366141732283464
21
1.3309409842519684
0
LINE
8
BLACK
6
CONTINUOUS
10
0.8366141732283464
20
1.3309409842519684
11
0.8356904330708661
21
1.3303237795275591
0
LINE
8
BLACK
6
CONTINUOUS
10
0.8356904330708661
20
1.3303237795275591
11
0.8326771653543307
21
1.329724409448819
0
LINE
8
BLACK
6
CONTINUOUS
10
0.8326771653543307
20
1.329724409448819
11
0.8149606299212598
21
1.329724409448819
0
LINE
8
BLACK
6
CONTINUOUS
10
0.8149606299212598
20
1.329724409448819
11
0.8119473622047244
21
1.3303237795275591
0
LINE
8
BLACK
6
CONTINUOUS
10
0.8119473622047244
20
1.3303237795275591
11
0.8110236220472441
21
1.3309409842519684
0
LINE
8
BLACK
6
CONTINUOUS
10
0.8110236220472441
20
1.3309409842519684
11
0.8100998818897638
21
1.3303237795275591
0
LINE
8
BLACK
6
CONTINUOUS
10
0.8100998818897638
20
1.3303237795275591
11
0.8070866141732284
21
1.329724409448819
0
LINE
8
BLACK
6
CONTINUOUS
10
0.8070866141732284
20
1.329724409448819
11
0.7893700787401574
21
1.329724409448819
0
LINE
8
BLACK
6
CONTINUOUS
10
0.7893700787401574
20
1.329724409448819
11
0.786356811023622
21
1.3303237795275591
0
LINE
8
BLACK
6
CONTINUOUS
10
0.786356811023622
20
1.3303237795275591
11
0.7838023228346457
21
1.3320306692913386
0
LINE
8
BLACK
6
CONTINUOUS
10
0.7838023228346457
20
1.3320306692913386
11
0.7820954330708662
21
1.3345851574803149
0
LINE
8
BLACK
6
CONTINUOUS
10
0.7820954330708662
20
1.3345851574803149
11
0.7814960629921259
21
1.3375984251968505
0
LINE
8
BLACK
6
CONTINUOUS
10
0.7814960629921259
20
1.3375984251968505
11
0.7814960629921259
21
1.3946850393700787
0
LINE
8
BLACK
6
CONTINUOUS
10
0.7814960629921259
20
1.3946850393700787
11
0.7820954330708662
21
1.3976983070866142
0
LINE
8
BLACK
6
CONTINUOUS
10
0.7820954330708662
20
1.3976983070866142
11
0.7838023228346457
21
1.4002527952755905
0
LINE
8
BLACK
6
CONTINUOUS
10
0.7838023228346457
20
1.4002527952755905
11
0.786356811023622
21
1.4019596850393701
0
LINE
8
BLACK
6
CONTINUOUS
10
0.786356811023622
20
1.4019596850393701
11
0.7893700787401574
21
1.4025590551181102
0
LINE
8
BLACK
6
CONTINUOUS
10
0.7893700787401574
20
1.4025590551181102
11
0.8070866141732284
21
1.4025590551181102
0
LINE
8
BLACK
6
CONTINUOUS
10
0.8070866141732284
20
1.4025590551181102
11
0.8100998818897638
21
1.4019596850393701
0
LINE
8
BLACK
6
CONTINUOUS
10
0.5330132677165355
20
1.4122746456692914
11
0.5355677559055118
21
1.4105677559055119
0
LINE
8
BLACK
6
CONTINUOUS
10
0.5355677559055118
20
1.4105677559055119
11
0.5372746456692913
21
1.4080132677165353
0
LINE
8
BLACK
6
CONTINUOUS
10
0.5372746456692913
20
1.4080132677165353
11
0.5378740157480315
21
1.405
0
LINE
8
BLACK
6
CONTINUOUS
10
0.5378740157480315
20
1.405
11
0.5378740157480315
21
1.345
0
LINE
8
BLACK
6
CONTINUOUS
10
0.5378740157480315
20
1.345
11
0.5372746456692913
21
1.3419867322834644
0
LINE
8
BLACK
6
CONTINUOUS
10
0.5372746456692913
20
1.3419867322834644
11
0.5355677559055118
21
1.3394322440944881
0
LINE
8
BLACK
6
CONTINUOUS
10
0.5355677559055118
20
1.3394322440944881
11
0.5330132677165355
21
1.3377253543307086
0
LINE
8
BLACK
6
CONTINUOUS
10
0.5330132677165355
20
1.3377253543307086
11
0.53
21
1.3371259842519685
0
LINE
8
BLACK
6
CONTINUOUS
10
0.53
20
1.3371259842519685
11
0.47
21
1.3371259842519685
0
LINE
8
BLACK
6
CONTINUOUS
10
0.47
20
1.3371259842519685
11
0.4669867322834645
21
1.3377253543307086
0
LINE
8
BLACK
6
CONTINUOUS
10
0.4669867322834645
20
1.3377253543307086
11
0.4644322440944882
21
1.3394322440944881
0
LINE
8
BLACK
6
CONTINUOUS
10
0.4644322440944882
20
1.3394322440944881
11
0.4627253543307087
21
1.3419867322834644
0
LINE
8
BLACK
6
CONTINUOUS
10
0.4627253543307087
20
1.3419867322834644
11
0.4621259842519685
21
1.345
0
LINE
8
BLACK
6
CONTINUOUS
10
0.4621259842519685
20
1.345
11
0.4621259842519685
21
1.405
0
LINE
8
BLACK
6
CONTINUOUS
10
0.4621259842519685
20
1.405
11
0.4627253543307087
21
1.4080132677165353
0
LINE
8
BLACK
6
CONTINUOUS
10
0.4627253543307087
20
1.4080132677165353
11
0.4644322440944882
21
1.4105677559055119
0
LINE
8
BLACK
6
CONTINUOUS
10
0.4644322440944882
20
1.4105677559055119
11
0.4669867322834645
21
1.4122746456692914
0
LINE
8
BLACK
6
CONTINUOUS
10
0.4669867322834645
20
1.4122746456692914
11
0.47
21
1.4128740157480315
0
LINE
8
BLACK
6
CONTINUOUS
10
0.47
20
1.4128740157480315
11
0.53
21
1.4128740157480315
0
LINE
8
BLACK
6
CONTINUOUS
10
0.53
20
1.4128740157480315
11
0.5330132677165355
21
1.4122746456692914
0
LINE
8
BLACK
6
CONTINUOUS
10
0.6330132677165354
20
1.4122746456692914
11
0.6355677559055118
21
1.4105677559055119
0
LINE
8
BLACK
6
CONTINUOUS
10
0.6355677559055118
20
1.4105677559055119
11
0.6372746456692914
21
1.4080132677165353
0
LINE
8
BLACK
6
CONTINUOUS
10
0.6372746456692914
20
1.4080132677165353
11
0.6378740157480315
21
1.405
0
LINE
8
BLACK
6
CONTINUOUS
10
0.6378740157480315
20
1.405
11
0.6378740157480315
21
1.345
0
LINE
8
BLACK
6
CONTINUOUS
10
0.6378740157480315
20
1.345
11
0.6372746456692914
21
1.3419867322834644
0
LINE
8
BLACK
6
CONTINUOUS
10
0.6372746456692914
20
1.3419867322834644
11
0.6355677559055118
21
1.3394322440944881
0
LINE
8
BLACK
6
CONTINUOUS
10
0.6355677559055118
20
1.3394322440944881
11
0.6330132677165354
21
1.3377253543307086
0
LINE
8
BLACK
6
CONTINUOUS
10
0.6330132677165354
20
1.3377253543307086
11
0.63
21
1.3371259842519685
0
LINE
8
BLACK
6
CONTINUOUS
10
0.63
20
1.3371259842519685
11
0.57
21
1.3371259842519685
0
LINE
8
BLACK
6
CONTINUOUS
10
0.57
20
1.3371259842519685
11
0.5669867322834645
21
1.3377253543307086
0
LINE
8
BLACK
6
CONTINUOUS
10
0.5669867322834645
20
1.3377253543307086
11
0.5644322440944882
21
1.3394322440944881
0
LINE
8
BLACK
6
CONTINUOUS
10
0.5644322440944882
20
1.3394322440944881
11
0.5627253543307087
21
1.3419867322834644
0
LINE
8
BLACK
6
CONTINUOUS
10
0.5627253543307087
20
1.3419867322834644
11
0.5621259842519685
21
1.345
0
LINE
8
BLACK
6
CONTINUOUS
10
0.5621259842519685
20
1.345
11
0.5621259842519685
21
1.405
0
LINE
8
BLACK
6
CONTINUOUS
10
0.5621259842519685
20
1.405
11
0.5627253543307087
21
1.4080132677165353
0
LINE
8
BLACK
6
CONTINUOUS
10
0.5627253543307087
20
1.4080132677165353
11
0.5644322440944882
21
1.4105677559055119
0
LINE
8
BLACK
6
CONTINUOUS
10
0.5644322440944882
20
1.4105677559055119
11
0.5669867322834645
21
1.4122746456692914
0
LINE
8
BLACK
6
CONTINUOUS
10
0.5669867322834645
20
1.4122746456692914
11
0.57
21
1.4128740157480315
0
LINE
8
BLACK
6
CONTINUOUS
10
0.57
20
1.4128740157480315
11
0.63
21
1.4128740157480315
0
LINE
8
BLACK
6
CONTINUOUS
10
0.63
20
1.4128740157480315
11
0.6330132677165354
21
1.4122746456692914
0
LINE
8
BLACK
6
CONTINUOUS
10
1.1055132677165354
20
1.3872746456692913
11
1.1080677559055119
21
1.3855677559055117
0
LINE
8
BLACK
6
CONTINUOUS
10
1.1080677559055119
20
1.3855677559055117
11
1.1097746456692914
21
1.3830132677165354
0
LINE
8
BLACK
6
CONTINUOUS
10
1.1097746456692914
20
1.3830132677165354
11
1.1103740157480315
21
1.3799999999999999
0
LINE
8
BLACK
6
CONTINUOUS
10
1.1103740157480315
20
1.3799999999999999
11
1.1103740157480315
21
1.345
0
LINE
8
BLACK
6
CONTINUOUS
10
1.1103740157480315
20
1.345
11
1.1097746456692914
21
1.3419867322834644
0
LINE
8
BLACK
6
CONTINUOUS
10
1.1097746456692914
20
1.3419867322834644
11
1.1080677559055119
21
1.3394322440944881
0
LINE
8
BLACK
6
CONTINUOUS
10
1.1080677559055119
20
1.3394322440944881
11
1.1055132677165354
21
1.3377253543307086
0
LINE
8
BLACK
6
CONTINUOUS
10
1.1055132677165354
20
1.3377253543307086
11
1.1025
21
1.3371259842519685
0
LINE
8
BLACK
6
CONTINUOUS
10
1.1025
20
1.3371259842519685
11
1.0474999999999999
21
1.3371259842519685
0
LINE
8
BLACK
6
CONTINUOUS
10
1.0474999999999999
20
1.3371259842519685
11
1.0444867322834646
21
1.3377253543307086
0
LINE
8
BLACK
6
CONTINUOUS
10
1.0444867322834646
20
1.3377253543307086
11
1.0419322440944883
21
1.3394322440944881
0
LINE
8
BLACK
6
CONTINUOUS
10
1.0419322440944883
20
1.3394322440944881
11
1.0402253543307087
21
1.3419867322834644
0
LINE
8
BLACK
6
CONTINUOUS
10
1.0402253543307087
20
1.3419867322834644
11
1.0396259842519684
21
1.345
0
LINE
8
BLACK
6
CONTINUOUS
10
1.0396259842519684
20
1.345
11
1.0396259842519684
21
1.3799999999999999
0
LINE
8
BLACK
6
CONTINUOUS
10
1.0396259842519684
20
1.3799999999999999
11
1.0402253543307087
21
1.3830132677165354
0
LINE
8
BLACK
6
CONTINUOUS
10
1.0402253543307087
20
1.3830132677165354
11
1.0419322440944883
21
1.3855677559055117
0
LINE
8
BLACK
6
CONTINUOUS
10
1.0419322440944883
20
1.3855677559055117
11
1.0444867322834646
21
1.3872746456692913
0
LINE
8
BLACK
6
CONTINUOUS
10
1.0444867322834646
20
1.3872746456692913
11
1.0474999999999999
21
1.3878740157480314
0
LINE
8
BLACK
6
CONTINUOUS
10
1.0474999999999999
20
1.3878740157480314
11
1.1025
21
1.3878740157480314
0
LINE
8
BLACK
6
CONTINUOUS
10
1.1025
20
1.3878740157480314
11
1.1055132677165354
21
1.3872746456692913
0
LINE
8
BLACK
6
CONTINUOUS
10
1.1055132677165354
20
1.4622746456692912
11
1.1080677559055119
21
1.4605677559055117
0
LINE
8
BLACK
6
CONTINUOUS
10
1.1080677559055119
20
1.4605677559055117
11
1.1097746456692914
21
1.4580132677165354
0
LINE
8
BLACK
6
CONTINUOUS
10
1.1097746456692914
20
1.4580132677165354
11
1.1103740157480315
21
1.4550000000000001
0
LINE
8
BLACK
6
CONTINUOUS
10
1.1103740157480315
20
1.4550000000000001
11
1.1103740157480315
21
1.4199999999999999
0
LINE
8
BLACK
6
CONTINUOUS
10
1.1103740157480315
20
1.4199999999999999
11
1.1097746456692914
21
1.4169867322834646
0
LINE
8
BLACK
6
CONTINUOUS
10
1.1097746456692914
20
1.4169867322834646
11
1.1080677559055119
21
1.4144322440944881
0
LINE
8
BLACK
6
CONTINUOUS
10
1.1080677559055119
20
1.4144322440944881
11
1.1055132677165354
21
1.4127253543307086
0
LINE
8
BLACK
6
CONTINUOUS
10
1.1055132677165354
20
1.4127253543307086
11
1.1025
21
1.4121259842519684
0
LINE
8
BLACK
6
CONTINUOUS
10
1.1025
20
1.4121259842519684
11
1.0474999999999999
21
1.4121259842519684
0
LINE
8
BLACK
6
CONTINUOUS
10
1.0474999999999999
20
1.4121259842519684
11
1.0444867322834646
21
1.4127253543307086
0
LINE
8
BLACK
6
CONTINUOUS
10
1.0444867322834646
20
1.4127253543307086
11
1.0419322440944883
21
1.4144322440944881
0
LINE
8
BLACK
6
CONTINUOUS
10
1.0419322440944883
20
1.4144322440944881
11
1.0402253543307087
21
1.4169867322834646
0
LINE
8
BLACK
6
CONTINUOUS
10
1.0402253543307087
20
1.4169867322834646
11
1.0396259842519684
21
1.4199999999999999
0
LINE
8
BLACK
6
CONTINUOUS
10
1.0396259842519684
20
1.4199999999999999
11
1.0396259842519684
21
1.4550000000000001
0
LINE
8
BLACK
6
CONTINUOUS
10
1.0396259842519684
20
1.4550000000000001
11
1.0402253543307087
21
1.4580132677165354
0
LINE
8
BLACK
6
CONTINUOUS
10
1.0402253543307087
20
1.4580132677165354
11
1.0419322440944883
21
1.4605677559055117
0
LINE
8
BLACK
6
CONTINUOUS
10
1.0419322440944883
20
1.4605677559055117
11
1.0444867322834646
21
1.4622746456692912
0
LINE
8
BLACK
6
CONTINUOUS
10
1.0444867322834646
20
1.4622746456692912
11
1.0474999999999999
21
1.4628740157480316
0
LINE
8
BLACK
6
CONTINUOUS
10
1.0474999999999999
20
1.4628740157480316
11
1.1025
21
1.4628740157480316
0
LINE
8
BLACK
6
CONTINUOUS
10
1.1025
20
1.4628740157480316
11
1.1055132677165354
21
1.4622746456692912
0
LINE
8
BLACK
6
CONTINUOUS
10
0.5330132677165355
20
1.5122746456692913
11
0.5355677559055118
21
1.5105677559055117
0
LINE
8
BLACK
6
CONTINUOUS
10
0.5355677559055118
20
1.5105677559055117
11
0.5372746456692913
21
1.5080132677165354
0
LINE
8
BLACK
6
CONTINUOUS
10
0.5372746456692913
20
1.5080132677165354
11
0.5378740157480315
21
1.5049999999999999
0
LINE
8
BLACK
6
CONTINUOUS
10
0.5378740157480315
20
1.5049999999999999
11
0.5378740157480315
21
1.4450000000000001
0
LINE
8
BLACK
6
CONTINUOUS
10
0.5378740157480315
20
1.4450000000000001
11
0.5372746456692913
21
1.4419867322834645
0
LINE
8
BLACK
6
CONTINUOUS
10
0.5372746456692913
20
1.4419867322834645
11
0.5355677559055118
21
1.4394322440944882
0
LINE
8
BLACK
6
CONTINUOUS
10
0.5355677559055118
20
1.4394322440944882
11
0.5330132677165355
21
1.4377253543307087
0
LINE
8
BLACK
6
CONTINUOUS
10
0.5330132677165355
20
1.4377253543307087
11
0.53
21
1.4371259842519686
0
LINE
8
BLACK
6
CONTINUOUS
10
0.53
20
1.4371259842519686
11
0.47
21
1.4371259842519686
0
LINE
8
BLACK
6
CONTINUOUS
10
0.47
20
1.4371259842519686
11
0.4669867322834645
21
1.4377253543307087
0
LINE
8
BLACK
6
CONTINUOUS
10
0.4669867322834645
20
1.4377253543307087
11
0.4644322440944882
21
1.4394322440944882
0
LINE
8
BLACK
6
CONTINUOUS
10
0.4644322440944882
20
1.4394322440944882
11
0.4627253543307087
21
1.4419867322834645
0
LINE
8
BLACK
6
CONTINUOUS
10
0.4627253543307087
20
1.4419867322834645
11
0.4621259842519685
21
1.4450000000000001
0
LINE
8
BLACK
6
CONTINUOUS
10
0.4621259842519685
20
1.4450000000000001
11
0.4621259842519685
21
1.5049999999999999
0
LINE
8
BLACK
6
CONTINUOUS
10
0.4621259842519685
20
1.5049999999999999
11
0.4627253543307087
21
1.5080132677165354
0
LINE
8
BLACK
6
CONTINUOUS
10
0.4627253543307087
20
1.5080132677165354
11
0.4644322440944882
21
1.5105677559055117
0
LINE
8
BLACK
6
CONTINUOUS
10
0.4644322440944882
20
1.5105677559055117
11
0.4669867322834645
21
1.5122746456692913
0
LINE
8
BLACK
6
CONTINUOUS
10
0.4669867322834645
20
1.5122746456692913
11
0.47
21
1.5128740157480314
0
LINE
8
BLACK
6
CONTINUOUS
10
0.47
20
1.5128740157480314
11
0.53
21
1.5128740157480314
0
LINE
8
BLACK
6
CONTINUOUS
10
0.53
20
1.5128740157480314
11
0.5330132677165355
21
1.5122746456692913
0
LINE
8
BLACK
6
CONTINUOUS
10
0.6330132677165354
20
1.5122746456692913
11
0.6355677559055118
21
1.5105677559055117
0
LINE
8
BLACK
6
CONTINUOUS
10
0.6355677559055118
20
1.5105677559055117
11
0.6372746456692914
21
1.5080132677165354
0
LINE
8
BLACK
6
CONTINUOUS
10
0.6372746456692914
20
1.5080132677165354
11
0.6378740157480315
21
1.5049999999999999
0
LINE
8
BLACK
6
CONTINUOUS
10
0.6378740157480315
20
1.5049999999999999
11
0.6378740157480315
21
1.4450000000000001
0
LINE
8
BLACK
6
CONTINUOUS
10
0.6378740157480315
20
1.4450000000000001
11
0.6372746456692914
21
1.4419867322834645
0
LINE
8
BLACK
6
CONTINUOUS
10
0.6372746456692914
20
1.4419867322834645
11
0.6355677559055118
21
1.4394322440944882
0
LINE
8
BLACK
6
CONTINUOUS
10
0.6355677559055118
20
1.4394322440944882
11
0.6330132677165354
21
1.4377253543307087
0
LINE
8
BLACK
6
CONTINUOUS
10
0.6330132677165354
20
1.4377253543307087
11
0.63
21
1.4371259842519686
0
LINE
8
BLACK
6
CONTINUOUS
10
0.63
20
1.4371259842519686
11
0.57
21
1.4371259842519686
0
LINE
8
BLACK
6
CONTINUOUS
10
0.57
20
1.4371259842519686
11
0.5669867322834645
21
1.4377253543307087
0
LINE
8
BLACK
6
CONTINUOUS
10
0.5669867322834645
20
1.4377253543307087
11
0.5644322440944882
21
1.4394322440944882
0
LINE
8
BLACK
6
CONTINUOUS
10
0.5644322440944882
20
1.4394322440944882
11
0.5627253543307087
21
1.4419867322834645
0
LINE
8
BLACK
6
CONTINUOUS
10
0.5627253543307087
20
1.4419867322834645
11
0.5621259842519685
21
1.4450000000000001
0
LINE
8
BLACK
6
CONTINUOUS
10
0.5621259842519685
20
1.4450000000000001
11
0.5621259842519685
21
1.5049999999999999
0
LINE
8
BLACK
6
CONTINUOUS
10
0.5621259842519685
20
1.5049999999999999
11
0.5627253543307087
21
1.5080132677165354
0
LINE
8
BLACK
6
CONTINUOUS
10
0.5627253543307087
20
1.5080132677165354
11
0.5644322440944882
21
1.5105677559055117
0
LINE
8
BLACK
6
CONTINUOUS
10
0.5644322440944882
20
1.5105677559055117
11
0.5669867322834645
21
1.5122746456692913
0
LINE
8
BLACK
6
CONTINUOUS
10
0.5669867322834645
20
1.5122746456692913
11
0.57
21
1.5128740157480314
0
LINE
8
BLACK
6
CONTINUOUS
10
0.57
20
1.5128740157480314
11
0.63
21
1.5128740157480314
0
LINE
8
BLACK
6
CONTINUOUS
10
0.63
20
1.5128740157480314
11
0.6330132677165354
21
1.5122746456692913
0
LINE
8
BLACK
6
CONTINUOUS
10
0.7555132677165354
20
1.4872746456692914
11
0.7580677559055118
21
1.4855677559055118
0
LINE
8
BLACK
6
CONTINUOUS
10
0.7580677559055118
20
1.4855677559055118
11
0.7597746456692913
21
1.4830132677165353
0
LINE
8
BLACK
6
CONTINUOUS
10
0.7597746456692913
20
1.4830132677165353
11
0.7603740157480314
21
1.48
0
LINE
8
BLACK
6
CONTINUOUS
10
0.7603740157480314
20
1.48
11
0.7603740157480314
21
1.4450000000000001
0
LINE
8
BLACK
6
CONTINUOUS
10
0.7603740157480314
20
1.4450000000000001
11
0.7597746456692913
21
1.4419867322834645
0
LINE
8
BLACK
6
CONTINUOUS
10
0.7597746456692913
20
1.4419867322834645
11
0.7580677559055118
21
1.4394322440944882
0
LINE
8
BLACK
6
CONTINUOUS
10
0.7580677559055118
20
1.4394322440944882
11
0.7555132677165354
21
1.4377253543307087
0
LINE
8
BLACK
6
CONTINUOUS
10
0.7555132677165354
20
1.4377253543307087
11
0.7524999999999999
21
1.4371259842519686
0
LINE
8
BLACK
6
CONTINUOUS
10
0.7524999999999999
20
1.4371259842519686
11
0.6975
21
1.4371259842519686
0
LINE
8
BLACK
6
CONTINUOUS
10
0.6975
20
1.4371259842519686
11
0.6944867322834646
21
1.4377253543307087
0
LINE
8
BLACK
6
CONTINUOUS
10
0.6944867322834646
20
1.4377253543307087
11
0.6919322440944882
21
1.4394322440944882
0
LINE
8
BLACK
6
CONTINUOUS
10
0.6919322440944882
20
1.4394322440944882
11
0.6902253543307086
21
1.4419867322834645
0
LINE
8
BLACK
6
CONTINUOUS
10
0.6902253543307086
20
1.4419867322834645
11
0.6896259842519685
21
1.4450000000000001
0
LINE
8
BLACK
6
CONTINUOUS
10
0.6896259842519685
20
1.4450000000000001
11
0.6896259842519685
21
1.48
0
LINE
8
BLACK
6
CONTINUOUS
10
0.6896259842519685
20
1.48
11
0.6902253543307086
21
1.4830132677165353
0
LINE
8
BLACK
6
CONTINUOUS
10
0.6902253543307086
20
1.4830132677165353
11
0.6919322440944882
21
1.4855677559055118
0
LINE
8
BLACK
6
CONTINUOUS
10
0.6919322440944882
20
1.4855677559055118
11
0.6944867322834646
21
1.4872746456692914
0
LINE
8
BLACK
6
CONTINUOUS
10
0.6944867322834646
20
1.4872746456692914
11
0.6975
21
1.4878740157480315
0
LINE
8
BLACK
6
CONTINUOUS
10
0.6975
20
1.4878740157480315
11
0.7524999999999999
21
1.4878740157480315
0
LINE
8
BLACK
6
CONTINUOUS
10
0.7524999999999999
20
1.4878740157480315
11
0.7555132677165354
21
1.4872746456692914
0
LINE
8
BLACK
6
CONTINUOUS
10
0.8305132677165354
20
1.4872746456692914
11
0.8330677559055117
21
1.4855677559055118
0
LINE
8
BLACK
6
CONTINUOUS
10
0.8330677559055117
20
1.4855677559055118
11
0.8347746456692913
21
1.4830132677165353
0
LINE
8
BLACK
6
CONTINUOUS
10
0.8347746456692913
20
1.4830132677165353
11
0.8353740157480315
21
1.48
0
LINE
8
BLACK
6
CONTINUOUS
10
0.8353740157480315
20
1.48
11
0.8353740157480315
21
1.4450000000000001
0
LINE
8
BLACK
6
CONTINUOUS
10
0.8353740157480315
20
1.4450000000000001
11
0.8347746456692913
21
1.4419867322834645
0
LINE
8
BLACK
6
CONTINUOUS
10
0.8347746456692913
20
1.4419867322834645
11
0.8330677559055117
21
1.4394322440944882
0
LINE
8
BLACK
6
CONTINUOUS
10
0.8330677559055117
20
1.4394322440944882
11
0.8305132677165354
21
1.4377253543307087
0
LINE
8
BLACK
6
CONTINUOUS
10
0.8305132677165354
20
1.4377253543307087
11
0.8275
21
1.4371259842519686
0
LINE
8
BLACK
6
CONTINUOUS
10
0.8275
20
1.4371259842519686
11
0.7725
21
1.4371259842519686
0
LINE
8
BLACK
6
CONTINUOUS
10
0.7725
20
1.4371259842519686
11
0.7694867322834645
21
1.4377253543307087
0
LINE
8
BLACK
6
CONTINUOUS
10
0.7694867322834645
20
1.4377253543307087
11
0.7669322440944881
21
1.4394322440944882
0
LINE
8
BLACK
6
CONTINUOUS
10
0.7669322440944881
20
1.4394322440944882
11
0.7652253543307086
21
1.4419867322834645
0
LINE
8
BLACK
6
CONTINUOUS
10
0.7652253543307086
20
1.4419867322834645
11
0.7646259842519685
21
1.4450000000000001
0
LINE
8
BLACK
6
CONTINUOUS
10
0.7646259842519685
20
1.4450000000000001
11
0.7646259842519685
21
1.48
0
LINE
8
BLACK
6
CONTINUOUS
10
0.7646259842519685
20
1.48
11
0.7652253543307086
21
1.4830132677165353
0
LINE
8
BLACK
6
CONTINUOUS
10
0.7652253543307086
20
1.4830132677165353
11
0.7669322440944881
21
1.4855677559055118
0
LINE
8
BLACK
6
CONTINUOUS
10
0.7669322440944881
20
1.4855677559055118
11
0.7694867322834645
21
1.4872746456692914
0
LINE
8
BLACK
6
CONTINUOUS
10
0.7694867322834645
20
1.4872746456692914
11
0.7725
21
1.4878740157480315
0
LINE
8
BLACK
6
CONTINUOUS
10
0.7725
20
1.4878740157480315
11
0.8275
21
1.4878740157480315
0
LINE
8
BLACK
6
CONTINUOUS
10
0.8275
20
1.4878740157480315
11
0.8305132677165354
21
1.4872746456692914
0
LINE
8
BLACK
6
CONTINUOUS
10
0.9055132677165354
20
1.4872746456692914
11
0.9080677559055118
21
1.4855677559055118
0
LINE
8
BLACK
6
CONTINUOUS
10
0.9080677559055118
20
1.4855677559055118
11
0.9097746456692913
21
1.4830132677165353
0
LINE
8
BLACK
6
CONTINUOUS
10
0.9097746456692913
20
1.4830132677165353
11
0.9103740157480315
21
1.48
0
LINE
8
BLACK
6
CONTINUOUS
10
0.9103740157480315
20
1.48
11
0.9103740157480315
21
1.4450000000000001
0
LINE
8
BLACK
6
CONTINUOUS
10
0.9103740157480315
20
1.4450000000000001
11
0.9097746456692913
21
1.4419867322834645
0
LINE
8
BLACK
6
CONTINUOUS
10
0.9097746456692913
20
1.4419867322834645
11
0.9080677559055118
21
1.4394322440944882
0
LINE
8
BLACK
6
CONTINUOUS
10
0.9080677559055118
20
1.4394322440944882
11
0.9055132677165354
21
1.4377253543307087
0
LINE
8
BLACK
6
CONTINUOUS
10
0.9055132677165354
20
1.4377253543307087
11
0.9025
21
1.4371259842519686
0
LINE
8
BLACK
6
CONTINUOUS
10
0.9025
20
1.4371259842519686
11
0.8475
21
1.4371259842519686
0
LINE
8
BLACK
6
CONTINUOUS
10
0.8475
20
1.4371259842519686
11
0.8444867322834646
21
1.4377253543307087
0
LINE
8
BLACK
6
CONTINUOUS
10
0.8444867322834646
20
1.4377253543307087
11
0.8419322440944882
21
1.4394322440944882
0
LINE
8
BLACK
6
CONTINUOUS
10
0.8419322440944882
20
1.4394322440944882
11
0.8402253543307087
21
1.4419867322834645
0
LINE
8
BLACK
6
CONTINUOUS
10
0.8402253543307087
20
1.4419867322834645
11
0.8396259842519684
21
1.4450000000000001
0
LINE
8
BLACK
6
CONTINUOUS
10
0.8396259842519684
20
1.4450000000000001
11
0.8396259842519684
21
1.48
0
LINE
8
BLACK
6
CONTINUOUS
10
0.8396259842519684
20
1.48
11
0.8402253543307087
21
1.4830132677165353
0
LINE
8
BLACK
6
CONTINUOUS
10
0.8402253543307087
20
1.4830132677165353
11
0.8419322440944882
21
1.4855677559055118
0
LINE
8
BLACK
6
CONTINUOUS
10
0.8419322440944882
20
1.4855677559055118
11
0.8444867322834646
21
1.4872746456692914
0
LINE
8
BLACK
6
CONTINUOUS
10
0.8444867322834646
20
1.4872746456692914
11
0.8475
21
1.4878740157480315
0
LINE
8
BLACK
6
CONTINUOUS
10
0.8475
20
1.4878740157480315
11
0.9025
21
1.4878740157480315
0
LINE
8
BLACK
6
CONTINUOUS
10
0.9025
20
1.4878740157480315
11
0.9055132677165354
21
1.4872746456692914
0
LINE
8
BLACK
6
CONTINUOUS
10
0.9805132677165355
20
1.4872746456692914
11
0.9830677559055118
21
1.4855677559055118
0
LINE
8
BLACK
6
CONTINUOUS
10
0.9830677559055118
20
1.4855677559055118
11
0.9847746456692913
21
1.4830132677165353
0
LINE
8
BLACK
6
CONTINUOUS
10
0.9847746456692913
20
1.4830132677165353
11
0.9853740157480315
21
1.48
0
LINE
8
BLACK
6
CONTINUOUS
10
0.9853740157480315
20
1.48
11
0.9853740157480315
21
1.4450000000000001
0
LINE
8
BLACK
6
CONTINUOUS
10
0.9853740157480315
20
1.4450000000000001
11
0.9847746456692913
21
1.4419867322834645
0
LINE
8
BLACK
6
CONTINUOUS
10
0.9847746456692913
20
1.4419867322834645
11
0.9830677559055118
21
1.4394322440944882
0
LINE
8
BLACK
6
CONTINUOUS
10
0.9830677559055118
20
1.4394322440944882
11
0.9805132677165355
21
1.4377253543307087
0
LINE
8
BLACK
6
CONTINUOUS
10
0.9805132677165355
20
1.4377253543307087
11
0.9774999999999999
21
1.4371259842519686
0
LINE
8
BLACK
6
CONTINUOUS
10
0.9774999999999999
20
1.4371259842519686
11
0.9225
21
1.4371259842519686
0
LINE
8
BLACK
6
CONTINUOUS
10
0.9225
20
1.4371259842519686
11
0.9194867322834646
21
1.4377253543307087
0
LINE
8
BLACK
6
CONTINUOUS
10
0.9194867322834646
20
1.4377253543307087
11
0.9169322440944881
21
1.4394322440944882
0
LINE
8
BLACK
6
CONTINUOUS
10
0.9169322440944881
20
1.4394322440944882
11
0.9152253543307086
21
1.4419867322834645
0
LINE
8
BLACK
6
CONTINUOUS
10
0.9152253543307086
20
1.4419867322834645
11
0.9146259842519685
21
1.4450000000000001
0
LINE
8
BLACK
6
CONTINUOUS
10
0.9146259842519685
20
1.4450000000000001
11
0.9146259842519685
21
1.48
0
LINE
8
BLACK
6
CONTINUOUS
10
0.9146259842519685
20
1.48
11
0.9152253543307086
21
1.4830132677165353
0
LINE
8
BLACK
6
CONTINUOUS
10
0.9152253543307086
20
1.4830132677165353
11
0.9169322440944881
21
1.4855677559055118
0
LINE
8
BLACK
6
CONTINUOUS
10
0.9169322440944881
20
1.4855677559055118
11
0.9194867322834646
21
1.4872746456692914
0
LINE
8
BLACK
6
CONTINUOUS
10
0.9194867322834646
20
1.4872746456692914
11
0.9225
21
1.4878740157480315
0
LINE
8
BLACK
6
CONTINUOUS
10
0.9225
20
1.4878740157480315
11
0.9774999999999999
21
1.4878740157480315
0
LINE
8
BLACK
6
CONTINUOUS
10
0.9774999999999999
20
1.4878740157480315
11
0.9805132677165355
21
1.4872746456692914
0
LINE
8
BLACK
6
CONTINUOUS
10
1.1055132677165354
20
1.5372746456692914
11
1.1080677559055119
21
1.5355677559055119
0
LINE
8
BLACK
6
CONTINUOUS
10
1.1080677559055119
20
1.5355677559055119
11
1.1097746456692914
21
1.5330132677165353
0
LINE
8
BLACK
6
CONTINUOUS
10
1.1097746456692914
20
1.5330132677165353
11
1.1103740157480315
21
1.53
0
LINE
8
BLACK
6
CONTINUOUS
10
1.1103740157480315
20
1.53
11
1.1103740157480315
21
1.4949999999999999
0
LINE
8
BLACK
6
CONTINUOUS
10
1.1103740157480315
20
1.4949999999999999
11
1.1097746456692914
21
1.4919867322834646
0
LINE
8
BLACK
6
CONTINUOUS
10
1.1097746456692914
20
1.4919867322834646
11
1.1080677559055119
21
1.489432244094488
0
LINE
8
BLACK
6
CONTINUOUS
10
1.1080677559055119
20
1.489432244094488
11
1.1055132677165354
21
1.4877253543307087
0
LINE
8
BLACK
6
CONTINUOUS
10
1.1055132677165354
20
1.4877253543307087
11
1.1025
21
1.4871259842519684
0
LINE
8
BLACK
6
CONTINUOUS
10
1.1025
20
1.4871259842519684
11
1.0474999999999999
21
1.4871259842519684
0
LINE
8
BLACK
6
CONTINUOUS
10
1.0474999999999999
20
1.4871259842519684
11
1.0444867322834646
21
1.4877253543307087
0
LINE
8
BLACK
6
CONTINUOUS
10
1.0444867322834646
20
1.4877253543307087
11
1.0419322440944883
21
1.489432244094488
0
LINE
8
BLACK
6
CONTINUOUS
10
1.0419322440944883
20
1.489432244094488
11
1.0402253543307087
21
1.4919867322834646
0
LINE
8
BLACK
6
CONTINUOUS
10
1.0402253543307087
20
1.4919867322834646
11
1.0396259842519684
21
1.4949999999999999
0
LINE
8
BLACK
6
CONTINUOUS
10
1.0396259842519684
20
1.4949999999999999
11
1.0396259842519684
21
1.53
0
LINE
8
BLACK
6
CONTINUOUS
10
1.0396259842519684
20
1.53
11
1.0402253543307087
21
1.5330132677165353
0
LINE
8
BLACK
6
CONTINUOUS
10
1.0402253543307087
20
1.5330132677165353
11
1.0419322440944883
21
1.5355677559055119
0
LINE
8
BLACK
6
CONTINUOUS
10
1.0419322440944883
20
1.5355677559055119
11
1.0444867322834646
21
1.5372746456692914
0
LINE
8
BLACK
6
CONTINUOUS
10
1.0444867322834646
20
1.5372746456692914
11
1.0474999999999999
21
1.5378740157480315
0
LINE
8
BLACK
6
CONTINUOUS
10
1.0474999999999999
20
1.5378740157480315
11
1.1025
21
1.5378740157480315
0
LINE
8
BLACK
6
CONTINUOUS
10
1.1025
20
1.5378740157480315
11
1.1055132677165354
21
1.5372746456692914
0
LINE
8
BLACK
6
CONTINUOUS
10
0.7555132677165354
20
1.5622746456692913
11
0.7580677559055118
21
1.5605677559055118
0
LINE
8
BLACK
6
CONTINUOUS
10
0.7580677559055118
20
1.5605677559055118
11
0.7597746456692913
21
1.5580132677165355
0
LINE
8
BLACK
6
CONTINUOUS
10
0.7597746456692913
20
1.5580132677165355
11
0.7603740157480314
21
1.5549999999999999
0
LINE
8
BLACK
6
CONTINUOUS
10
0.7603740157480314
20
1.5549999999999999
11
0.7603740157480314
21
1.52
0
LINE
8
BLACK
6
CONTINUOUS
10
0.7603740157480314
20
1.52
11
0.7597746456692913
21
1.5169867322834645
0
LINE
8
BLACK
6
CONTINUOUS
10
0.7597746456692913
20
1.5169867322834645
11
0.7580677559055118
21
1.5144322440944882
0
LINE
8
BLACK
6
CONTINUOUS
10
0.7580677559055118
20
1.5144322440944882
11
0.7555132677165354
21
1.5127253543307086
0
LINE
8
BLACK
6
CONTINUOUS
10
0.7555132677165354
20
1.5127253543307086
11
0.7524999999999999
21
1.5121259842519685
0
LINE
8
BLACK
6
CONTINUOUS
10
0.7524999999999999
20
1.5121259842519685
11
0.6975
21
1.5121259842519685
0
LINE
8
BLACK
6
CONTINUOUS
10
0.6975
20
1.5121259842519685
11
0.6944867322834646
21
1.5127253543307086
0
LINE
8
BLACK
6
CONTINUOUS
10
0.6944867322834646
20
1.5127253543307086
11
0.6919322440944882
21
1.5144322440944882
0
LINE
8
BLACK
6
CONTINUOUS
10
0.6919322440944882
20
1.5144322440944882
11
0.6902253543307086
21
1.5169867322834645
0
LINE
8
BLACK
6
CONTINUOUS
10
0.6902253543307086
20
1.5169867322834645
11
0.6896259842519685
21
1.52
0
LINE
8
BLACK
6
CONTINUOUS
10
0.6896259842519685
20
1.52
11
0.6896259842519685
21
1.5549999999999999
0
LINE
8
BLACK
6
CONTINUOUS
10
0.6896259842519685
20
1.5549999999999999
11
0.6902253543307086
21
1.5580132677165355
0
LINE
8
BLACK
6
CONTINUOUS
10
0.6902253543307086
20
1.5580132677165355
11
0.6919322440944882
21
1.5605677559055118
0
LINE
8
BLACK
6
CONTINUOUS
10
0.6919322440944882
20
1.5605677559055118
11
0.6944867322834646
21
1.5622746456692913
0
LINE
8
BLACK
6
CONTINUOUS
10
0.6944867322834646
20
1.5622746456692913
11
0.6975
21
1.5628740157480314
0
LINE
8
BLACK
6
CONTINUOUS
10
0.6975
20
1.5628740157480314
11
0.7524999999999999
21
1.5628740157480314
0
LINE
8
BLACK
6
CONTINUOUS
10
0.7524999999999999
20
1.5628740157480314
11
0.7555132677165354
21
1.5622746456692913
0
LINE
8
BLACK
6
CONTINUOUS
10
0.8305132677165354
20
1.5622746456692913
11
0.8330677559055117
21
1.5605677559055118
0
LINE
8
BLACK
6
CONTINUOUS
10
0.8330677559055117
20
1.5605677559055118
11
0.8347746456692913
21
1.5580132677165355
0
LINE
8
BLACK
6
CONTINUOUS
10
0.8347746456692913
20
1.5580132677165355
11
0.8353740157480315
21
1.5549999999999999
0
LINE
8
BLACK
6
CONTINUOUS
10
0.8353740157480315
20
1.5549999999999999
11
0.8353740157480315
21
1.52
0
LINE
8
BLACK
6
CONTINUOUS
10
0.8353740157480315
20
1.52
11
0.8347746456692913
21
1.5169867322834645
0
LINE
8
BLACK
6
CONTINUOUS
10
0.8347746456692913
20
1.5169867322834645
11
0.8330677559055117
21
1.5144322440944882
0
LINE
8
BLACK
6
CONTINUOUS
10
0.8330677559055117
20
1.5144322440944882
11
0.8305132677165354
21
1.5127253543307086
0
LINE
8
BLACK
6
CONTINUOUS
10
0.8305132677165354
20
1.5127253543307086
11
0.8275
21
1.5121259842519685
0
LINE
8
BLACK
6
CONTINUOUS
10
0.8275
20
1.5121259842519685
11
0.7725
21
1.5121259842519685
0
LINE
8
BLACK
6
CONTINUOUS
10
0.7725
20
1.5121259842519685
11
0.7694867322834645
21
1.5127253543307086
0
LINE
8
BLACK
6
CONTINUOUS
10
0.7694867322834645
20
1.5127253543307086
11
0.7669322440944881
21
1.5144322440944882
0
LINE
8
BLACK
6
CONTINUOUS
10
0.7669322440944881
20
1.5144322440944882
11
0.7652253543307086
21
1.5169867322834645
0
LINE
8
BLACK
6
CONTINUOUS
10
0.7652253543307086
20
1.5169867322834645
11
0.7646259842519685
21
1.52
0
LINE
8
BLACK
6
CONTINUOUS
10
0.7646259842519685
20
1.52
11
0.7646259842519685
21
1.5549999999999999
0
LINE
8
BLACK
6
CONTINUOUS
10
0.7646259842519685
20
1.5549999999999999
11
0.7652253543307086
21
1.5580132677165355
0
LINE
8
BLACK
6
CONTINUOUS
10
0.7652253543307086
20
1.5580132677165355
11
0.7669322440944881
21
1.5605677559055118
0
LINE
8
BLACK
6
CONTINUOUS
10
0.7669322440944881
20
1.5605677559055118
11
0.7694867322834645
21
1.5622746456692913
0
LINE
8
BLACK
6
CONTINUOUS
10
0.7694867322834645
20
1.5622746456692913
11
0.7725
21
1.5628740157480314
0
LINE
8
BLACK
6
CONTINUOUS
10
0.7725
20
1.5628740157480314
11
0.8275
21
1.5628740157480314
0
LINE
8
BLACK
6
CONTINUOUS
10
0.8275
20
1.5628740157480314
11
0.8305132677165354
21
1.5622746456692913
0
LINE
8
BLACK
6
CONTINUOUS
10
0.9055132677165354
20
1.5622746456692913
11
0.9080677559055118
21
1.5605677559055118
0
LINE
8
BLACK
6
CONTINUOUS
10
0.9080677559055118
20
1.5605677559055118
11
0.9097746456692913
21
1.5580132677165355
0
LINE
8
BLACK
6
CONTINUOUS
10
0.9097746456692913
20
1.5580132677165355
11
0.9103740157480315
21
1.5549999999999999
0
LINE
8
BLACK
6
CONTINUOUS
10
0.9103740157480315
20
1.5549999999999999
11
0.9103740157480315
21
1.52
0
LINE
8
BLACK
6
CONTINUOUS
10
0.9103740157480315
20
1.52
11
0.9097746456692913
21
1.5169867322834645
0
LINE
8
BLACK
6
CONTINUOUS
10
0.9097746456692913
20
1.5169867322834645
11
0.9080677559055118
21
1.5144322440944882
0
LINE
8
BLACK
6
CONTINUOUS
10
0.9080677559055118
20
1.5144322440944882
11
0.9055132677165354
21
1.5127253543307086
0
LINE
8
BLACK
6
CONTINUOUS
10
0.9055132677165354
20
1.5127253543307086
11
0.9025
21
1.5121259842519685
0
LINE
8
BLACK
6
CONTINUOUS
10
0.9025
20
1.5121259842519685
11
0.8475
21
1.5121259842519685
0
LINE
8
BLACK
6
CONTINUOUS
10
0.8475
20
1.5121259842519685
11
0.8444867322834646
21
1.5127253543307086
0
LINE
8
BLACK
6
CONTINUOUS
10
0.8444867322834646
20
1.5127253543307086
11
0.8419322440944882
21
1.5144322440944882
0
LINE
8
BLACK
6
CONTINUOUS
10
0.8419322440944882
20
1.5144322440944882
11
0.8402253543307087
21
1.5169867322834645
0
LINE
8
BLACK
6
CONTINUOUS
10
0.8402253543307087
20
1.5169867322834645
11
0.8396259842519684
21
1.52
0
LINE
8
BLACK
6
CONTINUOUS
10
0.8396259842519684
20
1.52
11
0.8396259842519684
21
1.5549999999999999
0
LINE
8
BLACK
6
CONTINUOUS
10
0.8396259842519684
20
1.5549999999999999
11
0.8402253543307087
21
1.5580132677165355
0
LINE
8
BLACK
6
CONTINUOUS
10
0.8402253543307087
20
1.5580132677165355
11
0.8419322440944882
21
1.5605677559055118
0
LINE
8
BLACK
6
CONTINUOUS
10
0.8419322440944882
20
1.5605677559055118
11
0.8444867322834646
21
1.5622746456692913
0
LINE
8
BLACK
6
CONTINUOUS
10
0.8444867322834646
20
1.5622746456692913
11
0.8475
21
1.5628740157480314
0
LINE
8
BLACK
6
CONTINUOUS
10
0.8475
20
1.5628740157480314
11
0.9025
21
1.5628740157480314
0
LINE
8
BLACK
6
CONTINUOUS
10
0.9025
20
1.5628740157480314
11
0.9055132677165354
21
1.5622746456692913
0
LINE
8
BLACK
6
CONTINUOUS
10
0.9805132677165355
20
1.5622746456692913
11
0.9830677559055118
21
1.5605677559055118
0
LINE
8
BLACK
6
CONTINUOUS
10
0.9830677559055118
20
1.5605677559055118
11
0.9847746456692913
21
1.5580132677165355
0
LINE
8
BLACK
6
CONTINUOUS
10
0.9847746456692913
20
1.5580132677165355
11
0.9853740157480315
21
1.5549999999999999
0
LINE
8
BLACK
6
CONTINUOUS
10
0.9853740157480315
20
1.5549999999999999
11
0.9853740157480315
21
1.52
0
LINE
8
BLACK
6
CONTINUOUS
10
0.9853740157480315
20
1.52
11
0.9847746456692913
21
1.5169867322834645
0
LINE
8
BLACK
6
CONTINUOUS
10
0.9847746456692913
20
1.5169867322834645
11
0.9830677559055118
21
1.5144322440944882
0
LINE
8
BLACK
6
CONTINUOUS
10
0.9830677559055118
20
1.5144322440944882
11
0.9805132677165355
21
1.5127253543307086
0
LINE
8
BLACK
6
CONTINUOUS
10
0.9805132677165355
20
1.5127253543307086
11
0.9774999999999999
21
1.5121259842519685
0
LINE
8
BLACK
6
CONTINUOUS
10
0.9774999999999999
20
1.5121259842519685
11
0.9225
21
1.5121259842519685
0
LINE
8
BLACK
6
CONTINUOUS
10
0.9225
20
1.5121259842519685
11
0.9194867322834646
21
1.5127253543307086
0
LINE
8
BLACK
6
CONTINUOUS
10
0.9194867322834646
20
1.5127253543307086
11
0.9169322440944881
21
1.5144322440944882
0
LINE
8
BLACK
6
CONTINUOUS
10
0.9169322440944881
20
1.5144322440944882
11
0.9152253543307086
21
1.5169867322834645
0
LINE
8
BLACK
6
CONTINUOUS
10
0.9152253543307086
20
1.5169867322834645
11
0.9146259842519685
21
1.52
0
LINE
8
BLACK
6
CONTINUOUS
10
0.9146259842519685
20
1.52
11
0.9146259842519685
21
1.5549999999999999
0
LINE
8
BLACK
6
CONTINUOUS
10
0.9146259842519685
20
1.5549999999999999
11
0.9152253543307086
21
1.5580132677165355
0
LINE
8
BLACK
6
CONTINUOUS
10
0.9152253543307086
20
1.5580132677165355
11
0.9169322440944881
21
1.5605677559055118
0
LINE
8
BLACK
6
CONTINUOUS
10
0.9169322440944881
20
1.5605677559055118
11
0.9194867322834646
21
1.5622746456692913
0
LINE
8
BLACK
6
CONTINUOUS
10
0.9194867322834646
20
1.5622746456692913
11
0.9225
21
1.5628740157480314
0
LINE
8
BLACK
6
CONTINUOUS
10
0.9225
20
1.5628740157480314
11
0.9774999999999999
21
1.5628740157480314
0
LINE
8
BLACK
6
CONTINUOUS
10
0.9774999999999999
20
1.5628740157480314
11
0.9805132677165355
21
1.5622746456692913
  0
ENDSEC
  0
EOF
