  0
SECTION
  2
HEADER
  9
$ANGBASE
  50
0.0
  9
$ANGDIR
  70
1
  9
$MEASUREMENT
  70
0
  0
ENDSEC
  0
SECTION
  2
TABLES
  0
TABLE
  2
LTYPE
  70
4
  0
LTYPE
  5
40F
  2
CONTINUOUS
  70
0
  3
Solid line
  72
65
  73
0
  40
0.0
  0
LTYPE
  5
410
  2
DASHDOT
 70
0
  3
Dash Dot ____ _ ____ _
 72
65
 73
4
 40
2.0
 49
1.25
 49
-0.25
 49
0.25
 49
-0.25
  0
LTYPE
  5
411
  2
DASHED
 70
0
  3
Dashed __ __ __ __ __
 72
65
 73
2
 40
0.75
 49
0.5
 49
-0.25
  0
LTYPE
  5
43B
  2
DOTTED
 70
0
  3
Dotted .  .  .  .
 72
65
 73
2
 40
0.2
 49
0.0
 49
-0.2
  0
ENDTAB
  0
TABLE
  2
STYLE
  70
4
  0
STYLE
  2
KICAD
  70
0
  40
0
  41
1
  42
1
  50
0
  71
0
  3
isocp.shx
  0
STYLE
  2
KICADB
  70
0
  40
0
  41
1
  42
1
  50
0
  71
0
  3
isocp.shx
  0
STYLE
  2
KICADI
  70
0
  40
0
  41
1
  42
1
  50
15
  71
0
  3
isocp.shx
  0
STYLE
  2
KICADBI
  70
0
  40
0
  41
1
  42
1
  50
15
  71
0
  3
isocp.shx
  0
ENDTAB
  0
TABLE
  2
LAYER
  70
1
  0
LAYER
  2
BLACK
  70
0
  62
7
  6
CONTINUOUS
  0
ENDTAB
  0
ENDSEC
  0
SECTION
  2
ENTITIES
0
LINE
8
BLACK
6
CONTINUOUS
10
0.22815
20
0.4248
11
0.12185
21
0.4248
0
LINE
8
BLACK
6
CONTINUOUS
10
0.12185
20
0.4248
11
0.12185
21
0.5252
0
LINE
8
BLACK
6
CONTINUOUS
10
0.12185
20
0.5252
11
0.22815
21
0.5252
0
LINE
8
BLACK
6
CONTINUOUS
10
0.22815
20
0.5252
11
0.22815
21
0.4248
0
LINE
8
BLACK
6
CONTINUOUS
10
0.715
20
0.52
11
0.66
21
0.52
0
LINE
8
BLACK
6
CONTINUOUS
10
0.66
20
0.52
11
0.66
21
0.5549999999999999
0
LINE
8
BLACK
6
CONTINUOUS
10
0.66
20
0.5549999999999999
11
0.715
21
0.5549999999999999
0
LINE
8
BLACK
6
CONTINUOUS
10
0.715
20
0.5549999999999999
11
0.715
21
0.52
0
LINE
8
BLACK
6
CONTINUOUS
10
0.8940944881889764
20
0.5413385826771654
11
0.7858267716535433
21
0.5413385826771654
0
LINE
8
BLACK
6
CONTINUOUS
10
0.7858267716535433
20
0.5413385826771654
11
0.7858267716535433
21
0.6614173228346456
0
LINE
8
BLACK
6
CONTINUOUS
10
0.7858267716535433
20
0.6614173228346456
11
0.8940944881889764
21
0.6614173228346456
0
LINE
8
BLACK
6
CONTINUOUS
10
0.8940944881889764
20
0.6614173228346456
11
0.8940944881889764
21
0.5413385826771654
0
LINE
8
BLACK
6
CONTINUOUS
10
1.0141732283464566
20
0.5413385826771654
11
0.9059055118110236
21
0.5413385826771654
0
LINE
8
BLACK
6
CONTINUOUS
10
0.9059055118110236
20
0.5413385826771654
11
0.9059055118110236
21
0.6614173228346456
0
LINE
8
BLACK
6
CONTINUOUS
10
0.9059055118110236
20
0.6614173228346456
11
1.0141732283464566
21
0.6614173228346456
0
LINE
8
BLACK
6
CONTINUOUS
10
1.0141732283464566
20
0.6614173228346456
11
1.0141732283464566
21
0.5413385826771654
0
LINE
8
BLACK
6
CONTINUOUS
10
1.212992125984252
20
0.5582677165354331
11
1.0870078740157481
21
0.5582677165354331
0
LINE
8
BLACK
6
CONTINUOUS
10
1.0870078740157481
20
0.5582677165354331
11
1.0870078740157481
21
0.5976377952755906
0
LINE
8
BLACK
6
CONTINUOUS
10
1.0870078740157481
20
0.5976377952755906
11
1.212992125984252
21
0.5976377952755906
0
LINE
8
BLACK
6
CONTINUOUS
10
1.212992125984252
20
0.5976377952755906
11
1.212992125984252
21
0.5582677165354331
0
LINE
8
BLACK
6
CONTINUOUS
10
0.715
20
0.595
11
0.66
21
0.595
0
LINE
8
BLACK
6
CONTINUOUS
10
0.66
20
0.595
11
0.66
21
0.63
0
LINE
8
BLACK
6
CONTINUOUS
10
0.66
20
0.63
11
0.715
21
0.63
0
LINE
8
BLACK
6
CONTINUOUS
10
0.715
20
0.63
11
0.715
21
0.595
0
LINE
8
BLACK
6
CONTINUOUS
10
0.8940944881889764
20
0.6732283464566929
11
0.7858267716535433
21
0.6732283464566929
0
LINE
8
BLACK
6
CONTINUOUS
10
0.7858267716535433
20
0.6732283464566929
11
0.7858267716535433
21
0.7933070866141733
0
LINE
8
BLACK
6
CONTINUOUS
10
0.7858267716535433
20
0.7933070866141733
11
0.8940944881889764
21
0.7933070866141733
0
LINE
8
BLACK
6
CONTINUOUS
10
0.8940944881889764
20
0.7933070866141733
11
0.8940944881889764
21
0.6732283464566929
0
LINE
8
BLACK
6
CONTINUOUS
10
1.0141732283464566
20
0.6732283464566929
11
0.9059055118110236
21
0.6732283464566929
0
LINE
8
BLACK
6
CONTINUOUS
10
0.9059055118110236
20
0.6732283464566929
11
0.9059055118110236
21
0.7933070866141733
0
LINE
8
BLACK
6
CONTINUOUS
10
0.9059055118110236
20
0.7933070866141733
11
1.0141732283464566
21
0.7933070866141733
0
LINE
8
BLACK
6
CONTINUOUS
10
1.0141732283464566
20
0.7933070866141733
11
1.0141732283464566
21
0.6732283464566929
0
LINE
8
BLACK
6
CONTINUOUS
10
0.22815
20
0.6748
11
0.12185
21
0.6748
0
LINE
8
BLACK
6
CONTINUOUS
10
0.12185
20
0.6748
11
0.12185
21
0.7752
0
LINE
8
BLACK
6
CONTINUOUS
10
0.12185
20
0.7752
11
0.22815
21
0.7752
0
LINE
8
BLACK
6
CONTINUOUS
10
0.22815
20
0.7752
11
0.22815
21
0.6748
0
LINE
8
BLACK
6
CONTINUOUS
10
0.4190944881889764
20
0.7108267716535432
11
0.2990157480314961
21
0.7108267716535432
0
LINE
8
BLACK
6
CONTINUOUS
10
0.2990157480314961
20
0.7108267716535432
11
0.2990157480314961
21
0.8190944881889763
0
LINE
8
BLACK
6
CONTINUOUS
10
0.2990157480314961
20
0.8190944881889763
11
0.4190944881889764
21
0.8190944881889763
0
LINE
8
BLACK
6
CONTINUOUS
10
0.4190944881889764
20
0.8190944881889763
11
0.4190944881889764
21
0.7108267716535432
0
LINE
8
BLACK
6
CONTINUOUS
10
0.550984251968504
20
0.7108267716535432
11
0.4309055118110236
21
0.7108267716535432
0
LINE
8
BLACK
6
CONTINUOUS
10
0.4309055118110236
20
0.7108267716535432
11
0.4309055118110236
21
0.8190944881889763
0
LINE
8
BLACK
6
CONTINUOUS
10
0.4309055118110236
20
0.8190944881889763
11
0.550984251968504
21
0.8190944881889763
0
LINE
8
BLACK
6
CONTINUOUS
10
0.550984251968504
20
0.8190944881889763
11
0.550984251968504
21
0.7108267716535432
0
LINE
8
BLACK
6
CONTINUOUS
10
0.7163385826771653
20
0.7116141732283464
11
0.6297244094488189
21
0.7116141732283464
0
LINE
8
BLACK
6
CONTINUOUS
10
0.6297244094488189
20
0.7116141732283464
11
0.6297244094488189
21
0.7588582677165354
0
LINE
8
BLACK
6
CONTINUOUS
10
0.6297244094488189
20
0.7588582677165354
11
0.7163385826771653
21
0.7588582677165354
0
LINE
8
BLACK
6
CONTINUOUS
10
0.7163385826771653
20
0.7588582677165354
11
0.7163385826771653
21
0.7116141732283464
0
LINE
8
BLACK
6
CONTINUOUS
10
1.212992125984252
20
0.8023622047244094
11
1.0870078740157481
21
0.8023622047244094
0
LINE
8
BLACK
6
CONTINUOUS
10
1.0870078740157481
20
0.8023622047244094
11
1.0870078740157481
21
0.8417322834645669
0
LINE
8
BLACK
6
CONTINUOUS
10
1.0870078740157481
20
0.8417322834645669
11
1.212992125984252
21
0.8417322834645669
0
LINE
8
BLACK
6
CONTINUOUS
10
1.212992125984252
20
0.8417322834645669
11
1.212992125984252
21
0.8023622047244094
0
LINE
8
BLACK
6
CONTINUOUS
10
0.4190944881889764
20
0.8309055118110236
11
0.2990157480314961
21
0.8309055118110236
0
LINE
8
BLACK
6
CONTINUOUS
10
0.2990157480314961
20
0.8309055118110236
11
0.2990157480314961
21
0.9391732283464567
0
LINE
8
BLACK
6
CONTINUOUS
10
0.2990157480314961
20
0.9391732283464567
11
0.4190944881889764
21
0.9391732283464567
0
LINE
8
BLACK
6
CONTINUOUS
10
0.4190944881889764
20
0.9391732283464567
11
0.4190944881889764
21
0.8309055118110236
0
LINE
8
BLACK
6
CONTINUOUS
10
0.550984251968504
20
0.8309055118110236
11
0.4309055118110236
21
0.8309055118110236
0
LINE
8
BLACK
6
CONTINUOUS
10
0.4309055118110236
20
0.8309055118110236
11
0.4309055118110236
21
0.9391732283464567
0
LINE
8
BLACK
6
CONTINUOUS
10
0.4309055118110236
20
0.9391732283464567
11
0.550984251968504
21
0.9391732283464567
0
LINE
8
BLACK
6
CONTINUOUS
10
0.550984251968504
20
0.9391732283464567
11
0.550984251968504
21
0.8309055118110236
0
LINE
8
BLACK
6
CONTINUOUS
10
0.8338582677165354
20
0.8720472440944882
11
0.7866141732283465
21
0.8720472440944882
0
LINE
8
BLACK
6
CONTINUOUS
10
0.7866141732283465
20
0.8720472440944882
11
0.7866141732283465
21
0.9586614173228346
0
LINE
8
BLACK
6
CONTINUOUS
10
0.7866141732283465
20
0.9586614173228346
11
0.8338582677165354
21
0.9586614173228346
0
LINE
8
BLACK
6
CONTINUOUS
10
0.8338582677165354
20
0.9586614173228346
11
0.8338582677165354
21
0.8720472440944882
0
LINE
8
BLACK
6
CONTINUOUS
10
1.0133858267716536
20
0.8720472440944882
11
0.9661417322834646
21
0.8720472440944882
0
LINE
8
BLACK
6
CONTINUOUS
10
0.9661417322834646
20
0.8720472440944882
11
0.9661417322834646
21
0.9586614173228346
0
LINE
8
BLACK
6
CONTINUOUS
10
0.9661417322834646
20
0.9586614173228346
11
1.0133858267716536
21
0.9586614173228346
0
LINE
8
BLACK
6
CONTINUOUS
10
1.0133858267716536
20
0.9586614173228346
11
1.0133858267716536
21
0.8720472440944882
0
LINE
8
BLACK
6
CONTINUOUS
10
0.7163385826771653
20
0.8911417322834645
11
0.6297244094488189
21
0.8911417322834645
0
LINE
8
BLACK
6
CONTINUOUS
10
0.6297244094488189
20
0.8911417322834645
11
0.6297244094488189
21
0.9383858267716535
0
LINE
8
BLACK
6
CONTINUOUS
10
0.6297244094488189
20
0.9383858267716535
11
0.7163385826771653
21
0.9383858267716535
0
LINE
8
BLACK
6
CONTINUOUS
10
0.7163385826771653
20
0.9383858267716535
11
0.7163385826771653
21
0.8911417322834645
0
LINE
8
BLACK
6
CONTINUOUS
10
0.9425
20
1.01
11
0.9075
21
1.01
0
LINE
8
BLACK
6
CONTINUOUS
10
0.9075
20
1.01
11
0.9075
21
1.0649999999999999
0
LINE
8
BLACK
6
CONTINUOUS
10
0.9075
20
1.0649999999999999
11
0.9425
21
1.0649999999999999
0
LINE
8
BLACK
6
CONTINUOUS
10
0.9425
20
1.0649999999999999
11
0.9425
21
1.01
0
LINE
8
BLACK
6
CONTINUOUS
10
1.0175000000000001
20
1.01
11
0.9824999999999999
21
1.01
0
LINE
8
BLACK
6
CONTINUOUS
10
0.9824999999999999
20
1.01
11
0.9824999999999999
21
1.0649999999999999
0
LINE
8
BLACK
6
CONTINUOUS
10
0.9824999999999999
20
1.0649999999999999
11
1.0175000000000001
21
1.0649999999999999
0
LINE
8
BLACK
6
CONTINUOUS
10
1.0175000000000001
20
1.0649999999999999
11
1.0175000000000001
21
1.01
0
LINE
8
BLACK
6
CONTINUOUS
10
1.1025
20
1.095
11
1.0474999999999999
21
1.095
0
LINE
8
BLACK
6
CONTINUOUS
10
1.0474999999999999
20
1.095
11
1.0474999999999999
21
1.1299999999999999
0
LINE
8
BLACK
6
CONTINUOUS
10
1.0474999999999999
20
1.1299999999999999
11
1.1025
21
1.1299999999999999
0
LINE
8
BLACK
6
CONTINUOUS
10
1.1025
20
1.1299999999999999
11
1.1025
21
1.095
0
LINE
8
BLACK
6
CONTINUOUS
10
0.8070866141732284
20
1.1053149606299213
11
0.7893700787401574
21
1.1053149606299213
0
LINE
8
BLACK
6
CONTINUOUS
10
0.7893700787401574
20
1.1053149606299213
11
0.7893700787401574
21
1.1624015748031495
0
LINE
8
BLACK
6
CONTINUOUS
10
0.7893700787401574
20
1.1624015748031495
11
0.8070866141732284
21
1.1624015748031495
0
LINE
8
BLACK
6
CONTINUOUS
10
0.8070866141732284
20
1.1624015748031495
11
0.8070866141732284
21
1.1053149606299213
0
LINE
8
BLACK
6
CONTINUOUS
10
0.8326771653543307
20
1.1053149606299213
11
0.8149606299212598
21
1.1053149606299213
0
LINE
8
BLACK
6
CONTINUOUS
10
0.8149606299212598
20
1.1053149606299213
11
0.8149606299212598
21
1.1624015748031495
0
LINE
8
BLACK
6
CONTINUOUS
10
0.8149606299212598
20
1.1624015748031495
11
0.8326771653543307
21
1.1624015748031495
0
LINE
8
BLACK
6
CONTINUOUS
10
0.8326771653543307
20
1.1624015748031495
11
0.8326771653543307
21
1.1053149606299213
0
LINE
8
BLACK
6
CONTINUOUS
10
0.8582677165354331
20
1.1053149606299213
11
0.8405511811023622
21
1.1053149606299213
0
LINE
8
BLACK
6
CONTINUOUS
10
0.8405511811023622
20
1.1053149606299213
11
0.8405511811023622
21
1.1624015748031495
0
LINE
8
BLACK
6
CONTINUOUS
10
0.8405511811023622
20
1.1624015748031495
11
0.8582677165354331
21
1.1624015748031495
0
LINE
8
BLACK
6
CONTINUOUS
10
0.8582677165354331
20
1.1624015748031495
11
0.8582677165354331
21
1.1053149606299213
0
LINE
8
BLACK
6
CONTINUOUS
10
0.8838582677165354
20
1.1053149606299213
11
0.8661417322834646
21
1.1053149606299213
0
LINE
8
BLACK
6
CONTINUOUS
10
0.8661417322834646
20
1.1053149606299213
11
0.8661417322834646
21
1.1624015748031495
0
LINE
8
BLACK
6
CONTINUOUS
10
0.8661417322834646
20
1.1624015748031495
11
0.8838582677165354
21
1.1624015748031495
0
LINE
8
BLACK
6
CONTINUOUS
10
0.8838582677165354
20
1.1624015748031495
11
0.8838582677165354
21
1.1053149606299213
0
LINE
8
BLACK
6
CONTINUOUS
10
0.9094488188976377
20
1.1053149606299213
11
0.8917322834645669
21
1.1053149606299213
0
LINE
8
BLACK
6
CONTINUOUS
10
0.8917322834645669
20
1.1053149606299213
11
0.8917322834645669
21
1.1624015748031495
0
LINE
8
BLACK
6
CONTINUOUS
10
0.8917322834645669
20
1.1624015748031495
11
0.9094488188976377
21
1.1624015748031495
0
LINE
8
BLACK
6
CONTINUOUS
10
0.9094488188976377
20
1.1624015748031495
11
0.9094488188976377
21
1.1053149606299213
0
LINE
8
BLACK
6
CONTINUOUS
10
0.9350393700787402
20
1.1053149606299213
11
0.9173228346456692
21
1.1053149606299213
0
LINE
8
BLACK
6
CONTINUOUS
10
0.9173228346456692
20
1.1053149606299213
11
0.9173228346456692
21
1.1624015748031495
0
LINE
8
BLACK
6
CONTINUOUS
10
0.9173228346456692
20
1.1624015748031495
11
0.9350393700787402
21
1.1624015748031495
0
LINE
8
BLACK
6
CONTINUOUS
10
0.9350393700787402
20
1.1624015748031495
11
0.9350393700787402
21
1.1053149606299213
0
LINE
8
BLACK
6
CONTINUOUS
10
0.9606299212598425
20
1.1053149606299213
11
0.9429133858267716
21
1.1053149606299213
0
LINE
8
BLACK
6
CONTINUOUS
10
0.9429133858267716
20
1.1053149606299213
11
0.9429133858267716
21
1.1624015748031495
0
LINE
8
BLACK
6
CONTINUOUS
10
0.9429133858267716
20
1.1624015748031495
11
0.9606299212598425
21
1.1624015748031495
0
LINE
8
BLACK
6
CONTINUOUS
10
0.9606299212598425
20
1.1624015748031495
11
0.9606299212598425
21
1.1053149606299213
0
LINE
8
BLACK
6
CONTINUOUS
10
1.1025
20
1.1699999999999999
11
1.0474999999999999
21
1.1699999999999999
0
LINE
8
BLACK
6
CONTINUOUS
10
1.0474999999999999
20
1.1699999999999999
11
1.0474999999999999
21
1.2050000000000001
0
LINE
8
BLACK
6
CONTINUOUS
10
1.0474999999999999
20
1.2050000000000001
11
1.1025
21
1.2050000000000001
0
LINE
8
BLACK
6
CONTINUOUS
10
1.1025
20
1.2050000000000001
11
1.1025
21
1.1699999999999999
0
LINE
8
BLACK
6
CONTINUOUS
10
1.1025
20
1.27
11
1.0474999999999999
21
1.27
0
LINE
8
BLACK
6
CONTINUOUS
10
1.0474999999999999
20
1.27
11
1.0474999999999999
21
1.3049999999999999
0
LINE
8
BLACK
6
CONTINUOUS
10
1.0474999999999999
20
1.3049999999999999
11
1.1025
21
1.3049999999999999
0
LINE
8
BLACK
6
CONTINUOUS
10
1.1025
20
1.3049999999999999
11
1.1025
21
1.27
0
LINE
8
BLACK
6
CONTINUOUS
10
0.8070866141732284
20
1.3375984251968505
11
0.7893700787401574
21
1.3375984251968505
0
LINE
8
BLACK
6
CONTINUOUS
10
0.7893700787401574
20
1.3375984251968505
11
0.7893700787401574
21
1.3946850393700787
0
LINE
8
BLACK
6
CONTINUOUS
10
0.7893700787401574
20
1.3946850393700787
11
0.8070866141732284
21
1.3946850393700787
0
LINE
8
BLACK
6
CONTINUOUS
10
0.8070866141732284
20
1.3946850393700787
11
0.8070866141732284
21
1.3375984251968505
0
LINE
8
BLACK
6
CONTINUOUS
10
0.8326771653543307
20
1.3375984251968505
11
0.8149606299212598
21
1.3375984251968505
0
LINE
8
BLACK
6
CONTINUOUS
10
0.8149606299212598
20
1.3375984251968505
11
0.8149606299212598
21
1.3946850393700787
0
LINE
8
BLACK
6
CONTINUOUS
10
0.8149606299212598
20
1.3946850393700787
11
0.8326771653543307
21
1.3946850393700787
0
LINE
8
BLACK
6
CONTINUOUS
10
0.8326771653543307
20
1.3946850393700787
11
0.8326771653543307
21
1.3375984251968505
0
LINE
8
BLACK
6
CONTINUOUS
10
0.8582677165354331
20
1.3375984251968505
11
0.8405511811023622
21
1.3375984251968505
0
LINE
8
BLACK
6
CONTINUOUS
10
0.8405511811023622
20
1.3375984251968505
11
0.8405511811023622
21
1.3946850393700787
0
LINE
8
BLACK
6
CONTINUOUS
10
0.8405511811023622
20
1.3946850393700787
11
0.8582677165354331
21
1.3946850393700787
0
LINE
8
BLACK
6
CONTINUOUS
10
0.8582677165354331
20
1.3946850393700787
11
0.8582677165354331
21
1.3375984251968505
0
LINE
8
BLACK
6
CONTINUOUS
10
0.8838582677165354
20
1.3375984251968505
11
0.8661417322834646
21
1.3375984251968505
0
LINE
8
BLACK
6
CONTINUOUS
10
0.8661417322834646
20
1.3375984251968505
11
0.8661417322834646
21
1.3946850393700787
0
LINE
8
BLACK
6
CONTINUOUS
10
0.8661417322834646
20
1.3946850393700787
11
0.8838582677165354
21
1.3946850393700787
0
LINE
8
BLACK
6
CONTINUOUS
10
0.8838582677165354
20
1.3946850393700787
11
0.8838582677165354
21
1.3375984251968505
0
LINE
8
BLACK
6
CONTINUOUS
10
0.9094488188976377
20
1.3375984251968505
11
0.8917322834645669
21
1.3375984251968505
0
LINE
8
BLACK
6
CONTINUOUS
10
0.8917322834645669
20
1.3375984251968505
11
0.8917322834645669
21
1.3946850393700787
0
LINE
8
BLACK
6
CONTINUOUS
10
0.8917322834645669
20
1.3946850393700787
11
0.9094488188976377
21
1.3946850393700787
0
LINE
8
BLACK
6
CONTINUOUS
10
0.9094488188976377
20
1.3946850393700787
11
0.9094488188976377
21
1.3375984251968505
0
LINE
8
BLACK
6
CONTINUOUS
10
0.9350393700787402
20
1.3375984251968505
11
0.9173228346456692
21
1.3375984251968505
0
LINE
8
BLACK
6
CONTINUOUS
10
0.9173228346456692
20
1.3375984251968505
11
0.9173228346456692
21
1.3946850393700787
0
LINE
8
BLACK
6
CONTINUOUS
10
0.9173228346456692
20
1.3946850393700787
11
0.9350393700787402
21
1.3946850393700787
0
LINE
8
BLACK
6
CONTINUOUS
10
0.9350393700787402
20
1.3946850393700787
11
0.9350393700787402
21
1.3375984251968505
0
LINE
8
BLACK
6
CONTINUOUS
10
0.9606299212598425
20
1.3375984251968505
11
0.9429133858267716
21
1.3375984251968505
0
LINE
8
BLACK
6
CONTINUOUS
10
0.9429133858267716
20
1.3375984251968505
11
0.9429133858267716
21
1.3946850393700787
0
LINE
8
BLACK
6
CONTINUOUS
10
0.9429133858267716
20
1.3946850393700787
11
0.9606299212598425
21
1.3946850393700787
0
LINE
8
BLACK
6
CONTINUOUS
10
0.9606299212598425
20
1.3946850393700787
11
0.9606299212598425
21
1.3375984251968505
0
LINE
8
BLACK
6
CONTINUOUS
10
1.1025
20
1.345
11
1.0474999999999999
21
1.345
0
LINE
8
BLACK
6
CONTINUOUS
10
1.0474999999999999
20
1.345
11
1.0474999999999999
21
1.3799999999999999
0
LINE
8
BLACK
6
CONTINUOUS
10
1.0474999999999999
20
1.3799999999999999
11
1.1025
21
1.3799999999999999
0
LINE
8
BLACK
6
CONTINUOUS
10
1.1025
20
1.3799999999999999
11
1.1025
21
1.345
0
LINE
8
BLACK
6
CONTINUOUS
10
1.1025
20
1.4199999999999999
11
1.0474999999999999
21
1.4199999999999999
0
LINE
8
BLACK
6
CONTINUOUS
10
1.0474999999999999
20
1.4199999999999999
11
1.0474999999999999
21
1.4550000000000001
0
LINE
8
BLACK
6
CONTINUOUS
10
1.0474999999999999
20
1.4550000000000001
11
1.1025
21
1.4550000000000001
0
LINE
8
BLACK
6
CONTINUOUS
10
1.1025
20
1.4550000000000001
11
1.1025
21
1.4199999999999999
0
LINE
8
BLACK
6
CONTINUOUS
10
0.7524999999999999
20
1.4450000000000001
11
0.6975
21
1.4450000000000001
0
LINE
8
BLACK
6
CONTINUOUS
10
0.6975
20
1.4450000000000001
11
0.6975
21
1.48
0
LINE
8
BLACK
6
CONTINUOUS
10
0.6975
20
1.48
11
0.7524999999999999
21
1.48
0
LINE
8
BLACK
6
CONTINUOUS
10
0.7524999999999999
20
1.48
11
0.7524999999999999
21
1.4450000000000001
0
LINE
8
BLACK
6
CONTINUOUS
10
0.8275
20
1.4450000000000001
11
0.7725
21
1.4450000000000001
0
LINE
8
BLACK
6
CONTINUOUS
10
0.7725
20
1.4450000000000001
11
0.7725
21
1.48
0
LINE
8
BLACK
6
CONTINUOUS
10
0.7725
20
1.48
11
0.8275
21
1.48
0
LINE
8
BLACK
6
CONTINUOUS
10
0.8275
20
1.48
11
0.8275
21
1.4450000000000001
0
LINE
8
BLACK
6
CONTINUOUS
10
0.9025
20
1.4450000000000001
11
0.8475
21
1.4450000000000001
0
LINE
8
BLACK
6
CONTINUOUS
10
0.8475
20
1.4450000000000001
11
0.8475
21
1.48
0
LINE
8
BLACK
6
CONTINUOUS
10
0.8475
20
1.48
11
0.9025
21
1.48
0
LINE
8
BLACK
6
CONTINUOUS
10
0.9025
20
1.48
11
0.9025
21
1.4450000000000001
0
LINE
8
BLACK
6
CONTINUOUS
10
0.9774999999999999
20
1.4450000000000001
11
0.9225
21
1.4450000000000001
0
LINE
8
BLACK
6
CONTINUOUS
10
0.9225
20
1.4450000000000001
11
0.9225
21
1.48
0
LINE
8
BLACK
6
CONTINUOUS
10
0.9225
20
1.48
11
0.9774999999999999
21
1.48
0
LINE
8
BLACK
6
CONTINUOUS
10
0.9774999999999999
20
1.48
11
0.9774999999999999
21
1.4450000000000001
0
LINE
8
BLACK
6
CONTINUOUS
10
1.1025
20
1.4949999999999999
11
1.0474999999999999
21
1.4949999999999999
0
LINE
8
BLACK
6
CONTINUOUS
10
1.0474999999999999
20
1.4949999999999999
11
1.0474999999999999
21
1.53
0
LINE
8
BLACK
6
CONTINUOUS
10
1.0474999999999999
20
1.53
11
1.1025
21
1.53
0
LINE
8
BLACK
6
CONTINUOUS
10
1.1025
20
1.53
11
1.1025
21
1.4949999999999999
0
LINE
8
BLACK
6
CONTINUOUS
10
0.7524999999999999
20
1.52
11
0.6975
21
1.52
0
LINE
8
BLACK
6
CONTINUOUS
10
0.6975
20
1.52
11
0.6975
21
1.5549999999999999
0
LINE
8
BLACK
6
CONTINUOUS
10
0.6975
20
1.5549999999999999
11
0.7524999999999999
21
1.5549999999999999
0
LINE
8
BLACK
6
CONTINUOUS
10
0.7524999999999999
20
1.5549999999999999
11
0.7524999999999999
21
1.52
0
LINE
8
BLACK
6
CONTINUOUS
10
0.8275
20
1.52
11
0.7725
21
1.52
0
LINE
8
BLACK
6
CONTINUOUS
10
0.7725
20
1.52
11
0.7725
21
1.5549999999999999
0
LINE
8
BLACK
6
CONTINUOUS
10
0.7725
20
1.5549999999999999
11
0.8275
21
1.5549999999999999
0
LINE
8
BLACK
6
CONTINUOUS
10
0.8275
20
1.5549999999999999
11
0.8275
21
1.52
0
LINE
8
BLACK
6
CONTINUOUS
10
0.9025
20
1.52
11
0.8475
21
1.52
0
LINE
8
BLACK
6
CONTINUOUS
10
0.8475
20
1.52
11
0.8475
21
1.5549999999999999
0
LINE
8
BLACK
6
CONTINUOUS
10
0.8475
20
1.5549999999999999
11
0.9025
21
1.5549999999999999
0
LINE
8
BLACK
6
CONTINUOUS
10
0.9025
20
1.5549999999999999
11
0.9025
21
1.52
0
LINE
8
BLACK
6
CONTINUOUS
10
0.9774999999999999
20
1.52
11
0.9225
21
1.52
0
LINE
8
BLACK
6
CONTINUOUS
10
0.9225
20
1.52
11
0.9225
21
1.5549999999999999
0
LINE
8
BLACK
6
CONTINUOUS
10
0.9225
20
1.5549999999999999
11
0.9774999999999999
21
1.5549999999999999
0
LINE
8
BLACK
6
CONTINUOUS
10
0.9774999999999999
20
1.5549999999999999
11
0.9774999999999999
21
1.52
  0
ENDSEC
  0
EOF
