%TF.GenerationSoftware,KiCad,Pcbnew,7.0.11+1*%
%TF.CreationDate,2024-07-06T19:00:13+00:00*%
%TF.ProjectId,COILSW01,434f494c-5357-4303-912e-6b696361645f,REV*%
%TF.SameCoordinates,Original*%
%TF.FileFunction,Copper,L2,Bot*%
%TF.FilePolarity,Positive*%
%FSLAX46Y46*%
G04 Gerber Fmt 4.6, Leading zero omitted, Abs format (unit mm)*
G04 Created by KiCad (PCBNEW 7.0.11+1) date 2024-07-06 19:00:13*
%MOMM*%
%LPD*%
G01*
G04 APERTURE LIST*
%ADD10C,0.300000*%
%TA.AperFunction,NonConductor*%
%ADD11C,0.300000*%
%TD*%
%TA.AperFunction,ComponentPad*%
%ADD12R,2.400000X2.400000*%
%TD*%
%TA.AperFunction,ComponentPad*%
%ADD13C,2.400000*%
%TD*%
%TA.AperFunction,ComponentPad*%
%ADD14R,1.524000X1.524000*%
%TD*%
%TA.AperFunction,ComponentPad*%
%ADD15C,6.000000*%
%TD*%
%TA.AperFunction,ComponentPad*%
%ADD16R,3.810000X3.810000*%
%TD*%
%TA.AperFunction,SMDPad,CuDef*%
%ADD17R,1.397000X0.889000*%
%TD*%
%TA.AperFunction,SMDPad,CuDef*%
%ADD18R,3.200000X1.000000*%
%TD*%
%TA.AperFunction,SMDPad,CuDef*%
%ADD19R,1.200000X2.200000*%
%TD*%
%TA.AperFunction,SMDPad,CuDef*%
%ADD20R,5.800000X6.400000*%
%TD*%
%TA.AperFunction,SMDPad,CuDef*%
%ADD21R,6.400000X5.800000*%
%TD*%
%TA.AperFunction,SMDPad,CuDef*%
%ADD22R,2.200000X1.200000*%
%TD*%
%TA.AperFunction,SMDPad,CuDef*%
%ADD23R,0.889000X1.397000*%
%TD*%
%TA.AperFunction,SMDPad,CuDef*%
%ADD24R,0.450000X1.450000*%
%TD*%
%TA.AperFunction,SMDPad,CuDef*%
%ADD25R,2.700020X2.550160*%
%TD*%
%TA.AperFunction,ViaPad*%
%ADD26C,0.800000*%
%TD*%
%TA.AperFunction,Conductor*%
%ADD27C,0.600000*%
%TD*%
%TA.AperFunction,Conductor*%
%ADD28C,0.300000*%
%TD*%
G04 APERTURE END LIST*
D10*
D11*
X38127471Y19914571D02*
X38198900Y19985999D01*
X38198900Y19985999D02*
X38270328Y20200285D01*
X38270328Y20200285D02*
X38270328Y20343142D01*
X38270328Y20343142D02*
X38198900Y20557428D01*
X38198900Y20557428D02*
X38056042Y20700285D01*
X38056042Y20700285D02*
X37913185Y20771714D01*
X37913185Y20771714D02*
X37627471Y20843142D01*
X37627471Y20843142D02*
X37413185Y20843142D01*
X37413185Y20843142D02*
X37127471Y20771714D01*
X37127471Y20771714D02*
X36984614Y20700285D01*
X36984614Y20700285D02*
X36841757Y20557428D01*
X36841757Y20557428D02*
X36770328Y20343142D01*
X36770328Y20343142D02*
X36770328Y20200285D01*
X36770328Y20200285D02*
X36841757Y19985999D01*
X36841757Y19985999D02*
X36913185Y19914571D01*
X36770328Y18985999D02*
X36770328Y18700285D01*
X36770328Y18700285D02*
X36841757Y18557428D01*
X36841757Y18557428D02*
X36984614Y18414571D01*
X36984614Y18414571D02*
X37270328Y18343142D01*
X37270328Y18343142D02*
X37770328Y18343142D01*
X37770328Y18343142D02*
X38056042Y18414571D01*
X38056042Y18414571D02*
X38198900Y18557428D01*
X38198900Y18557428D02*
X38270328Y18700285D01*
X38270328Y18700285D02*
X38270328Y18985999D01*
X38270328Y18985999D02*
X38198900Y19128857D01*
X38198900Y19128857D02*
X38056042Y19271714D01*
X38056042Y19271714D02*
X37770328Y19343142D01*
X37770328Y19343142D02*
X37270328Y19343142D01*
X37270328Y19343142D02*
X36984614Y19271714D01*
X36984614Y19271714D02*
X36841757Y19128857D01*
X36841757Y19128857D02*
X36770328Y18985999D01*
X38270328Y17700285D02*
X36770328Y17700285D01*
X38270328Y16271713D02*
X38270328Y16985999D01*
X38270328Y16985999D02*
X36770328Y16985999D01*
X38198900Y15843141D02*
X38270328Y15628856D01*
X38270328Y15628856D02*
X38270328Y15271713D01*
X38270328Y15271713D02*
X38198900Y15128856D01*
X38198900Y15128856D02*
X38127471Y15057427D01*
X38127471Y15057427D02*
X37984614Y14985998D01*
X37984614Y14985998D02*
X37841757Y14985998D01*
X37841757Y14985998D02*
X37698900Y15057427D01*
X37698900Y15057427D02*
X37627471Y15128856D01*
X37627471Y15128856D02*
X37556042Y15271713D01*
X37556042Y15271713D02*
X37484614Y15557427D01*
X37484614Y15557427D02*
X37413185Y15700284D01*
X37413185Y15700284D02*
X37341757Y15771713D01*
X37341757Y15771713D02*
X37198900Y15843141D01*
X37198900Y15843141D02*
X37056042Y15843141D01*
X37056042Y15843141D02*
X36913185Y15771713D01*
X36913185Y15771713D02*
X36841757Y15700284D01*
X36841757Y15700284D02*
X36770328Y15557427D01*
X36770328Y15557427D02*
X36770328Y15200284D01*
X36770328Y15200284D02*
X36841757Y14985998D01*
X36770328Y14485999D02*
X38270328Y14128856D01*
X38270328Y14128856D02*
X37198900Y13843142D01*
X37198900Y13843142D02*
X38270328Y13557427D01*
X38270328Y13557427D02*
X36770328Y13200285D01*
X36770328Y12343141D02*
X36770328Y12200284D01*
X36770328Y12200284D02*
X36841757Y12057427D01*
X36841757Y12057427D02*
X36913185Y11985999D01*
X36913185Y11985999D02*
X37056042Y11914570D01*
X37056042Y11914570D02*
X37341757Y11843141D01*
X37341757Y11843141D02*
X37698900Y11843141D01*
X37698900Y11843141D02*
X37984614Y11914570D01*
X37984614Y11914570D02*
X38127471Y11985999D01*
X38127471Y11985999D02*
X38198900Y12057427D01*
X38198900Y12057427D02*
X38270328Y12200284D01*
X38270328Y12200284D02*
X38270328Y12343141D01*
X38270328Y12343141D02*
X38198900Y12485999D01*
X38198900Y12485999D02*
X38127471Y12557427D01*
X38127471Y12557427D02*
X37984614Y12628856D01*
X37984614Y12628856D02*
X37698900Y12700284D01*
X37698900Y12700284D02*
X37341757Y12700284D01*
X37341757Y12700284D02*
X37056042Y12628856D01*
X37056042Y12628856D02*
X36913185Y12557427D01*
X36913185Y12557427D02*
X36841757Y12485999D01*
X36841757Y12485999D02*
X36770328Y12343141D01*
X38270328Y10414570D02*
X38270328Y11271713D01*
X38270328Y10843142D02*
X36770328Y10843142D01*
X36770328Y10843142D02*
X36984614Y10985999D01*
X36984614Y10985999D02*
X37127471Y11128856D01*
X37127471Y11128856D02*
X37198900Y11271713D01*
X37841757Y9843142D02*
X37841757Y9128857D01*
X38270328Y9985999D02*
X36770328Y9485999D01*
X36770328Y9485999D02*
X38270328Y8985999D01*
D10*
D11*
X38270328Y31499428D02*
X36770328Y31499428D01*
X36770328Y31499428D02*
X37841757Y30999428D01*
X37841757Y30999428D02*
X36770328Y30499428D01*
X36770328Y30499428D02*
X38270328Y30499428D01*
X38270328Y29070856D02*
X38270328Y29785142D01*
X38270328Y29785142D02*
X36770328Y29785142D01*
X37841757Y28642284D02*
X37841757Y27927999D01*
X38270328Y28785141D02*
X36770328Y28285141D01*
X36770328Y28285141D02*
X38270328Y27785141D01*
X37484614Y26785142D02*
X37556042Y26570856D01*
X37556042Y26570856D02*
X37627471Y26499427D01*
X37627471Y26499427D02*
X37770328Y26427999D01*
X37770328Y26427999D02*
X37984614Y26427999D01*
X37984614Y26427999D02*
X38127471Y26499427D01*
X38127471Y26499427D02*
X38198900Y26570856D01*
X38198900Y26570856D02*
X38270328Y26713713D01*
X38270328Y26713713D02*
X38270328Y27285142D01*
X38270328Y27285142D02*
X36770328Y27285142D01*
X36770328Y27285142D02*
X36770328Y26785142D01*
X36770328Y26785142D02*
X36841757Y26642285D01*
X36841757Y26642285D02*
X36913185Y26570856D01*
X36913185Y26570856D02*
X37056042Y26499427D01*
X37056042Y26499427D02*
X37198900Y26499427D01*
X37198900Y26499427D02*
X37341757Y26570856D01*
X37341757Y26570856D02*
X37413185Y26642285D01*
X37413185Y26642285D02*
X37484614Y26785142D01*
X37484614Y26785142D02*
X37484614Y27285142D01*
X38127471Y25785142D02*
X38198900Y25713713D01*
X38198900Y25713713D02*
X38270328Y25785142D01*
X38270328Y25785142D02*
X38198900Y25856570D01*
X38198900Y25856570D02*
X38127471Y25785142D01*
X38127471Y25785142D02*
X38270328Y25785142D01*
X38127471Y24213713D02*
X38198900Y24285141D01*
X38198900Y24285141D02*
X38270328Y24499427D01*
X38270328Y24499427D02*
X38270328Y24642284D01*
X38270328Y24642284D02*
X38198900Y24856570D01*
X38198900Y24856570D02*
X38056042Y24999427D01*
X38056042Y24999427D02*
X37913185Y25070856D01*
X37913185Y25070856D02*
X37627471Y25142284D01*
X37627471Y25142284D02*
X37413185Y25142284D01*
X37413185Y25142284D02*
X37127471Y25070856D01*
X37127471Y25070856D02*
X36984614Y24999427D01*
X36984614Y24999427D02*
X36841757Y24856570D01*
X36841757Y24856570D02*
X36770328Y24642284D01*
X36770328Y24642284D02*
X36770328Y24499427D01*
X36770328Y24499427D02*
X36841757Y24285141D01*
X36841757Y24285141D02*
X36913185Y24213713D01*
X36770328Y23713713D02*
X36770328Y22713713D01*
X36770328Y22713713D02*
X38270328Y23713713D01*
X38270328Y23713713D02*
X38270328Y22713713D01*
D12*
%TO.P,C3,1*%
%TO.N,Net-(C3-Pad1)*%
X8255000Y26035000D03*
D13*
%TO.P,C3,2*%
%TO.N,GND*%
X13255000Y26035000D03*
%TD*%
D14*
%TO.P,J2,1*%
%TO.N,GND*%
X12700000Y37465000D03*
%TO.P,J2,2*%
%TO.N,/EN*%
X12700000Y34925000D03*
%TD*%
%TO.P,J3,1*%
%TO.N,/STATUS*%
X15240000Y37465000D03*
%TO.P,J3,2*%
X15240000Y34925000D03*
%TD*%
D15*
%TO.P,M1,1*%
%TO.N,GND*%
X35560000Y5080000D03*
%TD*%
%TO.P,M2,1*%
%TO.N,GND*%
X35560000Y35560000D03*
%TD*%
%TO.P,M3,1*%
%TO.N,GND*%
X5080000Y5080000D03*
%TD*%
%TO.P,M4,1*%
%TO.N,GND*%
X5080000Y35560000D03*
%TD*%
D16*
%TO.P,P3,1*%
%TO.N,Net-(C3-Pad1)*%
X17780000Y5160000D03*
X17780000Y10160000D03*
%TD*%
%TO.P,P2,1*%
%TO.N,GND*%
X27940000Y5160000D03*
X27940000Y10160000D03*
%TD*%
%TO.P,P4,1*%
%TO.N,Net-(P4-Pad1)*%
X22860000Y5160000D03*
X22860000Y10160000D03*
%TD*%
%TO.P,P1,1*%
%TO.N,Net-(C3-Pad1)*%
X12700000Y5160000D03*
X12700000Y10160000D03*
%TD*%
D17*
%TO.P,C5,1*%
%TO.N,Net-(C3-Pad1)*%
X17462500Y13652500D03*
%TO.P,C5,2*%
%TO.N,GND*%
X17462500Y15557500D03*
%TD*%
%TO.P,C6,1*%
%TO.N,/KEEP*%
X18415000Y37147500D03*
%TO.P,C6,2*%
%TO.N,GND*%
X18415000Y39052500D03*
%TD*%
%TO.P,R1,1*%
%TO.N,Net-(C3-Pad1)*%
X27305000Y38417500D03*
%TO.P,R1,2*%
%TO.N,/Vin*%
X27305000Y36512500D03*
%TD*%
%TO.P,R3,1*%
%TO.N,/HOLD*%
X22225000Y37147500D03*
%TO.P,R3,2*%
%TO.N,GND*%
X22225000Y39052500D03*
%TD*%
%TO.P,R4,1*%
%TO.N,/OSC*%
X24130000Y37147500D03*
%TO.P,R4,2*%
%TO.N,GND*%
X24130000Y39052500D03*
%TD*%
D18*
%TO.P,R5,1*%
%TO.N,Net-(Q1-Pad3)*%
X29210000Y20880000D03*
%TO.P,R5,2*%
%TO.N,GND*%
X29210000Y14680000D03*
%TD*%
D19*
%TO.P,Q1,1*%
%TO.N,Net-(D2-Pad2)*%
X20580000Y23250000D03*
D20*
%TO.P,Q1,2*%
%TO.N,Net-(P4-Pad1)*%
X22860000Y16950000D03*
D19*
%TO.P,Q1,3*%
%TO.N,Net-(Q1-Pad3)*%
X25140000Y23250000D03*
%TD*%
D21*
%TO.P,D2,1*%
%TO.N,Net-(C3-Pad1)*%
X10795000Y20955000D03*
D22*
%TO.P,D2,2*%
%TO.N,Net-(D2-Pad2)*%
X17095000Y23235000D03*
%TO.P,D2,3*%
%TO.N,N/C*%
X17095000Y18675000D03*
%TD*%
D17*
%TO.P,C7,1*%
%TO.N,Net-(C7-Pad1)*%
X27305000Y30162500D03*
%TO.P,C7,2*%
%TO.N,GND*%
X27305000Y28257500D03*
%TD*%
D23*
%TO.P,R6,1*%
%TO.N,Net-(Q1-Pad3)*%
X25400000Y26352500D03*
%TO.P,R6,2*%
%TO.N,Net-(C7-Pad1)*%
X23495000Y26352500D03*
%TD*%
D24*
%TO.P,U1,1*%
%TO.N,N/C*%
X20275000Y34700000D03*
%TO.P,U1,2*%
%TO.N,/KEEP*%
X20925000Y34700000D03*
%TO.P,U1,3*%
%TO.N,/PEAK*%
X21575000Y34700000D03*
%TO.P,U1,4*%
%TO.N,/HOLD*%
X22225000Y34700000D03*
%TO.P,U1,5*%
%TO.N,/OSC*%
X22875000Y34700000D03*
%TO.P,U1,6*%
%TO.N,N/C*%
X23525000Y34700000D03*
%TO.P,U1,7*%
%TO.N,/Vin*%
X24175000Y34700000D03*
%TO.P,U1,8*%
%TO.N,GND*%
X24175000Y28800000D03*
%TO.P,U1,9*%
%TO.N,Net-(C7-Pad1)*%
X23525000Y28800000D03*
%TO.P,U1,10*%
%TO.N,N/C*%
X22875000Y28800000D03*
%TO.P,U1,11*%
%TO.N,Net-(D2-Pad2)*%
X22225000Y28800000D03*
%TO.P,U1,12*%
%TO.N,/STATUS*%
X21575000Y28800000D03*
%TO.P,U1,13*%
%TO.N,/EN*%
X20925000Y28800000D03*
%TO.P,U1,14*%
%TO.N,N/C*%
X20275000Y28800000D03*
%TD*%
D17*
%TO.P,R2,1*%
%TO.N,/PEAK*%
X20320000Y37147500D03*
%TO.P,R2,2*%
%TO.N,GND*%
X20320000Y39052500D03*
%TD*%
%TO.P,C1,1*%
%TO.N,/Vin*%
X27305000Y34607500D03*
%TO.P,C1,2*%
%TO.N,GND*%
X27305000Y32702500D03*
%TD*%
D25*
%TO.P,C4,1*%
%TO.N,Net-(C3-Pad1)*%
X4445000Y18415000D03*
%TO.P,C4,2*%
%TO.N,GND*%
X4445000Y12065000D03*
%TD*%
D26*
%TO.N,Net-(C3-Pad1)*%
X26035000Y38100000D03*
%TO.N,GND*%
X27940000Y27432000D03*
X28448000Y13208000D03*
X9652000Y10160000D03*
X31750000Y12446000D03*
X23368000Y24130000D03*
X9652000Y12700000D03*
X31750000Y11430000D03*
X27178000Y13208000D03*
X8636000Y12700000D03*
X29210000Y26416000D03*
X20574000Y26924000D03*
X7620000Y14224000D03*
X30734000Y9906000D03*
X29210000Y38862000D03*
X15494000Y27940000D03*
X18542000Y16764000D03*
X16002000Y16764000D03*
X27686000Y19050000D03*
X27940000Y26416000D03*
X29210000Y28702000D03*
X8636000Y11430000D03*
X22352000Y23114000D03*
X28956000Y16510000D03*
X14986000Y19050000D03*
X31750000Y14986000D03*
X27686000Y16510000D03*
X15494000Y25908000D03*
X31496000Y19050000D03*
X26924000Y26416000D03*
X7620000Y10160000D03*
X31496000Y17780000D03*
X17526000Y27940000D03*
X14986000Y20320000D03*
X30226000Y19050000D03*
X29210000Y36830000D03*
X8636000Y10160000D03*
X7620000Y12700000D03*
X29718000Y13208000D03*
X14986000Y22860000D03*
X31750000Y13716000D03*
X17526000Y26924000D03*
X22352000Y24130000D03*
X16510000Y26924000D03*
X17526000Y25908000D03*
X29210000Y33782000D03*
X29210000Y34798000D03*
X28956000Y17780000D03*
X14986000Y24130000D03*
X23368000Y23114000D03*
X31496000Y16510000D03*
X16510000Y25908000D03*
X30734000Y11430000D03*
X27686000Y17780000D03*
X7620000Y11430000D03*
X17018000Y38862000D03*
X28956000Y19050000D03*
X16510000Y27940000D03*
X30226000Y16510000D03*
X30226000Y17780000D03*
X29210000Y32512000D03*
X15494000Y26924000D03*
X29210000Y37846000D03*
X9652000Y11430000D03*
X17272000Y16764000D03*
X29210000Y27686000D03*
X30734000Y8382000D03*
X26924000Y27432000D03*
X25908000Y28702000D03*
X14986000Y21590000D03*
%TD*%
D27*
%TO.N,Net-(C3-Pad1)*%
X26987500Y38100000D02*
X27305000Y38417500D01*
X17462500Y10477500D02*
X17780000Y10160000D01*
X17462500Y13652500D02*
X17462500Y10477500D01*
X26035000Y38100000D02*
X26987500Y38100000D01*
D28*
%TO.N,Net-(C7-Pad1)*%
X23525000Y28800000D02*
X23525000Y29875000D01*
X23525000Y29875000D02*
X23812500Y30162500D01*
X23525000Y26382500D02*
X23495000Y26352500D01*
X23812500Y30162500D02*
X27305000Y30162500D01*
X23525000Y28800000D02*
X23525000Y26382500D01*
%TO.N,Net-(D2-Pad2)*%
X22225000Y28800000D02*
X22225000Y27051000D01*
D27*
X22225000Y26595000D02*
X22225000Y27051000D01*
X20580000Y24950000D02*
X22225000Y26595000D01*
X20580000Y23250000D02*
X20580000Y24950000D01*
D28*
%TO.N,/EN*%
X20925000Y30383000D02*
X20925000Y28800000D01*
X12700000Y34925000D02*
X12700000Y33863000D01*
X14678010Y31884990D02*
X19423010Y31884990D01*
X19423010Y31884990D02*
X20925000Y30383000D01*
X12700000Y33863000D02*
X14678010Y31884990D01*
%TO.N,/STATUS*%
X15240000Y33655000D02*
X15240000Y33863000D01*
X21575000Y30495000D02*
X19685000Y32385000D01*
X16510000Y32385000D02*
X15240000Y33655000D01*
X19685000Y32385000D02*
X16510000Y32385000D01*
X15240000Y33863000D02*
X15240000Y37465000D01*
X15240000Y34925000D02*
X15240000Y33863000D01*
X21575000Y28800000D02*
X21575000Y30495000D01*
%TO.N,/KEEP*%
X20925000Y34700000D02*
X20925000Y35725000D01*
X18669000Y37147500D02*
X18415000Y37147500D01*
X20582000Y36068000D02*
X19748500Y36068000D01*
X20925000Y35725000D02*
X20582000Y36068000D01*
X19748500Y36068000D02*
X18669000Y37147500D01*
%TO.N,/PEAK*%
X20574000Y37147500D02*
X20320000Y37147500D01*
X21575000Y34700000D02*
X21575000Y36146500D01*
X21575000Y36146500D02*
X20574000Y37147500D01*
%TO.N,/HOLD*%
X22225000Y34700000D02*
X22225000Y37147500D01*
%TO.N,/OSC*%
X22875000Y34700000D02*
X22875000Y36146500D01*
X23876000Y37147500D02*
X24130000Y37147500D01*
X22875000Y36146500D02*
X23876000Y37147500D01*
%TO.N,/Vin*%
X27212500Y34700000D02*
X27305000Y34607500D01*
D27*
X27305000Y36512500D02*
X27305000Y34607500D01*
D28*
X24175000Y34700000D02*
X27212500Y34700000D01*
D27*
%TO.N,Net-(Q1-Pad3)*%
X25140000Y23250000D02*
X26840000Y23250000D01*
X25400000Y23510000D02*
X25140000Y23250000D01*
X26840000Y23250000D02*
X29210000Y20880000D01*
X25400000Y26352500D02*
X25400000Y23510000D01*
%TD*%
%TA.AperFunction,Conductor*%
%TO.N,GND*%
G36*
X40252621Y40290498D02*
G01*
X40299114Y40236842D01*
X40310500Y40184500D01*
X40310500Y455500D01*
X40290498Y387379D01*
X40236842Y340886D01*
X40184500Y329500D01*
X455500Y329500D01*
X387379Y349502D01*
X340886Y403158D01*
X329500Y455500D01*
X329500Y17091270D01*
X2586490Y17091270D01*
X2592999Y17030723D01*
X2593001Y17030715D01*
X2644100Y16893717D01*
X2644102Y16893712D01*
X2731728Y16776658D01*
X2848782Y16689032D01*
X2848787Y16689030D01*
X2985785Y16637931D01*
X2985793Y16637929D01*
X3046340Y16631420D01*
X3046352Y16631420D01*
X5845523Y16631420D01*
X5848517Y16631500D01*
X7355112Y16631500D01*
X7423233Y16611498D01*
X7444207Y16594595D01*
X9792853Y14245946D01*
X9809661Y14229882D01*
X9814725Y14225257D01*
X9818083Y14222191D01*
X9828459Y14213136D01*
X9835651Y14206862D01*
X10363163Y13767269D01*
X10402690Y13708293D01*
X10408500Y13670473D01*
X10408500Y12439153D01*
X10388498Y12371032D01*
X10383385Y12363668D01*
X10344111Y12311204D01*
X10344110Y12311201D01*
X10344109Y12311200D01*
X10293011Y12174204D01*
X10293009Y12174196D01*
X10286500Y12113649D01*
X10286500Y8206350D01*
X10293009Y8145803D01*
X10293011Y8145795D01*
X10344110Y8008797D01*
X10344112Y8008792D01*
X10383368Y7956354D01*
X10408179Y7889834D01*
X10408500Y7880845D01*
X10408500Y7439153D01*
X10388498Y7371032D01*
X10383385Y7363668D01*
X10344111Y7311204D01*
X10344110Y7311201D01*
X10344109Y7311200D01*
X10293011Y7174204D01*
X10293009Y7174196D01*
X10286500Y7113649D01*
X10286500Y3206350D01*
X10293009Y3145803D01*
X10293011Y3145795D01*
X10344110Y3008797D01*
X10344112Y3008792D01*
X10431738Y2891738D01*
X10548792Y2804112D01*
X10548797Y2804110D01*
X10685795Y2753011D01*
X10685803Y2753009D01*
X10746350Y2746500D01*
X10746362Y2746500D01*
X14653649Y2746500D01*
X14714195Y2753009D01*
X14714199Y2753010D01*
X14788052Y2780556D01*
X14832084Y2788500D01*
X15647916Y2788500D01*
X15691948Y2780556D01*
X15765800Y2753010D01*
X15765804Y2753009D01*
X15826350Y2746500D01*
X15826362Y2746500D01*
X19733649Y2746500D01*
X19794196Y2753009D01*
X19794204Y2753011D01*
X19931202Y2804110D01*
X19931207Y2804112D01*
X20048261Y2891738D01*
X20135887Y3008792D01*
X20135889Y3008797D01*
X20135890Y3008798D01*
X20186989Y3145799D01*
X20186990Y3145803D01*
X20193499Y3206350D01*
X20193500Y3206367D01*
X20193500Y3257039D01*
X20213502Y3325160D01*
X20267158Y3371653D01*
X20337432Y3381757D01*
X20402012Y3352263D01*
X20440396Y3292537D01*
X20444778Y3270507D01*
X20445778Y3261205D01*
X20446500Y3247737D01*
X20446500Y3206350D01*
X20453009Y3145803D01*
X20453011Y3145795D01*
X20504110Y3008797D01*
X20504112Y3008792D01*
X20591738Y2891738D01*
X20593599Y2890346D01*
X20613309Y2871994D01*
X20622576Y2861299D01*
X20624396Y2859080D01*
X20735258Y2763019D01*
X20735261Y2763017D01*
X20868210Y2702301D01*
X20936322Y2682302D01*
X20936329Y2682300D01*
X20984554Y2675366D01*
X21081000Y2661500D01*
X21081004Y2661500D01*
X24639009Y2661500D01*
X24718859Y2670085D01*
X24748149Y2673234D01*
X24748152Y2673234D01*
X24748155Y2673235D01*
X24748159Y2673235D01*
X24800480Y2684617D01*
X24800488Y2684619D01*
X24800491Y2684620D01*
X24800494Y2684621D01*
X24800501Y2684623D01*
X24904654Y2719288D01*
X24915911Y2726522D01*
X25027612Y2798308D01*
X25078715Y2842589D01*
X25080917Y2844396D01*
X25081268Y2844801D01*
X25081270Y2844802D01*
X25101403Y2868037D01*
X25121111Y2886386D01*
X25128261Y2891739D01*
X25165696Y2941746D01*
X25171340Y2948750D01*
X25176982Y2955261D01*
X25176983Y2955263D01*
X25181627Y2962490D01*
X25186764Y2969890D01*
X25189530Y2973585D01*
X25215889Y3008796D01*
X25266989Y3145799D01*
X25266990Y3145803D01*
X25273499Y3206350D01*
X25273500Y3206367D01*
X25273500Y3257209D01*
X25274782Y3275139D01*
X25278500Y3301001D01*
X25278500Y11800111D01*
X25298502Y11868232D01*
X25315405Y11889206D01*
X26361179Y12934980D01*
X26361189Y12934991D01*
X26361194Y12934996D01*
X26397917Y12975877D01*
X26414820Y12996851D01*
X26419216Y13002948D01*
X26446979Y13041446D01*
X26446980Y13041448D01*
X26446982Y13041451D01*
X26507698Y13174400D01*
X26527700Y13242521D01*
X26548500Y13387190D01*
X26548500Y20046109D01*
X26568502Y20114230D01*
X26622158Y20160723D01*
X26692432Y20170827D01*
X26757012Y20141333D01*
X26763595Y20135204D01*
X26904990Y19993808D01*
X26945902Y19957061D01*
X26945926Y19957040D01*
X26966836Y19940190D01*
X26966879Y19940157D01*
X27011445Y19908021D01*
X27011446Y19908020D01*
X27069112Y19881684D01*
X27144400Y19847302D01*
X27144402Y19847301D01*
X27144403Y19847301D01*
X27212512Y19827302D01*
X27212519Y19827300D01*
X27260744Y19820366D01*
X27357190Y19806500D01*
X27357194Y19806500D01*
X30989009Y19806500D01*
X31068859Y19815085D01*
X31098149Y19818234D01*
X31098152Y19818234D01*
X31098155Y19818235D01*
X31098159Y19818235D01*
X31150480Y19829617D01*
X31150488Y19829619D01*
X31150491Y19829620D01*
X31150494Y19829621D01*
X31150501Y19829623D01*
X31254654Y19864288D01*
X31322699Y19908018D01*
X31377612Y19943308D01*
X31377617Y19943312D01*
X31377621Y19943315D01*
X31428700Y19987575D01*
X31430920Y19989396D01*
X31526980Y20100258D01*
X31526982Y20100261D01*
X31587698Y20233210D01*
X31607697Y20301322D01*
X31607699Y20301329D01*
X31607700Y20301331D01*
X31628500Y20446000D01*
X31628500Y21501953D01*
X36106537Y21501953D01*
X36106537Y8325361D01*
X38934119Y8325361D01*
X38934119Y21501953D01*
X36106537Y21501953D01*
X31628500Y21501953D01*
X31628500Y22792567D01*
X31628499Y22792582D01*
X31624384Y22832423D01*
X31617664Y22897499D01*
X31607141Y22947908D01*
X31575090Y23048415D01*
X31498148Y23172681D01*
X31452563Y23227110D01*
X31343731Y23324663D01*
X31343725Y23324667D01*
X29526638Y24536059D01*
X29523092Y24538402D01*
X29522349Y24538887D01*
X29521331Y24539555D01*
X29517590Y24541982D01*
X29384641Y24602698D01*
X29316520Y24622700D01*
X29171851Y24643500D01*
X29171847Y24643500D01*
X26334500Y24643500D01*
X26266379Y24663502D01*
X26219886Y24717158D01*
X26208500Y24769500D01*
X26208500Y25249789D01*
X26228502Y25317910D01*
X26233632Y25325298D01*
X26295387Y25407792D01*
X26295389Y25407797D01*
X26301651Y25424584D01*
X26346489Y25544799D01*
X26346490Y25544803D01*
X26352999Y25605350D01*
X26353000Y25605367D01*
X26353000Y27099632D01*
X26352999Y27099649D01*
X26346490Y27160196D01*
X26346488Y27160204D01*
X26339460Y27179045D01*
X26295389Y27297204D01*
X26275577Y27323669D01*
X26207761Y27414261D01*
X26090707Y27501887D01*
X26090706Y27501887D01*
X26090704Y27501889D01*
X25953701Y27552989D01*
X25953699Y27552989D01*
X25953696Y27552990D01*
X25893149Y27559499D01*
X25893145Y27559499D01*
X25893138Y27559500D01*
X24906862Y27559500D01*
X24906855Y27559499D01*
X24906850Y27559499D01*
X24846303Y27552990D01*
X24846295Y27552988D01*
X24770564Y27524741D01*
X24709296Y27501889D01*
X24709294Y27501888D01*
X24709292Y27501887D01*
X24592238Y27414261D01*
X24548368Y27355657D01*
X24491532Y27313110D01*
X24420716Y27308046D01*
X24358404Y27342071D01*
X24346632Y27355657D01*
X24319583Y27391789D01*
X24302761Y27414261D01*
X24233990Y27465742D01*
X24191445Y27522576D01*
X24183500Y27566609D01*
X24183500Y27764790D01*
X24198909Y27825169D01*
X24200888Y27828795D01*
X24200889Y27828796D01*
X24251989Y27965799D01*
X24251990Y27965803D01*
X24258499Y28026350D01*
X24258500Y28026367D01*
X24258500Y29378000D01*
X24278502Y29446121D01*
X24332158Y29492614D01*
X24384500Y29504000D01*
X26068433Y29504000D01*
X26136554Y29483998D01*
X26169301Y29453509D01*
X26243238Y29354738D01*
X26360292Y29267112D01*
X26360297Y29267110D01*
X26497295Y29216011D01*
X26497303Y29216009D01*
X26557850Y29209500D01*
X26557862Y29209500D01*
X28052149Y29209500D01*
X28112696Y29216009D01*
X28112704Y29216011D01*
X28249702Y29267110D01*
X28249707Y29267112D01*
X28366761Y29354738D01*
X28454387Y29471792D01*
X28454389Y29471797D01*
X28466401Y29504000D01*
X28476424Y29530875D01*
X28505488Y29608795D01*
X28505490Y29608803D01*
X28511999Y29669350D01*
X28512000Y29669367D01*
X28512000Y30655632D01*
X28511999Y30655649D01*
X28505490Y30716196D01*
X28505488Y30716204D01*
X28492126Y30752028D01*
X28454389Y30853204D01*
X28451597Y30856933D01*
X28366761Y30970261D01*
X28249707Y31057887D01*
X28249706Y31057887D01*
X28249704Y31057889D01*
X28112701Y31108989D01*
X28112699Y31108989D01*
X28112696Y31108990D01*
X28052149Y31115499D01*
X28052145Y31115499D01*
X28052138Y31115500D01*
X26557862Y31115500D01*
X26557855Y31115499D01*
X26557850Y31115499D01*
X26497303Y31108990D01*
X26497295Y31108988D01*
X26419375Y31079924D01*
X26360296Y31057889D01*
X26360294Y31057888D01*
X26360292Y31057887D01*
X26243238Y30970261D01*
X26169301Y30871491D01*
X26112466Y30828945D01*
X26068433Y30821000D01*
X23899111Y30821000D01*
X23882879Y30822791D01*
X23882856Y30822542D01*
X23874963Y30823288D01*
X23804131Y30821062D01*
X23800173Y30821000D01*
X23771068Y30821000D01*
X23766657Y30820442D01*
X23754841Y30819512D01*
X23708669Y30818062D01*
X23688076Y30812079D01*
X23668718Y30808071D01*
X23655471Y30806397D01*
X23647436Y30805382D01*
X23604466Y30788369D01*
X23593255Y30784531D01*
X23548900Y30771645D01*
X23530439Y30760726D01*
X23512686Y30752030D01*
X23492744Y30744135D01*
X23492743Y30744134D01*
X23455364Y30716977D01*
X23445451Y30710465D01*
X23405693Y30686952D01*
X23405690Y30686950D01*
X23390531Y30671791D01*
X23375499Y30658950D01*
X23370955Y30655649D01*
X23358142Y30646340D01*
X23328698Y30610748D01*
X23320708Y30601967D01*
X23120612Y30401872D01*
X23107869Y30391664D01*
X23108030Y30391471D01*
X23101921Y30386417D01*
X23053394Y30334741D01*
X23050669Y30331929D01*
X23030075Y30311335D01*
X23030066Y30311325D01*
X23027353Y30307827D01*
X23019646Y30298803D01*
X22988028Y30265133D01*
X22988027Y30265131D01*
X22988023Y30265125D01*
X22977694Y30246338D01*
X22966843Y30229818D01*
X22953695Y30212867D01*
X22935346Y30170465D01*
X22930126Y30159810D01*
X22919915Y30141237D01*
X22907875Y30119336D01*
X22905413Y30113117D01*
X22861739Y30057143D01*
X22794736Y30033666D01*
X22788261Y30033500D01*
X22601362Y30033500D01*
X22563468Y30029426D01*
X22536532Y30029426D01*
X22498638Y30033500D01*
X22498634Y30033500D01*
X22359500Y30033500D01*
X22291379Y30053502D01*
X22244886Y30107158D01*
X22233500Y30159500D01*
X22233500Y30408386D01*
X22235292Y30424623D01*
X22235043Y30424647D01*
X22235787Y30432529D01*
X22235789Y30432537D01*
X22233562Y30503388D01*
X22233500Y30507346D01*
X22233500Y30536430D01*
X22233500Y30536432D01*
X22232945Y30540815D01*
X22232012Y30552666D01*
X22230562Y30598831D01*
X22224579Y30619421D01*
X22220571Y30638776D01*
X22217882Y30660064D01*
X22200871Y30703026D01*
X22197037Y30714224D01*
X22184145Y30758600D01*
X22173232Y30777052D01*
X22164529Y30794816D01*
X22156635Y30814756D01*
X22129480Y30852129D01*
X22122972Y30862036D01*
X22099453Y30901807D01*
X22084281Y30916977D01*
X22071444Y30932009D01*
X22058845Y30949351D01*
X22058841Y30949357D01*
X22023233Y30978812D01*
X22014477Y30986781D01*
X20838626Y32162632D01*
X36106537Y32162632D01*
X36106537Y22049922D01*
X38934119Y22049922D01*
X38934119Y32162632D01*
X36106537Y32162632D01*
X20838626Y32162632D01*
X20211872Y32789386D01*
X20201665Y32802129D01*
X20201471Y32801969D01*
X20196418Y32808075D01*
X20196416Y32808080D01*
X20144705Y32856638D01*
X20141960Y32859298D01*
X20121333Y32879927D01*
X20117831Y32882642D01*
X20108809Y32890346D01*
X20075133Y32921972D01*
X20056327Y32932310D01*
X20039823Y32943152D01*
X20022868Y32956304D01*
X20006989Y32963175D01*
X19980466Y32974653D01*
X19969803Y32979877D01*
X19929339Y33002123D01*
X19929338Y33002123D01*
X19929337Y33002124D01*
X19908562Y33007457D01*
X19889869Y33013856D01*
X19870176Y33022380D01*
X19824521Y33029609D01*
X19812936Y33032009D01*
X19768188Y33043500D01*
X19768186Y33043500D01*
X19746741Y33043500D01*
X19727032Y33045050D01*
X19705848Y33048406D01*
X19659859Y33044058D01*
X19648004Y33043500D01*
X16834949Y33043500D01*
X16766828Y33063502D01*
X16745859Y33080399D01*
X16274357Y33551901D01*
X16240335Y33614210D01*
X16245399Y33685025D01*
X16287946Y33741861D01*
X16365261Y33799738D01*
X16452887Y33916792D01*
X16452889Y33916797D01*
X16457429Y33928967D01*
X16481894Y33994560D01*
X16503988Y34053795D01*
X16503990Y34053803D01*
X16510499Y34114350D01*
X16510500Y34114367D01*
X16510500Y35735632D01*
X16510499Y35735649D01*
X16503990Y35796196D01*
X16503988Y35796204D01*
X16474267Y35875887D01*
X16452889Y35933204D01*
X16452667Y35933500D01*
X16365261Y36050261D01*
X16306657Y36094132D01*
X16264110Y36150968D01*
X16259046Y36221784D01*
X16293071Y36284096D01*
X16306657Y36295868D01*
X16365261Y36339738D01*
X16452887Y36456792D01*
X16452889Y36456797D01*
X16503988Y36593795D01*
X16503990Y36593803D01*
X16510499Y36654350D01*
X17208000Y36654350D01*
X17214509Y36593803D01*
X17214511Y36593795D01*
X17265610Y36456797D01*
X17265612Y36456792D01*
X17353238Y36339738D01*
X17470292Y36252112D01*
X17470297Y36252110D01*
X17607295Y36201011D01*
X17607303Y36201009D01*
X17667850Y36194500D01*
X17667862Y36194500D01*
X18638549Y36194500D01*
X18706670Y36174498D01*
X18727645Y36157595D01*
X19221630Y35663608D01*
X19231840Y35650865D01*
X19232033Y35651025D01*
X19237083Y35644920D01*
X19288756Y35596395D01*
X19291596Y35593643D01*
X19312165Y35573074D01*
X19312167Y35573073D01*
X19315684Y35570344D01*
X19324691Y35562650D01*
X19358365Y35531029D01*
X19358367Y35531027D01*
X19377167Y35520691D01*
X19393680Y35509843D01*
X19410626Y35496699D01*
X19410635Y35496694D01*
X19453024Y35478350D01*
X19463679Y35473130D01*
X19476198Y35466248D01*
X19526258Y35415904D01*
X19541500Y35355832D01*
X19541500Y33926350D01*
X19548009Y33865803D01*
X19548011Y33865795D01*
X19599110Y33728797D01*
X19599112Y33728792D01*
X19686738Y33611738D01*
X19803792Y33524112D01*
X19803797Y33524110D01*
X19940795Y33473011D01*
X19940803Y33473009D01*
X20001350Y33466500D01*
X20001362Y33466500D01*
X20548631Y33466500D01*
X20548638Y33466500D01*
X20548642Y33466500D01*
X20548654Y33466501D01*
X20586534Y33470573D01*
X20613466Y33470573D01*
X20651345Y33466501D01*
X20651357Y33466500D01*
X20651362Y33466500D01*
X20651369Y33466500D01*
X21198631Y33466500D01*
X21198638Y33466500D01*
X21198642Y33466500D01*
X21198654Y33466501D01*
X21236534Y33470573D01*
X21263466Y33470573D01*
X21301345Y33466501D01*
X21301357Y33466500D01*
X21301362Y33466500D01*
X21301369Y33466500D01*
X21848631Y33466500D01*
X21848638Y33466500D01*
X21848642Y33466500D01*
X21848654Y33466501D01*
X21886534Y33470573D01*
X21913466Y33470573D01*
X21951345Y33466501D01*
X21951357Y33466500D01*
X21951362Y33466500D01*
X21951369Y33466500D01*
X22498631Y33466500D01*
X22498638Y33466500D01*
X22498642Y33466500D01*
X22498654Y33466501D01*
X22536534Y33470573D01*
X22563466Y33470573D01*
X22601345Y33466501D01*
X22601357Y33466500D01*
X22601362Y33466500D01*
X22601369Y33466500D01*
X23148631Y33466500D01*
X23148638Y33466500D01*
X23148642Y33466500D01*
X23148654Y33466501D01*
X23186534Y33470573D01*
X23213466Y33470573D01*
X23251345Y33466501D01*
X23251357Y33466500D01*
X23251362Y33466500D01*
X23251369Y33466500D01*
X23798631Y33466500D01*
X23798638Y33466500D01*
X23798642Y33466500D01*
X23798654Y33466501D01*
X23836534Y33470573D01*
X23863466Y33470573D01*
X23901345Y33466501D01*
X23901357Y33466500D01*
X23901362Y33466500D01*
X23901369Y33466500D01*
X24448649Y33466500D01*
X24509196Y33473009D01*
X24509204Y33473011D01*
X24646202Y33524110D01*
X24646207Y33524112D01*
X24763261Y33611738D01*
X24850887Y33728792D01*
X24850889Y33728797D01*
X24901988Y33865795D01*
X24901990Y33865803D01*
X24908780Y33928967D01*
X24935948Y33994560D01*
X24994266Y34035051D01*
X25034058Y34041500D01*
X26021615Y34041500D01*
X26089736Y34021498D01*
X26136229Y33967842D01*
X26139670Y33959533D01*
X26155610Y33916795D01*
X26243238Y33799738D01*
X26360292Y33712112D01*
X26360297Y33712110D01*
X26497295Y33661011D01*
X26497303Y33661009D01*
X26557850Y33654500D01*
X26557862Y33654500D01*
X28052149Y33654500D01*
X28112696Y33661009D01*
X28112704Y33661011D01*
X28249702Y33712110D01*
X28249707Y33712112D01*
X28366761Y33799738D01*
X28454387Y33916792D01*
X28454389Y33916797D01*
X28458929Y33928967D01*
X28483394Y33994560D01*
X28505488Y34053795D01*
X28505490Y34053803D01*
X28511999Y34114350D01*
X28512000Y34114367D01*
X28512000Y35100632D01*
X28511999Y35100649D01*
X28505490Y35161196D01*
X28505488Y35161204D01*
X28498460Y35180045D01*
X28454389Y35298204D01*
X28366761Y35415261D01*
X28365902Y35415904D01*
X28308157Y35459132D01*
X28265610Y35515968D01*
X28260546Y35586784D01*
X28294571Y35649096D01*
X28308157Y35660868D01*
X28366761Y35704738D01*
X28454387Y35821792D01*
X28454389Y35821797D01*
X28505488Y35958795D01*
X28505490Y35958803D01*
X28511999Y36019350D01*
X28512000Y36019367D01*
X28512000Y37005632D01*
X28511999Y37005649D01*
X28505490Y37066196D01*
X28505488Y37066204D01*
X28498460Y37085045D01*
X28454389Y37203204D01*
X28366761Y37320261D01*
X28341988Y37338806D01*
X28308157Y37364132D01*
X28265610Y37420968D01*
X28260546Y37491784D01*
X28294571Y37554096D01*
X28308157Y37565868D01*
X28366761Y37609738D01*
X28454387Y37726792D01*
X28454389Y37726797D01*
X28505488Y37863795D01*
X28505490Y37863803D01*
X28511999Y37924350D01*
X28512000Y37924367D01*
X28512000Y38910632D01*
X28511999Y38910649D01*
X28505490Y38971196D01*
X28505488Y38971204D01*
X28491457Y39008821D01*
X28454389Y39108204D01*
X28366761Y39225261D01*
X28249704Y39312889D01*
X28112701Y39363989D01*
X28112699Y39363989D01*
X28112696Y39363990D01*
X28052149Y39370499D01*
X28052145Y39370499D01*
X28052138Y39370500D01*
X26557862Y39370500D01*
X26557855Y39370499D01*
X26557850Y39370499D01*
X26497303Y39363990D01*
X26497295Y39363988D01*
X26419375Y39334924D01*
X26360296Y39312889D01*
X26360294Y39312888D01*
X26360292Y39312887D01*
X26243238Y39225261D01*
X26155612Y39108207D01*
X26155611Y39108204D01*
X26148995Y39090466D01*
X26106448Y39033631D01*
X26039927Y39008821D01*
X26030940Y39008500D01*
X25939513Y39008500D01*
X25752712Y38968794D01*
X25578248Y38891118D01*
X25578247Y38891117D01*
X25423744Y38778864D01*
X25295965Y38636951D01*
X25295958Y38636941D01*
X25228841Y38520691D01*
X25200473Y38471556D01*
X25171526Y38382470D01*
X25141457Y38289927D01*
X25130950Y38189956D01*
X25103937Y38124299D01*
X25045715Y38083670D01*
X24974770Y38080967D01*
X24961613Y38085070D01*
X24937701Y38093989D01*
X24937697Y38093989D01*
X24937696Y38093990D01*
X24877149Y38100499D01*
X24877145Y38100499D01*
X24877138Y38100500D01*
X23382862Y38100500D01*
X23382855Y38100499D01*
X23382850Y38100499D01*
X23322303Y38093990D01*
X23322295Y38093988D01*
X23221533Y38056405D01*
X23150718Y38051339D01*
X23133467Y38056405D01*
X23032704Y38093988D01*
X23032703Y38093988D01*
X23032701Y38093989D01*
X23032699Y38093989D01*
X23032696Y38093990D01*
X22972149Y38100499D01*
X22972145Y38100499D01*
X22972138Y38100500D01*
X21477862Y38100500D01*
X21477855Y38100499D01*
X21477850Y38100499D01*
X21417303Y38093990D01*
X21417295Y38093988D01*
X21316533Y38056405D01*
X21245718Y38051339D01*
X21228467Y38056405D01*
X21127704Y38093988D01*
X21127703Y38093988D01*
X21127701Y38093989D01*
X21127699Y38093989D01*
X21127696Y38093990D01*
X21067149Y38100499D01*
X21067145Y38100499D01*
X21067138Y38100500D01*
X19572862Y38100500D01*
X19572855Y38100499D01*
X19572850Y38100499D01*
X19512303Y38093990D01*
X19512295Y38093988D01*
X19411533Y38056405D01*
X19340718Y38051339D01*
X19323467Y38056405D01*
X19222704Y38093988D01*
X19222703Y38093988D01*
X19222701Y38093989D01*
X19222699Y38093989D01*
X19222696Y38093990D01*
X19162149Y38100499D01*
X19162145Y38100499D01*
X19162138Y38100500D01*
X17667862Y38100500D01*
X17667855Y38100499D01*
X17667850Y38100499D01*
X17607303Y38093990D01*
X17607295Y38093988D01*
X17529375Y38064924D01*
X17470296Y38042889D01*
X17470294Y38042888D01*
X17470292Y38042887D01*
X17353238Y37955261D01*
X17265612Y37838207D01*
X17265610Y37838202D01*
X17214511Y37701204D01*
X17214509Y37701196D01*
X17208000Y37640649D01*
X17208000Y36654350D01*
X16510499Y36654350D01*
X16510500Y36654367D01*
X16510500Y38275632D01*
X16510499Y38275649D01*
X16503990Y38336196D01*
X16503988Y38336204D01*
X16453504Y38471554D01*
X16452889Y38473204D01*
X16365261Y38590261D01*
X16248204Y38677889D01*
X16111201Y38728989D01*
X16111199Y38728989D01*
X16111196Y38728990D01*
X16050649Y38735499D01*
X16050645Y38735499D01*
X16050638Y38735500D01*
X14429362Y38735500D01*
X14429355Y38735499D01*
X14429350Y38735499D01*
X14368803Y38728990D01*
X14368795Y38728988D01*
X14290875Y38699924D01*
X14231796Y38677889D01*
X14231794Y38677888D01*
X14231792Y38677887D01*
X14114738Y38590261D01*
X14027112Y38473207D01*
X14027110Y38473202D01*
X13976011Y38336204D01*
X13976009Y38336196D01*
X13969500Y38275649D01*
X13969500Y36654350D01*
X13976009Y36593803D01*
X13976011Y36593795D01*
X14027110Y36456797D01*
X14027112Y36456792D01*
X14114739Y36339738D01*
X14173343Y36295867D01*
X14215889Y36239031D01*
X14220953Y36168216D01*
X14186928Y36105904D01*
X14173343Y36094133D01*
X14114739Y36050261D01*
X14070868Y35991657D01*
X14014032Y35949110D01*
X13943216Y35944046D01*
X13880904Y35978071D01*
X13869132Y35991657D01*
X13825261Y36050261D01*
X13708207Y36137887D01*
X13708206Y36137887D01*
X13708204Y36137889D01*
X13571201Y36188989D01*
X13571199Y36188989D01*
X13571196Y36188990D01*
X13510649Y36195499D01*
X13510645Y36195499D01*
X13510638Y36195500D01*
X11889362Y36195500D01*
X11889355Y36195499D01*
X11889350Y36195499D01*
X11828803Y36188990D01*
X11828795Y36188988D01*
X11773105Y36168216D01*
X11691796Y36137889D01*
X11691794Y36137888D01*
X11691792Y36137887D01*
X11574738Y36050261D01*
X11487112Y35933207D01*
X11487110Y35933202D01*
X11436011Y35796204D01*
X11436009Y35796196D01*
X11429500Y35735649D01*
X11429500Y34114350D01*
X11436009Y34053803D01*
X11436011Y34053795D01*
X11487110Y33916797D01*
X11487112Y33916792D01*
X11574738Y33799738D01*
X11691792Y33712112D01*
X11691797Y33712110D01*
X11828795Y33661011D01*
X11828803Y33661009D01*
X11889350Y33654500D01*
X11889362Y33654500D01*
X11986400Y33654500D01*
X12054521Y33634498D01*
X12094860Y33592628D01*
X12101776Y33580931D01*
X12110466Y33563191D01*
X12118362Y33543248D01*
X12118364Y33543245D01*
X12145517Y33505872D01*
X12152032Y33495953D01*
X12175546Y33456194D01*
X12190717Y33441022D01*
X12203550Y33425996D01*
X12216157Y33408644D01*
X12216158Y33408643D01*
X12251758Y33379191D01*
X12260534Y33371204D01*
X14151137Y31480601D01*
X14161350Y31467855D01*
X14161543Y31468015D01*
X14166593Y31461910D01*
X14218266Y31413385D01*
X14221106Y31410633D01*
X14241675Y31390064D01*
X14241677Y31390063D01*
X14245194Y31387334D01*
X14254201Y31379640D01*
X14287875Y31348019D01*
X14287877Y31348017D01*
X14306677Y31337681D01*
X14323190Y31326833D01*
X14340136Y31313689D01*
X14340145Y31313684D01*
X14382534Y31295340D01*
X14393188Y31290121D01*
X14433671Y31267867D01*
X14433680Y31267863D01*
X14454446Y31262531D01*
X14473146Y31256129D01*
X14492832Y31247610D01*
X14538462Y31240383D01*
X14550082Y31237976D01*
X14594821Y31226490D01*
X14594822Y31226490D01*
X14616269Y31226490D01*
X14635977Y31224939D01*
X14657162Y31221584D01*
X14703150Y31225931D01*
X14715006Y31226490D01*
X19098060Y31226490D01*
X19166181Y31206488D01*
X19187155Y31189585D01*
X20128145Y30248595D01*
X20162171Y30186283D01*
X20157106Y30115468D01*
X20114559Y30058632D01*
X20048039Y30033821D01*
X20039050Y30033500D01*
X20001362Y30033500D01*
X20001355Y30033499D01*
X20001350Y30033499D01*
X19940803Y30026990D01*
X19940795Y30026988D01*
X19862875Y29997924D01*
X19803796Y29975889D01*
X19803794Y29975888D01*
X19803792Y29975887D01*
X19686738Y29888261D01*
X19599112Y29771207D01*
X19599110Y29771202D01*
X19548011Y29634204D01*
X19548009Y29634196D01*
X19541500Y29573649D01*
X19541500Y28026350D01*
X19548009Y27965803D01*
X19548011Y27965795D01*
X19599110Y27828797D01*
X19599112Y27828792D01*
X19686738Y27711738D01*
X19803792Y27624112D01*
X19803797Y27624110D01*
X19940795Y27573011D01*
X19940803Y27573009D01*
X20001350Y27566500D01*
X20001362Y27566500D01*
X20548631Y27566500D01*
X20548638Y27566500D01*
X20548642Y27566500D01*
X20548654Y27566501D01*
X20586534Y27570573D01*
X20613466Y27570573D01*
X20651345Y27566501D01*
X20651357Y27566500D01*
X20651362Y27566500D01*
X20651369Y27566500D01*
X21198631Y27566500D01*
X21198638Y27566500D01*
X21198642Y27566500D01*
X21198654Y27566501D01*
X21236534Y27570573D01*
X21263466Y27570573D01*
X21301345Y27566501D01*
X21301357Y27566500D01*
X21301362Y27566500D01*
X21371233Y27566500D01*
X21439354Y27546498D01*
X21485847Y27492842D01*
X21495951Y27422568D01*
X21490162Y27398885D01*
X21431783Y27232047D01*
X21417388Y27104288D01*
X21416500Y27096406D01*
X21416500Y26982082D01*
X21396498Y26913961D01*
X21379595Y26892987D01*
X20072719Y25586111D01*
X19943889Y25457281D01*
X19923344Y25424584D01*
X19915168Y25413062D01*
X19891092Y25382872D01*
X19891090Y25382868D01*
X19874334Y25348074D01*
X19867500Y25335709D01*
X19846957Y25303015D01*
X19842661Y25290738D01*
X19834203Y25266566D01*
X19828796Y25253513D01*
X19812042Y25218724D01*
X19812040Y25218716D01*
X19803445Y25181065D01*
X19799535Y25167495D01*
X19786784Y25131053D01*
X19786782Y25131046D01*
X19782458Y25092668D01*
X19780091Y25078741D01*
X19771500Y25041099D01*
X19771500Y24892185D01*
X19751498Y24824064D01*
X19721009Y24791317D01*
X19616738Y24713260D01*
X19602312Y24693990D01*
X19545476Y24651444D01*
X19501445Y24643500D01*
X16012955Y24643500D01*
X15930214Y24636790D01*
X15890138Y24630247D01*
X15809553Y24610290D01*
X15781588Y24596208D01*
X15679019Y24544560D01*
X15679017Y24544559D01*
X15679014Y24544557D01*
X15679012Y24544556D01*
X15620791Y24503926D01*
X15620789Y24503924D01*
X15620787Y24503923D01*
X15514058Y24404078D01*
X15439780Y24278207D01*
X15439776Y24278199D01*
X15412571Y24212074D01*
X15411957Y24209345D01*
X15376959Y24070850D01*
X15368963Y23994772D01*
X15368109Y23988275D01*
X15367813Y23986406D01*
X15367812Y23986395D01*
X15367367Y23980739D01*
X15366555Y23973276D01*
X15365808Y23967905D01*
X15365200Y23958975D01*
X15364410Y23951460D01*
X15364507Y23944377D01*
X15361500Y23906140D01*
X15361500Y23083863D01*
X15364482Y23045973D01*
X15363913Y23043267D01*
X15366851Y23015319D01*
X15367152Y23012040D01*
X15367821Y23003535D01*
X15368106Y23001737D01*
X15368963Y22995225D01*
X15381792Y22873171D01*
X15381792Y22846829D01*
X15368964Y22724780D01*
X15368107Y22718268D01*
X15367816Y22716433D01*
X15367813Y22716407D01*
X15367366Y22710729D01*
X15366556Y22703286D01*
X15365808Y22697908D01*
X15365200Y22688973D01*
X15364410Y22681458D01*
X15364507Y22674375D01*
X15361500Y22636140D01*
X15361500Y22350990D01*
X15373235Y22241844D01*
X15373235Y22241840D01*
X15384617Y22189519D01*
X15384623Y22189498D01*
X15419288Y22085345D01*
X15498310Y21962385D01*
X15542576Y21911299D01*
X15544395Y21909080D01*
X15655258Y21813019D01*
X15655261Y21813017D01*
X15788210Y21752301D01*
X15856322Y21732302D01*
X15856329Y21732300D01*
X15904554Y21725366D01*
X16001000Y21711500D01*
X19678948Y21711500D01*
X19724466Y21699883D01*
X19725353Y21702260D01*
X19870795Y21648011D01*
X19870803Y21648009D01*
X19931350Y21641500D01*
X19931362Y21641500D01*
X21228649Y21641500D01*
X21289196Y21648009D01*
X21289204Y21648011D01*
X21426202Y21699110D01*
X21426207Y21699112D01*
X21543261Y21786738D01*
X21630887Y21903792D01*
X21630889Y21903797D01*
X21633688Y21911299D01*
X21681989Y22040799D01*
X21681990Y22040803D01*
X21688499Y22101350D01*
X21688500Y22101367D01*
X21688500Y24398632D01*
X21688499Y24398649D01*
X21681990Y24459196D01*
X21681988Y24459204D01*
X21653308Y24536096D01*
X21630889Y24596204D01*
X21584455Y24658231D01*
X21559644Y24724751D01*
X21574735Y24794125D01*
X21596228Y24822836D01*
X22347307Y25573915D01*
X22409619Y25607941D01*
X22480434Y25602876D01*
X22537270Y25560329D01*
X22554457Y25528854D01*
X22599611Y25407795D01*
X22599612Y25407792D01*
X22687238Y25290738D01*
X22804292Y25203112D01*
X22804297Y25203110D01*
X22941295Y25152011D01*
X22941303Y25152009D01*
X23001850Y25145500D01*
X23001862Y25145500D01*
X23988149Y25145500D01*
X24048696Y25152009D01*
X24048704Y25152011D01*
X24185702Y25203110D01*
X24185707Y25203112D01*
X24302761Y25290738D01*
X24346632Y25349343D01*
X24403468Y25391890D01*
X24474284Y25396954D01*
X24536596Y25362929D01*
X24548368Y25349343D01*
X24566368Y25325298D01*
X24591179Y25258778D01*
X24591500Y25249789D01*
X24591500Y24982445D01*
X24571498Y24914324D01*
X24517842Y24867831D01*
X24478967Y24857167D01*
X24461229Y24855260D01*
X24430803Y24851990D01*
X24430795Y24851988D01*
X24355930Y24824064D01*
X24293796Y24800889D01*
X24293794Y24800888D01*
X24293792Y24800887D01*
X24176738Y24713261D01*
X24089112Y24596207D01*
X24089110Y24596202D01*
X24038011Y24459204D01*
X24038009Y24459196D01*
X24031500Y24398649D01*
X24031500Y22101350D01*
X24038009Y22040803D01*
X24038011Y22040795D01*
X24089110Y21903797D01*
X24089112Y21903792D01*
X24176738Y21786738D01*
X24201010Y21768569D01*
X24243556Y21711733D01*
X24251500Y21667702D01*
X24251500Y21642173D01*
X24254439Y21587329D01*
X24254443Y21587277D01*
X24257318Y21560535D01*
X24257320Y21560524D01*
X24266114Y21506255D01*
X24266117Y21506243D01*
X24317190Y21369314D01*
X24317194Y21369304D01*
X24351221Y21306991D01*
X24438802Y21190000D01*
X24438812Y21189988D01*
X24580206Y21048595D01*
X24614232Y20986283D01*
X24609167Y20915468D01*
X24566620Y20858632D01*
X24500100Y20833821D01*
X24491111Y20833500D01*
X19811000Y20833500D01*
X19810991Y20833499D01*
X19810990Y20833499D01*
X19804796Y20832833D01*
X19701851Y20821766D01*
X19701842Y20821764D01*
X19701840Y20821764D01*
X19665663Y20813894D01*
X19649509Y20810380D01*
X19597073Y20792927D01*
X19545345Y20775711D01*
X19545343Y20775710D01*
X19422388Y20696692D01*
X19422386Y20696690D01*
X19422384Y20696689D01*
X19371300Y20652424D01*
X19369077Y20650600D01*
X19273019Y20539741D01*
X19273017Y20539738D01*
X19212301Y20406789D01*
X19205130Y20382365D01*
X19192300Y20338669D01*
X19171500Y20194000D01*
X19171500Y20193996D01*
X19171500Y13387177D01*
X19171499Y13387177D01*
X19174441Y13332305D01*
X19177324Y13305495D01*
X19177327Y13305478D01*
X19186114Y13251256D01*
X19237192Y13114310D01*
X19271216Y13052000D01*
X19358809Y12934991D01*
X19358812Y12934988D01*
X19505206Y12788595D01*
X19539232Y12726283D01*
X19534167Y12655468D01*
X19491620Y12598632D01*
X19425100Y12573821D01*
X19416111Y12573500D01*
X18540498Y12573500D01*
X18472377Y12593502D01*
X18425884Y12647158D01*
X18415780Y12717432D01*
X18445274Y12782012D01*
X18464989Y12800368D01*
X18524261Y12844738D01*
X18611887Y12961792D01*
X18611889Y12961797D01*
X18617139Y12975871D01*
X18645534Y13052000D01*
X18662988Y13098795D01*
X18662990Y13098803D01*
X18669499Y13159350D01*
X18669500Y13159367D01*
X18669500Y14145632D01*
X18669499Y14145649D01*
X18662990Y14206196D01*
X18662988Y14206204D01*
X18648165Y14245946D01*
X18611889Y14343204D01*
X18524261Y14460261D01*
X18407204Y14547889D01*
X18270201Y14598989D01*
X18270199Y14598989D01*
X18270196Y14598990D01*
X18209649Y14605499D01*
X18209645Y14605499D01*
X18209638Y14605500D01*
X16715362Y14605500D01*
X16715355Y14605499D01*
X16715350Y14605499D01*
X16654803Y14598990D01*
X16654795Y14598988D01*
X16576875Y14569924D01*
X16517796Y14547889D01*
X16517794Y14547888D01*
X16517792Y14547887D01*
X16400738Y14460261D01*
X16313112Y14343207D01*
X16313110Y14343202D01*
X16262011Y14206204D01*
X16262009Y14206196D01*
X16255500Y14145649D01*
X16255500Y13222887D01*
X16235498Y13154766D01*
X16181842Y13108273D01*
X16111568Y13098169D01*
X16046988Y13127663D01*
X16040413Y13133784D01*
X15282403Y13891793D01*
X15248378Y13954105D01*
X15245499Y13980888D01*
X15245499Y14605500D01*
X15245500Y16965809D01*
X15242559Y17020691D01*
X15241481Y17030715D01*
X15239681Y17047463D01*
X15239680Y17047474D01*
X15230884Y17101751D01*
X15179806Y17238692D01*
X15145780Y17301004D01*
X15058194Y17418004D01*
X14540404Y17935791D01*
X14506380Y17998104D01*
X14503500Y18024887D01*
X14503500Y18026350D01*
X15486500Y18026350D01*
X15493009Y17965803D01*
X15493011Y17965795D01*
X15544110Y17828797D01*
X15544112Y17828792D01*
X15631738Y17711738D01*
X15748792Y17624112D01*
X15748797Y17624110D01*
X15885795Y17573011D01*
X15885803Y17573009D01*
X15946350Y17566500D01*
X15946362Y17566500D01*
X18243649Y17566500D01*
X18304196Y17573009D01*
X18304204Y17573011D01*
X18441202Y17624110D01*
X18441207Y17624112D01*
X18558261Y17711738D01*
X18645887Y17828792D01*
X18645889Y17828797D01*
X18696988Y17965795D01*
X18696990Y17965803D01*
X18703499Y18026350D01*
X18703500Y18026367D01*
X18703500Y19323632D01*
X18703499Y19323649D01*
X18696990Y19384196D01*
X18696988Y19384204D01*
X18689960Y19403045D01*
X18645889Y19521204D01*
X18558261Y19638261D01*
X18441204Y19725889D01*
X18304201Y19776989D01*
X18304199Y19776989D01*
X18304196Y19776990D01*
X18243649Y19783499D01*
X18243645Y19783499D01*
X18243638Y19783500D01*
X15946362Y19783500D01*
X15946355Y19783499D01*
X15946350Y19783499D01*
X15885803Y19776990D01*
X15885795Y19776988D01*
X15807875Y19747924D01*
X15748796Y19725889D01*
X15748794Y19725888D01*
X15748792Y19725887D01*
X15631738Y19638261D01*
X15544112Y19521207D01*
X15544110Y19521202D01*
X15493011Y19384204D01*
X15493009Y19384196D01*
X15486500Y19323649D01*
X15486500Y18026350D01*
X14503500Y18026350D01*
X14503500Y23903632D01*
X14503499Y23903649D01*
X14496990Y23964196D01*
X14496989Y23964197D01*
X14496989Y23964201D01*
X14489579Y23984065D01*
X14482357Y24014631D01*
X14471765Y24113154D01*
X14471764Y24113159D01*
X14460382Y24165480D01*
X14460380Y24165491D01*
X14425710Y24269657D01*
X14346692Y24392612D01*
X14302405Y24443721D01*
X14300598Y24445924D01*
X14223984Y24512308D01*
X14189739Y24541982D01*
X14056790Y24602698D01*
X13988669Y24622700D01*
X13844000Y24643500D01*
X13843996Y24643500D01*
X10424890Y24643500D01*
X10356769Y24663502D01*
X10335795Y24680404D01*
X10148367Y24867831D01*
X10075404Y24940792D01*
X10041380Y25003104D01*
X10038500Y25029888D01*
X10038500Y27178994D01*
X10038499Y27179009D01*
X10032797Y27232047D01*
X10026766Y27288149D01*
X10015380Y27340491D01*
X9980710Y27444657D01*
X9901692Y27567612D01*
X9857405Y27618721D01*
X9855598Y27620924D01*
X9744741Y27716980D01*
X9744739Y27716982D01*
X9611790Y27777698D01*
X9543669Y27797700D01*
X9399000Y27818500D01*
X7111000Y27818500D01*
X7110991Y27818499D01*
X7110990Y27818499D01*
X7104796Y27817833D01*
X7001851Y27806766D01*
X7001842Y27806764D01*
X7001840Y27806764D01*
X6965663Y27798894D01*
X6949509Y27795380D01*
X6897073Y27777927D01*
X6845345Y27760711D01*
X6845343Y27760710D01*
X6722388Y27681692D01*
X6722386Y27681690D01*
X6722384Y27681689D01*
X6671300Y27637424D01*
X6669077Y27635600D01*
X6573019Y27524741D01*
X6573017Y27524738D01*
X6512301Y27391789D01*
X6501692Y27355657D01*
X6492300Y27323669D01*
X6471500Y27179000D01*
X6471500Y27178996D01*
X6471500Y21854887D01*
X6451498Y21786766D01*
X6434595Y21765792D01*
X5539208Y20870405D01*
X5476896Y20836379D01*
X5450113Y20833500D01*
X3301000Y20833500D01*
X3300991Y20833499D01*
X3300990Y20833499D01*
X3294796Y20832833D01*
X3191851Y20821766D01*
X3191842Y20821764D01*
X3191840Y20821764D01*
X3155663Y20813894D01*
X3139509Y20810380D01*
X3087073Y20792927D01*
X3035345Y20775711D01*
X3035343Y20775710D01*
X2912388Y20696692D01*
X2912386Y20696690D01*
X2912384Y20696689D01*
X2861300Y20652424D01*
X2859077Y20650600D01*
X2763019Y20539741D01*
X2763017Y20539738D01*
X2702301Y20406789D01*
X2695130Y20382365D01*
X2682300Y20338669D01*
X2661500Y20194000D01*
X2661500Y20193996D01*
X2661500Y20000306D01*
X2646086Y19939918D01*
X2644099Y19936280D01*
X2593001Y19799284D01*
X2592999Y19799276D01*
X2586490Y19738729D01*
X2586490Y17091270D01*
X329500Y17091270D01*
X329500Y40184500D01*
X349502Y40252621D01*
X403158Y40299114D01*
X455500Y40310500D01*
X40184500Y40310500D01*
X40252621Y40290498D01*
G37*
%TD.AperFunction*%
%TD*%
%TA.AperFunction,Conductor*%
%TO.N,Net-(C3-Pad1)*%
G36*
X9467121Y27284998D02*
G01*
X9513614Y27231342D01*
X9525000Y27179000D01*
X9525000Y24764998D01*
X10159998Y24130000D01*
X10160000Y24130000D01*
X13844000Y24130000D01*
X13912121Y24109998D01*
X13958614Y24056342D01*
X13970000Y24004000D01*
X13970000Y17779998D01*
X14695095Y17054904D01*
X14729121Y16992592D01*
X14732000Y16965809D01*
X14732000Y13716000D01*
X14731999Y13716000D01*
X15112999Y13335000D01*
X15494000Y12954000D01*
X16509998Y11938000D01*
X16510000Y11938000D01*
X17272000Y11938000D01*
X19432000Y11938000D01*
X19500121Y11917998D01*
X19546614Y11864342D01*
X19558000Y11812000D01*
X19558000Y3428000D01*
X19537998Y3359879D01*
X19484342Y3313386D01*
X19432000Y3302000D01*
X11048000Y3302000D01*
X10979879Y3322002D01*
X10933386Y3375658D01*
X10922000Y3428000D01*
X10922000Y13969999D01*
X10922000Y13970000D01*
X10164373Y14601355D01*
X10155965Y14609034D01*
X7620000Y17145000D01*
X3301000Y17145000D01*
X3232879Y17165002D01*
X3186386Y17218658D01*
X3175000Y17271000D01*
X3175000Y20194000D01*
X3195002Y20262121D01*
X3248658Y20308614D01*
X3301000Y20320000D01*
X5715001Y20320000D01*
X6984999Y21589998D01*
X6985000Y21590000D01*
X6985000Y27179000D01*
X7005002Y27247121D01*
X7058658Y27293614D01*
X7111000Y27305000D01*
X9399000Y27305000D01*
X9467121Y27284998D01*
G37*
%TD.AperFunction*%
%TD*%
%TA.AperFunction,Conductor*%
%TO.N,Net-(D2-Pad2)*%
G36*
X20897121Y24109998D02*
G01*
X20943614Y24056342D01*
X20955000Y24004000D01*
X20955000Y22351000D01*
X20934998Y22282879D01*
X20881342Y22236386D01*
X20829000Y22225000D01*
X16001000Y22225000D01*
X15932879Y22245002D01*
X15886386Y22298658D01*
X15875000Y22351000D01*
X15875000Y22636135D01*
X15879311Y22663372D01*
X15878170Y22663615D01*
X15879542Y22670069D01*
X15884742Y22719553D01*
X15899504Y22860000D01*
X15879542Y23049928D01*
X15879538Y23049940D01*
X15878168Y23056391D01*
X15879313Y23056634D01*
X15875000Y23083863D01*
X15875000Y23906135D01*
X15879311Y23933372D01*
X15878170Y23933615D01*
X15879541Y23940069D01*
X15879542Y23940072D01*
X15887645Y24017170D01*
X15914658Y24082827D01*
X15972879Y24123457D01*
X16012955Y24130000D01*
X20829000Y24130000D01*
X20897121Y24109998D01*
G37*
%TD.AperFunction*%
%TD*%
%TA.AperFunction,Conductor*%
%TO.N,Net-(Q1-Pad3)*%
G36*
X29239972Y24109998D02*
G01*
X29241743Y24108838D01*
X31058892Y22897405D01*
X31104477Y22842976D01*
X31115000Y22792567D01*
X31115000Y20446000D01*
X31094998Y20377879D01*
X31041342Y20331386D01*
X30989000Y20320000D01*
X27357190Y20320000D01*
X27289069Y20340002D01*
X27268099Y20356900D01*
X26670000Y20955000D01*
X25452190Y20955000D01*
X25384069Y20975002D01*
X25363095Y20991905D01*
X24801905Y21553095D01*
X24767879Y21615407D01*
X24765000Y21642190D01*
X24765000Y24004000D01*
X24785002Y24072121D01*
X24838658Y24118614D01*
X24891000Y24130000D01*
X29171851Y24130000D01*
X29239972Y24109998D01*
G37*
%TD.AperFunction*%
%TD*%
%TA.AperFunction,Conductor*%
%TO.N,Net-(P4-Pad1)*%
G36*
X25977121Y20299998D02*
G01*
X26023614Y20246342D01*
X26035000Y20194000D01*
X26035000Y13387190D01*
X26014998Y13319069D01*
X25998095Y13298095D01*
X24765000Y12065001D01*
X24765000Y3301000D01*
X24744998Y3232879D01*
X24691342Y3186386D01*
X24639000Y3175000D01*
X21081000Y3175000D01*
X21012879Y3195002D01*
X20966386Y3248658D01*
X20955000Y3301000D01*
X20955000Y12065000D01*
X19721905Y13298095D01*
X19687880Y13360407D01*
X19685000Y13387190D01*
X19685000Y20194000D01*
X19705002Y20262121D01*
X19758658Y20308614D01*
X19811000Y20320000D01*
X25909000Y20320000D01*
X25977121Y20299998D01*
G37*
%TD.AperFunction*%
%TD*%
M02*
