M48
; DRILL file {KiCad 7.0.11+1} date Sat Jul  6 19:00:13 2024
; FORMAT={3:3/ absolute / metric / suppress leading zeros}
; #@! TF.CreationDate,2024-07-06T19:00:13+00:00
; #@! TF.GenerationSoftware,Kicad,Pcbnew,7.0.11+1
; #@! TF.FileFunction,Plated,1,2,PTH
FMAT,2
METRIC,TZ
; #@! TA.AperFunction,Plated,PTH,ViaDrill
T1C0.400
; #@! TA.AperFunction,Plated,PTH,ComponentDrill
T2C0.889
; #@! TA.AperFunction,Plated,PTH,ComponentDrill
T3C1.200
; #@! TA.AperFunction,Plated,PTH,ComponentDrill
T4C1.300
; #@! TA.AperFunction,Plated,PTH,ComponentDrill
T5C3.000
%
G90
G05
T1
X7620Y14224
X7620Y12700
X7620Y11430
X7620Y10160
X8636Y12700
X8636Y11430
X8636Y10160
X9652Y12700
X9652Y11430
X9652Y10160
X14986Y24130
X14986Y22860
X14986Y21590
X14986Y20320
X14986Y19050
X15494Y27940
X15494Y26924
X15494Y25908
X16002Y16764
X16510Y27940
X16510Y26924
X16510Y25908
X17018Y38862
X17272Y16764
X17526Y27940
X17526Y26924
X17526Y25908
X18542Y16764
X20574Y26924
X22352Y24130
X22352Y23114
X23368Y24130
X23368Y23114
X25908Y28702
X26035Y38100
X26924Y27432
X26924Y26416
X27178Y13208
X27686Y19050
X27686Y17780
X27686Y16510
X27940Y27432
X27940Y26416
X28448Y13208
X28956Y19050
X28956Y17780
X28956Y16510
X29210Y38862
X29210Y37846
X29210Y36830
X29210Y34798
X29210Y33782
X29210Y32512
X29210Y28702
X29210Y27686
X29210Y26416
X29718Y13208
X30226Y19050
X30226Y17780
X30226Y16510
X30734Y11430
X30734Y9906
X30734Y8382
X31496Y19050
X31496Y17780
X31496Y16510
X31750Y14986
X31750Y13716
X31750Y12446
X31750Y11430
T2
X12700Y37465
X12700Y34925
X15240Y37465
X15240Y34925
T3
X8255Y26035
X13255Y26035
T4
X12700Y10160
X12700Y5160
X17780Y10160
X17780Y5160
X22860Y10160
X22860Y5160
X27940Y10160
X27940Y5160
T5
X5080Y35560
X5080Y5080
X35560Y35560
X35560Y5080
M30
