%TF.GenerationSoftware,KiCad,Pcbnew,7.0.11+1*%
%TF.CreationDate,2024-07-06T19:00:13+00:00*%
%TF.ProjectId,COILSW01,434f494c-5357-4303-912e-6b696361645f,REV*%
%TF.SameCoordinates,Original*%
%TF.FileFunction,Soldermask,Bot*%
%TF.FilePolarity,Negative*%
%FSLAX46Y46*%
G04 Gerber Fmt 4.6, Leading zero omitted, Abs format (unit mm)*
G04 Created by KiCad (PCBNEW 7.0.11+1) date 2024-07-06 19:00:13*
%MOMM*%
%LPD*%
G01*
G04 APERTURE LIST*
G04 Aperture macros list*
%AMRoundRect*
0 Rectangle with rounded corners*
0 $1 Rounding radius*
0 $2 $3 $4 $5 $6 $7 $8 $9 X,Y pos of 4 corners*
0 Add a 4 corners polygon primitive as box body*
4,1,4,$2,$3,$4,$5,$6,$7,$8,$9,$2,$3,0*
0 Add four circle primitives for the rounded corners*
1,1,$1+$1,$2,$3*
1,1,$1+$1,$4,$5*
1,1,$1+$1,$6,$7*
1,1,$1+$1,$8,$9*
0 Add four rect primitives between the rounded corners*
20,1,$1+$1,$2,$3,$4,$5,0*
20,1,$1+$1,$4,$5,$6,$7,0*
20,1,$1+$1,$6,$7,$8,$9,0*
20,1,$1+$1,$8,$9,$2,$3,0*%
G04 Aperture macros list end*
%ADD10RoundRect,0.200000X-1.200000X-1.200000X1.200000X-1.200000X1.200000X1.200000X-1.200000X1.200000X0*%
%ADD11C,2.800000*%
%ADD12RoundRect,0.200000X-0.762000X-0.762000X0.762000X-0.762000X0.762000X0.762000X-0.762000X0.762000X0*%
%ADD13C,6.400000*%
%ADD14RoundRect,0.200000X1.905000X1.905000X-1.905000X1.905000X-1.905000X-1.905000X1.905000X-1.905000X0*%
%ADD15RoundRect,0.200000X0.698500X-0.444500X0.698500X0.444500X-0.698500X0.444500X-0.698500X-0.444500X0*%
%ADD16RoundRect,0.200000X-0.698500X0.444500X-0.698500X-0.444500X0.698500X-0.444500X0.698500X0.444500X0*%
%ADD17RoundRect,0.200000X-1.600000X0.500000X-1.600000X-0.500000X1.600000X-0.500000X1.600000X0.500000X0*%
%ADD18RoundRect,0.200000X-0.600000X1.100000X-0.600000X-1.100000X0.600000X-1.100000X0.600000X1.100000X0*%
%ADD19RoundRect,0.200000X-2.900000X3.200000X-2.900000X-3.200000X2.900000X-3.200000X2.900000X3.200000X0*%
%ADD20RoundRect,0.200000X3.200000X2.900000X-3.200000X2.900000X-3.200000X-2.900000X3.200000X-2.900000X0*%
%ADD21RoundRect,0.200000X1.100000X0.600000X-1.100000X0.600000X-1.100000X-0.600000X1.100000X-0.600000X0*%
%ADD22RoundRect,0.200000X0.444500X0.698500X-0.444500X0.698500X-0.444500X-0.698500X0.444500X-0.698500X0*%
%ADD23RoundRect,0.200000X-0.225000X0.725000X-0.225000X-0.725000X0.225000X-0.725000X0.225000X0.725000X0*%
%ADD24RoundRect,0.200000X-1.350010X1.275080X-1.350010X-1.275080X1.350010X-1.275080X1.350010X1.275080X0*%
G04 APERTURE END LIST*
D10*
%TO.C,C3*%
X8255000Y26035000D03*
D11*
X13255000Y26035000D03*
%TD*%
D12*
%TO.C,J2*%
X12700000Y37465000D03*
X12700000Y34925000D03*
%TD*%
%TO.C,J3*%
X15240000Y37465000D03*
X15240000Y34925000D03*
%TD*%
D13*
%TO.C,M1*%
X35560000Y5080000D03*
%TD*%
%TO.C,M2*%
X35560000Y35560000D03*
%TD*%
%TO.C,M3*%
X5080000Y5080000D03*
%TD*%
%TO.C,M4*%
X5080000Y35560000D03*
%TD*%
D14*
%TO.C,P3*%
X17780000Y5160000D03*
X17780000Y10160000D03*
%TD*%
%TO.C,P2*%
X27940000Y5160000D03*
X27940000Y10160000D03*
%TD*%
%TO.C,P4*%
X22860000Y5160000D03*
X22860000Y10160000D03*
%TD*%
%TO.C,P1*%
X12700000Y5160000D03*
X12700000Y10160000D03*
%TD*%
D15*
%TO.C,C5*%
X17462500Y13652500D03*
X17462500Y15557500D03*
%TD*%
%TO.C,C6*%
X18415000Y37147500D03*
X18415000Y39052500D03*
%TD*%
D16*
%TO.C,R1*%
X27305000Y38417500D03*
X27305000Y36512500D03*
%TD*%
D15*
%TO.C,R3*%
X22225000Y37147500D03*
X22225000Y39052500D03*
%TD*%
%TO.C,R4*%
X24130000Y37147500D03*
X24130000Y39052500D03*
%TD*%
D17*
%TO.C,R5*%
X29210000Y20880000D03*
X29210000Y14680000D03*
%TD*%
D18*
%TO.C,Q1*%
X20580000Y23250000D03*
D19*
X22860000Y16950000D03*
D18*
X25140000Y23250000D03*
%TD*%
D20*
%TO.C,D2*%
X10795000Y20955000D03*
D21*
X17095000Y23235000D03*
X17095000Y18675000D03*
%TD*%
D16*
%TO.C,C7*%
X27305000Y30162500D03*
X27305000Y28257500D03*
%TD*%
D22*
%TO.C,R6*%
X25400000Y26352500D03*
X23495000Y26352500D03*
%TD*%
D23*
%TO.C,U1*%
X20275000Y34700000D03*
X20925000Y34700000D03*
X21575000Y34700000D03*
X22225000Y34700000D03*
X22875000Y34700000D03*
X23525000Y34700000D03*
X24175000Y34700000D03*
X24175000Y28800000D03*
X23525000Y28800000D03*
X22875000Y28800000D03*
X22225000Y28800000D03*
X21575000Y28800000D03*
X20925000Y28800000D03*
X20275000Y28800000D03*
%TD*%
D15*
%TO.C,R2*%
X20320000Y37147500D03*
X20320000Y39052500D03*
%TD*%
D16*
%TO.C,C1*%
X27305000Y34607500D03*
X27305000Y32702500D03*
%TD*%
D24*
%TO.C,C4*%
X4445000Y18415000D03*
X4445000Y12065000D03*
%TD*%
M02*
