%TF.GenerationSoftware,KiCad,Pcbnew,7.0.11+1*%
%TF.CreationDate,2024-07-06T19:00:13+00:00*%
%TF.ProjectId,COILSW01,434f494c-5357-4303-912e-6b696361645f,REV*%
%TF.SameCoordinates,Original*%
%TF.FileFunction,Paste,Bot*%
%TF.FilePolarity,Positive*%
%FSLAX46Y46*%
G04 Gerber Fmt 4.6, Leading zero omitted, Abs format (unit mm)*
G04 Created by KiCad (PCBNEW 7.0.11+1) date 2024-07-06 19:00:13*
%MOMM*%
%LPD*%
G01*
G04 APERTURE LIST*
%ADD10R,1.397000X0.889000*%
%ADD11R,3.200000X1.000000*%
%ADD12R,2.750000X3.050000*%
%ADD13R,1.200000X2.200000*%
%ADD14R,3.050000X2.750000*%
%ADD15R,2.200000X1.200000*%
%ADD16R,0.889000X1.397000*%
%ADD17R,0.450000X1.450000*%
%ADD18R,2.700020X2.550160*%
G04 APERTURE END LIST*
D10*
%TO.C,C5*%
X17462500Y13652500D03*
X17462500Y15557500D03*
%TD*%
%TO.C,C6*%
X18415000Y37147500D03*
X18415000Y39052500D03*
%TD*%
%TO.C,R1*%
X27305000Y38417500D03*
X27305000Y36512500D03*
%TD*%
%TO.C,R3*%
X22225000Y37147500D03*
X22225000Y39052500D03*
%TD*%
%TO.C,R4*%
X24130000Y37147500D03*
X24130000Y39052500D03*
%TD*%
D11*
%TO.C,R5*%
X29210000Y20880000D03*
X29210000Y14680000D03*
%TD*%
D12*
%TO.C,Q1*%
X24385000Y18625000D03*
X21335000Y18625000D03*
X24385000Y15275000D03*
X21335000Y15275000D03*
D13*
X20580000Y23250000D03*
X25140000Y23250000D03*
%TD*%
D14*
%TO.C,D2*%
X12470000Y19430000D03*
X12470000Y22480000D03*
X9120000Y19430000D03*
X9120000Y22480000D03*
D15*
X17095000Y23235000D03*
X17095000Y18675000D03*
%TD*%
D10*
%TO.C,C7*%
X27305000Y30162500D03*
X27305000Y28257500D03*
%TD*%
D16*
%TO.C,R6*%
X25400000Y26352500D03*
X23495000Y26352500D03*
%TD*%
D17*
%TO.C,U1*%
X20275000Y34700000D03*
X20925000Y34700000D03*
X21575000Y34700000D03*
X22225000Y34700000D03*
X22875000Y34700000D03*
X23525000Y34700000D03*
X24175000Y34700000D03*
X24175000Y28800000D03*
X23525000Y28800000D03*
X22875000Y28800000D03*
X22225000Y28800000D03*
X21575000Y28800000D03*
X20925000Y28800000D03*
X20275000Y28800000D03*
%TD*%
D10*
%TO.C,R2*%
X20320000Y37147500D03*
X20320000Y39052500D03*
%TD*%
%TO.C,C1*%
X27305000Y34607500D03*
X27305000Y32702500D03*
%TD*%
D18*
%TO.C,C4*%
X4445000Y18415000D03*
X4445000Y12065000D03*
%TD*%
M02*
