%TF.GenerationSoftware,KiCad,Pcbnew,7.0.11+1*%
%TF.CreationDate,2024-07-06T19:00:13+00:00*%
%TF.ProjectId,COILSW01,434f494c-5357-4303-912e-6b696361645f,REV*%
%TF.SameCoordinates,Original*%
%TF.FileFunction,Legend,Bot*%
%TF.FilePolarity,Positive*%
%FSLAX46Y46*%
G04 Gerber Fmt 4.6, Leading zero omitted, Abs format (unit mm)*
G04 Created by KiCad (PCBNEW 7.0.11+1) date 2024-07-06 19:00:13*
%MOMM*%
%LPD*%
G01*
G04 APERTURE LIST*
%ADD10C,0.150000*%
%ADD11C,0.304800*%
%ADD12C,0.120000*%
G04 APERTURE END LIST*
D10*
X29664819Y17946666D02*
X29188628Y18279999D01*
X29664819Y18518094D02*
X28664819Y18518094D01*
X28664819Y18518094D02*
X28664819Y18137142D01*
X28664819Y18137142D02*
X28712438Y18041904D01*
X28712438Y18041904D02*
X28760057Y17994285D01*
X28760057Y17994285D02*
X28855295Y17946666D01*
X28855295Y17946666D02*
X28998152Y17946666D01*
X28998152Y17946666D02*
X29093390Y17994285D01*
X29093390Y17994285D02*
X29141009Y18041904D01*
X29141009Y18041904D02*
X29188628Y18137142D01*
X29188628Y18137142D02*
X29188628Y18518094D01*
X28664819Y17041904D02*
X28664819Y17518094D01*
X28664819Y17518094D02*
X29141009Y17565713D01*
X29141009Y17565713D02*
X29093390Y17518094D01*
X29093390Y17518094D02*
X29045771Y17422856D01*
X29045771Y17422856D02*
X29045771Y17184761D01*
X29045771Y17184761D02*
X29093390Y17089523D01*
X29093390Y17089523D02*
X29141009Y17041904D01*
X29141009Y17041904D02*
X29236247Y16994285D01*
X29236247Y16994285D02*
X29474342Y16994285D01*
X29474342Y16994285D02*
X29569580Y17041904D01*
X29569580Y17041904D02*
X29617200Y17089523D01*
X29617200Y17089523D02*
X29664819Y17184761D01*
X29664819Y17184761D02*
X29664819Y17422856D01*
X29664819Y17422856D02*
X29617200Y17518094D01*
X29617200Y17518094D02*
X29569580Y17565713D01*
X23410057Y17367238D02*
X23362438Y17462476D01*
X23362438Y17462476D02*
X23267200Y17557714D01*
X23267200Y17557714D02*
X23124342Y17700571D01*
X23124342Y17700571D02*
X23076723Y17795809D01*
X23076723Y17795809D02*
X23076723Y17891047D01*
X23314819Y17843428D02*
X23267200Y17938666D01*
X23267200Y17938666D02*
X23171961Y18033904D01*
X23171961Y18033904D02*
X22981485Y18081523D01*
X22981485Y18081523D02*
X22648152Y18081523D01*
X22648152Y18081523D02*
X22457676Y18033904D01*
X22457676Y18033904D02*
X22362438Y17938666D01*
X22362438Y17938666D02*
X22314819Y17843428D01*
X22314819Y17843428D02*
X22314819Y17652952D01*
X22314819Y17652952D02*
X22362438Y17557714D01*
X22362438Y17557714D02*
X22457676Y17462476D01*
X22457676Y17462476D02*
X22648152Y17414857D01*
X22648152Y17414857D02*
X22981485Y17414857D01*
X22981485Y17414857D02*
X23171961Y17462476D01*
X23171961Y17462476D02*
X23267200Y17557714D01*
X23267200Y17557714D02*
X23314819Y17652952D01*
X23314819Y17652952D02*
X23314819Y17843428D01*
X23314819Y16462476D02*
X23314819Y17033904D01*
X23314819Y16748190D02*
X22314819Y16748190D01*
X22314819Y16748190D02*
X22457676Y16843428D01*
X22457676Y16843428D02*
X22552914Y16938666D01*
X22552914Y16938666D02*
X22600533Y17033904D01*
X11660094Y20627180D02*
X11660094Y21627180D01*
X11660094Y21627180D02*
X11421999Y21627180D01*
X11421999Y21627180D02*
X11279142Y21579561D01*
X11279142Y21579561D02*
X11183904Y21484323D01*
X11183904Y21484323D02*
X11136285Y21389085D01*
X11136285Y21389085D02*
X11088666Y21198609D01*
X11088666Y21198609D02*
X11088666Y21055752D01*
X11088666Y21055752D02*
X11136285Y20865276D01*
X11136285Y20865276D02*
X11183904Y20770038D01*
X11183904Y20770038D02*
X11279142Y20674800D01*
X11279142Y20674800D02*
X11421999Y20627180D01*
X11421999Y20627180D02*
X11660094Y20627180D01*
X10707713Y21531942D02*
X10660094Y21579561D01*
X10660094Y21579561D02*
X10564856Y21627180D01*
X10564856Y21627180D02*
X10326761Y21627180D01*
X10326761Y21627180D02*
X10231523Y21579561D01*
X10231523Y21579561D02*
X10183904Y21531942D01*
X10183904Y21531942D02*
X10136285Y21436704D01*
X10136285Y21436704D02*
X10136285Y21341466D01*
X10136285Y21341466D02*
X10183904Y21198609D01*
X10183904Y21198609D02*
X10755332Y20627180D01*
X10755332Y20627180D02*
X10136285Y20627180D01*
X21806819Y32765904D02*
X22616342Y32765904D01*
X22616342Y32765904D02*
X22711580Y32718285D01*
X22711580Y32718285D02*
X22759200Y32670666D01*
X22759200Y32670666D02*
X22806819Y32575428D01*
X22806819Y32575428D02*
X22806819Y32384952D01*
X22806819Y32384952D02*
X22759200Y32289714D01*
X22759200Y32289714D02*
X22711580Y32242095D01*
X22711580Y32242095D02*
X22616342Y32194476D01*
X22616342Y32194476D02*
X21806819Y32194476D01*
X22806819Y31194476D02*
X22806819Y31765904D01*
X22806819Y31480190D02*
X21806819Y31480190D01*
X21806819Y31480190D02*
X21949676Y31575428D01*
X21949676Y31575428D02*
X22044914Y31670666D01*
X22044914Y31670666D02*
X22092533Y31765904D01*
D11*
X4989038Y15694659D02*
X5061610Y15767231D01*
X5061610Y15767231D02*
X5134181Y15984945D01*
X5134181Y15984945D02*
X5134181Y16130088D01*
X5134181Y16130088D02*
X5061610Y16347802D01*
X5061610Y16347802D02*
X4916467Y16492945D01*
X4916467Y16492945D02*
X4771324Y16565516D01*
X4771324Y16565516D02*
X4481038Y16638088D01*
X4481038Y16638088D02*
X4263324Y16638088D01*
X4263324Y16638088D02*
X3973038Y16565516D01*
X3973038Y16565516D02*
X3827895Y16492945D01*
X3827895Y16492945D02*
X3682752Y16347802D01*
X3682752Y16347802D02*
X3610181Y16130088D01*
X3610181Y16130088D02*
X3610181Y15984945D01*
X3610181Y15984945D02*
X3682752Y15767231D01*
X3682752Y15767231D02*
X3755324Y15694659D01*
X4118181Y14388374D02*
X5134181Y14388374D01*
X3537610Y14751231D02*
X4626181Y15114088D01*
X4626181Y15114088D02*
X4626181Y14170659D01*
X1754530Y21472070D02*
X1754530Y20310928D01*
X2335101Y20891499D02*
X1173958Y20891499D01*
X1754530Y21472070D02*
X1754530Y20310928D01*
X2335101Y20891499D02*
X1173958Y20891499D01*
D10*
%TO.C,C5*%
X16700500Y13081000D02*
X18224500Y13081000D01*
X18224500Y13081000D02*
X18224500Y14097000D01*
X16700500Y14097000D02*
X16700500Y13081000D01*
X18224500Y15113000D02*
X18224500Y16129000D01*
X16700500Y16129000D02*
X16700500Y15113000D01*
X18224500Y16129000D02*
X16700500Y16129000D01*
X16827500Y12954000D02*
G75*
G03*
X16573500Y12954000I-127000J0D01*
G01*
X16573500Y12954000D02*
G75*
G03*
X16827500Y12954000I127000J0D01*
G01*
%TO.C,C6*%
X17653000Y36576000D02*
X19177000Y36576000D01*
X19177000Y36576000D02*
X19177000Y37592000D01*
X17653000Y37592000D02*
X17653000Y36576000D01*
X19177000Y38608000D02*
X19177000Y39624000D01*
X17653000Y39624000D02*
X17653000Y38608000D01*
X19177000Y39624000D02*
X17653000Y39624000D01*
X17780000Y36449000D02*
G75*
G03*
X17526000Y36449000I-127000J0D01*
G01*
X17526000Y36449000D02*
G75*
G03*
X17780000Y36449000I127000J0D01*
G01*
%TO.C,R1*%
X28067000Y38989000D02*
X26543000Y38989000D01*
X26543000Y38989000D02*
X26543000Y37973000D01*
X28067000Y37973000D02*
X28067000Y38989000D01*
X26543000Y36957000D02*
X26543000Y35941000D01*
X28067000Y35941000D02*
X28067000Y36957000D01*
X26543000Y35941000D02*
X28067000Y35941000D01*
X28194000Y39116000D02*
G75*
G03*
X27940000Y39116000I-127000J0D01*
G01*
X27940000Y39116000D02*
G75*
G03*
X28194000Y39116000I127000J0D01*
G01*
%TO.C,R3*%
X21463000Y36576000D02*
X22987000Y36576000D01*
X22987000Y36576000D02*
X22987000Y37592000D01*
X21463000Y37592000D02*
X21463000Y36576000D01*
X22987000Y38608000D02*
X22987000Y39624000D01*
X21463000Y39624000D02*
X21463000Y38608000D01*
X22987000Y39624000D02*
X21463000Y39624000D01*
X21590000Y36449000D02*
G75*
G03*
X21336000Y36449000I-127000J0D01*
G01*
X21336000Y36449000D02*
G75*
G03*
X21590000Y36449000I127000J0D01*
G01*
%TO.C,R4*%
X23368000Y36576000D02*
X24892000Y36576000D01*
X24892000Y36576000D02*
X24892000Y37592000D01*
X23368000Y37592000D02*
X23368000Y36576000D01*
X24892000Y38608000D02*
X24892000Y39624000D01*
X23368000Y39624000D02*
X23368000Y38608000D01*
X24892000Y39624000D02*
X23368000Y39624000D01*
X23495000Y36449000D02*
G75*
G03*
X23241000Y36449000I-127000J0D01*
G01*
X23241000Y36449000D02*
G75*
G03*
X23495000Y36449000I127000J0D01*
G01*
%TO.C,R5*%
X27385000Y20380000D02*
X27385000Y15180000D01*
X31013400Y15170800D02*
X31013400Y20370800D01*
D12*
%TO.C,Q1*%
X26310000Y21520000D02*
X26040000Y21520000D01*
X26040000Y21520000D02*
X26040000Y22620000D01*
X19680000Y21520000D02*
X19680000Y24350000D01*
X19410000Y21520000D02*
X19680000Y21520000D01*
X26310000Y20020000D02*
X26310000Y21520000D01*
X19410000Y20020000D02*
X19410000Y21520000D01*
%TO.C,D2*%
X15365000Y17505000D02*
X15365000Y17775000D01*
X15365000Y17775000D02*
X16465000Y17775000D01*
X15365000Y24135000D02*
X18195000Y24135000D01*
X15365000Y24405000D02*
X15365000Y24135000D01*
X13865000Y17505000D02*
X15365000Y17505000D01*
X13865000Y24405000D02*
X15365000Y24405000D01*
D10*
%TO.C,C7*%
X28067000Y30734000D02*
X26543000Y30734000D01*
X26543000Y30734000D02*
X26543000Y29718000D01*
X28067000Y29718000D02*
X28067000Y30734000D01*
X26543000Y28702000D02*
X26543000Y27686000D01*
X28067000Y27686000D02*
X28067000Y28702000D01*
X26543000Y27686000D02*
X28067000Y27686000D01*
X28194000Y30861000D02*
G75*
G03*
X27940000Y30861000I-127000J0D01*
G01*
X27940000Y30861000D02*
G75*
G03*
X28194000Y30861000I127000J0D01*
G01*
%TO.C,R6*%
X25971500Y25590500D02*
X25971500Y27114500D01*
X25971500Y27114500D02*
X24955500Y27114500D01*
X24955500Y25590500D02*
X25971500Y25590500D01*
X23939500Y27114500D02*
X22923500Y27114500D01*
X22923500Y25590500D02*
X23939500Y25590500D01*
X22923500Y27114500D02*
X22923500Y25590500D01*
X26225500Y25590500D02*
G75*
G03*
X25971500Y25590500I-127000J0D01*
G01*
X25971500Y25590500D02*
G75*
G03*
X26225500Y25590500I127000J0D01*
G01*
%TO.C,U1*%
X24850000Y34075000D02*
X24625000Y34075000D01*
X24850000Y34075000D02*
X24850000Y29425000D01*
X19725000Y34075000D02*
X19725000Y35425000D01*
X19600000Y34075000D02*
X19725000Y34075000D01*
X19600000Y34075000D02*
X19600000Y29425000D01*
X24850000Y29425000D02*
X24625000Y29425000D01*
X19600000Y29425000D02*
X19825000Y29425000D01*
%TO.C,R2*%
X19558000Y36576000D02*
X21082000Y36576000D01*
X21082000Y36576000D02*
X21082000Y37592000D01*
X19558000Y37592000D02*
X19558000Y36576000D01*
X21082000Y38608000D02*
X21082000Y39624000D01*
X19558000Y39624000D02*
X19558000Y38608000D01*
X21082000Y39624000D02*
X19558000Y39624000D01*
X19685000Y36449000D02*
G75*
G03*
X19431000Y36449000I-127000J0D01*
G01*
X19431000Y36449000D02*
G75*
G03*
X19685000Y36449000I127000J0D01*
G01*
%TO.C,C1*%
X28067000Y35179000D02*
X26543000Y35179000D01*
X26543000Y35179000D02*
X26543000Y34163000D01*
X28067000Y34163000D02*
X28067000Y35179000D01*
X26543000Y33147000D02*
X26543000Y32131000D01*
X28067000Y32131000D02*
X28067000Y33147000D01*
X26543000Y32131000D02*
X28067000Y32131000D01*
X28194000Y35306000D02*
G75*
G03*
X27940000Y35306000I-127000J0D01*
G01*
X27940000Y35306000D02*
G75*
G03*
X28194000Y35306000I127000J0D01*
G01*
%TO.C,C4*%
X1143000Y20894040D02*
X2242820Y20894040D01*
X2245360Y20241260D02*
X6644640Y20241260D01*
X6644640Y19761200D02*
X6644640Y10759440D01*
X2245360Y10739120D02*
X2245360Y19740880D01*
%TD*%
M02*
